<?xml version="1.0" standalone="no"?>
<!DOCTYPE svg PUBLIC "-//W3C//DTD SVG 1.1//EN" "http://www.w3.org/Graphics/SVG/1.1/DTD/svg11.dtd" >
<svg xmlns="http://www.w3.org/2000/svg" xmlns:xlink="http://www.w3.org/1999/xlink" version="1.1">
<metadata>
Created by FontForge 20170731 at Thu Apr  1 15:19:36 2021
 By Aleksey,,,
Copyright (c) 2015 by Mattox Shuler. All rights reserved.
</metadata>
<defs>
<font id="Termina-Demi" horiz-adv-x="1636" >
  <font-face 
    font-family="Termina Demi"
    font-weight="600"
    font-stretch="normal"
    units-per-em="2048"
    panose-1="0 0 7 0 0 0 0 0 0 0"
    ascent="1638"
    descent="-410"
    x-height="1128"
    cap-height="1434"
    bbox="-842 -770 3242 2236"
    underline-thickness="102"
    underline-position="-307"
    unicode-range="U+0020-FB02"
  />
<missing-glyph horiz-adv-x="1034" 
d="M848 1577v-2069h-655v2069h655zM688 1438h-340v-68h133v-76h-135v-69h342v69h-135v76h135v68zM553 1171h-207v-215h342v70h-135v145zM481 1102v-76h-67v76h67zM688 901h-342v-70h135v-75h-135v-68h207v143h135v70zM688 776h-67v-137h-275v-70h342v207zM688 524h-207v-116
h72v49h68v-99h-207v166h-68v-233h342v233zM688 166h-342v-234h342v234zM621 98v-98h-207v98h207zM688 -115h-342v-69h143l-143 -97v-67h342v67h-211l146 97h65v69z" />
    <glyph glyph-name="fi" unicode="fi" horiz-adv-x="1712" 
d="M1391 1264q-85 0 -139 45t-54 114q0 72 54 117t139 45q83 0 135.5 -45t52.5 -117q0 -69 -52.5 -114t-135.5 -45zM764 1346q-205 0 -205 -154v-64h473v-237h-465v-891h-317v891h-209v237h209v27q0 101 34 179t94.5 126.5t140.5 73.5t175 25q89 0 185.5 -20.5t164.5 -55.5
l-63 -195q-108 58 -217 58zM1235 0v1128h317v-1128h-317z" />
    <glyph glyph-name="fl" unicode="fl" horiz-adv-x="1720" 
d="M764 1346q-205 0 -205 -154v-64h473v-237h-465v-891h-317v891h-209v237h209v27q0 101 34 179t94.5 126.5t140.5 73.5t175 25q89 0 185.5 -20.5t164.5 -55.5l-63 -195q-108 58 -217 58zM1235 1516h317v-1516h-317v1516z" />
    <glyph glyph-name=".notdef" horiz-adv-x="1034" 
d="M848 1577v-2069h-655v2069h655zM688 1438h-340v-68h133v-76h-135v-69h342v69h-135v76h135v68zM553 1171h-207v-215h342v70h-135v145zM481 1102v-76h-67v76h67zM688 901h-342v-70h135v-75h-135v-68h207v143h135v70zM688 776h-67v-137h-275v-70h342v207zM688 524h-207v-116
h72v49h68v-99h-207v166h-68v-233h342v233zM688 166h-342v-234h342v234zM621 98v-98h-207v98h207zM688 -115h-342v-69h143l-143 -97v-67h342v67h-211l146 97h65v69z" />
    <glyph glyph-name=".null" horiz-adv-x="0" 
 />
    <glyph glyph-name="nonmarkingreturn" horiz-adv-x="682" 
 />
    <glyph glyph-name="space" unicode=" " horiz-adv-x="567" 
 />
    <glyph glyph-name="exclam" unicode="!" horiz-adv-x="684" 
d="M150 1434h382l-53 -965h-274zM340 -25q-86 0 -140.5 48t-54.5 122q0 73 55 122.5t140 49.5q84 0 138 -49.5t54 -122.5q0 -74 -54 -122t-138 -48z" />
    <glyph glyph-name="quotedbl" unicode="&#x22;" horiz-adv-x="1054" 
d="M150 1516h270v-625h-270v625zM635 1516h270v-625h-270v625z" />
    <glyph glyph-name="numbersign" unicode="#" horiz-adv-x="1951" 
d="M1866 885h-346l-88 -310h362v-210h-422l-104 -365h-269l105 365h-461l-104 -365h-269l105 365h-289v210h348l88 310h-364v211h426l96 338h268l-96 -338h461l96 338h268l-96 -338h285v-211zM1163 575l88 310h-460l-89 -310h461z" />
    <glyph glyph-name="dollar" unicode="$" horiz-adv-x="1810" 
d="M1726 455q0 -204 -180 -324.5t-518 -132.5v-211h-197v213q-457 30 -757 285l186 211q228 -197 571 -226v324q-123 11 -218 27.5t-189.5 47t-156.5 72.5t-100 106.5t-38 147.5q0 136 92.5 234.5t248 148.5t361.5 58v190h197v-192q388 -28 629 -215l-178 -215
q-174 132 -451 157v-287q133 -12 232.5 -29.5t191 -48.5t149 -75.5t91.5 -111.5t34 -154zM459 1028q0 -37 25 -62t79.5 -40t113.5 -22.5t154 -14.5v278q-372 -8 -372 -139zM1028 266q188 5 278.5 41.5t90.5 116.5q0 75 -81.5 105t-287.5 49v-312z" />
    <glyph glyph-name="percent" unicode="%" horiz-adv-x="1886" 
d="M453 780q-167 0 -275 99t-108 243q0 146 108 244t275 98t274 -98t107 -244q0 -145 -107.5 -243.5t-273.5 -98.5zM1384 1434h234l-1114 -1434h-234zM453 958q83 0 132.5 43t49.5 121t-49.5 121t-132.5 43t-133 -43t-50 -121t50 -121t133 -43zM1436 -31q-167 0 -275 99
t-108 243q0 146 108 244t275 98t274 -98t107 -244q0 -145 -107.5 -243.5t-273.5 -98.5zM1436 147q83 0 132.5 43t49.5 121t-49.5 121t-132.5 43t-133 -43t-50 -121t50 -121t133 -43z" />
    <glyph glyph-name="ampersand" unicode="&#x26;" horiz-adv-x="1867" 
d="M1880 0h-405l-107 80q-209 -121 -512 -121q-159 0 -299 37t-239.5 101.5t-156.5 154t-57 190.5q0 121 78 219.5t219 155.5q-127 120 -127 258q0 175 155 287.5t415 112.5q469 0 680 -375l-269 -109q-82 135 -178 193.5t-225 58.5q-122 0 -193 -44t-71 -122
q0 -41 28.5 -82t62 -70t121.5 -96q20 -16 31 -24l517 -397q68 112 77 276h291q-12 -257 -155 -438zM872 193q162 0 279 51l-594 444q-127 -79 -127 -217q0 -88 60 -152t158.5 -95t223.5 -31z" />
    <glyph glyph-name="quotesingle" unicode="'" horiz-adv-x="569" 
d="M150 1516h270v-625h-270v625z" />
    <glyph glyph-name="parenleft" unicode="(" horiz-adv-x="921" 
d="M375 594q0 -256 128 -431t339 -237l-90 -215q-140 34 -261 113.5t-209 193t-138 262.5t-50 314t50 314t138 262.5t209 193t261 113.5l90 -215q-211 -62 -339 -236t-128 -432z" />
    <glyph glyph-name="parenright" unicode=")" horiz-adv-x="921" 
d="M547 594q0 258 -128 432t-339 236l90 215q140 -34 260.5 -113.5t208.5 -193t138 -262.5t50 -314t-50 -314t-138 -262.5t-208.5 -193t-260.5 -113.5l-90 215q211 62 339 237t128 431z" />
    <glyph glyph-name="asterisk" unicode="*" horiz-adv-x="1236" 
d="M756 469l-138 358l-137 -358l-227 131l240 299l-377 -61v264l377 -58l-240 295l227 131l137 -358l138 358l227 -131l-240 -295l377 58v-264l-377 61l240 -299z" />
    <glyph glyph-name="plus" unicode="+" horiz-adv-x="1507" 
d="M1358 739v-241h-473v-416h-258v416h-477v241h477v414h258v-414h473z" />
    <glyph glyph-name="comma" unicode="," horiz-adv-x="612" 
d="M301 317q90 0 145.5 -60.5t55.5 -150.5q0 -111 -68.5 -237.5t-193.5 -210.5l-72 90q75 67 115.5 122t54.5 118q-13 -13 -49 -13q-74 0 -126 49t-52 123q0 71 54 120.5t136 49.5z" />
    <glyph glyph-name="hyphen" unicode="-" horiz-adv-x="1230" 
d="M1085 485h-940v267h940v-267z" />
    <glyph glyph-name="period" unicode="." horiz-adv-x="606" 
d="M303 -25q-86 0 -140 48t-54 122q0 73 54.5 122.5t139.5 49.5q84 0 138.5 -49.5t54.5 -122.5q0 -74 -54.5 -122t-138.5 -48z" />
    <glyph glyph-name="slash" unicode="/" horiz-adv-x="1511" 
d="M397 -205h-344l1061 1802h346z" />
    <glyph glyph-name="zero" unicode="0" horiz-adv-x="1943" 
d="M971 -45q-407 0 -639 202.5t-232 559.5t232 559.5t639 202.5q408 0 640 -202.5t232 -559.5t-232 -559.5t-640 -202.5zM973 238q253 0 394.5 123t141.5 356t-141.5 356t-394.5 123q-254 0 -396.5 -123t-142.5 -356t142.5 -356t396.5 -123z" />
    <glyph glyph-name="one" unicode="1" horiz-adv-x="1007" 
d="M487 0v1071q-160 -116 -434 -162v277q134 20 271.5 87.5t242.5 160.5h248v-1434h-328z" />
    <glyph glyph-name="two" unicode="2" horiz-adv-x="1685" 
d="M111 1141q107 149 305 242.5t440 93.5q104 0 203.5 -17t189 -52.5t157 -86.5t107 -124.5t39.5 -160.5q0 -90 -40 -164.5t-117.5 -133t-173.5 -103.5t-226 -86q-450 -149 -514 -285h1102v-264h-1503v145q31 200 219.5 365.5t505.5 267.5q215 73 274 101q124 57 139 127
q3 12 3 24q0 59 -55.5 102.5t-139 64t-180.5 20.5q-311 0 -541 -250z" />
    <glyph glyph-name="three" unicode="3" horiz-adv-x="1703" 
d="M317 446q76 -110 210.5 -168.5t314.5 -58.5q84 0 155.5 11t131.5 35t94 66t34 99q0 47 -23 81.5t-61.5 55.5t-97.5 34t-121 17.5t-143 4.5h-213v241h213q82 0 151.5 9.5t127.5 29t91 55t33 82.5q0 48 -33.5 83t-90 54t-120.5 28t-136 9q-177 0 -306 -59.5t-202 -159.5
l-238 158q117 150 308.5 237t437.5 87q143 0 270 -25.5t227 -73.5t158.5 -126t58.5 -175q0 -129 -99 -220.5t-245 -106.5q77 -12 144.5 -37t127 -66t94 -105t34.5 -143q0 -138 -101.5 -240t-270.5 -152t-382 -50q-260 0 -464.5 91t-328.5 249z" />
    <glyph glyph-name="four" unicode="4" horiz-adv-x="1796" 
d="M1735 555v-254h-291v-301h-320v301h-1085v191l1114 942h291v-879h291zM473 555h653v555z" />
    <glyph glyph-name="five" unicode="5" horiz-adv-x="1712" 
d="M268 451q92 -89 252.5 -155.5t356.5 -66.5q428 0 428 224q0 119 -119.5 176t-333.5 57q-248 0 -477 -94l-242 94l123 748h1235v-263h-987l-60 -366q239 131 527 131q105 0 202.5 -18.5t182.5 -57.5t148 -95.5t99.5 -137.5t36.5 -178q0 -103 -47.5 -191.5t-139.5 -156.5
t-240 -107t-336 -39q-251 0 -457 80.5t-352 224.5z" />
    <glyph glyph-name="six" unicode="6" horiz-adv-x="1820" 
d="M1063 938q97 0 190 -16.5t181.5 -53.5t154.5 -90.5t106 -135t40 -179.5q0 -226 -205.5 -367t-562.5 -141q-403 0 -635 205.5t-232 556.5t232 556.5t635 205.5q471 0 723 -246l-195 -191q-192 183 -498 183q-562 0 -565 -502q109 101 278.5 158t352.5 57zM967 209
q203 0 320.5 64.5t117.5 191.5q0 235 -412 235q-144 0 -288.5 -48.5t-245.5 -137.5q93 -305 508 -305z" />
    <glyph glyph-name="seven" unicode="7" horiz-adv-x="1562" 
d="M350 0l776 1159h-1085v275h1485v-215l-801 -1219h-375z" />
    <glyph glyph-name="eight" unicode="8" horiz-adv-x="1820" 
d="M1315 752q76 -11 145 -37t129 -68t95.5 -106.5t35.5 -143.5q0 -137 -103.5 -238t-286 -152.5t-421.5 -51.5t-421 51.5t-285 152.5t-103 238q0 79 35.5 143.5t95 106.5t129 68t146.5 37q-152 15 -251 102.5t-99 220.5q0 129 103 222t271 137.5t379 44.5t379.5 -44.5
t272.5 -137.5t104 -222q0 -133 -99.5 -220t-250.5 -103zM485 1044q0 -50 34 -88t94 -59.5t134 -32t162 -10.5q89 0 163 10.5t134.5 32t94.5 59.5t34 88t-34 88t-94.5 60t-135 32.5t-162.5 10.5t-162 -10.5t-134 -32.5t-94 -60t-34 -88zM909 199q103 0 186.5 12.5t148 37.5
t99.5 68t35 101q0 74 -62.5 123.5t-165.5 71.5t-241 22t-241 -22t-165.5 -71.5t-62.5 -123.5q0 -108 129 -163.5t340 -55.5z" />
    <glyph glyph-name="nine" unicode="9" horiz-adv-x="1820" 
d="M854 1479q403 0 634.5 -205t231.5 -557t-231.5 -557t-634.5 -205q-471 0 -723 246l195 190q191 -182 497 -182q563 0 566 502q-109 -101 -278.5 -158t-352.5 -57q-97 0 -190 16.5t-181.5 53.5t-154.5 90.5t-106 135t-40 179.5q0 226 205.5 367t562.5 141zM416 969
q0 -236 411 -236q143 0 288.5 49t246.5 138q-93 305 -508 305q-203 0 -320.5 -64.5t-117.5 -191.5z" />
    <glyph glyph-name="colon" unicode=":" horiz-adv-x="606" 
d="M303 811q-86 0 -140 48t-54 122q0 73 54.5 122.5t139.5 49.5q84 0 138.5 -49.5t54.5 -122.5q0 -74 -54.5 -122t-138.5 -48zM303 -25q-86 0 -140 48t-54 122q0 73 54.5 122.5t139.5 49.5q84 0 138.5 -49.5t54.5 -122.5q0 -74 -54.5 -122t-138.5 -48z" />
    <glyph glyph-name="semicolon" unicode=";" horiz-adv-x="612" 
d="M303 811q-86 0 -140 48t-54 122q0 73 54.5 122.5t139.5 49.5q84 0 138.5 -49.5t54.5 -122.5q0 -74 -54.5 -122t-138.5 -48zM301 317q90 0 145.5 -60.5t55.5 -150.5q0 -111 -68.5 -237.5t-193.5 -210.5l-72 90q75 67 115.5 122t54.5 118q-13 -13 -49 -13q-74 0 -126 49
t-52 123q0 71 54 120.5t136 49.5z" />
    <glyph glyph-name="less" unicode="&#x3c;" horiz-adv-x="1507" 
d="M1284 1155l-1112 -414v-266l1112 -414v258l-842 289l842 289v258z" />
    <glyph glyph-name="equal" unicode="=" horiz-adv-x="1507" 
d="M1358 766h-1208v250h1208v-250zM1358 250h-1208v250h1208v-250z" />
    <glyph glyph-name="greater" unicode="&#x3e;" horiz-adv-x="1507" 
d="M223 1155v-258l842 -289l-842 -289v-258l1112 414v266z" />
    <glyph glyph-name="question" unicode="?" horiz-adv-x="1538" 
d="M629 457v370q122 12 205 26.5t151 39t100.5 62t32.5 89.5q0 49 -29 84.5t-80 54.5t-109.5 27.5t-127.5 8.5q-328 0 -532 -236l-185 184q285 310 723 310q127 0 245 -26.5t215 -77t155.5 -134.5t58.5 -190q0 -89 -42.5 -161t-119 -120t-178.5 -77t-225 -38v-196h-258z
M756 -25q-86 0 -140.5 48t-54.5 122q0 73 55 122.5t140 49.5q84 0 138 -49.5t54 -122.5q0 -74 -54 -122t-138 -48z" />
    <glyph glyph-name="at" unicode="@" horiz-adv-x="2287" 
d="M1137 1415q311 0 548.5 -108.5t365.5 -302t128 -441.5q0 -502 -352 -502q-124 0 -217.5 59t-130.5 156q-73 -107 -202 -168t-276 -61q-153 0 -277.5 63t-197.5 182t-73 273q0 155 73 273.5t197 180.5t278 62q146 0 270 -60t195 -169l60 192h203v-624q0 -131 41 -186.5
t104 -55.5q82 0 132 100.5t50 284.5q0 145 -47.5 266.5t-131.5 208t-199.5 147t-252 89.5t-288.5 29q-191 0 -355.5 -47t-291 -137t-199 -233t-72.5 -323t72.5 -322.5t199 -232t291 -136t355.5 -46.5q381 0 598 149l59 -94q-216 -168 -657 -168q-233 0 -427.5 63t-329 174.5
t-209.5 269t-75 343.5t75 344t209.5 270t329.5 175t427 63zM1081 254q124 0 223 52t156 161v190q-57 109 -156 161t-223 52q-162 0 -259 -82t-97 -225t97.5 -226t258.5 -83z" />
    <glyph glyph-name="A" unicode="A" horiz-adv-x="1884" 
d="M1528 0l-154 303h-866l-154 -303h-350l760 1434h358l760 -1434h-354zM643 569h594l-297 584z" />
    <glyph glyph-name="B" unicode="B" horiz-adv-x="1912" 
d="M1419 750q178 -9 290 -101.5t112 -255.5q0 -188 -150 -290.5t-411 -102.5h-1067v1434h985q260 0 410.5 -97.5t150.5 -269.5q0 -129 -83 -218t-237 -99zM516 1176v-324h608q71 0 121 7t89.5 24t59 49.5t19.5 81.5q0 93 -72 127.5t-217 34.5h-608zM1192 258q59 0 101.5 4
t80.5 15.5t61.5 30.5t36.5 49.5t13 72.5q0 43 -13.5 73.5t-36.5 49.5t-61 30t-80.5 15t-101.5 4h-676v-344h676z" />
    <glyph glyph-name="C" unicode="C" horiz-adv-x="1828" 
d="M999 238q327 0 478 233l299 -149q-108 -162 -313.5 -264.5t-473.5 -102.5q-269 0 -469 90.5t-310 263t-110 408.5t110.5 408.5t314.5 263t479 90.5q258 0 461 -103t307 -262l-302 -149q-147 231 -471 231q-261 0 -413 -124t-152 -355t152 -355t413 -124z" />
    <glyph glyph-name="D" unicode="D" horiz-adv-x="1941" 
d="M954 1434q202 0 367 -49.5t280 -141.5t177.5 -226.5t62.5 -299.5t-62.5 -299.5t-177.5 -226.5t-280 -141.5t-367 -49.5h-761v1434h761zM930 279q266 0 421.5 111.5t155.5 326.5t-155.5 326.5t-421.5 111.5h-410v-876h410z" />
    <glyph glyph-name="E" unicode="E" horiz-adv-x="1759" 
d="M518 274h1151v-274h-1476v1434h1456v-275h-1131v-295h944v-274h-944v-316z" />
    <glyph glyph-name="F" unicode="F" horiz-adv-x="1695" 
d="M1642 1151h-1122v-332h946v-282h-946v-537h-327v1434h1449v-283z" />
    <glyph glyph-name="G" unicode="G" horiz-adv-x="1945" 
d="M1841 809v-518q-112 -153 -323 -244.5t-492 -91.5q-433 0 -679.5 202t-246.5 560t246.5 560t679.5 202q245 0 435 -77.5t311 -195.5l-256 -186q-95 93 -211 136.5t-277 43.5q-284 0 -439 -123t-155 -360t158.5 -360.5t447.5 -123.5q353 0 494 170v140h-541v266h848z" />
    <glyph glyph-name="H" unicode="H" horiz-adv-x="2017" 
d="M1497 1434h328v-1434h-328v584h-977v-584h-327v1434h327v-564h977v564z" />
    <glyph glyph-name="I" unicode="I" horiz-adv-x="712" 
d="M520 0h-327v1434h327v-1434z" />
    <glyph glyph-name="J" unicode="J" horiz-adv-x="1476" 
d="M233 406q64 -85 149.5 -124.5t215.5 -39.5q385 0 385 399v793h328v-818q0 -144 -44 -263.5t-130.5 -209t-224 -139t-314.5 -49.5q-396 0 -596 256z" />
    <glyph glyph-name="K" unicode="K" horiz-adv-x="1832" 
d="M1841 0h-393l-553 674l-375 -318v-356h-327v1434h327v-727l852 727h430l-667 -566z" />
    <glyph glyph-name="L" unicode="L" horiz-adv-x="1570" 
d="M520 283h1014v-283h-1341v1434h327v-1151z" />
    <glyph glyph-name="M" unicode="M" horiz-adv-x="2304" 
d="M1761 1434h350v-1434h-327v997l-629 -768h-16l-629 768v-997h-317v1434h356l606 -758z" />
    <glyph glyph-name="N" unicode="N" horiz-adv-x="2017" 
d="M1507 1434h318v-1434h-287l-1028 1036v-1036h-317v1434h348l966 -983v983z" />
    <glyph glyph-name="O" unicode="O" horiz-adv-x="2025" 
d="M1012 -45q-422 0 -667 202.5t-245 559.5t245 559.5t667 202.5t666.5 -202.5t244.5 -559.5t-244.5 -559.5t-666.5 -202.5zM1012 238q268 0 422.5 125.5t154.5 353.5t-154.5 353.5t-422.5 125.5q-269 0 -423.5 -125.5t-154.5 -353.5t154 -353.5t424 -125.5z" />
    <glyph glyph-name="P" unicode="P" horiz-adv-x="1849" 
d="M1174 1434q282 0 448 -127.5t166 -358.5q0 -233 -165.5 -359t-448.5 -126h-654v-463h-327v1434h981zM1147 733q72 0 126 10.5t96 34.5t63.5 66t21.5 102t-21.5 102t-63.5 66t-96 34.5t-126 10.5h-627v-426h627z" />
    <glyph glyph-name="Q" unicode="Q" horiz-adv-x="2025" 
d="M1923 717q0 -187 -70 -335t-202 -247l184 -198l-178 -154l-221 240q-186 -68 -424 -68q-422 0 -667 202.5t-245 559.5t245 559.5t667 202.5t666.5 -202.5t244.5 -559.5zM1012 238q106 0 202 22l-190 205l178 156l236 -254q151 123 151 350q0 228 -154.5 353.5
t-422.5 125.5q-269 0 -423.5 -125.5t-154.5 -353.5t154 -353.5t424 -125.5z" />
    <glyph glyph-name="R" unicode="R" horiz-adv-x="1908" 
d="M1839 0h-391l-412 487h-518v-487h-325v1434h989q132 0 243.5 -30.5t194.5 -89t129.5 -149t46.5 -204.5q0 -178 -107 -293t-292 -158zM516 758h647q69 0 120 9t93 30.5t64 62t22 98.5t-22 98.5t-64 62.5t-93 31t-120 9h-647v-401z" />
    <glyph glyph-name="S" unicode="S" horiz-adv-x="1787" 
d="M936 883q146 -12 257.5 -30.5t212.5 -52.5t166.5 -82t103.5 -120t38 -164q0 -218 -202 -348.5t-574 -130.5q-537 0 -877 289l189 223q259 -238 696 -238q438 0 438 174q0 44 -26.5 74t-90 50.5t-145.5 32.5t-215 24q-110 9 -201.5 23t-185 36t-163.5 55t-125.5 77
t-85 105t-29.5 136q0 146 99 252t269.5 158.5t393.5 52.5q234 0 431.5 -56.5t334.5 -162.5l-181 -228q-221 169 -585 172q-79 1 -151 -6.5t-138 -25t-105 -51.5t-39 -81q0 -74 108 -108q81 -25 321 -44h1h1h1h1h1l1 -1h1h1h1h1h1h1h1h1h1h1h1l1 -1h1h1h1h1h1h1h1h1h1h1h1h1
l1 -1h1h1h1h1h1h1h1h1h1h1l1 -1h1h1h1h1h1h1h1h1h1h1h1h1l1 -1h1h1h1h1h2z" />
    <glyph glyph-name="T" unicode="T" horiz-adv-x="1644" 
d="M1612 1434v-283h-627v-1151h-328v1151h-622v283h1577z" />
    <glyph glyph-name="U" unicode="U" horiz-adv-x="1943" 
d="M1450 1434h328v-758q0 -161 -53 -294t-154 -228t-253.5 -147t-344.5 -52t-344.5 52t-253.5 147t-154 228t-53 294v758h328v-734q0 -217 123.5 -337.5t353.5 -120.5t353.5 120.5t123.5 337.5v734z" />
    <glyph glyph-name="V" unicode="V" horiz-adv-x="1798" 
d="M4 1434h358l541 -1108l539 1108h354l-723 -1434h-346z" />
    <glyph glyph-name="W" unicode="W" horiz-adv-x="2533" 
d="M2165 1434h338l-525 -1434h-333l-377 1081l-381 -1081h-330l-524 1434h344l352 -1061l383 1061h318l380 -1061z" />
    <glyph glyph-name="X" unicode="X" horiz-adv-x="1718" 
d="M1702 1434l-647 -705l659 -729h-401l-463 508l-463 -508h-381l658 725l-648 709h402l452 -496l449 496h383z" />
    <glyph glyph-name="Y" unicode="Y" horiz-adv-x="1720" 
d="M6 1434h373l483 -672l481 672h371l-690 -945v-489h-328v489z" />
    <glyph glyph-name="Z" unicode="Z" horiz-adv-x="1753" 
d="M1636 1434v-224l-1067 -936h1100v-274h-1587v223l1067 936h-1030v275h1517z" />
    <glyph glyph-name="bracketleft" unicode="[" horiz-adv-x="921" 
d="M842 1200h-385v-1212h385v-234h-649v1680h649v-234z" />
    <glyph glyph-name="backslash" unicode="\" horiz-adv-x="1511" 
d="M1114 -205l-1063 1802h346l1061 -1802h-344z" />
    <glyph glyph-name="bracketright" unicode="]" horiz-adv-x="921" 
d="M80 1200v234h649v-1680h-649v234h385v1212h-385z" />
    <glyph glyph-name="asciicircum" unicode="^" horiz-adv-x="1507" 
d="M174 532h270l310 648l305 -648h272l-454 902h-250z" />
    <glyph glyph-name="underscore" unicode="_" horiz-adv-x="1345" 
d="M1341 -336h-1337v238h1337v-238z" />
    <glyph glyph-name="grave" unicode="`" horiz-adv-x="1202" 
d="M221 1927h420l301 -330h-246z" />
    <glyph glyph-name="a" unicode="a" horiz-adv-x="1558" 
d="M743 1171q312 0 486 -140t174 -400v-416q0 -124 51 -215h-326q-41 67 -41 133v2q-70 -76 -192.5 -126t-276.5 -50q-77 0 -151 12t-148.5 41t-130 72t-90.5 111.5t-35 152.5t35 152t90.5 111t130 72t148.5 40.5t151 11.5q155 0 277.5 -49.5t191.5 -126.5v74
q0 155 -101 227t-306 72q-123 0 -219 -20.5t-193 -73.5l-94 209q110 57 264 90.5t305 33.5zM1094 334v28q-105 166 -398 166q-56 0 -107 -7.5t-102.5 -25.5t-82.5 -56t-31 -91t31 -91t82.5 -56.5t102.5 -26.5t107 -8q292 0 398 168z" />
    <glyph glyph-name="b" unicode="b" horiz-adv-x="1671" 
d="M973 1169q178 0 316 -74t215 -212t77 -320t-77 -320t-215 -212t-316 -74q-165 0 -291.5 62.5t-200.5 162.5v-182h-317v1516h317v-572q74 100 200.5 162.5t291.5 62.5zM893 221q185 0 285 88.5t100 253.5t-100 253.5t-285 88.5q-270 0 -410 -184v-315q141 -185 410 -185z
" />
    <glyph glyph-name="c" unicode="c" horiz-adv-x="1484" 
d="M1440 270q-75 -140 -238.5 -227.5t-396.5 -87.5q-331 0 -523 164t-192 444q0 282 192 446.5t523 164.5q230 0 392 -87t237 -225l-293 -114q-90 170 -334 170q-184 0 -297 -91t-113 -264q0 -169 113 -260.5t297 -91.5q246 0 342 176z" />
    <glyph glyph-name="d" unicode="d" horiz-adv-x="1671" 
d="M698 1169q165 0 291.5 -62.5t200.5 -162.5v572h317v-1516h-317v182q-74 -100 -200.5 -162.5t-291.5 -62.5q-178 0 -316 74t-215 212t-77 320t77 320t215 212t316 74zM778 221q269 0 410 185v315q-140 184 -410 184q-185 0 -285 -88.5t-100 -253.5t100 -253.5t285 -88.5z
" />
    <glyph glyph-name="e" unicode="e" horiz-adv-x="1562" 
d="M395 492q42 -295 445 -295q141 0 241.5 35.5t192.5 109.5l170 -186q-228 -201 -621 -201q-346 0 -539.5 162.5t-193.5 445.5q0 284 189.5 447.5t521.5 163.5q315 0 499.5 -158t184.5 -451q0 -49 -8 -73h-1082zM803 932q-158 0 -259 -60t-134 -178l772 4q-71 234 -379 234
z" />
    <glyph glyph-name="f" unicode="f" horiz-adv-x="1067" 
d="M559 1192v-64h473v-237h-465v-891h-317v891h-209v237h209v27q0 101 34 179t94.5 126.5t140.5 73.5t175 25q89 0 185.5 -20.5t164.5 -55.5l-63 -195q-108 58 -217 58q-205 0 -205 -154z" />
    <glyph glyph-name="g" unicode="g" horiz-adv-x="1671" 
d="M1507 1128v-956q0 -134 -41 -242t-108.5 -178t-160.5 -116.5t-192 -66.5t-208 -20q-158 0 -326.5 38t-267.5 100l94 231q82 -53 202.5 -85t262.5 -32q428 0 428 318v96q-77 -106 -210 -164.5t-286 -58.5q-277 0 -440.5 158.5t-163.5 429.5t163.5 430t440.5 159
q160 0 289 -58.5t207 -166.5v184h317zM782 238q258 0 410 208v267q-148 209 -410 209q-185 0 -285 -90t-100 -252q0 -161 100 -251.5t285 -90.5z" />
    <glyph glyph-name="h" unicode="h" horiz-adv-x="1634" 
d="M973 1169q247 0 379.5 -141.5t132.5 -374.5v-653h-318v633q0 139 -73 212t-213 73q-264 0 -400 -240v-678h-317v1128v388h317v-404v-182q69 113 199 176t293 63z" />
    <glyph glyph-name="i" unicode="i" horiz-adv-x="645" 
d="M324 1264q-85 0 -139 45t-54 114q0 72 54 117t139 45q83 0 135.5 -45t52.5 -117q0 -69 -52.5 -114t-135.5 -45zM485 1128v-1128h-317v1128h317z" />
    <glyph glyph-name="j" unicode="j" horiz-adv-x="645" 
d="M324 1264q-85 0 -139 45t-54 114q0 72 54 117t139 45q83 0 135.5 -45t52.5 -117q0 -69 -52.5 -114t-135.5 -45zM162 1128h317v-1175q0 -188 -110 -297t-295 -109q-130 0 -250 47l59 220q61 -23 119 -23q72 0 116 46.5t44 125.5v1165z" />
    <glyph glyph-name="k" unicode="k" horiz-adv-x="1488" 
d="M1145 0l-397 506l-267 -225v-281h-317v1516h317v-936l609 548h374l-495 -448l526 -680h-350z" />
    <glyph glyph-name="l" unicode="l" horiz-adv-x="653" 
d="M485 0h-317v1516h317v-1516z" />
    <glyph glyph-name="m" unicode="m" horiz-adv-x="2525" 
d="M1892 1169q121 0 215 -39t152 -109t87.5 -162.5t29.5 -203.5v-655h-316v639q0 134 -68 206.5t-204 72.5q-239 0 -361 -238v-25v-432l3 -223h-318v639q0 134 -68 206.5t-204 72.5q-235 0 -359 -232v-686h-317v1128h317v-200q66 114 187 177.5t276 63.5q177 0 291 -80.5
t160 -220.5q60 137 191 219t306 82z" />
    <glyph glyph-name="n" unicode="n" horiz-adv-x="1634" 
d="M481 0h-317v1128h317v-198q69 113 199 176t293 63q247 0 379.5 -141.5t132.5 -374.5v-653h-318v633q0 139 -73 212t-213 73q-264 0 -400 -240v-678z" />
    <glyph glyph-name="o" unicode="o" horiz-adv-x="1622" 
d="M811 -45q-334 0 -527.5 163.5t-193.5 444.5q0 283 193 445.5t528 162.5q334 0 527.5 -163t193.5 -445q0 -281 -194 -444.5t-527 -163.5zM811 213q187 0 301.5 90.5t114.5 259.5q0 171 -114 260.5t-302 89.5q-186 0 -300 -89.5t-114 -260.5q0 -169 114 -259.5t300 -90.5z
" />
    <glyph glyph-name="p" unicode="p" horiz-adv-x="1671" 
d="M973 -41q-165 0 -291.5 62.5t-200.5 162.5v-594h-317v1538h317v-182q74 100 200.5 162.5t291.5 62.5q178 0 316 -74t215 -212t77 -320t-77 -320t-215 -212t-316 -74zM893 907q-270 0 -410 -184v-315q141 -185 410 -185q185 0 285 88.5t100 253.5t-100 253.5t-285 88.5z
" />
    <glyph glyph-name="q" unicode="q" horiz-adv-x="1671" 
d="M698 -41q-178 0 -316 74t-215 212t-77 320t77 320t215 212t316 74q165 0 291.5 -62.5t200.5 -162.5v182h317v-1538h-317v594q-74 -100 -200.5 -162.5t-291.5 -62.5zM778 907q-185 0 -285 -88.5t-100 -253.5t100 -253.5t285 -88.5q269 0 410 185v315q-140 184 -410 184z
" />
    <glyph glyph-name="r" unicode="r" horiz-adv-x="1019" 
d="M481 0h-317v1128h317v-233q67 125 202 191.5t302 66.5v-272q-189 0 -321.5 -74.5t-182.5 -220.5v-586z" />
    <glyph glyph-name="s" unicode="s" horiz-adv-x="1454" 
d="M770 707q137 -8 246 -32.5t193 -67.5t129.5 -111t45.5 -156q0 -170 -160 -277.5t-458 -107.5q-213 0 -399 61.5t-304 161.5l154 189q91 -78 235.5 -124t321.5 -46q318 0 318 120q0 59 -88 87.5t-277 41.5q-102 7 -187 21t-168 41t-139.5 64.5t-91.5 95.5t-35 131
q0 171 161 273t470 102q170 0 327.5 -47t268.5 -121l-145 -201q-192 127 -467 127q-55 0 -106 -5t-101 -16.5t-80.5 -35t-30.5 -56.5q0 -21 11.5 -37t37 -27.5t54 -19t75.5 -13t87 -9t102 -6.5z" />
    <glyph glyph-name="t" unicode="t" horiz-adv-x="1083" 
d="M977 281l65 -215q-73 -50 -172 -79.5t-198 -29.5q-186 0 -304 99.5t-118 283.5v551h-209v237h209v263h317v-263h465v-237h-465v-496q0 -83 55.5 -128.5t143.5 -45.5q89 0 211 60z" />
    <glyph glyph-name="u" unicode="u" horiz-adv-x="1634" 
d="M1153 1128h317v-1128h-317v199q-69 -113 -199 -176.5t-292 -63.5q-247 0 -379.5 141.5t-132.5 374.5v653h317v-632q0 -138 73.5 -211.5t213.5 -73.5q263 0 399 240v677z" />
    <glyph glyph-name="v" unicode="v" horiz-adv-x="1497" 
d="M1481 1128l-566 -1128h-331l-568 1128h342l394 -827l393 827h336z" />
    <glyph glyph-name="w" unicode="w" horiz-adv-x="2099" 
d="M1755 1128h307l-409 -1128h-312l-290 819l-293 -819h-314l-407 1128h313l273 -796l282 796h293l285 -796z" />
    <glyph glyph-name="x" unicode="x" horiz-adv-x="1417" 
d="M1391 1128l-498 -553l508 -575h-367l-332 387l-335 -387h-351l508 569l-499 559h364l326 -376l325 376h351z" />
    <glyph glyph-name="y" unicode="y" horiz-adv-x="1484" 
d="M1141 1128h327l-823 -1538h-323l268 480l-574 1058h334l402 -763z" />
    <glyph glyph-name="z" unicode="z" horiz-adv-x="1417" 
d="M1307 1128v-196l-787 -692h811v-242h-1251v199l786 692h-757v239h1198z" />
    <glyph glyph-name="braceleft" unicode="{" horiz-adv-x="1007" 
d="M645 942q0 -155 -82 -248.5t-223 -97.5q141 -8 223 -101t82 -247q0 -128 59.5 -194t161.5 -66h62v-234h-101q-209 0 -329.5 102t-120.5 314q0 83 -18.5 144.5t-50 99.5t-78.5 61.5t-97.5 32t-114.5 8.5v158q64 0 114.5 8.5t97.5 32t78.5 61.5t50 99.5t18.5 144.5
q0 212 120.5 313t329.5 101h101v-234h-62q-102 0 -161.5 -65t-59.5 -193z" />
    <glyph glyph-name="bar" unicode="|" horiz-adv-x="655" 
d="M180 -246v1680h297v-1680h-297z" />
    <glyph glyph-name="braceright" unicode="}" horiz-adv-x="1007" 
d="M362 942q0 128 -59.5 193t-161.5 65h-61v234h100q209 0 330 -101t121 -313q0 -83 18.5 -144.5t49.5 -99.5t78.5 -61.5t97.5 -32t114 -8.5v-158q-64 0 -114 -8.5t-97.5 -32t-78.5 -61.5t-49.5 -99.5t-18.5 -144.5q0 -212 -121 -314t-330 -102h-100v234h61q102 0 161.5 66
t59.5 194q0 154 82.5 247t223.5 101q-141 5 -223.5 98t-82.5 248z" />
    <glyph glyph-name="asciitilde" unicode="~" horiz-adv-x="1507" 
d="M1212 782l152 -186q-52 -65 -142.5 -111.5t-193.5 -46.5q-62 0 -134.5 17.5t-128 39t-129 39t-136.5 17.5q-69 0 -114 -23.5t-89 -70.5l-147 184q51 66 140.5 113t194.5 47q61 0 133 -17.5t128 -39t130 -39t138 -17.5q69 0 113 23.5t85 70.5z" />
    <glyph glyph-name="exclamdown" unicode="&#xa1;" horiz-adv-x="684" 
d="M340 1049q84 0 138 -48t54 -122q0 -73 -54 -122.5t-138 -49.5q-85 0 -140 49.5t-55 122.5q0 74 54.5 122t140.5 48zM150 -410l55 965h274l53 -965h-382z" />
    <glyph glyph-name="cent" unicode="&#xa2;" horiz-adv-x="1470" 
d="M1393 444q-67 -125 -202.5 -203t-330.5 -91v-150h-155v150q-285 21 -446 168t-161 399t161 400.5t446 168.5v148h155v-148q193 -13 328.5 -91.5t202.5 -201.5l-234 -96q-91 147 -297 166v-692q196 21 299 170zM377 717q0 -147 87 -234t241 -108v684q-154 -21 -241 -108
t-87 -234z" />
    <glyph glyph-name="sterling" unicode="&#xa3;" horiz-adv-x="1550" 
d="M670 231h778v-231h-1096h-254v231h254v387h-254v205h254v99q0 109 38.5 208t111 178t188.5 126t260 47q152 0 280.5 -53.5t203.5 -135.5l-131 -194q-130 127 -306 127q-161 0 -244 -88.5t-83 -247.5v-66h659v-205h-659v-387z" />
    <glyph glyph-name="currency" unicode="&#xa4;" horiz-adv-x="1638" 
d="M1444 729q0 -218 -127 -367l194 -192l-147 -137l-213 205q-141 -72 -332 -72q-190 0 -334 72l-213 -205l-147 137l194 195q-126 144 -126 364q0 202 106 338l-174 172l147 137l181 -172q154 88 366 88q211 0 365 -88l180 172l147 -137l-174 -172q107 -138 107 -338z
M819 383q172 0 277.5 90.5t105.5 255.5t-105.5 255.5t-277.5 90.5t-277.5 -90.5t-105.5 -255.5t105.5 -255.5t277.5 -90.5z" />
    <glyph glyph-name="yen" unicode="&#xa5;" horiz-adv-x="1777" 
d="M1718 1434l-538 -732h323v-141h-428l-20 -29v-112h448v-139h-448v-281h-328v281h-451v139h451v112l-20 29h-431v141h326l-541 732h367l465 -662l461 662h364z" />
    <glyph glyph-name="brokenbar" unicode="&#xa6;" horiz-adv-x="655" 
d="M180 760v674h297v-674h-297zM477 438v-684h-297v684h297z" />
    <glyph glyph-name="section" unicode="&#xa7;" horiz-adv-x="1497" 
d="M1223 346q166 -81 166 -248q0 -170 -164 -280.5t-465 -110.5q-393 0 -678 219l149 174q231 -174 537 -174q147 0 238.5 36t91.5 106q0 37 -23 62t-73.5 40.5t-111 24.5t-155.5 16q-101 8 -183.5 22t-163.5 41t-136 64.5t-89 95.5t-34 131q0 186 190 295q-182 87 -182 256
q0 115 80.5 198.5t219 125t319.5 41.5q169 0 324.5 -48t267.5 -126l-146 -172q-180 124 -446 127q-64 1 -119.5 -5.5t-104.5 -20.5t-77.5 -41.5t-28.5 -64.5q0 -24 11.5 -43t37.5 -32t53.5 -21.5t74.5 -15t85 -10t100 -7.5q109 -8 197 -23t166.5 -42t131.5 -65t83.5 -93
t30.5 -125q0 -92 -43.5 -172t-130.5 -135zM420 598q0 -74 94 -110t266 -48q66 -3 127 -12q91 23 144 71t53 107q0 75 -86.5 113.5t-263.5 52.5l-74 6q-113 -13 -186.5 -60.5t-73.5 -119.5z" />
    <glyph glyph-name="dieresis" unicode="&#xa8;" horiz-adv-x="1202" 
d="M322 1606q-70 0 -116 39.5t-46 99.5q0 62 45.5 100.5t116.5 38.5q70 0 115.5 -38.5t45.5 -100.5q0 -60 -46 -99.5t-115 -39.5zM881 1606q-70 0 -116 39.5t-46 99.5q0 62 45.5 100.5t116.5 38.5q70 0 115.5 -38.5t45.5 -100.5q0 -60 -46 -99.5t-115 -39.5z" />
    <glyph glyph-name="copyright" unicode="&#xa9;" horiz-adv-x="2013" 
d="M1008 -45q-275 0 -481.5 94.5t-316.5 267t-110 400.5t110 400.5t316.5 267t481.5 94.5q413 0 659 -208.5t246 -553.5t-246 -553.5t-659 -208.5zM1008 39q241 0 423.5 78.5t285 233t102.5 366.5t-102.5 366.5t-285 233t-423.5 78.5q-242 0 -425.5 -78.5t-288 -233
t-104.5 -366.5t104.5 -366.5t288 -233t425.5 -78.5zM1567 457q-79 -119 -223.5 -193t-342.5 -74q-274 0 -442 142t-168 387t168 386.5t442 141.5q197 0 339 -73t214 -191l-202 -96q-62 86 -141.5 124t-188.5 38q-173 0 -274 -86.5t-101 -243.5t101 -243.5t274 -86.5
q111 0 191.5 39t142.5 127z" />
    <glyph glyph-name="ordfeminine" unicode="&#xaa;" horiz-adv-x="1171" 
d="M559 1475q216 0 335.5 -97t119.5 -280v-291q0 -88 43 -150h-234q-32 35 -32 99v4q-40 -63 -125.5 -97t-194.5 -34q-67 0 -131 14t-122 44t-93 84t-35 126t35 126t93 84t122 44t131 14q108 0 193.5 -35t126.5 -98v68q0 106 -68.5 159.5t-198.5 53.5q-153 0 -297 -80
l-61 156q76 40 183 63t210 23zM793 885v24q-34 61 -106 89t-157 28q-37 0 -70.5 -5t-69 -18t-56.5 -40t-21 -66t21 -66t56.5 -40t69 -18t70.5 -5q86 0 157.5 27.5t105.5 89.5z" />
    <glyph glyph-name="guillemotleft" unicode="&#xab;" horiz-adv-x="1437" 
d="M498 1069l-432 -451l432 -450h309l-432 450l432 451h-309zM1036 1069l-432 -451l432 -450h310l-433 450l433 451h-310z" />
    <glyph glyph-name="logicalnot" unicode="&#xac;" horiz-adv-x="1507" 
d="M123 719h1239v-604h-266v368h-973v236z" />
    <glyph glyph-name="registered" unicode="&#xae;" horiz-adv-x="1169" 
d="M584 1454q134 0 244.5 -51.5t177.5 -151.5t67 -231q0 -130 -67 -230t-177.5 -151t-244.5 -51t-243.5 51t-176 151t-66.5 230q0 131 66.5 231t176 151.5t243.5 51.5zM586 645q183 0 301.5 100.5t118.5 274.5q0 175 -118.5 275t-301.5 100q-184 0 -303 -100t-119 -275
q0 -174 119 -274.5t303 -100.5zM850 1104q0 -54 -34 -90.5t-91 -50.5l135 -156h-137l-125 147h-129v-147h-119v446h303q88 0 142.5 -39t54.5 -110zM469 1165v-129h162q94 0 94 64q0 35 -23 50t-71 15h-162z" />
    <glyph glyph-name="macron" unicode="&#xaf;" horiz-adv-x="1202" 
d="M154 1860h893v-226h-893v226z" />
    <glyph glyph-name="degree" unicode="&#xb0;" horiz-adv-x="870" 
d="M434 872q-150 0 -246 82t-96 215q0 131 96 213t246 82q153 0 249.5 -82t96.5 -213q0 -133 -96.5 -215t-249.5 -82zM434 1016q82 0 130 41.5t48 111.5t-48 111t-130 41t-130 -41t-48 -111t48 -111.5t130 -41.5z" />
    <glyph glyph-name="plusminus" unicode="&#xb1;" horiz-adv-x="1507" 
d="M874 956h484v-221h-484v-391h-243v391h-481v221h481v387h243v-387zM150 29v221h1208v-221h-1208z" />
    <glyph glyph-name="uni00B2" unicode="&#xb2;" horiz-adv-x="978" 
d="M74 1626q70 87 181.5 139t246.5 52q100 0 186 -26.5t145.5 -86.5t59.5 -143q0 -102 -80 -171.5t-225 -121.5q-68 -25 -105 -39.5t-81.5 -35.5t-68.5 -41t-34 -42h610v-166h-852v100q17 118 121.5 211.5t282.5 153.5q15 6 40 15t39 14t34.5 13.5t32 14t26.5 14t23 16
t16 17t11 20.5t3 23q0 49 -57 75t-137 26q-89 0 -161 -33.5t-136 -105.5z" />
    <glyph glyph-name="uni00B3" unicode="&#xb3;" horiz-adv-x="995" 
d="M186 1210q107 -129 293 -129q61 0 111 11.5t84.5 40t34.5 71.5q0 109 -236 109h-121v145h121q209 0 209 98q0 99 -211 99q-166 0 -270 -119l-133 92q58 88 171 138.5t250 50.5q106 0 195 -24t149 -78.5t60 -129.5q0 -78 -56 -132.5t-143 -63.5q98 -15 165 -66.5
t67 -140.5q0 -122 -123 -192t-314 -70q-144 0 -261.5 54.5t-180.5 149.5z" />
    <glyph glyph-name="acute" unicode="&#xb4;" horiz-adv-x="1202" 
d="M981 1927l-475 -330h-246l301 330h420z" />
    <glyph glyph-name="paragraph" unicode="&#xb6;" horiz-adv-x="1918" 
d="M657 1434h1069v-1434h-262v1198h-254v-1198h-262v479h-291q-179 0 -311 52t-208.5 160.5t-76.5 264.5q0 229 162.5 353.5t433.5 124.5zM948 711v487h-295q-154 0 -237.5 -61t-83.5 -187q0 -239 321 -239h295z" />
    <glyph glyph-name="periodcentered" unicode="&#xb7;" horiz-adv-x="606" 
d="M303 416q-86 0 -140 48t-54 122q0 73 54.5 122.5t139.5 49.5q84 0 138.5 -49.5t54.5 -122.5q0 -74 -54.5 -122t-138.5 -48z" />
    <glyph glyph-name="cedilla" unicode="&#xb8;" horiz-adv-x="1202" 
d="M723 -117l-281 -329l-213 57l209 317z" />
    <glyph glyph-name="uni00B9" unicode="&#xb9;" horiz-adv-x="614" 
d="M285 942v621q-93 -70 -242 -93v172q76 10 155 50.5t138 95.5h153v-846h-204z" />
    <glyph glyph-name="ordmasculine" unicode="&#xba;" horiz-adv-x="1177" 
d="M590 627q-230 0 -364 114t-134 310q0 197 134 311.5t364 114.5t363.5 -114.5t133.5 -311.5q0 -196 -133.5 -310t-363.5 -114zM592 809q130 0 204 62t74 180q0 117 -74 179t-204 62t-205.5 -62.5t-75.5 -178.5q0 -118 75.5 -180t205.5 -62z" />
    <glyph glyph-name="guillemotright" unicode="&#xbb;" horiz-adv-x="1437" 
d="M401 1069h-309l432 -451l-432 -450h309l433 450zM940 1069h-309l432 -451l-432 -450h309l432 450z" />
    <glyph glyph-name="onequarter" unicode="&#xbc;" horiz-adv-x="2072" 
d="M285 588v618q-89 -64 -242 -88v170q75 10 154 50.5t139 95.5h153v-846h-204zM567 0h-227l920 1434h229zM2025 338v-156h-159v-182h-199v182h-606v117l620 547h185v-508h159zM1319 338h346v295z" />
    <glyph glyph-name="onehalf" unicode="&#xbd;" horiz-adv-x="2129" 
d="M285 588v618q-89 -64 -242 -88v170q75 10 154 50.5t139 95.5h153v-846h-204zM555 0h-227l919 1434h230zM1225 682q70 87 181.5 138.5t246.5 51.5q100 0 186 -26.5t145.5 -86.5t59.5 -143q0 -102 -79.5 -171t-225.5 -121q-68 -25 -105 -39.5t-81.5 -35.5t-68.5 -41
t-34 -42h610v-166h-852v100q17 118 121.5 211.5t282.5 153.5q15 6 40 15t39 14t34.5 13.5t32 14t26.5 14t23 16t16 17t11 20.5t3 23q0 49 -57 75t-138 26q-171 0 -296 -140z" />
    <glyph glyph-name="threequarters" unicode="&#xbe;" horiz-adv-x="2414" 
d="M186 854q107 -129 293 -129q61 0 111 11.5t84.5 40t34.5 71.5q0 108 -236 108h-121v146h121q209 0 209 98t-211 98q-166 0 -270 -118l-133 92q58 88 171 138t250 50q78 0 149 -14t129 -41.5t92 -73t34 -102.5q0 -78 -56 -133t-143 -64q98 -15 165 -66.5t67 -140.5
q0 -122 -123 -192t-314 -70q-144 0 -261.5 54.5t-180.5 150.5zM909 0h-227l920 1434h229zM2367 338v-156h-159v-182h-199v182h-606v117l620 547h185v-508h159zM1661 338h346v295z" />
    <glyph glyph-name="questiondown" unicode="&#xbf;" horiz-adv-x="1538" 
d="M782 1153q86 0 140.5 -48t54.5 -122q0 -73 -55 -122.5t-140 -49.5q-84 0 -138 49.5t-54 122.5q0 74 54 122t138 48zM909 672v-371q-122 -12 -205 -26.5t-151 -39t-100.5 -62t-32.5 -89.5q0 -49 29 -84.5t80.5 -54t109.5 -27t127 -8.5q329 0 532 235l185 -184
q-284 -309 -723 -309q-127 0 -245 26.5t-215 77t-155.5 134.5t-58.5 190q0 118 75 205t199.5 132.5t290.5 57.5v197h258z" />
    <glyph glyph-name="Agrave" unicode="&#xc0;" horiz-adv-x="1884" 
d="M1159 1597h-246l-475 330h420zM1528 0l-154 303h-866l-154 -303h-350l760 1434h358l760 -1434h-354zM643 569h594l-297 584z" />
    <glyph glyph-name="Aacute" unicode="&#xc1;" horiz-adv-x="1884" 
d="M1448 1927l-475 -330h-246l301 330h420zM1528 0l-154 303h-866l-154 -303h-350l760 1434h358l760 -1434h-354zM643 569h594l-297 584z" />
    <glyph glyph-name="Acircumflex" unicode="&#xc2;" horiz-adv-x="1884" 
d="M940 1790l-182 -193h-295l313 330h334l313 -330h-297zM1528 0l-154 303h-866l-154 -303h-350l760 1434h358l760 -1434h-354zM643 569h594l-297 584z" />
    <glyph glyph-name="Atilde" unicode="&#xc3;" horiz-adv-x="1884" 
d="M727 1710q-69 0 -114 -23.5t-89 -70.5l-147 184q51 65 141 112.5t195 47.5q59 0 120.5 -17.5t105.5 -39t104 -39t116 -17.5q69 0 113.5 23.5t85.5 71.5l151 -187q-53 -65 -142.5 -111.5t-192.5 -46.5q-59 0 -121.5 17.5t-107.5 39t-104.5 39t-113.5 17.5zM1528 0
l-154 303h-866l-154 -303h-350l760 1434h358l760 -1434h-354zM643 569h594l-297 584z" />
    <glyph glyph-name="Adieresis" unicode="&#xc4;" horiz-adv-x="1884" 
d="M664 1606q-70 0 -116 39.5t-46 99.5q0 62 45.5 100.5t116.5 38.5q70 0 115.5 -38.5t45.5 -100.5q0 -60 -46 -99.5t-115 -39.5zM1223 1606q-70 0 -116 39.5t-46 99.5q0 62 45.5 100.5t116.5 38.5q70 0 115.5 -38.5t45.5 -100.5q0 -60 -46 -99.5t-115 -39.5zM1528 0
l-154 303h-866l-154 -303h-350l760 1434h358l760 -1434h-354zM643 569h594l-297 584z" />
    <glyph glyph-name="Aring" unicode="&#xc5;" horiz-adv-x="1884" 
d="M942 1579q-138 0 -222.5 61t-84.5 175q0 113 85 176t222 63t223 -63t86 -176t-85.5 -174.5t-223.5 -61.5zM942 1925q-56 0 -89.5 -29t-33.5 -81q0 -53 33.5 -83t89.5 -30q57 0 91 30t34 83q0 52 -34 81t-91 29zM1528 0l-154 303h-866l-154 -303h-350l760 1434h358
l760 -1434h-354zM643 569h594l-297 584z" />
    <glyph glyph-name="AE" unicode="&#xc6;" horiz-adv-x="2912" 
d="M1671 274h1151v-274h-1476v313h-725l-265 -313h-385l1239 1434h170h1422v-275h-1131v-295h944v-274h-944v-316zM829 559h517v612z" />
    <glyph glyph-name="Ccedilla" unicode="&#xc7;" horiz-adv-x="1828" 
d="M999 238q327 0 478 233l299 -149q-108 -162 -313.5 -264.5t-473.5 -102.5q-269 0 -469 90.5t-310 263t-110 408.5t110.5 408.5t314.5 263t479 90.5q258 0 461 -103t307 -262l-302 -149q-147 231 -471 231q-261 0 -413 -124t-152 -355t152 -355t413 -124zM1122 -117
l-280 -329l-213 57l209 317z" />
    <glyph glyph-name="Egrave" unicode="&#xc8;" horiz-adv-x="1759" 
d="M408 1927h419l301 -330h-245zM518 274h1151v-274h-1476v1434h1456v-275h-1131v-295h944v-274h-944v-316z" />
    <glyph glyph-name="Eacute" unicode="&#xc9;" horiz-adv-x="1759" 
d="M1417 1927l-475 -330h-246l301 330h420zM518 274h1151v-274h-1476v1434h1456v-275h-1131v-295h944v-274h-944v-316z" />
    <glyph glyph-name="Ecircumflex" unicode="&#xca;" horiz-adv-x="1759" 
d="M432 1597h295l182 193l187 -193h297l-314 330h-334zM518 274h1151v-274h-1476v1434h1456v-275h-1131v-295h944v-274h-944v-316z" />
    <glyph glyph-name="Edieresis" unicode="&#xcb;" horiz-adv-x="1759" 
d="M633 1606q-70 0 -116 39.5t-46 99.5q0 62 45.5 100.5t116.5 38.5q70 0 116 -38.5t46 -100.5q0 -60 -46.5 -99.5t-115.5 -39.5zM1192 1606q-70 0 -116 39.5t-46 99.5q0 62 45.5 100.5t116.5 38.5q70 0 116 -38.5t46 -100.5q0 -60 -46.5 -99.5t-115.5 -39.5zM518 274h1151
v-274h-1476v1434h1456v-275h-1131v-295h944v-274h-944v-316z" />
    <glyph glyph-name="Igrave" unicode="&#xcc;" horiz-adv-x="712" 
d="M-147 1927h419l301 -330h-245zM520 0h-327v1434h327v-1434z" />
    <glyph glyph-name="Iacute" unicode="&#xcd;" horiz-adv-x="712" 
d="M862 1927l-475 -330h-246l301 330h420zM520 0h-327v1434h327v-1434z" />
    <glyph glyph-name="Icircumflex" unicode="&#xce;" horiz-adv-x="712" 
d="M-123 1597h295l182 193l187 -193h297l-314 330h-334zM520 0h-327v1434h327v-1434z" />
    <glyph glyph-name="Idieresis" unicode="&#xcf;" horiz-adv-x="712" 
d="M78 1606q-70 0 -116 39.5t-46 99.5q0 62 45.5 100.5t116.5 38.5q70 0 116 -38.5t46 -100.5q0 -60 -46.5 -99.5t-115.5 -39.5zM637 1606q-70 0 -116 39.5t-46 99.5q0 62 45.5 100.5t116.5 38.5q70 0 116 -38.5t46 -100.5q0 -60 -46.5 -99.5t-115.5 -39.5zM520 0h-327v1434
h327v-1434z" />
    <glyph glyph-name="Eth" unicode="&#xd0;" horiz-adv-x="1986" 
d="M1006 1434q409 0 644.5 -191.5t235.5 -525.5t-235.5 -525.5t-644.5 -191.5h-768v625h-203v213h203v596h768zM975 274q267 0 422 113t155 330t-155 329.5t-422 112.5h-412v-321h412v-213h-412v-351h412z" />
    <glyph glyph-name="Ntilde" unicode="&#xd1;" horiz-adv-x="2017" 
d="M1425 1942l152 -187q-52 -65 -142.5 -111.5t-193.5 -46.5q-59 0 -121 17.5t-107 39t-104.5 39t-113.5 17.5q-69 0 -114 -23.5t-89 -70.5l-148 184q51 65 141 112.5t195 47.5q59 0 120.5 -17.5t106 -39t104.5 -39t116 -17.5q68 0 112.5 23.5t85.5 71.5zM1507 1434h318
v-1434h-287l-1028 1036v-1036h-317v1434h348l966 -983v983z" />
    <glyph glyph-name="Ograve" unicode="&#xd2;" horiz-adv-x="2025" 
d="M510 1927h420l301 -330h-246zM1012 -45q-422 0 -667 202.5t-245 559.5t245 559.5t667 202.5t666.5 -202.5t244.5 -559.5t-244.5 -559.5t-666.5 -202.5zM1012 238q268 0 422.5 125.5t154.5 353.5t-154.5 353.5t-422.5 125.5q-269 0 -423.5 -125.5t-154.5 -353.5
t154 -353.5t424 -125.5z" />
    <glyph glyph-name="Oacute" unicode="&#xd3;" horiz-adv-x="2025" 
d="M1520 1927l-476 -330h-245l301 330h420zM1012 -45q-422 0 -667 202.5t-245 559.5t245 559.5t667 202.5t666.5 -202.5t244.5 -559.5t-244.5 -559.5t-666.5 -202.5zM1012 238q268 0 422.5 125.5t154.5 353.5t-154.5 353.5t-422.5 125.5q-269 0 -423.5 -125.5t-154.5 -353.5
t154 -353.5t424 -125.5z" />
    <glyph glyph-name="Ocircumflex" unicode="&#xd4;" horiz-adv-x="2025" 
d="M535 1597h294l183 193l186 -193h297l-313 330h-334zM1012 -45q-422 0 -667 202.5t-245 559.5t245 559.5t667 202.5t666.5 -202.5t244.5 -559.5t-244.5 -559.5t-666.5 -202.5zM1012 238q268 0 422.5 125.5t154.5 353.5t-154.5 353.5t-422.5 125.5q-269 0 -423.5 -125.5
t-154.5 -353.5t154 -353.5t424 -125.5z" />
    <glyph glyph-name="Otilde" unicode="&#xd5;" horiz-adv-x="2025" 
d="M1430 1942l151 -187q-52 -65 -142.5 -111.5t-193.5 -46.5q-59 0 -121 17.5t-107 39t-104.5 39t-113.5 17.5q-69 0 -114 -23.5t-89 -70.5l-147 184q51 66 140.5 113t194.5 47q59 0 120.5 -17.5t106 -39t104.5 -39t116 -17.5q69 0 113.5 23.5t85.5 71.5zM1012 -45
q-422 0 -667 202.5t-245 559.5t245 559.5t667 202.5t666.5 -202.5t244.5 -559.5t-244.5 -559.5t-666.5 -202.5zM1012 238q268 0 422.5 125.5t154.5 353.5t-154.5 353.5t-422.5 125.5q-269 0 -423.5 -125.5t-154.5 -353.5t154 -353.5t424 -125.5z" />
    <glyph glyph-name="Odieresis" unicode="&#xd6;" horiz-adv-x="2025" 
d="M735 1606q-70 0 -116 39.5t-46 99.5q0 62 45.5 100.5t116.5 38.5q70 0 116 -38.5t46 -100.5q0 -60 -46.5 -99.5t-115.5 -39.5zM1294 1606q-70 0 -115.5 39.5t-45.5 99.5q0 62 45 100.5t116 38.5q70 0 116 -38.5t46 -100.5q0 -60 -46.5 -99.5t-115.5 -39.5zM1012 -45
q-422 0 -667 202.5t-245 559.5t245 559.5t667 202.5t666.5 -202.5t244.5 -559.5t-244.5 -559.5t-666.5 -202.5zM1012 238q268 0 422.5 125.5t154.5 353.5t-154.5 353.5t-422.5 125.5q-269 0 -423.5 -125.5t-154.5 -353.5t154 -353.5t424 -125.5z" />
    <glyph glyph-name="multiply" unicode="&#xd7;" horiz-adv-x="1507" 
d="M1288 983l-360 -360l360 -361l-172 -176l-360 363l-361 -363l-174 176l361 361l-361 360l174 172l361 -360l360 360z" />
    <glyph glyph-name="Oslash" unicode="&#xd8;" horiz-adv-x="2025" 
d="M1599 1333q157 -98 240.5 -254.5t83.5 -361.5q0 -357 -244.5 -559.5t-666.5 -202.5q-221 0 -398 57l-155 -207h-256l221 295q-157 98 -240.5 255t-83.5 362q0 357 245 559.5t667 202.5q217 0 397 -58l156 207h256zM434 717q0 -246 174 -369l617 823q-103 25 -213 25
q-269 0 -423.5 -125.5t-154.5 -353.5zM1012 238q268 0 422.5 125.5t154.5 353.5q0 239 -174 368l-616 -823q99 -24 213 -24z" />
    <glyph glyph-name="Ugrave" unicode="&#xd9;" horiz-adv-x="1943" 
d="M469 1927h420l301 -330h-246zM1450 1434h328v-758q0 -161 -53 -294t-154 -228t-253.5 -147t-344.5 -52t-344.5 52t-253.5 147t-154 228t-53 294v758h328v-734q0 -217 123.5 -337.5t353.5 -120.5t353.5 120.5t123.5 337.5v734z" />
    <glyph glyph-name="Uacute" unicode="&#xda;" horiz-adv-x="1943" 
d="M1479 1927l-475 -330h-246l301 330h420zM1450 1434h328v-758q0 -161 -53 -294t-154 -228t-253.5 -147t-344.5 -52t-344.5 52t-253.5 147t-154 228t-53 294v758h328v-734q0 -217 123.5 -337.5t353.5 -120.5t353.5 120.5t123.5 337.5v734z" />
    <glyph glyph-name="Ucircumflex" unicode="&#xdb;" horiz-adv-x="1943" 
d="M494 1597h294l183 193l186 -193h297l-313 330h-334zM1450 1434h328v-758q0 -161 -53 -294t-154 -228t-253.5 -147t-344.5 -52t-344.5 52t-253.5 147t-154 228t-53 294v758h328v-734q0 -217 123.5 -337.5t353.5 -120.5t353.5 120.5t123.5 337.5v734z" />
    <glyph glyph-name="Udieresis" unicode="&#xdc;" horiz-adv-x="1943" 
d="M694 1606q-70 0 -116 39.5t-46 99.5q0 62 45.5 100.5t116.5 38.5q70 0 116 -38.5t46 -100.5q0 -60 -46.5 -99.5t-115.5 -39.5zM1253 1606q-70 0 -115.5 39.5t-45.5 99.5q0 62 45 100.5t116 38.5q70 0 116 -38.5t46 -100.5q0 -60 -46.5 -99.5t-115.5 -39.5zM1450 1434h328
v-758q0 -161 -53 -294t-154 -228t-253.5 -147t-344.5 -52t-344.5 52t-253.5 147t-154 228t-53 294v758h328v-734q0 -217 123.5 -337.5t353.5 -120.5t353.5 120.5t123.5 337.5v734z" />
    <glyph glyph-name="Yacute" unicode="&#xdd;" horiz-adv-x="1720" 
d="M1366 1927l-475 -330h-246l301 330h420zM6 1434h373l483 -672l481 672h371l-690 -945v-489h-328v489z" />
    <glyph glyph-name="Thorn" unicode="&#xde;" horiz-adv-x="1849" 
d="M1182 1210q179 0 314 -53t213.5 -162t78.5 -262q0 -156 -78.5 -266.5t-213.5 -164.5t-314 -54h-662v-248h-327v1434h327v-224h662zM1155 518q143 0 221 48.5t78 162.5t-78 162.5t-221 48.5h-635v-422h635z" />
    <glyph glyph-name="germandbls" unicode="&#xdf;" horiz-adv-x="1654" 
d="M696 244q116 -33 215 -33q162 0 246 59.5t84 175.5q0 117 -85 177.5t-251 60.5h-131v213h74q152 0 235.5 56.5t83.5 160.5q0 110 -85.5 159.5t-229.5 49.5q-173 0 -272 -91t-99 -255v-977h-317v932q0 134 43.5 247t127.5 197.5t216.5 132t300.5 47.5q182 0 326 -53
t224.5 -148t80.5 -216q0 -129 -93.5 -224t-252.5 -110q118 -9 213.5 -56t156 -134.5t60.5 -202.5q0 -187 -155.5 -309.5t-414.5 -122.5q-176 0 -350 51z" />
    <glyph glyph-name="agrave" unicode="&#xe0;" horiz-adv-x="1558" 
d="M274 1622h420l301 -330h-245zM743 1171q312 0 486 -140t174 -400v-416q0 -124 51 -215h-326q-41 67 -41 133v2q-70 -76 -192.5 -126t-276.5 -50q-77 0 -151 12t-148.5 41t-130 72t-90.5 111.5t-35 152.5t35 152t90.5 111t130 72t148.5 40.5t151 11.5q155 0 277.5 -49.5
t191.5 -126.5v74q0 155 -101 227t-306 72q-123 0 -219 -20.5t-193 -73.5l-94 209q110 57 264 90.5t305 33.5zM1094 334v28q-105 166 -398 166q-56 0 -107 -7.5t-102.5 -25.5t-82.5 -56t-31 -91t31 -91t82.5 -56.5t102.5 -26.5t107 -8q292 0 398 168z" />
    <glyph glyph-name="aacute" unicode="&#xe1;" horiz-adv-x="1558" 
d="M1284 1622l-475 -330h-246l301 330h420zM743 1171q312 0 486 -140t174 -400v-416q0 -124 51 -215h-326q-41 67 -41 133v2q-70 -76 -192.5 -126t-276.5 -50q-77 0 -151 12t-148.5 41t-130 72t-90.5 111.5t-35 152.5t35 152t90.5 111t130 72t148.5 40.5t151 11.5
q155 0 277.5 -49.5t191.5 -126.5v74q0 155 -101 227t-306 72q-123 0 -219 -20.5t-193 -73.5l-94 209q110 57 264 90.5t305 33.5zM1094 334v28q-105 166 -398 166q-56 0 -107 -7.5t-102.5 -25.5t-82.5 -56t-31 -91t31 -91t82.5 -56.5t102.5 -26.5t107 -8q292 0 398 168z" />
    <glyph glyph-name="acircumflex" unicode="&#xe2;" horiz-adv-x="1558" 
d="M299 1292h295l182 193l187 -193h297l-314 330h-334zM743 1171q312 0 486 -140t174 -400v-416q0 -124 51 -215h-326q-41 67 -41 133v2q-70 -76 -192.5 -126t-276.5 -50q-77 0 -151 12t-148.5 41t-130 72t-90.5 111.5t-35 152.5t35 152t90.5 111t130 72t148.5 40.5
t151 11.5q155 0 277.5 -49.5t191.5 -126.5v74q0 155 -101 227t-306 72q-123 0 -219 -20.5t-193 -73.5l-94 209q110 57 264 90.5t305 33.5zM1094 334v28q-105 166 -398 166q-56 0 -107 -7.5t-102.5 -25.5t-82.5 -56t-31 -91t31 -91t82.5 -56.5t102.5 -26.5t107 -8
q292 0 398 168z" />
    <glyph glyph-name="atilde" unicode="&#xe3;" horiz-adv-x="1558" 
d="M1194 1636l152 -186q-52 -65 -142.5 -111.5t-193.5 -46.5q-59 0 -121.5 17.5t-107.5 39t-104.5 39t-113.5 17.5q-69 0 -114 -23.5t-89 -70.5l-147 184q51 65 141 112.5t195 47.5q59 0 120.5 -17.5t105.5 -39t104 -39t116 -17.5q69 0 113.5 23.5t85.5 70.5zM743 1171
q312 0 486 -140t174 -400v-416q0 -124 51 -215h-326q-41 67 -41 133v2q-70 -76 -192.5 -126t-276.5 -50q-77 0 -151 12t-148.5 41t-130 72t-90.5 111.5t-35 152.5t35 152t90.5 111t130 72t148.5 40.5t151 11.5q155 0 277.5 -49.5t191.5 -126.5v74q0 155 -101 227t-306 72
q-123 0 -219 -20.5t-193 -73.5l-94 209q110 57 264 90.5t305 33.5zM1094 334v28q-105 166 -398 166q-56 0 -107 -7.5t-102.5 -25.5t-82.5 -56t-31 -91t31 -91t82.5 -56.5t102.5 -26.5t107 -8q292 0 398 168z" />
    <glyph glyph-name="adieresis" unicode="&#xe4;" horiz-adv-x="1558" 
d="M500 1300q-70 0 -116 40t-46 100q0 62 45.5 100.5t116.5 38.5q70 0 116 -38.5t46 -100.5q0 -60 -46.5 -100t-115.5 -40zM1059 1300q-70 0 -116 40t-46 100q0 62 45.5 100.5t116.5 38.5q70 0 116 -38.5t46 -100.5q0 -60 -46.5 -100t-115.5 -40zM743 1171q312 0 486 -140
t174 -400v-416q0 -124 51 -215h-326q-41 67 -41 133v2q-70 -76 -192.5 -126t-276.5 -50q-77 0 -151 12t-148.5 41t-130 72t-90.5 111.5t-35 152.5t35 152t90.5 111t130 72t148.5 40.5t151 11.5q155 0 277.5 -49.5t191.5 -126.5v74q0 155 -101 227t-306 72q-123 0 -219 -20.5
t-193 -73.5l-94 209q110 57 264 90.5t305 33.5zM1094 334v28q-105 166 -398 166q-56 0 -107 -7.5t-102.5 -25.5t-82.5 -56t-31 -91t31 -91t82.5 -56.5t102.5 -26.5t107 -8q292 0 398 168z" />
    <glyph glyph-name="aring" unicode="&#xe5;" horiz-adv-x="1558" 
d="M778 1274q-138 0 -222.5 60.5t-84.5 174.5q0 113 85 176.5t222 63.5t223 -63.5t86 -176.5t-85 -174t-224 -61zM655 1509q0 -53 33.5 -82.5t89.5 -29.5q57 0 91 29.5t34 82.5q0 52 -34.5 81.5t-90.5 29.5t-89.5 -29.5t-33.5 -81.5zM743 1171q312 0 486 -140t174 -400v-416
q0 -124 51 -215h-326q-41 67 -41 133v2q-70 -76 -192.5 -126t-276.5 -50q-77 0 -151 12t-148.5 41t-130 72t-90.5 111.5t-35 152.5t35 152t90.5 111t130 72t148.5 40.5t151 11.5q155 0 277.5 -49.5t191.5 -126.5v74q0 155 -101 227t-306 72q-123 0 -219 -20.5t-193 -73.5
l-94 209q110 57 264 90.5t305 33.5zM1094 334v28q-105 166 -398 166q-56 0 -107 -7.5t-102.5 -25.5t-82.5 -56t-31 -91t31 -91t82.5 -56.5t102.5 -26.5t107 -8q292 0 398 168z" />
    <glyph glyph-name="ae" unicode="&#xe6;" horiz-adv-x="2553" 
d="M1389 496v-19q23 -147 132 -210.5t310 -63.5q152 0 248.5 28.5t185.5 102.5l170 -178q-231 -201 -620 -201q-211 0 -367 62.5t-246 179.5q-84 -116 -246.5 -177t-332.5 -61q-99 0 -192.5 20.5t-178.5 63.5t-137 121.5t-52 183.5q0 84 35 152t90.5 111t130 72t148.5 40.5
t151 11.5q158 0 281 -52.5t191 -141.5v92q0 154 -102 226.5t-308 72.5q-252 0 -428 -98l-78 213q110 57 264 90.5t305 33.5q347 0 514 -176q185 179 535 179q309 0 496.5 -159t187.5 -446q0 -41 -8 -73h-1079zM1794 928q-162 0 -261.5 -54.5t-133.5 -175.5l776 4
q-35 117 -129 171.5t-252 54.5zM1096 334v28q-107 166 -398 166q-57 0 -108 -7.5t-103 -25.5t-83 -56t-31 -91t31 -91t82.5 -56.5t103.5 -26.5t108 -8q289 0 398 168z" />
    <glyph glyph-name="ccedilla" unicode="&#xe7;" horiz-adv-x="1484" 
d="M1440 270q-75 -140 -238.5 -227.5t-396.5 -87.5q-331 0 -523 164t-192 444q0 282 192 446.5t523 164.5q230 0 392 -87t237 -225l-293 -114q-90 170 -334 170q-184 0 -297 -91t-113 -264q0 -169 113 -260.5t297 -91.5q246 0 342 176zM936 -117l-281 -329l-213 57l209 317z
" />
    <glyph glyph-name="egrave" unicode="&#xe8;" horiz-adv-x="1562" 
d="M1018 1292h-246l-475 330h420zM395 492q42 -295 445 -295q141 0 241.5 35.5t192.5 109.5l170 -186q-228 -201 -621 -201q-346 0 -539.5 162.5t-193.5 445.5q0 284 189.5 447.5t521.5 163.5q315 0 499.5 -158t184.5 -451q0 -49 -8 -73h-1082zM803 932q-158 0 -259 -60
t-134 -178l772 4q-71 234 -379 234z" />
    <glyph glyph-name="eacute" unicode="&#xe9;" horiz-adv-x="1562" 
d="M1307 1622l-476 -330h-245l301 330h420zM395 492q42 -295 445 -295q141 0 241.5 35.5t192.5 109.5l170 -186q-228 -201 -621 -201q-346 0 -539.5 162.5t-193.5 445.5q0 284 189.5 447.5t521.5 163.5q315 0 499.5 -158t184.5 -451q0 -49 -8 -73h-1082zM803 932
q-158 0 -259 -60t-134 -178l772 4q-71 234 -379 234z" />
    <glyph glyph-name="ecircumflex" unicode="&#xea;" horiz-adv-x="1562" 
d="M799 1485l-183 -193h-294l313 330h334l313 -330h-297zM395 492q42 -295 445 -295q141 0 241.5 35.5t192.5 109.5l170 -186q-228 -201 -621 -201q-346 0 -539.5 162.5t-193.5 445.5q0 284 189.5 447.5t521.5 163.5q315 0 499.5 -158t184.5 -451q0 -49 -8 -73h-1082z
M803 932q-158 0 -259 -60t-134 -178l772 4q-71 234 -379 234z" />
    <glyph glyph-name="edieresis" unicode="&#xeb;" horiz-adv-x="1562" 
d="M522 1300q-70 0 -116 40t-46 100q0 62 45.5 100.5t116.5 38.5q70 0 116 -38.5t46 -100.5q0 -60 -46.5 -100t-115.5 -40zM1081 1300q-70 0 -115.5 40t-45.5 100q0 62 45 100.5t116 38.5q70 0 116 -38.5t46 -100.5q0 -60 -46.5 -100t-115.5 -40zM395 492q42 -295 445 -295
q141 0 241.5 35.5t192.5 109.5l170 -186q-228 -201 -621 -201q-346 0 -539.5 162.5t-193.5 445.5q0 284 189.5 447.5t521.5 163.5q315 0 499.5 -158t184.5 -451q0 -49 -8 -73h-1082zM803 932q-158 0 -259 -60t-134 -178l772 4q-71 234 -379 234z" />
    <glyph glyph-name="igrave" unicode="&#xec;" horiz-adv-x="653" 
d="M-176 1622h420l301 -330h-246zM485 1128v-1128h-317v1128h317z" />
    <glyph glyph-name="iacute" unicode="&#xed;" horiz-adv-x="653" 
d="M834 1622l-476 -330h-245l301 330h420zM485 1128v-1128h-317v1128h317z" />
    <glyph glyph-name="icircumflex" unicode="&#xee;" horiz-adv-x="653" 
d="M-152 1292h295l183 193l186 -193h297l-313 330h-334zM485 1128v-1128h-317v1128h317z" />
    <glyph glyph-name="idieresis" unicode="&#xef;" horiz-adv-x="653" 
d="M49 1300q-70 0 -116 40t-46 100q0 62 45.5 100.5t116.5 38.5q70 0 116 -38.5t46 -100.5q0 -60 -46.5 -100t-115.5 -40zM608 1300q-70 0 -116 40t-46 100q0 62 45.5 100.5t116.5 38.5q70 0 116 -38.5t46 -100.5q0 -60 -46.5 -100t-115.5 -40zM485 1128v-1128h-317v1128
h317z" />
    <glyph glyph-name="eth" unicode="&#xf0;" horiz-adv-x="1624" 
d="M1118 1339q109 -69 191.5 -155t130 -177.5t71 -181.5t23.5 -180q0 -179 -51 -313t-146.5 -216.5t-226 -122.5t-297.5 -40q-333 0 -528 149.5t-195 419.5q0 132 51 238.5t136.5 172.5t191 101t219.5 35q80 0 153.5 -10t153.5 -35.5t143.5 -78t96.5 -128.5
q-41 120 -153 220t-275 167l-328 -141l-59 129l180 78q-100 24 -205 33l45 251q282 -32 514 -129l303 131l60 -131zM809 197q90 0 166 19.5t134 58t91 102t33 145.5q0 160 -118.5 243t-305.5 83q-119 0 -211.5 -34t-150.5 -109t-58 -183q0 -82 33 -145.5t91 -102t132.5 -58
t163.5 -19.5z" />
    <glyph glyph-name="ntilde" unicode="&#xf1;" horiz-adv-x="1634" 
d="M1239 1636l152 -186q-52 -65 -142.5 -111.5t-193.5 -46.5q-59 0 -121.5 17.5t-107.5 39t-104.5 39t-113.5 17.5q-69 0 -113.5 -23.5t-88.5 -70.5l-148 184q51 65 141 112.5t195 47.5q59 0 120.5 -17.5t105.5 -39t104 -39t116 -17.5q69 0 113.5 23.5t85.5 70.5zM481 0
h-317v1128h317v-198q69 113 199 176t293 63q247 0 379.5 -141.5t132.5 -374.5v-653h-318v633q0 139 -73 212t-213 73q-264 0 -400 -240v-678z" />
    <glyph glyph-name="ograve" unicode="&#xf2;" horiz-adv-x="1622" 
d="M307 1622h420l301 -330h-246zM811 -45q-334 0 -527.5 163.5t-193.5 444.5q0 283 193 445.5t528 162.5q334 0 527.5 -163t193.5 -445q0 -281 -194 -444.5t-527 -163.5zM811 213q187 0 301.5 90.5t114.5 259.5q0 171 -114 260.5t-302 89.5q-186 0 -300 -89.5t-114 -260.5
q0 -169 114 -259.5t300 -90.5z" />
    <glyph glyph-name="oacute" unicode="&#xf3;" horiz-adv-x="1622" 
d="M1317 1622l-475 -330h-246l301 330h420zM811 -45q-334 0 -527.5 163.5t-193.5 444.5q0 283 193 445.5t528 162.5q334 0 527.5 -163t193.5 -445q0 -281 -194 -444.5t-527 -163.5zM811 213q187 0 301.5 90.5t114.5 259.5q0 171 -114 260.5t-302 89.5q-186 0 -300 -89.5
t-114 -260.5q0 -169 114 -259.5t300 -90.5z" />
    <glyph glyph-name="ocircumflex" unicode="&#xf4;" horiz-adv-x="1622" 
d="M332 1292h295l182 193l186 -193h297l-313 330h-334zM811 -45q-334 0 -527.5 163.5t-193.5 444.5q0 283 193 445.5t528 162.5q334 0 527.5 -163t193.5 -445q0 -281 -194 -444.5t-527 -163.5zM811 213q187 0 301.5 90.5t114.5 259.5q0 171 -114 260.5t-302 89.5
q-186 0 -300 -89.5t-114 -260.5q0 -169 114 -259.5t300 -90.5z" />
    <glyph glyph-name="otilde" unicode="&#xf5;" horiz-adv-x="1622" 
d="M1227 1636l151 -186q-52 -65 -142.5 -111.5t-193.5 -46.5q-59 0 -121 17.5t-107 39t-104.5 39t-113.5 17.5q-69 0 -114 -23.5t-89 -70.5l-147 184q51 65 141 112.5t195 47.5q59 0 120.5 -17.5t105.5 -39t104 -39t116 -17.5q69 0 113.5 23.5t85.5 70.5zM811 -45
q-334 0 -527.5 163.5t-193.5 444.5q0 283 193 445.5t528 162.5q334 0 527.5 -163t193.5 -445q0 -281 -194 -444.5t-527 -163.5zM811 213q187 0 301.5 90.5t114.5 259.5q0 171 -114 260.5t-302 89.5q-186 0 -300 -89.5t-114 -260.5q0 -169 114 -259.5t300 -90.5z" />
    <glyph glyph-name="odieresis" unicode="&#xf6;" horiz-adv-x="1622" 
d="M532 1300q-70 0 -115.5 40t-45.5 100q0 62 45 100.5t116 38.5q70 0 116 -38.5t46 -100.5q0 -60 -46.5 -100t-115.5 -40zM1092 1300q-70 0 -116 40t-46 100q0 62 45.5 100.5t116.5 38.5q70 0 115.5 -38.5t45.5 -100.5q0 -60 -46 -100t-115 -40zM811 -45
q-334 0 -527.5 163.5t-193.5 444.5q0 283 193 445.5t528 162.5q334 0 527.5 -163t193.5 -445q0 -281 -194 -444.5t-527 -163.5zM811 213q187 0 301.5 90.5t114.5 259.5q0 171 -114 260.5t-302 89.5q-186 0 -300 -89.5t-114 -260.5q0 -169 114 -259.5t300 -90.5z" />
    <glyph glyph-name="divide" unicode="&#xf7;" horiz-adv-x="1507" 
d="M752 887q-79 0 -126.5 42.5t-47.5 102.5t47.5 103t126.5 43t126.5 -43t47.5 -103t-47.5 -102.5t-126.5 -42.5zM1358 494h-1208v249h1208v-249zM752 57q-78 0 -126 43.5t-48 102.5q0 60 47.5 102.5t126.5 42.5t126.5 -42.5t47.5 -102.5q0 -59 -48 -102.5t-126 -43.5z" />
    <glyph glyph-name="oslash" unicode="&#xf8;" horiz-adv-x="1622" 
d="M1233 1079q144 -77 221.5 -209t77.5 -307q0 -281 -194 -444.5t-527 -163.5q-153 0 -268 33l-115 -183h-213l158 250q-136 77 -209.5 207.5t-73.5 300.5q0 283 193 445.5t528 162.5q132 0 250 -28l115 180h213zM397 563q0 -176 127 -270l387 612q-41 8 -100 8
q-186 0 -300 -89.5t-114 -260.5zM811 213q187 0 301.5 90.5t114.5 259.5q0 189 -142 281l-393 -621q62 -10 119 -10z" />
    <glyph glyph-name="ugrave" unicode="&#xf9;" horiz-adv-x="1634" 
d="M293 1622h420l301 -330h-246zM1153 1128h317v-1128h-317v199q-69 -113 -199 -176.5t-292 -63.5q-247 0 -379.5 141.5t-132.5 374.5v653h317v-632q0 -138 73.5 -211.5t213.5 -73.5q263 0 399 240v677z" />
    <glyph glyph-name="uacute" unicode="&#xfa;" horiz-adv-x="1634" 
d="M1303 1622l-476 -330h-245l301 330h420zM1153 1128h317v-1128h-317v199q-69 -113 -199 -176.5t-292 -63.5q-247 0 -379.5 141.5t-132.5 374.5v653h317v-632q0 -138 73.5 -211.5t213.5 -73.5q263 0 399 240v677z" />
    <glyph glyph-name="ucircumflex" unicode="&#xfb;" horiz-adv-x="1634" 
d="M317 1292h295l183 193l186 -193h297l-313 330h-334zM1153 1128h317v-1128h-317v199q-69 -113 -199 -176.5t-292 -63.5q-247 0 -379.5 141.5t-132.5 374.5v653h317v-632q0 -138 73.5 -211.5t213.5 -73.5q263 0 399 240v677z" />
    <glyph glyph-name="udieresis" unicode="&#xfc;" horiz-adv-x="1634" 
d="M518 1300q-70 0 -116 40t-46 100q0 62 45.5 100.5t116.5 38.5q70 0 116 -38.5t46 -100.5q0 -60 -46.5 -100t-115.5 -40zM1077 1300q-70 0 -116 40t-46 100q0 62 45.5 100.5t116.5 38.5q70 0 116 -38.5t46 -100.5q0 -60 -46.5 -100t-115.5 -40zM1153 1128h317v-1128h-317
v199q-69 -113 -199 -176.5t-292 -63.5q-247 0 -379.5 141.5t-132.5 374.5v653h317v-632q0 -138 73.5 -211.5t213.5 -73.5q263 0 399 240v677z" />
    <glyph glyph-name="yacute" unicode="&#xfd;" horiz-adv-x="1484" 
d="M1251 1622l-475 -330h-246l301 330h420zM1141 1128h327l-823 -1538h-323l268 480l-574 1058h334l402 -763z" />
    <glyph glyph-name="thorn" unicode="&#xfe;" horiz-adv-x="1671" 
d="M973 1169q178 0 316 -74t215 -212t77 -320t-77 -320t-215 -212t-316 -74q-165 0 -291.5 62.5t-200.5 162.5v-592h-317v1926h317v-572q74 100 200.5 162.5t291.5 62.5zM893 221q185 0 285 88.5t100 253.5t-100 253.5t-285 88.5q-270 0 -410 -184v-315q141 -185 410 -185z
" />
    <glyph glyph-name="ydieresis" unicode="&#xff;" horiz-adv-x="1484" 
d="M467 1300q-70 0 -116 40t-46 100q0 62 45.5 100.5t116.5 38.5q70 0 116 -38.5t46 -100.5q0 -60 -46.5 -100t-115.5 -40zM1026 1300q-70 0 -116 40t-46 100q0 62 45.5 100.5t116.5 38.5q70 0 116 -38.5t46 -100.5q0 -60 -46.5 -100t-115.5 -40zM1141 1128h327l-823 -1538
h-323l268 480l-574 1058h334l402 -763z" />
    <glyph glyph-name="Amacron" unicode="&#x100;" horiz-adv-x="1884" 
d="M1389 1860v-226h-893v226h893zM1528 0l-154 303h-866l-154 -303h-350l760 1434h358l760 -1434h-354zM643 569h594l-297 584z" />
    <glyph glyph-name="amacron" unicode="&#x101;" horiz-adv-x="1558" 
d="M332 1554h893v-225h-893v225zM743 1171q312 0 486 -140t174 -400v-416q0 -124 51 -215h-326q-41 67 -41 133v2q-70 -76 -192.5 -126t-276.5 -50q-77 0 -151 12t-148.5 41t-130 72t-90.5 111.5t-35 152.5t35 152t90.5 111t130 72t148.5 40.5t151 11.5q155 0 277.5 -49.5
t191.5 -126.5v74q0 155 -101 227t-306 72q-123 0 -219 -20.5t-193 -73.5l-94 209q110 57 264 90.5t305 33.5zM1094 334v28q-105 166 -398 166q-56 0 -107 -7.5t-102.5 -25.5t-82.5 -56t-31 -91t31 -91t82.5 -56.5t102.5 -26.5t107 -8q292 0 398 168z" />
    <glyph glyph-name="Abreve" unicode="&#x102;" horiz-adv-x="1884" 
d="M944 1583q-85 0 -154.5 24t-112 61t-72 84t-41 91t-11.5 84h205q5 -64 54 -111t132 -47q81 0 130 47t54 111h205q0 -40 -11.5 -84t-40.5 -91t-72 -84t-112 -61t-153 -24zM1528 0l-154 303h-866l-154 -303h-350l760 1434h358l760 -1434h-354zM643 569h594l-297 584z" />
    <glyph glyph-name="abreve" unicode="&#x103;" horiz-adv-x="1558" 
d="M1169 1622q0 -40 -11.5 -84t-40.5 -91t-72 -84t-112 -61t-153 -24q-85 0 -154.5 24t-112 61t-72 84t-41 91t-11.5 84h205q5 -64 54 -111t132 -47q81 0 130.5 47t54.5 111h204zM743 1171q312 0 486 -140t174 -400v-416q0 -124 51 -215h-326q-41 67 -41 133v2
q-70 -76 -192.5 -126t-276.5 -50q-77 0 -151 12t-148.5 41t-130 72t-90.5 111.5t-35 152.5t35 152t90.5 111t130 72t148.5 40.5t151 11.5q155 0 277.5 -49.5t191.5 -126.5v74q0 155 -101 227t-306 72q-123 0 -219 -20.5t-193 -73.5l-94 209q110 57 264 90.5t305 33.5z
M1094 334v28q-105 166 -398 166q-56 0 -107 -7.5t-102.5 -25.5t-82.5 -56t-31 -91t31 -91t82.5 -56.5t102.5 -26.5t107 -8q292 0 398 168z" />
    <glyph glyph-name="Aogonek" unicode="&#x104;" horiz-adv-x="1884" 
d="M1933 -330l58 -73q-37 -45 -104 -77t-163 -32q-81 0 -148.5 23.5t-113 77.5t-45.5 130q0 92 62 167.5t174 113.5h-125l-154 303h-866l-154 -303h-350l760 1434h358l760 -1434h-4q-97 -37 -166.5 -107.5t-69.5 -150.5q0 -59 41.5 -92t104.5 -33q89 0 145 53zM643 569h594
l-297 584z" />
    <glyph glyph-name="aogonek" unicode="&#x105;" horiz-adv-x="1558" 
d="M1509 -330l58 -73q-37 -45 -104 -77t-163 -32q-81 0 -148.5 23.5t-113 77.5t-45.5 130q0 92 62 167.5t174 113.5h-101q-41 67 -41 133v2q-70 -76 -192.5 -126t-276.5 -50q-77 0 -151 12t-148.5 41t-130 72t-90.5 111.5t-35 152.5t35 152t90.5 111t130 72t148.5 40.5
t151 11.5q155 0 277.5 -49.5t191.5 -126.5v74q0 155 -101 227t-306 72q-123 0 -219 -20.5t-193 -73.5l-94 209q110 57 264 90.5t305 33.5q312 0 486 -140t174 -400v-416q0 -124 51 -215q-96 -36 -165.5 -107t-69.5 -151q0 -59 41 -92t104 -33q89 0 145 53zM1094 334v28
q-105 166 -398 166q-56 0 -107 -7.5t-102.5 -25.5t-82.5 -56t-31 -91t31 -91t82.5 -56.5t102.5 -26.5t107 -8q292 0 398 168z" />
    <glyph glyph-name="Cacute" unicode="&#x106;" horiz-adv-x="1828" 
d="M1483 1929l-475 -330h-246l301 330h420zM999 238q327 0 478 233l299 -149q-108 -162 -313.5 -264.5t-473.5 -102.5q-269 0 -469 90.5t-310 263t-110 408.5t110.5 408.5t314.5 263t479 90.5q258 0 461 -103t307 -262l-302 -149q-147 231 -471 231q-261 0 -413 -124
t-152 -355t152 -355t413 -124z" />
    <glyph glyph-name="cacute" unicode="&#x107;" horiz-adv-x="1484" 
d="M1298 1622l-475 -330h-245l301 330h419zM1440 270q-75 -140 -238.5 -227.5t-396.5 -87.5q-331 0 -523 164t-192 444q0 282 192 446.5t523 164.5q230 0 392 -87t237 -225l-293 -114q-90 170 -334 170q-184 0 -297 -91t-113 -264q0 -169 113 -260.5t297 -91.5
q246 0 342 176z" />
    <glyph glyph-name="Ccircumflex" unicode="&#x108;" horiz-adv-x="1828" 
d="M498 1599h295l182 193l186 -193h297l-313 330h-334zM999 238q327 0 478 233l299 -149q-108 -162 -313.5 -264.5t-473.5 -102.5q-269 0 -469 90.5t-310 263t-110 408.5t110.5 408.5t314.5 263t479 90.5q258 0 461 -103t307 -262l-302 -149q-147 231 -471 231
q-261 0 -413 -124t-152 -355t152 -355t413 -124z" />
    <glyph glyph-name="ccircumflex" unicode="&#x109;" horiz-adv-x="1484" 
d="M313 1292h295l183 193l186 -193h297l-313 330h-334zM1440 270q-75 -140 -238.5 -227.5t-396.5 -87.5q-331 0 -523 164t-192 444q0 282 192 446.5t523 164.5q230 0 392 -87t237 -225l-293 -114q-90 170 -334 170q-184 0 -297 -91t-113 -264q0 -169 113 -260.5t297 -91.5
q246 0 342 176z" />
    <glyph glyph-name="Cdotaccent" unicode="&#x10a;" horiz-adv-x="1828" 
d="M977 1608q-70 0 -113 35.5t-43 95.5q0 62 43 98.5t113 36.5t111.5 -36.5t41.5 -98.5q0 -60 -42 -95.5t-111 -35.5zM999 238q327 0 478 233l299 -149q-108 -162 -313.5 -264.5t-473.5 -102.5q-269 0 -469 90.5t-310 263t-110 408.5t110.5 408.5t314.5 263t479 90.5
q258 0 461 -103t307 -262l-302 -149q-147 231 -471 231q-261 0 -413 -124t-152 -355t152 -355t413 -124z" />
    <glyph glyph-name="cdotaccent" unicode="&#x10b;" horiz-adv-x="1484" 
d="M793 1300q-69 0 -112.5 36t-43.5 96q0 62 43 98.5t113 36.5t111.5 -36.5t41.5 -98.5q0 -60 -42 -96t-111 -36zM1440 270q-75 -140 -238.5 -227.5t-396.5 -87.5q-331 0 -523 164t-192 444q0 282 192 446.5t523 164.5q230 0 392 -87t237 -225l-293 -114q-90 170 -334 170
q-184 0 -297 -91t-113 -264q0 -169 113 -260.5t297 -91.5q246 0 342 176z" />
    <glyph glyph-name="Ccaron" unicode="&#x10c;" horiz-adv-x="1828" 
d="M498 1929l313 -330h334l313 330h-295l-184 -192l-186 192h-295zM999 238q327 0 478 233l299 -149q-108 -162 -313.5 -264.5t-473.5 -102.5q-269 0 -469 90.5t-310 263t-110 408.5t110.5 408.5t314.5 263t479 90.5q258 0 461 -103t307 -262l-302 -149q-147 231 -471 231
q-261 0 -413 -124t-152 -355t152 -355t413 -124z" />
    <glyph glyph-name="ccaron" unicode="&#x10d;" horiz-adv-x="1484" 
d="M313 1622l314 -330h334l313 330h-295l-184 -192l-187 192h-295zM1440 270q-75 -140 -238.5 -227.5t-396.5 -87.5q-331 0 -523 164t-192 444q0 282 192 446.5t523 164.5q230 0 392 -87t237 -225l-293 -114q-90 170 -334 170q-184 0 -297 -91t-113 -264q0 -169 113 -260.5
t297 -91.5q246 0 342 176z" />
    <glyph glyph-name="Dcaron" unicode="&#x10e;" horiz-adv-x="1941" 
d="M459 1927l313 -330h334l313 330h-295l-184 -192l-186 192h-295zM954 1434q202 0 367 -49.5t280 -141.5t177.5 -226.5t62.5 -299.5t-62.5 -299.5t-177.5 -226.5t-280 -141.5t-367 -49.5h-761v1434h761zM930 279q266 0 421.5 111.5t155.5 326.5t-155.5 326.5t-421.5 111.5
h-410v-876h410z" />
    <glyph glyph-name="dcaron" unicode="&#x10f;" horiz-adv-x="1918" 
d="M698 1169q165 0 291.5 -62.5t200.5 -162.5v572h317v-1516h-317v182q-74 -100 -200.5 -162.5t-291.5 -62.5q-178 0 -316 74t-215 212t-77 320t77 320t215 212t316 74zM1772 1458q89 0 142.5 -60t53.5 -145q0 -114 -65.5 -228t-192.5 -198l-63 88q68 63 106.5 116.5
t52.5 113.5q-9 -12 -45 -12q-73 0 -123.5 46.5t-50.5 114.5q0 70 52.5 117t132.5 47zM778 221q269 0 410 185v315q-140 184 -410 184q-185 0 -285 -88.5t-100 -253.5t100 -253.5t285 -88.5z" />
    <glyph glyph-name="Dcroat" unicode="&#x110;" horiz-adv-x="1986" 
d="M1006 1434q409 0 644.5 -191.5t235.5 -525.5t-235.5 -525.5t-644.5 -191.5h-768v625h-203v213h203v596h768zM975 274q267 0 422 113t155 330t-155 329.5t-422 112.5h-412v-321h412v-213h-412v-351h412z" />
    <glyph glyph-name="dcroat" unicode="&#x111;" horiz-adv-x="1650" 
d="M1671 1352v-142h-164v-1210h-317v182q-74 -100 -200.5 -162.5t-291.5 -62.5q-178 0 -316 74t-215 212t-77 320t77 320t215 212t316 74q165 0 291.5 -62.5t200.5 -162.5v266h-369v142h369v164h317v-164h164zM1188 406v315q-140 184 -410 184q-185 0 -285 -88.5
t-100 -253.5t100 -253.5t285 -88.5q269 0 410 185z" />
    <glyph glyph-name="Emacron" unicode="&#x112;" horiz-adv-x="1759" 
d="M465 1860h893v-226h-893v226zM518 274h1151v-274h-1476v1434h1456v-275h-1131v-295h944v-274h-944v-316z" />
    <glyph glyph-name="emacron" unicode="&#x113;" horiz-adv-x="1562" 
d="M1247 1554v-225h-893v225h893zM395 492q42 -295 445 -295q141 0 241.5 35.5t192.5 109.5l170 -186q-228 -201 -621 -201q-346 0 -539.5 162.5t-193.5 445.5q0 284 189.5 447.5t521.5 163.5q315 0 499.5 -158t184.5 -451q0 -49 -8 -73h-1082zM803 932q-158 0 -259 -60
t-134 -178l772 4q-71 234 -379 234z" />
    <glyph glyph-name="Ebreve" unicode="&#x114;" horiz-adv-x="1759" 
d="M1303 1927q0 -40 -12 -84t-41 -91t-72 -84t-112 -61t-153 -24q-85 0 -154.5 24t-112 61t-72 84t-41 91t-11.5 84h205q5 -64 54 -111t132 -47q81 0 130.5 47t54.5 111h205zM518 274h1151v-274h-1476v1434h1456v-275h-1131v-295h944v-274h-944v-316z" />
    <glyph glyph-name="ebreve" unicode="&#x115;" horiz-adv-x="1562" 
d="M803 1278q-85 0 -154.5 24t-112 61t-72 84t-41 91t-11.5 84h204q5 -64 54.5 -111t132.5 -47q81 0 130 47t54 111h205q0 -40 -11.5 -84t-40.5 -91t-72 -84t-112 -61t-153 -24zM395 492q42 -295 445 -295q141 0 241.5 35.5t192.5 109.5l170 -186q-228 -201 -621 -201
q-346 0 -539.5 162.5t-193.5 445.5q0 284 189.5 447.5t521.5 163.5q315 0 499.5 -158t184.5 -451q0 -49 -8 -73h-1082zM803 932q-158 0 -259 -60t-134 -178l772 4q-71 234 -379 234z" />
    <glyph glyph-name="Edotaccent" unicode="&#x116;" horiz-adv-x="1759" 
d="M911 1606q-69 0 -112 35.5t-43 95.5q0 62 42.5 98.5t112.5 36.5t112 -36.5t42 -98.5q0 -60 -42.5 -95.5t-111.5 -35.5zM518 274h1151v-274h-1476v1434h1456v-275h-1131v-295h944v-274h-944v-316z" />
    <glyph glyph-name="edotaccent" unicode="&#x117;" horiz-adv-x="1562" 
d="M801 1300q-69 0 -112.5 36t-43.5 96q0 62 43 98.5t113 36.5t111.5 -36.5t41.5 -98.5q0 -60 -42 -96t-111 -36zM395 492q42 -295 445 -295q141 0 241.5 35.5t192.5 109.5l170 -186q-228 -201 -621 -201q-346 0 -539.5 162.5t-193.5 445.5q0 284 189.5 447.5t521.5 163.5
q315 0 499.5 -158t184.5 -451q0 -49 -8 -73h-1082zM803 932q-158 0 -259 -60t-134 -178l772 4q-71 234 -379 234z" />
    <glyph glyph-name="Eogonek" unicode="&#x118;" horiz-adv-x="1759" 
d="M1722 -330l58 -73q-37 -45 -104 -77t-163 -32q-81 0 -148.5 23.5t-113 77.5t-45.5 130q0 92 62 167.5t174 113.5h-1249v1434h1456v-275h-1131v-295h944v-274h-944v-316h1151v-274h-2q-96 -36 -165.5 -107t-69.5 -151q0 -59 41 -92t104 -33q89 0 145 53z" />
    <glyph glyph-name="eogonek" unicode="&#x119;" horiz-adv-x="1562" 
d="M395 492q42 -295 445 -295q141 0 241.5 35.5t192.5 109.5l170 -186q-121 -106 -281 -156h4q-96 -36 -165.5 -107t-69.5 -151q0 -59 41 -92t104 -33q90 0 146 53l57 -73q-38 -45 -104 -77t-162 -32q-81 0 -148.5 23.5t-113 77.5t-45.5 130q0 70 36 132t103 104h-23
q-346 0 -539.5 162.5t-193.5 445.5q0 284 189.5 447.5t521.5 163.5q315 0 499.5 -158t184.5 -451q0 -49 -8 -73h-1082zM803 932q-158 0 -259 -60t-134 -178l772 4q-71 234 -379 234z" />
    <glyph glyph-name="Ecaron" unicode="&#x11a;" horiz-adv-x="1759" 
d="M432 1927l313 -330h334l314 330h-295l-185 -192l-186 192h-295zM518 274h1151v-274h-1476v1434h1456v-275h-1131v-295h944v-274h-944v-316z" />
    <glyph glyph-name="ecaron" unicode="&#x11b;" horiz-adv-x="1562" 
d="M969 1292h-334l-313 330h294l187 -192l184 192h295zM395 492q42 -295 445 -295q141 0 241.5 35.5t192.5 109.5l170 -186q-228 -201 -621 -201q-346 0 -539.5 162.5t-193.5 445.5q0 284 189.5 447.5t521.5 163.5q315 0 499.5 -158t184.5 -451q0 -49 -8 -73h-1082zM803 932
q-158 0 -259 -60t-134 -178l772 4q-71 234 -379 234z" />
    <glyph glyph-name="Gcircumflex" unicode="&#x11c;" horiz-adv-x="1945" 
d="M539 1599h295l182 193l186 -193h297l-313 330h-334zM1841 809v-518q-112 -153 -323 -244.5t-492 -91.5q-433 0 -679.5 202t-246.5 560t246.5 560t679.5 202q245 0 435 -77.5t311 -195.5l-256 -186q-95 93 -211 136.5t-277 43.5q-284 0 -439 -123t-155 -360t158.5 -360.5
t447.5 -123.5q353 0 494 170v140h-541v266h848z" />
    <glyph glyph-name="gcircumflex" unicode="&#x11d;" horiz-adv-x="1671" 
d="M371 1294h295l182 193l186 -193h297l-313 330h-334zM1507 1128v-956q0 -134 -41 -242t-108.5 -178t-160.5 -116.5t-192 -66.5t-208 -20q-158 0 -326.5 38t-267.5 100l94 231q82 -53 202.5 -85t262.5 -32q428 0 428 318v96q-77 -106 -210 -164.5t-286 -58.5
q-277 0 -440.5 158.5t-163.5 429.5t163.5 430t440.5 159q160 0 289 -58.5t207 -166.5v184h317zM782 238q258 0 410 208v267q-148 209 -410 209q-185 0 -285 -90t-100 -252q0 -161 100 -251.5t285 -90.5z" />
    <glyph glyph-name="Gbreve" unicode="&#x11e;" horiz-adv-x="1945" 
d="M1409 1929q0 -40 -11.5 -84t-40.5 -91t-72 -84t-112 -61t-153 -24q-85 0 -154.5 24t-112 61t-72 84t-41 91t-11.5 84h205q5 -64 54 -110.5t132 -46.5q81 0 130 46.5t54 110.5h205zM1841 809v-518q-112 -153 -323 -244.5t-492 -91.5q-433 0 -679.5 202t-246.5 560
t246.5 560t679.5 202q245 0 435 -77.5t311 -195.5l-256 -186q-95 93 -211 136.5t-277 43.5q-284 0 -439 -123t-155 -360t158.5 -360.5t447.5 -123.5q353 0 494 170v140h-541v266h848z" />
    <glyph glyph-name="gbreve" unicode="&#x11f;" horiz-adv-x="1671" 
d="M1241 1624q0 -40 -11.5 -84t-40.5 -91t-72 -84t-112 -61t-153 -24q-85 0 -154.5 24t-112 61t-72 84t-41 91t-11.5 84h205q5 -64 54 -111t132 -47q81 0 130 47t54 111h205zM1507 1128v-956q0 -134 -41 -242t-108.5 -178t-160.5 -116.5t-192 -66.5t-208 -20
q-158 0 -326.5 38t-267.5 100l94 231q82 -53 202.5 -85t262.5 -32q428 0 428 318v96q-77 -106 -210 -164.5t-286 -58.5q-277 0 -440.5 158.5t-163.5 429.5t163.5 430t440.5 159q160 0 289 -58.5t207 -166.5v184h317zM782 238q258 0 410 208v267q-148 209 -410 209
q-185 0 -285 -90t-100 -252q0 -161 100 -251.5t285 -90.5z" />
    <glyph glyph-name="Gdotaccent" unicode="&#x120;" horiz-adv-x="1945" 
d="M1018 1608q-70 0 -113 35.5t-43 95.5q0 62 43 98.5t113 36.5t111.5 -36.5t41.5 -98.5q0 -60 -42 -95.5t-111 -35.5zM1841 809v-518q-112 -153 -323 -244.5t-492 -91.5q-433 0 -679.5 202t-246.5 560t246.5 560t679.5 202q245 0 435 -77.5t311 -195.5l-256 -186
q-95 93 -211 136.5t-277 43.5q-284 0 -439 -123t-155 -360t158.5 -360.5t447.5 -123.5q353 0 494 170v140h-541v266h848z" />
    <glyph glyph-name="gdotaccent" unicode="&#x121;" horiz-adv-x="1671" 
d="M850 1303q-70 0 -113 35.5t-43 95.5q0 62 43 98.5t113 36.5t112 -36.5t42 -98.5q0 -60 -42.5 -95.5t-111.5 -35.5zM1507 1128v-956q0 -134 -41 -242t-108.5 -178t-160.5 -116.5t-192 -66.5t-208 -20q-158 0 -326.5 38t-267.5 100l94 231q82 -53 202.5 -85t262.5 -32
q428 0 428 318v96q-77 -106 -210 -164.5t-286 -58.5q-277 0 -440.5 158.5t-163.5 429.5t163.5 430t440.5 159q160 0 289 -58.5t207 -166.5v184h317zM782 238q258 0 410 208v267q-148 209 -410 209q-185 0 -285 -90t-100 -252q0 -161 100 -251.5t285 -90.5z" />
    <glyph glyph-name="Gcommaaccent" unicode="&#x122;" horiz-adv-x="1945" 
d="M1841 809v-518q-112 -153 -323 -244.5t-492 -91.5q-433 0 -679.5 202t-246.5 560t246.5 560t679.5 202q245 0 435 -77.5t311 -195.5l-256 -186q-95 93 -211 136.5t-277 43.5q-284 0 -439 -123t-155 -360t158.5 -360.5t447.5 -123.5q353 0 494 170v140h-541v266h848z
M1020 -111q90 0 145.5 -60.5t55.5 -150.5q0 -111 -69 -237.5t-194 -210.5l-71 90q75 67 115.5 122t54.5 118q-13 -13 -49 -13q-75 0 -127 49t-52 123q0 71 54.5 120.5t136.5 49.5z" />
    <glyph glyph-name="gcommaaccent" unicode="&#x123;" horiz-adv-x="1671" 
d="M848 1309q-90 0 -145.5 60.5t-55.5 150.5q0 111 68.5 237.5t193.5 210.5l72 -90q-75 -67 -115.5 -122t-54.5 -118q13 13 49 13q74 0 126 -49t52 -123q0 -71 -54 -120.5t-136 -49.5zM1507 1128v-956q0 -134 -41 -242t-108.5 -178t-160.5 -116.5t-192 -66.5t-208 -20
q-158 0 -326.5 38t-267.5 100l94 231q82 -53 202.5 -85t262.5 -32q428 0 428 318v96q-77 -106 -210 -164.5t-286 -58.5q-277 0 -440.5 158.5t-163.5 429.5t163.5 430t440.5 159q160 0 289 -58.5t207 -166.5v184h317zM782 238q258 0 410 208v267q-148 209 -410 209
q-185 0 -285 -90t-100 -252q0 -161 100 -251.5t285 -90.5z" />
    <glyph glyph-name="Hcircumflex" unicode="&#x124;" horiz-adv-x="2017" 
d="M528 1599h295l183 193l186 -193h297l-313 330h-334zM1497 1434h328v-1434h-328v584h-977v-584h-327v1434h327v-564h977v564z" />
    <glyph glyph-name="hcircumflex" unicode="&#x125;" horiz-adv-x="1634" 
d="M508 1679l-186 193l-183 -193h-295l314 330h334l313 -330h-297zM973 1169q247 0 379.5 -141.5t132.5 -374.5v-653h-318v633q0 139 -73 212t-213 73q-264 0 -400 -240v-678h-317v1128v388h317v-404v-182q69 113 199 176t293 63z" />
    <glyph glyph-name="Hbar" unicode="&#x126;" horiz-adv-x="2138" 
d="M2101 1190v-148h-215v-1042h-327v584h-977v-584h-328v1042h-215v148h215v244h328v-244h977v244h327v-244h215zM1559 870v172h-977v-172h977z" />
    <glyph glyph-name="hbar" unicode="&#x127;" horiz-adv-x="1634" 
d="M973 1169q247 0 379.5 -141.5t132.5 -374.5v-653h-318v633q0 139 -73 212t-213 73q-264 0 -400 -240v-678h-317v1128v82h-182v142h182v164h317v-164h353v-142h-353v-98v-182q69 113 199 176t293 63z" />
    <glyph glyph-name="Itilde" unicode="&#x128;" horiz-adv-x="712" 
d="M772 1942l152 -187q-52 -65 -142.5 -111.5t-193.5 -46.5q-59 0 -121.5 17.5t-107.5 39t-104.5 39t-113.5 17.5q-69 0 -113.5 -23.5t-88.5 -70.5l-148 184q51 65 141 112.5t195 47.5q59 0 120.5 -17.5t105.5 -39t104 -39t116 -17.5q69 0 113.5 23.5t85.5 71.5zM520 0h-327
v1434h327v-1434z" />
    <glyph glyph-name="itilde" unicode="&#x129;" horiz-adv-x="653" 
d="M743 1636l152 -186q-52 -65 -142.5 -111.5t-193.5 -46.5q-59 0 -121 17.5t-107 39t-104.5 39t-113.5 17.5q-69 0 -114 -23.5t-89 -70.5l-148 184q51 65 141 112.5t195 47.5q59 0 120.5 -17.5t106 -39t104.5 -39t116 -17.5q69 0 113 23.5t85 70.5zM485 1128v-1128h-317
v1128h317z" />
    <glyph glyph-name="Imacron" unicode="&#x12a;" horiz-adv-x="712" 
d="M-90 1860h893v-226h-893v226zM520 0h-327v1434h327v-1434z" />
    <glyph glyph-name="imacron" unicode="&#x12b;" horiz-adv-x="653" 
d="M-119 1554h893v-225h-893v225zM485 1128v-1128h-317v1128h317z" />
    <glyph glyph-name="Ibreve" unicode="&#x12c;" horiz-adv-x="712" 
d="M748 1927q0 -40 -12 -84t-41 -91t-72 -84t-112 -61t-153 -24q-85 0 -154.5 24t-112 61t-72 84t-41 91t-11.5 84h205q5 -64 54 -111t132 -47q81 0 130.5 47t54.5 111h205zM520 0h-327v1434h327v-1434z" />
    <glyph glyph-name="ibreve" unicode="&#x12d;" horiz-adv-x="653" 
d="M719 1622q0 -40 -11.5 -84t-40.5 -91t-72 -84t-112 -61t-153 -24q-85 0 -154.5 24t-112 61t-72 84t-41 91t-11.5 84h204q5 -64 54.5 -111t132.5 -47q81 0 130 47t54 111h205zM485 1128v-1128h-317v1128h317z" />
    <glyph glyph-name="Iogonek" unicode="&#x12e;" horiz-adv-x="712" 
d="M573 -330l58 -73q-38 -45 -104 -77t-162 -32q-81 0 -148.5 23.5t-113.5 77.5t-46 130q0 92 62 167.5t174 113.5h-100v1434h327v-1434h-2q-96 -36 -165.5 -107t-69.5 -151q0 -59 41 -92t104 -33q89 0 145 53z" />
    <glyph glyph-name="iogonek" unicode="&#x12f;" horiz-adv-x="645" 
d="M324 1264q-85 0 -139 45t-54 114q0 72 54 117t139 45q83 0 135.5 -45t52.5 -117q0 -69 -52.5 -114t-135.5 -45zM539 -330l57 -73q-38 -45 -104 -77t-162 -32q-81 0 -148.5 23.5t-113 77.5t-45.5 130q0 93 61.5 168t173.5 113h-90v1128h317v-1128h-2q-96 -36 -165.5 -107
t-69.5 -151q0 -59 41 -92t104 -33q90 0 146 53z" />
    <glyph glyph-name="Idotaccent" unicode="&#x130;" horiz-adv-x="712" 
d="M356 1606q-69 0 -112 35.5t-43 95.5q0 62 42.5 98.5t112.5 36.5t112 -36.5t42 -98.5q0 -60 -42.5 -95.5t-111.5 -35.5zM520 0h-327v1434h327v-1434z" />
    <glyph glyph-name="dotlessi" unicode="&#x131;" horiz-adv-x="653" 
d="M485 1128v-1128h-317v1128h317z" />
    <glyph glyph-name="IJ" unicode="&#x132;" horiz-adv-x="2189" 
d="M520 0h-327v1434h327v-1434zM946 406q64 -85 149.5 -124.5t215.5 -39.5q385 0 385 399v793h327v-818q0 -144 -44 -263.5t-130 -209t-223.5 -139t-314.5 -49.5q-396 0 -596 256z" />
    <glyph glyph-name="ij" unicode="&#x133;" horiz-adv-x="1290" 
d="M324 1264q-85 0 -139 45t-54 114q0 72 54 117t139 45q83 0 135.5 -45t52.5 -117q0 -69 -52.5 -114t-135.5 -45zM969 1264q-85 0 -139 45t-54 114q0 72 54 117t139 45q83 0 135.5 -45t52.5 -117q0 -69 -52.5 -114t-135.5 -45zM485 1128v-1128h-317v1128h317zM807 1128h317
v-1175q0 -188 -110 -297t-295 -109q-130 0 -250 47l59 220q61 -23 119 -23q72 0 116 46.5t44 125.5v1165z" />
    <glyph glyph-name="Jcircumflex" unicode="&#x134;" horiz-adv-x="1476" 
d="M666 1597h295l182 193l186 -193h297l-313 330h-334zM233 406q64 -85 149.5 -124.5t215.5 -39.5q385 0 385 399v793h328v-818q0 -144 -44 -263.5t-130.5 -209t-224 -139t-314.5 -49.5q-396 0 -596 256z" />
    <glyph glyph-name="jcircumflex" unicode="&#x135;" horiz-adv-x="911" 
d="M-182 1292h295l182 193l186 -193h297l-313 330h-334zM164 1128h315v-1175q0 -188 -109 -297t-290 -109q-136 0 -256 47l47 189q71 -27 137 -27q69 0 112.5 46t43.5 126v1200z" />
    <glyph glyph-name="Kcommaaccent" unicode="&#x136;" horiz-adv-x="1832" 
d="M1135 868l706 -868h-393l-553 674l-375 -318v-356h-327v1434h327v-727l852 727h430zM956 -111q90 0 145.5 -60.5t55.5 -150.5q0 -111 -68.5 -237.5t-193.5 -210.5l-72 90q75 67 115.5 122t54.5 118q-13 -13 -49 -13q-74 0 -126 49t-52 123q0 71 54 120.5t136 49.5z" />
    <glyph glyph-name="kcommaaccent" unicode="&#x137;" horiz-adv-x="1488" 
d="M969 680l526 -680h-350l-397 506l-267 -225v-281h-317v1516h317v-936l609 548h374zM784 -111q90 0 145.5 -60.5t55.5 -150.5q0 -111 -68.5 -237.5t-193.5 -210.5l-72 90q75 67 115.5 122t54.5 118q-13 -13 -49 -13q-74 0 -126 49t-52 123q0 71 54 120.5t136 49.5z" />
    <glyph glyph-name="kgreenlandic" unicode="&#x138;" horiz-adv-x="1488" 
d="M1145 0l-397 506l-267 -225v-281h-317v1128h317v-548l609 548h374l-495 -448l526 -680h-350z" />
    <glyph glyph-name="Lacute" unicode="&#x139;" horiz-adv-x="1570" 
d="M862 1927l-475 -330h-246l301 330h420zM520 283h1014v-283h-1341v1434h327v-1151z" />
    <glyph glyph-name="lacute" unicode="&#x13a;" horiz-adv-x="653" 
d="M834 2009l-476 -330h-245l301 330h420zM485 0h-317v1516h317v-1516z" />
    <glyph glyph-name="Lcommaaccent" unicode="&#x13b;" horiz-adv-x="1570" 
d="M520 283h1014v-283h-1341v1434h327v-1151zM866 -111q90 0 145.5 -60.5t55.5 -150.5q0 -111 -68.5 -237.5t-193.5 -210.5l-72 90q75 67 115.5 122t54.5 118q-13 -13 -49 -13q-74 0 -126 49t-52 123q0 71 54 120.5t136 49.5z" />
    <glyph glyph-name="lcommaaccent" unicode="&#x13c;" horiz-adv-x="653" 
d="M485 0h-317v1516h317v-1516zM330 -111q90 0 145 -60.5t55 -150.5q0 -111 -68.5 -237.5t-193.5 -210.5l-71 90q75 67 115.5 122t54.5 118q-13 -13 -50 -13q-74 0 -126 49t-52 123q0 71 54.5 120.5t136.5 49.5z" />
    <glyph glyph-name="Lcaron" unicode="&#x13d;" horiz-adv-x="1570" 
d="M1018 1470q90 0 145.5 -60t55.5 -150q0 -111 -69 -238t-194 -211l-71 90q75 67 115.5 122t54.5 118q-13 -13 -49 -13q-75 0 -127 49t-52 123q0 71 54.5 120.5t136.5 49.5zM520 283h1014v-283h-1341v1434h327v-1151z" />
    <glyph glyph-name="lcaron" unicode="&#x13e;" horiz-adv-x="917" 
d="M485 0h-317v1516h317v-1516zM770 1458q89 0 143 -60t54 -145q0 -114 -65.5 -228t-192.5 -198l-64 88q68 63 107 116.5t53 113.5q-9 -12 -45 -12q-73 0 -123.5 46.5t-50.5 114.5q0 71 52.5 117.5t131.5 46.5z" />
    <glyph glyph-name="Ldot" unicode="&#x13f;" horiz-adv-x="1570" 
d="M520 260h1014v-260h-1341v1434h327v-1174zM971 670q-86 0 -140.5 48t-54.5 122q0 73 55 122.5t140 49.5q84 0 138 -49.5t54 -122.5q0 -74 -54 -122t-138 -48z" />
    <glyph glyph-name="ldot" unicode="&#x140;" horiz-adv-x="952" 
d="M485 0h-317v1516h317v-1516zM799 674q-86 0 -140.5 49t-54.5 123t54.5 123t140.5 49q84 0 138 -49t54 -123t-54 -123t-138 -49z" />
    <glyph glyph-name="Lslash" unicode="&#x141;" horiz-adv-x="1646" 
d="M596 283h1014v-283h-1342v563l-215 -98v227l215 99v643h328v-492l414 191v-228l-414 -190v-432z" />
    <glyph glyph-name="lslash" unicode="&#x142;" horiz-adv-x="802" 
d="M778 1069v-219l-221 -98v-752h-317v612l-215 -96v223l215 95v682h317v-543z" />
    <glyph glyph-name="Nacute" unicode="&#x143;" horiz-adv-x="2017" 
d="M1516 1927l-476 -330h-245l301 330h420zM1507 1434h318v-1434h-287l-1028 1036v-1036h-317v1434h348l966 -983v983z" />
    <glyph glyph-name="nacute" unicode="&#x144;" horiz-adv-x="1634" 
d="M1329 1622l-475 -330h-246l301 330h420zM481 0h-317v1128h317v-198q69 113 199 176t293 63q247 0 379.5 -141.5t132.5 -374.5v-653h-318v633q0 139 -73 212t-213 73q-264 0 -400 -240v-678z" />
    <glyph glyph-name="Ncommaaccent" unicode="&#x145;" horiz-adv-x="2017" 
d="M1507 1434h318v-1434h-287l-1028 1036v-1036h-317v1434h348l966 -983v983zM1012 -111q90 0 145 -60.5t55 -150.5q0 -111 -68.5 -237.5t-193.5 -210.5l-71 90q75 67 115.5 122t54.5 118q-13 -13 -50 -13q-74 0 -126 49t-52 123q0 71 54.5 120.5t136.5 49.5z" />
    <glyph glyph-name="ncommaaccent" unicode="&#x146;" horiz-adv-x="1634" 
d="M481 0h-317v1128h317v-198q69 113 199 176t293 63q247 0 379.5 -141.5t132.5 -374.5v-653h-318v633q0 139 -73 212t-213 73q-264 0 -400 -240v-678zM823 -111q90 0 145.5 -60.5t55.5 -150.5q0 -111 -68.5 -237.5t-193.5 -210.5l-72 90q75 67 115.5 122t54.5 118
q-13 -13 -49 -13q-74 0 -126 49t-52 123q0 71 54 120.5t136 49.5z" />
    <glyph glyph-name="Ncaron" unicode="&#x147;" horiz-adv-x="2017" 
d="M530 1927l314 -330h334l313 330h-295l-184 -192l-187 192h-295zM1507 1434h318v-1434h-287l-1028 1036v-1036h-317v1434h348l966 -983v983z" />
    <glyph glyph-name="ncaron" unicode="&#x148;" horiz-adv-x="1634" 
d="M344 1622l313 -330h334l314 330h-295l-185 -192l-186 192h-295zM481 0h-317v1128h317v-198q69 113 199 176t293 63q247 0 379.5 -141.5t132.5 -374.5v-653h-318v633q0 139 -73 212t-213 73q-264 0 -400 -240v-678z" />
    <glyph glyph-name="napostrophe" unicode="&#x149;" horiz-adv-x="1959" 
d="M238 1473q90 0 145 -60.5t55 -150.5q0 -112 -69 -239t-193 -210l-72 90q75 65 115.5 120t54.5 118q-13 -13 -49 -13q-74 0 -126 49.5t-52 122.5q0 74 54 123.5t137 49.5zM807 0h-318v1128h318v-208q80 121 205.5 185t285.5 64q247 0 379.5 -141.5t132.5 -374.5v-653h-317
v637q0 140 -74 216.5t-217 76.5q-125 0 -226 -61.5t-169 -182.5v-686z" />
    <glyph glyph-name="Eng" unicode="&#x14a;" horiz-adv-x="2017" 
d="M1825 1434v-1358h-2v-82q0 -207 -120 -327t-319 -120q-144 0 -256 45l56 226q52 -21 129 -21q95 0 144.5 47t49.5 150v37l-997 1005v-1036h-317v1434h348l964 -983v983h320z" />
    <glyph glyph-name="eng" unicode="&#x14b;" horiz-adv-x="1634" 
d="M973 1169q247 0 379.5 -141.5t132.5 -374.5v-653v-47q0 -188 -111.5 -297t-298.5 -109q-130 0 -250 47l56 216q71 -23 125 -23q74 0 117.5 41t43.5 113v315v377q0 139 -73 212t-213 73q-264 0 -400 -240v-678h-317v1128h317v-198q69 113 199 176t293 63z" />
    <glyph glyph-name="Omacron" unicode="&#x14c;" horiz-adv-x="2025" 
d="M567 1860h893v-226h-893v226zM1012 -45q-422 0 -667 202.5t-245 559.5t245 559.5t667 202.5t666.5 -202.5t244.5 -559.5t-244.5 -559.5t-666.5 -202.5zM1012 238q268 0 422.5 125.5t154.5 353.5t-154.5 353.5t-422.5 125.5q-269 0 -423.5 -125.5t-154.5 -353.5
t154 -353.5t424 -125.5z" />
    <glyph glyph-name="omacron" unicode="&#x14d;" horiz-adv-x="1622" 
d="M365 1554h892v-225h-892v225zM811 -45q-334 0 -527.5 163.5t-193.5 444.5q0 283 193 445.5t528 162.5q334 0 527.5 -163t193.5 -445q0 -281 -194 -444.5t-527 -163.5zM811 213q187 0 301.5 90.5t114.5 259.5q0 171 -114 260.5t-302 89.5q-186 0 -300 -89.5t-114 -260.5
q0 -169 114 -259.5t300 -90.5z" />
    <glyph glyph-name="Obreve" unicode="&#x14e;" horiz-adv-x="2025" 
d="M1405 1927q0 -40 -11.5 -84t-40.5 -91t-72 -84t-112 -61t-153 -24q-85 0 -154.5 24t-112 61t-72 84t-41 91t-11.5 84h204q5 -64 54.5 -111t132.5 -47q81 0 130 47t54 111h205zM1012 -45q-422 0 -667 202.5t-245 559.5t245 559.5t667 202.5t666.5 -202.5t244.5 -559.5
t-244.5 -559.5t-666.5 -202.5zM1012 238q268 0 422.5 125.5t154.5 353.5t-154.5 353.5t-422.5 125.5q-269 0 -423.5 -125.5t-154.5 -353.5t154 -353.5t424 -125.5z" />
    <glyph glyph-name="obreve" unicode="&#x14f;" horiz-adv-x="1622" 
d="M1202 1622q0 -40 -11.5 -84t-40.5 -91t-72 -84t-112 -61t-153 -24q-85 0 -154.5 24t-112 61t-72 84t-41 91t-11.5 84h205q5 -64 54 -111t132 -47q81 0 130 47t54 111h205zM811 -45q-334 0 -527.5 163.5t-193.5 444.5q0 283 193 445.5t528 162.5q334 0 527.5 -163
t193.5 -445q0 -281 -194 -444.5t-527 -163.5zM811 213q187 0 301.5 90.5t114.5 259.5q0 171 -114 260.5t-302 89.5q-186 0 -300 -89.5t-114 -260.5q0 -169 114 -259.5t300 -90.5z" />
    <glyph glyph-name="Ohungarumlaut" unicode="&#x150;" horiz-adv-x="2025" 
d="M1188 1927l-338 -330h-289l336 330h291zM1649 1927l-338 -330h-289l336 330h291zM1012 -45q-422 0 -667 202.5t-245 559.5t245 559.5t667 202.5t666.5 -202.5t244.5 -559.5t-244.5 -559.5t-666.5 -202.5zM1012 238q268 0 422.5 125.5t154.5 353.5t-154.5 353.5
t-422.5 125.5q-269 0 -423.5 -125.5t-154.5 -353.5t154 -353.5t424 -125.5z" />
    <glyph glyph-name="ohungarumlaut" unicode="&#x151;" horiz-adv-x="1622" 
d="M985 1622l-338 -330h-289l336 330h291zM1446 1622l-338 -330h-289l336 330h291zM811 -45q-334 0 -527.5 163.5t-193.5 444.5q0 283 193 445.5t528 162.5q334 0 527.5 -163t193.5 -445q0 -281 -194 -444.5t-527 -163.5zM811 213q187 0 301.5 90.5t114.5 259.5
q0 171 -114 260.5t-302 89.5q-186 0 -300 -89.5t-114 -260.5q0 -169 114 -259.5t300 -90.5z" />
    <glyph glyph-name="OE" unicode="&#x152;" horiz-adv-x="2990" 
d="M1749 274h1151v-274h-1477h-438q-409 0 -647 192t-238 525t238 525t647 192h760h1134v-275h-1130v-295h944v-274h-944v-316zM1423 272v889h-409q-267 0 -423.5 -114t-156.5 -330t156.5 -330.5t423.5 -114.5h409z" />
    <glyph glyph-name="oe" unicode="&#x153;" horiz-adv-x="2697" 
d="M1530 492q42 -295 444 -295q141 0 241.5 33t194.5 102l168 -176q-228 -201 -620 -201q-393 0 -588 207q-93 -98 -235.5 -152.5t-323.5 -54.5q-334 0 -527.5 163.5t-193.5 444.5q0 283 193.5 447t527.5 164q180 0 322 -54.5t237 -152.5q188 207 565 207q315 0 499.5 -158
t184.5 -451q0 -49 -8 -73h-1081zM1937 932q-158 0 -259 -60t-134 -178l772 4q-71 234 -379 234zM811 215q187 0 300.5 90t113.5 258q0 170 -114 261t-300 91q-185 0 -299.5 -91.5t-114.5 -260.5q0 -168 114.5 -258t299.5 -90z" />
    <glyph glyph-name="Racute" unicode="&#x154;" horiz-adv-x="1908" 
d="M1415 1927l-475 -330h-246l301 330h420zM1839 0h-391l-412 487h-518v-487h-325v1434h989q132 0 243.5 -30.5t194.5 -89t129.5 -149t46.5 -204.5q0 -178 -107 -293t-292 -158zM516 758h647q69 0 120 9t93 30.5t64 62t22 98.5t-22 98.5t-64 62.5t-93 31t-120 9h-647v-401z
" />
    <glyph glyph-name="racute" unicode="&#x155;" horiz-adv-x="1019" 
d="M1083 1622l-475 -330h-246l302 330h419zM481 0h-317v1128h317v-233q67 125 202 191.5t302 66.5v-272q-189 0 -321.5 -74.5t-182.5 -220.5v-586z" />
    <glyph glyph-name="Rcommaaccent" unicode="&#x156;" horiz-adv-x="1908" 
d="M1397 510l442 -510h-391l-412 487h-518v-487h-325v1434h989q132 0 243.5 -30.5t194.5 -89t129.5 -149t46.5 -204.5q0 -178 -107 -293t-292 -158zM516 758h647q69 0 120 9t93 30.5t64 62t22 98.5t-22 98.5t-64 62.5t-93 31t-120 9h-647v-401zM952 -111q90 0 145.5 -60.5
t55.5 -150.5q0 -111 -68.5 -237.5t-193.5 -210.5l-72 90q75 67 115.5 122t54.5 118q-13 -13 -49 -13q-74 0 -126 49t-52 123q0 71 54 120.5t136 49.5z" />
    <glyph glyph-name="rcommaaccent" unicode="&#x157;" horiz-adv-x="1019" 
d="M481 0h-317v1128h317v-233q67 125 202 191.5t302 66.5v-272q-189 0 -321.5 -74.5t-182.5 -220.5v-586zM326 -111q90 0 145 -60.5t55 -150.5q0 -111 -68.5 -237.5t-193.5 -210.5l-71 90q74 67 114.5 122t54.5 118q-13 -13 -49 -13q-74 0 -126 49t-52 123q0 71 54.5 120.5
t136.5 49.5z" />
    <glyph glyph-name="Rcaron" unicode="&#x158;" horiz-adv-x="1908" 
d="M1077 1597h-334l-313 330h295l186 -192l185 192h295zM1839 0h-391l-412 487h-518v-487h-325v1434h989q132 0 243.5 -30.5t194.5 -89t129.5 -149t46.5 -204.5q0 -178 -107 -293t-292 -158zM516 758h647q69 0 120 9t93 30.5t64 62t22 98.5t-22 98.5t-64 62.5t-93 31t-120 9
h-647v-401z" />
    <glyph glyph-name="rcaron" unicode="&#x159;" horiz-adv-x="1019" 
d="M98 1622l314 -330h333l314 330h-295l-184 -192l-187 192h-295zM481 0h-317v1128h317v-233q67 125 202 191.5t302 66.5v-272q-189 0 -321.5 -74.5t-182.5 -220.5v-586z" />
    <glyph glyph-name="Sacute" unicode="&#x15a;" horiz-adv-x="1787" 
d="M1407 1927l-475 -330h-246l301 330h420zM936 883q146 -12 257.5 -30.5t212.5 -52.5t166.5 -82t103.5 -120t38 -164q0 -218 -202 -348.5t-574 -130.5q-537 0 -877 289l189 223q259 -238 696 -238q438 0 438 174q0 44 -26.5 74t-90 50.5t-145.5 32.5t-215 24
q-110 9 -201.5 23t-185 36t-163.5 55t-125.5 77t-85 105t-29.5 136q0 146 99 252t269.5 158.5t393.5 52.5q234 0 431.5 -56.5t334.5 -162.5l-181 -228q-221 169 -585 172q-79 1 -151 -6.5t-138 -25t-105 -51.5t-39 -81q0 -74 108 -108q81 -25 321 -44h1h1h1h1h1l1 -1h1h1h1
h1h1h1h1h1h1h1h1l1 -1h1h1h1h1h1h1h1h1h1h1h1h1l1 -1h1h1h1h1h1h1h1h1h1h1l1 -1h1h1h1h1h1h1h1h1h1h1h1h1l1 -1h1h1h1h1h2z" />
    <glyph glyph-name="sacute" unicode="&#x15b;" horiz-adv-x="1454" 
d="M1239 1622l-475 -330h-246l301 330h420zM770 707q137 -8 246 -32.5t193 -67.5t129.5 -111t45.5 -156q0 -170 -160 -277.5t-458 -107.5q-213 0 -399 61.5t-304 161.5l154 189q91 -78 235.5 -124t321.5 -46q318 0 318 120q0 59 -88 87.5t-277 41.5q-102 7 -187 21t-168 41
t-139.5 64.5t-91.5 95.5t-35 131q0 171 161 273t470 102q170 0 327.5 -47t268.5 -121l-145 -201q-192 127 -467 127q-55 0 -106 -5t-101 -16.5t-80.5 -35t-30.5 -56.5q0 -21 11.5 -37t37 -27.5t54 -19t75.5 -13t87 -9t102 -6.5z" />
    <glyph glyph-name="Scircumflex" unicode="&#x15c;" horiz-adv-x="1787" 
d="M422 1597h295l182 193l186 -193h297l-313 330h-334zM936 883q146 -12 257.5 -30.5t212.5 -52.5t166.5 -82t103.5 -120t38 -164q0 -218 -202 -348.5t-574 -130.5q-537 0 -877 289l189 223q259 -238 696 -238q438 0 438 174q0 44 -26.5 74t-90 50.5t-145.5 32.5t-215 24
q-110 9 -201.5 23t-185 36t-163.5 55t-125.5 77t-85 105t-29.5 136q0 146 99 252t269.5 158.5t393.5 52.5q234 0 431.5 -56.5t334.5 -162.5l-181 -228q-221 169 -585 172q-79 1 -151 -6.5t-138 -25t-105 -51.5t-39 -81q0 -74 108 -108q81 -25 321 -44h1h1h1h1h1l1 -1h1h1h1
h1h1h1h1h1h1h1h1l1 -1h1h1h1h1h1h1h1h1h1h1h1h1l1 -1h1h1h1h1h1h1h1h1h1h1l1 -1h1h1h1h1h1h1h1h1h1h1h1h1l1 -1h1h1h1h1h2z" />
    <glyph glyph-name="scircumflex" unicode="&#x15d;" horiz-adv-x="1454" 
d="M254 1292h295l182 193l187 -193h296l-313 330h-334zM770 707q137 -8 246 -32.5t193 -67.5t129.5 -111t45.5 -156q0 -170 -160 -277.5t-458 -107.5q-213 0 -399 61.5t-304 161.5l154 189q91 -78 235.5 -124t321.5 -46q318 0 318 120q0 59 -88 87.5t-277 41.5
q-102 7 -187 21t-168 41t-139.5 64.5t-91.5 95.5t-35 131q0 171 161 273t470 102q170 0 327.5 -47t268.5 -121l-145 -201q-192 127 -467 127q-55 0 -106 -5t-101 -16.5t-80.5 -35t-30.5 -56.5q0 -21 11.5 -37t37 -27.5t54 -19t75.5 -13t87 -9t102 -6.5z" />
    <glyph glyph-name="Scedilla" unicode="&#x15e;" horiz-adv-x="1787" 
d="M936 883q146 -12 257.5 -30.5t212.5 -52.5t166.5 -82t103.5 -120t38 -164q0 -218 -202 -348.5t-574 -130.5q-537 0 -877 289l189 223q259 -238 696 -238q438 0 438 174q0 44 -26.5 74t-90 50.5t-145.5 32.5t-215 24q-110 9 -201.5 23t-185 36t-163.5 55t-125.5 77
t-85 105t-29.5 136q0 146 99 252t269.5 158.5t393.5 52.5q234 0 431.5 -56.5t334.5 -162.5l-181 -228q-221 169 -585 172q-79 1 -151 -6.5t-138 -25t-105 -51.5t-39 -81q0 -74 108 -108q81 -25 321 -44h1h1h1h1h1l1 -1h1h1h1h1h1h1h1h1h1h1h1l1 -1h1h1h1h1h1h1h1h1h1h1h1h1
l1 -1h1h1h1h1h1h1h1h1h1h1l1 -1h1h1h1h1h1h1h1h1h1h1h1h1l1 -1h1h1h1h1h2zM1059 -117l-281 -329l-213 57l209 317z" />
    <glyph glyph-name="scedilla" unicode="&#x15f;" horiz-adv-x="1454" 
d="M770 707q137 -8 246 -32.5t193 -67.5t129.5 -111t45.5 -156q0 -170 -160 -277.5t-458 -107.5q-213 0 -399 61.5t-304 161.5l154 189q91 -78 235.5 -124t321.5 -46q318 0 318 120q0 59 -88 87.5t-277 41.5q-102 7 -187 21t-168 41t-139.5 64.5t-91.5 95.5t-35 131
q0 171 161 273t470 102q170 0 327.5 -47t268.5 -121l-145 -201q-192 127 -467 127q-55 0 -106 -5t-101 -16.5t-80.5 -35t-30.5 -56.5q0 -21 11.5 -37t37 -27.5t54 -19t75.5 -13t87 -9t102 -6.5zM874 -117l-280 -329l-213 57l209 317z" />
    <glyph glyph-name="Scaron" unicode="&#x160;" horiz-adv-x="1787" 
d="M422 1927l313 -330h334l313 330h-295l-184 -192l-186 192h-295zM936 883q146 -12 257.5 -30.5t212.5 -52.5t166.5 -82t103.5 -120t38 -164q0 -218 -202 -348.5t-574 -130.5q-537 0 -877 289l189 223q259 -238 696 -238q438 0 438 174q0 44 -26.5 74t-90 50.5t-145.5 32.5
t-215 24q-110 9 -201.5 23t-185 36t-163.5 55t-125.5 77t-85 105t-29.5 136q0 146 99 252t269.5 158.5t393.5 52.5q234 0 431.5 -56.5t334.5 -162.5l-181 -228q-221 169 -585 172q-79 1 -151 -6.5t-138 -25t-105 -51.5t-39 -81q0 -74 108 -108q81 -25 321 -44h1h1h1h1h1
l1 -1h1h1h1h1h1h1h1h1h1h1h1l1 -1h1h1h1h1h1h1h1h1h1h1h1h1l1 -1h1h1h1h1h1h1h1h1h1h1l1 -1h1h1h1h1h1h1h1h1h1h1h1h1l1 -1h1h1h1h1h2z" />
    <glyph glyph-name="scaron" unicode="&#x161;" horiz-adv-x="1454" 
d="M254 1622l313 -330h334l313 330h-294l-185 -192l-186 192h-295zM770 707q137 -8 246 -32.5t193 -67.5t129.5 -111t45.5 -156q0 -170 -160 -277.5t-458 -107.5q-213 0 -399 61.5t-304 161.5l154 189q91 -78 235.5 -124t321.5 -46q318 0 318 120q0 59 -88 87.5t-277 41.5
q-102 7 -187 21t-168 41t-139.5 64.5t-91.5 95.5t-35 131q0 171 161 273t470 102q170 0 327.5 -47t268.5 -121l-145 -201q-192 127 -467 127q-55 0 -106 -5t-101 -16.5t-80.5 -35t-30.5 -56.5q0 -21 11.5 -37t37 -27.5t54 -19t75.5 -13t87 -9t102 -6.5z" />
    <glyph glyph-name="uni0162" unicode="&#x162;" horiz-adv-x="1644" 
d="M1612 1434v-283h-627v-1151h-328v1151h-622v283h1577zM958 -100l-280 -330l-213 57l209 318z" />
    <glyph glyph-name="uni0163" unicode="&#x163;" horiz-adv-x="1083" 
d="M672 -43q-186 0 -304 99.5t-118 283.5v551h-209v237h209v263h317v-263h465v-237h-465v-496q0 -83 55.5 -128.5t143.5 -45.5q89 0 211 60l65 -215q-73 -50 -172 -79.5t-198 -29.5zM266 -389l209 317l285 -45l-281 -329z" />
    <glyph glyph-name="Tcaron" unicode="&#x164;" horiz-adv-x="1644" 
d="M342 1927l313 -330h334l314 330h-295l-185 -192l-186 192h-295zM1612 1434v-283h-627v-1151h-328v1151h-622v283h1577z" />
    <glyph glyph-name="tcaron" unicode="&#x165;" horiz-adv-x="1103" 
d="M821 1509q-72 0 -123 48t-51 116q0 71 52.5 118.5t131.5 47.5q89 0 143 -61t54 -144q0 -116 -65.5 -230t-192.5 -198l-63 88q133 124 159 230q-11 -15 -45 -15zM977 281l65 -215q-73 -50 -172 -79.5t-198 -29.5q-186 0 -304 99.5t-118 283.5v551h-209v237h209v263h317
v-263h465v-237h-465v-496q0 -83 55.5 -128.5t143.5 -45.5q89 0 211 60z" />
    <glyph glyph-name="Tbar" unicode="&#x166;" horiz-adv-x="1644" 
d="M1612 1151h-627v-340h285v-240h-285v-571h-328v571h-280v240h280v340h-622v283h1577v-283z" />
    <glyph glyph-name="tbar" unicode="&#x167;" horiz-adv-x="1083" 
d="M977 281l65 -215q-73 -50 -172 -79.5t-198 -29.5q-186 0 -304 99.5t-118 283.5v254h-144v143h144v154h-209v237h209v263h317v-263h465v-237h-465v-154h389v-143h-389v-199q0 -83 55.5 -128.5t143.5 -45.5q89 0 211 60z" />
    <glyph glyph-name="Utilde" unicode="&#x168;" horiz-adv-x="1943" 
d="M1389 1942l151 -187q-52 -65 -142.5 -111.5t-193.5 -46.5q-59 0 -121 17.5t-107 39t-104.5 39t-113.5 17.5q-69 0 -114 -23.5t-89 -70.5l-147 184q51 66 140.5 113t194.5 47q59 0 120.5 -17.5t106 -39t104.5 -39t116 -17.5q69 0 113.5 23.5t85.5 71.5zM1450 1434h328
v-758q0 -161 -53 -294t-154 -228t-253.5 -147t-344.5 -52t-344.5 52t-253.5 147t-154 228t-53 294v758h328v-734q0 -217 123.5 -337.5t353.5 -120.5t353.5 120.5t123.5 337.5v734z" />
    <glyph glyph-name="utilde" unicode="&#x169;" horiz-adv-x="1634" 
d="M1212 1636l152 -186q-52 -65 -142.5 -111.5t-193.5 -46.5q-59 0 -121 17.5t-107 39t-104.5 39t-113.5 17.5q-69 0 -114 -23.5t-89 -70.5l-148 184q51 65 141 112.5t195 47.5q59 0 120.5 -17.5t106 -39t104.5 -39t116 -17.5q69 0 113 23.5t85 70.5zM1153 1128h317v-1128
h-317v199q-69 -113 -199 -176.5t-292 -63.5q-247 0 -379.5 141.5t-132.5 374.5v653h317v-632q0 -138 73.5 -211.5t213.5 -73.5q263 0 399 240v677z" />
    <glyph glyph-name="Umacron" unicode="&#x16a;" horiz-adv-x="1943" 
d="M526 1860h893v-226h-893v226zM1450 1434h328v-758q0 -161 -53 -294t-154 -228t-253.5 -147t-344.5 -52t-344.5 52t-253.5 147t-154 228t-53 294v758h328v-734q0 -217 123.5 -337.5t353.5 -120.5t353.5 120.5t123.5 337.5v734z" />
    <glyph glyph-name="umacron" unicode="&#x16b;" horiz-adv-x="1634" 
d="M350 1554h893v-225h-893v225zM1153 1128h317v-1128h-317v199q-69 -113 -199 -176.5t-292 -63.5q-247 0 -379.5 141.5t-132.5 374.5v653h317v-632q0 -138 73.5 -211.5t213.5 -73.5q263 0 399 240v677z" />
    <glyph glyph-name="Ubreve" unicode="&#x16c;" horiz-adv-x="1943" 
d="M1364 1927q0 -40 -11.5 -84t-40.5 -91t-72 -84t-112 -61t-153 -24q-85 0 -154.5 24t-112 61t-72 84t-41 91t-11.5 84h204q5 -64 54.5 -111t132.5 -47q81 0 130 47t54 111h205zM1450 1434h328v-758q0 -161 -53 -294t-154 -228t-253.5 -147t-344.5 -52t-344.5 52
t-253.5 147t-154 228t-53 294v758h328v-734q0 -217 123.5 -337.5t353.5 -120.5t353.5 120.5t123.5 337.5v734z" />
    <glyph glyph-name="ubreve" unicode="&#x16d;" horiz-adv-x="1634" 
d="M1188 1622q0 -40 -11.5 -84t-40.5 -91t-72 -84t-112 -61t-153 -24q-85 0 -154.5 24t-112 61t-72 84t-41 91t-11.5 84h204q5 -64 54.5 -111t132.5 -47q81 0 130 47t54 111h205zM1153 1128h317v-1128h-317v199q-69 -113 -199 -176.5t-292 -63.5q-247 0 -379.5 141.5
t-132.5 374.5v653h317v-632q0 -138 73.5 -211.5t213.5 -73.5q263 0 399 240v677z" />
    <glyph glyph-name="Uring" unicode="&#x16e;" horiz-adv-x="1943" 
d="M973 1579q-138 0 -222.5 61t-84.5 175q0 113 85 176t222 63t223 -63t86 -176t-85.5 -174.5t-223.5 -61.5zM850 1815q0 -53 33.5 -83t89.5 -30q57 0 91 30t34 83q0 52 -34 81t-91 29q-56 0 -89.5 -29t-33.5 -81zM1450 1434h328v-758q0 -161 -53 -294t-154 -228
t-253.5 -147t-344.5 -52t-344.5 52t-253.5 147t-154 228t-53 294v758h328v-734q0 -217 123.5 -337.5t353.5 -120.5t353.5 120.5t123.5 337.5v734z" />
    <glyph glyph-name="uring" unicode="&#x16f;" horiz-adv-x="1634" 
d="M797 1274q-138 0 -223 61t-85 174t85.5 176.5t222.5 63.5t223 -63.5t86 -176.5t-85 -174t-224 -61zM674 1509q0 -53 33.5 -82.5t89.5 -29.5q57 0 91 29.5t34 82.5q0 52 -34.5 81.5t-90.5 29.5t-89.5 -29.5t-33.5 -81.5zM1153 1128h317v-1128h-317v199
q-69 -113 -199 -176.5t-292 -63.5q-247 0 -379.5 141.5t-132.5 374.5v653h317v-632q0 -138 73.5 -211.5t213.5 -73.5q263 0 399 240v677z" />
    <glyph glyph-name="Uhungarumlaut" unicode="&#x170;" horiz-adv-x="1943" 
d="M1147 1927l-338 -330h-289l336 330h291zM1608 1927l-338 -330h-289l336 330h291zM1450 1434h328v-758q0 -161 -53 -294t-154 -228t-253.5 -147t-344.5 -52t-344.5 52t-253.5 147t-154 228t-53 294v758h328v-734q0 -217 123.5 -337.5t353.5 -120.5t353.5 120.5
t123.5 337.5v734z" />
    <glyph glyph-name="uhungarumlaut" unicode="&#x171;" horiz-adv-x="1634" 
d="M971 1622l-338 -330h-289l336 330h291zM1432 1622l-338 -330h-289l336 330h291zM1153 1128h317v-1128h-317v199q-69 -113 -199 -176.5t-292 -63.5q-247 0 -379.5 141.5t-132.5 374.5v653h317v-632q0 -138 73.5 -211.5t213.5 -73.5q263 0 399 240v677z" />
    <glyph glyph-name="Uogonek" unicode="&#x172;" horiz-adv-x="1943" 
d="M1450 1434h328v-758q0 -250 -124.5 -426.5t-357.5 -249.5h2q-96 -36 -165.5 -107t-69.5 -151q0 -59 41 -92t104 -33q90 0 146 53l57 -73q-38 -45 -104 -77t-162 -32q-81 0 -148.5 23.5t-113 77.5t-45.5 130q0 70 36 132t103 104h-4q-192 0 -344.5 52t-253.5 147t-154 228
t-53 294v758h328v-734q0 -217 123.5 -337.5t353.5 -120.5t353.5 120.5t123.5 337.5v734z" />
    <glyph glyph-name="uogonek" unicode="&#x173;" horiz-adv-x="1634" 
d="M1499 -330l57 -73q-38 -45 -104 -77t-162 -32q-81 0 -148.5 23.5t-113 77.5t-45.5 130q0 92 62 167.5t174 113.5h-66v199q-69 -113 -199 -176.5t-292 -63.5q-247 0 -379.5 141.5t-132.5 374.5v653h317v-632q0 -138 73.5 -211.5t213.5 -73.5q263 0 399 240v677h317v-1128
h-26q-97 -37 -166.5 -107.5t-69.5 -150.5q0 -59 41.5 -92t104.5 -33q89 0 145 53z" />
    <glyph glyph-name="Wcircumflex" unicode="&#x174;" horiz-adv-x="2533" 
d="M788 1597h295l183 193l186 -193h297l-313 330h-334zM2165 1434h338l-525 -1434h-333l-377 1081l-381 -1081h-330l-524 1434h344l352 -1061l383 1061h318l380 -1061z" />
    <glyph glyph-name="wcircumflex" unicode="&#x175;" horiz-adv-x="2099" 
d="M573 1292h295l183 193l186 -193h297l-313 330h-334zM1755 1128h307l-409 -1128h-312l-290 819l-293 -819h-314l-407 1128h313l273 -796l282 796h293l285 -796z" />
    <glyph glyph-name="Ycircumflex" unicode="&#x176;" horiz-adv-x="1720" 
d="M381 1597h295l182 193l186 -193h297l-313 330h-334zM6 1434h373l483 -672l481 672h371l-690 -945v-489h-328v489z" />
    <glyph glyph-name="ycircumflex" unicode="&#x177;" horiz-adv-x="1484" 
d="M266 1292h295l182 193l187 -193h297l-314 330h-333zM1141 1128h327l-823 -1538h-323l268 480l-574 1058h334l402 -763z" />
    <glyph glyph-name="Ydieresis" unicode="&#x178;" horiz-adv-x="1720" 
d="M582 1606q-70 0 -116 39.5t-46 99.5q0 62 45.5 100.5t116.5 38.5q70 0 115.5 -38.5t45.5 -100.5q0 -60 -46 -99.5t-115 -39.5zM1141 1606q-70 0 -116 39.5t-46 99.5q0 62 45.5 100.5t116.5 38.5q70 0 116 -38.5t46 -100.5q0 -60 -46.5 -99.5t-115.5 -39.5zM6 1434h373
l483 -672l481 672h371l-690 -945v-489h-328v489z" />
    <glyph glyph-name="Zacute" unicode="&#x179;" horiz-adv-x="1753" 
d="M1411 1927l-475 -330h-246l301 330h420zM1636 1434v-224l-1067 -936h1100v-274h-1587v223l1067 936h-1030v275h1517z" />
    <glyph glyph-name="zacute" unicode="&#x17a;" horiz-adv-x="1417" 
d="M1227 1622l-475 -330h-246l301 330h420zM1307 1128v-196l-787 -692h811v-242h-1251v199l786 692h-757v239h1198z" />
    <glyph glyph-name="Zdotaccent" unicode="&#x17b;" horiz-adv-x="1753" 
d="M905 1606q-69 0 -112 35.5t-43 95.5q0 62 42.5 98.5t112.5 36.5t112 -36.5t42 -98.5q0 -60 -42.5 -95.5t-111.5 -35.5zM1636 1434v-224l-1067 -936h1100v-274h-1587v223l1067 936h-1030v275h1517z" />
    <glyph glyph-name="zdotaccent" unicode="&#x17c;" horiz-adv-x="1417" 
d="M721 1300q-69 0 -112.5 36t-43.5 96q0 62 43 98.5t113 36.5t111.5 -36.5t41.5 -98.5q0 -60 -42 -96t-111 -36zM1307 1128v-196l-787 -692h811v-242h-1251v199l786 692h-757v239h1198z" />
    <glyph glyph-name="Zcaron" unicode="&#x17d;" horiz-adv-x="1753" 
d="M426 1927l313 -330h334l313 330h-294l-185 -192l-186 192h-295zM1636 1434v-224l-1067 -936h1100v-274h-1587v223l1067 936h-1030v275h1517z" />
    <glyph glyph-name="zcaron" unicode="&#x17e;" horiz-adv-x="1417" 
d="M242 1622l313 -330h334l313 330h-295l-184 -192l-186 192h-295zM1307 1128v-196l-787 -692h811v-242h-1251v199l786 692h-757v239h1198z" />
    <glyph glyph-name="florin" unicode="&#x192;" horiz-adv-x="1417" 
d="M1135 1245q-82 0 -136 -42.5t-63 -125.5l-27 -252h353l-19 -184h-352l-33 -326q-18 -167 -138 -264.5t-288 -97.5q-87 0 -175.5 21t-150.5 55l76 200q76 -41 174 -41q82 0 135 42.5t62 125.5l31 285h-355l17 184h356l31 293q17 167 137 265t287 98q87 0 176.5 -21
t148.5 -55l-77 -201q-72 41 -170 41z" />
    <glyph glyph-name="Aringacute" unicode="&#x1fa;" horiz-adv-x="1884" 
d="M942 1579q-138 0 -222.5 61t-84.5 175q0 104 74 165l213 256h315l-238 -186q115 -12 183.5 -73.5t68.5 -161.5q0 -113 -85.5 -174.5t-223.5 -61.5zM1067 1815q0 52 -34 81t-91 29q-56 0 -89.5 -29t-33.5 -81q0 -53 33.5 -83t89.5 -30q57 0 91 30t34 83zM1528 0l-154 303
h-866l-154 -303h-350l760 1434h358l760 -1434h-354zM643 569h594l-297 584z" />
    <glyph glyph-name="aringacute" unicode="&#x1fb;" horiz-adv-x="1558" 
d="M778 1274q-138 0 -222.5 60.5t-84.5 174.5q0 86 51 146l-6 2l229 272h316l-234 -182q117 -11 188.5 -73.5t71.5 -164.5q0 -113 -85 -174t-224 -61zM903 1509q0 52 -34.5 81.5t-90.5 29.5t-89.5 -29.5t-33.5 -81.5q0 -53 33.5 -82.5t89.5 -29.5q57 0 91 29.5t34 82.5z
M1403 215q0 -124 51 -215h-326q-41 67 -41 133v2q-70 -76 -192.5 -126t-276.5 -50q-77 0 -151 12t-148.5 41t-130 72t-90.5 111.5t-35 152.5t35 152t90.5 111t130 72t148.5 40.5t151 11.5q155 0 277.5 -49.5t191.5 -126.5v74q0 155 -101 227t-306 72q-123 0 -219 -20.5
t-193 -73.5l-94 209q110 57 264 90.5t305 33.5q312 0 486 -140t174 -400v-416zM1094 334v28q-105 166 -398 166q-56 0 -107 -7.5t-102.5 -25.5t-82.5 -56t-31 -91t31 -91t82.5 -56.5t102.5 -26.5t107 -8q292 0 398 168z" />
    <glyph glyph-name="AEacute" unicode="&#x1fc;" horiz-adv-x="2912" 
d="M2415 1927l-476 -330h-245l301 330h420zM1671 274h1151v-274h-1476v313h-725l-265 -313h-385l1239 1434h170h1422v-275h-1131v-295h944v-274h-944v-316zM829 559h517v612z" />
    <glyph glyph-name="aeacute" unicode="&#x1fd;" horiz-adv-x="2553" 
d="M1757 1622l-475 -330h-246l301 330h420zM1389 496v-19q23 -147 132 -210.5t310 -63.5q152 0 248.5 28.5t185.5 102.5l170 -178q-231 -201 -620 -201q-211 0 -367 62.5t-246 179.5q-84 -116 -246.5 -177t-332.5 -61q-99 0 -192.5 20.5t-178.5 63.5t-137 121.5t-52 183.5
q0 84 35 152t90.5 111t130 72t148.5 40.5t151 11.5q158 0 281 -52.5t191 -141.5v92q0 154 -102 226.5t-308 72.5q-252 0 -428 -98l-78 213q110 57 264 90.5t305 33.5q347 0 514 -176q185 179 535 179q309 0 496.5 -159t187.5 -446q0 -41 -8 -73h-1079zM1794 928
q-162 0 -261.5 -54.5t-133.5 -175.5l776 4q-35 117 -129 171.5t-252 54.5zM1096 334v28q-107 166 -398 166q-57 0 -108 -7.5t-103 -25.5t-83 -56t-31 -91t31 -91t82.5 -56.5t103.5 -26.5t108 -8q289 0 398 168z" />
    <glyph glyph-name="Oslashacute" unicode="&#x1fe;" horiz-adv-x="2025" 
d="M1518 1927l-476 -330h-245l301 330h420zM1599 1333q157 -98 240.5 -254.5t83.5 -361.5q0 -357 -244.5 -559.5t-666.5 -202.5q-221 0 -398 57l-155 -207h-256l221 295q-157 98 -240.5 255t-83.5 362q0 357 245 559.5t667 202.5q217 0 397 -58l156 207h256zM434 717
q0 -246 174 -369l617 823q-103 25 -213 25q-269 0 -423.5 -125.5t-154.5 -353.5zM1012 238q268 0 422.5 125.5t154.5 353.5q0 239 -174 368l-616 -823q99 -24 213 -24z" />
    <glyph glyph-name="oslashacute" unicode="&#x1ff;" horiz-adv-x="1622" 
d="M1305 1622l-476 -330h-245l301 330h420zM1233 1079q144 -77 221.5 -209t77.5 -307q0 -281 -194 -444.5t-527 -163.5q-153 0 -268 33l-115 -183h-213l158 250q-136 77 -209.5 207.5t-73.5 300.5q0 283 193 445.5t528 162.5q132 0 250 -28l115 180h213zM397 563
q0 -176 127 -270l387 612q-41 8 -100 8q-186 0 -300 -89.5t-114 -260.5zM811 213q187 0 301.5 90.5t114.5 259.5q0 189 -142 281l-393 -621q62 -10 119 -10z" />
    <glyph glyph-name="Scommaaccent" unicode="&#x218;" horiz-adv-x="1787" 
d="M936 883q146 -12 257.5 -30.5t212.5 -52.5t166.5 -82t103.5 -120t38 -164q0 -218 -202 -348.5t-574 -130.5q-537 0 -877 289l189 223q259 -238 696 -238q438 0 438 174q0 44 -26.5 74t-90 50.5t-145.5 32.5t-215 24q-110 9 -201.5 23t-185 36t-163.5 55t-125.5 77
t-85 105t-29.5 136q0 146 99 252t269.5 158.5t393.5 52.5q234 0 431.5 -56.5t334.5 -162.5l-181 -228q-221 169 -585 172q-79 1 -151 -6.5t-138 -25t-105 -51.5t-39 -81q0 -74 108 -108q81 -25 321 -44h1h1h1h1h1l1 -1h1h1h1h1h1h1h1h1h1h1h1l1 -1h1h1h1h1h1h1h1h1h1h1h1h1
l1 -1h1h1h1h1h1h1h1h1h1h1l1 -1h1h1h1h1h1h1h1h1h1h1h1h1l1 -1h1h1h1h1h2zM928 -111q90 0 145 -60.5t55 -150.5q0 -111 -68.5 -237.5t-193.5 -210.5l-71 90q75 67 115.5 122t54.5 118q-13 -13 -50 -13q-74 0 -126 49t-52 123q0 71 54.5 120.5t136.5 49.5z" />
    <glyph glyph-name="scommaaccent" unicode="&#x219;" horiz-adv-x="1454" 
d="M770 707q137 -8 246 -32.5t193 -67.5t129.5 -111t45.5 -156q0 -170 -160 -277.5t-458 -107.5q-213 0 -399 61.5t-304 161.5l154 189q91 -78 235.5 -124t321.5 -46q318 0 318 120q0 59 -88 87.5t-277 41.5q-102 7 -187 21t-168 41t-139.5 64.5t-91.5 95.5t-35 131
q0 171 161 273t470 102q170 0 327.5 -47t268.5 -121l-145 -201q-192 127 -467 127q-55 0 -106 -5t-101 -16.5t-80.5 -35t-30.5 -56.5q0 -21 11.5 -37t37 -27.5t54 -19t75.5 -13t87 -9t102 -6.5zM743 -111q90 0 145.5 -60.5t55.5 -150.5q0 -111 -68.5 -237.5t-193.5 -210.5
l-72 90q75 67 115.5 122t54.5 118q-13 -13 -49 -13q-74 0 -126 49t-52 123q0 71 54 120.5t136 49.5z" />
    <glyph glyph-name="uni021B" unicode="&#x21b;" horiz-adv-x="1083" 
d="M1042 66q-73 -50 -172 -79.5t-198 -29.5q-186 0 -304 99.5t-118 283.5v551h-209v237h209v263h317v-263h465v-237h-465v-496q0 -83 55.5 -128.5t143.5 -45.5q89 0 211 60zM629 -111q90 0 145 -60.5t55 -150.5q0 -111 -68.5 -237.5t-193.5 -210.5l-71 90q75 67 115.5 122
t54.5 118q-13 -13 -50 -13q-74 0 -126 49t-52 123q0 71 54.5 120.5t136.5 49.5z" />
    <glyph glyph-name="uni0237" unicode="&#x237;" horiz-adv-x="647" 
d="M162 1128h317v-1175q0 -188 -110 -297t-295 -109q-130 0 -250 47l59 220q61 -23 119 -23q72 0 116 46.5t44 125.5v1165z" />
    <glyph glyph-name="circumflex" unicode="&#x2c6;" horiz-adv-x="1202" 
d="M121 1597h295l182 193l186 -193h297l-313 330h-334z" />
    <glyph glyph-name="caron" unicode="&#x2c7;" horiz-adv-x="1202" 
d="M121 1927l313 -330h334l313 330h-295l-184 -192l-186 192h-295z" />
    <glyph glyph-name="breve" unicode="&#x2d8;" horiz-adv-x="1202" 
d="M1010 1927q0 -40 -11.5 -84t-40.5 -91t-72 -84t-112 -61t-153 -24q-85 0 -154.5 24t-112.5 61t-72 84t-41 91t-12 84h205q5 -64 54.5 -111t132.5 -47q81 0 130 47t54 111h205z" />
    <glyph glyph-name="dotaccent" unicode="&#x2d9;" horiz-adv-x="1202" 
d="M602 1606q-70 0 -113 35.5t-43 95.5q0 62 43 98.5t113 36.5t112 -36.5t42 -98.5q0 -60 -42.5 -95.5t-111.5 -35.5z" />
    <glyph glyph-name="ring" unicode="&#x2da;" horiz-adv-x="1202" 
d="M621 1579q-138 0 -223 61t-85 175q0 113 85.5 176t222.5 63t223 -63t86 -176t-85.5 -174.5t-223.5 -61.5zM498 1815q0 -53 33.5 -83t89.5 -30t90 30t34 83q0 52 -34 81t-90 29t-89.5 -29t-33.5 -81z" />
    <glyph glyph-name="ogonek" unicode="&#x2db;" horiz-adv-x="1202" 
d="M793 -403q-37 -45 -104 -77t-163 -32q-81 0 -148.5 23.5t-113 77.5t-45.5 130q0 107 81.5 189.5t225.5 109.5l154 -18q-97 -37 -166.5 -107.5t-69.5 -150.5q0 -59 41.5 -92t104.5 -33q89 0 145 53z" />
    <glyph glyph-name="tilde" unicode="&#x2dc;" horiz-adv-x="1202" 
d="M1016 1942l151 -187q-52 -65 -142.5 -111.5t-193.5 -46.5q-59 0 -121 17.5t-107 39t-104.5 39t-113.5 17.5q-69 0 -114 -23.5t-89 -70.5l-147 184q51 65 141 112.5t195 47.5q59 0 120.5 -17.5t105.5 -39t104 -39t116 -17.5q69 0 113.5 23.5t85.5 71.5z" />
    <glyph glyph-name="hungarumlaut" unicode="&#x2dd;" horiz-adv-x="1202" 
d="M686 1927l-338 -330h-289l336 330h291zM1147 1927l-338 -330h-289l336 330h291z" />
    <glyph glyph-name="uni0326" unicode="&#x326;" horiz-adv-x="0" 
d="M-651 -111q90 0 145 -60.5t55 -150.5q0 -111 -68.5 -237.5t-193.5 -210.5l-71 90q75 67 115.5 122t54.5 118q-13 -13 -50 -13q-74 0 -126 49t-52 123q0 71 54.5 120.5t136.5 49.5z" />
    <glyph glyph-name="uni0394" unicode="&#x394;" horiz-adv-x="1820" 
d="M909 1475l910 -1475h-306h-1253h-256zM442 231h934l-467 791z" />
    <glyph glyph-name="uni03A9" unicode="&#x3a9;" horiz-adv-x="2054" 
d="M1939 776q0 -165 -77 -299t-217 -223h247v-254h-682v254q189 55 292.5 171t103.5 296q0 227 -155.5 353t-424.5 126q-267 0 -422 -126.5t-155 -352.5q0 -349 395 -467v-254h-682v254h248q-140 89 -217.5 223t-77.5 299q0 317 247 510t664 193q418 0 665.5 -193
t247.5 -510z" />
    <glyph glyph-name="uni03BC" unicode="&#x3bc;" horiz-adv-x="1626" 
d="M1147 1128h315v-1128h-315v207q-73 -104 -199 -164.5t-280 -60.5q-101 0 -187 28v-420h-317v1538h317v-624q0 -141 72.5 -217t210.5 -76q246 0 383 242v675z" />
    <glyph glyph-name="pi" unicode="&#x3c0;" horiz-adv-x="1957" 
d="M1888 874h-372v-485q0 -84 43 -131t129 -47q55 0 100 18l51 -221q-100 -49 -231 -49q-107 0 -196 41.5t-145.5 128t-56.5 203.5v542h-497v-874h-305v874h-369v254h674h803h372v-254z" />
    <glyph glyph-name="Wgrave" unicode="&#x1e80;" horiz-adv-x="2533" 
d="M764 1927h420l301 -330h-246zM2165 1434h338l-525 -1434h-333l-377 1081l-381 -1081h-330l-524 1434h344l352 -1061l383 1061h318l380 -1061z" />
    <glyph glyph-name="wgrave" unicode="&#x1e81;" horiz-adv-x="2099" 
d="M549 1622h420l301 -330h-246zM1755 1128h307l-409 -1128h-312l-290 819l-293 -819h-314l-407 1128h313l273 -796l282 796h293l285 -796z" />
    <glyph glyph-name="Wacute" unicode="&#x1e82;" horiz-adv-x="2533" 
d="M1774 1927l-476 -330h-245l301 330h420zM2165 1434h338l-525 -1434h-333l-377 1081l-381 -1081h-330l-524 1434h344l352 -1061l383 1061h318l380 -1061z" />
    <glyph glyph-name="wacute" unicode="&#x1e83;" horiz-adv-x="2099" 
d="M1559 1622l-476 -330h-245l301 330h420zM1755 1128h307l-409 -1128h-312l-290 819l-293 -819h-314l-407 1128h313l273 -796l282 796h293l285 -796z" />
    <glyph glyph-name="Wdieresis" unicode="&#x1e84;" horiz-adv-x="2533" 
d="M989 1606q-70 0 -116 39.5t-46 99.5q0 62 45.5 100.5t116.5 38.5q70 0 116 -38.5t46 -100.5q0 -60 -46.5 -99.5t-115.5 -39.5zM1548 1606q-70 0 -116 39.5t-46 99.5q0 62 45.5 100.5t116.5 38.5q70 0 116 -38.5t46 -100.5q0 -60 -46.5 -99.5t-115.5 -39.5zM2165 1434h338
l-525 -1434h-333l-377 1081l-381 -1081h-330l-524 1434h344l352 -1061l383 1061h318l380 -1061z" />
    <glyph glyph-name="wdieresis" unicode="&#x1e85;" horiz-adv-x="2099" 
d="M774 1300q-70 0 -116 40t-46 100q0 62 45.5 100.5t116.5 38.5q70 0 116 -38.5t46 -100.5q0 -60 -46.5 -100t-115.5 -40zM1333 1300q-70 0 -116 40t-46 100q0 62 45.5 100.5t116.5 38.5q70 0 116 -38.5t46 -100.5q0 -60 -46.5 -100t-115.5 -40zM1755 1128h307l-409 -1128
h-312l-290 819l-293 -819h-314l-407 1128h313l273 -796l282 796h293l285 -796z" />
    <glyph glyph-name="Ygrave" unicode="&#x1ef2;" horiz-adv-x="1720" 
d="M356 1927h420l301 -330h-246zM6 1434h373l483 -672l481 672h371l-690 -945v-489h-328v489z" />
    <glyph glyph-name="ygrave" unicode="&#x1ef3;" horiz-adv-x="1484" 
d="M242 1622h420l301 -330h-246zM1141 1128h327l-823 -1538h-323l268 480l-574 1058h334l402 -763z" />
    <glyph glyph-name="endash" unicode="&#x2013;" horiz-adv-x="1624" 
d="M1479 485h-1334v267h1334v-267z" />
    <glyph glyph-name="emdash" unicode="&#x2014;" horiz-adv-x="2058" 
d="M1913 485h-1768v267h1768v-267z" />
    <glyph glyph-name="quoteleft" unicode="&#x2018;" horiz-adv-x="612" 
d="M311 850q-90 0 -145 60.5t-55 150.5q0 111 68.5 237.5t193.5 210.5l71 -90q-75 -67 -115.5 -121.5t-54.5 -117.5q12 12 50 12q74 0 126 -49t52 -123q0 -71 -54.5 -120.5t-136.5 -49.5z" />
    <glyph glyph-name="quoteright" unicode="&#x2019;" horiz-adv-x="612" 
d="M301 1470q90 0 145.5 -60t55.5 -150q0 -111 -68.5 -238t-193.5 -211l-72 90q75 67 115.5 122t54.5 118q-13 -13 -49 -13q-74 0 -126 49t-52 123q0 71 54 120.5t136 49.5z" />
    <glyph glyph-name="quotesinglbase" unicode="&#x201a;" horiz-adv-x="612" 
d="M301 317q90 0 145.5 -60.5t55.5 -150.5q0 -111 -68.5 -237.5t-193.5 -210.5l-72 90q75 67 115.5 122t54.5 118q-13 -13 -49 -13q-74 0 -126 49t-52 123q0 71 54 120.5t136 49.5z" />
    <glyph glyph-name="quotedblleft" unicode="&#x201c;" horiz-adv-x="1064" 
d="M311 846q-90 0 -145 60.5t-55 150.5q0 111 68.5 237.5t193.5 210.5l71 -90q-75 -67 -115.5 -121.5t-54.5 -117.5q12 12 50 12q74 0 126 -49t52 -123q0 -71 -54.5 -120.5t-136.5 -49.5zM764 846q-90 0 -145.5 60.5t-55.5 150.5q0 111 68.5 237.5t193.5 210.5l72 -90
q-75 -67 -115.5 -121.5t-54.5 -117.5q12 12 49 12q74 0 126 -49t52 -123q0 -71 -54 -120.5t-136 -49.5z" />
    <glyph glyph-name="quotedblright" unicode="&#x201d;" horiz-adv-x="1064" 
d="M301 1470q90 0 145.5 -60t55.5 -150q0 -111 -68.5 -238t-193.5 -211l-72 90q75 67 115.5 122t54.5 118q-13 -13 -49 -13q-74 0 -126 49t-52 123q0 71 54 120.5t136 49.5zM754 1470q90 0 145 -60t55 -150q0 -111 -68.5 -238t-193.5 -211l-71 90q75 67 115.5 122t54.5 118
q-13 -13 -50 -13q-74 0 -126 49t-52 123q0 71 54.5 120.5t136.5 49.5z" />
    <glyph glyph-name="quotedblbase" unicode="&#x201e;" horiz-adv-x="1064" 
d="M301 317q90 0 145.5 -60.5t55.5 -150.5q0 -111 -68.5 -237.5t-193.5 -210.5l-72 90q75 67 115.5 122t54.5 118q-13 -13 -49 -13q-74 0 -126 49t-52 123q0 71 54 120.5t136 49.5zM754 317q90 0 145 -60.5t55 -150.5q0 -111 -68.5 -237.5t-193.5 -210.5l-71 90
q75 67 115.5 122t54.5 118q-13 -13 -50 -13q-74 0 -126 49t-52 123q0 71 54.5 120.5t136.5 49.5z" />
    <glyph glyph-name="dagger" unicode="&#x2020;" horiz-adv-x="894" 
d="M772 1274v-184h-223v-416h-205v416h-223v184h223v242h205v-242h223z" />
    <glyph glyph-name="daggerdbl" unicode="&#x2021;" horiz-adv-x="894" 
d="M772 1174h-229v-158h229v-154h-229v-188h-195v188h-227v154h227v158h-227v153h227v189h195v-189h229v-153z" />
    <glyph glyph-name="bullet" unicode="&#x2022;" horiz-adv-x="837" 
d="M418 315q-124 0 -203.5 73.5t-79.5 189.5q0 117 79 190.5t204 73.5t203.5 -73.5t78.5 -190.5q0 -116 -79 -189.5t-203 -73.5z" />
    <glyph glyph-name="ellipsis" unicode="&#x2026;" horiz-adv-x="1787" 
d="M303 -25q-86 0 -140 48t-54 122q0 73 54.5 122.5t139.5 49.5q84 0 138.5 -49.5t54.5 -122.5q0 -74 -54.5 -122t-138.5 -48zM895 -25q-86 0 -140.5 48t-54.5 122q0 73 55 122.5t140 49.5q84 0 138 -49.5t54 -122.5q0 -74 -54 -122t-138 -48zM1485 -25q-86 0 -140.5 48
t-54.5 122q0 73 55 122.5t140 49.5q84 0 138 -49.5t54 -122.5q0 -74 -54 -122t-138 -48z" />
    <glyph glyph-name="perthousand" unicode="&#x2030;" horiz-adv-x="2725" 
d="M453 780q-167 0 -275 99t-108 243q0 146 108 244t275 98t274 -98t107 -244q0 -145 -107.5 -243.5t-273.5 -98.5zM1384 1434h234l-1114 -1434h-234zM453 958q83 0 132.5 43t49.5 121t-49.5 121t-132.5 43t-133 -43t-50 -121t50 -121t133 -43zM1436 -31q-167 0 -275 99
t-108 243q0 146 108 244t275 98t274 -98t107 -244q0 -145 -107.5 -243.5t-273.5 -98.5zM2275 -31q-167 0 -275 99t-108 243q0 146 108 244t275 98t274 -98t107 -244q0 -145 -107.5 -243.5t-273.5 -98.5zM1436 147q83 0 132.5 43t49.5 121t-49.5 121t-132.5 43t-133 -43
t-50 -121t50 -121t133 -43zM2275 147q83 0 133 43t50 121t-50 121t-133 43t-132.5 -43t-49.5 -121t49.5 -121t132.5 -43z" />
    <glyph glyph-name="minute" unicode="&#x2032;" horiz-adv-x="630" 
d="M291 1434h278l-198 -580h-277z" />
    <glyph glyph-name="second" unicode="&#x2033;" horiz-adv-x="1083" 
d="M291 1434h278l-198 -580h-277zM743 1434h279l-199 -580h-276z" />
    <glyph glyph-name="guilsinglleft" unicode="&#x2039;" horiz-adv-x="899" 
d="M498 1069l-432 -451l432 -450h309l-432 450l432 451h-309z" />
    <glyph glyph-name="guilsinglright" unicode="&#x203a;" horiz-adv-x="899" 
d="M401 1069h-309l432 -451l-432 -450h309l433 450z" />
    <glyph glyph-name="uni203D" unicode="&#x203d;" horiz-adv-x="1538" 
d="M778 1477q127 0 245 -26.5t215 -77t155.5 -134.5t58.5 -190q0 -89 -42.5 -161t-119 -120t-178.5 -77t-225 -38v-196h-258v370v328h258v-291q115 26 173 68.5t58 111.5q0 49 -29 84.5t-80 54.5t-109.5 27.5t-127.5 8.5q-328 0 -532 -236l-185 184q285 310 723 310z
M756 317q84 0 138 -49.5t54 -122.5q0 -74 -54 -122t-138 -48q-86 0 -140.5 48t-54.5 122q0 73 55 122.5t140 49.5z" />
    <glyph glyph-name="fraction" unicode="&#x2044;" horiz-adv-x="509" 
d="M-94 0h-230l924 1434h227z" />
    <glyph glyph-name="uni2070" unicode="&#x2070;" horiz-adv-x="1130" 
d="M565 918q-230 0 -362.5 119.5t-132.5 330.5t132.5 331t362.5 120q231 0 363.5 -119.5t132.5 -331.5q0 -211 -132.5 -330.5t-363.5 -119.5zM565 1094q134 0 209.5 71t75.5 203q0 131 -75.5 201.5t-209.5 70.5t-210 -71t-76 -201q0 -132 76 -203t210 -71z" />
    <glyph glyph-name="uni2074" unicode="&#x2074;" horiz-adv-x="1046" 
d="M999 1282v-156h-159v-182h-199v182h-606v117l620 547h185v-508h159zM293 1282h346v295z" />
    <glyph glyph-name="uni2075" unicode="&#x2075;" horiz-adv-x="991" 
d="M152 1206q138 -119 344 -119q107 0 169 32.5t62 97.5q0 66 -61 97.5t-168 31.5q-148 0 -271 -60l-145 55l76 449h696v-160h-547l-33 -211q127 80 293 80q101 0 182.5 -30t134 -95.5t52.5 -156.5q0 -132 -108.5 -215.5t-321.5 -83.5q-263 0 -459 161z" />
    <glyph glyph-name="uni2076" unicode="&#x2076;" horiz-adv-x="1058" 
d="M598 1501q77 0 146 -15.5t127.5 -48t93 -88.5t34.5 -130q0 -134 -116 -217.5t-322 -83.5q-228 0 -359.5 120.5t-131.5 329.5t132 330t359 121q270 0 414 -144l-113 -116q-108 102 -278 102q-300 0 -305 -283q57 60 144 91.5t175 31.5zM561 1077q106 0 168 33.5t62 101.5
q0 142 -230 142q-73 0 -145 -25.5t-125 -71.5q47 -180 270 -180z" />
    <glyph glyph-name="uni2077" unicode="&#x2077;" horiz-adv-x="909" 
d="M203 944l424 676h-592v170h842v-133l-443 -713h-231z" />
    <glyph glyph-name="uni2078" unicode="&#x2078;" horiz-adv-x="1056" 
d="M750 1393q105 -17 172 -70t67 -147q0 -117 -128 -187.5t-333 -70.5t-332.5 70.5t-127.5 187.5q0 94 66 147t169 70q-93 8 -149 61.5t-56 134.5q0 74 61 127.5t156.5 78t212.5 24.5t212.5 -24.5t156.5 -78t61 -127.5q0 -82 -57 -135t-151 -61zM307 1563q0 -107 223 -107
q220 0 220 107q0 36 -32 61t-79.5 35t-108.5 10q-97 0 -160 -26t-63 -80zM526 1067q107 0 177.5 33.5t70.5 95.5q0 66 -68.5 96.5t-179.5 30.5q-110 0 -177.5 -30.5t-67.5 -96.5q0 -62 69 -95.5t176 -33.5z" />
    <glyph glyph-name="uni2079" unicode="&#x2079;" horiz-adv-x="1058" 
d="M492 1817q227 0 359 -121t132 -330t-132 -330t-359 -121q-270 0 -414 144l112 117q109 -103 279 -103q300 0 305 283q-57 -60 -144 -91.5t-175 -31.5q-61 0 -117.5 9.5t-109 31.5t-91 54t-61.5 80.5t-23 107.5q0 134 116.5 217.5t322.5 83.5zM262 1522q0 -142 230 -142
q73 0 145 25.5t125 71.5q-47 180 -270 180q-106 0 -168 -33.5t-62 -101.5z" />
    <glyph glyph-name="uni20A8" unicode="&#x20a8;" horiz-adv-x="1814" 
d="M1726 1239h-337q72 -85 92 -190h245v-195h-247q-27 -134 -126 -225.5t-251 -132.5l432 -496h-336l-395 465h-676v197h713q301 0 360 192h-1073v195h1071q-59 190 -358 190h-713v195h1599v-195z" />
    <glyph glyph-name="Euro" unicode="&#x20ac;" horiz-adv-x="1845" 
d="M1069 203q307 0 447 237l247 -129q-87 -159 -265 -258.5t-423 -99.5q-317 0 -523 148t-263 415h-213v127h194q-2 25 -2 74t2 74h-194v127h213q57 267 263 415t523 148q244 0 422.5 -100t265.5 -259l-247 -129q-141 238 -447 238q-179 0 -300 -81.5t-171 -231.5h692v-127
h-717q-4 -50 -4 -74t4 -74h717v-127h-692q50 -150 171 -231.5t300 -81.5z" />
    <glyph glyph-name="uni2113" unicode="&#x2113;" horiz-adv-x="1218" 
d="M743 176q132 0 215 141l160 -137q-55 -107 -161.5 -164t-233.5 -57q-79 0 -150 22.5t-131 68t-96 124.5t-37 182q-38 -16 -105.5 -41t-84.5 -32l-62 174q236 95 252 102v594q0 105 36 185t97 126t132 69t149 23q62 0 119.5 -13.5t112 -45t94.5 -77.5t64 -115.5t24 -155.5
q0 -194 -113.5 -353t-359.5 -284q-64 -33 -101 -49v-84q0 -106 51 -154.5t129 -48.5zM563 1137v-465q25 11 68 35q252 145 252 430q0 107 -44.5 154.5t-115.5 47.5t-115.5 -47.5t-44.5 -154.5z" />
    <glyph glyph-name="uni2117" unicode="&#x2117;" horiz-adv-x="2013" 
d="M1008 -45q-275 0 -481.5 94.5t-316.5 267t-110 400.5t110 400.5t316.5 267t481.5 94.5q413 0 659 -208.5t246 -553.5t-246 -553.5t-659 -208.5zM1008 39q241 0 423.5 78.5t285 233t102.5 366.5t-102.5 366.5t-285 233t-423.5 78.5q-242 0 -425.5 -78.5t-288 -233
t-104.5 -366.5t104.5 -366.5t288 -233t425.5 -78.5zM1178 1210q201 0 327.5 -87t126.5 -251q0 -110 -61 -187.5t-161.5 -113.5t-231.5 -36h-408v-308h-254v983h662zM1153 707q223 0 223 159q0 162 -223 162h-383v-321h383z" />
    <glyph glyph-name="trademark" unicode="&#x2122;" horiz-adv-x="1986" 
d="M821 1434v-152h-280v-549h-183v549h-280v152h743zM1636 1434h185v-701h-176v467l-275 -358h-6l-272 358v-467h-177v701h189l264 -357z" />
    <glyph glyph-name="estimated" unicode="&#x212e;" horiz-adv-x="1921" 
d="M553 651v-432q169 -96 418 -96q421 0 651 258l125 -129q-279 -299 -776 -299q-260 0 -456 90.5t-305.5 264.5t-109.5 409t109.5 409t305.5 264.5t456 90.5q262 0 456 -95t303 -283.5t113 -451.5h-1290zM1382 1210q-163 103 -411 103q-249 0 -418 -96v-406h829v399z" />
    <glyph glyph-name="oneeighth" unicode="&#x215b;" horiz-adv-x="2222" 
d="M285 588v618q-89 -64 -242 -88v170q75 10 154 50.5t139 95.5h153v-846h-204zM567 0h-227l920 1434h229zM1915 449q105 -17 172 -70.5t67 -147.5q0 -117 -127.5 -187.5t-332.5 -70.5t-333 70.5t-128 187.5q0 94 66 147.5t169 70.5q-92 8 -148 61t-56 135q0 74 61 127
t156.5 77.5t212.5 24.5t212.5 -24.5t156.5 -77.5t61 -127q0 -81 -57.5 -134.5t-151.5 -61.5zM1473 618q0 -106 223 -106q219 0 219 106q0 54 -62.5 80.5t-156.5 26.5q-97 0 -160 -26.5t-63 -80.5zM1692 123q107 0 177 33.5t70 95.5q0 66 -68 96.5t-179 30.5t-178.5 -30.5
t-67.5 -96.5q0 -62 69.5 -95.5t176.5 -33.5z" />
    <glyph glyph-name="threeeighths" unicode="&#x215c;" horiz-adv-x="2555" 
d="M186 854q107 -129 293 -129q61 0 111 11.5t84.5 40t34.5 71.5q0 108 -236 108h-121v146h121q209 0 209 98t-211 98q-166 0 -270 -118l-133 92q58 88 171 138t250 50q78 0 149 -14t129 -41.5t92 -73t34 -102.5q0 -78 -56 -133t-143 -64q98 -15 165 -66.5t67 -140.5
q0 -122 -123 -192t-314 -70q-144 0 -261.5 54.5t-180.5 150.5zM909 0h-227l920 1434h229zM2249 449q105 -17 172 -70.5t67 -147.5q0 -117 -127.5 -187.5t-332.5 -70.5t-333 70.5t-128 187.5q0 94 66 147.5t169 70.5q-93 8 -149 61.5t-56 134.5q0 74 61.5 127t157 77.5
t212.5 24.5t212.5 -24.5t156.5 -77.5t61 -127q0 -81 -57.5 -134.5t-151.5 -61.5zM1806 618q0 -106 224 -106q219 0 219 106q0 54 -62.5 80.5t-156.5 26.5q-97 0 -160.5 -26.5t-63.5 -80.5zM2025 123q107 0 177.5 33.5t70.5 95.5q0 66 -68.5 96.5t-179.5 30.5
q-110 0 -177.5 -30.5t-67.5 -96.5q0 -62 69 -95.5t176 -33.5z" />
    <glyph glyph-name="fiveeighths" unicode="&#x215d;" horiz-adv-x="2545" 
d="M152 850q138 -119 344 -119q107 0 169 32t62 97q0 66 -61 97.5t-168 31.5q-150 0 -271 -59l-145 55l76 449h696v-160h-547l-33 -211q127 80 293 80q101 0 182.5 -30t134 -96t52.5 -157q0 -132 -108.5 -215.5t-321.5 -83.5q-261 0 -459 162zM899 0h-227l919 1434h230z
M2238 449q105 -17 172.5 -70.5t67.5 -147.5q0 -117 -128 -187.5t-333 -70.5t-333 70.5t-128 187.5q0 94 66.5 147.5t169.5 70.5q-93 8 -149 61.5t-56 134.5q0 74 61 127t156.5 77.5t212.5 24.5t212.5 -24.5t156.5 -77.5t61 -127q0 -81 -57.5 -134.5t-151.5 -61.5zM1796 618
q0 -106 223 -106q219 0 219 106q0 54 -62.5 80.5t-156.5 26.5q-97 0 -160 -26.5t-63 -80.5zM2015 123q107 0 177.5 33.5t70.5 95.5q0 66 -68.5 96.5t-179.5 30.5t-178.5 -30.5t-67.5 -96.5q0 -62 69.5 -95.5t176.5 -33.5z" />
    <glyph glyph-name="seveneighths" unicode="&#x215e;" horiz-adv-x="2275" 
d="M203 588l424 676h-592v170h842v-134l-443 -712h-231zM629 0h-228l920 1434h229zM1968 449q105 -17 172.5 -70.5t67.5 -147.5q0 -117 -128 -187.5t-333 -70.5t-333 70.5t-128 187.5q0 94 66.5 147.5t169.5 70.5q-93 8 -149 61.5t-56 134.5q0 74 61 127t156.5 77.5
t212.5 24.5t212.5 -24.5t156.5 -77.5t61 -127q0 -81 -57.5 -134.5t-151.5 -61.5zM1526 618q0 -106 223 -106q219 0 219 106q0 54 -62.5 80.5t-156.5 26.5q-97 0 -160 -26.5t-63 -80.5zM1745 123q107 0 177.5 33.5t70.5 95.5q0 66 -68.5 96.5t-179.5 30.5t-178.5 -30.5
t-67.5 -96.5q0 -62 69.5 -95.5t176.5 -33.5z" />
    <glyph glyph-name="arrowleft" unicode="&#x2190;" horiz-adv-x="1974" 
d="M1765 838v-277h-1142l440 -430l-164 -164l-731 731l731 732l164 -164l-438 -428h1140z" />
    <glyph glyph-name="arrowup" unicode="&#x2191;" horiz-adv-x="1974" 
d="M1718 784l-164 -163l-430 440v-1143h-276v1141l-428 -438l-164 163l731 732z" />
    <glyph glyph-name="arrowright" unicode="&#x2192;" horiz-adv-x="1974" 
d="M1075 1430l731 -732l-731 -731l-164 164l441 430h-1143v277h1141l-439 428z" />
    <glyph glyph-name="arrowdown" unicode="&#x2193;" horiz-adv-x="1974" 
d="M1554 813l164 -164l-731 -731l-731 731l164 164l428 -438v1141h276v-1143z" />
    <glyph glyph-name="uni2196" unicode="&#x2196;" horiz-adv-x="1974" 
d="M1651 279l-189 -187l-805 805v-614h-231v1034h1034v-232h-618z" />
    <glyph glyph-name="uni2197" unicode="&#x2197;" horiz-adv-x="1974" 
d="M514 1317h1034v-1034h-231v614l-805 -805l-188 187l809 806h-619v232z" />
    <glyph glyph-name="uni2198" unicode="&#x2198;" horiz-adv-x="1974" 
d="M1317 1157h231v-1034h-1034v231h619l-809 807l188 187l805 -805v614z" />
    <glyph glyph-name="uni2199" unicode="&#x2199;" horiz-adv-x="1974" 
d="M1651 1161l-809 -807h618v-231h-1034v1034h231v-614l805 805z" />
    <glyph glyph-name="partialdiff" unicode="&#x2202;" horiz-adv-x="1624" 
d="M1534 645q0 -179 -51 -313t-146.5 -216.5t-226 -122.5t-297.5 -40q-333 0 -528 149.5t-195 419.5q0 132 51 238.5t136.5 172.5t191 101t219.5 35q80 0 153.5 -10t153.5 -35.5t143.5 -78t96.5 -128.5q-64 190 -296.5 324t-543.5 162l45 251q170 -19 317.5 -60.5t257 -97
t198.5 -126t148 -146t98.5 -158.5t57 -162.5t17.5 -158.5zM809 197q90 0 166 19.5t134 58t91 102t33 145.5q0 160 -118.5 243t-305.5 83q-119 0 -211.5 -34t-150.5 -109t-58 -183q0 -82 33 -145.5t91 -102t132.5 -58t163.5 -19.5z" />
    <glyph glyph-name="emptyset" unicode="&#x2205;" horiz-adv-x="1622" 
d="M1348 1133q151 -154 151 -404q0 -275 -183.5 -433.5t-504.5 -158.5q-222 0 -381 78l-180 -182l-129 125l162 159q-158 158 -158 412q0 276 182.5 434t503.5 158q231 0 393 -84l164 164l129 -121zM424 729q0 -130 59 -213l295 291l234 235q-79 39 -201 39
q-181 0 -284 -91.5t-103 -260.5zM811 379q181 0 283 90.5t102 259.5q0 123 -53 203l-250 -248l-270 -272q79 -33 188 -33z" />
    <glyph glyph-name="product" unicode="&#x220f;" horiz-adv-x="1742" 
d="M1550 1434v-1680h-297v1413h-764v-1413h-296v1680h1357z" />
    <glyph glyph-name="summation" unicode="&#x2211;" horiz-adv-x="1476" 
d="M1374 1190h-846l635 -516v-137l-641 -539h858v-244h-1298v209l766 641l-760 621v209h1286v-244z" />
    <glyph glyph-name="minus" unicode="&#x2212;" horiz-adv-x="1507" 
d="M1358 494h-1208v249h1208v-249z" />
    <glyph glyph-name="radical" unicode="&#x221a;" horiz-adv-x="1542" 
d="M1255 1434h291l-663 -1680h-252l-361 805h-233v232h313h115l283 -654z" />
    <glyph glyph-name="infinity" unicode="&#x221e;" horiz-adv-x="2121" 
d="M1534 1038q211 0 344 -120t133 -318t-133 -318t-344 -120q-105 0 -196.5 37t-152 88t-124.5 127q-98 -118 -210.5 -185t-264.5 -67q-211 0 -345.5 120.5t-134.5 317.5t134.5 317.5t345.5 120.5q152 0 264.5 -67t210.5 -185q64 76 124.5 127t152 88t196.5 37zM592 377
q94 0 168.5 57t157.5 166q-83 109 -157.5 166t-168.5 57q-103 0 -172.5 -61.5t-69.5 -161.5t69.5 -161.5t172.5 -61.5zM1528 377q102 0 170.5 61t68.5 162t-68.5 162t-170.5 61q-94 0 -168.5 -57.5t-155.5 -165.5q81 -108 155.5 -165.5t168.5 -57.5z" />
    <glyph glyph-name="integral" unicode="&#x222b;" horiz-adv-x="901" 
d="M682 1556q125 0 213 -40l-41 -201q-42 10 -70 10q-84 0 -133 -44.5t-49 -127.5v-952v-164q0 -169 -108 -267t-277 -98q-123 0 -213 41l43 201q42 -10 70 -10q82 0 131 45t49 129v950v164q0 168 109 266t276 98z" />
    <glyph glyph-name="approxequal" unicode="&#x2248;" horiz-adv-x="1507" 
d="M1210 1036l152 -186q-52 -65 -142.5 -111.5t-193.5 -46.5q-62 0 -134.5 17.5t-128 39t-129 39t-136.5 17.5q-69 0 -114 -23.5t-89 -70.5l-148 184q51 65 141 112.5t195 47.5q61 0 133 -17.5t128 -39t130 -39t138 -17.5q69 0 113 23.5t85 70.5zM1210 528l152 -186
q-52 -65 -142.5 -111.5t-193.5 -46.5q-62 0 -134.5 17.5t-128 39t-129 39t-136.5 17.5q-69 0 -114 -23.5t-89 -70.5l-148 184q51 65 141 112.5t195 47.5q61 0 133 -17.5t128 -39t130 -39t138 -17.5q69 0 113 23.5t85 70.5z" />
    <glyph glyph-name="notequal" unicode="&#x2260;" horiz-adv-x="1507" 
d="M1358 766h-426l-129 -266h555v-250h-676l-107 -217h-235l106 217h-296v250h417l131 266h-548v250h671l107 219h233l-106 -219h303v-250z" />
    <glyph glyph-name="lessequal" unicode="&#x2264;" horiz-adv-x="1507" 
d="M1296 1307l-1112 -359v-243l1112 -361v229l-819 254l819 250v230zM184 29v213h1112v-213h-1112z" />
    <glyph glyph-name="greaterequal" unicode="&#x2265;" horiz-adv-x="1507" 
d="M211 1307v-230l819 -250l-819 -254v-229l1112 361v243zM1323 29h-1112v213h1112v-213z" />
    <glyph glyph-name="lozenge" unicode="&#x25ca;" horiz-adv-x="1560" 
d="M940 1434l555 -705l-555 -729h-322l-555 729l555 705h322zM780 213l389 516l-389 500l-391 -500z" />
    <glyph glyph-name="germandbls.case" horiz-adv-x="1808" 
d="M741 252q153 -45 301 -45q342 0 342 217q0 221 -342 221h-217v215h158q158 0 242 50t84 147q0 190 -353 190q-217 0 -338.5 -99.5t-121.5 -281.5v-866h-328v834q0 293 208 469t578 176q189 0 342 -44t246.5 -134t93.5 -211q0 -126 -93 -212.5t-255 -105.5
q89 -6 165.5 -31.5t137 -70t95 -114t34.5 -155.5q0 -190 -165 -310t-431 -120q-110 0 -226.5 16.5t-199.5 41.5z" />
    <glyph glyph-name="a.ss01" horiz-adv-x="1671" 
d="M698 1169q165 0 291.5 -62.5t200.5 -162.5v184h317v-1128h-317v182q-74 -100 -200.5 -162.5t-291.5 -62.5q-178 0 -316 74t-215 212t-77 320t77 320t215 212t316 74zM778 221q269 0 410 185v315q-140 184 -410 184q-185 0 -285 -88.5t-100 -253.5t100 -253.5t285 -88.5z
" />
    <glyph glyph-name="aacute.ss01" horiz-adv-x="1671" 
d="M1356 1622l-475 -330h-246l301 330h420zM698 1169q165 0 291.5 -62.5t200.5 -162.5v184h317v-1128h-317v182q-74 -100 -200.5 -162.5t-291.5 -62.5q-178 0 -316 74t-215 212t-77 320t77 320t215 212t316 74zM778 221q269 0 410 185v315q-140 184 -410 184
q-185 0 -285 -88.5t-100 -253.5t100 -253.5t285 -88.5z" />
    <glyph glyph-name="abreve.ss01" horiz-adv-x="1671" 
d="M1241 1622q0 -40 -11.5 -84t-40.5 -91t-72 -84t-112 -61t-153 -24q-85 0 -154.5 24t-112 61t-72 84t-41 91t-11.5 84h205q5 -64 54 -111t132 -47q81 0 130 47t54 111h205zM698 1169q165 0 291.5 -62.5t200.5 -162.5v184h317v-1128h-317v182q-74 -100 -200.5 -162.5
t-291.5 -62.5q-178 0 -316 74t-215 212t-77 320t77 320t215 212t316 74zM778 221q269 0 410 185v315q-140 184 -410 184q-185 0 -285 -88.5t-100 -253.5t100 -253.5t285 -88.5z" />
    <glyph glyph-name="acircumflex.ss01" horiz-adv-x="1671" 
d="M371 1292h295l182 193l186 -193h297l-313 330h-334zM698 1169q165 0 291.5 -62.5t200.5 -162.5v184h317v-1128h-317v182q-74 -100 -200.5 -162.5t-291.5 -62.5q-178 0 -316 74t-215 212t-77 320t77 320t215 212t316 74zM778 221q269 0 410 185v315q-140 184 -410 184
q-185 0 -285 -88.5t-100 -253.5t100 -253.5t285 -88.5z" />
    <glyph glyph-name="adieresis.ss01" horiz-adv-x="1671" 
d="M571 1300q-70 0 -115.5 40t-45.5 100q0 62 45 100.5t116 38.5q70 0 116 -38.5t46 -100.5q0 -60 -46.5 -100t-115.5 -40zM1130 1300q-70 0 -115.5 40t-45.5 100q0 62 45 100.5t116 38.5q70 0 116 -38.5t46 -100.5q0 -60 -46.5 -100t-115.5 -40zM698 1169
q165 0 291.5 -62.5t200.5 -162.5v184h317v-1128h-317v182q-74 -100 -200.5 -162.5t-291.5 -62.5q-178 0 -316 74t-215 212t-77 320t77 320t215 212t316 74zM778 221q269 0 410 185v315q-140 184 -410 184q-185 0 -285 -88.5t-100 -253.5t100 -253.5t285 -88.5z" />
    <glyph glyph-name="agrave.ss01" horiz-adv-x="1671" 
d="M346 1622h420l301 -330h-246zM698 1169q165 0 291.5 -62.5t200.5 -162.5v184h317v-1128h-317v182q-74 -100 -200.5 -162.5t-291.5 -62.5q-178 0 -316 74t-215 212t-77 320t77 320t215 212t316 74zM778 221q269 0 410 185v315q-140 184 -410 184q-185 0 -285 -88.5
t-100 -253.5t100 -253.5t285 -88.5z" />
    <glyph glyph-name="amacron.ss01" horiz-adv-x="1671" 
d="M403 1554h893v-225h-893v225zM698 1169q165 0 291.5 -62.5t200.5 -162.5v184h317v-1128h-317v182q-74 -100 -200.5 -162.5t-291.5 -62.5q-178 0 -316 74t-215 212t-77 320t77 320t215 212t316 74zM778 221q269 0 410 185v315q-140 184 -410 184q-185 0 -285 -88.5
t-100 -253.5t100 -253.5t285 -88.5z" />
    <glyph glyph-name="aogonek.ss01" horiz-adv-x="1671" 
d="M1563 -330l57 -73q-38 -45 -104 -77t-162 -32q-81 0 -148.5 23.5t-113 77.5t-45.5 130q0 93 61.5 168t173.5 113h-92v182q-74 -100 -200.5 -162.5t-291.5 -62.5q-178 0 -316 74t-215 212t-77 320t77 320t215 212t316 74q165 0 291.5 -62.5t200.5 -162.5v184h317v-1128
q-96 -36 -165.5 -107t-69.5 -151q0 -59 41 -92t104 -33q90 0 146 53zM1188 406v315q-140 184 -410 184q-185 0 -285 -88.5t-100 -253.5t100 -253.5t285 -88.5q269 0 410 185z" />
    <glyph glyph-name="aring.ss01" horiz-adv-x="1671" 
d="M850 1274q-138 0 -222.5 60.5t-84.5 174.5q0 113 85 176.5t222 63.5t223 -63.5t86 -176.5t-85 -174t-224 -61zM727 1509q0 -53 33.5 -82.5t89.5 -29.5q57 0 91 29.5t34 82.5q0 52 -34.5 81.5t-90.5 29.5t-89.5 -29.5t-33.5 -81.5zM698 1169q165 0 291.5 -62.5
t200.5 -162.5v184h317v-1128h-317v182q-74 -100 -200.5 -162.5t-291.5 -62.5q-178 0 -316 74t-215 212t-77 320t77 320t215 212t316 74zM778 221q269 0 410 185v315q-140 184 -410 184q-185 0 -285 -88.5t-100 -253.5t100 -253.5t285 -88.5z" />
    <glyph glyph-name="aringacute.ss01" horiz-adv-x="1671" 
d="M850 1274q-138 0 -222.5 60.5t-84.5 174.5q0 90 53 146l-6 2l229 272h316l-234 -182q117 -11 187.5 -73.5t70.5 -164.5q0 -113 -85 -174t-224 -61zM975 1509q0 52 -34.5 81.5t-90.5 29.5t-89.5 -29.5t-33.5 -81.5q0 -53 33.5 -82.5t89.5 -29.5q57 0 91 29.5t34 82.5z
M1190 1128h317v-1128h-317v182q-74 -100 -200.5 -162.5t-291.5 -62.5q-178 0 -316 74t-215 212t-77 320t77 320t215 212t316 74q165 0 291.5 -62.5t200.5 -162.5v184zM1188 406v315q-140 184 -410 184q-185 0 -285 -88.5t-100 -253.5t100 -253.5t285 -88.5q269 0 410 185z
" />
    <glyph glyph-name="atilde.ss01" horiz-adv-x="1671" 
d="M1266 1636l151 -186q-52 -65 -142.5 -111.5t-193.5 -46.5q-59 0 -121 17.5t-107 39t-104.5 39t-113.5 17.5q-69 0 -114 -23.5t-89 -70.5l-147 184q51 65 141 112.5t195 47.5q59 0 120.5 -17.5t105.5 -39t104 -39t116 -17.5q69 0 113.5 23.5t85.5 70.5zM698 1169
q165 0 291.5 -62.5t200.5 -162.5v184h317v-1128h-317v182q-74 -100 -200.5 -162.5t-291.5 -62.5q-178 0 -316 74t-215 212t-77 320t77 320t215 212t316 74zM778 221q269 0 410 185v315q-140 184 -410 184q-185 0 -285 -88.5t-100 -253.5t100 -253.5t285 -88.5z" />
    <glyph glyph-name="a.sc" horiz-adv-x="1746" 
d="M1389 0l-138 258h-757l-138 -258h-344l690 1251h347l688 -1251h-348zM618 496h508l-254 479z" />
    <glyph glyph-name="aacute.sc" horiz-adv-x="1746" 
d="M1380 1745l-475 -330h-246l302 330h419zM1389 0l-138 258h-757l-138 -258h-344l690 1251h347l688 -1251h-348zM618 496h508l-254 479z" />
    <glyph glyph-name="abreve.sc" horiz-adv-x="1746" 
d="M877 1401q-85 0 -154.5 24t-112.5 61t-72 84t-41 91t-12 84h205q5 -64 54.5 -111t132.5 -47q81 0 130 47t54 111h205q0 -40 -11.5 -84t-40.5 -91t-72 -84t-112 -61t-153 -24zM1389 0l-138 258h-757l-138 -258h-344l690 1251h347l688 -1251h-348zM618 496h508l-254 479z
" />
    <glyph glyph-name="acircumflex.sc" horiz-adv-x="1746" 
d="M872 1608l-182 -193h-295l314 330h333l314 -330h-297zM1389 0l-138 258h-757l-138 -258h-344l690 1251h347l688 -1251h-348zM618 496h508l-254 479z" />
    <glyph glyph-name="adieresis.sc" horiz-adv-x="1746" 
d="M596 1423q-70 0 -116 40t-46 100q0 62 45.5 100.5t116.5 38.5q70 0 116 -38.5t46 -100.5q0 -60 -46.5 -100t-115.5 -40zM1155 1423q-70 0 -116 40t-46 100q0 62 45.5 100.5t116.5 38.5q70 0 116 -38.5t46 -100.5q0 -60 -46.5 -100t-115.5 -40zM1389 0l-138 258h-757
l-138 -258h-344l690 1251h347l688 -1251h-348zM618 496h508l-254 479z" />
    <glyph glyph-name="agrave.sc" horiz-adv-x="1746" 
d="M1092 1415h-246l-475 330h420zM1389 0l-138 258h-757l-138 -258h-344l690 1251h347l688 -1251h-348zM618 496h508l-254 479z" />
    <glyph glyph-name="amacron.sc" horiz-adv-x="1746" 
d="M1321 1677v-225h-893v225h893zM1389 0l-138 258h-757l-138 -258h-344l690 1251h347l688 -1251h-348zM618 496h508l-254 479z" />
    <glyph glyph-name="aogonek.sc" horiz-adv-x="1746" 
d="M1790 -330l57 -73q-38 -45 -104 -77t-162 -32q-81 0 -148.5 23.5t-113 77.5t-45.5 130q0 93 61.5 168t173.5 113h-120l-138 258h-757l-138 -258h-344l690 1251h347l688 -1251h-2q-97 -37 -166.5 -107.5t-69.5 -150.5q0 -59 41.5 -92t104.5 -33q89 0 145 53zM618 496h508
l-254 479z" />
    <glyph glyph-name="aring.sc" horiz-adv-x="1746" 
d="M874 1397q-138 0 -222.5 60.5t-84.5 174.5q0 113 85 176.5t222 63.5t223.5 -63.5t86.5 -176.5t-85.5 -174t-224.5 -61zM874 1743q-56 0 -89 -29.5t-33 -81.5q0 -53 33 -82.5t89 -29.5q57 0 91 29.5t34 82.5q0 52 -34.5 81.5t-90.5 29.5zM1389 0l-138 258h-757l-138 -258
h-344l690 1251h347l688 -1251h-348zM618 496h508l-254 479z" />
    <glyph glyph-name="aringacute.sc" horiz-adv-x="1746" 
d="M874 1397q-138 0 -222.5 60.5t-84.5 174.5q0 103 74 168l213 252h315l-235 -184q113 -12 181.5 -74.5t68.5 -161.5q0 -113 -85.5 -174t-224.5 -61zM999 1632q0 52 -34.5 81.5t-90.5 29.5t-89 -29.5t-33 -81.5q0 -53 33 -82.5t89 -29.5q57 0 91 29.5t34 82.5zM1389 0
l-138 258h-757l-138 -258h-344l690 1251h347l688 -1251h-348zM618 496h508l-254 479z" />
    <glyph glyph-name="atilde.sc" horiz-adv-x="1746" 
d="M659 1528q-69 0 -113.5 -23.5t-88.5 -70.5l-148 184q51 65 141 112.5t195 47.5q59 0 120.5 -17.5t106 -39t104.5 -39t116 -17.5q69 0 113 23.5t85 70.5l152 -186q-52 -65 -142.5 -111.5t-193.5 -46.5q-59 0 -121.5 17.5t-107.5 39t-104.5 39t-113.5 17.5zM1389 0
l-138 258h-757l-138 -258h-344l690 1251h347l688 -1251h-348zM618 496h508l-254 479z" />
    <glyph glyph-name="ae.sc" horiz-adv-x="2682" 
d="M1550 262h1039v-262h-1358v256h-662l-225 -256h-367l1121 1251h168h1302v-260h-1018v-229h844v-256h-844v-244zM782 498h449v510z" />
    <glyph glyph-name="aeacute.sc" horiz-adv-x="2682" 
d="M2247 1745l-475 -330h-246l301 330h420zM1550 262h1039v-262h-1358v256h-662l-225 -256h-367l1121 1251h168h1302v-260h-1018v-229h844v-256h-844v-244zM782 498h449v510z" />
    <glyph glyph-name="b.sc" horiz-adv-x="1775" 
d="M1313 651q102 -6 183 -39.5t133 -102t52 -163.5q0 -163 -139 -254.5t-377 -91.5h-981v1251h908q238 0 376 -84.5t138 -234.5q0 -112 -80 -194.5t-213 -86.5zM500 1016v-256h538q125 0 187.5 27.5t62.5 99.5q0 71 -63 100t-187 29h-538zM1102 238q125 0 187.5 31t62.5 110
q0 81 -63 114t-187 33h-602v-288h602z" />
    <glyph glyph-name="c.sc" horiz-adv-x="1683" 
d="M920 231q139 0 234 45t179 148l293 -137q-91 -155 -276 -242.5t-437 -87.5q-245 0 -429 79.5t-285 231.5t-101 357q0 311 223.5 490t602.5 179q244 0 426 -88t272 -239l-293 -138q-84 100 -178 145.5t-231 45.5q-229 0 -362.5 -102t-133.5 -293q0 -189 133.5 -291.5
t362.5 -102.5z" />
    <glyph glyph-name="cacute.sc" horiz-adv-x="1683" 
d="M1405 1747l-475 -330h-246l301 330h420zM920 231q139 0 234 45t179 148l293 -137q-91 -155 -276 -242.5t-437 -87.5q-245 0 -429 79.5t-285 231.5t-101 357q0 311 223.5 490t602.5 179q244 0 426 -88t272 -239l-293 -138q-84 100 -178 145.5t-231 45.5
q-229 0 -362.5 -102t-133.5 -293q0 -189 133.5 -291.5t362.5 -102.5z" />
    <glyph glyph-name="ccaron.sc" horiz-adv-x="1683" 
d="M420 1747l313 -330h334l313 330h-295l-184 -193l-186 193h-295zM920 231q139 0 234 45t179 148l293 -137q-91 -155 -276 -242.5t-437 -87.5q-245 0 -429 79.5t-285 231.5t-101 357q0 311 223.5 490t602.5 179q244 0 426 -88t272 -239l-293 -138q-84 100 -178 145.5
t-231 45.5q-229 0 -362.5 -102t-133.5 -293q0 -189 133.5 -291.5t362.5 -102.5z" />
    <glyph glyph-name="ccedilla.sc" horiz-adv-x="1683" 
d="M920 231q139 0 234 45t179 148l293 -137q-91 -155 -276 -242.5t-437 -87.5q-245 0 -429 79.5t-285 231.5t-101 357q0 311 223.5 490t602.5 179q244 0 426 -88t272 -239l-293 -138q-84 100 -178 145.5t-231 45.5q-229 0 -362.5 -102t-133.5 -293q0 -189 133.5 -291.5
t362.5 -102.5zM1044 -117l-280 -329l-213 57l209 317z" />
    <glyph glyph-name="ccircumflex.sc" horiz-adv-x="1683" 
d="M420 1417h295l182 193l186 -193h297l-313 330h-334zM920 231q139 0 234 45t179 148l293 -137q-91 -155 -276 -242.5t-437 -87.5q-245 0 -429 79.5t-285 231.5t-101 357q0 311 223.5 490t602.5 179q244 0 426 -88t272 -239l-293 -138q-84 100 -178 145.5t-231 45.5
q-229 0 -362.5 -102t-133.5 -293q0 -189 133.5 -291.5t362.5 -102.5z" />
    <glyph glyph-name="cdotaccent.sc" horiz-adv-x="1683" 
d="M899 1425q-70 0 -113 35.5t-43 95.5q0 62 43 99t113 37t112 -36.5t42 -99.5q0 -60 -42.5 -95.5t-111.5 -35.5zM920 231q139 0 234 45t179 148l293 -137q-91 -155 -276 -242.5t-437 -87.5q-245 0 -429 79.5t-285 231.5t-101 357q0 311 223.5 490t602.5 179q244 0 426 -88
t272 -239l-293 -138q-84 100 -178 145.5t-231 45.5q-229 0 -362.5 -102t-133.5 -293q0 -189 133.5 -291.5t362.5 -102.5z" />
    <glyph glyph-name="d.sc" horiz-adv-x="1798" 
d="M887 1251q247 0 430.5 -74t283 -216t99.5 -336q0 -290 -219.5 -457.5t-593.5 -167.5h-703v1251h703zM862 270q236 0 374 90.5t138 264.5q0 176 -137.5 266t-374.5 90h-358v-711h358z" />
    <glyph glyph-name="eth.sc" horiz-adv-x="1839" 
d="M934 1251q375 0 591 -166t216 -460q0 -291 -216.5 -458t-590.5 -167h-709v541h-182v194h182v516h709zM903 268q236 0 373 90.5t137 266.5q0 178 -137 269t-373 91h-360v-250h368v-194h-368v-273h360z" />
    <glyph glyph-name="dcaron.sc" horiz-adv-x="1798" 
d="M391 1745l314 -330h333l314 330h-295l-185 -193l-186 193h-295zM887 1251q247 0 430.5 -74t283 -216t99.5 -336q0 -290 -219.5 -457.5t-593.5 -167.5h-703v1251h703zM862 270q236 0 374 90.5t138 264.5q0 176 -137.5 266t-374.5 90h-358v-711h358z" />
    <glyph glyph-name="dcroat.sc" horiz-adv-x="1839" 
d="M934 1251q375 0 591 -166t216 -460q0 -291 -216.5 -458t-590.5 -167h-709v541h-182v194h182v516h709zM903 268q236 0 373 90.5t137 266.5q0 178 -137 269t-373 91h-360v-250h368v-194h-368v-273h360z" />
    <glyph glyph-name="e.sc" 
d="M504 262h1038v-262h-1358v1251h1338v-262h-1018v-225h844v-258h-844v-244z" />
    <glyph glyph-name="eacute.sc" 
d="M1352 1745l-475 -330h-246l301 330h420zM504 262h1038v-262h-1358v1251h1338v-262h-1018v-225h844v-258h-844v-244z" />
    <glyph glyph-name="ebreve.sc" 
d="M1237 1745q0 -40 -11.5 -84t-40.5 -91t-72 -84t-112 -61t-153 -24q-85 0 -154.5 24t-112 61t-72 84t-41 91t-11.5 84h205q5 -64 54 -111t132 -47q81 0 130 47t54 111h205zM504 262h1038v-262h-1358v1251h1338v-262h-1018v-225h844v-258h-844v-244z" />
    <glyph glyph-name="ecaron.sc" 
d="M367 1745l313 -330h334l313 330h-295l-184 -193l-186 193h-295zM504 262h1038v-262h-1358v1251h1338v-262h-1018v-225h844v-258h-844v-244z" />
    <glyph glyph-name="ecircumflex.sc" 
d="M367 1415h295l182 193l186 -193h297l-313 330h-334zM504 262h1038v-262h-1358v1251h1338v-262h-1018v-225h844v-258h-844v-244z" />
    <glyph glyph-name="edieresis.sc" 
d="M567 1423q-70 0 -115.5 40t-45.5 100q0 62 45 100.5t116 38.5q70 0 116 -38.5t46 -100.5q0 -60 -46.5 -100t-115.5 -40zM1126 1423q-70 0 -115.5 40t-45.5 100q0 62 45 100.5t116 38.5q70 0 116 -38.5t46 -100.5q0 -60 -46.5 -100t-115.5 -40zM504 262h1038v-262h-1358
v1251h1338v-262h-1018v-225h844v-258h-844v-244z" />
    <glyph glyph-name="edotaccent.sc" 
d="M846 1423q-70 0 -113 35.5t-43 95.5q0 62 43 99t113 37q69 0 111 -36.5t42 -99.5q0 -60 -42 -95.5t-111 -35.5zM504 262h1038v-262h-1358v1251h1338v-262h-1018v-225h844v-258h-844v-244z" />
    <glyph glyph-name="egrave.sc" 
d="M342 1745h420l301 -330h-246zM504 262h1038v-262h-1358v1251h1338v-262h-1018v-225h844v-258h-844v-244z" />
    <glyph glyph-name="emacron.sc" 
d="M399 1677h893v-225h-893v225zM504 262h1038v-262h-1358v1251h1338v-262h-1018v-225h844v-258h-844v-244z" />
    <glyph glyph-name="eogonek.sc" 
d="M1593 -330l58 -73q-37 -45 -104 -77t-163 -32q-81 0 -148.5 23.5t-113 77.5t-45.5 130q0 92 62 167.5t174 113.5h-1129v1251h1338v-262h-1018v-225h844v-258h-844v-244h1038v-262h-4q-96 -36 -165.5 -107t-69.5 -151q0 -59 41 -92t104 -33q89 0 145 53z" />
    <glyph glyph-name="f.sc" horiz-adv-x="1572" 
d="M1518 985h-1012v-260h846v-266h-846v-459h-322v1251h1334v-266z" />
    <glyph glyph-name="fi.sc" horiz-adv-x="2263" 
d="M1518 985h-1012v-260h846v-266h-846v-459h-322v1251h1334v-266zM2079 0h-322v1251h322v-1251z" />
    <glyph glyph-name="fl.sc" horiz-adv-x="3037" 
d="M1518 985h-1012v-260h846v-266h-846v-459h-322v1251h1334v-266zM2079 270h911v-270h-1233v1251h322v-981z" />
    <glyph glyph-name="g.sc" horiz-adv-x="1796" 
d="M1692 700v-442q-100 -138 -294 -219.5t-450 -81.5q-397 0 -623.5 177.5t-226.5 490.5q0 314 226 491.5t622 177.5q429 0 690 -229l-262 -182q-148 145 -413 145q-259 0 -398 -103t-139 -300q0 -195 140 -299.5t397 -104.5q314 0 430 141v111h-476v227h777z" />
    <glyph glyph-name="gbreve.sc" horiz-adv-x="1796" 
d="M1331 1747q0 -40 -11.5 -84t-40.5 -91t-72 -84t-112 -61t-153 -24q-85 0 -154.5 24t-112 61t-72 84t-41 91t-11.5 84h205q5 -64 54 -111t132 -47q81 0 130 47t54 111h205zM1692 700v-442q-100 -138 -294 -219.5t-450 -81.5q-397 0 -623.5 177.5t-226.5 490.5
q0 314 226 491.5t622 177.5q429 0 690 -229l-262 -182q-148 145 -413 145q-259 0 -398 -103t-139 -300q0 -195 140 -299.5t397 -104.5q314 0 430 141v111h-476v227h777z" />
    <glyph glyph-name="gcircumflex.sc" horiz-adv-x="1796" 
d="M461 1417h295l182 193l186 -193h297l-313 330h-334zM1692 700v-442q-100 -138 -294 -219.5t-450 -81.5q-397 0 -623.5 177.5t-226.5 490.5q0 314 226 491.5t622 177.5q429 0 690 -229l-262 -182q-148 145 -413 145q-259 0 -398 -103t-139 -300q0 -195 140 -299.5
t397 -104.5q314 0 430 141v111h-476v227h777z" />
    <glyph glyph-name="gcommaaccent.sc" horiz-adv-x="1796" 
d="M1692 700v-442q-100 -138 -294 -219.5t-450 -81.5q-397 0 -623.5 177.5t-226.5 490.5q0 314 226 491.5t622 177.5q429 0 690 -229l-262 -182q-148 145 -413 145q-259 0 -398 -103t-139 -300q0 -195 140 -299.5t397 -104.5q314 0 430 141v111h-476v227h777zM942 -111
q90 0 145.5 -60.5t55.5 -150.5q0 -111 -68.5 -237.5t-193.5 -210.5l-72 90q75 67 115.5 122t54.5 118q-13 -13 -49 -13q-74 0 -126 49t-52 123q0 71 54 120.5t136 49.5z" />
    <glyph glyph-name="gdotaccent.sc" horiz-adv-x="1796" 
d="M940 1425q-70 0 -113 35.5t-43 95.5q0 62 43 99t113 37t112 -36.5t42 -99.5q0 -60 -42.5 -95.5t-111.5 -35.5zM1692 700v-442q-100 -138 -294 -219.5t-450 -81.5q-397 0 -623.5 177.5t-226.5 490.5q0 314 226 491.5t622 177.5q429 0 690 -229l-262 -182
q-148 145 -413 145q-259 0 -398 -103t-139 -300q0 -195 140 -299.5t397 -104.5q314 0 430 141v111h-476v227h777z" />
    <glyph glyph-name="h.sc" horiz-adv-x="1869" 
d="M1364 1251h322v-1251h-322v496h-858v-496h-322v1251h322v-475h858v475z" />
    <glyph glyph-name="hbar.sc" horiz-adv-x="1988" 
d="M1937 1053v-142h-194v-911h-322v496h-858v-496h-321v911h-195v142h195v198h321v-198h858v198h322v-198h194zM1421 776v135h-858v-135h858z" />
    <glyph glyph-name="hcircumflex.sc" horiz-adv-x="1869" 
d="M457 1417h295l182 193l186 -193h297l-313 330h-334zM1364 1251h322v-1251h-322v496h-858v-496h-322v1251h322v-475h858v475z" />
    <glyph glyph-name="i.sc" horiz-adv-x="690" 
d="M506 0h-322v1251h322v-1251z" />
    <glyph glyph-name="iacute.sc" horiz-adv-x="690" 
d="M850 1745l-475 -330h-246l301 330h420zM506 0h-322v1251h322v-1251z" />
    <glyph glyph-name="ibreve.sc" horiz-adv-x="690" 
d="M735 1745q0 -40 -11.5 -84t-40.5 -91t-72 -84t-112 -61t-153 -24q-85 0 -154.5 24t-112 61t-72 84t-41 91t-11.5 84h205q5 -64 54 -111t132 -47q81 0 130 47t54 111h205zM506 0h-322v1251h322v-1251z" />
    <glyph glyph-name="icircumflex.sc" horiz-adv-x="690" 
d="M-135 1415h295l182 193l186 -193h297l-313 330h-334zM506 0h-322v1251h322v-1251z" />
    <glyph glyph-name="idieresis.sc" horiz-adv-x="690" 
d="M66 1423q-70 0 -116 40t-46 100q0 62 45.5 100.5t116.5 38.5q70 0 115.5 -38.5t45.5 -100.5q0 -60 -46 -100t-115 -40zM625 1423q-70 0 -116 40t-46 100q0 62 45.5 100.5t116.5 38.5q70 0 115.5 -38.5t45.5 -100.5q0 -60 -46 -100t-115 -40zM506 0h-322v1251h322v-1251z
" />
    <glyph glyph-name="i.sc.loclTRK" horiz-adv-x="690" 
d="M344 1423q-70 0 -113 35.5t-43 95.5q0 62 43 99t113 37t112 -36.5t42 -99.5q0 -60 -42.5 -95.5t-111.5 -35.5zM506 0h-322v1251h322v-1251z" />
    <glyph glyph-name="igrave.sc" horiz-adv-x="690" 
d="M-160 1745h420l301 -330h-246zM506 0h-322v1251h322v-1251z" />
    <glyph glyph-name="ij.sc" horiz-adv-x="2070" 
d="M506 0h-322v1251h322v-1251zM936 367q58 -69 130 -102.5t185 -33.5q178 0 258 86.5t80 249.5v684h322v-708q0 -128 -41.5 -234t-121.5 -185t-207 -123t-290 -44q-368 0 -551 231z" />
    <glyph glyph-name="imacron.sc" horiz-adv-x="712" 
d="M-90 1860h893v-226h-893v226zM520 0h-327v1434h327v-1434z" />
    <glyph glyph-name="iogonek.sc" horiz-adv-x="712" 
d="M573 -330l58 -73q-38 -45 -104 -77t-162 -32q-81 0 -148.5 23.5t-113.5 77.5t-46 130q0 92 62 167.5t174 113.5h-100v1434h327v-1434h-2q-96 -36 -165.5 -107t-69.5 -151q0 -59 41 -92t104 -33q89 0 145 53z" />
    <glyph glyph-name="itilde.sc" horiz-adv-x="712" 
d="M772 1942l152 -187q-52 -65 -142.5 -111.5t-193.5 -46.5q-59 0 -121.5 17.5t-107.5 39t-104.5 39t-113.5 17.5q-69 0 -113.5 -23.5t-88.5 -70.5l-148 184q51 65 141 112.5t195 47.5q59 0 120.5 -17.5t105.5 -39t104 -39t116 -17.5q69 0 113.5 23.5t85.5 71.5zM520 0h-327
v1434h327v-1434z" />
    <glyph glyph-name="j.sc" horiz-adv-x="1380" 
d="M246 367q58 -69 130 -102.5t185 -33.5q178 0 258 86.5t80 249.5v684h322v-708q0 -128 -41.5 -234t-121.5 -185t-207 -123t-290 -44q-368 0 -551 231z" />
    <glyph glyph-name="jcircumflex.sc" horiz-adv-x="1380" 
d="M582 1415h295l182 193l186 -193h297l-313 330h-334zM246 367q58 -69 130 -102.5t185 -33.5q178 0 258 86.5t80 249.5v684h322v-708q0 -128 -41.5 -234t-121.5 -185t-207 -123t-290 -44q-368 0 -551 231z" />
    <glyph glyph-name="k.sc" horiz-adv-x="1703" 
d="M1319 0l-490 578l-323 -267v-311h-322v1251h322v-612l739 612h420l-596 -493l633 -758h-383z" />
    <glyph glyph-name="kcommaaccent.sc" horiz-adv-x="1703" 
d="M1069 758l633 -758h-383l-490 578l-323 -267v-311h-322v1251h322v-612l739 612h420zM887 -111q90 0 145 -60.5t55 -150.5q0 -111 -68.5 -237.5t-193.5 -210.5l-71 90q75 67 115.5 122t54.5 118q-13 -13 -50 -13q-74 0 -126 49t-52 123q0 71 54.5 120.5t136.5 49.5z" />
    <glyph glyph-name="l.sc" horiz-adv-x="1464" 
d="M506 270h911v-270h-1233v1251h322v-981z" />
    <glyph glyph-name="lacute.sc" horiz-adv-x="1464" 
d="M850 1745l-475 -330h-246l301 330h420zM506 270h911v-270h-1233v1251h322v-981z" />
    <glyph glyph-name="lcaron.sc" horiz-adv-x="1464" 
d="M969 1333q90 0 145 -60.5t55 -150.5q0 -111 -68.5 -237.5t-193.5 -210.5l-71 90q75 67 115.5 122t54.5 118q-13 -13 -50 -13q-74 0 -126 49t-52 123q0 71 54.5 120.5t136.5 49.5zM506 270h911v-270h-1233v1251h322v-981z" />
    <glyph glyph-name="lcommaaccent.sc" horiz-adv-x="1464" 
d="M506 270h911v-270h-1233v1251h322v-981zM805 -111q90 0 145.5 -60.5t55.5 -150.5q0 -111 -69 -237.5t-194 -210.5l-71 90q75 67 115.5 122t54.5 118q-13 -13 -49 -13q-75 0 -127 49t-52 123q0 71 54.5 120.5t136.5 49.5z" />
    <glyph glyph-name="ldot.sc" horiz-adv-x="1464" 
d="M506 254h911v-254h-1233v1251h322v-997zM920 588q-86 0 -140.5 48t-54.5 122q0 73 55 122.5t140 49.5q84 0 138 -49.5t54 -122.5q0 -74 -54 -122t-138 -48z" />
    <glyph glyph-name="lslash.sc" horiz-adv-x="1576" 
d="M618 270h912v-270h-1233v424l-215 -102v198l215 105v626h321v-473l379 183v-201l-379 -182v-308z" />
    <glyph glyph-name="m.sc" horiz-adv-x="2131" 
d="M1608 1251h340v-1251h-318v854l-559 -645h-16l-561 645v-854h-310v1251h348l537 -635z" />
    <glyph glyph-name="n.sc" horiz-adv-x="1869" 
d="M1374 1251h312v-1251h-281l-911 870v-870h-310v1251h340l850 -817v817z" />
    <glyph glyph-name="nacute.sc" horiz-adv-x="1869" 
d="M1442 1745l-475 -330h-246l301 330h420zM1374 1251h312v-1251h-281l-911 870v-870h-310v1251h340l850 -817v817z" />
    <glyph glyph-name="ncaron.sc" horiz-adv-x="1869" 
d="M457 1745l313 -330h334l313 330h-295l-184 -193l-186 193h-295zM1374 1251h312v-1251h-281l-911 870v-870h-310v1251h340l850 -817v817z" />
    <glyph glyph-name="ncommaaccent.sc" horiz-adv-x="1869" 
d="M1374 1251h312v-1251h-281l-911 870v-870h-310v1251h340l850 -817v817zM938 -111q90 0 145.5 -60.5t55.5 -150.5q0 -111 -68.5 -237.5t-193.5 -210.5l-72 90q75 67 115.5 122t54.5 118q-13 -13 -49 -13q-74 0 -126 49t-52 123q0 71 54 120.5t136 49.5z" />
    <glyph glyph-name="eng.sc" horiz-adv-x="1871" 
d="M1686 987h2v-975q0 -188 -114 -296.5t-302 -108.5q-134 0 -238 37l51 213q55 -19 119 -19q85 0 129.5 38t44.5 124v25l-884 845v-870h-310v1251h340l850 -817v817h312v-264z" />
    <glyph glyph-name="ntilde.sc" horiz-adv-x="1869" 
d="M1352 1759l151 -186q-52 -65 -142.5 -111.5t-193.5 -46.5q-59 0 -121 17.5t-107 39t-104.5 39t-113.5 17.5q-69 0 -114 -23.5t-89 -70.5l-147 184q51 65 141 112.5t195 47.5q59 0 120.5 -17.5t105.5 -39t104 -39t116 -17.5q69 0 113.5 23.5t85.5 70.5zM1374 1251h312
v-1251h-281l-911 870v-870h-310v1251h340l850 -817v817z" />
    <glyph glyph-name="o.sc" horiz-adv-x="1865" 
d="M934 -43q-255 0 -443.5 80t-290.5 231t-102 357q0 313 225 491t611 178t609.5 -178t223.5 -491q0 -311 -224 -489.5t-609 -178.5zM932 219q235 0 372.5 108t137.5 298q0 192 -137.5 299.5t-372.5 107.5q-237 0 -373.5 -107.5t-136.5 -299.5q0 -191 137 -298.5t373 -107.5
z" />
    <glyph glyph-name="oacute.sc" horiz-adv-x="1865" 
d="M1440 1745l-475 -330h-246l301 330h420zM934 -43q-255 0 -443.5 80t-290.5 231t-102 357q0 313 225 491t611 178t609.5 -178t223.5 -491q0 -311 -224 -489.5t-609 -178.5zM932 219q235 0 372.5 108t137.5 298q0 192 -137.5 299.5t-372.5 107.5q-237 0 -373.5 -107.5
t-136.5 -299.5q0 -191 137 -298.5t373 -107.5z" />
    <glyph glyph-name="obreve.sc" horiz-adv-x="1865" 
d="M1325 1745q0 -40 -11.5 -84t-40.5 -91t-72 -84t-112 -61t-153 -24q-85 0 -154.5 24t-112 61t-72 84t-41 91t-11.5 84h205q5 -64 54 -111t132 -47q81 0 130 47t54 111h205zM934 -43q-255 0 -443.5 80t-290.5 231t-102 357q0 313 225 491t611 178t609.5 -178t223.5 -491
q0 -311 -224 -489.5t-609 -178.5zM932 219q235 0 372.5 108t137.5 298q0 192 -137.5 299.5t-372.5 107.5q-237 0 -373.5 -107.5t-136.5 -299.5q0 -191 137 -298.5t373 -107.5z" />
    <glyph glyph-name="ocircumflex.sc" horiz-adv-x="1865" 
d="M455 1415h295l182 193l186 -193h297l-313 330h-334zM934 -43q-255 0 -443.5 80t-290.5 231t-102 357q0 313 225 491t611 178t609.5 -178t223.5 -491q0 -311 -224 -489.5t-609 -178.5zM932 219q235 0 372.5 108t137.5 298q0 192 -137.5 299.5t-372.5 107.5
q-237 0 -373.5 -107.5t-136.5 -299.5q0 -191 137 -298.5t373 -107.5z" />
    <glyph glyph-name="odieresis.sc" horiz-adv-x="1865" 
d="M655 1423q-70 0 -115.5 40t-45.5 100q0 62 45 100.5t116 38.5q70 0 116 -38.5t46 -100.5q0 -60 -46.5 -100t-115.5 -40zM1214 1423q-70 0 -115.5 40t-45.5 100q0 62 45 100.5t116 38.5q70 0 116 -38.5t46 -100.5q0 -60 -46.5 -100t-115.5 -40zM934 -43q-255 0 -443.5 80
t-290.5 231t-102 357q0 313 225 491t611 178t609.5 -178t223.5 -491q0 -311 -224 -489.5t-609 -178.5zM932 219q235 0 372.5 108t137.5 298q0 192 -137.5 299.5t-372.5 107.5q-237 0 -373.5 -107.5t-136.5 -299.5q0 -191 137 -298.5t373 -107.5z" />
    <glyph glyph-name="ograve.sc" horiz-adv-x="1865" 
d="M430 1745h420l301 -330h-246zM934 -43q-255 0 -443.5 80t-290.5 231t-102 357q0 313 225 491t611 178t609.5 -178t223.5 -491q0 -311 -224 -489.5t-609 -178.5zM932 219q235 0 372.5 108t137.5 298q0 192 -137.5 299.5t-372.5 107.5q-237 0 -373.5 -107.5t-136.5 -299.5
q0 -191 137 -298.5t373 -107.5z" />
    <glyph glyph-name="ohungarumlaut.sc" horiz-adv-x="1865" 
d="M1108 1745l-338 -330h-289l336 330h291zM1569 1745l-338 -330h-289l336 330h291zM934 -43q-255 0 -443.5 80t-290.5 231t-102 357q0 313 225 491t611 178t609.5 -178t223.5 -491q0 -311 -224 -489.5t-609 -178.5zM932 219q235 0 372.5 108t137.5 298q0 192 -137.5 299.5
t-372.5 107.5q-237 0 -373.5 -107.5t-136.5 -299.5q0 -191 137 -298.5t373 -107.5z" />
    <glyph glyph-name="omacron.sc" horiz-adv-x="1865" 
d="M487 1677h893v-225h-893v225zM934 -43q-255 0 -443.5 80t-290.5 231t-102 357q0 313 225 491t611 178t609.5 -178t223.5 -491q0 -311 -224 -489.5t-609 -178.5zM932 219q235 0 372.5 108t137.5 298q0 192 -137.5 299.5t-372.5 107.5q-237 0 -373.5 -107.5t-136.5 -299.5
q0 -191 137 -298.5t373 -107.5z" />
    <glyph glyph-name="oslash.sc" horiz-adv-x="1865" 
d="M1470 1167q143 -88 220 -225t77 -317q0 -311 -224 -489.5t-609 -178.5q-183 0 -332 41l-143 -193h-248l201 271q-151 86 -232.5 226.5t-81.5 322.5q0 313 225 491t611 178q190 0 348 -45l145 197h250zM422 625q0 -209 162 -318l524 707q-79 18 -176 18
q-237 0 -373.5 -107.5t-136.5 -299.5zM932 219q235 0 372.5 108t137.5 298q0 197 -148 307l-518 -699q66 -14 156 -14z" />
    <glyph glyph-name="oslashacute.sc" horiz-adv-x="1865" 
d="M1440 1745l-475 -330h-246l301 330h420zM1470 1167q143 -88 220 -225t77 -317q0 -311 -224 -489.5t-609 -178.5q-183 0 -332 41l-143 -193h-248l201 271q-151 86 -232.5 226.5t-81.5 322.5q0 313 225 491t611 178q190 0 348 -45l145 197h250zM422 625q0 -209 162 -318
l524 707q-79 18 -176 18q-237 0 -373.5 -107.5t-136.5 -299.5zM932 219q235 0 372.5 108t137.5 298q0 197 -148 307l-518 -699q66 -14 156 -14z" />
    <glyph glyph-name="otilde.sc" horiz-adv-x="1865" 
d="M1350 1759l151 -186q-52 -65 -142.5 -111.5t-193.5 -46.5q-59 0 -121 17.5t-107 39t-104.5 39t-113.5 17.5q-69 0 -114 -23.5t-89 -70.5l-147 184q51 65 141 112.5t195 47.5q59 0 120.5 -17.5t105.5 -39t104 -39t116 -17.5q69 0 113.5 23.5t85.5 70.5zM934 -43
q-255 0 -443.5 80t-290.5 231t-102 357q0 313 225 491t611 178t609.5 -178t223.5 -491q0 -311 -224 -489.5t-609 -178.5zM932 219q235 0 372.5 108t137.5 298q0 192 -137.5 299.5t-372.5 107.5q-237 0 -373.5 -107.5t-136.5 -299.5q0 -191 137 -298.5t373 -107.5z" />
    <glyph glyph-name="oe.sc" horiz-adv-x="2748" 
d="M1616 262h1038v-262h-1358h-387q-376 0 -593.5 167t-217.5 458q0 293 217 459.5t594 166.5h701h1024v-262h-1018v-225h844v-258h-844v-244zM1296 262v727h-362q-235 0 -371.5 -93.5t-136.5 -270.5q0 -175 137 -269t371 -94h362z" />
    <glyph glyph-name="p.sc" horiz-adv-x="1716" 
d="M1083 1251q259 0 413.5 -113t154.5 -319q0 -208 -154 -320t-414 -112h-577v-387h-322v1251h899zM1057 647q132 0 200 37t68 133t-68 133t-200 37h-553v-340h553z" />
    <glyph glyph-name="thorn.sc" horiz-adv-x="1716" 
d="M1073 1065q264 0 421 -110.5t157 -317.5t-157 -317.5t-421 -110.5h-567v-209h-322v1251h322v-186h567zM1044 469q140 0 210.5 37.5t70.5 130.5q0 97 -69.5 132.5t-211.5 35.5h-540v-336h540z" />
    <glyph glyph-name="q.sc" horiz-adv-x="1865" 
d="M1767 625q0 -321 -237 -500l176 -178l-160 -148l-217 219q-171 -61 -395 -61q-255 0 -443.5 80t-290.5 231t-102 357q0 313 225 491t611 178t609.5 -178t223.5 -491zM932 219q94 0 178 19l-176 178l160 147l223 -225q125 106 125 287q0 192 -137.5 299.5t-372.5 107.5
q-237 0 -373.5 -107.5t-136.5 -299.5q0 -191 137 -298.5t373 -107.5z" />
    <glyph glyph-name="r.sc" horiz-adv-x="1775" 
d="M1700 0h-387l-359 416h-450v-416h-320v1251h910q161 0 287 -46t202 -142t76 -229q0 -155 -94.5 -255.5t-255.5 -138.5zM500 674h565q132 0 200 33.5t68 123.5q0 48 -19 80t-56.5 48.5t-83 23t-109.5 6.5h-565v-315z" />
    <glyph glyph-name="racute.sc" horiz-adv-x="1775" 
d="M1350 1745l-476 -330h-245l301 330h420zM1700 0h-387l-359 416h-450v-416h-320v1251h910q161 0 287 -46t202 -142t76 -229q0 -155 -94.5 -255.5t-255.5 -138.5zM500 674h565q132 0 200 33.5t68 123.5q0 48 -19 80t-56.5 48.5t-83 23t-109.5 6.5h-565v-315z" />
    <glyph glyph-name="rcaron.sc" horiz-adv-x="1775" 
d="M1012 1415h-334l-313 330h294l187 -193l184 193h295zM1700 0h-387l-359 416h-450v-416h-320v1251h910q161 0 287 -46t202 -142t76 -229q0 -155 -94.5 -255.5t-255.5 -138.5zM500 674h565q132 0 200 33.5t68 123.5q0 48 -19 80t-56.5 48.5t-83 23t-109.5 6.5h-565v-315z
" />
    <glyph glyph-name="rcommaaccent.sc" horiz-adv-x="1775" 
d="M1309 440l391 -440h-387l-359 416h-450v-416h-320v1251h910q161 0 287 -46t202 -142t76 -229q0 -155 -94.5 -255.5t-255.5 -138.5zM500 674h565q132 0 200 33.5t68 123.5q0 48 -19 80t-56.5 48.5t-83 23t-109.5 6.5h-565v-315zM883 -111q90 0 145 -60.5t55 -150.5
q0 -111 -68.5 -237.5t-193.5 -210.5l-71 90q75 67 115.5 122t54.5 118q-13 -13 -50 -13q-74 0 -126 49t-52 123q0 71 54.5 120.5t136.5 49.5z" />
    <glyph glyph-name="s.sc" horiz-adv-x="1660" 
d="M868 776q114 -11 199 -23t171 -32t144.5 -48t105.5 -67t70 -93.5t23 -123.5q0 -196 -184.5 -314t-524.5 -118q-247 0 -453.5 65.5t-352.5 186.5l182 192q238 -196 629 -196q190 0 287.5 39t97.5 112q0 69 -88 95.5t-334 52.5q-101 10 -184 23t-168.5 34t-149 50.5
t-115 68.5t-78 93t-26.5 120q0 124 96.5 216.5t257.5 138.5t363 46q204 0 379 -50t303 -144l-175 -189q-103 74 -227 105t-291 33q-73 0 -138 -7t-122 -21.5t-91 -41.5t-34 -64q0 -65 97.5 -90.5t330.5 -48.5z" />
    <glyph glyph-name="sacute.sc" horiz-adv-x="1660" 
d="M1343 1745l-475 -330h-245l301 330h419zM868 776q114 -11 199 -23t171 -32t144.5 -48t105.5 -67t70 -93.5t23 -123.5q0 -196 -184.5 -314t-524.5 -118q-247 0 -453.5 65.5t-352.5 186.5l182 192q238 -196 629 -196q190 0 287.5 39t97.5 112q0 69 -88 95.5t-334 52.5
q-101 10 -184 23t-168.5 34t-149 50.5t-115 68.5t-78 93t-26.5 120q0 124 96.5 216.5t257.5 138.5t363 46q204 0 379 -50t303 -144l-175 -189q-103 74 -227 105t-291 33q-73 0 -138 -7t-122 -21.5t-91 -41.5t-34 -64q0 -65 97.5 -90.5t330.5 -48.5z" />
    <glyph glyph-name="scaron.sc" horiz-adv-x="1660" 
d="M358 1745l314 -330h334l313 330h-295l-184 -193l-187 193h-295zM868 776q114 -11 199 -23t171 -32t144.5 -48t105.5 -67t70 -93.5t23 -123.5q0 -196 -184.5 -314t-524.5 -118q-247 0 -453.5 65.5t-352.5 186.5l182 192q238 -196 629 -196q190 0 287.5 39t97.5 112
q0 69 -88 95.5t-334 52.5q-101 10 -184 23t-168.5 34t-149 50.5t-115 68.5t-78 93t-26.5 120q0 124 96.5 216.5t257.5 138.5t363 46q204 0 379 -50t303 -144l-175 -189q-103 74 -227 105t-291 33q-73 0 -138 -7t-122 -21.5t-91 -41.5t-34 -64q0 -65 97.5 -90.5t330.5 -48.5z
" />
    <glyph glyph-name="scedilla.sc" horiz-adv-x="1660" 
d="M868 776q114 -11 199 -23t171 -32t144.5 -48t105.5 -67t70 -93.5t23 -123.5q0 -196 -184.5 -314t-524.5 -118q-247 0 -453.5 65.5t-352.5 186.5l182 192q238 -196 629 -196q190 0 287.5 39t97.5 112q0 69 -88 95.5t-334 52.5q-101 10 -184 23t-168.5 34t-149 50.5
t-115 68.5t-78 93t-26.5 120q0 124 96.5 216.5t257.5 138.5t363 46q204 0 379 -50t303 -144l-175 -189q-103 74 -227 105t-291 33q-73 0 -138 -7t-122 -21.5t-91 -41.5t-34 -64q0 -65 97.5 -90.5t330.5 -48.5zM993 -117l-280 -329l-213 57l209 317z" />
    <glyph glyph-name="scircumflex.sc" horiz-adv-x="1660" 
d="M358 1415h295l183 193l186 -193h297l-313 330h-334zM868 776q114 -11 199 -23t171 -32t144.5 -48t105.5 -67t70 -93.5t23 -123.5q0 -196 -184.5 -314t-524.5 -118q-247 0 -453.5 65.5t-352.5 186.5l182 192q238 -196 629 -196q190 0 287.5 39t97.5 112q0 69 -88 95.5
t-334 52.5q-101 10 -184 23t-168.5 34t-149 50.5t-115 68.5t-78 93t-26.5 120q0 124 96.5 216.5t257.5 138.5t363 46q204 0 379 -50t303 -144l-175 -189q-103 74 -227 105t-291 33q-73 0 -138 -7t-122 -21.5t-91 -41.5t-34 -64q0 -65 97.5 -90.5t330.5 -48.5z" />
    <glyph glyph-name="scommaaccent.sc" horiz-adv-x="1660" 
d="M868 776q114 -11 199 -23t171 -32t144.5 -48t105.5 -67t70 -93.5t23 -123.5q0 -196 -184.5 -314t-524.5 -118q-247 0 -453.5 65.5t-352.5 186.5l182 192q238 -196 629 -196q190 0 287.5 39t97.5 112q0 69 -88 95.5t-334 52.5q-101 10 -184 23t-168.5 34t-149 50.5
t-115 68.5t-78 93t-26.5 120q0 124 96.5 216.5t257.5 138.5t363 46q204 0 379 -50t303 -144l-175 -189q-103 74 -227 105t-291 33q-73 0 -138 -7t-122 -21.5t-91 -41.5t-34 -64q0 -65 97.5 -90.5t330.5 -48.5zM862 -111q90 0 145.5 -60.5t55.5 -150.5q0 -111 -68.5 -237.5
t-193.5 -210.5l-72 90q75 67 115.5 122t54.5 118q-13 -13 -49 -13q-74 0 -126 49t-52 123q0 71 54 120.5t136 49.5z" />
    <glyph glyph-name="germandbls.sc" horiz-adv-x="3321" 
d="M868 776q114 -11 199 -23t171 -32t144.5 -48t105.5 -67t70 -93.5t23 -123.5q0 -196 -184.5 -314t-524.5 -118q-247 0 -453.5 65.5t-352.5 186.5l182 192q238 -196 629 -196q190 0 287.5 39t97.5 112q0 69 -88 95.5t-334 52.5q-101 10 -184 23t-168.5 34t-149 50.5
t-115 68.5t-78 93t-26.5 120q0 124 96.5 216.5t257.5 138.5t363 46q204 0 379 -50t303 -144l-175 -189q-103 74 -227 105t-291 33q-73 0 -138 -7t-122 -21.5t-91 -41.5t-34 -64q0 -65 97.5 -90.5t330.5 -48.5zM2529 776q114 -11 199 -23t171 -32t144.5 -48t105.5 -67
t70 -93.5t23 -123.5q0 -196 -184.5 -314t-524.5 -118q-247 0 -454 65.5t-353 186.5l183 192q238 -196 628 -196q190 0 287.5 39t97.5 112q0 69 -87.5 95.5t-333.5 52.5q-101 10 -184 23t-168.5 34t-149 50.5t-115 68.5t-78 93t-26.5 120q0 124 96.5 216.5t257.5 138.5
t363 46q203 0 378 -50t303 -144l-174 -189q-103 74 -227 105t-291 33q-73 0 -138 -7t-122 -21.5t-91 -41.5t-34 -64q0 -65 97.5 -90.5t330.5 -48.5z" />
    <glyph glyph-name="t.sc" horiz-adv-x="1529" 
d="M1487 1251v-270h-561v-981h-320v981h-561v270h1442z" />
    <glyph glyph-name="tbar.sc" horiz-adv-x="1509" 
d="M1477 981h-562v-258h287v-223h-287v-500h-319v500h-287v223h287v258h-561v270h1442v-270z" />
    <glyph glyph-name="tcaron.sc" horiz-adv-x="1529" 
d="M289 1745l313 -330h334l313 330h-295l-184 -193l-186 193h-295zM1487 1251v-270h-561v-981h-320v981h-561v270h1442z" />
    <glyph glyph-name="uni0163.sc" horiz-adv-x="1529" 
d="M1487 1251v-270h-561v-981h-320v981h-561v270h1442zM903 -102l-280 -330l-213 57l208 318z" />
    <glyph glyph-name="u.sc" horiz-adv-x="1798" 
d="M1321 1251h317v-663q0 -287 -193 -459t-544 -172q-352 0 -546.5 172t-194.5 459v663h321v-639q0 -178 106.5 -277t313.5 -99q204 0 312 99.5t108 276.5v639z" />
    <glyph glyph-name="uacute.sc" horiz-adv-x="1798" 
d="M1407 1745l-475 -330h-246l301 330h420zM1321 1251h317v-663q0 -287 -193 -459t-544 -172q-352 0 -546.5 172t-194.5 459v663h321v-639q0 -178 106.5 -277t313.5 -99q204 0 312 99.5t108 276.5v639z" />
    <glyph glyph-name="ubreve.sc" horiz-adv-x="1798" 
d="M1292 1745q0 -40 -11.5 -84t-40.5 -91t-72 -84t-112 -61t-153 -24q-85 0 -154.5 24t-112 61t-72 84t-41 91t-11.5 84h205q5 -64 54 -111t132 -47q81 0 130 47t54 111h205zM1321 1251h317v-663q0 -287 -193 -459t-544 -172q-352 0 -546.5 172t-194.5 459v663h321v-639
q0 -178 106.5 -277t313.5 -99q204 0 312 99.5t108 276.5v639z" />
    <glyph glyph-name="ucircumflex.sc" horiz-adv-x="1798" 
d="M422 1415h295l182 193l186 -193h297l-313 330h-334zM1321 1251h317v-663q0 -287 -193 -459t-544 -172q-352 0 -546.5 172t-194.5 459v663h321v-639q0 -178 106.5 -277t313.5 -99q204 0 312 99.5t108 276.5v639z" />
    <glyph glyph-name="udieresis.sc" horiz-adv-x="1798" 
d="M623 1423q-70 0 -116 40t-46 100q0 62 45.5 100.5t116.5 38.5q70 0 115.5 -38.5t45.5 -100.5q0 -60 -46 -100t-115 -40zM1182 1423q-70 0 -116 40t-46 100q0 62 45.5 100.5t116.5 38.5q70 0 115.5 -38.5t45.5 -100.5q0 -60 -46 -100t-115 -40zM1321 1251h317v-663
q0 -287 -193 -459t-544 -172q-352 0 -546.5 172t-194.5 459v663h321v-639q0 -178 106.5 -277t313.5 -99q204 0 312 99.5t108 276.5v639z" />
    <glyph glyph-name="ugrave.sc" horiz-adv-x="1798" 
d="M397 1745h420l301 -330h-246zM1321 1251h317v-663q0 -287 -193 -459t-544 -172q-352 0 -546.5 172t-194.5 459v663h321v-639q0 -178 106.5 -277t313.5 -99q204 0 312 99.5t108 276.5v639z" />
    <glyph glyph-name="uhungarumlaut.sc" horiz-adv-x="1798" 
d="M1075 1745l-338 -330h-288l335 330h291zM1536 1745l-338 -330h-289l336 330h291zM1321 1251h317v-663q0 -287 -193 -459t-544 -172q-352 0 -546.5 172t-194.5 459v663h321v-639q0 -178 106.5 -277t313.5 -99q204 0 312 99.5t108 276.5v639z" />
    <glyph glyph-name="umacron.sc" horiz-adv-x="1798" 
d="M455 1677h893v-225h-893v225zM1321 1251h317v-663q0 -287 -193 -459t-544 -172q-352 0 -546.5 172t-194.5 459v663h321v-639q0 -178 106.5 -277t313.5 -99q204 0 312 99.5t108 276.5v639z" />
    <glyph glyph-name="uogonek.sc" horiz-adv-x="1798" 
d="M1321 1251h317v-663q0 -219 -113.5 -373.5t-326.5 -218.5q-94 -36 -160.5 -105.5t-66.5 -148.5q0 -59 41 -92t104 -33q90 0 146 53l57 -73q-38 -45 -104 -77t-162 -32q-81 0 -148.5 23.5t-113.5 77.5t-46 130q0 71 37 133.5t107 104.5q-346 3 -537.5 175t-191.5 456v663
h321v-639q0 -178 106.5 -277t313.5 -99q204 0 312 99.5t108 276.5v639z" />
    <glyph glyph-name="uring.sc" horiz-adv-x="1798" 
d="M901 1397q-138 0 -222.5 60.5t-84.5 174.5q0 113 85 176.5t222 63.5t223 -63.5t86 -176.5t-85 -174t-224 -61zM778 1632q0 -53 33.5 -82.5t89.5 -29.5q57 0 91 29.5t34 82.5q0 52 -34.5 81.5t-90.5 29.5t-89.5 -29.5t-33.5 -81.5zM1321 1251h317v-663q0 -287 -193 -459
t-544 -172q-352 0 -546.5 172t-194.5 459v663h321v-639q0 -178 106.5 -277t313.5 -99q204 0 312 99.5t108 276.5v639z" />
    <glyph glyph-name="utilde.sc" horiz-adv-x="1798" 
d="M1317 1759l151 -186q-53 -65 -142.5 -111.5t-192.5 -46.5q-59 0 -121.5 17.5t-107.5 39t-104.5 39t-113.5 17.5q-69 0 -114 -23.5t-89 -70.5l-147 184q51 65 141 112.5t195 47.5q59 0 120.5 -17.5t105.5 -39t104 -39t116 -17.5q69 0 113.5 23.5t85.5 70.5zM1321 1251h317
v-663q0 -287 -193 -459t-544 -172q-352 0 -546.5 172t-194.5 459v663h321v-639q0 -178 106.5 -277t313.5 -99q204 0 312 99.5t108 276.5v639z" />
    <glyph glyph-name="v.sc" horiz-adv-x="1667" 
d="M12 1251h353l471 -936l475 936h346l-653 -1251h-340z" />
    <glyph glyph-name="w.sc" horiz-adv-x="2340" 
d="M1976 1251h330l-477 -1251h-324l-334 909l-331 -909h-326l-475 1251h334l311 -901l336 901h309l336 -901z" />
    <glyph glyph-name="wacute.sc" horiz-adv-x="2340" 
d="M1679 1745l-475 -330h-246l302 330h419zM1976 1251h330l-477 -1251h-324l-334 909l-331 -909h-326l-475 1251h334l311 -901l336 901h309l336 -901z" />
    <glyph glyph-name="wcircumflex.sc" horiz-adv-x="2340" 
d="M694 1415h295l182 193l187 -193h297l-314 330h-333zM1976 1251h330l-477 -1251h-324l-334 909l-331 -909h-326l-475 1251h334l311 -901l336 901h309l336 -901z" />
    <glyph glyph-name="wdieresis.sc" horiz-adv-x="2340" 
d="M895 1423q-70 0 -116 40t-46 100q0 62 45.5 100.5t116.5 38.5q70 0 116 -38.5t46 -100.5q0 -60 -46.5 -100t-115.5 -40zM1454 1423q-70 0 -116 40t-46 100q0 62 45.5 100.5t116.5 38.5q70 0 116 -38.5t46 -100.5q0 -60 -46.5 -100t-115.5 -40zM1976 1251h330l-477 -1251
h-324l-334 909l-331 -909h-326l-475 1251h334l311 -901l336 901h309l336 -901z" />
    <glyph glyph-name="wgrave.sc" horiz-adv-x="2340" 
d="M670 1745h420l301 -330h-246zM1976 1251h330l-477 -1251h-324l-334 909l-331 -909h-326l-475 1251h334l311 -901l336 901h309l336 -901z" />
    <glyph glyph-name="x.sc" horiz-adv-x="1603" 
d="M1581 1251l-592 -612l600 -639h-389l-407 426l-406 -426h-371l598 635l-587 616h389l397 -413l395 413h373z" />
    <glyph glyph-name="y.sc" horiz-adv-x="1593" 
d="M12 1251h363l426 -569l418 569h362l-625 -825v-426h-319v426z" />
    <glyph glyph-name="yacute.sc" horiz-adv-x="1593" 
d="M1303 1745l-476 -330h-245l301 330h420zM12 1251h363l426 -569l418 569h362l-625 -825v-426h-319v426z" />
    <glyph glyph-name="ycircumflex.sc" horiz-adv-x="1593" 
d="M317 1415h295l183 193l186 -193h297l-313 330h-334zM12 1251h363l426 -569l418 569h362l-625 -825v-426h-319v426z" />
    <glyph glyph-name="ydieresis.sc" horiz-adv-x="1593" 
d="M518 1423q-70 0 -116 40t-46 100q0 62 45.5 100.5t116.5 38.5q70 0 116 -38.5t46 -100.5q0 -60 -46.5 -100t-115.5 -40zM1077 1423q-70 0 -116 40t-46 100q0 62 45.5 100.5t116.5 38.5q70 0 116 -38.5t46 -100.5q0 -60 -46.5 -100t-115.5 -40zM12 1251h363l426 -569
l418 569h362l-625 -825v-426h-319v426z" />
    <glyph glyph-name="ygrave.sc" horiz-adv-x="1593" 
d="M293 1745h420l301 -330h-246zM12 1251h363l426 -569l418 569h362l-625 -825v-426h-319v426z" />
    <glyph glyph-name="z.sc" 
d="M1516 1251v-209l-949 -784h977v-258h-1454v209l948 784h-915v258h1393z" />
    <glyph glyph-name="zacute.sc" 
d="M1350 1745l-476 -330h-245l301 330h420zM1516 1251v-209l-949 -784h977v-258h-1454v209l948 784h-915v258h1393z" />
    <glyph glyph-name="zcaron.sc" 
d="M365 1745l313 -330h334l313 330h-295l-184 -193l-187 193h-294zM1516 1251v-209l-949 -784h977v-258h-1454v209l948 784h-915v258h1393z" />
    <glyph glyph-name="zdotaccent.sc" 
d="M844 1423q-70 0 -113 35.5t-43 95.5q0 62 43 99t113 37q69 0 111 -36.5t42 -99.5q0 -60 -42 -95.5t-111 -35.5zM1516 1251v-209l-949 -784h977v-258h-1454v209l948 784h-915v258h1393z" />
    <glyph glyph-name="zero.osf" horiz-adv-x="1843" 
d="M922 -45q-246 0 -431 81.5t-288 238.5t-103 372q0 214 103.5 366.5t287 228t431.5 75.5q246 0 429.5 -75.5t287.5 -228t104 -366.5t-103.5 -371.5t-288 -239t-429.5 -81.5zM922 238q228 0 358.5 101t130.5 298q0 196 -130.5 296.5t-358.5 100.5t-358 -100.5t-130 -296.5
q0 -197 130 -298t358 -101z" />
    <glyph glyph-name="one.osf" horiz-adv-x="1019" 
d="M500 0v909q-158 -115 -434 -161v276q134 20 271.5 87.5t242.5 160.5h247v-1272h-327z" />
    <glyph glyph-name="two.osf" horiz-adv-x="1665" 
d="M109 1001q103 136 303.5 225t441.5 89q123 0 241.5 -25.5t218.5 -74t161 -128t61 -178.5q0 -66 -28.5 -122.5t-73 -99t-116.5 -82t-143 -68t-167 -60.5q-38 -12 -109.5 -34.5t-106 -34t-89 -30t-83.5 -31.5t-62 -29.5t-51.5 -32t-27.5 -31.5h1084v-254h-1483v143
q27 177 214 316t497 229q28 8 71 20t69.5 19.5t62.5 18.5t59 19.5t50 20.5t43 24.5t30.5 27.5t21 32t6.5 37q0 43 -32 75t-87 49t-116.5 24.5t-130.5 7.5q-160 0 -299 -58t-238 -167z" />
    <glyph glyph-name="three.osf" horiz-adv-x="1703" 
d="M315 285q76 -110 210.5 -169t314.5 -59q84 0 155.5 11t131.5 35t94 66t34 99q0 47 -23 81.5t-61.5 55.5t-97.5 34t-121 17.5t-143 4.5h-213v241h213q82 0 151.5 9.5t127.5 29.5t91 55.5t33 82.5q0 48 -33.5 83t-90.5 54t-121 28t-136 9q-177 0 -305.5 -59t-201.5 -160
l-238 157q117 150 308 237t437 87q193 0 352 -43t261 -135.5t102 -221.5t-99 -220.5t-245 -106.5q77 -12 144.5 -37t127 -65.5t94 -104.5t34.5 -143q0 -138 -101.5 -240t-270.5 -152.5t-382 -50.5q-260 0 -464.5 91t-328.5 249z" />
    <glyph glyph-name="four.osf" horiz-adv-x="1796" 
d="M1735 393v-254h-291v-301h-320v301h-1085v191l1114 942h291v-879h291zM473 393h653v555z" />
    <glyph glyph-name="five.osf" horiz-adv-x="1712" 
d="M268 289q92 -89 252 -155t357 -66q428 0 428 223q0 119 -119.5 176t-333.5 57q-248 0 -477 -94l-242 94l123 748h1235v-262h-987l-60 -367q239 131 527 131q105 0 202.5 -18.5t182.5 -57.5t148 -95.5t99.5 -137.5t36.5 -178q0 -103 -47.5 -191.5t-139.5 -156.5t-240 -107
t-336 -39q-251 0 -457 80.5t-352 224.5z" />
    <glyph glyph-name="six.osf" horiz-adv-x="1820" 
d="M1063 938q97 0 190 -16.5t181.5 -53.5t154.5 -90.5t106 -135t40 -179.5q0 -226 -205.5 -367t-562.5 -141q-403 0 -635 205.5t-232 556.5t232 556.5t635 205.5q471 0 723 -246l-195 -191q-192 183 -498 183q-562 0 -565 -502q109 101 278.5 158t352.5 57zM967 209
q203 0 320.5 64.5t117.5 191.5q0 235 -412 235q-144 0 -288.5 -48.5t-245.5 -137.5q93 -305 508 -305z" />
    <glyph glyph-name="seven.osf" horiz-adv-x="1562" 
d="M365 -162l776 1159h-1086v275h1485v-215l-801 -1219h-374z" />
    <glyph glyph-name="eight.osf" horiz-adv-x="1820" 
d="M1315 752q76 -11 145 -37t129 -68t95.5 -106.5t35.5 -143.5q0 -137 -103.5 -238t-286 -152.5t-421.5 -51.5t-421 51.5t-285 152.5t-103 238q0 79 35.5 143.5t95 106.5t129 68t146.5 37q-152 15 -251 102.5t-99 220.5q0 129 103 222t271 137.5t379 44.5t379.5 -44.5
t272.5 -137.5t104 -222q0 -133 -99.5 -220t-250.5 -103zM485 1044q0 -50 34 -88t94 -59.5t134 -32t162 -10.5q89 0 163 10.5t134.5 32t94.5 59.5t34 88t-34 88t-94.5 60t-135 32.5t-162.5 10.5t-162 -10.5t-134 -32.5t-94 -60t-34 -88zM909 199q103 0 186.5 12.5t148 37.5
t99.5 68t35 101q0 74 -62.5 123.5t-165.5 71.5t-241 22t-241 -22t-165.5 -71.5t-62.5 -123.5q0 -108 129 -163.5t340 -55.5z" />
    <glyph glyph-name="nine.osf" horiz-adv-x="1820" 
d="M854 1317q403 0 634.5 -205t231.5 -557t-231.5 -557t-634.5 -205q-471 0 -723 246l195 190q191 -182 497 -182q563 0 566 502q-109 -101 -278.5 -158t-352.5 -57q-97 0 -190 16.5t-181.5 53.5t-154.5 90.5t-106 135t-40 179.5q0 226 205.5 367t562.5 141zM416 807
q0 -236 411 -236q143 0 288.5 49t246.5 138q-93 305 -508 305q-203 0 -320.5 -64.5t-117.5 -191.5z" />
    <glyph glyph-name="zero.subs" horiz-adv-x="1130" 
d="M565 -264q-230 0 -362.5 119.5t-132.5 330.5t132.5 331t362.5 120q231 0 363.5 -119.5t132.5 -331.5q0 -211 -132.5 -330.5t-363.5 -119.5zM565 -88q134 0 209.5 71t75.5 203q0 131 -76 202t-209 71q-134 0 -210 -71t-76 -202q0 -132 76 -203t210 -71z" />
    <glyph glyph-name="one.subs" horiz-adv-x="614" 
d="M285 -240v621q-91 -69 -242 -92v172q76 10 155.5 50t137.5 95h153v-846h-204z" />
    <glyph glyph-name="two.subs" horiz-adv-x="978" 
d="M74 442q70 87 181.5 139t246.5 52q100 0 186 -26.5t145.5 -86.5t59.5 -143q0 -102 -80 -171.5t-225 -121.5q-68 -25 -105 -39.5t-81.5 -35.5t-68.5 -41t-34 -42h610v-166h-852v101q17 118 121 210.5t283 153.5q14 5 40 14.5t39 14.5t34.5 13.5t32.5 14.5t26 14.5t23 16
t16 17t11 20.5t3 23q0 49 -56.5 74.5t-137.5 25.5q-89 0 -161 -33.5t-136 -105.5z" />
    <glyph glyph-name="three.subs" horiz-adv-x="995" 
d="M186 27q107 -129 293 -129q62 0 111.5 11t84 39.5t34.5 71.5q0 109 -236 109h-121v145h121q209 0 209 99q0 98 -211 98q-166 0 -270 -119l-133 92q58 88 171 138.5t250 50.5q106 0 195 -24t149 -78.5t60 -129.5q0 -78 -56 -132.5t-143 -63.5q98 -15 165 -66.5t67 -140.5
q0 -122 -123 -192t-314 -70q-144 0 -261.5 54.5t-180.5 150.5z" />
    <glyph glyph-name="four.subs" horiz-adv-x="1046" 
d="M999 98v-155h-159v-183h-199v183h-606v116l620 547h185v-508h159zM293 98h346v295z" />
    <glyph glyph-name="five.subs" horiz-adv-x="991" 
d="M152 23q138 -119 344 -119q107 0 169 32t62 97q0 66 -61 97.5t-168 31.5q-148 0 -271 -60l-145 56l76 448h696v-160h-547l-33 -210q125 79 293 79q101 0 182.5 -30t134 -95.5t52.5 -156.5q0 -132 -108.5 -215.5t-321.5 -83.5q-261 0 -459 162z" />
    <glyph glyph-name="six.subs" horiz-adv-x="1058" 
d="M598 317q77 0 146 -15.5t127.5 -48t93 -88.5t34.5 -130q0 -134 -116 -217.5t-322 -83.5q-228 0 -359.5 120.5t-131.5 329.5t132 330t359 121q271 0 414 -143l-113 -117q-108 102 -278 102q-300 0 -305 -282q57 60 143.5 91t175.5 31zM561 -106q106 0 168 33.5t62 101.5
q0 141 -230 141q-74 0 -145.5 -25t-124.5 -71q47 -180 270 -180z" />
    <glyph glyph-name="seven.subs" horiz-adv-x="909" 
d="M203 -240l424 676h-592v170h842v-133l-443 -713h-231z" />
    <glyph glyph-name="eight.subs" horiz-adv-x="1056" 
d="M750 209q105 -17 172 -70t67 -147q0 -117 -128 -187.5t-333 -70.5t-332.5 70.5t-127.5 187.5q0 94 66 147t169 70q-92 8 -148.5 61.5t-56.5 135.5q0 74 61 127t156.5 77.5t212.5 24.5t212.5 -24.5t156.5 -77.5t61 -127q0 -82 -57 -135.5t-151 -61.5zM307 379
q0 -107 223 -107q220 0 220 107q0 36 -32 61t-79.5 35t-108.5 10q-97 0 -160 -26t-63 -80zM526 -117q107 0 177.5 33.5t70.5 95.5q0 66 -68.5 96.5t-179.5 30.5q-110 0 -177.5 -30.5t-67.5 -96.5q0 -62 69 -95.5t176 -33.5z" />
    <glyph glyph-name="nine.subs" horiz-adv-x="1058" 
d="M492 633q227 0 359 -121t132 -330t-131.5 -329.5t-359.5 -120.5q-271 0 -414 143l112 117q109 -103 279 -103q300 0 305 283q-57 -60 -144 -91.5t-175 -31.5q-61 0 -117.5 9.5t-109 31.5t-91 54t-61.5 80.5t-23 107.5q0 134 116.5 217.5t322.5 83.5zM262 338
q0 -141 230 -141q74 0 145.5 25t124.5 71q-47 180 -270 180q-106 0 -168 -33.5t-62 -101.5z" />
    <glyph glyph-name="zero.dnom" horiz-adv-x="1130" 
d="M565 -27q-230 0 -362.5 120t-132.5 331t132.5 330.5t362.5 119.5q231 0 363.5 -119.5t132.5 -330.5q0 -212 -132.5 -331.5t-363.5 -119.5zM565 150q134 0 209.5 71t75.5 203q0 131 -75.5 201.5t-209.5 70.5t-210 -71t-76 -201q0 -132 76 -203t210 -71z" />
    <glyph glyph-name="one.dnom" horiz-adv-x="614" 
d="M285 0v621q-93 -70 -242 -93v172q76 10 155 50.5t138 95.5h153v-846h-204z" />
    <glyph glyph-name="two.dnom" horiz-adv-x="978" 
d="M74 682q70 87 181.5 138.5t246.5 51.5q100 0 186 -26.5t145.5 -86.5t59.5 -143q0 -102 -79.5 -171t-225.5 -121q-68 -25 -105 -39.5t-81.5 -35.5t-68.5 -41t-34 -42h610v-166h-852v100q17 118 121.5 211.5t282.5 153.5q15 6 40 15t39 14t34.5 13.5t32 14t26.5 14t23 16
t16 17t11 20.5t3 23q0 49 -57 75t-137 26q-172 0 -297 -140z" />
    <glyph glyph-name="three.dnom" horiz-adv-x="995" 
d="M186 266q107 -129 293 -129q61 0 111 11.5t84.5 40t34.5 71.5q0 109 -236 109h-121v145h121q209 0 209 98q0 99 -211 99q-166 0 -270 -119l-133 92q58 88 171 138t250 50q78 0 149 -14t129 -41.5t92 -73t34 -102.5q0 -78 -56 -133t-143 -64q99 -15 165.5 -66t66.5 -140
q0 -82 -58.5 -142.5t-156.5 -90.5t-222 -30q-144 0 -261.5 54.5t-180.5 150.5z" />
    <glyph glyph-name="four.dnom" horiz-adv-x="1046" 
d="M999 338v-156h-159v-182h-199v182h-606v117l620 547h185v-508h159zM293 338h346v295z" />
    <glyph glyph-name="five.dnom" horiz-adv-x="991" 
d="M152 262q138 -119 344 -119q107 0 169 32t62 97q0 66 -61 97.5t-168 31.5q-150 0 -271 -59l-145 55l76 449h696v-160h-547l-33 -211q127 80 293 80q101 0 182.5 -30t134 -96t52.5 -157q0 -132 -108.5 -215.5t-321.5 -83.5q-261 0 -459 162z" />
    <glyph glyph-name="six.dnom" horiz-adv-x="1058" 
d="M598 557q77 0 146 -16t127.5 -48t93 -88.5t34.5 -130.5q0 -134 -116 -217.5t-322 -83.5q-227 0 -359 121t-132 330t131.5 329.5t359.5 120.5q271 0 414 -143l-113 -117q-109 103 -278 103q-300 0 -305 -283q57 60 144 91.5t175 31.5zM561 133q106 0 168 33.5t62 101.5
q0 142 -230 142q-73 0 -145 -25.5t-125 -71.5q47 -180 270 -180z" />
    <glyph glyph-name="seven.dnom" horiz-adv-x="909" 
d="M203 0l424 676h-592v170h842v-133l-443 -713h-231z" />
    <glyph glyph-name="eight.dnom" horiz-adv-x="1056" 
d="M750 449q105 -17 172 -70.5t67 -147.5q0 -117 -128 -187.5t-333 -70.5t-332.5 70.5t-127.5 187.5q0 94 66 147.5t169 70.5q-93 8 -149 61.5t-56 134.5q0 74 61 127t156.5 77.5t212.5 24.5t212.5 -24.5t156.5 -77.5t61 -127q0 -82 -57 -135t-151 -61zM307 618
q0 -106 223 -106q220 0 220 106q0 54 -63 80.5t-157 26.5q-97 0 -160 -26.5t-63 -80.5zM526 123q107 0 177.5 33.5t70.5 95.5q0 66 -68.5 96.5t-179.5 30.5q-110 0 -177.5 -30.5t-67.5 -96.5q0 -62 69 -95.5t176 -33.5z" />
    <glyph glyph-name="nine.dnom" horiz-adv-x="1058" 
d="M492 872q228 0 359.5 -120.5t131.5 -329.5t-132 -330t-359 -121q-270 0 -414 144l112 116q108 -102 279 -102q300 0 305 283q-57 -60 -144 -91.5t-175 -31.5q-77 0 -146.5 15.5t-128 48t-93 88.5t-34.5 130q0 134 116.5 217.5t322.5 83.5zM262 578q0 -142 230 -142
q74 0 145.5 25t124.5 71q-47 181 -270 181q-106 0 -168 -33.5t-62 -101.5z" />
    <glyph glyph-name="zero.numr" horiz-adv-x="1130" 
d="M565 561q-230 0 -362.5 120t-132.5 331t132.5 330.5t362.5 119.5q231 0 363.5 -119.5t132.5 -330.5q0 -212 -132.5 -331.5t-363.5 -119.5zM565 737q134 0 209.5 71.5t75.5 203.5q0 131 -75.5 201.5t-209.5 70.5t-210 -71t-76 -201q0 -132 76 -203.5t210 -71.5z" />
    <glyph glyph-name="one.numr" horiz-adv-x="614" 
d="M285 588v620q-91 -69 -242 -92v172q76 10 155 50.5t138 95.5h153v-846h-204z" />
    <glyph glyph-name="two.numr" horiz-adv-x="978" 
d="M74 1270q70 87 181.5 138.5t246.5 51.5q100 0 186 -26.5t145.5 -86.5t59.5 -143q0 -102 -80 -171.5t-225 -121.5q-70 -26 -105 -39.5t-81 -35t-69.5 -41t-33.5 -41.5h610v-166h-852v100q17 118 121.5 211.5t282.5 153.5q15 6 40 15t39 14t34.5 13.5t32 14t26.5 14t23 16
t16 17t11 20.5t3 23q0 49 -56.5 74.5t-137.5 25.5q-89 0 -161 -33.5t-136 -105.5z" />
    <glyph glyph-name="three.numr" horiz-adv-x="995" 
d="M186 854q107 -129 293 -129q61 0 111 11.5t84.5 40t34.5 71.5q0 108 -236 108h-121v146h121q209 0 209 98t-211 98q-166 0 -270 -118l-133 92q58 88 171 138t250 50q78 0 149 -14t129 -41.5t92 -73t34 -102.5q0 -78 -56 -133t-143 -64q98 -15 165 -66.5t67 -140.5
q0 -122 -123 -192t-314 -70q-144 0 -261.5 54.5t-180.5 150.5z" />
    <glyph glyph-name="four.numr" horiz-adv-x="1046" 
d="M999 926v-156h-159v-182h-199v182h-606v117l620 547h185v-508h159zM293 926h346v295z" />
    <glyph glyph-name="five.numr" horiz-adv-x="991" 
d="M152 850q138 -119 344 -119q107 0 169 32t62 97q0 66 -61 97.5t-168 31.5q-150 0 -271 -59l-145 55l76 449h696v-160h-547l-33 -211q127 80 293 80q101 0 182.5 -30t134 -96t52.5 -157q0 -132 -108.5 -215.5t-321.5 -83.5q-261 0 -459 162z" />
    <glyph glyph-name="six.numr" horiz-adv-x="1058" 
d="M598 1145q77 0 146 -16t127.5 -48t93 -88.5t34.5 -130.5q0 -134 -116 -217.5t-322 -83.5q-227 0 -359 121t-132 330t131.5 329.5t359.5 120.5q271 0 414 -143l-113 -117q-109 103 -278 103q-300 0 -305 -283q57 60 144 91.5t175 31.5zM561 721q106 0 168 33.5t62 101.5
q0 141 -230 141q-74 0 -145.5 -25t-124.5 -71q47 -180 270 -180z" />
    <glyph glyph-name="seven.numr" horiz-adv-x="909" 
d="M203 588l424 676h-592v170h842v-134l-443 -712h-231z" />
    <glyph glyph-name="eight.numr" horiz-adv-x="1056" 
d="M750 1036q105 -17 172 -70t67 -147q0 -117 -128 -187.5t-333 -70.5t-332.5 70.5t-127.5 187.5q0 94 66 147t169 70q-92 8 -148.5 61.5t-56.5 135.5q0 74 61 127t156.5 77.5t212.5 24.5t212.5 -24.5t156.5 -77.5t61 -127q0 -82 -57 -135.5t-151 -61.5zM307 1206
q0 -106 223 -106q220 0 220 106q0 54 -63 80.5t-157 26.5q-97 0 -160 -26.5t-63 -80.5zM526 711q107 0 177.5 33.5t70.5 95.5q0 66 -68.5 96.5t-179.5 30.5q-110 0 -177.5 -30.5t-67.5 -96.5q0 -62 69 -95.5t176 -33.5z" />
    <glyph glyph-name="nine.numr" horiz-adv-x="1058" 
d="M492 1460q228 0 359.5 -120.5t131.5 -329.5t-132 -330t-359 -121q-271 0 -414 143l112 117q108 -102 279 -102q300 0 305 282q-57 -60 -143.5 -91t-175.5 -31q-77 0 -146.5 15.5t-128 48t-93 88.5t-34.5 130q0 134 116.5 217.5t322.5 83.5zM262 1165q0 -141 230 -141
q74 0 145.5 25t124.5 71q-47 180 -270 180q-106 0 -168 -33.5t-62 -101.5z" />
    <glyph glyph-name="zero.sc" horiz-adv-x="1802" 
d="M901 -43q-371 0 -585 178.5t-214 489.5q0 313 214 491t585 178q373 0 586 -178t213 -491q0 -312 -213.5 -490t-585.5 -178zM901 227q221 0 347 104t126 294q0 192 -125.5 294.5t-347.5 102.5q-224 0 -349.5 -102t-125.5 -295q0 -190 126 -294t349 -104z" />
    <glyph glyph-name="one.sc" horiz-adv-x="964" 
d="M459 0v907q-152 -99 -396 -137v266q122 17 249 76t223 139h243v-1251h-319z" />
    <glyph glyph-name="two.sc" horiz-adv-x="1566" 
d="M115 1001q87 127 267.5 208t412.5 81q123 0 235.5 -23.5t205 -69t147.5 -120t55 -168.5q0 -78 -36.5 -144t-106.5 -118.5t-158 -93.5t-203 -76q-84 -27 -119 -38.5t-99.5 -34t-94 -36.5t-68 -34.5t-58 -40t-30.5 -41.5h997v-252h-1376v139q26 179 197.5 323t461.5 230
q22 7 64 21q57 18 84.5 27.5t70.5 25.5t63.5 28.5t43.5 30.5t32 37.5t9 42.5q0 70 -94.5 104.5t-239.5 34.5q-293 0 -477 -206z" />
    <glyph glyph-name="three.sc" horiz-adv-x="1589" 
d="M276 401q101 -100 216.5 -147t275.5 -47q108 0 190.5 16t137.5 56.5t55 103.5q0 47 -30 79t-86 48.5t-122 23.5t-153 7h-197v225h197q71 0 131.5 7.5t110.5 24t79 45t29 66.5q0 133 -352 133q-285 0 -453 -180l-207 150q104 132 279.5 205t402.5 73q128 0 243.5 -21
t209.5 -61.5t149.5 -107t55.5 -150.5q0 -116 -91 -197t-237 -96q60 -8 113.5 -24t103 -42t85 -60t56.5 -81t21 -102q0 -123 -94.5 -212t-251.5 -132t-357 -43q-232 0 -418.5 79t-297.5 218z" />
    <glyph glyph-name="four.sc" horiz-adv-x="1673" 
d="M1604 494v-240h-263v-254h-309v254h-983v190l1008 807h284v-757h263zM451 494h579v440z" />
    <glyph glyph-name="five.sc" horiz-adv-x="1591" 
d="M238 403q214 -184 567 -184q385 0 385 178q0 187 -397 187q-228 0 -426 -78l-234 90l113 655h1134v-247h-893l-53 -297q212 114 477 114q118 0 224.5 -26.5t192.5 -77t137 -134.5t51 -190q0 -71 -26.5 -135t-83.5 -119t-139 -95.5t-200.5 -63.5t-261.5 -23
q-437 0 -733 260z" />
    <glyph glyph-name="six.sc" horiz-adv-x="1689" 
d="M958 823q96 0 186 -14t174 -46t146.5 -78.5t100 -118t37.5 -158.5q0 -199 -188 -325t-517 -126q-369 0 -582 180.5t-213 487.5q0 309 213 489t582 180q420 0 666 -209l-183 -188q-86 75 -204.5 115.5t-245.5 40.5q-89 0 -162.5 -13.5t-137.5 -44.5t-108 -79t-69.5 -119
t-26.5 -162q94 91 237 139.5t295 48.5zM897 195q180 0 281.5 51t101.5 155q0 199 -377 199q-126 0 -247 -37t-207 -106q82 -262 448 -262z" />
    <glyph glyph-name="seven.sc" horiz-adv-x="1460" 
d="M319 0l701 991h-971v260h1360v-207l-723 -1044h-367z" />
    <glyph glyph-name="eight.sc" horiz-adv-x="1685" 
d="M1208 659q74 -10 139 -33t119.5 -60.5t86.5 -95t32 -128.5q0 -115 -94 -202.5t-262 -135t-385 -47.5q-218 0 -387 47.5t-263 135t-94 202.5q0 71 32 128.5t87.5 95t120.5 60.5t139 33q-145 15 -237 95.5t-92 197.5q0 108 97.5 187.5t252 117t344.5 37.5q188 0 342 -37.5
t251 -117t97 -187.5q0 -117 -91 -197.5t-235 -95.5zM471 913q0 -153 371 -153q372 0 372 153q0 50 -53 85t-135 51t-184 16t-184 -16t-134.5 -51t-52.5 -85zM844 188q118 0 209 20t145.5 62t54.5 101q0 65 -55.5 107t-143.5 58.5t-210 16.5t-210 -16.5t-144 -58.5t-56 -107
q0 -59 55 -101t146 -62t209 -20z" />
    <glyph glyph-name="nine.sc" horiz-adv-x="1689" 
d="M784 1294q369 0 582 -180t213 -487q0 -309 -213 -489.5t-582 -180.5q-419 0 -665 209l182 188q86 -75 205 -115t246 -40q112 0 200 22t157 70t107 130t39 195q-94 -91 -237 -139.5t-295 -48.5q-96 0 -186 14t-174 46t-146 79t-99.5 118.5t-37.5 158.5q0 199 187.5 324.5
t516.5 125.5zM401 850q0 -199 377 -199q126 0 247.5 37.5t207.5 106.5q-82 262 -449 262q-180 0 -281.5 -51.5t-101.5 -155.5z" />
    <glyph glyph-name="periodcentered.case" horiz-adv-x="606" 
d="M303 559q-86 0 -140 48t-54 122q0 73 54.5 122.5t139.5 49.5q84 0 138.5 -49.5t54.5 -122.5q0 -74 -54.5 -122t-138.5 -48z" />
    <glyph glyph-name="bullet.case" horiz-adv-x="827" 
d="M412 465q-125 0 -204 73.5t-79 190.5t79 190.5t204 73.5t203.5 -73.5t78.5 -190.5t-78.5 -190.5t-203.5 -73.5z" />
    <glyph glyph-name="exclamdown.case" horiz-adv-x="684" 
d="M340 1458q84 0 138 -48t54 -122q0 -73 -54 -122.5t-138 -49.5q-85 0 -140 49.5t-55 122.5q0 74 54.5 122t140.5 48zM150 0l55 965h274l53 -965h-382z" />
    <glyph glyph-name="questiondown.case" horiz-adv-x="1538" 
d="M782 1468q86 0 140.5 -48t54.5 -122q0 -73 -55 -122.5t-140 -49.5q-84 0 -138 49.5t-54 122.5q0 74 54 122t138 48zM909 987v-371q-122 -12 -205 -26.5t-151 -39t-100.5 -62t-32.5 -89.5q0 -49 29 -84.5t80.5 -54t109.5 -27t127 -8.5q328 0 532 236l185 -185
q-284 -309 -723 -309q-127 0 -245 26.5t-215 77t-155.5 134.5t-58.5 190q0 89 42.5 161t119 120t178.5 77t225 38v196h258z" />
    <glyph glyph-name="braceleft.case" horiz-adv-x="1007" 
d="M645 1065q0 -155 -82 -248.5t-223 -97.5q141 -8 223 -101t82 -247q0 -128 59.5 -194t161.5 -66h62v-234h-101q-209 0 -329.5 102t-120.5 314q0 83 -18.5 144.5t-50 99.5t-78.5 61.5t-97.5 32t-114.5 8.5v158q64 0 114.5 8.5t97.5 32t78.5 61.5t50 99.5t18.5 144.5
q0 212 120.5 312.5t329.5 100.5h101v-233h-62q-102 0 -161.5 -65t-59.5 -193z" />
    <glyph glyph-name="braceright.case" horiz-adv-x="1007" 
d="M362 1065q0 128 -59.5 193t-161.5 65h-61v233h100q209 0 330 -100.5t121 -312.5q0 -83 18.5 -144.5t49.5 -99.5t78.5 -61.5t97.5 -32t114 -8.5v-158q-64 0 -114 -8.5t-97.5 -32t-78.5 -61.5t-49.5 -99.5t-18.5 -144.5q0 -212 -121 -314t-330 -102h-100v234h61
q102 0 161.5 66t59.5 194q0 154 82.5 247t223.5 101q-141 5 -223.5 98t-82.5 248z" />
    <glyph glyph-name="bracketleft.case" horiz-adv-x="921" 
d="M842 1323h-385v-1212h385v-234h-649v1679h649v-233z" />
    <glyph glyph-name="bracketright.case" horiz-adv-x="921" 
d="M80 1323v233h649v-1679h-649v234h385v1212h-385z" />
    <glyph glyph-name="parenleft.case" horiz-adv-x="921" 
d="M375 717q0 -256 128 -431t339 -237l-90 -215q-140 34 -261 113.5t-209 193t-138 262.5t-50 314t50 314t138 262t209 192.5t261 113.5l90 -215q-212 -62 -339.5 -236t-127.5 -431z" />
    <glyph glyph-name="parenright.case" horiz-adv-x="921" 
d="M547 717q0 257 -127.5 431t-339.5 236l90 215q140 -34 260.5 -113.5t208.5 -192.5t138 -262t50 -314t-50 -314t-138 -262.5t-208.5 -193t-260.5 -113.5l-90 215q211 62 339 237t128 431z" />
    <glyph glyph-name="emdash.case" horiz-adv-x="2058" 
d="M1913 596h-1768v266h1768v-266z" />
    <glyph glyph-name="endash.case" horiz-adv-x="1624" 
d="M1479 596h-1334v266h1334v-266z" />
    <glyph glyph-name="hyphen.case" horiz-adv-x="1230" 
d="M1085 596h-940v266h940v-266z" />
    <glyph glyph-name="guillemotleft.case" horiz-adv-x="1437" 
d="M498 1180l-432 -451l432 -450h309l-432 450l432 451h-309zM1036 1180l-432 -451l432 -450h310l-433 450l433 451h-310z" />
    <glyph glyph-name="guillemotright.case" horiz-adv-x="1437" 
d="M401 1180h-309l432 -451l-432 -450h309l433 450zM940 1180h-309l432 -451l-432 -450h309l432 450z" />
    <glyph glyph-name="guilsinglleft.case" horiz-adv-x="899" 
d="M498 1180l-432 -451l432 -450h309l-432 450l432 451h-309z" />
    <glyph glyph-name="guilsinglright.case" horiz-adv-x="899" 
d="M401 1180h-309l432 -451l-432 -450h309l433 450z" />
    <glyph glyph-name="backslash.sc" horiz-adv-x="1429" 
d="M399 1456l975 -1661h-344l-975 1661h344z" />
    <glyph glyph-name="exclam.sc" horiz-adv-x="718" 
d="M168 1251h383l-53 -782h-275zM358 -25q-86 0 -140 48t-54 122q0 73 54.5 122.5t139.5 49.5q84 0 138.5 -49.5t54.5 -122.5q0 -74 -54.5 -122t-138.5 -48z" />
    <glyph glyph-name="exclamdown.sc" horiz-adv-x="684" 
d="M340 1276q84 0 138 -48t54 -122q0 -73 -54 -122.5t-138 -49.5q-85 0 -140 49.5t-55 122.5q0 74 54.5 122t140.5 48zM150 0l55 782h274l53 -782h-382z" />
    <glyph glyph-name="numbersign.sc" horiz-adv-x="1804" 
d="M1714 768h-311l-78 -262h324v-189h-381l-94 -317h-256l94 317h-410l-94 -317h-256l94 317h-258v189h315l78 262h-327v188h383l88 295h258l-88 -295h407l88 295h258l-88 -295h254v-188zM1069 506l78 262h-410l-78 -262h410z" />
    <glyph glyph-name="question.sc" horiz-adv-x="1421" 
d="M573 422v303q214 13 323.5 53.5t109.5 122.5q0 53 -46 87t-112 46.5t-152 12.5q-145 0 -255 -48.5t-201 -148.5l-179 168q242 274 648 274q120 0 230 -23.5t201 -68.5t145 -119.5t54 -169.5q0 -155 -137.5 -241t-367.5 -99v-149h-261zM705 -25q-86 0 -140.5 48t-54.5 122
q0 73 55 122.5t140 49.5q84 0 138 -49.5t54 -122.5q0 -74 -54 -122t-138 -48z" />
    <glyph glyph-name="questiondown.sc" horiz-adv-x="1417" 
d="M715 1276q86 0 140 -48t54 -122q0 -73 -54.5 -122.5t-139.5 -49.5q-84 0 -138.5 49.5t-54.5 122.5q0 74 54.5 122t138.5 48zM846 829v-303q-214 -13 -323 -53.5t-109 -122.5q0 -53 45.5 -86.5t111 -46t152.5 -12.5q146 0 256 48t201 148l178 -168q-242 -274 -647 -274
q-120 0 -230.5 23.5t-201 68.5t-145 119.5t-54.5 169.5q0 155 138 241t368 99v149h260z" />
    <glyph glyph-name="slash.sc" horiz-adv-x="1429" 
d="M401 -205h-344l975 1661h344z" />
    <glyph glyph-name="percent.osf" horiz-adv-x="1886" 
d="M453 618q-167 0 -275 99t-108 244q0 146 108 244t275 98t274 -98t107 -244q0 -145 -107.5 -244t-273.5 -99zM1380 1272h238l-1110 -1272h-238zM453 797q83 0 132.5 43t49.5 121t-49.5 120.5t-132.5 42.5q-84 0 -133.5 -42.5t-49.5 -120.5t50 -121t133 -43zM1436 -31
q-167 0 -275 99t-108 243q0 146 108 244t275 98t274 -98t107 -244q0 -145 -107.5 -243.5t-273.5 -98.5zM1436 147q83 0 132.5 43t49.5 121t-49.5 121t-132.5 43t-133 -43t-50 -121t50 -121t133 -43z" />
    <glyph glyph-name="perthousand.osf" horiz-adv-x="2725" 
d="M453 618q-167 0 -275 99t-108 244q0 146 108 244t275 98t274 -98t107 -244q0 -145 -107.5 -244t-273.5 -99zM1380 1272h238l-1110 -1272h-238zM453 797q83 0 132.5 43t49.5 121t-49.5 120.5t-132.5 42.5q-84 0 -133.5 -42.5t-49.5 -120.5t50 -121t133 -43zM1436 -31
q-167 0 -275 99t-108 243q0 146 108 244t275 98t274 -98t107 -244q0 -145 -107.5 -243.5t-273.5 -98.5zM2275 -31q-167 0 -275 99t-108 243q0 146 108 244t275 98t274 -98t107 -244q0 -145 -107.5 -243.5t-273.5 -98.5zM1436 147q83 0 132.5 43t49.5 121t-49.5 121
t-132.5 43t-133 -43t-50 -121t50 -121t133 -43zM2275 147q83 0 133 43t50 121t-50 121t-133 43t-132.5 -43t-49.5 -121t49.5 -121t132.5 -43z" />
    <glyph glyph-name="bar.case" horiz-adv-x="655" 
d="M180 -123v1679h297v-1679h-297z" />
    <glyph glyph-name="brokenbar.case" horiz-adv-x="655" 
d="M180 883v673h297v-673h-297zM477 561v-684h-297v684h297z" />
    <glyph glyph-name="at.case" horiz-adv-x="2119" 
d="M1608 66q-96 -56 -245.5 -83.5t-309.5 -27.5q-217 0 -397.5 57t-303 158t-189.5 241.5t-67 305.5t67 305.5t189.5 241.5t303 158t397.5 57t397.5 -57t303 -158t190 -241.5t67.5 -305.5q0 -221 -85.5 -342t-239.5 -121q-112 0 -201 60.5t-125 154.5q-66 -105 -178 -162
t-250 -57q-102 0 -193 32t-160 90.5t-109 148.5t-40 198q0 145 69.5 253.5t182 163t250.5 54.5q136 0 244 -57.5t176 -163.5l49 184h190v-555q0 -126 41.5 -186t98.5 -60q78 0 120.5 103.5t42.5 261.5q0 129 -42 236t-117.5 183.5t-180.5 129.5t-231 78.5t-270 25.5
q-180 0 -331.5 -41t-265.5 -120.5t-178.5 -205.5t-64.5 -286t64.5 -286t178.5 -205.5t265.5 -121t331.5 -41.5q294 0 503 99zM1001 424q228 0 345 221v146q-118 219 -345 219q-146 0 -235.5 -75.5t-89.5 -217.5t89.5 -217.5t235.5 -75.5z" />
    <glyph glyph-name="registered.case" horiz-adv-x="2013" 
d="M1008 1479q413 0 659 -208.5t246 -553.5t-246 -553.5t-659 -208.5q-275 0 -481.5 94.5t-316.5 267t-110 400.5t110 400.5t316.5 267t481.5 94.5zM1610 229q209 181 209 488q0 212 -102.5 366.5t-285 233t-423.5 78.5q-242 0 -425.5 -78.5t-288 -233t-104.5 -366.5
t104.5 -366.5t288 -233t425.5 -78.5q381 0 600 188h-281l-237 316h-357v-316h-254v983h662q202 0 328 -85t126 -248q0 -121 -70.5 -199.5t-193.5 -112.5zM733 715h389q217 0 217 155q0 158 -217 158h-389v-313z" />
    <glyph glyph-name="dagger.case" horiz-adv-x="1140" 
d="M1018 1006v-222h-322v-784h-256v784h-319v222h319v428h256v-428h322z" />
    <glyph glyph-name="daggerdbl.case" horiz-adv-x="1140" 
d="M1018 897h-322v-360h322v-220h-322v-317h-256v317h-319v220h319v360h-319v219h319v318h256v-318h322v-219z" />
    <glyph glyph-name="bar.sc" horiz-adv-x="655" 
d="M180 -205v1680h297v-1680h-297z" />
    <glyph glyph-name="brokenbar.sc" horiz-adv-x="655" 
d="M180 801v674h297v-674h-297zM477 479v-684h-297v684h297z" />
    <glyph glyph-name="at.sc" horiz-adv-x="1927" 
d="M1481 59q-87 -50 -224.5 -76t-283.5 -26q-199 0 -364 50.5t-276.5 139t-173 211.5t-61.5 267q0 145 61 268.5t173 212t277 138.5t364 50t364 -50t276.5 -138.5t172.5 -212t61 -268.5q0 -195 -78.5 -298.5t-220.5 -103.5q-105 0 -187 51.5t-116 135.5
q-59 -92 -161.5 -140.5t-227.5 -48.5t-227.5 47t-165 141t-62.5 218q0 187 131 298t324 111q124 0 222 -48.5t159 -141.5l47 160h182v-484q0 -105 36.5 -155t88.5 -50q68 0 107 88t39 220q0 141 -59 250.5t-163 178t-241.5 103.5t-300.5 35t-300 -35t-241 -103.5
t-162.5 -178t-58.5 -250.5q0 -112 38 -205.5t106.5 -159.5t164 -111.5t209.5 -67.5t244 -22q263 0 457 91zM926 385q204 0 303 178v125q-99 178 -303 178q-130 0 -209.5 -63t-79.5 -178t79.5 -177.5t209.5 -62.5z" />
    <glyph glyph-name="ampersand.sc" horiz-adv-x="1732" 
d="M1720 0h-377l-92 68q-189 -103 -458 -103q-195 0 -352.5 54.5t-247 151.5t-89.5 216q0 107 72 191.5t203 134.5q-119 109 -119 229q0 152 141.5 252t380.5 100q424 0 625 -325l-256 -107q-68 113 -154.5 156t-205.5 43q-211 0 -211 -127q0 -28 10 -51t41.5 -53t56 -49.5
t88.5 -67.5l461 -346q67 94 76 233h272q-12 -228 -147 -387zM831 199q118 0 203 28l-508 371q-100 -70 -100 -168q0 -100 113 -165.5t292 -65.5z" />
    <glyph glyph-name="paragraph.sc" horiz-adv-x="1867" 
d="M623 1251h1060v-1251h-282v1006h-211v-1006h-283v379h-284q-259 0 -408 109t-149 327q0 214 150 325t407 111zM907 625v381h-274q-125 0 -203 -47t-78 -144t78 -143.5t203 -46.5h274z" />
    <glyph glyph-name="copyright.sc" horiz-adv-x="1855" 
d="M926 -43q-377 0 -602.5 183.5t-225.5 484.5q0 303 225 486t603 183q381 0 606 -182.5t225 -486.5q0 -301 -225.5 -484.5t-605.5 -183.5zM926 37q220 0 387.5 68.5t262.5 202.5t95 317q0 184 -95 319t-262.5 204t-387.5 69t-387 -69t-262 -204t-95 -319q0 -183 95 -317
t262 -202.5t387 -68.5zM1442 399q-73 -104 -205 -168.5t-315 -64.5q-251 0 -404 123t-153 338q0 217 153 341t404 124q180 0 310 -66.5t195 -169.5l-194 -90q-99 135 -291 135q-153 0 -241.5 -72t-88.5 -202q0 -129 89 -201t241 -72q98 0 169 32.5t124 105.5z" />
    <glyph glyph-name="registered.sc" horiz-adv-x="1855" 
d="M926 1294q381 0 606 -182.5t225 -486.5q0 -301 -225.5 -484.5t-605.5 -183.5q-377 0 -602.5 183.5t-225.5 484.5q0 303 225 486t603 183zM1479 203q192 156 192 422q0 184 -95 319t-262.5 204t-387.5 69t-387 -69t-262 -204t-95 -319q0 -183 95 -317t262 -202.5
t387 -68.5q339 0 544 160h-262l-211 270h-307v-270h-246v860h607q185 0 302 -74.5t117 -218.5q0 -105 -63.5 -175t-173.5 -100zM1040 651q90 0 135.5 26t45.5 85q0 60 -45 85t-136 25h-350v-221h350z" />
    <glyph glyph-name="uni2117.sc" horiz-adv-x="1855" 
d="M926 -39q-378 0 -603 182t-225 482q0 303 225 485t603 182q381 0 606 -182t225 -485q0 -301 -225 -482.5t-606 -181.5zM926 39q220 0 387.5 68t262.5 201.5t95 316.5q0 184 -95.5 318t-262.5 201.5t-387 67.5t-387 -67.5t-262 -201.5t-95 -318q0 -183 95 -316.5
t262 -201.5t387 -68zM1079 1057q186 0 303 -77t117 -222q0 -147 -116.5 -223t-303.5 -76h-358v-262h-246v860h604zM1059 643q97 0 143.5 24t46.5 91t-46.5 90.5t-143.5 23.5h-338v-229h338z" />
    <glyph glyph-name="section.sc" horiz-adv-x="1396" 
d="M1149 307q141 -75 141 -215q0 -152 -149 -250t-428 -98q-362 0 -621 186l141 168q212 -147 488 -147q131 0 210 27t79 83q0 55 -75 78.5t-245 34.5q-555 39 -555 315q0 162 160 256q-154 77 -154 224q0 102 74 176t201.5 110.5t294.5 36.5q156 0 299 -40t243 -107
l-139 -172q-169 109 -405 112q-287 0 -287 -98q0 -53 78.5 -74t240.5 -32q124 -8 220.5 -27.5t174 -54.5t119 -92t41.5 -134q0 -166 -147 -266zM418 522q0 -61 81 -90t232 -39q70 -4 103 -8q84 17 132 55t48 86q0 61 -76.5 94t-228.5 44q-7 0 -20.5 1t-20.5 1
q-106 -6 -178 -44.5t-72 -99.5z" />
    <glyph glyph-name="degree.sc" horiz-adv-x="870" 
d="M434 690q-150 0 -246 82t-96 215q0 131 96 213t246 82q153 0 249.5 -82t96.5 -213q0 -133 -96.5 -215t-249.5 -82zM434 834q82 0 130 41.5t48 111.5t-48 111t-130 41t-130 -41t-48 -111t48 -111.5t130 -41.5z" />
    <glyph glyph-name="cent.sc" horiz-adv-x="1363" 
d="M1284 391q-62 -107 -183.5 -178.5t-295.5 -85.5v-127h-162v129q-255 19 -400 148t-145 348q0 220 145 349t400 148v129h162v-127q172 -14 293.5 -85t183.5 -177l-225 -96q-77 120 -252 139v-559q157 18 252 141zM369 625q0 -116 73 -187t201 -90v555q-128 -19 -201 -90
t-73 -188z" />
    <glyph glyph-name="currency.sc" horiz-adv-x="1527" 
d="M1337 635q0 -186 -110 -311l174 -168l-141 -131l-197 178q-129 -60 -297 -60q-170 0 -299 60l-195 -178l-143 131l174 168q-110 125 -110 311q0 166 92 291l-156 149l143 129l164 -151q138 75 330 75q193 0 328 -75l166 151l141 -129l-156 -149q92 -122 92 -291zM768 352
q150 0 242 74.5t92 208.5q0 136 -91.5 210.5t-242.5 74.5q-153 0 -245.5 -74.5t-92.5 -210.5q0 -134 92.5 -208.5t245.5 -74.5z" />
    <glyph glyph-name="dagger.sc" horiz-adv-x="1140" 
d="M1018 848v-209h-326v-639h-248v639h-323v209h323v403h248v-403h326z" />
    <glyph glyph-name="daggerdbl.sc" horiz-adv-x="1140" 
d="M1018 782h-326v-295h326v-198h-326v-289h-248v289h-323v198h323v295h-323v199h323v289h248v-289h326v-199z" />
    </font>
</defs>
</svg>
