<?xml version="1.0" standalone="no"?>
<!DOCTYPE svg PUBLIC "-//W3C//DTD SVG 1.1//EN" "http://www.w3.org/Graphics/SVG/1.1/DTD/svg11.dtd" >
<svg xmlns="http://www.w3.org/2000/svg" xmlns:xlink="http://www.w3.org/1999/xlink" version="1.1">
<metadata>
Created by FontForge 20170731 at Thu Apr  1 15:19:37 2021
 By Aleksey,,,
Copyright (c) 2015 by Mattox Shuler. All rights reserved.
</metadata>
<defs>
<font id="Termina-Heavy" horiz-adv-x="1955" >
  <font-face 
    font-family="Termina Heavy"
    font-weight="800"
    font-stretch="normal"
    units-per-em="2048"
    panose-1="0 0 9 0 0 0 0 0 0 0"
    ascent="1638"
    descent="-410"
    x-height="1141"
    cap-height="1434"
    bbox="-915 -944 3355 2249"
    underline-thickness="102"
    underline-position="-307"
    unicode-range="U+0020-FB02"
  />
<missing-glyph horiz-adv-x="1034" 
d="M848 1577v-2069h-655v2069h655zM688 1438h-340v-68h133v-76h-135v-69h342v69h-135v76h135v68zM553 1171h-207v-215h342v70h-135v145zM481 1102v-76h-67v76h67zM688 901h-342v-70h135v-75h-135v-68h207v143h135v70zM688 776h-67v-137h-275v-70h342v207zM688 524h-207v-116
h72v49h68v-99h-207v166h-68v-233h342v233zM688 166h-342v-234h342v234zM621 98v-98h-207v98h207zM688 -115h-342v-69h143l-143 -97v-67h342v67h-211l146 97h65v69z" />
    <glyph glyph-name="fi" unicode="fi" horiz-adv-x="1875" 
d="M1509 1235q-121 0 -195.5 60t-74.5 159t74.5 159t195.5 60t196 -60t75 -159t-75 -159t-196 -60zM887 1280q-93 0 -142 -36.5t-49 -96.5v-6h420v-328h-405v-813h-482v813h-192v328h192q15 207 157 313.5t368 106.5q92 0 197 -17t177 -47l-53 -254q-104 37 -188 37zM1270 0
v1141h481v-1141h-481z" />
    <glyph glyph-name="fl" unicode="fl" horiz-adv-x="1878" 
d="M887 1280q-93 0 -142 -36.5t-49 -96.5v-6h420v-328h-405v-813h-482v813h-192v328h192q15 207 157 313.5t368 106.5q92 0 197 -17t177 -47l-53 -254q-104 37 -188 37zM1270 1516h481v-1516h-481v1516z" />
    <glyph glyph-name=".notdef" horiz-adv-x="1034" 
d="M848 1577v-2069h-655v2069h655zM688 1438h-340v-68h133v-76h-135v-69h342v69h-135v76h135v68zM553 1171h-207v-215h342v70h-135v145zM481 1102v-76h-67v76h67zM688 901h-342v-70h135v-75h-135v-68h207v143h135v70zM688 776h-67v-137h-275v-70h342v207zM688 524h-207v-116
h72v49h68v-99h-207v166h-68v-233h342v233zM688 166h-342v-234h342v234zM621 98v-98h-207v98h207zM688 -115h-342v-69h143l-143 -97v-67h342v67h-211l146 97h65v69z" />
    <glyph glyph-name=".null" horiz-adv-x="0" 
 />
    <glyph glyph-name="nonmarkingreturn" horiz-adv-x="682" 
 />
    <glyph glyph-name="space" unicode=" " horiz-adv-x="505" 
 />
    <glyph glyph-name="exclam" unicode="!" horiz-adv-x="782" 
d="M104 1434h572l-76 -883h-418zM389 -31q-119 0 -194.5 67.5t-75.5 168.5q0 100 76 167.5t194 67.5q120 0 196.5 -67.5t76.5 -167.5q0 -101 -76.5 -168.5t-196.5 -67.5z" />
    <glyph glyph-name="quotedbl" unicode="&#x22;" horiz-adv-x="1243" 
d="M127 1516h408v-676h-408v676zM709 1516h407v-676h-407v676z" />
    <glyph glyph-name="numbersign" unicode="#" horiz-adv-x="1992" 
d="M1919 854h-338l-70 -248h334v-276h-413l-95 -330h-387l94 330h-323l-94 -330h-387l92 330h-258v276h338l71 248h-338v279h416l88 301h387l-86 -301h324l86 301h387l-86 -301h258v-279zM1124 606l70 248h-324l-71 -248h325z" />
    <glyph glyph-name="dollar" unicode="$" horiz-adv-x="1880" 
d="M1796 492q0 -223 -193 -354.5t-546 -143.5v-207h-199v211q-483 30 -799 268l246 275q223 -163 553 -197v203q-106 11 -193.5 27t-174 40t-150.5 58t-114.5 78.5t-76.5 105.5t-26 135q0 107 56.5 190.5t158 137t232.5 83.5t288 36v188h199v-188q409 -26 676 -205
l-232 -279q-182 120 -444 142v-178q103 -9 179 -19t157.5 -26.5t138.5 -37.5t110 -52.5t84.5 -72t50.5 -95.5t19 -123zM612 1018q0 -38 57 -55t189 -29v166q-246 -8 -246 -82zM1057 338q129 3 188.5 23.5t59.5 68.5q0 44 -53 64t-195 34v-190z" />
    <glyph glyph-name="percent" unicode="%" horiz-adv-x="1873" 
d="M440 748q-176 0 -291.5 103t-115.5 259t115.5 259.5t291.5 103.5q178 0 294 -103.5t116 -259.5t-116 -259t-294 -103zM1339 1434h316l-1120 -1434h-314zM440 975q67 0 108.5 35.5t41.5 99.5t-41.5 98.5t-108.5 34.5q-65 0 -106 -34.5t-41 -98.5t41 -99.5t106 -35.5z
M1434 -39q-177 0 -293.5 104t-116.5 259q0 156 116 259t294 103q176 0 291.5 -103t115.5 -259q0 -155 -115.5 -259t-291.5 -104zM1434 190q65 0 106 35t41 99t-41 99.5t-106 35.5q-66 0 -108 -35.5t-42 -99.5t42 -99t108 -35z" />
    <glyph glyph-name="ampersand" unicode="&#x26;" horiz-adv-x="1923" 
d="M1935 0h-542l-64 49q-207 -90 -461 -90q-224 0 -404.5 63.5t-282 176t-101.5 252.5q0 118 76 208t219 144q-127 127 -127 262q0 175 162 292.5t450 117.5q119 0 222.5 -20.5t182 -54.5t146.5 -84.5t116.5 -104t92.5 -119.5l-395 -150q-141 217 -351 217q-75 0 -122 -26.5
t-47 -75.5q0 -40 36 -81.5t133 -119.5l447 -360q47 84 59 200h410q-18 -249 -176 -436zM893 281q76 0 127 10l-418 330q-41 -59 -41 -123q0 -97 91 -157t241 -60z" />
    <glyph glyph-name="quotesingle" unicode="'" horiz-adv-x="661" 
d="M127 1516h408v-676h-408v676z" />
    <glyph glyph-name="parenleft" unicode="(" horiz-adv-x="991" 
d="M492 594q0 -230 116.5 -381.5t306.5 -212.5l-137 -297q-142 27 -270 104t-225 190.5t-154 268.5t-57 328t57 328t154 268.5t225 190.5t270 104l137 -297q-190 -61 -306.5 -212.5t-116.5 -381.5z" />
    <glyph glyph-name="parenright" unicode=")" horiz-adv-x="991" 
d="M500 594q0 230 -117.5 381.5t-306.5 212.5l135 297q143 -27 271.5 -104t226 -190.5t154.5 -268.5t57 -328t-57 -328t-154.5 -268.5t-226 -190.5t-271.5 -104l-135 297q189 61 306.5 212.5t117.5 381.5z" />
    <glyph glyph-name="asterisk" unicode="*" horiz-adv-x="1335" 
d="M776 326l-108 403l-109 -403l-342 196l285 283l-393 -94v395l393 -92l-285 280l342 199l109 -403l108 403l342 -199l-284 -280l393 92v-395l-393 94l284 -283z" />
    <glyph glyph-name="plus" unicode="+" horiz-adv-x="1501" 
d="M1384 805v-361h-444v-374h-377v374h-446v361h446v373h377v-373h444z" />
    <glyph glyph-name="comma" unicode="," horiz-adv-x="706" 
d="M342 440q130 0 208.5 -88.5t78.5 -212.5q0 -88 -37.5 -183t-123.5 -193.5t-208 -163.5l-90 137q176 113 223 252q-19 -19 -63 -19q-106 0 -179 68t-73 168q0 99 75 167t189 68z" />
    <glyph glyph-name="hyphen" unicode="-" horiz-adv-x="1257" 
d="M1137 440h-1014v367h1014v-367z" />
    <glyph glyph-name="period" unicode="." horiz-adv-x="698" 
d="M348 -31q-119 0 -194.5 67.5t-75.5 168.5q0 100 76 167.5t194 67.5q120 0 196.5 -67.5t76.5 -167.5q0 -101 -76.5 -168.5t-196.5 -67.5z" />
    <glyph glyph-name="slash" unicode="/" horiz-adv-x="1634" 
d="M557 -205h-514l1036 1802h512z" />
    <glyph glyph-name="zero" unicode="0" horiz-adv-x="1976" 
d="M987 -47q-279 0 -483.5 88.5t-317 261.5t-112.5 414t112.5 414t317 261.5t483.5 88.5q280 0 485.5 -88.5t318 -261.5t112.5 -414t-112.5 -414t-318 -261.5t-485.5 -88.5zM989 344q193 0 300.5 97.5t107.5 275.5t-107.5 275.5t-300.5 97.5q-194 0 -301.5 -97.5
t-107.5 -275.5t107.5 -275.5t301.5 -97.5z" />
    <glyph glyph-name="one" unicode="1" horiz-adv-x="1114" 
d="M467 0v940q-150 -90 -420 -137v383q141 20 291 89t252 159h377v-1434h-500z" />
    <glyph glyph-name="two" unicode="2" horiz-adv-x="1722" 
d="M78 1174q125 135 338.5 220t462.5 85q109 0 211.5 -16t197.5 -51.5t166 -86.5t113.5 -127.5t42.5 -169.5q0 -327 -531 -479q-162 -48 -283 -99.5t-153 -89.5h993v-360h-1568v213q27 218 209.5 385.5t500.5 255.5q14 4 41 12q53 15 78.5 23t66 21.5t60.5 23.5t42 24
t31 28.5t9 31.5q0 51 -73.5 80.5t-178.5 29.5q-275 0 -518 -217z" />
    <glyph glyph-name="three" unicode="3" horiz-adv-x="1726" 
d="M346 498q195 -189 467 -189q59 0 110.5 7t98 23t73.5 46t27 70t-25 66t-72.5 38.5t-96 16.5t-115.5 4h-240v311h240q54 0 100 6t86 18.5t63 35.5t23 55q0 34 -24.5 58t-66.5 36.5t-87.5 18t-99.5 5.5q-265 0 -451 -186l-299 223q120 148 325.5 233t453.5 85
q149 0 281.5 -23.5t240.5 -71t171.5 -127.5t63.5 -184q0 -125 -88 -219t-241 -115q83 -14 150 -40.5t121 -66.5t84 -99t30 -132q0 -142 -109 -244.5t-289.5 -152t-410.5 -49.5q-254 0 -464.5 86.5t-336.5 237.5z" />
    <glyph glyph-name="four" unicode="4" horiz-adv-x="1855" 
d="M1804 600v-344h-262v-256h-483v256h-1030v272l1067 906h446v-834h262zM610 600h449v383z" />
    <glyph glyph-name="five" unicode="5" horiz-adv-x="1757" 
d="M293 498q95 -69 253 -119.5t337 -50.5q309 0 309 141q0 149 -318 149q-230 0 -405 -79l-352 127l123 768h1310v-351h-936l-43 -258q207 133 494 133q94 0 184 -18t172 -57.5t144 -96t98.5 -139.5t36.5 -182q0 -84 -27 -158t-89 -139.5t-154.5 -112.5t-232.5 -74.5
t-314 -27.5q-499 0 -832 250z" />
    <glyph glyph-name="six" unicode="6" horiz-adv-x="1863" 
d="M1094 956q77 0 153.5 -10t156.5 -31t148.5 -58.5t123 -88t85.5 -124t31 -161.5q0 -114 -53 -210.5t-153.5 -168t-255.5 -111.5t-349 -40q-419 0 -663 205t-244 559q0 355 244 559.5t663 204.5q252 0 449.5 -62.5t328.5 -173.5l-252 -260q-96 74 -218.5 115t-250.5 41
q-90 0 -162.5 -15.5t-134.5 -50.5t-102.5 -98.5t-54.5 -153.5q101 68 236.5 100.5t273.5 32.5zM981 293q145 0 227 44.5t82 135.5q0 172 -301 172q-221 0 -393 -102q25 -93 83.5 -150t131.5 -78.5t170 -21.5z" />
    <glyph glyph-name="seven" unicode="7" horiz-adv-x="1607" 
d="M266 0l721 1057h-946v377h1538v-289l-756 -1145h-557z" />
    <glyph glyph-name="eight" unicode="8" horiz-adv-x="1853" 
d="M1389 745q82 -14 150 -41.5t122 -69.5t84.5 -102t30.5 -133q0 -139 -109 -240.5t-300 -153.5t-441 -52q-249 0 -439.5 52t-299.5 153.5t-109 240.5q0 73 30.5 133t84.5 102t122 69.5t150 41.5q-156 21 -244 112t-88 216q0 102 63.5 181.5t174.5 128t251.5 73.5t303.5 25
t304 -25t252 -73.5t174.5 -128t63.5 -181.5q0 -125 -87.5 -216t-243.5 -112zM635 1020q0 -66 84 -102.5t207 -36.5q124 0 208.5 36.5t84.5 102.5q0 67 -84 103t-209 36q-124 0 -207.5 -36t-83.5 -103zM926 274q92 0 164.5 16t119.5 54t47 94q0 81 -94 121.5t-237 40.5
q-142 0 -236 -40.5t-94 -121.5t94 -122.5t236 -41.5z" />
    <glyph glyph-name="nine" unicode="9" horiz-adv-x="1863" 
d="M883 1481q419 0 663 -204.5t244 -559.5q0 -354 -244 -559t-663 -205q-252 0 -450.5 62t-328.5 173l252 261q96 -74 219 -115t250 -41q91 0 163 15t134 50t102.5 98.5t55.5 153.5q-101 -68 -236.5 -100.5t-273.5 -32.5q-77 0 -153.5 10t-156.5 31t-148.5 58.5t-123 88
t-85.5 124t-31 161.5q0 114 53 211t153.5 168t255.5 111.5t349 40.5zM573 963q0 -175 301 -175q220 0 394 103q-25 93 -83.5 150t-131.5 78.5t-170 21.5q-145 0 -227.5 -44.5t-82.5 -133.5z" />
    <glyph glyph-name="colon" unicode=":" horiz-adv-x="698" 
d="M348 702q-119 0 -194.5 66.5t-75.5 167.5t75.5 168t194.5 67q120 0 196.5 -67t76.5 -168t-76.5 -167.5t-196.5 -66.5zM348 -31q-119 0 -194.5 67.5t-75.5 168.5q0 100 76 167.5t194 67.5q120 0 196.5 -67.5t76.5 -167.5q0 -101 -76.5 -168.5t-196.5 -67.5z" />
    <glyph glyph-name="semicolon" unicode=";" horiz-adv-x="706" 
d="M348 702q-119 0 -194.5 66.5t-75.5 167.5t75.5 168t194.5 67q120 0 196.5 -67t76.5 -168t-76.5 -167.5t-196.5 -66.5zM342 440q130 0 208.5 -88.5t78.5 -212.5q0 -88 -37.5 -183t-123.5 -193.5t-208 -163.5l-90 137q176 113 223 252q-19 -19 -63 -19q-106 0 -179 68
t-73 168q0 99 75 167t189 68z" />
    <glyph glyph-name="less" unicode="&#x3c;" horiz-adv-x="1501" 
d="M1311 1182l-1166 -375v-395l1166 -377v381l-776 192l776 193v381z" />
    <glyph glyph-name="equal" unicode="=" horiz-adv-x="1501" 
d="M1384 745h-1267v363h1267v-363zM1384 190h-1267v361h1267v-361z" />
    <glyph glyph-name="greater" unicode="&#x3e;" horiz-adv-x="1501" 
d="M193 1182v-381l774 -193l-774 -192v-381l1165 377v395z" />
    <glyph glyph-name="question" unicode="?" horiz-adv-x="1587" 
d="M602 508v332q210 29 304.5 69t94.5 107q0 44 -36 71.5t-86 37.5t-115 10q-266 0 -473 -201l-244 260q148 136 323.5 210.5t409.5 74.5q89 0 175.5 -11.5t169 -34t152 -59.5t122.5 -85t82.5 -114t29.5 -143q0 -119 -70.5 -205.5t-187.5 -131t-274 -54.5v-133h-377z
M786 -31q-120 0 -196 67.5t-76 168.5q0 100 76 167.5t196 67.5q118 0 194.5 -67.5t76.5 -167.5q0 -101 -76 -168.5t-195 -67.5z" />
    <glyph glyph-name="at" unicode="@" horiz-adv-x="2326" 
d="M1159 1427q249 0 453 -63.5t340.5 -177t211 -271t74.5 -344.5q0 -138 -27.5 -235.5t-81.5 -155.5t-127 -84t-171 -26q-142 0 -254 51.5t-172 144.5q-73 -101 -190.5 -152t-247.5 -51q-151 0 -274.5 62.5t-196 180t-72.5 267.5t72.5 266.5t196 178t274.5 61.5
q274 0 422 -200l73 168h320v-596q0 -224 127 -224q78 0 124 95t46 249q0 145 -47.5 263.5t-131.5 200.5t-200.5 138.5t-252 82.5t-288.5 26t-288.5 -26t-252.5 -82.5t-201 -138.5t-131.5 -200.5t-47.5 -263.5t48 -264t131.5 -201.5t200.5 -138.5t252.5 -82t288.5 -26
q397 0 606 137l76 -121q-204 -162 -682 -162q-250 0 -454.5 64t-341 177.5t-211 271.5t-74.5 345t74.5 344.5t211 271t341 177t454.5 63.5zM1092 342q182 0 284 156v143q-104 156 -284 156q-122 0 -191.5 -63.5t-69.5 -164.5q0 -102 69.5 -164.5t191.5 -62.5z" />
    <glyph glyph-name="A" unicode="A" 
d="M1450 0l-117 248h-717l-116 -248h-520l727 1434h542l727 -1434h-526zM768 571h414l-207 443z" />
    <glyph glyph-name="B" unicode="B" horiz-adv-x="1943" 
d="M1460 743q181 -11 300.5 -103.5t119.5 -248.5q0 -180 -160 -285.5t-430 -105.5h-1143v1434h1061q269 0 429.5 -102t160.5 -271q0 -127 -90.5 -217.5t-247.5 -100.5zM639 1112v-240h487q177 0 177 121q0 119 -177 119h-487zM1186 322q182 0 182 131q0 129 -182 129h-547
v-260h547z" />
    <glyph glyph-name="C" unicode="C" horiz-adv-x="1847" 
d="M1006 344q269 0 403 207l412 -217q-101 -169 -320.5 -275t-507.5 -106q-273 0 -479 88t-323 262t-117 414t118 414t328.5 262t491.5 88q275 0 490.5 -106.5t312.5 -272.5l-414 -215q-130 203 -395 203q-194 0 -310 -98.5t-116 -274.5t116 -274.5t310 -98.5z" />
    <glyph glyph-name="D" unicode="D" horiz-adv-x="1970" 
d="M983 1434q278 0 483.5 -83.5t317.5 -246t112 -387.5q0 -224 -112 -386.5t-317.5 -246.5t-483.5 -84h-836v1434h836zM942 381q208 0 326 87.5t118 248.5t-118 248.5t-326 87.5h-295v-672h295z" />
    <glyph glyph-name="E" unicode="E" horiz-adv-x="1802" 
d="M637 360h1085v-360h-1575v1434h1553v-361h-1063v-182h866v-332h-866v-199z" />
    <glyph glyph-name="F" unicode="F" horiz-adv-x="1738" 
d="M1694 1059h-1047v-217h864v-365h-864v-477h-500v1434h1547v-375z" />
    <glyph glyph-name="G" unicode="G" horiz-adv-x="1964" 
d="M1874 848v-594q-125 -144 -336 -222.5t-489 -78.5q-455 0 -715 199.5t-260 564.5t260 564.5t715 199.5q253 0 449 -70.5t325 -185.5l-348 -260q-95 76 -188.5 108.5t-221.5 32.5q-239 0 -362 -101t-123 -288q0 -188 126 -291.5t363 -103.5q210 0 344 90v118h-416v318h877
z" />
    <glyph glyph-name="H" unicode="H" horiz-adv-x="2043" 
d="M1399 1434h499v-1434h-499v530h-752v-530h-500v1434h500v-510h752v510z" />
    <glyph glyph-name="I" unicode="I" horiz-adv-x="792" 
d="M647 0h-500v1434h500v-1434z" />
    <glyph glyph-name="J" unicode="J" horiz-adv-x="1554" 
d="M299 512q70 -85 148.5 -124.5t185.5 -39.5q301 0 301 334v752h500v-791q0 -316 -207.5 -503t-585.5 -187q-433 0 -666 270z" />
    <glyph glyph-name="K" unicode="K" horiz-adv-x="1882" 
d="M1909 0h-582l-416 561l-264 -250v-311h-500v1434h500v-607l623 607h604l-610 -576z" />
    <glyph glyph-name="L" unicode="L" horiz-adv-x="1599" 
d="M647 383h920v-383h-1420v1434h500v-1051z" />
    <glyph glyph-name="M" unicode="M" horiz-adv-x="2330" 
d="M1655 1434h530v-1434h-493v842l-521 -641h-24l-518 641v-842h-482v1434h545l479 -625z" />
    <glyph glyph-name="N" unicode="N" horiz-adv-x="2043" 
d="M1415 1434h483v-1434h-438l-831 858v-858h-482v1434h529l739 -779v779z" />
    <glyph glyph-name="O" unicode="O" horiz-adv-x="2058" 
d="M1028 -47q-287 0 -501 88t-333.5 261.5t-119.5 414.5t119.5 414.5t333.5 261.5t501 88q288 0 503 -88t334.5 -261.5t119.5 -414.5t-119.5 -414.5t-334.5 -261.5t-503 -88zM1028 344q210 0 329.5 98.5t119.5 274.5t-119.5 274.5t-329.5 98.5q-208 0 -328 -98.5
t-120 -274.5t119 -274.5t329 -98.5z" />
    <glyph glyph-name="P" unicode="P" horiz-adv-x="1880" 
d="M1153 1434q318 0 502 -131.5t184 -384.5q0 -128 -49 -227.5t-139.5 -163t-216 -96t-281.5 -32.5h-506v-399h-500v1434h1006zM1112 733q221 0 221 172q0 170 -221 170h-465v-342h465z" />
    <glyph glyph-name="Q" unicode="Q" horiz-adv-x="2058" 
d="M1985 717q0 -364 -267 -570l172 -182l-219 -184l-217 231q-189 -59 -426 -59q-287 0 -501 88t-333.5 261.5t-119.5 414.5t119.5 414.5t333.5 261.5t501 88q288 0 503 -88t334.5 -261.5t119.5 -414.5zM1028 344q58 0 107 6l-156 168l219 184l203 -217q76 95 76 232
q0 176 -119.5 274.5t-329.5 98.5q-208 0 -328 -98.5t-120 -274.5t119 -274.5t329 -98.5z" />
    <glyph glyph-name="R" unicode="R" horiz-adv-x="1939" 
d="M1896 0h-569l-348 422h-336v-422h-496v1434h1018q146 0 269 -31.5t217 -92.5t147 -159t53 -223q0 -171 -95 -287t-263 -172zM643 756h481q105 0 163.5 36t58.5 123t-58.5 123.5t-163.5 36.5h-481v-319z" />
    <glyph glyph-name="S" unicode="S" horiz-adv-x="1837" 
d="M956 934q155 -13 270.5 -31.5t223.5 -53.5t176.5 -84.5t109 -125.5t40.5 -176q0 -237 -208.5 -373.5t-598.5 -136.5q-278 0 -516 70.5t-412 201.5l248 287q128 -96 306 -151.5t382 -55.5q305 0 305 107q0 52 -72.5 75t-275.5 41q-118 10 -215.5 25.5t-195 40t-171 60
t-131.5 83t-88.5 113t-30.5 145.5q0 153 105.5 264t286 166.5t415.5 55.5q230 0 441.5 -53t363.5 -154l-237 -291q-229 150 -568 150q-60 0 -111 -4.5t-99 -14.5t-75.5 -30t-27.5 -48q0 -48 80.5 -67t279.5 -35z" />
    <glyph glyph-name="T" unicode="T" horiz-adv-x="1691" 
d="M1663 1434v-379h-567v-1055h-500v1055h-565v379h1632z" />
    <glyph glyph-name="U" unicode="U" horiz-adv-x="1959" 
d="M1337 1434h500v-758q0 -335 -224.5 -529t-631.5 -194t-632.5 194t-225.5 529v758h500v-719q0 -168 89.5 -267.5t268.5 -99.5q178 0 267 99.5t89 267.5v719z" />
    <glyph glyph-name="V" unicode="V" horiz-adv-x="1843" 
d="M-20 1434h534l412 -965l411 965h529l-682 -1434h-522z" />
    <glyph glyph-name="W" unicode="W" horiz-adv-x="2623" 
d="M2124 1434h493l-522 -1434h-489l-293 920l-295 -920h-490l-522 1434h502l278 -918l306 918h448l305 -918z" />
    <glyph glyph-name="X" unicode="X" horiz-adv-x="1810" 
d="M1815 1434l-627 -697l643 -737h-592l-350 410l-350 -410h-559l641 729l-625 705h594l332 -387l331 387h562z" />
    <glyph glyph-name="Y" unicode="Y" horiz-adv-x="1775" 
d="M-20 1434h550l359 -570l356 570h549l-657 -957v-477h-500v477z" />
    <glyph glyph-name="Z" unicode="Z" horiz-adv-x="1818" 
d="M1708 1434v-297l-913 -775h946v-362h-1665v297l913 774h-876v363h1595z" />
    <glyph glyph-name="bracketleft" unicode="[" horiz-adv-x="976" 
d="M901 1120h-354v-1052h354v-314h-754v1680h754v-314z" />
    <glyph glyph-name="backslash" unicode="\" horiz-adv-x="1634" 
d="M1079 -205l-1036 1802h514l1034 -1802h-512z" />
    <glyph glyph-name="bracketright" unicode="]" horiz-adv-x="976" 
d="M76 1120v314h755v-1680h-755v314h354v1052h-354z" />
    <glyph glyph-name="asciicircum" unicode="^" horiz-adv-x="1501" 
d="M133 532h387l232 549l229 -549h387l-436 902h-363z" />
    <glyph glyph-name="underscore" unicode="_" horiz-adv-x="1398" 
d="M1397 -401h-1395v323h1395v-323z" />
    <glyph glyph-name="grave" unicode="`" horiz-adv-x="1249" 
d="M190 1954h576l262 -357h-342z" />
    <glyph glyph-name="a" unicode="a" horiz-adv-x="1599" 
d="M766 1186q340 0 528.5 -142t188.5 -403v-428q0 -121 49 -213h-485q-37 54 -37 100v4q-66 -67 -177 -106t-247 -39q-75 0 -146.5 11.5t-143 40t-125 71t-87 110t-33.5 150.5t33.5 149.5t87 109t124.5 71t143 40t147 11.5q136 0 247 -40t177 -108v72q0 105 -88 160t-256 55
q-222 0 -404 -84l-94 299q117 52 281.5 80.5t316.5 28.5zM1018 332v18q-91 111 -285 111q-39 0 -74.5 -6t-68.5 -19t-52.5 -37t-19.5 -57q0 -44 35 -72.5t80.5 -38.5t99.5 -10q194 0 285 111z" />
    <glyph glyph-name="b" unicode="b" horiz-adv-x="1712" 
d="M1053 1182q269 0 432.5 -164t163.5 -447q0 -284 -163.5 -448t-432.5 -164q-289 0 -445 193v-152h-483v1516h483v-527q153 193 445 193zM909 309q137 0 211 69.5t74 192.5q0 121 -74.5 190.5t-210.5 69.5q-190 0 -301 -141v-239q112 -142 301 -142z" />
    <glyph glyph-name="c" unicode="c" horiz-adv-x="1511" 
d="M1485 295q-77 -152 -244.5 -247t-423.5 -95q-347 0 -550.5 166t-203.5 452q0 285 204 452t550 167q130 0 241 -27.5t191.5 -75.5t137 -107.5t92.5 -129.5l-398 -160q-69 141 -260 141q-136 0 -218.5 -69t-82.5 -191q0 -124 82.5 -193t218.5 -69q196 0 269 148z" />
    <glyph glyph-name="d" unicode="d" horiz-adv-x="1714" 
d="M662 1182q288 0 444 -193v527h481v-1516h-481v152q-159 -193 -444 -193q-270 0 -434.5 164t-164.5 448q0 283 164.5 447t434.5 164zM803 309q192 0 301 142v239q-108 141 -301 141q-135 0 -209 -69.5t-74 -190.5q0 -123 74 -192.5t209 -69.5z" />
    <glyph glyph-name="e" unicode="e" horiz-adv-x="1587" 
d="M520 471q27 -103 115 -149t242 -46q122 0 204.5 27.5t169.5 89.5l234 -241q-225 -199 -635 -199q-373 0 -580 163.5t-207 454.5q0 287 201.5 453t548.5 166q124 0 232 -24t197.5 -73.5t153.5 -121t99 -170t35 -217.5q0 -62 -14 -113h-996zM817 870q-227 0 -287 -168
l564 3q-59 165 -277 165z" />
    <glyph glyph-name="f" unicode="f" horiz-adv-x="1142" 
d="M696 1147v-6h420v-328h-405v-813h-482v813h-192v328h192q15 207 157 313.5t368 106.5q92 0 197 -17t177 -47l-53 -254q-104 37 -188 37q-93 0 -142 -36.5t-49 -96.5z" />
    <glyph glyph-name="g" unicode="g" horiz-adv-x="1712" 
d="M1587 1141v-916q0 -110 -25 -203.5t-68.5 -161.5t-104.5 -122.5t-130 -89t-149 -57.5t-157 -32.5t-158 -9.5q-162 0 -337.5 35t-285.5 92l117 301q72 -42 196 -72t250 -30q189 0 280 70t91 190v82q-79 -96 -195 -143t-252 -47q-272 0 -434 153.5t-162 423.5
q0 271 162 424.5t434 153.5q293 0 447 -193v152h481zM797 365q186 0 309 155v166q-122 158 -309 158q-132 0 -204.5 -65t-72.5 -175q0 -109 73 -174t204 -65z" />
    <glyph glyph-name="h" unicode="h" horiz-adv-x="1665" 
d="M1051 1182q236 0 369.5 -138.5t133.5 -363.5v-680h-481v649q0 86 -50.5 135.5t-141.5 49.5q-162 0 -273 -166v-668h-483v1141v375h483v-408v-133q153 207 443 207z" />
    <glyph glyph-name="i" unicode="i" horiz-adv-x="733" 
d="M367 1235q-121 0 -196 60t-75 159t75 159t196 60t195.5 -60t74.5 -159t-74.5 -159t-195.5 -60zM608 1141v-1141h-481v1141h481z" />
    <glyph glyph-name="j" unicode="j" horiz-adv-x="733" 
d="M367 1235q-121 0 -196 60t-75 159t75 159t196 60t195.5 -60t74.5 -159t-74.5 -159t-195.5 -60zM125 1141h481v-1100q0 -229 -136 -362.5t-366 -133.5q-153 0 -307 56l68 290q68 -22 121 -22q62 0 100.5 35t38.5 104v1133z" />
    <glyph glyph-name="k" unicode="k" horiz-adv-x="1574" 
d="M1085 0l-292 414l-185 -176v-238h-483v1516h483v-826l439 451h524l-457 -467l481 -674h-510z" />
    <glyph glyph-name="l" unicode="l" horiz-adv-x="735" 
d="M608 0h-481v1516h481v-1516z" />
    <glyph glyph-name="m" unicode="m" horiz-adv-x="2533" 
d="M1937 1182q159 0 270 -66t163.5 -178t52.5 -260v-678h-481v651q0 85 -45.5 134t-131.5 49q-150 0 -249 -170v-664h-482v651q0 85 -45.5 134t-132.5 49q-149 0 -248 -168v-666h-483v1141h483v-168q143 209 422 209q170 0 283 -73.5t164 -205.5q59 126 176 202.5t284 76.5z
" />
    <glyph glyph-name="n" unicode="n" horiz-adv-x="1665" 
d="M608 0h-483v1141h483v-166q153 207 443 207q236 0 369.5 -138.5t133.5 -363.5v-680h-481v649q0 86 -50.5 135.5t-141.5 49.5q-162 0 -273 -166v-668z" />
    <glyph glyph-name="o" unicode="o" horiz-adv-x="1650" 
d="M825 -47q-351 0 -556.5 165.5t-205.5 452.5q0 286 206 451.5t556 165.5t556 -165.5t206 -451.5q0 -287 -205.5 -452.5t-556.5 -165.5zM825 311q137 0 221 68.5t84 191.5t-84 190.5t-221 67.5q-136 0 -220.5 -67.5t-84.5 -190.5t84.5 -191.5t220.5 -68.5z" />
    <glyph glyph-name="p" unicode="p" horiz-adv-x="1712" 
d="M1053 -41q-289 0 -445 193v-562h-483v1551h483v-150q156 193 445 193q268 0 432 -165t164 -448t-163.5 -447.5t-432.5 -164.5zM909 831q-190 0 -301 -141v-237q112 -142 301 -142q137 0 211 68.5t74 191.5q0 121 -74.5 190.5t-210.5 69.5z" />
    <glyph glyph-name="q" unicode="q" horiz-adv-x="1712" 
d="M662 -41q-270 0 -434.5 164.5t-164.5 447.5t164.5 448t434.5 165q285 0 444 -193v150h481v-1551h-481v562q-159 -193 -444 -193zM803 831q-135 0 -209 -69.5t-74 -190.5q0 -122 74 -191t209 -69q192 0 301 142v237q-108 141 -301 141z" />
    <glyph glyph-name="r" unicode="r" horiz-adv-x="1089" 
d="M608 0h-483v1141h483v-191q68 111 184.5 165t264.5 54v-395q-181 0 -297 -66.5t-152 -195.5v-512z" />
    <glyph glyph-name="s" unicode="s" horiz-adv-x="1503" 
d="M797 754q143 -7 259 -31.5t207 -69.5t141 -116.5t50 -165.5q0 -87 -42.5 -161.5t-124.5 -132.5t-215.5 -91t-303.5 -33q-222 0 -409.5 54.5t-321.5 144.5l196 245q231 -143 549 -143q111 0 166.5 16t55.5 54q0 36 -57 52t-202 25q-132 7 -245 31.5t-209.5 68.5
t-151.5 117t-55 168q0 182 185 293t495 111q188 0 355.5 -39t289.5 -109l-197 -254q-176 99 -454 99q-226 0 -226 -66q0 -34 58 -46t207 -21z" />
    <glyph glyph-name="t" unicode="t" horiz-adv-x="1175" 
d="M1069 377l68 -305q-79 -55 -196.5 -86t-227.5 -31q-218 0 -351 116t-133 330v412h-192v328h192v264h482v-264h413v-328h-413v-334q0 -68 46.5 -108.5t125.5 -40.5q73 0 186 47z" />
    <glyph glyph-name="u" unicode="u" horiz-adv-x="1667" 
d="M1057 1141h483v-1141h-483v166q-153 -207 -443 -207q-236 0 -369.5 138.5t-133.5 363.5v680h481v-649q0 -86 50.5 -135.5t141.5 -49.5q162 0 273 166v668z" />
    <glyph glyph-name="v" unicode="v" horiz-adv-x="1572" 
d="M1579 1141l-547 -1141h-491l-547 1141h502l295 -703l294 703h494z" />
    <glyph glyph-name="w" unicode="w" horiz-adv-x="2183" 
d="M1720 1141h451l-395 -1141h-455l-229 692l-230 -692h-452l-396 1141h459l201 -660l215 660h414l215 -660z" />
    <glyph glyph-name="x" unicode="x" horiz-adv-x="1533" 
d="M1526 1141l-490 -553l504 -588h-536l-248 309l-252 -309h-510l504 580l-490 561h537l235 -291l238 291h508z" />
    <glyph glyph-name="y" unicode="y" horiz-adv-x="1546" 
d="M1067 1141h485l-770 -1551h-483l246 469l-551 1082h493l297 -654z" />
    <glyph glyph-name="z" unicode="z" horiz-adv-x="1482" 
d="M1384 1141v-279l-657 -520h682v-342h-1339v281l657 520h-629v340h1286z" />
    <glyph glyph-name="braceleft" unicode="{" horiz-adv-x="1105" 
d="M772 901q0 -129 -76 -215t-217 -90q140 -7 216.5 -94t76.5 -213q0 -113 58.5 -167t138.5 -54h61v-314h-123q-94 0 -171 11.5t-146.5 40.5t-116.5 74.5t-74.5 117.5t-27.5 166q0 182 -94 259t-273 77v190q179 0 273 77.5t94 260.5q0 93 27.5 164.5t74.5 116.5t116.5 73.5
t146.5 40t171 11.5h123v-314h-61q-80 0 -138.5 -53t-58.5 -166z" />
    <glyph glyph-name="bar" unicode="|" horiz-adv-x="747" 
d="M150 -246v1680h448v-1680h-448z" />
    <glyph glyph-name="braceright" unicode="}" horiz-adv-x="1105" 
d="M332 901q0 59 -17.5 103t-46.5 68.5t-62 36t-69 11.5h-61v314h123q94 0 171 -11.5t146.5 -40t116.5 -73.5t74.5 -116.5t27.5 -164.5q0 -184 93 -261t274 -77v-190q-180 0 -273.5 -77t-93.5 -259q0 -94 -27.5 -166t-74.5 -117.5t-116.5 -74.5t-146.5 -40.5t-171 -11.5
h-123v314h61q78 0 136.5 54t58.5 167q0 127 76.5 213.5t218.5 93.5q-142 4 -218.5 90t-76.5 215z" />
    <glyph glyph-name="asciitilde" unicode="~" horiz-adv-x="1501" 
d="M1206 856l172 -334q-59 -60 -147 -95.5t-191 -35.5q-102 0 -268.5 46t-245.5 46q-73 0 -122.5 -21.5t-106.5 -66.5l-172 334q57 60 146 95.5t194 35.5q99 0 265.5 -46t248.5 -46q142 0 227 88z" />
    <glyph glyph-name="exclamdown" unicode="&#xa1;" horiz-adv-x="782" 
d="M389 1055q120 0 196.5 -67.5t76.5 -168.5q0 -100 -76.5 -167.5t-196.5 -67.5q-118 0 -194 67.5t-76 167.5q0 101 75.5 168.5t194.5 67.5zM104 -410l78 883h418l76 -883h-572z" />
    <glyph glyph-name="cent" unicode="&#xa2;" horiz-adv-x="1497" 
d="M1434 459q-63 -129 -202.5 -215.5t-342.5 -104.5v-139h-191v139q-287 22 -451.5 171t-164.5 407t164.5 406.5t451.5 170.5v140h191v-140q203 -18 341.5 -103.5t201.5 -213.5l-342 -141q-63 109 -201 135v-508q137 27 201 137zM500 717q0 -97 53 -161.5t145 -88.5v500
q-92 -24 -145 -88.5t-53 -161.5z" />
    <glyph glyph-name="sterling" unicode="&#xa3;" horiz-adv-x="1609" 
d="M834 328h694v-328h-1178h-266v328h266v247h-266v279h266v68q0 86 27.5 168t82.5 153.5t132.5 125.5t184.5 85t231 31q162 0 294 -48t209 -118l-163 -297q-113 86 -248 86q-129 0 -197.5 -60.5t-68.5 -179.5v-14h575v-279h-575v-247z" />
    <glyph glyph-name="currency" unicode="&#xa4;" horiz-adv-x="1628" 
d="M1454 729q0 -195 -104 -336l188 -186l-207 -191l-215 199q-128 -55 -301 -55q-172 0 -303 55l-213 -199l-209 191l189 186q-103 144 -103 336q0 174 84 305l-170 170l209 189l178 -166q149 73 338 73q188 0 336 -71l180 164l207 -189l-168 -170q84 -131 84 -305zM815 475
q122 0 199.5 68.5t77.5 185.5t-77.5 185.5t-199.5 68.5q-123 0 -199.5 -68t-76.5 -186t76.5 -186t199.5 -68z" />
    <glyph glyph-name="yen" unicode="&#xa5;" horiz-adv-x="1843" 
d="M1792 1434l-469 -693h260v-184h-385l-27 -39v-82h412v-182h-412v-254h-499v254h-410v182h410v82l-25 39h-385v184h260l-471 693h543l330 -566l327 566h541z" />
    <glyph glyph-name="brokenbar" unicode="&#xa6;" horiz-adv-x="747" 
d="M150 756v678h448v-678h-448zM598 444v-690h-448v690h448z" />
    <glyph glyph-name="section" unicode="&#xa7;" horiz-adv-x="1548" 
d="M1321 367q133 -83 133 -242q0 -87 -42 -162.5t-123 -134t-212.5 -92t-298.5 -33.5q-396 0 -708 197l192 241q234 -145 529 -145q106 0 169.5 21.5t63.5 62.5q0 39 -62 57.5t-202 28.5q-106 8 -193.5 23t-172.5 44.5t-143.5 71t-94 105t-35.5 143.5q0 170 149 287
q-147 90 -147 250q0 125 85 215.5t233.5 135t344.5 44.5q184 0 347.5 -40.5t283.5 -113.5l-194 -241q-173 102 -435 102q-101 2 -171 -16.5t-70 -59.5q0 -38 67.5 -56t204.5 -26q114 -7 204 -21t173.5 -41.5t138.5 -66.5t88 -98.5t33 -136.5q0 -180 -135 -303zM551 598
q0 -53 70.5 -84t195.5 -37q9 -1 27.5 -2t27.5 -2q72 13 112 49t40 78q0 52 -61 84t-179 39q-12 2 -41 2q-83 -8 -137.5 -42t-54.5 -85z" />
    <glyph glyph-name="dieresis" unicode="&#xa8;" horiz-adv-x="1249" 
d="M330 1585q-98 0 -159.5 51.5t-61.5 135.5t61.5 133t159.5 49q97 0 158 -49.5t61 -132.5q0 -84 -61.5 -135.5t-157.5 -51.5zM922 1585q-98 0 -160 51.5t-62 135.5q0 83 62 132.5t160 49.5q97 0 158 -49.5t61 -132.5q0 -84 -61.5 -135.5t-157.5 -51.5z" />
    <glyph glyph-name="copyright" unicode="&#xa9;" horiz-adv-x="2037" 
d="M1020 -47q-282 0 -497 95t-332 268.5t-117 400.5t117 400.5t332 268.5t497 95q281 0 495.5 -95t331.5 -268.5t117 -400.5t-117 -400.5t-331.5 -268.5t-495.5 -95zM1020 61q242 0 427.5 75.5t292.5 225.5t107 355t-107 355.5t-292.5 226t-427.5 75.5q-181 0 -333 -44
t-263 -126.5t-173.5 -207.5t-62.5 -279q0 -205 108 -355t295 -225.5t429 -75.5zM1608 455q-82 -117 -233.5 -194t-362.5 -77q-185 0 -327.5 62t-224 184t-81.5 289q0 166 81.5 288t224 184t327.5 62q213 0 361 -77t216 -193l-297 -141q-54 70 -113.5 99.5t-136.5 29.5
q-131 0 -205.5 -68.5t-74.5 -183.5t74.5 -182.5t205.5 -67.5q77 0 137.5 29t114.5 98z" />
    <glyph glyph-name="ordfeminine" unicode="&#xaa;" horiz-adv-x="1208" 
d="M571 1475q239 0 371.5 -101t132.5 -287v-303q0 -89 45 -153h-352q-31 31 -31 74v4q-43 -51 -121.5 -79t-175.5 -28q-52 0 -102.5 8.5t-100 28.5t-86.5 50t-60 77t-23 106q0 73 34 128.5t90.5 85.5t118.5 44.5t129 14.5q97 0 175.5 -29t121.5 -80v58q0 73 -61 113t-174 40
q-149 0 -289 -63l-63 215q81 37 196.5 56.5t224.5 19.5zM743 866v13q-59 79 -194 79q-59 0 -103.5 -19.5t-44.5 -66.5q0 -46 45 -66t103 -20q132 0 194 80z" />
    <glyph glyph-name="guillemotleft" unicode="&#xab;" horiz-adv-x="1632" 
d="M1118 1092l-430 -465l430 -465h438l-430 465l430 465h-438zM485 1092l-430 -465l430 -465h439l-430 465l430 465h-439z" />
    <glyph glyph-name="logicalnot" unicode="&#xac;" horiz-adv-x="1501" 
d="M80 770h1319v-668h-395v324h-924v344z" />
    <glyph glyph-name="registered" unicode="&#xae;" horiz-adv-x="1193" 
d="M596 1454q101 0 193 -30t164.5 -85.5t115.5 -141t43 -189.5q0 -137 -74.5 -241t-190 -155t-251.5 -51t-251 51t-189 155t-74 241q0 104 43 189.5t114.5 141t163.5 85.5t193 30zM598 633q117 0 214 41.5t158.5 128.5t61.5 205t-61.5 205t-158.5 128t-214 41
q-118 0 -215.5 -41t-159 -128t-61.5 -205q0 -176 126.5 -275.5t309.5 -99.5zM879 1090q0 -107 -115 -148l127 -147h-189l-110 133h-84v-133h-168v454h319q98 0 159 -40.5t61 -118.5zM508 1133v-99h129q70 0 70 49q0 50 -70 50h-129z" />
    <glyph glyph-name="macron" unicode="&#xaf;" horiz-adv-x="1249" 
d="M121 1933h1007v-313h-1007v313z" />
    <glyph glyph-name="degree" unicode="&#xb0;" horiz-adv-x="872" 
d="M436 860q-163 0 -266.5 82.5t-103.5 224.5q0 140 103.5 223t266.5 83t267 -83t104 -223q0 -142 -104 -224.5t-267 -82.5zM436 1042q65 0 103.5 34t38.5 91q0 56 -39 89.5t-103 33.5t-102.5 -33.5t-38.5 -89.5q0 -57 38.5 -91t102.5 -34z" />
    <glyph glyph-name="plusminus" unicode="&#xb1;" horiz-adv-x="1501" 
d="M930 1075h454v-323h-454v-334h-359v334h-454v323h454v332h359v-332zM117 8v326h1267v-326h-1267z" />
    <glyph glyph-name="uni00B2" unicode="&#xb2;" horiz-adv-x="1001" 
d="M57 1632q80 80 198 129t257 49q79 0 151 -15t133 -46t97.5 -84.5t36.5 -122.5q0 -192 -295 -287q-209 -67 -240 -106h549v-221h-897v133q14 128 117.5 227t284.5 154q11 4 30.5 10t29.5 9.5t26.5 9t25 9.5t20.5 9.5t18 10.5t12.5 11t9 13t2.5 14q0 28 -36.5 43.5
t-90.5 15.5q-143 0 -279 -127z" />
    <glyph glyph-name="uni00B3" unicode="&#xb3;" horiz-adv-x="1005" 
d="M211 1227q117 -111 256 -111q67 0 115.5 20t48.5 66q0 72 -158 72h-139v186h139q135 0 135 68q0 67 -145 67q-131 0 -246 -106l-176 125q67 93 185.5 144.5t260.5 51.5q84 0 159.5 -14t138 -41.5t99 -75t36.5 -108.5q0 -76 -48.5 -133t-136.5 -68q99 -19 158 -68.5
t59 -134.5q0 -126 -131 -196t-334 -70q-144 0 -265 53.5t-191 149.5z" />
    <glyph glyph-name="acute" unicode="&#xb4;" horiz-adv-x="1249" 
d="M1061 1954l-498 -357h-342l262 357h578z" />
    <glyph glyph-name="paragraph" unicode="&#xb6;" horiz-adv-x="1992" 
d="M686 1434h1161v-1434h-395v1102h-182v-1102h-393v414h-191q-142 0 -257.5 30.5t-202.5 91.5t-135 159.5t-48 228.5q0 167 84.5 284t227 171.5t331.5 54.5zM877 735v367h-199q-99 0 -158 -45.5t-59 -138.5q0 -91 59 -137t158 -46h199z" />
    <glyph glyph-name="periodcentered" unicode="&#xb7;" horiz-adv-x="698" 
d="M348 356q-119 0 -194.5 66.5t-75.5 167.5t75.5 168t194.5 67q120 0 196.5 -67t76.5 -168t-76.5 -167.5t-196.5 -66.5z" />
    <glyph glyph-name="cedilla" unicode="&#xb8;" horiz-adv-x="1249" 
d="M813 -127l-319 -336l-293 78l205 315z" />
    <glyph glyph-name="uni00B9" unicode="&#xb9;" horiz-adv-x="686" 
d="M272 928v555q-91 -57 -235 -80v233q81 10 167 51.5t144 96.5h230v-856h-306z" />
    <glyph glyph-name="ordmasculine" unicode="&#xba;" horiz-adv-x="1204" 
d="M604 598q-247 0 -392.5 118t-145.5 322q0 203 145.5 322t392.5 119t392 -118.5t145 -322.5q0 -205 -145 -322.5t-392 -117.5zM604 854q96 0 153.5 48.5t57.5 135.5q0 85 -58 134t-153 49t-153 -49t-58 -134q0 -87 57.5 -135.5t153.5 -48.5z" />
    <glyph glyph-name="guillemotright" unicode="&#xbb;" horiz-adv-x="1632" 
d="M514 1092h-438l430 -465l-430 -465h438l430 465zM1147 1092h-438l430 -465l-430 -465h438l430 465z" />
    <glyph glyph-name="onequarter" unicode="&#xbc;" horiz-adv-x="2189" 
d="M272 578v555q-87 -54 -235 -78v231q81 10 167 51.5t144 96.5h230v-856h-306zM672 0h-332l950 1434h332zM2148 362v-208h-145v-154h-295v154h-578v165l599 537h274v-494h145zM1481 362h225v216z" />
    <glyph glyph-name="onehalf" unicode="&#xbd;" horiz-adv-x="2252" 
d="M272 578v555q-87 -54 -235 -78v231q81 10 167 51.5t144 96.5h230v-856h-306zM668 0h-332l950 1434h332zM1309 705q78 80 196 129t256 49q79 0 151 -15.5t133.5 -46t98.5 -84.5t37 -123q0 -190 -297 -286q-205 -68 -239 -107h550v-221h-899v133q14 128 117.5 227
t284.5 154q11 4 30.5 10t30 9.5t26.5 9t25.5 9.5t21 9.5t18 10.5t13 11t9 13t2.5 14q0 28 -37.5 44t-91.5 16q-143 0 -279 -127z" />
    <glyph glyph-name="threequarters" unicode="&#xbe;" horiz-adv-x="2488" 
d="M211 877q121 -111 256 -111q67 0 115.5 20t48.5 66q0 72 -158 72h-139v186h139q135 0 135 68q0 67 -145 67q-134 0 -246 -106l-176 125q67 93 185.5 144.5t260.5 51.5q84 0 159.5 -14t138 -41.5t99 -75t36.5 -108.5q0 -76 -48.5 -133t-136.5 -68q99 -19 158 -68t59 -133
q0 -127 -131 -197.5t-334 -70.5q-144 0 -265 53.5t-191 149.5zM971 0h-332l950 1434h332zM2447 362v-208h-145v-154h-295v154h-577v165l598 537h274v-494h145zM1780 362h225v216z" />
    <glyph glyph-name="questiondown" unicode="&#xbf;" horiz-adv-x="1587" 
d="M801 1171q120 0 196 -67t76 -168q0 -100 -76 -168t-196 -68q-118 0 -194.5 68t-76.5 168q0 101 76 168t195 67zM985 633v-332q-209 -27 -304 -67t-95 -109q0 -62 68.5 -89.5t170.5 -27.5q269 0 471 199l246 -258q-149 -137 -324 -211t-411 -74q-108 0 -210.5 15.5
t-197.5 50.5t-165.5 85.5t-113 127t-42.5 168.5q0 175 145.5 274t386.5 117v131h375z" />
    <glyph glyph-name="Agrave" unicode="&#xc0;" 
d="M1233 1597h-342l-496 357h576zM1450 0l-117 248h-717l-116 -248h-520l727 1434h542l727 -1434h-526zM768 571h414l-207 443z" />
    <glyph glyph-name="Aacute" unicode="&#xc1;" 
d="M1563 1954l-498 -357h-342l262 357h578zM1450 0l-117 248h-717l-116 -248h-520l727 1434h542l727 -1434h-526zM768 571h414l-207 443z" />
    <glyph glyph-name="Acircumflex" unicode="&#xc2;" 
d="M977 1769l-148 -172h-403l303 357h502l303 -357h-410zM1450 0l-117 248h-717l-116 -248h-520l727 1434h542l727 -1434h-526zM768 571h414l-207 443z" />
    <glyph glyph-name="Atilde" unicode="&#xc3;" 
d="M780 1663q-63 0 -110 -21.5t-105 -66.5l-172 303q57 60 146 95.5t194 35.5q80 0 161 -23t153.5 -46t132.5 -23q128 0 213 88l172 -305q-58 -60 -146.5 -94.5t-191.5 -34.5q-82 0 -163.5 23t-153.5 46t-130 23zM1450 0l-117 248h-717l-116 -248h-520l727 1434h542
l727 -1434h-526zM768 571h414l-207 443z" />
    <glyph glyph-name="Adieresis" unicode="&#xc4;" 
d="M684 1585q-98 0 -159.5 51t-61.5 136q0 84 61.5 133t159.5 49q97 0 158 -49.5t61 -132.5q0 -85 -61 -136t-158 -51zM1276 1585q-98 0 -159.5 51t-61.5 136q0 84 61.5 133t159.5 49q97 0 158 -49.5t61 -132.5q0 -85 -61 -136t-158 -51zM1450 0l-117 248h-717l-116 -248
h-520l727 1434h542l727 -1434h-526zM768 571h414l-207 443z" />
    <glyph glyph-name="Aring" unicode="&#xc5;" 
d="M979 1571q-165 0 -260.5 67t-95.5 189t96 191t260 69t260 -69t96 -191t-95.5 -189t-260.5 -67zM979 1923q-46 0 -74 -26t-28 -70q0 -43 28 -68.5t74 -25.5t74 25.5t28 68.5q0 44 -28 70t-74 26zM1450 0l-117 248h-717l-116 -248h-520l727 1434h542l727 -1434h-526z
M768 571h414l-207 443z" />
    <glyph glyph-name="AE" unicode="&#xc6;" horiz-adv-x="3014" 
d="M1849 360h1086v-360h-1577v264h-635l-211 -264h-553l1212 1434h230h1511v-361h-1063v-182h865v-332h-865v-199zM977 582h381v475z" />
    <glyph glyph-name="Ccedilla" unicode="&#xc7;" horiz-adv-x="1847" 
d="M1006 344q269 0 403 207l412 -217q-101 -169 -320.5 -275t-507.5 -106q-273 0 -479 88t-323 262t-117 414t118 414t328.5 262t491.5 88q275 0 490.5 -106.5t312.5 -272.5l-414 -215q-130 203 -395 203q-194 0 -310 -98.5t-116 -274.5t116 -274.5t310 -98.5zM1204 -127
l-319 -336l-293 78l205 315z" />
    <glyph glyph-name="Egrave" unicode="&#xc8;" horiz-adv-x="1802" 
d="M336 1954h575l263 -357h-343zM637 360h1085v-360h-1575v1434h1553v-361h-1063v-182h866v-332h-866v-199z" />
    <glyph glyph-name="Eacute" unicode="&#xc9;" horiz-adv-x="1802" 
d="M1501 1954l-497 -357h-342l262 357h577zM637 360h1085v-360h-1575v1434h1553v-361h-1063v-182h866v-332h-866v-199z" />
    <glyph glyph-name="Ecircumflex" unicode="&#xca;" horiz-adv-x="1802" 
d="M365 1597h403l147 172l148 -172h410l-304 357h-501zM637 360h1085v-360h-1575v1434h1553v-361h-1063v-182h866v-332h-866v-199z" />
    <glyph glyph-name="Edieresis" unicode="&#xcb;" horiz-adv-x="1802" 
d="M623 1585q-98 0 -160 51t-62 136q0 83 62 132.5t160 49.5q97 0 158 -49.5t61 -132.5q0 -85 -61 -136t-158 -51zM1214 1585q-98 0 -159.5 51t-61.5 136q0 84 61.5 133t159.5 49q97 0 158.5 -49.5t61.5 -132.5q0 -85 -61.5 -136t-158.5 -51zM637 360h1085v-360h-1575v1434
h1553v-361h-1063v-182h866v-332h-866v-199z" />
    <glyph glyph-name="Igrave" unicode="&#xcc;" horiz-adv-x="792" 
d="M-188 1954h577l262 -357h-342zM647 0h-500v1434h500v-1434z" />
    <glyph glyph-name="Iacute" unicode="&#xcd;" horiz-adv-x="792" 
d="M981 1954l-498 -357h-342l262 357h578zM647 0h-500v1434h500v-1434z" />
    <glyph glyph-name="Icircumflex" unicode="&#xce;" horiz-adv-x="792" 
d="M-158 1597h406l147 172l148 -172h409l-303 357h-502zM647 0h-500v1434h500v-1434z" />
    <glyph glyph-name="Idieresis" unicode="&#xcf;" horiz-adv-x="792" 
d="M102 1585q-98 0 -159.5 51t-61.5 136q0 84 61.5 133t159.5 49q97 0 158.5 -49.5t61.5 -132.5q0 -85 -61.5 -136t-158.5 -51zM694 1585q-98 0 -159.5 51t-61.5 136q0 84 61.5 133t159.5 49q97 0 158 -49.5t61 -132.5q0 -85 -61 -136t-158 -51zM647 0h-500v1434h500v-1434z
" />
    <glyph glyph-name="Eth" unicode="&#xd0;" horiz-adv-x="2045" 
d="M1069 1434q425 0 664 -188.5t239 -528.5q0 -339 -239 -528t-664 -189h-848v598h-188v264h188v572h848zM1020 373q208 0 325 89.5t117 254.5t-117 254.5t-325 89.5h-301v-199h350v-264h-350v-225h301z" />
    <glyph glyph-name="Ntilde" unicode="&#xd1;" horiz-adv-x="2043" 
d="M1436 2005l172 -305q-58 -60 -146.5 -94.5t-191.5 -34.5q-82 0 -163.5 23t-153.5 46t-130 23q-63 0 -110 -21.5t-105 -66.5l-172 303q57 60 146 95.5t194 35.5q80 0 161 -23t153.5 -46t132.5 -23q128 0 213 88zM1415 1434h483v-1434h-438l-831 858v-858h-482v1434h529
l739 -779v779z" />
    <glyph glyph-name="Ograve" unicode="&#xd2;" horiz-adv-x="2058" 
d="M449 1954h575l262 -357h-342zM1028 -47q-287 0 -501 88t-333.5 261.5t-119.5 414.5t119.5 414.5t333.5 261.5t501 88q288 0 503 -88t334.5 -261.5t119.5 -414.5t-119.5 -414.5t-334.5 -261.5t-503 -88zM1028 344q210 0 329.5 98.5t119.5 274.5t-119.5 274.5t-329.5 98.5
q-208 0 -328 -98.5t-120 -274.5t119 -274.5t329 -98.5z" />
    <glyph glyph-name="Oacute" unicode="&#xd3;" horiz-adv-x="2058" 
d="M1614 1954l-498 -357h-342l262 357h578zM1028 -47q-287 0 -501 88t-333.5 261.5t-119.5 414.5t119.5 414.5t333.5 261.5t501 88q288 0 503 -88t334.5 -261.5t119.5 -414.5t-119.5 -414.5t-334.5 -261.5t-503 -88zM1028 344q210 0 329.5 98.5t119.5 274.5t-119.5 274.5
t-329.5 98.5q-208 0 -328 -98.5t-120 -274.5t119 -274.5t329 -98.5z" />
    <glyph glyph-name="Ocircumflex" unicode="&#xd4;" horiz-adv-x="2058" 
d="M477 1597h404l147 172l148 -172h409l-303 357h-502zM1028 -47q-287 0 -501 88t-333.5 261.5t-119.5 414.5t119.5 414.5t333.5 261.5t501 88q288 0 503 -88t334.5 -261.5t119.5 -414.5t-119.5 -414.5t-334.5 -261.5t-503 -88zM1028 344q210 0 329.5 98.5t119.5 274.5
t-119.5 274.5t-329.5 98.5q-208 0 -328 -98.5t-120 -274.5t119 -274.5t329 -98.5z" />
    <glyph glyph-name="Otilde" unicode="&#xd5;" horiz-adv-x="2058" 
d="M1444 2005l172 -305q-58 -60 -146.5 -94.5t-191.5 -34.5q-82 0 -163.5 23t-153.5 46t-130 23q-63 0 -110 -21.5t-105 -66.5l-172 303q57 60 146 95.5t194 35.5q80 0 161 -23t153.5 -46t132.5 -23q128 0 213 88zM1028 -47q-287 0 -501 88t-333.5 261.5t-119.5 414.5
t119.5 414.5t333.5 261.5t501 88q288 0 503 -88t334.5 -261.5t119.5 -414.5t-119.5 -414.5t-334.5 -261.5t-503 -88zM1028 344q210 0 329.5 98.5t119.5 274.5t-119.5 274.5t-329.5 98.5q-208 0 -328 -98.5t-120 -274.5t119 -274.5t329 -98.5z" />
    <glyph glyph-name="Odieresis" unicode="&#xd6;" horiz-adv-x="2058" 
d="M735 1585q-98 0 -159.5 51t-61.5 136q0 84 61.5 133t159.5 49q97 0 158 -49.5t61 -132.5q0 -85 -61 -136t-158 -51zM1327 1585q-98 0 -159.5 51t-61.5 136q0 84 61.5 133t159.5 49q97 0 158 -49.5t61 -132.5q0 -85 -61 -136t-158 -51zM1028 -47q-287 0 -501 88
t-333.5 261.5t-119.5 414.5t119.5 414.5t333.5 261.5t501 88q288 0 503 -88t334.5 -261.5t119.5 -414.5t-119.5 -414.5t-334.5 -261.5t-503 -88zM1028 344q210 0 329.5 98.5t119.5 274.5t-119.5 274.5t-329.5 98.5q-208 0 -328 -98.5t-120 -274.5t119 -274.5t329 -98.5z" />
    <glyph glyph-name="multiply" unicode="&#xd7;" horiz-adv-x="1501" 
d="M1331 956l-327 -327l327 -328l-252 -254l-327 328l-328 -328l-252 254l326 328l-326 327l252 252l328 -327l327 327z" />
    <glyph glyph-name="Oslash" unicode="&#xd8;" horiz-adv-x="2058" 
d="M1642 1337q166 -98 254.5 -255t88.5 -365q0 -241 -119.5 -414.5t-334.5 -261.5t-503 -88q-213 0 -387 49l-152 -205h-299l224 299q-164 98 -252 255.5t-88 365.5q0 241 119.5 414.5t333.5 261.5t501 88q215 0 389 -49l152 204h299zM580 717q0 -164 104 -260l467 622
q-51 11 -123 11q-208 0 -328 -98.5t-120 -274.5zM1028 344q210 0 329.5 98.5t119.5 274.5q0 165 -103 260l-469 -623q49 -10 123 -10z" />
    <glyph glyph-name="Ugrave" unicode="&#xd9;" horiz-adv-x="1959" 
d="M397 1954h576l262 -357h-342zM1337 1434h500v-758q0 -335 -224.5 -529t-631.5 -194t-632.5 194t-225.5 529v758h500v-719q0 -168 89.5 -267.5t268.5 -99.5q178 0 267 99.5t89 267.5v719z" />
    <glyph glyph-name="Uacute" unicode="&#xda;" horiz-adv-x="1959" 
d="M1565 1954l-498 -357h-342l262 357h578zM1337 1434h500v-758q0 -335 -224.5 -529t-631.5 -194t-632.5 194t-225.5 529v758h500v-719q0 -168 89.5 -267.5t268.5 -99.5q178 0 267 99.5t89 267.5v719z" />
    <glyph glyph-name="Ucircumflex" unicode="&#xdb;" horiz-adv-x="1959" 
d="M428 1597h403l148 172l147 -172h410l-303 357h-502zM1337 1434h500v-758q0 -335 -224.5 -529t-631.5 -194t-632.5 194t-225.5 529v758h500v-719q0 -168 89.5 -267.5t268.5 -99.5q178 0 267 99.5t89 267.5v719z" />
    <glyph glyph-name="Udieresis" unicode="&#xdc;" horiz-adv-x="1959" 
d="M686 1585q-98 0 -159.5 51t-61.5 136q0 84 61.5 133t159.5 49q97 0 158 -49.5t61 -132.5q0 -85 -61 -136t-158 -51zM1278 1585q-98 0 -159.5 51t-61.5 136q0 84 61.5 133t159.5 49q97 0 158 -49.5t61 -132.5q0 -85 -61 -136t-158 -51zM1337 1434h500v-758
q0 -335 -224.5 -529t-631.5 -194t-632.5 194t-225.5 529v758h500v-719q0 -168 89.5 -267.5t268.5 -99.5q178 0 267 99.5t89 267.5v719z" />
    <glyph glyph-name="Yacute" unicode="&#xdd;" horiz-adv-x="1775" 
d="M1473 1954l-498 -357h-342l262 357h578zM-20 1434h550l359 -570l356 570h549l-657 -957v-477h-500v477z" />
    <glyph glyph-name="Thorn" unicode="&#xde;" horiz-adv-x="1880" 
d="M1155 1243q203 0 354.5 -54.5t240.5 -170.5t89 -283q0 -130 -50.5 -230.5t-142 -164t-215.5 -95.5t-276 -32h-508v-213h-500v1434h500v-191h508zM1114 555q219 0 219 172t-219 172h-467v-344h467z" />
    <glyph glyph-name="germandbls" unicode="&#xdf;" horiz-adv-x="1724" 
d="M762 309q80 -24 160 -24q122 0 183.5 49t61.5 131t-63 132t-189 50h-104v273h61q107 0 166.5 45.5t59.5 121.5q0 78 -61 121t-160 43q-127 0 -198 -75.5t-71 -208.5v-967h-483v899q0 141 47 259.5t138 208t236 139.5t331 50q309 0 504.5 -128t195.5 -308
q0 -124 -95.5 -217.5t-256.5 -103.5q120 -9 218 -56.5t158 -132t60 -190.5q0 -185 -165.5 -312.5t-440.5 -127.5q-168 0 -338 45z" />
    <glyph glyph-name="agrave" unicode="&#xe0;" horiz-adv-x="1599" 
d="M227 1661h576l262 -356h-342zM766 1186q340 0 528.5 -142t188.5 -403v-428q0 -121 49 -213h-485q-37 54 -37 100v4q-66 -67 -177 -106t-247 -39q-75 0 -146.5 11.5t-143 40t-125 71t-87 110t-33.5 150.5t33.5 149.5t87 109t124.5 71t143 40t147 11.5q136 0 247 -40
t177 -108v72q0 105 -88 160t-256 55q-222 0 -404 -84l-94 299q117 52 281.5 80.5t316.5 28.5zM1018 332v18q-91 111 -285 111q-39 0 -74.5 -6t-68.5 -19t-52.5 -37t-19.5 -57q0 -44 35 -72.5t80.5 -38.5t99.5 -10q194 0 285 111z" />
    <glyph glyph-name="aacute" unicode="&#xe1;" horiz-adv-x="1599" 
d="M1395 1661l-498 -356h-342l262 356h578zM766 1186q340 0 528.5 -142t188.5 -403v-428q0 -121 49 -213h-485q-37 54 -37 100v4q-66 -67 -177 -106t-247 -39q-75 0 -146.5 11.5t-143 40t-125 71t-87 110t-33.5 150.5t33.5 149.5t87 109t124.5 71t143 40t147 11.5
q136 0 247 -40t177 -108v72q0 105 -88 160t-256 55q-222 0 -404 -84l-94 299q117 52 281.5 80.5t316.5 28.5zM1018 332v18q-91 111 -285 111q-39 0 -74.5 -6t-68.5 -19t-52.5 -37t-19.5 -57q0 -44 35 -72.5t80.5 -38.5t99.5 -10q194 0 285 111z" />
    <glyph glyph-name="acircumflex" unicode="&#xe2;" horiz-adv-x="1599" 
d="M258 1305h404l147 172l147 -172h410l-303 356h-502zM766 1186q340 0 528.5 -142t188.5 -403v-428q0 -121 49 -213h-485q-37 54 -37 100v4q-66 -67 -177 -106t-247 -39q-75 0 -146.5 11.5t-143 40t-125 71t-87 110t-33.5 150.5t33.5 149.5t87 109t124.5 71t143 40
t147 11.5q136 0 247 -40t177 -108v72q0 105 -88 160t-256 55q-222 0 -404 -84l-94 299q117 52 281.5 80.5t316.5 28.5zM1018 332v18q-91 111 -285 111q-39 0 -74.5 -6t-68.5 -19t-52.5 -37t-19.5 -57q0 -44 35 -72.5t80.5 -38.5t99.5 -10q194 0 285 111z" />
    <glyph glyph-name="atilde" unicode="&#xe3;" horiz-adv-x="1599" 
d="M1225 1712l172 -305q-58 -60 -146.5 -94.5t-191.5 -34.5q-82 0 -163.5 23t-153.5 46t-130 23q-63 0 -110 -21.5t-105 -66.5l-172 303q57 60 146 95.5t194 35.5q80 0 161 -23t153.5 -46t132.5 -23q128 0 213 88zM766 1186q340 0 528.5 -142t188.5 -403v-428
q0 -121 49 -213h-485q-37 54 -37 100v4q-66 -67 -177 -106t-247 -39q-75 0 -146.5 11.5t-143 40t-125 71t-87 110t-33.5 150.5t33.5 149.5t87 109t124.5 71t143 40t147 11.5q136 0 247 -40t177 -108v72q0 105 -88 160t-256 55q-222 0 -404 -84l-94 299q117 52 281.5 80.5
t316.5 28.5zM1018 332v18q-91 111 -285 111q-39 0 -74.5 -6t-68.5 -19t-52.5 -37t-19.5 -57q0 -44 35 -72.5t80.5 -38.5t99.5 -10q194 0 285 111z" />
    <glyph glyph-name="adieresis" unicode="&#xe4;" horiz-adv-x="1599" 
d="M516 1292q-98 0 -159.5 51t-61.5 136q0 84 61.5 133t159.5 49q97 0 158 -49.5t61 -132.5q0 -85 -61 -136t-158 -51zM1108 1292q-98 0 -159.5 51t-61.5 136q0 84 61.5 133t159.5 49q97 0 158 -49.5t61 -132.5q0 -85 -61 -136t-158 -51zM766 1186q340 0 528.5 -142
t188.5 -403v-428q0 -121 49 -213h-485q-37 54 -37 100v4q-66 -67 -177 -106t-247 -39q-75 0 -146.5 11.5t-143 40t-125 71t-87 110t-33.5 150.5t33.5 149.5t87 109t124.5 71t143 40t147 11.5q136 0 247 -40t177 -108v72q0 105 -88 160t-256 55q-222 0 -404 -84l-94 299
q117 52 281.5 80.5t316.5 28.5zM1018 332v18q-91 111 -285 111q-39 0 -74.5 -6t-68.5 -19t-52.5 -37t-19.5 -57q0 -44 35 -72.5t80.5 -38.5t99.5 -10q194 0 285 111z" />
    <glyph glyph-name="aring" unicode="&#xe5;" horiz-adv-x="1599" 
d="M811 1278q-165 0 -260.5 67t-95.5 189t96 191t260 69t260 -69t96 -191t-95.5 -189t-260.5 -67zM709 1534q0 -43 28 -68.5t74 -25.5t74 25.5t28 68.5q0 44 -28 70t-74 26t-74 -26t-28 -70zM766 1186q340 0 528.5 -142t188.5 -403v-428q0 -121 49 -213h-485q-37 54 -37 100
v4q-66 -67 -177 -106t-247 -39q-75 0 -146.5 11.5t-143 40t-125 71t-87 110t-33.5 150.5t33.5 149.5t87 109t124.5 71t143 40t147 11.5q136 0 247 -40t177 -108v72q0 105 -88 160t-256 55q-222 0 -404 -84l-94 299q117 52 281.5 80.5t316.5 28.5zM1018 332v18
q-91 111 -285 111q-39 0 -74.5 -6t-68.5 -19t-52.5 -37t-19.5 -57q0 -44 35 -72.5t80.5 -38.5t99.5 -10q194 0 285 111z" />
    <glyph glyph-name="ae" unicode="&#xe6;" horiz-adv-x="2533" 
d="M1462 471q27 -104 115 -148t246 -44q126 0 207 25t165 85l238 -237q-233 -199 -637 -199q-425 0 -627 205q-95 -98 -256.5 -148.5t-318.5 -50.5q-77 0 -150.5 11.5t-146 40t-126 71.5t-87 110t-33.5 150t33.5 149.5t87 109t124.5 71t143 40t147 11.5q137 0 248.5 -41
t177.5 -111v76q0 104 -88.5 159.5t-257.5 55.5q-227 0 -412 -84l-86 299q117 52 281 80.5t317 28.5q311 0 489 -127q195 131 504 131q154 0 283.5 -39t226 -113t151 -190t54.5 -262q0 -72 -12 -115h-1000zM1763 868q-235 0 -293 -170h572q-56 170 -279 170zM1020 332v18
q-91 111 -285 111q-39 0 -75 -6t-69 -19t-53 -37t-20 -57q0 -44 35.5 -72.5t81.5 -38.5t100 -10q194 0 285 111z" />
    <glyph glyph-name="ccedilla" unicode="&#xe7;" horiz-adv-x="1511" 
d="M1485 295q-77 -152 -244.5 -247t-423.5 -95q-347 0 -550.5 166t-203.5 452q0 285 204 452t550 167q130 0 241 -27.5t191.5 -75.5t137 -107.5t92.5 -129.5l-398 -160q-69 141 -260 141q-136 0 -218.5 -69t-82.5 -191q0 -124 82.5 -193t218.5 -69q196 0 269 148zM1028 -127
l-319 -336l-293 78l205 315z" />
    <glyph glyph-name="egrave" unicode="&#xe8;" horiz-adv-x="1587" 
d="M1069 1305h-342l-496 356h576zM520 471q27 -103 115 -149t242 -46q122 0 204.5 27.5t169.5 89.5l234 -241q-225 -199 -635 -199q-373 0 -580 163.5t-207 454.5q0 287 201.5 453t548.5 166q124 0 232 -24t197.5 -73.5t153.5 -121t99 -170t35 -217.5q0 -62 -14 -113h-996z
M817 870q-227 0 -287 -168l564 3q-59 165 -277 165z" />
    <glyph glyph-name="eacute" unicode="&#xe9;" horiz-adv-x="1587" 
d="M1399 1661l-498 -356h-342l262 356h578zM520 471q27 -103 115 -149t242 -46q122 0 204.5 27.5t169.5 89.5l234 -241q-225 -199 -635 -199q-373 0 -580 163.5t-207 454.5q0 287 201.5 453t548.5 166q124 0 232 -24t197.5 -73.5t153.5 -121t99 -170t35 -217.5
q0 -62 -14 -113h-996zM817 870q-227 0 -287 -168l564 3q-59 165 -277 165z" />
    <glyph glyph-name="ecircumflex" unicode="&#xea;" horiz-adv-x="1587" 
d="M811 1477l-147 -172h-404l303 356h502l303 -356h-410zM520 471q27 -103 115 -149t242 -46q122 0 204.5 27.5t169.5 89.5l234 -241q-225 -199 -635 -199q-373 0 -580 163.5t-207 454.5q0 287 201.5 453t548.5 166q124 0 232 -24t197.5 -73.5t153.5 -121t99 -170t35 -217.5
q0 -62 -14 -113h-996zM817 870q-227 0 -287 -168l564 3q-59 165 -277 165z" />
    <glyph glyph-name="edieresis" unicode="&#xeb;" horiz-adv-x="1587" 
d="M518 1292q-98 0 -159.5 51t-61.5 136q0 84 61.5 133t159.5 49q97 0 158 -49.5t61 -132.5q0 -85 -61 -136t-158 -51zM1110 1292q-98 0 -159.5 51t-61.5 136q0 84 61.5 133t159.5 49q97 0 158 -49.5t61 -132.5q0 -85 -61 -136t-158 -51zM520 471q27 -103 115 -149t242 -46
q122 0 204.5 27.5t169.5 89.5l234 -241q-225 -199 -635 -199q-373 0 -580 163.5t-207 454.5q0 287 201.5 453t548.5 166q124 0 232 -24t197.5 -73.5t153.5 -121t99 -170t35 -217.5q0 -62 -14 -113h-996zM817 870q-227 0 -287 -168l564 3q-59 165 -277 165z" />
    <glyph glyph-name="igrave" unicode="&#xec;" horiz-adv-x="735" 
d="M-215 1661h577l263 -356h-342zM608 1141v-1141h-481v1141h481z" />
    <glyph glyph-name="iacute" unicode="&#xed;" horiz-adv-x="735" 
d="M952 1661l-497 -356h-342l262 356h577zM608 1141v-1141h-481v1141h481z" />
    <glyph glyph-name="icircumflex" unicode="&#xee;" horiz-adv-x="735" 
d="M-186 1305h405l148 172l147 -172h410l-303 356h-502zM608 1141v-1141h-481v1141h481z" />
    <glyph glyph-name="idieresis" unicode="&#xef;" horiz-adv-x="735" 
d="M74 1292q-98 0 -159.5 51t-61.5 136q0 84 61.5 133t159.5 49q97 0 158 -49.5t61 -132.5q0 -85 -61 -136t-158 -51zM666 1292q-98 0 -160 51t-62 136q0 83 62 132.5t160 49.5q97 0 158 -49.5t61 -132.5q0 -85 -61 -136t-158 -51zM608 1141v-1141h-481v1141h481z" />
    <glyph glyph-name="eth" unicode="&#xf0;" horiz-adv-x="1650" 
d="M1587 625q0 -170 -54.5 -300t-156 -212t-240 -123t-311.5 -41q-228 0 -398.5 64t-267 193t-96.5 310q0 105 34 191.5t94 145t132.5 96t157.5 55.5l-75 129l141 69q-102 18 -182 23l61 342q329 -25 584 -135l278 137l80 -137l-186 -93q106 -69 185.5 -156t126.5 -180
t70 -187.5t23 -190.5zM641 1022q148 0 290 -43.5t208 -138.5q-41 85 -135.5 163t-231.5 134l-248 -125q65 10 117 10zM825 295q140 0 224 55.5t84 165.5q0 108 -84 163.5t-224 55.5t-223.5 -55.5t-83.5 -163.5q0 -110 83.5 -165.5t223.5 -55.5z" />
    <glyph glyph-name="ntilde" unicode="&#xf1;" horiz-adv-x="1665" 
d="M1253 1712l172 -305q-58 -60 -146.5 -94.5t-191.5 -34.5q-82 0 -163.5 23t-153 46t-129.5 23q-63 0 -110 -21.5t-105 -66.5l-172 303q57 60 146 95.5t194 35.5q80 0 161 -23t153 -46t132 -23q128 0 213 88zM608 0h-483v1141h483v-166q153 207 443 207q236 0 369.5 -138.5
t133.5 -363.5v-680h-481v649q0 86 -50.5 135.5t-141.5 49.5q-162 0 -273 -166v-668z" />
    <glyph glyph-name="ograve" unicode="&#xf2;" horiz-adv-x="1650" 
d="M244 1661h575l262 -356h-342zM825 -47q-351 0 -556.5 165.5t-205.5 452.5q0 286 206 451.5t556 165.5t556 -165.5t206 -451.5q0 -287 -205.5 -452.5t-556.5 -165.5zM825 311q137 0 221 68.5t84 191.5t-84 190.5t-221 67.5q-136 0 -220.5 -67.5t-84.5 -190.5t84.5 -191.5
t220.5 -68.5z" />
    <glyph glyph-name="oacute" unicode="&#xf3;" horiz-adv-x="1650" 
d="M1409 1661l-498 -356h-342l262 356h578zM825 -47q-351 0 -556.5 165.5t-205.5 452.5q0 286 206 451.5t556 165.5t556 -165.5t206 -451.5q0 -287 -205.5 -452.5t-556.5 -165.5zM825 311q137 0 221 68.5t84 191.5t-84 190.5t-221 67.5q-136 0 -220.5 -67.5t-84.5 -190.5
t84.5 -191.5t220.5 -68.5z" />
    <glyph glyph-name="ocircumflex" unicode="&#xf4;" horiz-adv-x="1650" 
d="M272 1305h404l147 172l148 -172h409l-303 356h-502zM825 -47q-351 0 -556.5 165.5t-205.5 452.5q0 286 206 451.5t556 165.5t556 -165.5t206 -451.5q0 -287 -205.5 -452.5t-556.5 -165.5zM825 311q137 0 221 68.5t84 191.5t-84 190.5t-221 67.5q-136 0 -220.5 -67.5
t-84.5 -190.5t84.5 -191.5t220.5 -68.5z" />
    <glyph glyph-name="otilde" unicode="&#xf5;" horiz-adv-x="1650" 
d="M1239 1712l172 -305q-58 -60 -146.5 -94.5t-191.5 -34.5q-82 0 -163.5 23t-153 46t-129.5 23q-63 0 -110 -21.5t-105 -66.5l-172 303q57 60 146 95.5t194 35.5q80 0 161 -23t153 -46t132 -23q128 0 213 88zM825 -47q-351 0 -556.5 165.5t-205.5 452.5q0 286 206 451.5
t556 165.5t556 -165.5t206 -451.5q0 -287 -205.5 -452.5t-556.5 -165.5zM825 311q137 0 221 68.5t84 191.5t-84 190.5t-221 67.5q-136 0 -220.5 -67.5t-84.5 -190.5t84.5 -191.5t220.5 -68.5z" />
    <glyph glyph-name="odieresis" unicode="&#xf6;" horiz-adv-x="1650" 
d="M530 1292q-98 0 -159.5 51t-61.5 136q0 84 61.5 133t159.5 49q97 0 158.5 -49.5t61.5 -132.5q0 -85 -61.5 -136t-158.5 -51zM1122 1292q-98 0 -159.5 51t-61.5 136q0 84 61.5 133t159.5 49q97 0 158 -49.5t61 -132.5q0 -85 -61 -136t-158 -51zM825 -47
q-351 0 -556.5 165.5t-205.5 452.5q0 286 206 451.5t556 165.5t556 -165.5t206 -451.5q0 -287 -205.5 -452.5t-556.5 -165.5zM825 311q137 0 221 68.5t84 191.5t-84 190.5t-221 67.5q-136 0 -220.5 -67.5t-84.5 -190.5t84.5 -191.5t220.5 -68.5z" />
    <glyph glyph-name="divide" unicode="&#xf7;" horiz-adv-x="1501" 
d="M745 899q-110 0 -174.5 53.5t-64.5 130.5q0 76 65 129.5t174 53.5q111 0 175.5 -53.5t64.5 -129.5q0 -77 -64.5 -130.5t-175.5 -53.5zM1384 444h-1267v361h1267v-361zM745 -16q-110 0 -174.5 53t-64.5 129t64.5 129t174.5 53q111 0 175.5 -53t64.5 -129t-64.5 -129
t-175.5 -53z" />
    <glyph glyph-name="oslash" unicode="&#xf8;" horiz-adv-x="1650" 
d="M1266 1096q154 -76 237.5 -211t83.5 -314q0 -287 -205.5 -452.5t-556.5 -165.5q-157 0 -288 35l-125 -191h-224l170 260q-141 79 -218 211t-77 303q0 286 206 451.5t556 165.5q140 0 260 -27l121 182h224zM520 571q0 -105 64 -172l282 430h-41q-136 0 -220.5 -67.5
t-84.5 -190.5zM825 311q137 0 221 68.5t84 191.5q0 124 -83 191l-295 -447q50 -4 73 -4z" />
    <glyph glyph-name="ugrave" unicode="&#xf9;" horiz-adv-x="1667" 
d="M227 1661h576l262 -356h-342zM1057 1141h483v-1141h-483v166q-153 -207 -443 -207q-236 0 -369.5 138.5t-133.5 363.5v680h481v-649q0 -86 50.5 -135.5t141.5 -49.5q162 0 273 166v668z" />
    <glyph glyph-name="uacute" unicode="&#xfa;" horiz-adv-x="1667" 
d="M1393 1661l-498 -356h-342l262 356h578zM1057 1141h483v-1141h-483v166q-153 -207 -443 -207q-236 0 -369.5 138.5t-133.5 363.5v680h481v-649q0 -86 50.5 -135.5t141.5 -49.5q162 0 273 166v668z" />
    <glyph glyph-name="ucircumflex" unicode="&#xfb;" horiz-adv-x="1667" 
d="M256 1305h403l148 172l147 -172h410l-303 356h-502zM1057 1141h483v-1141h-483v166q-153 -207 -443 -207q-236 0 -369.5 138.5t-133.5 363.5v680h481v-649q0 -86 50.5 -135.5t141.5 -49.5q162 0 273 166v668z" />
    <glyph glyph-name="udieresis" unicode="&#xfc;" horiz-adv-x="1667" 
d="M514 1292q-98 0 -159.5 51t-61.5 136q0 84 61.5 133t159.5 49q97 0 158 -49.5t61 -132.5q0 -85 -61 -136t-158 -51zM1106 1292q-98 0 -159.5 51t-61.5 136q0 84 61.5 133t159.5 49q97 0 158 -49.5t61 -132.5q0 -85 -61 -136t-158 -51zM1057 1141h483v-1141h-483v166
q-153 -207 -443 -207q-236 0 -369.5 138.5t-133.5 363.5v680h481v-649q0 -86 50.5 -135.5t141.5 -49.5q162 0 273 166v668z" />
    <glyph glyph-name="yacute" unicode="&#xfd;" horiz-adv-x="1546" 
d="M1362 1661l-498 -356h-342l262 356h578zM1067 1141h485l-770 -1551h-483l246 469l-551 1082h493l297 -654z" />
    <glyph glyph-name="thorn" unicode="&#xfe;" horiz-adv-x="1712" 
d="M1053 1182q269 0 432.5 -164t163.5 -447q0 -284 -163.5 -448t-432.5 -164q-289 0 -445 193v-562h-483v1926h483v-527q153 193 445 193zM909 309q137 0 211 69.5t74 192.5q0 121 -74.5 190.5t-210.5 69.5q-190 0 -301 -141v-239q112 -142 301 -142z" />
    <glyph glyph-name="ydieresis" unicode="&#xff;" horiz-adv-x="1546" 
d="M483 1292q-98 0 -159.5 51t-61.5 136q0 84 61.5 133t159.5 49q97 0 158 -49.5t61 -132.5q0 -85 -61 -136t-158 -51zM1075 1292q-98 0 -159.5 51t-61.5 136q0 84 61.5 133t159.5 49q97 0 158 -49.5t61 -132.5q0 -85 -61 -136t-158 -51zM1067 1141h485l-770 -1551h-483
l246 469l-551 1082h493l297 -654z" />
    <glyph glyph-name="Amacron" unicode="&#x100;" 
d="M1483 1933v-313h-1008v313h1008zM1450 0l-117 248h-717l-116 -248h-520l727 1434h542l727 -1434h-526zM768 571h414l-207 443z" />
    <glyph glyph-name="amacron" unicode="&#x101;" horiz-adv-x="1599" 
d="M307 1640h1008v-313h-1008v313zM766 1186q340 0 528.5 -142t188.5 -403v-428q0 -121 49 -213h-485q-37 54 -37 100v4q-66 -67 -177 -106t-247 -39q-75 0 -146.5 11.5t-143 40t-125 71t-87 110t-33.5 150.5t33.5 149.5t87 109t124.5 71t143 40t147 11.5q136 0 247 -40
t177 -108v72q0 105 -88 160t-256 55q-222 0 -404 -84l-94 299q117 52 281.5 80.5t316.5 28.5zM1018 332v18q-91 111 -285 111q-39 0 -74.5 -6t-68.5 -19t-52.5 -37t-19.5 -57q0 -44 35 -72.5t80.5 -38.5t99.5 -10q194 0 285 111z" />
    <glyph glyph-name="Abreve" unicode="&#x102;" 
d="M979 1579q-94 0 -170.5 26t-124 66t-79.5 91.5t-45 99t-13 92.5h276q7 -54 47.5 -91.5t108.5 -37.5q67 0 108.5 38t47.5 91h276q0 -45 -13 -93t-45.5 -99t-80 -91t-124 -66t-169.5 -26zM1450 0l-117 248h-717l-116 -248h-520l727 1434h542l727 -1434h-526zM768 571h414
l-207 443z" />
    <glyph glyph-name="abreve" unicode="&#x103;" horiz-adv-x="1599" 
d="M1243 1661q0 -45 -13 -93t-45.5 -99t-80 -91t-124 -66t-169.5 -26q-94 0 -170.5 26t-124 66t-79.5 91.5t-45 99t-13 92.5h276q7 -54 47.5 -91.5t108.5 -37.5q67 0 108.5 38t47.5 91h276zM766 1186q340 0 528.5 -142t188.5 -403v-428q0 -121 49 -213h-485q-37 54 -37 100
v4q-66 -67 -177 -106t-247 -39q-75 0 -146.5 11.5t-143 40t-125 71t-87 110t-33.5 150.5t33.5 149.5t87 109t124.5 71t143 40t147 11.5q136 0 247 -40t177 -108v72q0 105 -88 160t-256 55q-222 0 -404 -84l-94 299q117 52 281.5 80.5t316.5 28.5zM1018 332v18
q-91 111 -285 111q-39 0 -74.5 -6t-68.5 -19t-52.5 -37t-19.5 -57q0 -44 35 -72.5t80.5 -38.5t99.5 -10q194 0 285 111z" />
    <glyph glyph-name="Aogonek" unicode="&#x104;" 
d="M2015 -295l74 -90q-38 -56 -114 -96.5t-195 -40.5q-68 0 -128.5 15.5t-110 46t-78.5 80t-29 112.5q0 88 58 160.5t173 107.5h-215l-117 248h-717l-116 -248h-520l727 1434h542l727 -1434q-88 -37 -155.5 -101t-67.5 -135q0 -52 35.5 -83t93.5 -31q78 0 133 55zM768 571
h414l-207 443z" />
    <glyph glyph-name="aogonek" unicode="&#x105;" horiz-adv-x="1599" 
d="M1571 -295l74 -90q-38 -56 -114.5 -96.5t-195.5 -40.5q-68 0 -128.5 15.5t-110 46t-78.5 80t-29 112.5q0 88 58.5 160.5t173.5 107.5h-174q-37 54 -37 100v4q-66 -67 -177 -106t-247 -39q-75 0 -146.5 11.5t-143 40t-125 71t-87 110t-33.5 150.5t33.5 149.5t87 109
t124.5 71t143 40t147 11.5q136 0 247 -40t177 -108v72q0 105 -88 160t-256 55q-222 0 -404 -84l-94 299q117 52 281.5 80.5t316.5 28.5q340 0 528.5 -142t188.5 -403v-428q0 -121 49 -213q-88 -37 -155.5 -101t-67.5 -135q0 -52 35.5 -83t93.5 -31q78 0 133 55zM1018 332v18
q-91 111 -285 111q-39 0 -74.5 -6t-68.5 -19t-52.5 -37t-19.5 -57q0 -44 35 -72.5t80.5 -38.5t99.5 -10q194 0 285 111z" />
    <glyph glyph-name="Cacute" unicode="&#x106;" horiz-adv-x="1847" 
d="M1561 1954l-498 -357h-342l262 357h578zM1006 344q269 0 403 207l412 -217q-101 -169 -320.5 -275t-507.5 -106q-273 0 -479 88t-323 262t-117 414t118 414t328.5 262t491.5 88q275 0 490.5 -106.5t312.5 -272.5l-414 -215q-130 203 -395 203q-194 0 -310 -98.5
t-116 -274.5t116 -274.5t310 -98.5z" />
    <glyph glyph-name="cacute" unicode="&#x107;" horiz-adv-x="1511" 
d="M1384 1661l-497 -356h-342l262 356h577zM1485 295q-77 -152 -244.5 -247t-423.5 -95q-347 0 -550.5 166t-203.5 452q0 285 204 452t550 167q130 0 241 -27.5t191.5 -75.5t137 -107.5t92.5 -129.5l-398 -160q-69 141 -260 141q-136 0 -218.5 -69t-82.5 -191
q0 -124 82.5 -193t218.5 -69q196 0 269 148z" />
    <glyph glyph-name="Ccircumflex" unicode="&#x108;" horiz-adv-x="1847" 
d="M422 1597h403l148 172l147 -172h410l-303 357h-502zM1006 344q269 0 403 207l412 -217q-101 -169 -320.5 -275t-507.5 -106q-273 0 -479 88t-323 262t-117 414t118 414t328.5 262t491.5 88q275 0 490.5 -106.5t312.5 -272.5l-414 -215q-130 203 -395 203
q-194 0 -310 -98.5t-116 -274.5t116 -274.5t310 -98.5z" />
    <glyph glyph-name="ccircumflex" unicode="&#x109;" horiz-adv-x="1511" 
d="M248 1305h403l148 172l147 -172h410l-303 356h-502zM1485 295q-77 -152 -244.5 -247t-423.5 -95q-347 0 -550.5 166t-203.5 452q0 285 204 452t550 167q130 0 241 -27.5t191.5 -75.5t137 -107.5t92.5 -129.5l-398 -160q-69 141 -260 141q-136 0 -218.5 -69t-82.5 -191
q0 -124 82.5 -193t218.5 -69q196 0 269 148z" />
    <glyph glyph-name="Cdotaccent" unicode="&#x10a;" horiz-adv-x="1847" 
d="M975 1585q-98 0 -158.5 49t-60.5 133q0 85 60.5 135t158.5 50q97 0 157 -50t60 -135q0 -84 -60 -133t-157 -49zM1006 344q269 0 403 207l412 -217q-101 -169 -320.5 -275t-507.5 -106q-273 0 -479 88t-323 262t-117 414t118 414t328.5 262t491.5 88q275 0 490.5 -106.5
t312.5 -272.5l-414 -215q-130 203 -395 203q-194 0 -310 -98.5t-116 -274.5t116 -274.5t310 -98.5z" />
    <glyph glyph-name="cdotaccent" unicode="&#x10b;" horiz-adv-x="1511" 
d="M801 1292q-98 0 -158.5 49.5t-60.5 133.5q0 85 60.5 134.5t158.5 49.5q97 0 157 -49.5t60 -134.5q0 -84 -60 -133.5t-157 -49.5zM1485 295q-77 -152 -244.5 -247t-423.5 -95q-347 0 -550.5 166t-203.5 452q0 285 204 452t550 167q130 0 241 -27.5t191.5 -75.5t137 -107.5
t92.5 -129.5l-398 -160q-69 141 -260 141q-136 0 -218.5 -69t-82.5 -191q0 -124 82.5 -193t218.5 -69q196 0 269 148z" />
    <glyph glyph-name="Ccaron" unicode="&#x10c;" horiz-adv-x="1847" 
d="M422 1954l303 -357h502l303 357h-406l-147 -172l-148 172h-407zM1006 344q269 0 403 207l412 -217q-101 -169 -320.5 -275t-507.5 -106q-273 0 -479 88t-323 262t-117 414t118 414t328.5 262t491.5 88q275 0 490.5 -106.5t312.5 -272.5l-414 -215q-130 203 -395 203
q-194 0 -310 -98.5t-116 -274.5t116 -274.5t310 -98.5z" />
    <glyph glyph-name="ccaron" unicode="&#x10d;" horiz-adv-x="1511" 
d="M248 1661l303 -356h502l303 356h-406l-147 -172l-148 172h-407zM1485 295q-77 -152 -244.5 -247t-423.5 -95q-347 0 -550.5 166t-203.5 452q0 285 204 452t550 167q130 0 241 -27.5t191.5 -75.5t137 -107.5t92.5 -129.5l-398 -160q-69 141 -260 141q-136 0 -218.5 -69
t-82.5 -191q0 -124 82.5 -193t218.5 -69q196 0 269 148z" />
    <glyph glyph-name="Dcaron" unicode="&#x10e;" horiz-adv-x="1970" 
d="M383 1954l303 -357h502l303 357h-406l-147 -172l-147 172h-408zM983 1434q278 0 483.5 -83.5t317.5 -246t112 -387.5q0 -224 -112 -386.5t-317.5 -246.5t-483.5 -84h-836v1434h836zM942 381q208 0 326 87.5t118 248.5t-118 248.5t-326 87.5h-295v-672h295z" />
    <glyph glyph-name="dcaron" unicode="&#x10f;" horiz-adv-x="2146" 
d="M662 1182q288 0 444 -193v527h481v-1516h-481v152q-159 -193 -444 -193q-270 0 -434.5 164t-164.5 448q0 283 164.5 447t434.5 164zM1901 1464q130 0 207 -88t77 -211q0 -65 -22 -135.5t-64.5 -142t-115 -138.5t-164.5 -116l-88 135q175 115 221 250q-16 -19 -64 -19
q-105 0 -177.5 67t-72.5 165q0 99 75 166t188 67zM803 309q192 0 301 142v239q-108 141 -301 141q-135 0 -209 -69.5t-74 -190.5q0 -123 74 -192.5t209 -69.5z" />
    <glyph glyph-name="Dcroat" unicode="&#x110;" horiz-adv-x="2045" 
d="M1069 1434q425 0 664 -188.5t239 -528.5q0 -339 -239 -528t-664 -189h-848v598h-188v264h188v572h848zM1020 373q208 0 325 89.5t117 254.5t-117 254.5t-325 89.5h-301v-199h350v-264h-350v-225h301z" />
    <glyph glyph-name="dcroat" unicode="&#x111;" horiz-adv-x="1681" 
d="M1726 1374v-172h-139v-1202h-481v152q-159 -193 -444 -193q-270 0 -434.5 164t-164.5 448q0 283 164.5 447t434.5 164q288 0 444 -193v213h-315v172h315v142h481v-142h139zM1104 451v239q-108 141 -301 141q-135 0 -209 -69.5t-74 -190.5q0 -123 74 -192.5t209 -69.5
q192 0 301 142z" />
    <glyph glyph-name="Emacron" unicode="&#x112;" horiz-adv-x="1802" 
d="M414 1933h1007v-313h-1007v313zM637 360h1085v-360h-1575v1434h1553v-361h-1063v-182h866v-332h-866v-199z" />
    <glyph glyph-name="emacron" unicode="&#x113;" horiz-adv-x="1587" 
d="M1317 1640v-313h-1008v313h1008zM520 471q27 -103 115 -149t242 -46q122 0 204.5 27.5t169.5 89.5l234 -241q-225 -199 -635 -199q-373 0 -580 163.5t-207 454.5q0 287 201.5 453t548.5 166q124 0 232 -24t197.5 -73.5t153.5 -121t99 -170t35 -217.5q0 -62 -14 -113h-996
zM817 870q-227 0 -287 -168l564 3q-59 165 -277 165z" />
    <glyph glyph-name="Ebreve" unicode="&#x114;" horiz-adv-x="1802" 
d="M1350 1954q0 -45 -13 -93t-45.5 -99t-80 -91t-124 -66t-169.5 -26q-94 0 -170.5 26t-124 66t-80 91.5t-45.5 99t-13 92.5h277q7 -54 47.5 -91.5t108.5 -37.5q67 0 108 38t47 91h277zM637 360h1085v-360h-1575v1434h1553v-361h-1063v-182h866v-332h-866v-199z" />
    <glyph glyph-name="ebreve" unicode="&#x115;" horiz-adv-x="1587" 
d="M815 1286q-94 0 -170.5 26t-124 66t-79.5 91.5t-45 99t-13 92.5h276q7 -54 47.5 -91.5t108.5 -37.5q67 0 108.5 38t47.5 91h276q0 -45 -13 -93t-45.5 -99t-80 -91t-124 -66t-169.5 -26zM520 471q27 -103 115 -149t242 -46q122 0 204.5 27.5t169.5 89.5l234 -241
q-225 -199 -635 -199q-373 0 -580 163.5t-207 454.5q0 287 201.5 453t548.5 166q124 0 232 -24t197.5 -73.5t153.5 -121t99 -170t35 -217.5q0 -62 -14 -113h-996zM817 870q-227 0 -287 -168l564 3q-59 165 -277 165z" />
    <glyph glyph-name="Edotaccent" unicode="&#x116;" horiz-adv-x="1802" 
d="M918 1585q-98 0 -159 49t-61 133q0 85 61 135t159 50q97 0 157 -50t60 -135q0 -84 -60 -133t-157 -49zM637 360h1085v-360h-1575v1434h1553v-361h-1063v-182h866v-332h-866v-199z" />
    <glyph glyph-name="edotaccent" unicode="&#x117;" horiz-adv-x="1587" 
d="M813 1292q-98 0 -158.5 49.5t-60.5 133.5q0 85 60.5 134.5t158.5 49.5q97 0 157 -49.5t60 -134.5q0 -84 -60 -133.5t-157 -49.5zM520 471q27 -103 115 -149t242 -46q122 0 204.5 27.5t169.5 89.5l234 -241q-225 -199 -635 -199q-373 0 -580 163.5t-207 454.5
q0 287 201.5 453t548.5 166q124 0 232 -24t197.5 -73.5t153.5 -121t99 -170t35 -217.5q0 -62 -14 -113h-996zM817 870q-227 0 -287 -168l564 3q-59 165 -277 165z" />
    <glyph glyph-name="Eogonek" unicode="&#x118;" horiz-adv-x="1802" 
d="M1761 -295l74 -90q-38 -56 -114 -96.5t-195 -40.5q-68 0 -128.5 15.5t-110 46t-78.5 80t-29 112.5q0 88 58 160.5t173 107.5h-1264v1434h1553v-361h-1063v-182h866v-332h-866v-199h1085v-360q-88 -37 -155.5 -101t-67.5 -135q0 -52 35.5 -83t93.5 -31q78 0 133 55z" />
    <glyph glyph-name="eogonek" unicode="&#x119;" horiz-adv-x="1587" 
d="M520 471q27 -103 115 -149t242 -46q122 0 204.5 27.5t169.5 89.5l234 -241q-114 -100 -275 -152h2q-88 -37 -155.5 -101t-67.5 -135q0 -52 35.5 -83t93.5 -31q78 0 133 55l74 -90q-38 -56 -114 -96.5t-195 -40.5q-68 0 -128.5 15.5t-110 46t-78.5 80t-29 112.5
q0 65 32 123t95 98q-348 12 -541 175t-193 443q0 287 201.5 453t548.5 166q124 0 232 -24t197.5 -73.5t153.5 -121t99 -170t35 -217.5q0 -62 -14 -113h-996zM817 870q-227 0 -287 -168l564 3q-59 165 -277 165z" />
    <glyph glyph-name="Ecaron" unicode="&#x11a;" horiz-adv-x="1802" 
d="M365 1954l303 -357h501l304 357h-406l-147 -172l-148 172h-407zM637 360h1085v-360h-1575v1434h1553v-361h-1063v-182h866v-332h-866v-199z" />
    <glyph glyph-name="ecaron" unicode="&#x11b;" horiz-adv-x="1587" 
d="M1065 1305h-502l-303 356h408l147 -172l148 172h405zM520 471q27 -103 115 -149t242 -46q122 0 204.5 27.5t169.5 89.5l234 -241q-225 -199 -635 -199q-373 0 -580 163.5t-207 454.5q0 287 201.5 453t548.5 166q124 0 232 -24t197.5 -73.5t153.5 -121t99 -170t35 -217.5
q0 -62 -14 -113h-996zM817 870q-227 0 -287 -168l564 3q-59 165 -277 165z" />
    <glyph glyph-name="Gcircumflex" unicode="&#x11c;" horiz-adv-x="1964" 
d="M483 1599h404l147 173l148 -173h409l-303 357h-502zM1874 848v-594q-125 -144 -336 -222.5t-489 -78.5q-455 0 -715 199.5t-260 564.5t260 564.5t715 199.5q253 0 449 -70.5t325 -185.5l-348 -260q-95 76 -188.5 108.5t-221.5 32.5q-239 0 -362 -101t-123 -288
q0 -188 126 -291.5t363 -103.5q210 0 344 90v118h-416v318h877z" />
    <glyph glyph-name="gcircumflex" unicode="&#x11d;" horiz-adv-x="1712" 
d="M328 1307h403l148 172l147 -172h410l-303 356h-502zM1587 1141v-916q0 -110 -25 -203.5t-68.5 -161.5t-104.5 -122.5t-130 -89t-149 -57.5t-157 -32.5t-158 -9.5q-162 0 -337.5 35t-285.5 92l117 301q72 -42 196 -72t250 -30q189 0 280 70t91 190v82q-79 -96 -195 -143
t-252 -47q-272 0 -434 153.5t-162 423.5q0 271 162 424.5t434 153.5q293 0 447 -193v152h481zM797 365q186 0 309 155v166q-122 158 -309 158q-132 0 -204.5 -65t-72.5 -175q0 -109 73 -174t204 -65z" />
    <glyph glyph-name="Gbreve" unicode="&#x11e;" horiz-adv-x="1964" 
d="M1468 1956q0 -45 -13 -93t-45.5 -99t-80 -91t-124 -66t-169.5 -26q-94 0 -170.5 26t-124 66t-79.5 91.5t-45 99t-13 92.5h277q7 -54 47 -91.5t108 -37.5q67 0 108.5 38t47.5 91h276zM1874 848v-594q-125 -144 -336 -222.5t-489 -78.5q-455 0 -715 199.5t-260 564.5
t260 564.5t715 199.5q253 0 449 -70.5t325 -185.5l-348 -260q-95 76 -188.5 108.5t-221.5 32.5q-239 0 -362 -101t-123 -288q0 -188 126 -291.5t363 -103.5q210 0 344 90v118h-416v318h877z" />
    <glyph glyph-name="gbreve" unicode="&#x11f;" horiz-adv-x="1712" 
d="M1313 1663q0 -45 -13 -93t-45.5 -99t-80 -91t-124 -66t-169.5 -26q-94 0 -170.5 26t-124 66t-79.5 91.5t-45 99t-13 92.5h276q7 -54 47.5 -91.5t108.5 -37.5q67 0 108 38t47 91h277zM1587 1141v-916q0 -110 -25 -203.5t-68.5 -161.5t-104.5 -122.5t-130 -89t-149 -57.5
t-157 -32.5t-158 -9.5q-162 0 -337.5 35t-285.5 92l117 301q72 -42 196 -72t250 -30q189 0 280 70t91 190v82q-79 -96 -195 -143t-252 -47q-272 0 -434 153.5t-162 423.5q0 271 162 424.5t434 153.5q293 0 447 -193v152h481zM797 365q186 0 309 155v166q-122 158 -309 158
q-132 0 -204.5 -65t-72.5 -175q0 -109 73 -174t204 -65z" />
    <glyph glyph-name="Gdotaccent" unicode="&#x120;" horiz-adv-x="1964" 
d="M1036 1587q-98 0 -158.5 49t-60.5 133q0 85 60.5 135t158.5 50q97 0 157 -50t60 -135q0 -84 -60 -133t-157 -49zM1874 848v-594q-125 -144 -336 -222.5t-489 -78.5q-455 0 -715 199.5t-260 564.5t260 564.5t715 199.5q253 0 449 -70.5t325 -185.5l-348 -260
q-95 76 -188.5 108.5t-221.5 32.5q-239 0 -362 -101t-123 -288q0 -188 126 -291.5t363 -103.5q210 0 344 90v118h-416v318h877z" />
    <glyph glyph-name="gdotaccent" unicode="&#x121;" horiz-adv-x="1712" 
d="M881 1294q-98 0 -158.5 49.5t-60.5 133.5q0 85 60.5 134.5t158.5 49.5q97 0 157 -49.5t60 -134.5q0 -84 -60 -133.5t-157 -49.5zM1587 1141v-916q0 -110 -25 -203.5t-68.5 -161.5t-104.5 -122.5t-130 -89t-149 -57.5t-157 -32.5t-158 -9.5q-162 0 -337.5 35t-285.5 92
l117 301q72 -42 196 -72t250 -30q189 0 280 70t91 190v82q-79 -96 -195 -143t-252 -47q-272 0 -434 153.5t-162 423.5q0 271 162 424.5t434 153.5q293 0 447 -193v152h481zM797 365q186 0 309 155v166q-122 158 -309 158q-132 0 -204.5 -65t-72.5 -175q0 -109 73 -174
t204 -65z" />
    <glyph glyph-name="Gcommaaccent" unicode="&#x122;" horiz-adv-x="1964" 
d="M1874 848v-594q-125 -144 -336 -222.5t-489 -78.5q-455 0 -715 199.5t-260 564.5t260 564.5t715 199.5q253 0 449 -70.5t325 -185.5l-348 -260q-95 76 -188.5 108.5t-221.5 32.5q-239 0 -362 -101t-123 -288q0 -188 126 -291.5t363 -103.5q210 0 344 90v118h-416v318h877
zM1036 -104q130 0 208.5 -87.5t78.5 -211.5q0 -88 -37.5 -183.5t-123.5 -194t-208 -163.5l-90 137q176 113 223 252q-18 -18 -63 -18q-106 0 -179 68t-73 167t75 166.5t189 67.5z" />
    <glyph glyph-name="gcommaaccent" unicode="&#x123;" horiz-adv-x="1712" 
d="M889 1296q-130 0 -208.5 87.5t-78.5 211.5q0 88 37.5 183.5t123.5 194t208 163.5l90 -137q-176 -113 -223 -252q18 18 63 18q106 0 179 -68t73 -167t-75 -166.5t-189 -67.5zM1587 1141v-916q0 -110 -25 -203.5t-68.5 -161.5t-104.5 -122.5t-130 -89t-149 -57.5
t-157 -32.5t-158 -9.5q-162 0 -337.5 35t-285.5 92l117 301q72 -42 196 -72t250 -30q189 0 280 70t91 190v82q-79 -96 -195 -143t-252 -47q-272 0 -434 153.5t-162 423.5q0 271 162 424.5t434 153.5q293 0 447 -193v152h481zM797 365q186 0 309 155v166q-122 158 -309 158
q-132 0 -204.5 -65t-72.5 -175q0 -109 73 -174t204 -65z" />
    <glyph glyph-name="Hcircumflex" unicode="&#x124;" horiz-adv-x="2043" 
d="M469 1599h403l148 173l147 -173h410l-303 357h-502zM1399 1434h499v-1434h-499v530h-752v-530h-500v1434h500v-510h752v510z" />
    <glyph glyph-name="hcircumflex" unicode="&#x125;" horiz-adv-x="1665" 
d="M365 1851l-148 -172h-405l305 357h501l304 -357h-410zM1051 1182q236 0 369.5 -138.5t133.5 -363.5v-680h-481v649q0 86 -50.5 135.5t-141.5 49.5q-162 0 -273 -166v-668h-483v1141v375h483v-408v-133q153 207 443 207z" />
    <glyph glyph-name="Hbar" unicode="&#x126;" horiz-adv-x="2226" 
d="M2198 1214v-159h-209v-1055h-500v530h-752v-530h-499v1055h-207v159h207v220h499v-220h752v220h500v-220h209zM1489 924v131h-752v-131h752z" />
    <glyph glyph-name="hbar" unicode="&#x127;" horiz-adv-x="1665" 
d="M1051 1182q236 0 369.5 -138.5t133.5 -363.5v-680h-481v649q0 86 -50.5 135.5t-141.5 49.5q-162 0 -273 -166v-668h-483v1141v61h-170v172h170v142h483v-142h285v-172h-285v-94v-133q153 207 443 207z" />
    <glyph glyph-name="Itilde" unicode="&#x128;" horiz-adv-x="792" 
d="M811 2005l172 -305q-58 -60 -146.5 -94.5t-191.5 -34.5q-82 0 -163.5 23t-153 46t-129.5 23q-63 0 -110 -21.5t-105 -66.5l-172 303q57 60 146 95.5t194 35.5q80 0 161 -23t153 -46t132 -23q128 0 213 88zM647 0h-500v1434h500v-1434z" />
    <glyph glyph-name="itilde" unicode="&#x129;" horiz-adv-x="735" 
d="M782 1712l172 -305q-58 -60 -146.5 -94.5t-191.5 -34.5q-82 0 -163.5 23t-153 46t-129.5 23q-63 0 -110 -21.5t-105 -66.5l-172 303q57 60 146 95.5t194 35.5q80 0 161 -23t153 -46t132 -23q128 0 213 88zM608 1141v-1141h-481v1141h481z" />
    <glyph glyph-name="Imacron" unicode="&#x12a;" horiz-adv-x="792" 
d="M-106 1933h1007v-313h-1007v313zM647 0h-500v1434h500v-1434z" />
    <glyph glyph-name="imacron" unicode="&#x12b;" horiz-adv-x="735" 
d="M-135 1640h1007v-313h-1007v313zM608 1141v-1141h-481v1141h481z" />
    <glyph glyph-name="Ibreve" unicode="&#x12c;" horiz-adv-x="792" 
d="M829 1954q0 -45 -13 -93t-45.5 -99t-80 -91t-124 -66t-169.5 -26q-94 0 -170.5 26t-124 66t-79.5 91.5t-45 99t-13 92.5h277q7 -54 47 -91.5t108 -37.5q67 0 108.5 38t47.5 91h276zM647 0h-500v1434h500v-1434z" />
    <glyph glyph-name="ibreve" unicode="&#x12d;" horiz-adv-x="735" 
d="M801 1661q0 -45 -13 -93t-45.5 -99t-80 -91t-124 -66t-169.5 -26q-94 0 -170.5 26t-124 66t-79.5 91.5t-45 99t-13 92.5h276q7 -54 47.5 -91.5t108.5 -37.5q67 0 108 38t47 91h277zM608 1141v-1141h-481v1141h481z" />
    <glyph glyph-name="Iogonek" unicode="&#x12e;" horiz-adv-x="792" 
d="M686 -295l74 -90q-38 -56 -114 -96.5t-195 -40.5q-92 0 -168.5 26.5t-127.5 85.5t-51 142q0 88 58 160.5t172 107.5h-187v1434h500v-1434q-88 -37 -155.5 -101t-67.5 -135q0 -52 35.5 -83t93.5 -31q78 0 133 55z" />
    <glyph glyph-name="iogonek" unicode="&#x12f;" horiz-adv-x="733" 
d="M367 1235q-121 0 -196 60t-75 159t75 159t196 60t195.5 -60t74.5 -159t-74.5 -159t-195.5 -60zM647 -295l74 -90q-38 -56 -114 -96.5t-195 -40.5q-68 0 -128.5 15.5t-110 46t-78.5 80t-29 112.5q0 88 58 160.5t171 107.5h-168v1141h481v-1141q-88 -37 -155.5 -101
t-67.5 -135q0 -52 35.5 -83t93.5 -31q78 0 133 55z" />
    <glyph glyph-name="Idotaccent" unicode="&#x130;" horiz-adv-x="792" 
d="M397 1585q-98 0 -158.5 49t-60.5 133q0 85 60.5 135t158.5 50q97 0 157 -50t60 -135q0 -84 -60 -133t-157 -49zM647 0h-500v1434h500v-1434z" />
    <glyph glyph-name="dotlessi" unicode="&#x131;" horiz-adv-x="735" 
d="M608 1141v-1141h-481v1141h481z" />
    <glyph glyph-name="IJ" unicode="&#x132;" horiz-adv-x="2349" 
d="M647 0h-500v1434h500v-1434zM1092 512q71 -85 148.5 -124.5t184.5 -39.5q301 0 301 334v752h500v-791q0 -156 -52 -283t-151 -217.5t-249 -140t-340 -49.5q-433 0 -666 270z" />
    <glyph glyph-name="ij" unicode="&#x133;" horiz-adv-x="1464" 
d="M1100 1235q-121 0 -196 60t-75 159t75 159t196 60t195.5 -60t74.5 -159t-74.5 -159t-195.5 -60zM367 1235q-121 0 -196 60t-75 159t75 159t196 60t195.5 -60t74.5 -159t-74.5 -159t-195.5 -60zM608 1141v-1141h-481v1141h481zM858 1141h481v-1100q0 -229 -135.5 -362.5
t-365.5 -133.5q-154 0 -308 56l68 290q68 -22 121 -22q62 0 100.5 35t38.5 104v1133z" />
    <glyph glyph-name="Jcircumflex" unicode="&#x134;" horiz-adv-x="1554" 
d="M631 1597h403l148 172l147 -172h410l-303 357h-502zM299 512q70 -85 148.5 -124.5t185.5 -39.5q301 0 301 334v752h500v-791q0 -316 -207.5 -503t-585.5 -187q-433 0 -666 270z" />
    <glyph glyph-name="jcircumflex" unicode="&#x135;" horiz-adv-x="980" 
d="M-223 1305h405l146 174l147 -174h410l-303 358h-502zM125 1141h481v-1100q0 -229 -136 -362.5t-364 -133.5q-155 0 -309 56l64 280q77 -24 133 -24t93.5 37t37.5 104v1143z" />
    <glyph glyph-name="Kcommaaccent" unicode="&#x136;" horiz-adv-x="1882" 
d="M1264 858l645 -858h-582l-416 561l-264 -250v-311h-500v1434h500v-607l623 607h604zM954 -104q130 0 208.5 -87.5t78.5 -211.5q0 -88 -37.5 -183.5t-123.5 -194t-208 -163.5l-90 137q178 114 224 252q-18 -18 -64 -18q-106 0 -179 68t-73 167t75 166.5t189 67.5z" />
    <glyph glyph-name="kcommaaccent" unicode="&#x137;" horiz-adv-x="1574" 
d="M608 238v-238h-483v1516h483v-826l439 451h524l-457 -467l481 -674h-510l-292 414zM815 -104q130 0 208.5 -87.5t78.5 -211.5q0 -88 -37.5 -183.5t-123.5 -194t-208 -163.5l-90 137q176 113 223 252q-18 -18 -63 -18q-106 0 -179 68t-73 167t75 166.5t189 67.5z" />
    <glyph glyph-name="kgreenlandic" unicode="&#x138;" horiz-adv-x="1574" 
d="M1085 0l-292 414l-185 -176v-238h-483v1141h483v-451l439 451h524l-457 -467l481 -674h-510z" />
    <glyph glyph-name="Lacute" unicode="&#x139;" horiz-adv-x="1599" 
d="M981 1954l-498 -357h-342l262 357h578zM647 383h920v-383h-1420v1434h500v-1051z" />
    <glyph glyph-name="lacute" unicode="&#x13a;" horiz-adv-x="735" 
d="M952 2036l-497 -357h-342l262 357h577zM608 0h-481v1516h481v-1516z" />
    <glyph glyph-name="Lcommaaccent" unicode="&#x13b;" horiz-adv-x="1599" 
d="M647 383h920v-383h-1420v1434h500v-1051zM864 -104q130 0 208.5 -87.5t78.5 -211.5q0 -88 -37.5 -183.5t-123.5 -194t-208 -163.5l-90 137q176 113 223 252q-18 -18 -63 -18q-106 0 -179 68t-73 167t75 166.5t189 67.5z" />
    <glyph glyph-name="lcommaaccent" unicode="&#x13c;" horiz-adv-x="735" 
d="M608 0h-481v1516h481v-1516zM369 -104q130 0 208 -87.5t78 -211.5q0 -64 -22 -136t-65 -145t-116 -142t-165 -118l-90 137q176 113 223 252q-18 -18 -64 -18q-106 0 -179 68t-73 167t75 166.5t190 67.5z" />
    <glyph glyph-name="Lcaron" unicode="&#x13d;" horiz-adv-x="1599" 
d="M1102 1468q130 0 208.5 -88.5t78.5 -212.5q0 -88 -37.5 -183t-123.5 -193.5t-208 -163.5l-90 137q176 113 223 252q-19 -19 -63 -19q-106 0 -179 68t-73 168q0 99 75 167t189 68zM647 383h920v-383h-1420v1434h500v-1051z" />
    <glyph glyph-name="lcaron" unicode="&#x13e;" horiz-adv-x="1198" 
d="M608 0h-481v1516h481v-1516zM952 1464q130 0 207.5 -88t77.5 -211q0 -89 -37 -182.5t-123 -189.5t-209 -160l-86 135q176 116 222 250q-16 -19 -64 -19q-105 0 -178.5 67t-73.5 165q0 99 75.5 166t188.5 67z" />
    <glyph glyph-name="Ldot" unicode="&#x13f;" horiz-adv-x="1599" 
d="M647 373h920v-373h-1420v1434h500v-1061zM1079 662q-119 0 -195.5 67t-76.5 166q0 101 76.5 168t195.5 67t196 -67t77 -168q0 -99 -77 -166t-196 -67z" />
    <glyph glyph-name="ldot" unicode="&#x140;" horiz-adv-x="1183" 
d="M608 0h-481v1516h481v-1516zM958 586q-120 0 -196 67t-76 168t76 168.5t196 67.5q119 0 195 -67.5t76 -168.5t-76 -168t-195 -67z" />
    <glyph glyph-name="Lslash" unicode="&#x141;" horiz-adv-x="1732" 
d="M780 383h920v-383h-1419v487l-222 -98v287l222 98v660h499v-435l418 187v-287l-418 -186v-330z" />
    <glyph glyph-name="lslash" unicode="&#x142;" horiz-adv-x="940" 
d="M924 1139v-299l-213 -88v-752h-484v549l-209 -88v301l209 86v668h484v-467z" />
    <glyph glyph-name="Nacute" unicode="&#x143;" horiz-adv-x="2043" 
d="M1608 1954l-498 -357h-342l262 357h578zM1415 1434h483v-1434h-438l-831 858v-858h-482v1434h529l739 -779v779z" />
    <glyph glyph-name="nacute" unicode="&#x144;" horiz-adv-x="1665" 
d="M1423 1661l-497 -356h-342l262 356h577zM608 0h-483v1141h483v-166q153 207 443 207q236 0 369.5 -138.5t133.5 -363.5v-680h-481v649q0 86 -50.5 135.5t-141.5 49.5q-162 0 -273 -166v-668z" />
    <glyph glyph-name="Ncommaaccent" unicode="&#x145;" horiz-adv-x="2043" 
d="M1415 1434h483v-1434h-438l-831 858v-858h-482v1434h529l739 -779v779zM1024 -104q130 0 208.5 -87.5t78.5 -211.5q0 -88 -37.5 -183.5t-123.5 -194t-208 -163.5l-90 137q176 113 223 252q-18 -18 -63 -18q-106 0 -179 68t-73 167t75 166.5t189 67.5z" />
    <glyph glyph-name="ncommaaccent" unicode="&#x146;" horiz-adv-x="1665" 
d="M608 0h-483v1141h483v-166q153 207 443 207q236 0 369.5 -138.5t133.5 -363.5v-680h-481v649q0 86 -50.5 135.5t-141.5 49.5q-162 0 -273 -166v-668zM840 -104q130 0 208 -87.5t78 -211.5q0 -64 -22 -136t-65 -145t-116 -142t-165 -118l-90 137q176 113 223 252
q-18 -18 -64 -18q-106 0 -179 68t-73 167t75 166.5t190 67.5z" />
    <glyph glyph-name="Ncaron" unicode="&#x147;" horiz-adv-x="2043" 
d="M469 1954l303 -357h502l303 357h-406l-147 -172l-147 172h-408zM1415 1434h483v-1434h-438l-831 858v-858h-482v1434h529l739 -779v779z" />
    <glyph glyph-name="ncaron" unicode="&#x148;" horiz-adv-x="1665" 
d="M287 1661l303 -356h502l303 356h-406l-147 -172l-148 172h-407zM608 0h-483v1141h483v-166q153 207 443 207q236 0 369.5 -138.5t133.5 -363.5v-680h-481v649q0 86 -50.5 135.5t-141.5 49.5q-162 0 -273 -166v-668z" />
    <glyph glyph-name="napostrophe" unicode="&#x149;" horiz-adv-x="2187" 
d="M297 1468q130 0 208.5 -87.5t78.5 -211.5q0 -138 -96 -291.5t-275 -248.5l-90 135q89 57 144.5 117.5t80.5 134.5q-23 -19 -65 -19q-105 0 -178.5 68.5t-73.5 167.5q0 100 75.5 167.5t190.5 67.5zM1128 0h-483v1141h483v-168q159 209 443 209q237 0 371.5 -138.5
t134.5 -363.5v-680h-484v651q0 86 -50.5 136.5t-141.5 50.5q-160 0 -273 -168v-670z" />
    <glyph glyph-name="Eng" unicode="&#x14a;" horiz-adv-x="2043" 
d="M1898 1434v-1313h-2v-39q0 -246 -147 -391.5t-391 -145.5q-155 0 -309 54l65 292q68 -22 129 -22q80 0 126 43t46 133l-786 813v-858h-482v1434h529l739 -779v486v293h483z" />
    <glyph glyph-name="eng" unicode="&#x14b;" horiz-adv-x="1665" 
d="M1051 1182q236 0 369.5 -138.5t133.5 -363.5v-614v-25q0 -229 -138 -362.5t-369 -133.5q-159 0 -310 56l66 290q71 -22 129 -22q69 0 105 36t36 105v639q0 86 -50.5 135.5t-141.5 49.5q-162 0 -273 -166v-668h-483v1141h483v-166q153 207 443 207z" />
    <glyph glyph-name="Omacron" unicode="&#x14c;" horiz-adv-x="2058" 
d="M526 1933h1008v-313h-1008v313zM1028 -47q-287 0 -501 88t-333.5 261.5t-119.5 414.5t119.5 414.5t333.5 261.5t501 88q288 0 503 -88t334.5 -261.5t119.5 -414.5t-119.5 -414.5t-334.5 -261.5t-503 -88zM1028 344q210 0 329.5 98.5t119.5 274.5t-119.5 274.5
t-329.5 98.5q-208 0 -328 -98.5t-120 -274.5t119 -274.5t329 -98.5z" />
    <glyph glyph-name="omacron" unicode="&#x14d;" horiz-adv-x="1650" 
d="M322 1640h1007v-313h-1007v313zM825 -47q-351 0 -556.5 165.5t-205.5 452.5q0 286 206 451.5t556 165.5t556 -165.5t206 -451.5q0 -287 -205.5 -452.5t-556.5 -165.5zM825 311q137 0 221 68.5t84 191.5t-84 190.5t-221 67.5q-136 0 -220.5 -67.5t-84.5 -190.5
t84.5 -191.5t220.5 -68.5z" />
    <glyph glyph-name="Obreve" unicode="&#x14e;" horiz-adv-x="2058" 
d="M1462 1954q0 -45 -13 -93t-45.5 -99t-80 -91t-124 -66t-169.5 -26q-94 0 -170.5 26t-124 66t-79.5 91.5t-45 99t-13 92.5h276q7 -54 47.5 -91.5t108.5 -37.5q67 0 108.5 38t47.5 91h276zM1028 -47q-287 0 -501 88t-333.5 261.5t-119.5 414.5t119.5 414.5t333.5 261.5
t501 88q288 0 503 -88t334.5 -261.5t119.5 -414.5t-119.5 -414.5t-334.5 -261.5t-503 -88zM1028 344q210 0 329.5 98.5t119.5 274.5t-119.5 274.5t-329.5 98.5q-208 0 -328 -98.5t-120 -274.5t119 -274.5t329 -98.5z" />
    <glyph glyph-name="obreve" unicode="&#x14f;" horiz-adv-x="1650" 
d="M1257 1661q0 -45 -13 -93t-45.5 -99t-80 -91t-124 -66t-169.5 -26q-94 0 -170.5 26t-124 66t-79.5 91.5t-45 99t-13 92.5h277q7 -54 47 -91.5t108 -37.5q67 0 108.5 38t47.5 91h276zM825 -47q-351 0 -556.5 165.5t-205.5 452.5q0 286 206 451.5t556 165.5t556 -165.5
t206 -451.5q0 -287 -205.5 -452.5t-556.5 -165.5zM825 311q137 0 221 68.5t84 191.5t-84 190.5t-221 67.5q-136 0 -220.5 -67.5t-84.5 -190.5t84.5 -191.5t220.5 -68.5z" />
    <glyph glyph-name="Ohungarumlaut" unicode="&#x150;" horiz-adv-x="2058" 
d="M1241 1954l-338 -357h-409l335 357h412zM1765 1954l-338 -357h-409l336 357h411zM1028 -47q-287 0 -501 88t-333.5 261.5t-119.5 414.5t119.5 414.5t333.5 261.5t501 88q288 0 503 -88t334.5 -261.5t119.5 -414.5t-119.5 -414.5t-334.5 -261.5t-503 -88zM1028 344
q210 0 329.5 98.5t119.5 274.5t-119.5 274.5t-329.5 98.5q-208 0 -328 -98.5t-120 -274.5t119 -274.5t329 -98.5z" />
    <glyph glyph-name="ohungarumlaut" unicode="&#x151;" horiz-adv-x="1650" 
d="M1038 1661l-338 -356h-409l336 356h411zM1563 1661l-338 -356h-410l336 356h412zM825 -47q-351 0 -556.5 165.5t-205.5 452.5q0 286 206 451.5t556 165.5t556 -165.5t206 -451.5q0 -287 -205.5 -452.5t-556.5 -165.5zM825 311q137 0 221 68.5t84 191.5t-84 190.5
t-221 67.5q-136 0 -220.5 -67.5t-84.5 -190.5t84.5 -191.5t220.5 -68.5z" />
    <glyph glyph-name="OE" unicode="&#x152;" horiz-adv-x="2979" 
d="M1815 360h1085v-360h-1575h-338q-426 0 -669.5 189.5t-243.5 527.5q0 339 243.5 528t669.5 189h828h1062v-361h-1062v-182h866v-332h-866v-199zM1325 375v684h-295q-208 0 -327 -90t-119 -252t119 -252t327 -90h295z" />
    <glyph glyph-name="oe" unicode="&#x153;" horiz-adv-x="2652" 
d="M1585 471q27 -103 115.5 -149t243.5 -46q122 0 204 26.5t170 86.5l234 -237q-228 -199 -635 -199q-350 0 -563 166q-208 -166 -529 -166q-351 0 -556.5 165.5t-205.5 452.5q0 286 206 452.5t556 166.5q316 0 527 -166q203 166 528 166q123 0 231 -24t197 -73.5t153 -121
t99 -170t35 -217.5q0 -70 -15 -113h-995zM1882 870q-229 0 -289 -174l568 2q-56 172 -279 172zM825 311q137 0 221 68.5t84 191.5q0 122 -84 191t-221 69q-135 0 -220 -69t-85 -191q0 -123 84.5 -191.5t220.5 -68.5z" />
    <glyph glyph-name="Racute" unicode="&#x154;" horiz-adv-x="1939" 
d="M1493 1954l-498 -357h-342l262 357h578zM1896 0h-569l-348 422h-336v-422h-496v1434h1018q146 0 269 -31.5t217 -92.5t147 -159t53 -223q0 -171 -95 -287t-263 -172zM643 756h481q105 0 163.5 36t58.5 123t-58.5 123.5t-163.5 36.5h-481v-319z" />
    <glyph glyph-name="racute" unicode="&#x155;" horiz-adv-x="1089" 
d="M1186 1661l-498 -356h-342l262 356h578zM608 0h-483v1141h483v-191q68 111 184.5 165t264.5 54v-395q-181 0 -297 -66.5t-152 -195.5v-512z" />
    <glyph glyph-name="Rcommaaccent" unicode="&#x156;" horiz-adv-x="1939" 
d="M1493 469l403 -469h-569l-348 422h-336v-422h-496v1434h1018q146 0 269 -31.5t217 -92.5t147 -159t53 -223q0 -171 -95 -287t-263 -172zM643 756h481q105 0 163.5 36t58.5 123t-58.5 123.5t-163.5 36.5h-481v-319zM946 -104q130 0 208.5 -87.5t78.5 -211.5
q0 -88 -37.5 -183.5t-123.5 -194t-208 -163.5l-90 137q176 113 223 252q-18 -18 -63 -18q-106 0 -179 68t-73 167t75 166.5t189 67.5z" />
    <glyph glyph-name="rcommaaccent" unicode="&#x157;" horiz-adv-x="1089" 
d="M608 0h-483v1141h483v-191q68 111 184.5 165t264.5 54v-395q-181 0 -297 -66.5t-152 -195.5v-512zM367 -104q130 0 208 -87.5t78 -211.5q0 -64 -22 -136t-65 -145t-116 -142t-165 -118l-90 137q176 113 223 252q-18 -18 -64 -18q-106 0 -179 68t-73 167t75 166.5
t190 67.5z" />
    <glyph glyph-name="Rcaron" unicode="&#x158;" horiz-adv-x="1939" 
d="M1159 1597h-502l-303 357h408l147 -172l148 172h405zM1896 0h-569l-348 422h-336v-422h-496v1434h1018q146 0 269 -31.5t217 -92.5t147 -159t53 -223q0 -171 -95 -287t-263 -172zM643 756h481q105 0 163.5 36t58.5 123t-58.5 123.5t-163.5 36.5h-481v-319z" />
    <glyph glyph-name="rcaron" unicode="&#x159;" horiz-adv-x="1089" 
d="M49 1661l303 -356h502l303 356h-405l-148 -172l-147 172h-408zM608 0h-483v1141h483v-191q68 111 184.5 165t264.5 54v-395q-181 0 -297 -66.5t-152 -195.5v-512z" />
    <glyph glyph-name="Sacute" unicode="&#x15a;" horiz-adv-x="1837" 
d="M1516 1954l-498 -357h-342l262 357h578zM956 934q155 -13 270.5 -31.5t223.5 -53.5t176.5 -84.5t109 -125.5t40.5 -176q0 -237 -208.5 -373.5t-598.5 -136.5q-278 0 -516 70.5t-412 201.5l248 287q128 -96 306 -151.5t382 -55.5q305 0 305 107q0 52 -72.5 75t-275.5 41
q-118 10 -215.5 25.5t-195 40t-171 60t-131.5 83t-88.5 113t-30.5 145.5q0 153 105.5 264t286 166.5t415.5 55.5q230 0 441.5 -53t363.5 -154l-237 -291q-229 150 -568 150q-60 0 -111 -4.5t-99 -14.5t-75.5 -30t-27.5 -48q0 -48 80.5 -67t279.5 -35z" />
    <glyph glyph-name="sacute" unicode="&#x15b;" horiz-adv-x="1503" 
d="M1348 1661l-498 -356h-342l262 356h578zM797 754q143 -7 259 -31.5t207 -69.5t141 -116.5t50 -165.5q0 -87 -42.5 -161.5t-124.5 -132.5t-215.5 -91t-303.5 -33q-222 0 -409.5 54.5t-321.5 144.5l196 245q231 -143 549 -143q111 0 166.5 16t55.5 54q0 36 -57 52t-202 25
q-132 7 -245 31.5t-209.5 68.5t-151.5 117t-55 168q0 182 185 293t495 111q188 0 355.5 -39t289.5 -109l-197 -254q-176 99 -454 99q-226 0 -226 -66q0 -34 58 -46t207 -21z" />
    <glyph glyph-name="Scircumflex" unicode="&#x15c;" horiz-adv-x="1837" 
d="M379 1597h403l148 172l147 -172h410l-303 357h-502zM956 934q155 -13 270.5 -31.5t223.5 -53.5t176.5 -84.5t109 -125.5t40.5 -176q0 -237 -208.5 -373.5t-598.5 -136.5q-278 0 -516 70.5t-412 201.5l248 287q128 -96 306 -151.5t382 -55.5q305 0 305 107q0 52 -72.5 75
t-275.5 41q-118 10 -215.5 25.5t-195 40t-171 60t-131.5 83t-88.5 113t-30.5 145.5q0 153 105.5 264t286 166.5t415.5 55.5q230 0 441.5 -53t363.5 -154l-237 -291q-229 150 -568 150q-60 0 -111 -4.5t-99 -14.5t-75.5 -30t-27.5 -48q0 -48 80.5 -67t279.5 -35z" />
    <glyph glyph-name="scircumflex" unicode="&#x15d;" horiz-adv-x="1503" 
d="M211 1305h403l148 172l147 -172h410l-303 356h-502zM797 754q143 -7 259 -31.5t207 -69.5t141 -116.5t50 -165.5q0 -87 -42.5 -161.5t-124.5 -132.5t-215.5 -91t-303.5 -33q-222 0 -409.5 54.5t-321.5 144.5l196 245q231 -143 549 -143q111 0 166.5 16t55.5 54
q0 36 -57 52t-202 25q-132 7 -245 31.5t-209.5 68.5t-151.5 117t-55 168q0 182 185 293t495 111q188 0 355.5 -39t289.5 -109l-197 -254q-176 99 -454 99q-226 0 -226 -66q0 -34 58 -46t207 -21z" />
    <glyph glyph-name="Scedilla" unicode="&#x15e;" horiz-adv-x="1837" 
d="M956 934q155 -13 270.5 -31.5t223.5 -53.5t176.5 -84.5t109 -125.5t40.5 -176q0 -237 -208.5 -373.5t-598.5 -136.5q-278 0 -516 70.5t-412 201.5l248 287q128 -96 306 -151.5t382 -55.5q305 0 305 107q0 52 -72.5 75t-275.5 41q-118 10 -215.5 25.5t-195 40t-171 60
t-131.5 83t-88.5 113t-30.5 145.5q0 153 105.5 264t286 166.5t415.5 55.5q230 0 441.5 -53t363.5 -154l-237 -291q-229 150 -568 150q-60 0 -111 -4.5t-99 -14.5t-75.5 -30t-27.5 -48q0 -48 80.5 -67t279.5 -35zM1167 -127l-319 -336l-293 78l205 315z" />
    <glyph glyph-name="scedilla" unicode="&#x15f;" horiz-adv-x="1503" 
d="M797 754q143 -7 259 -31.5t207 -69.5t141 -116.5t50 -165.5q0 -87 -42.5 -161.5t-124.5 -132.5t-215.5 -91t-303.5 -33q-222 0 -409.5 54.5t-321.5 144.5l196 245q231 -143 549 -143q111 0 166.5 16t55.5 54q0 36 -57 52t-202 25q-132 7 -245 31.5t-209.5 68.5
t-151.5 117t-55 168q0 182 185 293t495 111q188 0 355.5 -39t289.5 -109l-197 -254q-176 99 -454 99q-226 0 -226 -66q0 -34 58 -46t207 -21zM973 -127l-320 -336l-293 78l205 315z" />
    <glyph glyph-name="Scaron" unicode="&#x160;" horiz-adv-x="1837" 
d="M379 1954l303 -357h502l303 357h-406l-147 -172l-148 172h-407zM956 934q155 -13 270.5 -31.5t223.5 -53.5t176.5 -84.5t109 -125.5t40.5 -176q0 -237 -208.5 -373.5t-598.5 -136.5q-278 0 -516 70.5t-412 201.5l248 287q128 -96 306 -151.5t382 -55.5q305 0 305 107
q0 52 -72.5 75t-275.5 41q-118 10 -215.5 25.5t-195 40t-171 60t-131.5 83t-88.5 113t-30.5 145.5q0 153 105.5 264t286 166.5t415.5 55.5q230 0 441.5 -53t363.5 -154l-237 -291q-229 150 -568 150q-60 0 -111 -4.5t-99 -14.5t-75.5 -30t-27.5 -48q0 -48 80.5 -67
t279.5 -35z" />
    <glyph glyph-name="scaron" unicode="&#x161;" horiz-adv-x="1503" 
d="M211 1661l303 -356h502l303 356h-406l-147 -172l-148 172h-407zM797 754q143 -7 259 -31.5t207 -69.5t141 -116.5t50 -165.5q0 -87 -42.5 -161.5t-124.5 -132.5t-215.5 -91t-303.5 -33q-222 0 -409.5 54.5t-321.5 144.5l196 245q231 -143 549 -143q111 0 166.5 16
t55.5 54q0 36 -57 52t-202 25q-132 7 -245 31.5t-209.5 68.5t-151.5 117t-55 168q0 182 185 293t495 111q188 0 355.5 -39t289.5 -109l-197 -254q-176 99 -454 99q-226 0 -226 -66q0 -34 58 -46t207 -21z" />
    <glyph glyph-name="uni0162" unicode="&#x162;" horiz-adv-x="1691" 
d="M1663 1434v-379h-567v-1055h-500v1055h-565v379h1632zM1061 -113l-320 -336l-292 78l204 316z" />
    <glyph glyph-name="uni0163" unicode="&#x163;" horiz-adv-x="1175" 
d="M713 -45q-218 0 -351 116t-133 330v412h-192v328h192v264h482v-264h413v-328h-413v-334q0 -68 46.5 -108.5t125.5 -40.5q73 0 186 47l68 -305q-79 -55 -196.5 -86t-227.5 -31zM301 -385l205 315l407 -57l-319 -336z" />
    <glyph glyph-name="Tcaron" unicode="&#x164;" horiz-adv-x="1691" 
d="M293 1954l303 -357h502l303 357h-406l-147 -172l-148 172h-407zM1663 1434v-379h-567v-1055h-500v1055h-565v379h1632z" />
    <glyph glyph-name="tcaron" unicode="&#x165;" horiz-adv-x="1196" 
d="M944 1556q-104 0 -177 68t-73 166q0 99 74.5 166t189.5 67q130 0 207.5 -88t77.5 -211q0 -88 -37.5 -182.5t-123.5 -191t-208 -160.5l-88 135q176 116 222 250q-19 -19 -64 -19zM883 330q73 0 186 47l68 -305q-79 -55 -196.5 -86t-227.5 -31q-218 0 -351 116t-133 330
v412h-192v328h192v264h482v-264h413v-328h-413v-334q0 -68 46.5 -108.5t125.5 -40.5z" />
    <glyph glyph-name="Tbar" unicode="&#x166;" horiz-adv-x="1691" 
d="M1663 1055h-567v-279h254v-317h-254v-459h-500v459h-254v317h254v279h-565v379h1632v-379z" />
    <glyph glyph-name="tbar" unicode="&#x167;" horiz-adv-x="1175" 
d="M1069 377l68 -305q-79 -55 -196.5 -86t-227.5 -31q-218 0 -351 116t-133 330v129h-120v172h120v111h-192v328h192v264h482v-264h413v-328h-413v-111h336v-172h-336v-51q0 -68 46.5 -108.5t125.5 -40.5q73 0 186 47z" />
    <glyph glyph-name="Utilde" unicode="&#x168;" horiz-adv-x="1959" 
d="M1395 2005l172 -305q-58 -60 -146.5 -94.5t-191.5 -34.5q-82 0 -163.5 23t-153.5 46t-130 23q-63 0 -110 -21.5t-105 -66.5l-172 303q57 60 146 95.5t194 35.5q80 0 161 -23t153.5 -46t132.5 -23q128 0 213 88zM1337 1434h500v-758q0 -335 -224.5 -529t-631.5 -194
t-632.5 194t-225.5 529v758h500v-719q0 -168 89.5 -267.5t268.5 -99.5q178 0 267 99.5t89 267.5v719z" />
    <glyph glyph-name="utilde" unicode="&#x169;" horiz-adv-x="1667" 
d="M1223 1712l172 -305q-58 -60 -146.5 -94.5t-191.5 -34.5q-82 0 -163.5 23t-153.5 46t-130 23q-63 0 -110 -21.5t-105 -66.5l-172 303q57 60 146 95.5t194 35.5q80 0 161 -23t153.5 -46t132.5 -23q128 0 213 88zM1057 1141h483v-1141h-483v166q-153 -207 -443 -207
q-236 0 -369.5 138.5t-133.5 363.5v680h481v-649q0 -86 50.5 -135.5t141.5 -49.5q162 0 273 166v668z" />
    <glyph glyph-name="Umacron" unicode="&#x16a;" horiz-adv-x="1959" 
d="M477 1933h1008v-313h-1008v313zM1337 1434h500v-758q0 -335 -224.5 -529t-631.5 -194t-632.5 194t-225.5 529v758h500v-719q0 -168 89.5 -267.5t268.5 -99.5q178 0 267 99.5t89 267.5v719z" />
    <glyph glyph-name="umacron" unicode="&#x16b;" horiz-adv-x="1667" 
d="M305 1640h1008v-313h-1008v313zM1057 1141h483v-1141h-483v166q-153 -207 -443 -207q-236 0 -369.5 138.5t-133.5 363.5v680h481v-649q0 -86 50.5 -135.5t141.5 -49.5q162 0 273 166v668z" />
    <glyph glyph-name="Ubreve" unicode="&#x16c;" horiz-adv-x="1959" 
d="M1413 1954q0 -45 -13 -93t-45.5 -99t-80 -91t-124 -66t-169.5 -26q-94 0 -170.5 26t-124 66t-79.5 91.5t-45 99t-13 92.5h276q7 -54 47.5 -91.5t108.5 -37.5q67 0 108.5 38t47.5 91h276zM1337 1434h500v-758q0 -335 -224.5 -529t-631.5 -194t-632.5 194t-225.5 529v758
h500v-719q0 -168 89.5 -267.5t268.5 -99.5q178 0 267 99.5t89 267.5v719z" />
    <glyph glyph-name="ubreve" unicode="&#x16d;" horiz-adv-x="1667" 
d="M1241 1661q0 -45 -13 -93t-45.5 -99t-80 -91t-124 -66t-169.5 -26q-94 0 -170.5 26t-124 66t-79.5 91.5t-45 99t-13 92.5h276q7 -54 47.5 -91.5t108.5 -37.5q67 0 108.5 38t47.5 91h276zM1057 1141h483v-1141h-483v166q-153 -207 -443 -207q-236 0 -369.5 138.5
t-133.5 363.5v680h481v-649q0 -86 50.5 -135.5t141.5 -49.5q162 0 273 166v668z" />
    <glyph glyph-name="Uring" unicode="&#x16e;" horiz-adv-x="1959" 
d="M981 1571q-165 0 -260.5 67t-95.5 189t96 191t260 69t260 -69t96 -191t-95.5 -189t-260.5 -67zM879 1827q0 -43 28 -68.5t74 -25.5t74 25.5t28 68.5q0 44 -28 70t-74 26t-74 -26t-28 -70zM1337 1434h500v-758q0 -335 -224.5 -529t-631.5 -194t-632.5 194t-225.5 529v758
h500v-719q0 -168 89.5 -267.5t268.5 -99.5q178 0 267 99.5t89 267.5v719z" />
    <glyph glyph-name="uring" unicode="&#x16f;" horiz-adv-x="1667" 
d="M809 1278q-165 0 -260.5 67t-95.5 189t96 191t260 69t260 -69t96 -191t-95.5 -189t-260.5 -67zM707 1534q0 -43 28 -68.5t74 -25.5t74 25.5t28 68.5q0 44 -28 70t-74 26t-74 -26t-28 -70zM1057 1141h483v-1141h-483v166q-153 -207 -443 -207q-236 0 -369.5 138.5
t-133.5 363.5v680h481v-649q0 -86 50.5 -135.5t141.5 -49.5q162 0 273 166v668z" />
    <glyph glyph-name="Uhungarumlaut" unicode="&#x170;" horiz-adv-x="1959" 
d="M1192 1954l-338 -357h-410l336 357h412zM1716 1954l-338 -357h-409l336 357h411zM1337 1434h500v-758q0 -335 -224.5 -529t-631.5 -194t-632.5 194t-225.5 529v758h500v-719q0 -168 89.5 -267.5t268.5 -99.5q178 0 267 99.5t89 267.5v719z" />
    <glyph glyph-name="uhungarumlaut" unicode="&#x171;" horiz-adv-x="1667" 
d="M1020 1661l-338 -356h-410l336 356h412zM1544 1661l-338 -356h-409l336 356h411zM1057 1141h483v-1141h-483v166q-153 -207 -443 -207q-236 0 -369.5 138.5t-133.5 363.5v680h481v-649q0 -86 50.5 -135.5t141.5 -49.5q162 0 273 166v668z" />
    <glyph glyph-name="Uogonek" unicode="&#x172;" horiz-adv-x="1959" 
d="M1337 1434h500v-758q0 -253 -129 -428t-371 -248q-88 -37 -155.5 -101t-67.5 -135q0 -52 35.5 -83t93.5 -31q78 0 133 55l74 -90q-38 -56 -114 -96.5t-195 -40.5q-68 0 -128.5 15.5t-110 46t-78.5 80t-29 112.5q0 140 129 221q-382 13 -591.5 206t-209.5 517v758h500
v-719q0 -168 89.5 -267.5t268.5 -99.5q178 0 267 99.5t89 267.5v719z" />
    <glyph glyph-name="uogonek" unicode="&#x173;" horiz-adv-x="1667" 
d="M1544 -295l74 -90q-38 -56 -114 -96.5t-195 -40.5q-68 0 -128.5 15.5t-110 46t-78.5 80t-29 112.5q0 88 58 160.5t173 107.5h-137v166q-153 -207 -443 -207q-236 0 -369.5 138.5t-133.5 363.5v680h481v-649q0 -86 50.5 -135.5t141.5 -49.5q162 0 273 166v668h483v-1141
h-35q-88 -37 -155.5 -101t-67.5 -135q0 -52 35.5 -83t93.5 -31q78 0 133 55z" />
    <glyph glyph-name="Wcircumflex" unicode="&#x174;" horiz-adv-x="2623" 
d="M762 1597h403l148 172l147 -172h410l-303 357h-502zM2124 1434h493l-522 -1434h-489l-293 920l-295 -920h-490l-522 1434h502l278 -918l306 918h448l305 -918z" />
    <glyph glyph-name="wcircumflex" unicode="&#x175;" horiz-adv-x="2183" 
d="M543 1305h403l148 172l147 -172h410l-303 356h-502zM1720 1141h451l-395 -1141h-455l-229 692l-230 -692h-452l-396 1141h459l201 -660l215 660h414l215 -660z" />
    <glyph glyph-name="Ycircumflex" unicode="&#x176;" horiz-adv-x="1775" 
d="M336 1597h403l148 172l147 -172h410l-303 357h-502zM-20 1434h550l359 -570l356 570h549l-657 -957v-477h-500v477z" />
    <glyph glyph-name="ycircumflex" unicode="&#x177;" horiz-adv-x="1546" 
d="M225 1305h404l147 172l148 -172h409l-303 356h-502zM1067 1141h485l-770 -1551h-483l246 469l-551 1082h493l297 -654z" />
    <glyph glyph-name="Ydieresis" unicode="&#x178;" horiz-adv-x="1775" 
d="M594 1585q-98 0 -159.5 51t-61.5 136q0 84 61.5 133t159.5 49q97 0 158 -49.5t61 -132.5q0 -85 -61 -136t-158 -51zM1186 1585q-98 0 -159.5 51t-61.5 136q0 84 61.5 133t159.5 49q97 0 158 -49.5t61 -132.5q0 -85 -61 -136t-158 -51zM-20 1434h550l359 -570l356 570h549
l-657 -957v-477h-500v477z" />
    <glyph glyph-name="Zacute" unicode="&#x179;" horiz-adv-x="1818" 
d="M1511 1954l-497 -357h-342l262 357h577zM1708 1434v-297l-913 -775h946v-362h-1665v297l913 774h-876v363h1595z" />
    <glyph glyph-name="zacute" unicode="&#x17a;" horiz-adv-x="1482" 
d="M1337 1661l-497 -356h-342l262 356h577zM1384 1141v-279l-657 -520h682v-342h-1339v281l657 520h-629v340h1286z" />
    <glyph glyph-name="Zdotaccent" unicode="&#x17b;" horiz-adv-x="1818" 
d="M928 1585q-98 0 -158.5 49t-60.5 133q0 85 60.5 135t158.5 50q97 0 157 -50t60 -135q0 -84 -60 -133t-157 -49zM1708 1434v-297l-913 -775h946v-362h-1665v297l913 774h-876v363h1595z" />
    <glyph glyph-name="zdotaccent" unicode="&#x17c;" horiz-adv-x="1482" 
d="M754 1292q-98 0 -158.5 49.5t-60.5 133.5q0 85 60.5 134.5t158.5 49.5q97 0 157 -49.5t60 -134.5q0 -84 -60 -133.5t-157 -49.5zM1384 1141v-279l-657 -520h682v-342h-1339v281l657 520h-629v340h1286z" />
    <glyph glyph-name="Zcaron" unicode="&#x17d;" horiz-adv-x="1818" 
d="M375 1954l303 -357h502l303 357h-406l-147 -172l-148 172h-407zM1708 1434v-297l-913 -775h946v-362h-1665v297l913 774h-876v363h1595z" />
    <glyph glyph-name="zcaron" unicode="&#x17e;" horiz-adv-x="1482" 
d="M201 1661l303 -356h502l303 356h-406l-147 -172l-148 172h-407zM1384 1141v-279l-657 -520h682v-342h-1339v281l657 520h-629v340h1286z" />
    <glyph glyph-name="florin" unicode="&#x192;" horiz-adv-x="1484" 
d="M1192 1143q-70 0 -111 -35t-47 -102l-16 -144h309l-27 -256h-309l-24 -239q-20 -192 -155 -305t-335 -113q-98 0 -208 24.5t-179 61.5l90 289q26 -11 78 -22t94 -11q69 0 109.5 35t46.5 102l18 178h-307l25 256h309l22 207q20 190 155.5 303t334.5 113q100 0 210.5 -24.5
t176.5 -61.5l-92 -287q-24 10 -75.5 20.5t-92.5 10.5z" />
    <glyph glyph-name="Aringacute" unicode="&#x1fa;" 
d="M979 1571q-165 0 -260.5 67t-95.5 189q0 87 49 145l178 277h457l-222 -170q118 -20 184 -86t66 -166q0 -122 -95.5 -189t-260.5 -67zM979 1733q46 0 74 25.5t28 68.5q0 44 -28 70t-74 26t-74 -26t-28 -70q0 -43 28 -68.5t74 -25.5zM1450 0l-117 248h-717l-116 -248h-520
l727 1434h542l727 -1434h-526zM768 571h414l-207 443z" />
    <glyph glyph-name="aringacute" unicode="&#x1fb;" horiz-adv-x="1599" 
d="M811 1278q-165 0 -260.5 67t-95.5 189q0 73 39 131l-15 6l185 285h456l-219 -168q124 -17 195 -84t71 -170q0 -122 -95.5 -189t-260.5 -67zM811 1440q46 0 74 25.5t28 68.5q0 44 -28 70t-74 26t-74 -26t-28 -70q0 -43 28 -68.5t74 -25.5zM1483 213q0 -121 49 -213h-485
q-37 54 -37 100v4q-66 -67 -177 -106t-247 -39q-75 0 -146.5 11.5t-143 40t-125 71t-87 110t-33.5 150.5t33.5 149.5t87 109t124.5 71t143 40t147 11.5q136 0 247 -40t177 -108v72q0 105 -88 160t-256 55q-222 0 -404 -84l-94 299q117 52 281.5 80.5t316.5 28.5
q340 0 528.5 -142t188.5 -403v-428zM1018 332v18q-91 111 -285 111q-39 0 -74.5 -6t-68.5 -19t-52.5 -37t-19.5 -57q0 -44 35 -72.5t80.5 -38.5t99.5 -10q194 0 285 111z" />
    <glyph glyph-name="AEacute" unicode="&#x1fc;" horiz-adv-x="3014" 
d="M2462 1954l-498 -357h-342l262 357h578zM1849 360h1086v-360h-1577v264h-635l-211 -264h-553l1212 1434h230h1511v-361h-1063v-182h865v-332h-865v-199zM977 582h381v475z" />
    <glyph glyph-name="aeacute" unicode="&#x1fd;" horiz-adv-x="2533" 
d="M1839 1661l-498 -356h-342l263 356h577zM1462 471q27 -104 115 -148t246 -44q126 0 207 25t165 85l238 -237q-233 -199 -637 -199q-425 0 -627 205q-95 -98 -256.5 -148.5t-318.5 -50.5q-77 0 -150.5 11.5t-146 40t-126 71.5t-87 110t-33.5 150t33.5 149.5t87 109
t124.5 71t143 40t147 11.5q137 0 248.5 -41t177.5 -111v76q0 104 -88.5 159.5t-257.5 55.5q-227 0 -412 -84l-86 299q117 52 281 80.5t317 28.5q311 0 489 -127q195 131 504 131q154 0 283.5 -39t226 -113t151 -190t54.5 -262q0 -72 -12 -115h-1000zM1763 868
q-235 0 -293 -170h572q-56 170 -279 170zM1020 332v18q-91 111 -285 111q-39 0 -75 -6t-69 -19t-53 -37t-20 -57q0 -44 35.5 -72.5t81.5 -38.5t100 -10q194 0 285 111z" />
    <glyph glyph-name="Oslashacute" unicode="&#x1fe;" horiz-adv-x="2058" 
d="M1614 1954l-498 -357h-342l262 357h578zM1642 1337q166 -98 254.5 -255t88.5 -365q0 -241 -119.5 -414.5t-334.5 -261.5t-503 -88q-213 0 -387 49l-152 -205h-299l224 299q-164 98 -252 255.5t-88 365.5q0 241 119.5 414.5t333.5 261.5t501 88q215 0 389 -49l152 204h299
zM580 717q0 -164 104 -260l467 622q-51 11 -123 11q-208 0 -328 -98.5t-120 -274.5zM1028 344q210 0 329.5 98.5t119.5 274.5q0 165 -103 260l-469 -623q49 -10 123 -10z" />
    <glyph glyph-name="oslashacute" unicode="&#x1ff;" horiz-adv-x="1650" 
d="M1393 1661l-498 -356h-342l262 356h578zM1266 1096q154 -76 237.5 -211t83.5 -314q0 -287 -205.5 -452.5t-556.5 -165.5q-157 0 -288 35l-125 -191h-224l170 260q-141 79 -218 211t-77 303q0 286 206 451.5t556 165.5q140 0 260 -27l121 182h224zM520 571q0 -105 64 -172
l282 430h-41q-136 0 -220.5 -67.5t-84.5 -190.5zM825 311q137 0 221 68.5t84 191.5q0 124 -83 191l-295 -447q50 -4 73 -4z" />
    <glyph glyph-name="Scommaaccent" unicode="&#x218;" horiz-adv-x="1837" 
d="M956 934q155 -13 270.5 -31.5t223.5 -53.5t176.5 -84.5t109 -125.5t40.5 -176q0 -237 -208.5 -373.5t-598.5 -136.5q-278 0 -516 70.5t-412 201.5l248 287q128 -96 306 -151.5t382 -55.5q305 0 305 107q0 52 -72.5 75t-275.5 41q-118 10 -215.5 25.5t-195 40t-171 60
t-131.5 83t-88.5 113t-30.5 145.5q0 153 105.5 264t286 166.5t415.5 55.5q230 0 441.5 -53t363.5 -154l-237 -291q-229 150 -568 150q-60 0 -111 -4.5t-99 -14.5t-75.5 -30t-27.5 -48q0 -48 80.5 -67t279.5 -35zM954 -104q130 0 208.5 -87.5t78.5 -211.5q0 -88 -37.5 -183.5
t-123.5 -194t-208 -163.5l-90 137q178 114 224 252q-18 -18 -64 -18q-106 0 -179 68t-73 167t75 166.5t189 67.5z" />
    <glyph glyph-name="scommaaccent" unicode="&#x219;" horiz-adv-x="1503" 
d="M797 754q143 -7 259 -31.5t207 -69.5t141 -116.5t50 -165.5q0 -87 -42.5 -161.5t-124.5 -132.5t-215.5 -91t-303.5 -33q-222 0 -409.5 54.5t-321.5 144.5l196 245q231 -143 549 -143q111 0 166.5 16t55.5 54q0 36 -57 52t-202 25q-132 7 -245 31.5t-209.5 68.5
t-151.5 117t-55 168q0 182 185 293t495 111q188 0 355.5 -39t289.5 -109l-197 -254q-176 99 -454 99q-226 0 -226 -66q0 -34 58 -46t207 -21zM760 -104q130 0 208.5 -87.5t78.5 -211.5q0 -88 -37.5 -183.5t-123.5 -194t-208 -163.5l-90 137q176 113 223 252q-18 -18 -63 -18
q-106 0 -179 68t-73 167t75 166.5t189 67.5z" />
    <glyph glyph-name="uni021B" unicode="&#x21b;" horiz-adv-x="1175" 
d="M1137 72q-79 -55 -196.5 -86t-227.5 -31q-218 0 -351 116t-133 330v412h-192v328h192v264h482v-264h413v-328h-413v-334q0 -68 46.5 -108.5t125.5 -40.5q73 0 186 47zM700 -104q130 0 208.5 -87.5t78.5 -211.5q0 -88 -37.5 -183.5t-123.5 -194t-208 -163.5l-90 137
q178 114 224 252q-18 -18 -64 -18q-106 0 -179 68t-73 167t75 166.5t189 67.5z" />
    <glyph glyph-name="uni0237" unicode="&#x237;" horiz-adv-x="733" 
d="M125 1141h481v-1100q0 -229 -136 -362.5t-366 -133.5q-153 0 -307 56l68 290q68 -22 121 -22q62 0 100.5 35t38.5 104v1133z" />
    <glyph glyph-name="circumflex" unicode="&#x2c6;" horiz-adv-x="1249" 
d="M72 1597h403l148 172l147 -172h410l-303 357h-502z" />
    <glyph glyph-name="caron" unicode="&#x2c7;" horiz-adv-x="1249" 
d="M72 1954l303 -357h502l303 357h-406l-147 -172l-148 172h-407z" />
    <glyph glyph-name="breve" unicode="&#x2d8;" horiz-adv-x="1249" 
d="M1063 1954q0 -45 -13 -93t-45.5 -99t-80 -91t-124 -66t-169.5 -26q-94 0 -170.5 26t-124 66t-79.5 91.5t-45 99t-13 92.5h276q7 -54 47.5 -91.5t108.5 -37.5q67 0 108 38t47 91h277z" />
    <glyph glyph-name="dotaccent" unicode="&#x2d9;" horiz-adv-x="1249" 
d="M627 1585q-98 0 -158.5 49t-60.5 133q0 85 60.5 135t158.5 50q97 0 157 -50t60 -135q0 -84 -60 -133t-157 -49z" />
    <glyph glyph-name="ring" unicode="&#x2da;" horiz-adv-x="1249" 
d="M631 1573q-165 0 -261 66.5t-96 187.5q0 122 96.5 191t260.5 69t260 -69t96 -191q0 -121 -95.5 -187.5t-260.5 -66.5zM528 1827q0 -43 28.5 -68.5t74.5 -25.5t74 25.5t28 68.5q0 44 -28 70t-74 26t-74.5 -26t-28.5 -70z" />
    <glyph glyph-name="ogonek" unicode="&#x2db;" horiz-adv-x="1249" 
d="M852 -385q-38 -56 -114 -96.5t-195 -40.5q-68 0 -128.5 15.5t-110 46t-78.5 80t-29 112.5q0 105 81.5 184.5t241.5 103.5l219 -20q-89 -37 -156 -101.5t-67 -136.5q0 -51 36 -81.5t93 -30.5q78 0 133 55z" />
    <glyph glyph-name="tilde" unicode="&#x2dc;" horiz-adv-x="1249" 
d="M1038 2005l172 -305q-58 -60 -146.5 -94.5t-191.5 -34.5q-82 0 -163.5 23t-153 46t-129.5 23q-63 0 -110 -21.5t-105 -66.5l-172 303q57 60 146 95.5t194 35.5q80 0 161 -23t153 -46t132 -23q128 0 213 88z" />
    <glyph glyph-name="hungarumlaut" unicode="&#x2dd;" horiz-adv-x="1249" 
d="M737 1954l-338 -357h-409l336 357h411zM1262 1954l-338 -357h-410l336 357h412z" />
    <glyph glyph-name="uni0326" unicode="&#x326;" horiz-adv-x="0" 
d="M-651 -104q130 0 208 -87.5t78 -211.5q0 -64 -22 -136t-65 -145t-116 -142t-165 -118l-92 137q178 112 225 252q-18 -18 -66 -18q-105 0 -177 68t-72 167t75 166.5t189 67.5z" />
    <glyph glyph-name="uni0394" unicode="&#x394;" horiz-adv-x="1880" 
d="M936 1481l965 -1481h-443h-1108h-370zM604 313h666l-334 547z" />
    <glyph glyph-name="uni03A9" unicode="&#x3a9;" horiz-adv-x="2088" 
d="M2001 813q0 -148 -73 -269.5t-204 -209.5h234v-334h-774v334q137 45 223 149.5t86 239.5q0 164 -121.5 266.5t-327.5 102.5q-204 0 -326 -103t-122 -266q0 -134 86.5 -238.5t222.5 -150.5v-334h-774v334h236q-132 88 -205.5 209.5t-73.5 269.5q0 146 69 270t193 211.5
t302.5 137t391.5 49.5t392 -49.5t303 -137t193 -211.5t69 -270z" />
    <glyph glyph-name="uni03BC" unicode="&#x3bc;" horiz-adv-x="1644" 
d="M1038 1141h482v-1141h-482v197q-63 -88 -176 -138t-254 -51v-418h-483v887v12v652h483v-647q0 -86 46.5 -136.5t131.5 -50.5q145 0 252 168v666z" />
    <glyph glyph-name="pi" unicode="&#x3c0;" horiz-adv-x="2009" 
d="M1944 801h-342v-314q0 -71 38 -116t113 -45q46 0 90 14l62 -324q-130 -57 -277 -57q-95 0 -182.5 28.5t-156.5 82.5t-110.5 139t-41.5 190v402h-297v-801h-465v801h-340v340h805h762h342v-340z" />
    <glyph glyph-name="Wgrave" unicode="&#x1e80;" horiz-adv-x="2623" 
d="M733 1954h576l262 -357h-342zM2124 1434h493l-522 -1434h-489l-293 920l-295 -920h-490l-522 1434h502l278 -918l306 918h448l305 -918z" />
    <glyph glyph-name="wgrave" unicode="&#x1e81;" horiz-adv-x="2183" 
d="M514 1661h576l262 -356h-342zM1720 1141h451l-395 -1141h-455l-229 692l-230 -692h-452l-396 1141h459l201 -660l215 660h414l215 -660z" />
    <glyph glyph-name="Wacute" unicode="&#x1e82;" horiz-adv-x="2623" 
d="M1898 1954l-497 -357h-342l262 357h577zM2124 1434h493l-522 -1434h-489l-293 920l-295 -920h-490l-522 1434h502l278 -918l306 918h448l305 -918z" />
    <glyph glyph-name="wacute" unicode="&#x1e83;" horiz-adv-x="2183" 
d="M1679 1661l-497 -356h-342l262 356h577zM1720 1141h451l-395 -1141h-455l-229 692l-230 -692h-452l-396 1141h459l201 -660l215 660h414l215 -660z" />
    <glyph glyph-name="Wdieresis" unicode="&#x1e84;" horiz-adv-x="2623" 
d="M1020 1585q-98 0 -159.5 51t-61.5 136q0 84 61.5 133t159.5 49q97 0 158 -49.5t61 -132.5q0 -85 -61 -136t-158 -51zM1612 1585q-98 0 -159.5 51t-61.5 136q0 84 61.5 133t159.5 49q97 0 158 -49.5t61 -132.5q0 -85 -61 -136t-158 -51zM2124 1434h493l-522 -1434h-489
l-293 920l-295 -920h-490l-522 1434h502l278 -918l306 918h448l305 -918z" />
    <glyph glyph-name="wdieresis" unicode="&#x1e85;" horiz-adv-x="2183" 
d="M801 1292q-98 0 -159.5 51t-61.5 136q0 84 61.5 133t159.5 49q97 0 158 -49.5t61 -132.5q0 -85 -61 -136t-158 -51zM1393 1292q-98 0 -160 51t-62 136q0 83 62 132.5t160 49.5q97 0 158 -49.5t61 -132.5q0 -85 -61 -136t-158 -51zM1720 1141h451l-395 -1141h-455
l-229 692l-230 -692h-452l-396 1141h459l201 -660l215 660h414l215 -660z" />
    <glyph glyph-name="Ygrave" unicode="&#x1ef2;" horiz-adv-x="1775" 
d="M307 1954h576l262 -357h-342zM-20 1434h550l359 -570l356 570h549l-657 -957v-477h-500v477z" />
    <glyph glyph-name="ygrave" unicode="&#x1ef3;" horiz-adv-x="1546" 
d="M195 1661h575l262 -356h-342zM1067 1141h485l-770 -1551h-483l246 469l-551 1082h493l297 -654z" />
    <glyph glyph-name="endash" unicode="&#x2013;" horiz-adv-x="1640" 
d="M1518 440h-1395v367h1395v-367z" />
    <glyph glyph-name="emdash" unicode="&#x2014;" horiz-adv-x="2066" 
d="M1944 440h-1821v367h1821v-367z" />
    <glyph glyph-name="quoteleft" unicode="&#x2018;" horiz-adv-x="706" 
d="M365 645q-130 0 -208.5 87.5t-78.5 211.5q0 64 22 136t65 145t116 142t165 118l91 -137q-178 -114 -224 -252q18 18 64 18q106 0 179 -68t73 -167t-75 -166.5t-189 -67.5z" />
    <glyph glyph-name="quoteright" unicode="&#x2019;" horiz-adv-x="706" 
d="M342 1468q130 0 208.5 -88.5t78.5 -212.5q0 -88 -37.5 -183t-123.5 -193.5t-208 -163.5l-90 137q176 113 223 252q-19 -19 -63 -19q-106 0 -179 68t-73 168q0 99 75 167t189 68z" />
    <glyph glyph-name="quotesinglbase" unicode="&#x201a;" horiz-adv-x="706" 
d="M342 440q130 0 208.5 -88.5t78.5 -212.5q0 -88 -37.5 -183t-123.5 -193.5t-208 -163.5l-90 137q176 113 223 252q-19 -19 -63 -19q-106 0 -179 68t-73 168q0 99 75 167t189 68z" />
    <glyph glyph-name="quotedblleft" unicode="&#x201c;" horiz-adv-x="1320" 
d="M365 645q-130 0 -208.5 88.5t-78.5 212.5q0 64 22 136t65 145t116 142t165 118l91 -137q-177 -111 -224 -252q18 18 64 18q106 0 179 -68t73 -167t-75 -167.5t-189 -68.5zM979 647q-130 0 -208.5 87.5t-78.5 211.5q0 88 37.5 183.5t124.5 194t209 163.5l90 -137
q-178 -112 -225 -252q15 18 65 18q105 0 177.5 -68t72.5 -167t-75 -166.5t-189 -67.5z" />
    <glyph glyph-name="quotedblright" unicode="&#x201d;" horiz-adv-x="1320" 
d="M342 1468q130 0 208.5 -88t78.5 -213q0 -88 -37.5 -183t-123.5 -193.5t-208 -163.5l-90 137q178 117 223 252q-19 -19 -63 -19q-106 0 -179 68t-73 168q0 99 75 167t189 68zM956 1468q130 0 208.5 -88.5t78.5 -212.5q0 -88 -37.5 -183t-123.5 -193.5t-208 -163.5l-90 137
q177 111 224 252q-19 -19 -64 -19q-106 0 -179 68t-73 168q0 99 75 167t189 68z" />
    <glyph glyph-name="quotedblbase" unicode="&#x201e;" horiz-adv-x="1320" 
d="M956 440q130 0 208.5 -88.5t78.5 -212.5q0 -88 -37.5 -183t-123.5 -193.5t-208 -163.5l-90 137q177 111 224 252q-19 -19 -64 -19q-106 0 -179 68t-73 168q0 99 75 167t189 68zM342 440q130 0 208.5 -88.5t78.5 -212.5q0 -88 -37.5 -183t-123.5 -193.5t-208 -163.5
l-90 137q176 113 223 252q-19 -19 -63 -19q-106 0 -179 68t-73 168q0 99 75 167t189 68z" />
    <glyph glyph-name="dagger" unicode="&#x2020;" horiz-adv-x="940" 
d="M827 1286v-272h-209v-387h-301v387h-206v272h206v230h301v-230h209z" />
    <glyph glyph-name="daggerdbl" unicode="&#x2021;" horiz-adv-x="940" 
d="M827 1126h-215v-110h215v-223h-215v-166h-288v166h-213v223h213v110h-213v224h213v166h288v-166h215v-224z" />
    <glyph glyph-name="bullet" unicode="&#x2022;" horiz-adv-x="935" 
d="M469 266q-152 0 -251 92.5t-99 227.5t99 227t251 92q151 0 249.5 -92t98.5 -227t-98.5 -227.5t-249.5 -92.5z" />
    <glyph glyph-name="ellipsis" unicode="&#x2026;" horiz-adv-x="2078" 
d="M1040 -31q-120 0 -196 67.5t-76 168.5q0 100 76 167.5t196 67.5q118 0 194.5 -67.5t76.5 -167.5q0 -101 -76 -168.5t-195 -67.5zM1731 -31q-120 0 -196.5 67.5t-76.5 168.5q0 100 76.5 167.5t196.5 67.5q118 0 194 -67.5t76 -167.5q0 -101 -75.5 -168.5t-194.5 -67.5z
M348 -31q-119 0 -194.5 67.5t-75.5 168.5q0 100 76 167.5t194 67.5q120 0 196.5 -67.5t76.5 -167.5q0 -101 -76.5 -168.5t-196.5 -67.5z" />
    <glyph glyph-name="perthousand" unicode="&#x2030;" horiz-adv-x="2746" 
d="M440 748q-176 0 -291.5 103t-115.5 259t115.5 259.5t291.5 103.5q178 0 294 -103.5t116 -259.5t-116 -259t-294 -103zM1339 1434h316l-1120 -1434h-314zM440 975q67 0 108.5 35.5t41.5 99.5t-41.5 98.5t-108.5 34.5q-65 0 -106 -34.5t-41 -98.5t41 -99.5t106 -35.5z
M1434 -39q-177 0 -293.5 104t-116.5 259q0 156 116 259t294 103q176 0 291.5 -103t115.5 -259q0 -155 -115.5 -259t-291.5 -104zM2306 -39q-177 0 -293.5 104t-116.5 259q0 156 116 259t294 103q177 0 292.5 -103t115.5 -259q0 -155 -116 -259t-292 -104zM1434 190
q65 0 106 35t41 99t-41 99.5t-106 35.5q-66 0 -108 -35.5t-42 -99.5t42 -99t108 -35zM2306 190q65 0 106.5 35t41.5 99t-41.5 99.5t-106.5 35.5t-106 -35.5t-41 -99.5t41 -99t106 -35z" />
    <glyph glyph-name="minute" unicode="&#x2032;" horiz-adv-x="718" 
d="M264 1434h414l-197 -627h-413z" />
    <glyph glyph-name="second" unicode="&#x2033;" horiz-adv-x="1271" 
d="M264 1434h414l-197 -627h-413zM817 1434h414l-197 -627h-413z" />
    <glyph glyph-name="guilsinglleft" unicode="&#x2039;" horiz-adv-x="1001" 
d="M485 1092l-430 -465l430 -465h439l-430 465l430 465h-439z" />
    <glyph glyph-name="guilsinglright" unicode="&#x203a;" horiz-adv-x="1001" 
d="M514 1092h-438l432 -465l-432 -465h438l432 465z" />
    <glyph glyph-name="uni203D" unicode="&#x203d;" horiz-adv-x="1587" 
d="M780 1479q89 0 175.5 -11.5t169 -34t152 -59.5t122.5 -85t82.5 -114t29.5 -143q0 -119 -70.5 -205.5t-187.5 -131t-274 -54.5v-133h-377v332v237h375q-55 58 -213 58q-266 0 -473 -201l-244 260q148 136 323.5 210.5t409.5 74.5zM979 954q22 25 22 62t-22 59v-121z
M784 440q120 0 196.5 -67.5t76.5 -167.5q0 -101 -76.5 -168.5t-196.5 -67.5q-119 0 -194.5 67.5t-75.5 168.5q0 100 76 167.5t194 67.5z" />
    <glyph glyph-name="fraction" unicode="&#x2044;" horiz-adv-x="612" 
d="M-6 0h-334l952 1434h332z" />
    <glyph glyph-name="uni2070" unicode="&#x2070;" horiz-adv-x="1155" 
d="M578 899q-242 0 -383.5 120t-141.5 337t141 336.5t384 119.5t383.5 -119.5t140.5 -336.5t-141 -337t-383 -120zM578 1137q102 0 158.5 58t56.5 161t-56.5 161t-158.5 58t-159 -58t-57 -161t57 -161t159 -58z" />
    <glyph glyph-name="uni2074" unicode="&#x2074;" horiz-adv-x="1083" 
d="M1044 1290v-209h-147v-153h-295v153h-577v166l600 537h272v-494h147zM377 1290h225v215z" />
    <glyph glyph-name="uni2075" unicode="&#x2075;" horiz-adv-x="1021" 
d="M168 1225q138 -97 342 -97q160 0 160 82q0 84 -160 84q-130 0 -223 -49l-213 78l71 461h752v-213h-524l-23 -150q51 37 124.5 58.5t150.5 21.5q67 0 128.5 -17.5t113.5 -52t83 -92.5t31 -131q0 -65 -25 -119t-78 -97.5t-146.5 -68t-219.5 -24.5q-269 0 -477 143z" />
    <glyph glyph-name="uni2076" unicode="&#x2076;" horiz-adv-x="1087" 
d="M631 1501q70 0 137 -14.5t130.5 -45t102.5 -88.5t39 -136q0 -140 -122.5 -229t-344.5 -89q-239 0 -379.5 122t-140.5 335q0 212 140.5 334t379.5 122q291 0 447 -139l-150 -157q-112 88 -258 88q-213 0 -245 -174q107 71 264 71zM573 1108q74 0 116 24.5t42 75.5
q0 103 -158 103q-111 0 -202 -54q34 -149 202 -149z" />
    <glyph glyph-name="uni2077" unicode="&#x2077;" horiz-adv-x="935" 
d="M147 928l402 626h-518v230h880v-176l-422 -680h-342z" />
    <glyph glyph-name="uni2078" unicode="&#x2078;" horiz-adv-x="1079" 
d="M807 1374q100 -18 159.5 -69.5t59.5 -137.5q0 -124 -134 -196t-351 -72q-218 0 -354 72t-136 196q0 86 59.5 137.5t159.5 69.5q-90 12 -139 66.5t-49 130.5q0 81 65.5 136.5t166.5 80t227 24.5q125 0 224.5 -24.5t164.5 -80t65 -136.5q0 -76 -49 -130.5t-139 -66.5z
M391 1536q0 -39 43.5 -59.5t106.5 -20.5q62 0 104.5 20.5t42.5 59.5t-43 60.5t-104 21.5q-63 0 -106.5 -21.5t-43.5 -60.5zM539 1096q72 0 121 24t49 72t-48.5 71t-121.5 23t-121.5 -23t-48.5 -71t49 -72t121 -24z" />
    <glyph glyph-name="uni2079" unicode="&#x2079;" horiz-adv-x="1087" 
d="M512 1812q239 0 379.5 -122t140.5 -334q0 -213 -140.5 -335t-379.5 -122q-290 0 -446 139l149 158q112 -88 258 -88q214 0 246 174q-109 -72 -264 -72q-54 0 -108 8.5t-109.5 29t-97.5 52t-68.5 82t-26.5 113.5q0 141 122.5 229t344.5 88zM354 1503q0 -102 158 -102
q114 0 203 53q-35 150 -203 150q-158 0 -158 -101z" />
    <glyph glyph-name="uni20A8" unicode="&#x20a8;" horiz-adv-x="1818" 
d="M1743 1163h-295q36 -55 51 -116h244v-271h-246q-32 -116 -115 -199.5t-206 -130.5l385 -446h-496l-320 387h-634v270h680q212 0 278 119h-958v271h956q-66 116 -276 116h-680v271h1632v-271z" />
    <glyph glyph-name="Euro" unicode="&#x20ac;" horiz-adv-x="1861" 
d="M1067 313q124 0 213 57.5t137 157.5l377 -190q-35 -77 -100.5 -146.5t-155.5 -124t-209 -86.5t-250 -32q-322 0 -538 146.5t-277 414.5h-198v145h178q-2 20 -2 62q0 41 2 61h-178v148h198q61 266 277 412.5t538 146.5q131 0 250 -32t209 -86.5t155.5 -124t100.5 -146.5
l-377 -191q-48 100 -137 157.5t-213 57.5q-117 0 -200.5 -51t-127.5 -143h475v-148h-516q-2 -18 -2 -61q0 -44 2 -62h516v-145h-475q43 -94 127 -145.5t201 -51.5z" />
    <glyph glyph-name="uni2113" unicode="&#x2113;" horiz-adv-x="1292" 
d="M788 268q102 0 197 150l219 -211q-67 -120 -184 -184t-264 -64q-68 0 -131 13.5t-120.5 43t-102 72.5t-74 106.5t-37.5 141.5l-156 -55l-84 243q187 69 238 90v512q0 110 40 195t107.5 135t148.5 75t171 25t171 -25t148.5 -75.5t107.5 -136.5t40 -197q0 -200 -132.5 -354
t-414.5 -283l-14 -6v-67q0 -69 36 -106.5t90 -37.5zM756 1247q-94 0 -94 -143v-332q107 62 147.5 142.5t40.5 189.5q0 143 -94 143z" />
    <glyph glyph-name="uni2117" unicode="&#x2117;" horiz-adv-x="2037" 
d="M1020 1481q281 0 495.5 -95t331.5 -268.5t117 -400.5t-117 -400.5t-331.5 -268.5t-495.5 -95q-282 0 -497 95t-332 268.5t-117 400.5t117 400.5t332 268.5t497 95zM1020 61q242 0 427.5 75.5t292.5 225.5t107 355t-107 355.5t-292.5 226t-427.5 75.5q-181 0 -333 -44
t-263 -126.5t-173.5 -207.5t-62.5 -279q0 -205 108 -355t295 -225.5t429 -75.5zM1182 1219q104 0 194 -22.5t160.5 -65.5t111 -114t40.5 -161q0 -91 -40.5 -161.5t-111 -113.5t-160.5 -65t-194 -22h-301v-277h-381v1002h682zM1145 729q158 0 158 117q0 61 -43 89t-115 28
h-264v-234h264z" />
    <glyph glyph-name="trademark" unicode="&#x2122;" horiz-adv-x="1992" 
d="M825 1434v-207h-247v-494h-261v494h-247v207h755zM1579 1434h270v-701h-256v383l-215 -299h-6l-211 299v-383h-258v701h275l198 -283z" />
    <glyph glyph-name="estimated" unicode="&#x212e;" horiz-adv-x="1970" 
d="M987 197q403 0 625 213l178 -193q-286 -268 -803 -268q-266 0 -471 89t-323.5 264.5t-118.5 414.5t118.5 414.5t323.5 264.5t471 89q203 0 369 -54t288.5 -158.5t190 -270t68.5 -377.5h-283h-1022v-346q152 -82 389 -82zM1366 1155q-147 82 -379 82q-235 0 -389 -80v-299
h768v297z" />
    <glyph glyph-name="oneeighth" unicode="&#x215b;" horiz-adv-x="2320" 
d="M272 578v555q-87 -54 -235 -78v231q81 10 167 51.5t144 96.5h230v-856h-306zM672 0h-332l950 1434h332zM2048 446q101 -19 160 -69.5t59 -136.5q0 -124 -134 -196.5t-351 -72.5q-218 0 -354 72.5t-136 196.5q0 86 59 136.5t160 69.5q-90 12 -139 66.5t-49 130.5
q0 81 65.5 137t166.5 80.5t227 24.5q125 0 225 -24.5t164.5 -80.5t64.5 -137q0 -76 -49 -130.5t-139 -66.5zM1632 608q0 -39 43.5 -59.5t106.5 -20.5q62 0 104.5 20.5t42.5 59.5t-43 60.5t-104 21.5q-63 0 -106.5 -21.5t-43.5 -60.5zM1780 168q72 0 121 24t49 72t-48.5 71
t-121.5 23q-71 0 -119.5 -23t-48.5 -71t48.5 -72t119.5 -24z" />
    <glyph glyph-name="threeeighths" unicode="&#x215c;" horiz-adv-x="2615" 
d="M211 877q121 -111 256 -111q67 0 115.5 20t48.5 66q0 72 -158 72h-139v186h139q135 0 135 68q0 67 -145 67q-134 0 -246 -106l-176 125q67 93 185.5 144.5t260.5 51.5q84 0 159.5 -14t138 -41.5t99 -75t36.5 -108.5q0 -76 -48.5 -133t-136.5 -68q99 -19 158 -68t59 -133
q0 -127 -131 -197.5t-334 -70.5q-144 0 -265 53.5t-191 149.5zM971 0h-332l950 1434h332zM2345 446q101 -19 160 -69.5t59 -136.5q0 -124 -134 -196.5t-351 -72.5q-218 0 -354 72.5t-136 196.5q0 86 59 136.5t160 69.5q-90 12 -139 66.5t-49 130.5q0 81 65.5 137t166.5 80.5
t227 24.5q125 0 225 -24.5t164.5 -80.5t64.5 -137q0 -76 -49 -130.5t-139 -66.5zM1929 608q0 -39 43 -59.5t107 -20.5q62 0 104.5 20.5t42.5 59.5t-43 60.5t-104 21.5q-64 0 -107 -21.5t-43 -60.5zM2077 168q71 0 120.5 24t49.5 72t-49 71t-121 23q-73 0 -121.5 -23
t-48.5 -71t49 -72t121 -24z" />
    <glyph glyph-name="fiveeighths" unicode="&#x215d;" horiz-adv-x="2639" 
d="M168 874q137 -96 342 -96q160 0 160 82q0 84 -160 84q-130 0 -223 -49l-213 78l71 461h752v-213h-524l-23 -150q51 37 124.5 58.5t150.5 21.5q67 0 128.5 -17.5t113.5 -52t83 -92.5t31 -131q0 -65 -25 -119t-78 -97.5t-146 -68t-218 -24.5q-271 0 -479 143zM995 0h-331
l950 1434h332zM2370 446q101 -19 160 -69.5t59 -136.5q0 -124 -135.5 -196.5t-352.5 -72.5t-352 72.5t-135 196.5q0 86 59 136.5t160 69.5q-90 12 -139 66.5t-49 130.5q0 81 65 137t165 80.5t226 24.5t226.5 -24.5t165.5 -80.5t65 -137q0 -76 -49 -130.5t-139 -66.5z
M1952 608q0 -39 43 -59.5t108 -20.5q62 0 105 20.5t43 59.5t-43.5 60.5t-104.5 21.5q-64 0 -107.5 -21.5t-43.5 -60.5zM2101 168q71 0 120.5 24t49.5 72t-49 71t-121 23q-73 0 -121.5 -23t-48.5 -71t49 -72t121 -24z" />
    <glyph glyph-name="seveneighths" unicode="&#x215e;" horiz-adv-x="2355" 
d="M147 578l402 626h-518v230h880v-177l-422 -679h-342zM711 0h-332l950 1434h332zM2085 446q101 -19 160 -69.5t59 -136.5q0 -124 -135 -196.5t-352 -72.5t-352.5 72.5t-135.5 196.5q0 86 59 136.5t160 69.5q-90 12 -139 66.5t-49 130.5q0 81 65 137t165.5 80.5t226.5 24.5
t226 -24.5t165 -80.5t65 -137q0 -76 -49 -130.5t-139 -66.5zM1667 608q0 -39 43.5 -59.5t108.5 -20.5q62 0 104.5 20.5t42.5 59.5t-43 60.5t-104 21.5q-64 0 -108 -21.5t-44 -60.5zM1817 168q71 0 120.5 24t49.5 72t-49 71t-121 23q-73 0 -121.5 -23t-48.5 -71t49 -72
t121 -24z" />
    <glyph glyph-name="arrowleft" unicode="&#x2190;" horiz-adv-x="1968" 
d="M1757 903v-403h-944l338 -336l-227 -227l-764 763l764 764l227 -225l-338 -336h944z" />
    <glyph glyph-name="arrowup" unicode="&#x2191;" horiz-adv-x="1968" 
d="M1749 752l-227 -228l-336 338v-944h-404v944l-336 -338l-225 228l764 764z" />
    <glyph glyph-name="arrowright" unicode="&#x2192;" horiz-adv-x="1968" 
d="M1044 1464l764 -764l-764 -763l-227 227l338 336h-944v403h944l-338 336z" />
    <glyph glyph-name="arrowdown" unicode="&#x2193;" horiz-adv-x="1968" 
d="M1522 909l227 -227l-764 -764l-764 764l225 227l336 -338v945h404v-945z" />
    <glyph glyph-name="uni2196" unicode="&#x2196;" horiz-adv-x="1968" 
d="M1665 344l-276 -278l-666 665v-477h-328v1081h1082v-327h-478z" />
    <glyph glyph-name="uni2197" unicode="&#x2197;" horiz-adv-x="1968" 
d="M1573 254h-328v477l-663 -665l-279 278l666 664h-477v327h1081v-1081z" />
    <glyph glyph-name="uni2198" unicode="&#x2198;" horiz-adv-x="1968" 
d="M1245 1186h328v-1082h-1081v328h477l-666 666l279 276l663 -665v477z" />
    <glyph glyph-name="uni2199" unicode="&#x2199;" horiz-adv-x="1968" 
d="M1665 1098l-666 -666h478v-328h-1082v1082h328v-477l666 665z" />
    <glyph glyph-name="partialdiff" unicode="&#x2202;" horiz-adv-x="1650" 
d="M1587 625q0 -170 -54.5 -300t-156 -212t-240 -123t-311.5 -41q-228 0 -398.5 64t-267 193t-96.5 310q0 106 35 192.5t92 143.5t133 96.5t155.5 56.5t162.5 17q148 0 290 -43.5t208 -138.5q-69 144 -275 254t-499 131l61 342q249 -20 450 -86t331 -158.5t218 -211.5
t125 -239.5t37 -246.5zM825 295q140 0 224 55.5t84 165.5q0 108 -84 163.5t-224 55.5t-223.5 -55.5t-83.5 -163.5q0 -110 83.5 -165.5t223.5 -55.5z" />
    <glyph glyph-name="emptyset" unicode="&#x2205;" horiz-adv-x="1660" 
d="M1417 1135q152 -161 152 -406q0 -285 -199.5 -450.5t-538.5 -165.5q-217 0 -382 71l-164 -166l-174 172l137 132q-154 160 -154 407q0 285 199 451t538 166q223 0 388 -74l157 160l174 -170zM549 729q0 -52 16 -102l211 202l152 152q-46 12 -97 12q-129 0 -205.5 -70.5
t-76.5 -193.5zM831 467q128 0 204.5 69.5t76.5 192.5q0 55 -14 98l-168 -163l-189 -187q36 -10 90 -10z" />
    <glyph glyph-name="product" unicode="&#x220f;" horiz-adv-x="1755" 
d="M1610 1434v-1680h-449v1319h-567v-1319h-447v1680h1463z" />
    <glyph glyph-name="summation" unicode="&#x2211;" horiz-adv-x="1531" 
d="M1434 1073h-689l531 -368v-201l-537 -389h701v-361h-1364v307l727 543l-721 522v308h1352v-361z" />
    <glyph glyph-name="minus" unicode="&#x2212;" horiz-adv-x="1501" 
d="M1384 444h-1267v361h1267v-361z" />
    <glyph glyph-name="radical" unicode="&#x221a;" horiz-adv-x="1597" 
d="M1186 1434h434l-635 -1680h-375l-315 717h-264v336h385h172l192 -481z" />
    <glyph glyph-name="infinity" unicode="&#x221e;" horiz-adv-x="2158" 
d="M1548 1077q236 0 379.5 -131t143.5 -346t-143.5 -346t-379.5 -131q-151 0 -263 57t-206 158q-94 -100 -207 -157.5t-264 -57.5q-236 0 -379 131t-143 346t143 346t379 131q151 0 264 -57.5t207 -157.5q94 101 206 158t263 57zM621 432q70 0 127.5 42.5t123.5 125.5
q-66 83 -123.5 125.5t-127.5 42.5q-77 0 -126 -47.5t-49 -120.5t49 -120.5t126 -47.5zM1536 432q76 0 125 47t49 121t-49 121t-125 47q-69 0 -128 -43t-124 -125q65 -82 124 -125t128 -43z" />
    <glyph glyph-name="integral" unicode="&#x222b;" horiz-adv-x="989" 
d="M709 1556q162 0 284 -61l-55 -287q-38 9 -68 9q-69 0 -106 -36t-37 -104v-864v-123q0 -191 -122.5 -304.5t-321.5 -113.5q-163 0 -287 62l57 289q46 -11 66 -11q69 0 106 36t37 104v864v123q0 191 124 304t323 113z" />
    <glyph glyph-name="approxequal" unicode="&#x2248;" horiz-adv-x="1501" 
d="M1204 1126l174 -333q-59 -60 -147 -95.5t-191 -35.5q-102 0 -268.5 46t-245.5 46q-75 0 -123.5 -21t-105.5 -67l-172 333q57 60 146 95.5t192 35.5q101 0 267 -46t247 -46q146 0 227 88zM1204 584l174 -334q-58 -60 -146.5 -94.5t-191.5 -34.5q-102 0 -268.5 46
t-245.5 46q-74 0 -122 -21t-107 -67l-172 332q57 60 146 95.5t192 35.5q101 0 267 -46t247 -46q146 0 227 88z" />
    <glyph glyph-name="notequal" unicode="&#x2260;" horiz-adv-x="1501" 
d="M1384 745h-426l-84 -194h510v-361h-667l-80 -180h-334l78 180h-264v361h424l84 194h-508v363h667l80 180h334l-80 -180h266v-363z" />
    <glyph glyph-name="lessequal" unicode="&#x2264;" horiz-adv-x="1501" 
d="M1323 1333l-1165 -286v-361l1165 -289v330l-739 139l739 138v329zM158 8v307h1165v-307h-1165z" />
    <glyph glyph-name="greaterequal" unicode="&#x2265;" horiz-adv-x="1501" 
d="M180 1333v-329l738 -138l-738 -139v-330l1166 289v361zM1346 8h-1166v307h1166v-307z" />
    <glyph glyph-name="lozenge" unicode="&#x25ca;" horiz-adv-x="1634" 
d="M1047 1434l532 -705l-532 -729h-459l-535 729l535 705h459zM817 326l285 403l-285 391l-287 -391z" />
    <glyph glyph-name="germandbls.case" horiz-adv-x="1837" 
d="M799 311q122 -28 217 -28q123 0 185.5 43.5t62.5 119.5q0 75 -63 119.5t-189 44.5h-162v273h117q108 0 168.5 40t60.5 107q0 71 -68 109.5t-174 38.5q-146 0 -238.5 -72.5t-92.5 -214.5v-891h-500v842q0 304 221 471.5t608 167.5q215 0 383.5 -50t262.5 -141t94 -207
q0 -124 -101 -210.5t-266 -98.5q91 -6 170.5 -32t143 -69.5t100.5 -110t37 -148.5q0 -120 -77 -220.5t-221 -161.5t-327 -61q-187 0 -393 52z" />
    <glyph glyph-name="a.ss01" horiz-adv-x="1712" 
d="M662 1182q288 0 444 -193v152h481v-1141h-481v152q-159 -193 -444 -193q-270 0 -434.5 164.5t-164.5 447.5t164.5 447t434.5 164zM803 309q192 0 301 142v239q-108 141 -301 141q-135 0 -209 -69.5t-74 -190.5q0 -122 74 -192t209 -70z" />
    <glyph glyph-name="aacute.ss01" horiz-adv-x="1712" 
d="M1464 1661l-497 -356h-342l262 356h577zM662 1182q288 0 444 -193v152h481v-1141h-481v152q-159 -193 -444 -193q-270 0 -434.5 164.5t-164.5 447.5t164.5 447t434.5 164zM803 309q192 0 301 142v239q-108 141 -301 141q-135 0 -209 -69.5t-74 -190.5q0 -122 74 -192
t209 -70z" />
    <glyph glyph-name="abreve.ss01" horiz-adv-x="1712" 
d="M1313 1661q0 -45 -13 -93t-45.5 -99t-80 -91t-124 -66t-169.5 -26q-94 0 -170.5 26t-124 66t-79.5 91.5t-45 99t-13 92.5h276q7 -54 47.5 -91.5t108.5 -37.5q67 0 108 38t47 91h277zM662 1182q288 0 444 -193v152h481v-1141h-481v152q-159 -193 -444 -193
q-270 0 -434.5 164.5t-164.5 447.5t164.5 447t434.5 164zM803 309q192 0 301 142v239q-108 141 -301 141q-135 0 -209 -69.5t-74 -190.5q0 -122 74 -192t209 -70z" />
    <glyph glyph-name="acircumflex.ss01" horiz-adv-x="1712" 
d="M328 1305h403l148 172l147 -172h410l-303 356h-502zM662 1182q288 0 444 -193v152h481v-1141h-481v152q-159 -193 -444 -193q-270 0 -434.5 164.5t-164.5 447.5t164.5 447t434.5 164zM803 309q192 0 301 142v239q-108 141 -301 141q-135 0 -209 -69.5t-74 -190.5
q0 -122 74 -192t209 -70z" />
    <glyph glyph-name="adieresis.ss01" horiz-adv-x="1712" 
d="M586 1292q-98 0 -159.5 51t-61.5 136q0 84 61.5 133t159.5 49q97 0 158 -49.5t61 -132.5q0 -85 -61 -136t-158 -51zM1178 1292q-98 0 -160 51t-62 136q0 83 62 132.5t160 49.5q97 0 158 -49.5t61 -132.5q0 -85 -61 -136t-158 -51zM662 1182q288 0 444 -193v152h481v-1141
h-481v152q-159 -193 -444 -193q-270 0 -434.5 164.5t-164.5 447.5t164.5 447t434.5 164zM803 309q192 0 301 142v239q-108 141 -301 141q-135 0 -209 -69.5t-74 -190.5q0 -122 74 -192t209 -70z" />
    <glyph glyph-name="agrave.ss01" horiz-adv-x="1712" 
d="M299 1661h575l263 -356h-342zM662 1182q288 0 444 -193v152h481v-1141h-481v152q-159 -193 -444 -193q-270 0 -434.5 164.5t-164.5 447.5t164.5 447t434.5 164zM803 309q192 0 301 142v239q-108 141 -301 141q-135 0 -209 -69.5t-74 -190.5q0 -122 74 -192t209 -70z" />
    <glyph glyph-name="amacron.ss01" horiz-adv-x="1712" 
d="M377 1640h1007v-313h-1007v313zM662 1182q288 0 444 -193v152h481v-1141h-481v152q-159 -193 -444 -193q-270 0 -434.5 164.5t-164.5 447.5t164.5 447t434.5 164zM803 309q192 0 301 142v239q-108 141 -301 141q-135 0 -209 -69.5t-74 -190.5q0 -122 74 -192t209 -70z
" />
    <glyph glyph-name="aogonek.ss01" horiz-adv-x="1712" 
d="M1628 -295l74 -90q-38 -56 -114 -96.5t-195 -40.5q-68 0 -128.5 15.5t-110 46t-78.5 80t-29 112.5q0 88 58 160.5t173 107.5h-172v152q-159 -193 -444 -193q-270 0 -434.5 164.5t-164.5 447.5t164.5 447t434.5 164q288 0 444 -193v152h481v-1141h2q-88 -37 -155.5 -101
t-67.5 -135q0 -52 35.5 -83t93.5 -31q78 0 133 55zM1104 451v239q-108 141 -301 141q-135 0 -209 -69.5t-74 -190.5q0 -122 74 -192t209 -70q192 0 301 142z" />
    <glyph glyph-name="aring.ss01" horiz-adv-x="1712" 
d="M881 1278q-165 0 -261 67.5t-96 188.5q0 122 96.5 191t260.5 69t260 -69t96 -191t-95.5 -189t-260.5 -67zM778 1534q0 -43 28.5 -68.5t74.5 -25.5t74 25.5t28 68.5q0 44 -28 70t-74 26t-74.5 -26t-28.5 -70zM662 1182q288 0 444 -193v152h481v-1141h-481v152
q-159 -193 -444 -193q-270 0 -434.5 164.5t-164.5 447.5t164.5 447t434.5 164zM803 309q192 0 301 142v239q-108 141 -301 141q-135 0 -209 -69.5t-74 -190.5q0 -122 74 -192t209 -70z" />
    <glyph glyph-name="aringacute.ss01" horiz-adv-x="1712" 
d="M881 1278q-165 0 -261 67.5t-96 188.5q0 75 39 133l-10 4l184 285h457l-219 -168q123 -19 192.5 -85t69.5 -169q0 -122 -95.5 -189t-260.5 -67zM881 1440q46 0 74 25.5t28 68.5q0 44 -28 70t-74 26t-74.5 -26t-28.5 -70q0 -43 28.5 -68.5t74.5 -25.5zM1106 1141h481
v-1141h-481v152q-159 -193 -444 -193q-270 0 -434.5 164.5t-164.5 447.5t164.5 447t434.5 164q288 0 444 -193v152zM1104 451v239q-108 141 -301 141q-135 0 -209 -69.5t-74 -190.5q0 -122 74 -192t209 -70q192 0 301 142z" />
    <glyph glyph-name="atilde.ss01" horiz-adv-x="1712" 
d="M1294 1712l172 -305q-58 -60 -146.5 -94.5t-191.5 -34.5q-82 0 -163.5 23t-153 46t-129.5 23q-63 0 -110 -21.5t-105 -66.5l-172 303q57 60 146 95.5t194 35.5q80 0 161 -23t153 -46t132 -23q128 0 213 88zM662 1182q288 0 444 -193v152h481v-1141h-481v152
q-159 -193 -444 -193q-270 0 -434.5 164.5t-164.5 447.5t164.5 447t434.5 164zM803 309q192 0 301 142v239q-108 141 -301 141q-135 0 -209 -69.5t-74 -190.5q0 -122 74 -192t209 -70z" />
    <glyph glyph-name="a.sc" horiz-adv-x="1820" 
d="M1325 0l-98 203h-637l-98 -203h-506l667 1264h518l664 -1264h-510zM737 508h340l-170 350z" />
    <glyph glyph-name="aacute.sc" horiz-adv-x="1820" 
d="M1495 1784l-498 -357h-342l263 357h577zM1325 0l-98 203h-637l-98 -203h-506l667 1264h518l664 -1264h-510zM737 508h340l-170 350z" />
    <glyph glyph-name="abreve.sc" horiz-adv-x="1820" 
d="M911 1409q-94 0 -170.5 26t-124 66t-79.5 91.5t-45 99t-13 92.5h277q7 -54 47 -91.5t108 -37.5q67 0 108.5 38t47.5 91h276q0 -45 -13 -93t-45.5 -99t-80 -91t-124 -66t-169.5 -26zM1325 0l-98 203h-637l-98 -203h-506l667 1264h518l664 -1264h-510zM737 508h340
l-170 350z" />
    <glyph glyph-name="acircumflex.sc" horiz-adv-x="1820" 
d="M909 1599l-147 -172h-404l304 357h501l303 -357h-409zM1325 0l-98 203h-637l-98 -203h-506l667 1264h518l664 -1264h-510zM737 508h340l-170 350z" />
    <glyph glyph-name="adieresis.sc" horiz-adv-x="1820" 
d="M616 1415q-98 0 -159.5 51t-61.5 136q0 84 61.5 133t159.5 49q97 0 158.5 -49.5t61.5 -132.5q0 -85 -61.5 -136t-158.5 -51zM1208 1415q-98 0 -159.5 51t-61.5 136q0 84 61.5 133t159.5 49q97 0 158 -49.5t61 -132.5q0 -85 -61 -136t-158 -51zM1325 0l-98 203h-637
l-98 -203h-506l667 1264h518l664 -1264h-510zM737 508h340l-170 350z" />
    <glyph glyph-name="agrave.sc" horiz-adv-x="1820" 
d="M1165 1427h-342l-495 357h575zM1325 0l-98 203h-637l-98 -203h-506l667 1264h518l664 -1264h-510zM737 508h340l-170 350z" />
    <glyph glyph-name="amacron.sc" horiz-adv-x="1820" 
d="M1415 1763v-313h-1007v313h1007zM1325 0l-98 203h-637l-98 -203h-506l667 1264h518l664 -1264h-510zM737 508h340l-170 350z" />
    <glyph glyph-name="aogonek.sc" horiz-adv-x="1820" 
d="M1874 -295l74 -90q-38 -56 -114.5 -96.5t-195.5 -40.5q-68 0 -128.5 15.5t-110 46t-78.5 80t-29 112.5q0 88 58.5 160.5t173.5 107.5h-199l-98 203h-637l-98 -203h-506l667 1264h518l664 -1264q-88 -37 -155.5 -101t-67.5 -135q0 -52 35.5 -83t93.5 -31q78 0 133 55z
M737 508h340l-170 350z" />
    <glyph glyph-name="aring.sc" horiz-adv-x="1820" 
d="M911 1401q-165 0 -260.5 67t-95.5 189t96 191t260 69t260.5 -69t96.5 -191q0 -121 -96 -188.5t-261 -67.5zM911 1753q-46 0 -74 -26t-28 -70q0 -43 28 -68.5t74 -25.5t74.5 25.5t28.5 68.5q0 44 -28.5 70t-74.5 26zM1325 0l-98 203h-637l-98 -203h-506l667 1264h518
l664 -1264h-510zM737 508h340l-170 350z" />
    <glyph glyph-name="aringacute.sc" horiz-adv-x="1820" 
d="M911 1401q-165 0 -260.5 67t-95.5 189q0 82 45 143l182 279h457l-223 -170q118 -20 185 -86t67 -166q0 -121 -96 -188.5t-261 -67.5zM911 1563q46 0 74.5 25.5t28.5 68.5q0 44 -28.5 70t-74.5 26t-74 -26t-28 -70q0 -43 28 -68.5t74 -25.5zM1325 0l-98 203h-637l-98 -203
h-506l667 1264h518l664 -1264h-510zM737 508h340l-170 350z" />
    <glyph glyph-name="atilde.sc" horiz-adv-x="1820" 
d="M713 1493q-63 0 -110 -21.5t-105 -66.5l-172 303q57 60 146 95.5t194 35.5q80 0 161 -23t153 -46t132 -23q128 0 213 88l172 -305q-58 -60 -146.5 -94.5t-191.5 -34.5q-82 0 -163.5 23t-153 46t-129.5 23zM1325 0l-98 203h-637l-98 -203h-506l667 1264h518l664 -1264
h-510zM737 508h340l-170 350z" />
    <glyph glyph-name="ae.sc" horiz-adv-x="2795" 
d="M1724 346h988v-346h-1461v217h-575l-180 -217h-533l1106 1264h223h1399v-344h-967v-121h783v-318h-783v-135zM932 524h319v381z" />
    <glyph glyph-name="aeacute.sc" horiz-adv-x="2795" 
d="M2306 1784l-498 -357h-342l263 357h577zM1724 346h988v-346h-1461v217h-575l-180 -217h-533l1106 1264h223h1399v-344h-967v-121h783v-318h-783v-135zM932 524h319v381z" />
    <glyph glyph-name="b.sc" horiz-adv-x="1810" 
d="M1358 653q165 -9 276 -90.5t111 -216.5q0 -157 -148 -251.5t-395 -94.5h-1063v1264h987q248 0 395.5 -90.5t147.5 -239.5q0 -112 -83.5 -193t-227.5 -88zM616 961v-181h428q146 0 146 90q0 45 -40 68t-106 23h-428zM1100 305q69 0 109 25t40 73q0 50 -40 76.5t-109 26.5
h-484v-201h484z" />
    <glyph glyph-name="c.sc" horiz-adv-x="1716" 
d="M932 334q117 0 203.5 40t150.5 130l400 -205q-92 -156 -293.5 -250t-470.5 -94q-250 0 -441 78t-300 232.5t-109 367.5q0 212 109.5 366t304 232t452.5 78q256 0 454 -94t285 -246l-397 -203q-126 166 -348 166q-168 0 -268.5 -80t-100.5 -219q0 -141 100.5 -220
t268.5 -79z" />
    <glyph glyph-name="cacute.sc" horiz-adv-x="1716" 
d="M1487 1786l-498 -356h-342l262 356h578zM932 334q117 0 203.5 40t150.5 130l400 -205q-92 -156 -293.5 -250t-470.5 -94q-250 0 -441 78t-300 232.5t-109 367.5q0 212 109.5 366t304 232t452.5 78q256 0 454 -94t285 -246l-397 -203q-126 166 -348 166q-168 0 -268.5 -80
t-100.5 -219q0 -141 100.5 -220t268.5 -79z" />
    <glyph glyph-name="ccaron.sc" horiz-adv-x="1716" 
d="M350 1786l303 -356h502l303 356h-405l-148 -172l-147 172h-408zM932 334q117 0 203.5 40t150.5 130l400 -205q-92 -156 -293.5 -250t-470.5 -94q-250 0 -441 78t-300 232.5t-109 367.5q0 212 109.5 366t304 232t452.5 78q256 0 454 -94t285 -246l-397 -203
q-126 166 -348 166q-168 0 -268.5 -80t-100.5 -219q0 -141 100.5 -220t268.5 -79z" />
    <glyph glyph-name="ccedilla.sc" horiz-adv-x="1716" 
d="M932 334q117 0 203.5 40t150.5 130l400 -205q-92 -156 -293.5 -250t-470.5 -94q-250 0 -441 78t-300 232.5t-109 367.5q0 212 109.5 366t304 232t452.5 78q256 0 454 -94t285 -246l-397 -203q-126 166 -348 166q-168 0 -268.5 -80t-100.5 -219q0 -141 100.5 -220
t268.5 -79zM1133 -127l-320 -336l-293 78l205 315z" />
    <glyph glyph-name="ccircumflex.sc" horiz-adv-x="1716" 
d="M350 1430h404l147 172l148 -172h409l-303 356h-502zM932 334q117 0 203.5 40t150.5 130l400 -205q-92 -156 -293.5 -250t-470.5 -94q-250 0 -441 78t-300 232.5t-109 367.5q0 212 109.5 366t304 232t452.5 78q256 0 454 -94t285 -246l-397 -203q-126 166 -348 166
q-168 0 -268.5 -80t-100.5 -219q0 -141 100.5 -220t268.5 -79z" />
    <glyph glyph-name="cdotaccent.sc" horiz-adv-x="1716" 
d="M903 1417q-98 0 -158.5 49t-60.5 133q0 85 60.5 135t158.5 50q97 0 157 -50t60 -135q0 -84 -60 -133t-157 -49zM932 334q117 0 203.5 40t150.5 130l400 -205q-92 -156 -293.5 -250t-470.5 -94q-250 0 -441 78t-300 232.5t-109 367.5q0 212 109.5 366t304 232t452.5 78
q256 0 454 -94t285 -246l-397 -203q-126 166 -348 166q-168 0 -268.5 -80t-100.5 -219q0 -141 100.5 -220t268.5 -79z" />
    <glyph glyph-name="d.sc" horiz-adv-x="1832" 
d="M918 1264q390 0 615.5 -166.5t225.5 -464.5t-225.5 -465.5t-615.5 -167.5h-779v1264h779zM877 369q185 0 288 68t103 196q0 127 -103.5 195.5t-287.5 68.5h-254v-528h254z" />
    <glyph glyph-name="eth.sc" horiz-adv-x="1902" 
d="M997 1264q392 0 612 -165.5t220 -465.5t-220.5 -466.5t-611.5 -166.5h-788v518h-172v250h172v496h788zM948 360q185 0 286 70.5t101 202.5q0 131 -101.5 201.5t-285.5 70.5h-260v-137h313v-250h-313v-158h260z" />
    <glyph glyph-name="dcaron.sc" horiz-adv-x="1832" 
d="M317 1784l304 -357h501l303 357h-405l-148 -172l-147 172h-408zM918 1264q390 0 615.5 -166.5t225.5 -464.5t-225.5 -465.5t-615.5 -167.5h-779v1264h779zM877 369q185 0 288 68t103 196q0 127 -103.5 195.5t-287.5 68.5h-254v-528h254z" />
    <glyph glyph-name="dcroat.sc" horiz-adv-x="1902" 
d="M997 1264q392 0 612 -165.5t220 -465.5t-220.5 -466.5t-611.5 -166.5h-788v518h-172v250h172v496h788zM948 360q185 0 286 70.5t101 202.5q0 131 -101.5 201.5t-285.5 70.5h-260v-137h313v-250h-313v-158h260z" />
    <glyph glyph-name="e.sc" horiz-adv-x="1683" 
d="M614 342h985v-342h-1460v1264h1440v-342h-965v-125h770v-316h-770v-139z" />
    <glyph glyph-name="eacute.sc" horiz-adv-x="1683" 
d="M1438 1784l-498 -357h-342l262 357h578zM614 342h985v-342h-1460v1264h1440v-342h-965v-125h770v-316h-770v-139z" />
    <glyph glyph-name="ebreve.sc" horiz-adv-x="1683" 
d="M1288 1784q0 -45 -13 -93t-45.5 -99t-80 -91t-124 -66t-169.5 -26q-94 0 -170.5 26t-124 66t-79.5 91.5t-45 99t-13 92.5h276q7 -54 47.5 -91.5t108.5 -37.5q67 0 108.5 38t47.5 91h276zM614 342h985v-342h-1460v1264h1440v-342h-965v-125h770v-316h-770v-139z" />
    <glyph glyph-name="ecaron.sc" horiz-adv-x="1683" 
d="M301 1784l303 -357h502l303 357h-405l-148 -172l-147 172h-408zM614 342h985v-342h-1460v1264h1440v-342h-965v-125h770v-316h-770v-139z" />
    <glyph glyph-name="ecircumflex.sc" horiz-adv-x="1683" 
d="M301 1427h404l147 172l147 -172h410l-303 357h-502zM614 342h985v-342h-1460v1264h1440v-342h-965v-125h770v-316h-770v-139z" />
    <glyph glyph-name="edieresis.sc" horiz-adv-x="1683" 
d="M559 1415q-98 0 -159.5 51t-61.5 136q0 84 61.5 133t159.5 49q97 0 158 -49.5t61 -132.5q0 -85 -61 -136t-158 -51zM1151 1415q-98 0 -159.5 51t-61.5 136q0 84 61.5 133t159.5 49q97 0 158 -49.5t61 -132.5q0 -85 -61 -136t-158 -51zM614 342h985v-342h-1460v1264h1440
v-342h-965v-125h770v-316h-770v-139z" />
    <glyph glyph-name="edotaccent.sc" horiz-adv-x="1683" 
d="M854 1415q-98 0 -158.5 49t-60.5 133q0 85 60.5 135t158.5 50q97 0 157 -50t60 -135q0 -84 -60 -133t-157 -49zM614 342h985v-342h-1460v1264h1440v-342h-965v-125h770v-316h-770v-139z" />
    <glyph glyph-name="egrave.sc" horiz-adv-x="1683" 
d="M272 1784h576l262 -357h-342zM614 342h985v-342h-1460v1264h1440v-342h-965v-125h770v-316h-770v-139z" />
    <glyph glyph-name="emacron.sc" horiz-adv-x="1683" 
d="M350 1763h1008v-313h-1008v313zM614 342h985v-342h-1460v1264h1440v-342h-965v-125h770v-316h-770v-139z" />
    <glyph glyph-name="eogonek.sc" horiz-adv-x="1683" 
d="M1638 -295l74 -90q-38 -56 -114 -96.5t-195 -40.5q-68 0 -128.5 15.5t-110 46t-78.5 80t-29 112.5q0 88 58 160.5t173 107.5h-1149v1264h1440v-342h-965v-125h770v-316h-770v-139h985v-342q-88 -37 -155.5 -101t-67.5 -135q0 -52 35.5 -83t93.5 -31q78 0 133 55z" />
    <glyph glyph-name="f.sc" horiz-adv-x="1622" 
d="M1573 907h-950v-153h763v-351h-763v-403h-484v1264h1434v-357z" />
    <glyph glyph-name="fi.sc" horiz-adv-x="2385" 
d="M1573 907h-950v-153h763v-351h-763v-403h-484v1264h1434v-357zM2245 0h-484v1264h484v-1264z" />
    <glyph glyph-name="fl.sc" horiz-adv-x="3117" 
d="M1573 907h-950v-153h763v-351h-763v-403h-484v1264h1434v-357zM2245 362h831v-362h-1315v1264h484v-902z" />
    <glyph glyph-name="g.sc" horiz-adv-x="1824" 
d="M1733 756v-568q-118 -108 -313.5 -170.5t-444.5 -62.5q-420 0 -661.5 177t-241.5 501q0 215 110.5 368t312.5 230.5t478 77.5q443 0 717 -215l-328 -254q-91 59 -174.5 82.5t-194.5 23.5q-213 0 -321.5 -81.5t-108.5 -231.5q0 -153 109.5 -237.5t320.5 -84.5
q177 0 293 54v96h-360v295h807z" />
    <glyph glyph-name="gbreve.sc" horiz-adv-x="1824" 
d="M1395 1786q0 -45 -13 -93t-45.5 -99t-80 -91t-124 -66t-169.5 -26q-94 0 -170.5 26t-124 66t-80 91.5t-45.5 99t-13 92.5h277q7 -54 47.5 -91.5t108.5 -37.5q67 0 108 38t47 91h277zM1733 756v-568q-118 -108 -313.5 -170.5t-444.5 -62.5q-420 0 -661.5 177t-241.5 501
q0 215 110.5 368t312.5 230.5t478 77.5q443 0 717 -215l-328 -254q-91 59 -174.5 82.5t-194.5 23.5q-213 0 -321.5 -81.5t-108.5 -231.5q0 -153 109.5 -237.5t320.5 -84.5q177 0 293 54v96h-360v295h807z" />
    <glyph glyph-name="gcircumflex.sc" horiz-adv-x="1824" 
d="M410 1430h403l148 172l147 -172h410l-304 356h-501zM1733 756v-568q-118 -108 -313.5 -170.5t-444.5 -62.5q-420 0 -661.5 177t-241.5 501q0 215 110.5 368t312.5 230.5t478 77.5q443 0 717 -215l-328 -254q-91 59 -174.5 82.5t-194.5 23.5q-213 0 -321.5 -81.5
t-108.5 -231.5q0 -153 109.5 -237.5t320.5 -84.5q177 0 293 54v96h-360v295h807z" />
    <glyph glyph-name="gcommaaccent.sc" horiz-adv-x="1824" 
d="M1733 756v-568q-118 -108 -313.5 -170.5t-444.5 -62.5q-420 0 -661.5 177t-241.5 501q0 215 110.5 368t312.5 230.5t478 77.5q443 0 717 -215l-328 -254q-91 59 -174.5 82.5t-194.5 23.5q-213 0 -321.5 -81.5t-108.5 -231.5q0 -153 109.5 -237.5t320.5 -84.5
q177 0 293 54v96h-360v295h807zM963 -104q130 0 208 -87.5t78 -211.5q0 -64 -22 -136t-65 -145t-116 -142t-165 -118l-90 137q176 113 223 252q-18 -18 -64 -18q-106 0 -179 68t-73 167t75 166.5t190 67.5z" />
    <glyph glyph-name="gdotaccent.sc" horiz-adv-x="1824" 
d="M963 1417q-98 0 -159 49t-61 133q0 85 61 135t159 50q97 0 157 -50t60 -135q0 -84 -60 -133t-157 -49zM1733 756v-568q-118 -108 -313.5 -170.5t-444.5 -62.5q-420 0 -661.5 177t-241.5 501q0 215 110.5 368t312.5 230.5t478 77.5q443 0 717 -215l-328 -254
q-91 59 -174.5 82.5t-194.5 23.5q-213 0 -321.5 -81.5t-108.5 -231.5q0 -153 109.5 -237.5t320.5 -84.5q177 0 293 54v96h-360v295h807z" />
    <glyph glyph-name="h.sc" horiz-adv-x="1902" 
d="M1280 1264h483v-1264h-483v453h-657v-453h-484v1264h484v-433h657v433z" />
    <glyph glyph-name="hbar.sc" horiz-adv-x="2068" 
d="M2032 1098v-158h-187v-940h-483v453h-657v-453h-484v940h-186v158h186v166h484v-166h657v166h483v-166h187zM1362 831v109h-657v-109h657z" />
    <glyph glyph-name="hcircumflex.sc" horiz-adv-x="1902" 
d="M399 1430h404l147 172l148 -172h409l-303 356h-502zM1280 1264h483v-1264h-483v453h-657v-453h-484v1264h484v-433h657v433z" />
    <glyph glyph-name="i.sc" horiz-adv-x="763" 
d="M623 0h-484v1264h484v-1264z" />
    <glyph glyph-name="iacute.sc" horiz-adv-x="763" 
d="M965 1784l-498 -357h-342l262 357h578zM623 0h-484v1264h484v-1264z" />
    <glyph glyph-name="ibreve.sc" horiz-adv-x="763" 
d="M815 1784q0 -45 -13 -93t-45.5 -99t-80 -91t-124 -66t-169.5 -26q-94 0 -170.5 26t-124 66t-79.5 91.5t-45 99t-13 92.5h276q7 -54 47.5 -91.5t108.5 -37.5q67 0 108.5 38t47.5 91h276zM623 0h-484v1264h484v-1264z" />
    <glyph glyph-name="icircumflex.sc" horiz-adv-x="763" 
d="M-174 1427h405l148 172l147 -172h410l-303 357h-502zM623 0h-484v1264h484v-1264z" />
    <glyph glyph-name="idieresis.sc" horiz-adv-x="763" 
d="M86 1415q-98 0 -159.5 51t-61.5 136q0 84 61.5 133t159.5 49q97 0 158 -49.5t61 -132.5q0 -85 -61 -136t-158 -51zM678 1415q-98 0 -159.5 51t-61.5 136q0 84 61.5 133t159.5 49q97 0 158 -49.5t61 -132.5q0 -85 -61 -136t-158 -51zM623 0h-484v1264h484v-1264z" />
    <glyph glyph-name="i.sc.loclTRK" horiz-adv-x="763" 
d="M381 1415q-98 0 -158.5 49t-60.5 133q0 85 60.5 135t158.5 50q97 0 157 -50t60 -135q0 -84 -60 -133t-157 -49zM623 0h-484v1264h484v-1264z" />
    <glyph glyph-name="igrave.sc" horiz-adv-x="763" 
d="M-203 1784h578l262 -357h-342zM623 0h-484v1264h484v-1264z" />
    <glyph glyph-name="ij.sc" horiz-adv-x="2224" 
d="M623 0h-484v1264h484v-1264zM1104 463q81 -127 256 -127q140 0 201 71.5t61 204.5v652h485v-691q0 -284 -195 -451t-552 -167q-213 0 -360.5 62.5t-251.5 183.5z" />
    <glyph glyph-name="imacron.sc" horiz-adv-x="792" 
d="M-106 1933h1007v-313h-1007v313zM647 0h-500v1434h500v-1434z" />
    <glyph glyph-name="iogonek.sc" horiz-adv-x="792" 
d="M686 -295l74 -90q-38 -56 -114 -96.5t-195 -40.5q-92 0 -168.5 26.5t-127.5 85.5t-51 142q0 88 58 160.5t172 107.5h-187v1434h500v-1434q-88 -37 -155.5 -101t-67.5 -135q0 -52 35.5 -83t93.5 -31q78 0 133 55z" />
    <glyph glyph-name="itilde.sc" horiz-adv-x="792" 
d="M811 2005l172 -305q-58 -60 -146.5 -94.5t-191.5 -34.5q-82 0 -163.5 23t-153 46t-129.5 23q-63 0 -110 -21.5t-105 -66.5l-172 303q57 60 146 95.5t194 35.5q80 0 161 -23t153 -46t132 -23q128 0 213 88zM647 0h-500v1434h500v-1434z" />
    <glyph glyph-name="j.sc" horiz-adv-x="1460" 
d="M340 463q81 -127 256 -127q140 0 201 71.5t61 204.5v652h485v-691q0 -284 -195 -451t-552 -167q-213 0 -360.5 62.5t-251.5 183.5z" />
    <glyph glyph-name="jcircumflex.sc" horiz-adv-x="1460" 
d="M549 1427h403l148 172l147 -172h410l-303 357h-502zM340 463q81 -127 256 -127q140 0 201 71.5t61 204.5v652h485v-691q0 -284 -195 -451t-552 -167q-213 0 -360.5 62.5t-251.5 183.5z" />
    <glyph glyph-name="k.sc" horiz-adv-x="1757" 
d="M1210 0l-360 473l-227 -207v-266h-484v1264h484v-504l534 504h584l-549 -508l580 -756h-562z" />
    <glyph glyph-name="kcommaaccent.sc" horiz-adv-x="1757" 
d="M1192 756l580 -756h-562l-360 473l-227 -207v-266h-484v1264h484v-504l534 504h584zM889 -104q130 0 208.5 -87.5t78.5 -211.5q0 -88 -37.5 -183.5t-123.5 -194t-208 -163.5l-90 137q176 113 223 252q-18 -18 -63 -18q-106 0 -179 68t-73 167t75 166.5t189 67.5z" />
    <glyph glyph-name="l.sc" horiz-adv-x="1495" 
d="M623 365h831v-365h-1315v1264h484v-899z" />
    <glyph glyph-name="lacute.sc" horiz-adv-x="1495" 
d="M965 1784l-498 -357h-342l262 357h578zM623 365h831v-365h-1315v1264h484v-899z" />
    <glyph glyph-name="lcaron.sc" horiz-adv-x="1495" 
d="M1036 1370q130 0 208.5 -88.5t78.5 -212.5q0 -88 -37.5 -183.5t-123.5 -194t-208 -163.5l-90 138q176 113 223 252q-19 -19 -63 -19q-106 0 -179 68t-73 168q0 99 75 167t189 68zM623 365h831v-365h-1315v1264h484v-899z" />
    <glyph glyph-name="lcommaaccent.sc" horiz-adv-x="1495" 
d="M623 365h831v-365h-1315v1264h484v-899zM803 -104q130 0 208.5 -87.5t78.5 -211.5q0 -88 -37.5 -183.5t-123.5 -194t-208 -163.5l-90 137q176 113 223 252q-18 -18 -63 -18q-106 0 -179 68t-73 167t75 166.5t189 67.5z" />
    <glyph glyph-name="ldot.sc" horiz-adv-x="1495" 
d="M623 358h831v-358h-1315v1264h484v-906zM1028 580q-119 0 -195.5 67t-76.5 166q0 101 76.5 168.5t195.5 67.5t195.5 -67.5t76.5 -168.5q0 -99 -76.5 -166t-195.5 -67z" />
    <glyph glyph-name="lslash.sc" horiz-adv-x="1640" 
d="M768 362h831v-362h-1314v365l-219 -105v262l219 105v637h483v-410l381 180v-264l-381 -178v-230z" />
    <glyph glyph-name="m.sc" horiz-adv-x="2166" 
d="M1516 1264h512v-1264h-478v702l-460 -534h-23l-461 534v-702h-467v1264h529l422 -516z" />
    <glyph glyph-name="n.sc" horiz-adv-x="1902" 
d="M1296 1264h467v-1264h-424l-733 711v-711h-467v1264h512l645 -631v631z" />
    <glyph glyph-name="nacute.sc" horiz-adv-x="1902" 
d="M1536 1784l-498 -357h-342l262 357h578zM1296 1264h467v-1264h-424l-733 711v-711h-467v1264h512l645 -631v631z" />
    <glyph glyph-name="ncaron.sc" horiz-adv-x="1902" 
d="M399 1784l303 -357h502l303 357h-405l-148 -172l-147 172h-408zM1296 1264h467v-1264h-424l-733 711v-711h-467v1264h512l645 -631v631z" />
    <glyph glyph-name="ncommaaccent.sc" horiz-adv-x="1902" 
d="M1296 1264h467v-1264h-424l-733 711v-711h-467v1264h512l645 -631v631zM952 -104q130 0 208.5 -87.5t78.5 -211.5q0 -88 -37.5 -183.5t-123.5 -194t-208 -163.5l-90 137q178 114 224 252q-18 -18 -64 -18q-106 0 -179 68t-73 167t75 166.5t189 67.5z" />
    <glyph glyph-name="eng.sc" horiz-adv-x="1902" 
d="M1763 92q0 -225 -140 -359t-370 -134q-147 0 -290 49l61 278q62 -18 121 -18q67 0 108 32t45 101l-692 670v-711h-467v1264h512l645 -631v631h467v-1172z" />
    <glyph glyph-name="ntilde.sc" horiz-adv-x="1902" 
d="M1366 1835l172 -305q-58 -60 -146.5 -94.5t-191.5 -34.5q-82 0 -163.5 23t-153 46t-129.5 23q-63 0 -110 -21.5t-105 -66.5l-172 303q57 60 146 95.5t194 35.5q80 0 161 -23t153 -46t132 -23q128 0 213 88zM1296 1264h467v-1264h-424l-733 711v-711h-467v1264h512
l645 -631v631z" />
    <glyph glyph-name="o.sc" horiz-adv-x="1888" 
d="M944 -45q-264 0 -460 78.5t-304 232t-108 367.5t108 367t303.5 231t460.5 78t460 -78t303 -231t108 -367q0 -321 -235 -499.5t-636 -178.5zM944 330q179 0 280 80.5t101 222.5q0 141 -101.5 221t-279.5 80q-180 0 -280.5 -80t-100.5 -221q0 -143 100.5 -223t280.5 -80z
" />
    <glyph glyph-name="oacute.sc" horiz-adv-x="1888" 
d="M1528 1784l-498 -357h-342l262 357h578zM944 -45q-264 0 -460 78.5t-304 232t-108 367.5t108 367t303.5 231t460.5 78t460 -78t303 -231t108 -367q0 -321 -235 -499.5t-636 -178.5zM944 330q179 0 280 80.5t101 222.5q0 141 -101.5 221t-279.5 80q-180 0 -280.5 -80
t-100.5 -221q0 -143 100.5 -223t280.5 -80z" />
    <glyph glyph-name="obreve.sc" horiz-adv-x="1888" 
d="M1376 1784q0 -45 -13 -93t-45.5 -99t-80 -91t-124 -66t-169.5 -26q-94 0 -170.5 26t-124 66t-79.5 91.5t-45 99t-13 92.5h276q7 -54 47.5 -91.5t108.5 -37.5q67 0 108.5 38t47.5 91h276zM944 -45q-264 0 -460 78.5t-304 232t-108 367.5t108 367t303.5 231t460.5 78
t460 -78t303 -231t108 -367q0 -321 -235 -499.5t-636 -178.5zM944 330q179 0 280 80.5t101 222.5q0 141 -101.5 221t-279.5 80q-180 0 -280.5 -80t-100.5 -221q0 -143 100.5 -223t280.5 -80z" />
    <glyph glyph-name="ocircumflex.sc" horiz-adv-x="1888" 
d="M391 1427h404l147 172l148 -172h409l-303 357h-502zM944 -45q-264 0 -460 78.5t-304 232t-108 367.5t108 367t303.5 231t460.5 78t460 -78t303 -231t108 -367q0 -321 -235 -499.5t-636 -178.5zM944 330q179 0 280 80.5t101 222.5q0 141 -101.5 221t-279.5 80
q-180 0 -280.5 -80t-100.5 -221q0 -143 100.5 -223t280.5 -80z" />
    <glyph glyph-name="odieresis.sc" horiz-adv-x="1888" 
d="M649 1415q-98 0 -159.5 51t-61.5 136q0 84 61.5 133t159.5 49q97 0 158 -49.5t61 -132.5q0 -85 -61 -136t-158 -51zM1241 1415q-98 0 -159.5 51t-61.5 136q0 84 61.5 133t159.5 49q97 0 158 -49.5t61 -132.5q0 -85 -61 -136t-158 -51zM944 -45q-264 0 -460 78.5t-304 232
t-108 367.5t108 367t303.5 231t460.5 78t460 -78t303 -231t108 -367q0 -321 -235 -499.5t-636 -178.5zM944 330q179 0 280 80.5t101 222.5q0 141 -101.5 221t-279.5 80q-180 0 -280.5 -80t-100.5 -221q0 -143 100.5 -223t280.5 -80z" />
    <glyph glyph-name="ograve.sc" horiz-adv-x="1888" 
d="M362 1784h576l262 -357h-342zM944 -45q-264 0 -460 78.5t-304 232t-108 367.5t108 367t303.5 231t460.5 78t460 -78t303 -231t108 -367q0 -321 -235 -499.5t-636 -178.5zM944 330q179 0 280 80.5t101 222.5q0 141 -101.5 221t-279.5 80q-180 0 -280.5 -80t-100.5 -221
q0 -143 100.5 -223t280.5 -80z" />
    <glyph glyph-name="ohungarumlaut.sc" horiz-adv-x="1888" 
d="M1157 1784l-338 -357h-409l335 357h412zM1681 1784l-338 -357h-409l336 357h411zM944 -45q-264 0 -460 78.5t-304 232t-108 367.5t108 367t303.5 231t460.5 78t460 -78t303 -231t108 -367q0 -321 -235 -499.5t-636 -178.5zM944 330q179 0 280 80.5t101 222.5
q0 141 -101.5 221t-279.5 80q-180 0 -280.5 -80t-100.5 -221q0 -143 100.5 -223t280.5 -80z" />
    <glyph glyph-name="omacron.sc" horiz-adv-x="1888" 
d="M440 1763h1008v-313h-1008v313zM944 -45q-264 0 -460 78.5t-304 232t-108 367.5t108 367t303.5 231t460.5 78t460 -78t303 -231t108 -367q0 -321 -235 -499.5t-636 -178.5zM944 330q179 0 280 80.5t101 222.5q0 141 -101.5 221t-279.5 80q-180 0 -280.5 -80t-100.5 -221
q0 -143 100.5 -223t280.5 -80z" />
    <glyph glyph-name="oslash.sc" horiz-adv-x="1888" 
d="M1530 1165q285 -180 285 -532q0 -321 -235 -499.5t-636 -178.5q-175 0 -321 35l-148 -193h-297l215 281q-155 86 -238 226.5t-83 328.5q0 214 108 367t303.5 231t460.5 78q196 0 365 -45l155 202h297zM563 633q0 -134 92 -217l394 510q-44 8 -105 8q-180 0 -280.5 -80
t-100.5 -221zM944 330q179 0 280 80.5t101 222.5q0 109 -63 184l-375 -485q18 -2 57 -2z" />
    <glyph glyph-name="oslashacute.sc" horiz-adv-x="1888" 
d="M1540 1784l-498 -357h-342l263 357h577zM1530 1165q285 -180 285 -532q0 -321 -235 -499.5t-636 -178.5q-175 0 -321 35l-148 -193h-297l215 281q-155 86 -238 226.5t-83 328.5q0 214 108 367t303.5 231t460.5 78q196 0 365 -45l155 202h297zM563 633q0 -134 92 -217
l394 510q-44 8 -105 8q-180 0 -280.5 -80t-100.5 -221zM944 330q179 0 280 80.5t101 222.5q0 109 -63 184l-375 -485q18 -2 57 -2z" />
    <glyph glyph-name="otilde.sc" horiz-adv-x="1888" 
d="M1358 1835l172 -305q-58 -60 -146.5 -94.5t-191.5 -34.5q-82 0 -163.5 23t-153.5 46t-130 23q-63 0 -110 -21.5t-105 -66.5l-172 303q57 60 146 95.5t194 35.5q80 0 161 -23t153.5 -46t132.5 -23q128 0 213 88zM944 -45q-264 0 -460 78.5t-304 232t-108 367.5t108 367
t303.5 231t460.5 78t460 -78t303 -231t108 -367q0 -321 -235 -499.5t-636 -178.5zM944 330q179 0 280 80.5t101 222.5q0 141 -101.5 221t-279.5 80q-180 0 -280.5 -80t-100.5 -221q0 -143 100.5 -223t280.5 -80z" />
    <glyph glyph-name="oe.sc" horiz-adv-x="2756" 
d="M1688 342h985v-342h-1461h-297q-394 0 -618.5 167t-224.5 466t224.5 465t618.5 166h771h966v-342h-964v-125h770v-316h-770v-139zM956 360h256v545h-256q-183 0 -286 -72t-103 -200q0 -129 103 -201t286 -72z" />
    <glyph glyph-name="p.sc" horiz-adv-x="1751" 
d="M1067 1264q195 0 336 -49t222 -153.5t81 -256.5q0 -231 -171.5 -350t-467.5 -119h-444v-336h-484v1264h928zM1028 655q191 0 191 133q0 134 -191 134h-405v-267h405z" />
    <glyph glyph-name="thorn.sc" horiz-adv-x="1751" 
d="M1065 1106q192 0 334 -49t224.5 -153.5t82.5 -256.5q0 -117 -47 -207.5t-132.5 -147t-202 -85.5t-259.5 -29h-442v-178h-484v1264h484v-158h442zM1024 510q195 0 195 131q0 73 -50.5 103t-144.5 30h-401v-264h401z" />
    <glyph glyph-name="q.sc" horiz-adv-x="1888" 
d="M1815 633q0 -309 -222 -490l168 -163l-180 -177l-221 215q-183 -63 -416 -63q-264 0 -460 78.5t-304 232t-108 367.5t108 367t303.5 231t460.5 78t460 -78t303 -231t108 -367zM944 330q48 0 92 6l-137 133l182 176l191 -186q53 71 53 174q0 141 -101.5 221t-279.5 80
q-180 0 -280.5 -80t-100.5 -221q0 -143 100.5 -223t280.5 -80z" />
    <glyph glyph-name="r.sc" horiz-adv-x="1808" 
d="M1759 0h-551l-303 356h-284v-356h-482v1264h942q107 0 201.5 -17t174.5 -53t138 -88.5t90.5 -126t32.5 -162.5q0 -154 -84 -256.5t-235 -154.5zM618 676h422q92 0 141.5 27t49.5 96t-49.5 96t-141.5 27h-422v-246z" />
    <glyph glyph-name="racute.sc" horiz-adv-x="1808" 
d="M1430 1784l-498 -357h-342l262 357h578zM1759 0h-551l-303 356h-284v-356h-482v1264h942q107 0 201.5 -17t174.5 -53t138 -88.5t90.5 -126t32.5 -162.5q0 -154 -84 -256.5t-235 -154.5zM618 676h422q92 0 141.5 27t49.5 96t-49.5 96t-141.5 27h-422v-246z" />
    <glyph glyph-name="rcaron.sc" horiz-adv-x="1808" 
d="M1098 1427h-502l-303 357h407l148 -172l147 172h406zM1759 0h-551l-303 356h-284v-356h-482v1264h942q107 0 201.5 -17t174.5 -53t138 -88.5t90.5 -126t32.5 -162.5q0 -154 -84 -256.5t-235 -154.5zM618 676h422q92 0 141.5 27t49.5 96t-49.5 96t-141.5 27h-422v-246z
" />
    <glyph glyph-name="rcommaaccent.sc" horiz-adv-x="1808" 
d="M1399 406l360 -406h-551l-303 356h-284v-356h-482v1264h942q107 0 201.5 -17t174.5 -53t138 -88.5t90.5 -126t32.5 -162.5q0 -154 -84 -256.5t-235 -154.5zM618 676h422q92 0 141.5 27t49.5 96t-49.5 96t-141.5 27h-422v-246zM881 -104q130 0 208 -87.5t78 -211.5
q0 -64 -22 -136t-65 -145t-116 -142t-165 -118l-90 137q176 113 223 252q-18 -18 -64 -18q-106 0 -179 68t-73 167t75 166.5t190 67.5z" />
    <glyph glyph-name="s.sc" horiz-adv-x="1714" 
d="M891 836q101 -9 181 -19t161 -26.5t141.5 -38.5t114 -53.5t87.5 -71.5t53.5 -93t19.5 -118q0 -214 -192 -337.5t-554 -123.5q-257 0 -477.5 62.5t-380.5 177.5l238 268q114 -79 278.5 -126.5t349.5 -47.5q263 0 263 76q0 36 -62.5 54.5t-241.5 35.5q-93 8 -171.5 18.5
t-159 28t-143.5 40t-119.5 54.5t-94 71.5t-59 91.5t-21.5 113q0 137 99 237t267.5 150t385.5 50q209 0 402 -46t335 -135l-225 -268q-204 121 -514 121q-272 0 -272 -68q0 -33 68 -47.5t243 -29.5z" />
    <glyph glyph-name="sacute.sc" horiz-adv-x="1714" 
d="M1454 1784l-498 -357h-342l263 357h577zM891 836q101 -9 181 -19t161 -26.5t141.5 -38.5t114 -53.5t87.5 -71.5t53.5 -93t19.5 -118q0 -214 -192 -337.5t-554 -123.5q-257 0 -477.5 62.5t-380.5 177.5l238 268q114 -79 278.5 -126.5t349.5 -47.5q263 0 263 76
q0 36 -62.5 54.5t-241.5 35.5q-93 8 -171.5 18.5t-159 28t-143.5 40t-119.5 54.5t-94 71.5t-59 91.5t-21.5 113q0 137 99 237t267.5 150t385.5 50q209 0 402 -46t335 -135l-225 -268q-204 121 -514 121q-272 0 -272 -68q0 -33 68 -47.5t243 -29.5z" />
    <glyph glyph-name="scaron.sc" horiz-adv-x="1714" 
d="M317 1784l304 -357h501l303 357h-405l-148 -172l-147 172h-408zM891 836q101 -9 181 -19t161 -26.5t141.5 -38.5t114 -53.5t87.5 -71.5t53.5 -93t19.5 -118q0 -214 -192 -337.5t-554 -123.5q-257 0 -477.5 62.5t-380.5 177.5l238 268q114 -79 278.5 -126.5t349.5 -47.5
q263 0 263 76q0 36 -62.5 54.5t-241.5 35.5q-93 8 -171.5 18.5t-159 28t-143.5 40t-119.5 54.5t-94 71.5t-59 91.5t-21.5 113q0 137 99 237t267.5 150t385.5 50q209 0 402 -46t335 -135l-225 -268q-204 121 -514 121q-272 0 -272 -68q0 -33 68 -47.5t243 -29.5z" />
    <glyph glyph-name="scedilla.sc" horiz-adv-x="1714" 
d="M891 836q101 -9 181 -19t161 -26.5t141.5 -38.5t114 -53.5t87.5 -71.5t53.5 -93t19.5 -118q0 -214 -192 -337.5t-554 -123.5q-257 0 -477.5 62.5t-380.5 177.5l238 268q114 -79 278.5 -126.5t349.5 -47.5q263 0 263 76q0 36 -62.5 54.5t-241.5 35.5q-93 8 -171.5 18.5
t-159 28t-143.5 40t-119.5 54.5t-94 71.5t-59 91.5t-21.5 113q0 137 99 237t267.5 150t385.5 50q209 0 402 -46t335 -135l-225 -268q-204 121 -514 121q-272 0 -272 -68q0 -33 68 -47.5t243 -29.5zM1104 -127l-320 -336l-292 78l204 315z" />
    <glyph glyph-name="scircumflex.sc" horiz-adv-x="1714" 
d="M317 1427h404l147 172l148 -172h409l-303 357h-501zM891 836q101 -9 181 -19t161 -26.5t141.5 -38.5t114 -53.5t87.5 -71.5t53.5 -93t19.5 -118q0 -214 -192 -337.5t-554 -123.5q-257 0 -477.5 62.5t-380.5 177.5l238 268q114 -79 278.5 -126.5t349.5 -47.5q263 0 263 76
q0 36 -62.5 54.5t-241.5 35.5q-93 8 -171.5 18.5t-159 28t-143.5 40t-119.5 54.5t-94 71.5t-59 91.5t-21.5 113q0 137 99 237t267.5 150t385.5 50q209 0 402 -46t335 -135l-225 -268q-204 121 -514 121q-272 0 -272 -68q0 -33 68 -47.5t243 -29.5z" />
    <glyph glyph-name="scommaaccent.sc" horiz-adv-x="1714" 
d="M891 836q101 -9 181 -19t161 -26.5t141.5 -38.5t114 -53.5t87.5 -71.5t53.5 -93t19.5 -118q0 -214 -192 -337.5t-554 -123.5q-257 0 -477.5 62.5t-380.5 177.5l238 268q114 -79 278.5 -126.5t349.5 -47.5q263 0 263 76q0 36 -62.5 54.5t-241.5 35.5q-93 8 -171.5 18.5
t-159 28t-143.5 40t-119.5 54.5t-94 71.5t-59 91.5t-21.5 113q0 137 99 237t267.5 150t385.5 50q209 0 402 -46t335 -135l-225 -268q-204 121 -514 121q-272 0 -272 -68q0 -33 68 -47.5t243 -29.5zM891 -104q130 0 208.5 -87.5t78.5 -211.5q0 -88 -37.5 -183.5t-123.5 -194
t-208 -163.5l-90 137q176 113 223 252q-18 -18 -63 -18q-106 0 -179 68t-73 167t75 166.5t189 67.5z" />
    <glyph glyph-name="germandbls.sc" horiz-adv-x="3420" 
d="M891 836q101 -9 181 -19t161 -26.5t141.5 -38.5t114 -53.5t87.5 -71.5t53.5 -93t19.5 -118q0 -214 -192 -337.5t-554 -123.5q-257 0 -477.5 62.5t-380.5 177.5l238 268q114 -79 278.5 -126.5t349.5 -47.5q263 0 263 76q0 36 -62.5 54.5t-241.5 35.5q-93 8 -171.5 18.5
t-159 28t-143.5 40t-119.5 54.5t-94 71.5t-59 91.5t-21.5 113q0 137 99 237t267.5 150t385.5 50q209 0 402 -46t335 -135l-225 -268q-204 121 -514 121q-272 0 -272 -68q0 -33 68 -47.5t243 -29.5zM2597 836q101 -9 181 -19t161 -26.5t141.5 -38.5t114 -53.5t87.5 -71.5
t53.5 -93t19.5 -118q0 -214 -192 -337.5t-554 -123.5q-257 0 -477.5 62.5t-380.5 177.5l238 268q114 -79 278.5 -126.5t349.5 -47.5q262 0 262 76q0 36 -62 54.5t-241 35.5q-93 8 -171.5 18.5t-159 28t-143.5 40t-119.5 54.5t-94 71.5t-59 91.5t-21.5 113q0 137 99 237
t267.5 150t385.5 50q209 0 402 -46t335 -135l-225 -268q-204 121 -514 121q-272 0 -272 -68q0 -33 68 -47.5t243 -29.5z" />
    <glyph glyph-name="t.sc" horiz-adv-x="1581" 
d="M1542 1264v-363h-508v-901h-483v901h-512v363h1503z" />
    <glyph glyph-name="tbar.sc" horiz-adv-x="1564" 
d="M1534 901h-510v-205h262v-313h-262v-383h-483v383h-262v313h262v205h-510v363h1503v-363z" />
    <glyph glyph-name="tcaron.sc" horiz-adv-x="1581" 
d="M240 1784l303 -357h501l304 357h-406l-147 -172l-148 172h-407zM1542 1264v-363h-508v-901h-483v901h-512v363h1503z" />
    <glyph glyph-name="uni0163.sc" horiz-adv-x="1581" 
d="M1542 1264v-363h-508v-901h-483v901h-512v363h1503zM1006 -115l-320 -336l-293 78l205 316z" />
    <glyph glyph-name="u.sc" horiz-adv-x="1824" 
d="M1225 1264h483v-668q0 -298 -209 -469.5t-586 -171.5t-585.5 171.5t-208.5 469.5v668h483v-629q0 -136 77 -216.5t234 -80.5q156 0 234 80.5t78 216.5v629z" />
    <glyph glyph-name="uacute.sc" horiz-adv-x="1824" 
d="M1497 1784l-498 -357h-342l263 357h577zM1225 1264h483v-668q0 -298 -209 -469.5t-586 -171.5t-585.5 171.5t-208.5 469.5v668h483v-629q0 -136 77 -216.5t234 -80.5q156 0 234 80.5t78 216.5v629z" />
    <glyph glyph-name="ubreve.sc" horiz-adv-x="1824" 
d="M1346 1784q0 -45 -13 -93t-46 -99t-80.5 -91t-124 -66t-169.5 -26q-94 0 -170.5 26t-124 66t-79.5 91.5t-45 99t-13 92.5h277q7 -54 47 -91.5t108 -37.5q67 0 108.5 38t47.5 91h277zM1225 1264h483v-668q0 -298 -209 -469.5t-586 -171.5t-585.5 171.5t-208.5 469.5v668
h483v-629q0 -136 77 -216.5t234 -80.5q156 0 234 80.5t78 216.5v629z" />
    <glyph glyph-name="ucircumflex.sc" horiz-adv-x="1824" 
d="M360 1427h404l147 172l148 -172h409l-303 357h-501zM1225 1264h483v-668q0 -298 -209 -469.5t-586 -171.5t-585.5 171.5t-208.5 469.5v668h483v-629q0 -136 77 -216.5t234 -80.5q156 0 234 80.5t78 216.5v629z" />
    <glyph glyph-name="udieresis.sc" horiz-adv-x="1824" 
d="M618 1415q-98 0 -159.5 51t-61.5 136q0 84 61.5 133t159.5 49q97 0 158.5 -49.5t61.5 -132.5q0 -85 -61.5 -136t-158.5 -51zM1210 1415q-98 0 -159.5 51t-61.5 136q0 84 61.5 133t159.5 49q97 0 158.5 -49.5t61.5 -132.5q0 -85 -61.5 -136t-158.5 -51zM1225 1264h483
v-668q0 -298 -209 -469.5t-586 -171.5t-585.5 171.5t-208.5 469.5v668h483v-629q0 -136 77 -216.5t234 -80.5q156 0 234 80.5t78 216.5v629z" />
    <glyph glyph-name="ugrave.sc" horiz-adv-x="1824" 
d="M332 1784h575l262 -357h-342zM1225 1264h483v-668q0 -298 -209 -469.5t-586 -171.5t-585.5 171.5t-208.5 469.5v668h483v-629q0 -136 77 -216.5t234 -80.5q156 0 234 80.5t78 216.5v629z" />
    <glyph glyph-name="uhungarumlaut.sc" horiz-adv-x="1824" 
d="M1124 1784l-338 -357h-409l336 357h411zM1649 1784l-338 -357h-410l336 357h412zM1225 1264h483v-668q0 -298 -209 -469.5t-586 -171.5t-585.5 171.5t-208.5 469.5v668h483v-629q0 -136 77 -216.5t234 -80.5q156 0 234 80.5t78 216.5v629z" />
    <glyph glyph-name="umacron.sc" horiz-adv-x="1824" 
d="M410 1763h1007v-313h-1007v313zM1225 1264h483v-668q0 -298 -209 -469.5t-586 -171.5t-585.5 171.5t-208.5 469.5v668h483v-629q0 -136 77 -216.5t234 -80.5q156 0 234 80.5t78 216.5v629z" />
    <glyph glyph-name="uogonek.sc" horiz-adv-x="1824" 
d="M1225 1264h483v-668q0 -223 -119 -377.5t-342 -220.5q-89 -37 -155 -100t-66 -134q0 -52 35.5 -83t93.5 -31q78 0 133 55l74 -90q-38 -56 -114 -96.5t-195 -40.5q-68 0 -128.5 15.5t-110 46t-78.5 80t-29 112.5q0 67 34 126t101 99q-345 17 -534 186.5t-189 452.5v668
h483v-629q0 -136 77 -216.5t234 -80.5q156 0 234 80.5t78 216.5v629z" />
    <glyph glyph-name="uring.sc" horiz-adv-x="1824" 
d="M913 1401q-165 0 -260.5 67t-95.5 189t96 191t260 69t260.5 -69t96.5 -191q0 -121 -96 -188.5t-261 -67.5zM811 1657q0 -43 28 -68.5t74 -25.5t74.5 25.5t28.5 68.5q0 44 -28.5 70t-74.5 26t-74 -26t-28 -70zM1225 1264h483v-668q0 -298 -209 -469.5t-586 -171.5
t-585.5 171.5t-208.5 469.5v668h483v-629q0 -136 77 -216.5t234 -80.5q156 0 234 80.5t78 216.5v629z" />
    <glyph glyph-name="utilde.sc" horiz-adv-x="1824" 
d="M1327 1835l172 -305q-58 -60 -146.5 -94.5t-191.5 -34.5q-82 0 -163.5 23t-153 46t-129.5 23q-63 0 -110 -21.5t-105 -66.5l-172 303q57 60 146 95.5t194 35.5q80 0 161 -23t153 -46t132 -23q128 0 213 88zM1225 1264h483v-668q0 -298 -209 -469.5t-586 -171.5
t-585.5 171.5t-208.5 469.5v668h483v-629q0 -136 77 -216.5t234 -80.5q156 0 234 80.5t78 216.5v629z" />
    <glyph glyph-name="v.sc" horiz-adv-x="1714" 
d="M-14 1264h518l358 -811l357 811h510l-617 -1264h-508z" />
    <glyph glyph-name="w.sc" horiz-adv-x="2437" 
d="M1950 1264h477l-477 -1264h-475l-256 768l-256 -768h-476l-475 1264h484l243 -770l267 770h432l268 -770z" />
    <glyph glyph-name="wacute.sc" horiz-adv-x="2437" 
d="M1806 1784l-497 -357h-342l262 357h577zM1950 1264h477l-477 -1264h-475l-256 768l-256 -768h-476l-475 1264h484l243 -770l267 770h432l268 -770z" />
    <glyph glyph-name="wcircumflex.sc" horiz-adv-x="2437" 
d="M670 1427h403l148 172l147 -172h410l-303 357h-502zM1950 1264h477l-477 -1264h-475l-256 768l-256 -768h-476l-475 1264h484l243 -770l267 770h432l268 -770z" />
    <glyph glyph-name="wdieresis.sc" horiz-adv-x="2437" 
d="M928 1415q-98 0 -159.5 51t-61.5 136q0 84 61.5 133t159.5 49q97 0 158 -49.5t61 -132.5q0 -85 -61 -136t-158 -51zM1520 1415q-98 0 -160 51t-62 136q0 83 62 132.5t160 49.5q97 0 158 -49.5t61 -132.5q0 -85 -61 -136t-158 -51zM1950 1264h477l-477 -1264h-475
l-256 768l-256 -768h-476l-475 1264h484l243 -770l267 770h432l268 -770z" />
    <glyph glyph-name="wgrave.sc" horiz-adv-x="2437" 
d="M641 1784h576l262 -357h-342zM1950 1264h477l-477 -1264h-475l-256 768l-256 -768h-476l-475 1264h484l243 -770l267 770h432l268 -770z" />
    <glyph glyph-name="x.sc" horiz-adv-x="1697" 
d="M1694 1264l-574 -613l590 -651h-567l-309 338l-310 -338h-534l588 645l-572 619h567l293 -316l291 316h537z" />
    <glyph glyph-name="y.sc" horiz-adv-x="1654" 
d="M-12 1264h532l309 -473l308 473h530l-598 -846v-418h-483v418z" />
    <glyph glyph-name="yacute.sc" horiz-adv-x="1654" 
d="M1413 1784l-498 -357h-342l263 357h577zM-12 1264h532l309 -473l308 473h530l-598 -846v-418h-483v418z" />
    <glyph glyph-name="ycircumflex.sc" horiz-adv-x="1654" 
d="M276 1427h404l147 172l148 -172h409l-303 357h-501zM-12 1264h532l309 -473l308 473h530l-598 -846v-418h-483v418z" />
    <glyph glyph-name="ydieresis.sc" horiz-adv-x="1654" 
d="M535 1415q-98 0 -160 51t-62 136q0 83 62 132.5t160 49.5q97 0 158 -49.5t61 -132.5q0 -85 -61 -136t-158 -51zM1126 1415q-98 0 -159.5 51t-61.5 136q0 84 61.5 133t159.5 49q97 0 158.5 -49.5t61.5 -132.5q0 -85 -61.5 -136t-158.5 -51zM-12 1264h532l309 -473l308 473
h530l-598 -846v-418h-483v418z" />
    <glyph glyph-name="ygrave.sc" horiz-adv-x="1654" 
d="M246 1784h575l262 -357h-342zM-12 1264h532l309 -473l308 473h530l-598 -846v-418h-483v418z" />
    <glyph glyph-name="z.sc" horiz-adv-x="1701" 
d="M1589 1264v-283l-813 -633h842v-348h-1538v283l813 635h-778v346h1474z" />
    <glyph glyph-name="zacute.sc" horiz-adv-x="1701" 
d="M1450 1784l-498 -357h-342l262 357h578zM1589 1264v-283l-813 -633h842v-348h-1538v283l813 635h-778v346h1474z" />
    <glyph glyph-name="zcaron.sc" horiz-adv-x="1701" 
d="M313 1784l303 -357h502l303 357h-405l-148 -172l-147 172h-408zM1589 1264v-283l-813 -633h842v-348h-1538v283l813 635h-778v346h1474z" />
    <glyph glyph-name="zdotaccent.sc" horiz-adv-x="1701" 
d="M866 1415q-98 0 -158.5 49t-60.5 133q0 85 60.5 135t158.5 50q97 0 157 -50t60 -135q0 -84 -60 -133t-157 -49zM1589 1264v-283l-813 -633h842v-348h-1538v283l813 635h-778v346h1474z" />
    <glyph glyph-name="zero.osf" horiz-adv-x="1888" 
d="M944 -47q-257 0 -453 84t-306.5 247t-110.5 384q0 218 111 373t305 231t454 76t454.5 -76t306.5 -231t112 -373q0 -166 -64 -301t-179.5 -225.5t-276.5 -139.5t-353 -49zM944 344q174 0 269.5 79.5t95.5 225.5q0 147 -95.5 227t-269.5 80t-269 -80t-95 -227
q0 -146 95 -225.5t269 -79.5z" />
    <glyph glyph-name="one.osf" horiz-adv-x="1126" 
d="M479 0v803q-150 -90 -420 -137v385q141 20 291 88.5t252 158.5h377v-1298h-500z" />
    <glyph glyph-name="two.osf" horiz-adv-x="1716" 
d="M88 1042q127 133 335 217t454 84q134 0 261.5 -27.5t233 -79t170 -136t64.5 -189.5q0 -64 -25.5 -119t-66 -96t-106 -79.5t-130.5 -66t-154 -58.5q-90 -31 -209 -62t-186.5 -50.5t-85.5 -37.5h987v-342h-1562v213q24 191 202 323.5t504 221.5q21 6 56.5 15t55.5 14.5
t50 14t47 14.5t39 15t34 17t24 17.5t17 20.5t5 23q0 49 -74 75t-178 26q-270 0 -504 -211z" />
    <glyph glyph-name="three.osf" horiz-adv-x="1726" 
d="M346 362q191 -188 467 -188q59 0 110.5 7t98 22.5t73.5 45.5t27 70t-25 66t-72.5 38.5t-96 16.5t-115.5 4h-240v312h240q74 0 131.5 9.5t99 36t41.5 68.5q0 34 -24.5 58t-66.5 37t-88 18.5t-99 5.5q-265 0 -451 -186l-299 223q120 148 325.5 232.5t453.5 84.5
q149 0 281.5 -23.5t240.5 -70.5t171.5 -127t63.5 -184q0 -125 -88 -219t-241 -115q83 -14 150 -40.5t121 -66.5t84 -99t30 -132q0 -142 -109 -244.5t-289.5 -152t-410.5 -49.5q-254 0 -464.5 86t-336.5 237z" />
    <glyph glyph-name="four.osf" horiz-adv-x="1855" 
d="M1804 465v-344h-262v-256h-483v256h-1030v272l1067 905h446v-833h262zM610 465h449v383z" />
    <glyph glyph-name="five.osf" horiz-adv-x="1757" 
d="M293 362q95 -68 253 -118.5t337 -50.5q309 0 309 141q0 149 -318 149q-227 0 -405 -80l-352 127l123 768h1310v-350h-936l-43 -258q207 133 494 133q94 0 184 -18t172 -57.5t144 -96t98.5 -139.5t36.5 -182q0 -84 -27 -158t-89 -139.5t-154.5 -112.5t-232.5 -74.5
t-314 -27.5q-499 0 -832 250z" />
    <glyph glyph-name="six.osf" horiz-adv-x="1863" 
d="M1094 956q77 0 153.5 -10t156.5 -31t148.5 -58.5t123 -88t85.5 -124t31 -161.5q0 -114 -53 -210.5t-153.5 -168t-255.5 -111.5t-349 -40q-419 0 -663 205t-244 559q0 355 244 559.5t663 204.5q252 0 449.5 -62.5t328.5 -173.5l-252 -260q-96 74 -218.5 115t-250.5 41
q-90 0 -162.5 -15.5t-134.5 -50.5t-102.5 -98.5t-54.5 -153.5q101 68 236.5 100.5t273.5 32.5zM981 293q145 0 227 44.5t82 135.5q0 172 -301 172q-221 0 -393 -102q25 -93 83.5 -150t131.5 -78.5t170 -21.5z" />
    <glyph glyph-name="seven.osf" horiz-adv-x="1607" 
d="M274 -135l721 1057h-946v376h1538v-288l-756 -1145h-557z" />
    <glyph glyph-name="eight.osf" horiz-adv-x="1853" 
d="M1389 745q82 -14 150 -41.5t122 -69.5t84.5 -102t30.5 -133q0 -139 -109 -240.5t-300 -153.5t-441 -52q-249 0 -439.5 52t-299.5 153.5t-109 240.5q0 73 30.5 133t84.5 102t122 69.5t150 41.5q-156 21 -244 112t-88 216q0 102 63.5 181.5t174.5 128t251.5 73.5t303.5 25
t304 -25t252 -73.5t174.5 -128t63.5 -181.5q0 -125 -87.5 -216t-243.5 -112zM635 1020q0 -66 84 -102.5t207 -36.5q124 0 208.5 36.5t84.5 102.5q0 67 -84 103t-209 36q-124 0 -207.5 -36t-83.5 -103zM926 274q92 0 164.5 16t119.5 54t47 94q0 81 -94 121.5t-237 40.5
q-142 0 -236 -40.5t-94 -121.5t94 -122.5t236 -41.5z" />
    <glyph glyph-name="nine.osf" horiz-adv-x="1863" 
d="M883 1346q419 0 663 -204.5t244 -559.5q0 -354 -244 -559t-663 -205q-252 0 -450.5 62t-328.5 173l252 260q95 -74 218.5 -114.5t250.5 -40.5q91 0 163 15t134 50t102.5 98.5t55.5 153.5q-101 -68 -236.5 -100.5t-273.5 -32.5q-77 0 -153.5 10t-156.5 31t-148.5 58.5
t-123 88t-85.5 124t-31 161.5q0 114 53 211t153.5 168t255.5 111.5t349 40.5zM573 827q0 -174 301 -174q220 0 394 103q-25 93 -83.5 150t-131.5 78.5t-170 21.5q-145 0 -227.5 -45t-82.5 -134z" />
    <glyph glyph-name="zero.subs" horiz-adv-x="1155" 
d="M578 -287q-242 0 -383.5 120t-141.5 337t141.5 337t383.5 120t383 -120t141 -337t-141 -337t-383 -120zM578 -49q102 0 158.5 58t56.5 161t-56.5 161t-158.5 58t-159 -58t-57 -161t57 -161t159 -58z" />
    <glyph glyph-name="one.subs" horiz-adv-x="686" 
d="M272 -258v555q-91 -57 -235 -80v234q81 10 167 51t144 96h230v-856h-306z" />
    <glyph glyph-name="two.subs" horiz-adv-x="1001" 
d="M57 446q80 80 198 129.5t257 49.5q79 0 151 -15.5t133 -46t97.5 -84.5t36.5 -123q0 -191 -295 -286q-207 -67 -240 -107h549v-221h-897v133q14 128 117.5 227t284.5 154q11 4 30.5 10t29.5 9.5t26.5 9t25 9.5t20.5 9.5t18 10.5t12.5 11t9 13t2.5 14q0 28 -36.5 44
t-90.5 16q-143 0 -279 -127z" />
    <glyph glyph-name="three.subs" horiz-adv-x="1005" 
d="M211 41q117 -111 256 -111q67 0 115.5 20t48.5 66q0 72 -158 72h-139v186h139q135 0 135 68t-145 68q-130 0 -246 -107l-176 125q67 93 185.5 145t260.5 52q115 0 209.5 -23.5t159 -79.5t64.5 -137q0 -76 -48.5 -133t-136.5 -68q217 -41 217 -202q0 -126 -131 -196.5
t-334 -70.5q-144 0 -265 53t-191 150z" />
    <glyph glyph-name="four.subs" horiz-adv-x="1083" 
d="M1044 104v-208h-147v-154h-295v154h-577v165l600 537h272v-494h147zM377 104h225v215z" />
    <glyph glyph-name="five.subs" horiz-adv-x="1021" 
d="M168 39q137 -96 342 -96q160 0 160 82q0 84 -160 84q-128 0 -223 -50l-213 78l71 461h752v-213h-524l-23 -149q110 79 275 79q67 0 128.5 -17.5t113.5 -52t83 -92t31 -130.5q0 -65 -25 -119t-78 -98t-146.5 -68.5t-219.5 -24.5q-268 0 -477 144z" />
    <glyph glyph-name="six.subs" horiz-adv-x="1087" 
d="M631 315q70 0 137 -14.5t130.5 -45t102.5 -88.5t39 -136q0 -141 -122.5 -229.5t-344.5 -88.5q-239 0 -379.5 122t-140.5 335t140.5 335t379.5 122q145 0 259.5 -37.5t187.5 -102.5l-150 -157q-112 88 -258 88q-213 0 -245 -174q107 71 264 71zM573 -78q158 0 158 101
q0 102 -158 102q-113 0 -202 -53q19 -82 71 -116t131 -34z" />
    <glyph glyph-name="seven.subs" horiz-adv-x="935" 
d="M147 -258l402 627h-518v229h880v-176l-422 -680h-342z" />
    <glyph glyph-name="eight.subs" horiz-adv-x="1079" 
d="M807 188q101 -19 160 -70t59 -138q0 -123 -134 -195t-351 -72t-353.5 72t-136.5 195q0 87 59 138t160 70q-90 12 -139 66.5t-49 130.5q0 81 65.5 137t166.5 80.5t227 24.5q125 0 225 -24.5t164.5 -80.5t64.5 -137q0 -76 -49 -130.5t-139 -66.5zM391 350q0 -39 43.5 -59.5
t106.5 -20.5q62 0 104.5 20.5t42.5 59.5t-43 60.5t-104 21.5q-63 0 -106.5 -21.5t-43.5 -60.5zM539 -90q72 0 121 24t49 72t-48.5 71t-121.5 23t-121.5 -23t-48.5 -71t49 -72t121 -24z" />
    <glyph glyph-name="nine.subs" horiz-adv-x="1087" 
d="M512 627q239 0 379.5 -122t140.5 -335t-140.5 -335t-379.5 -122q-289 0 -446 140l149 157q112 -88 258 -88q214 0 246 174q-107 -71 -264 -71q-54 0 -108 8t-109.5 29t-97.5 52t-68.5 81.5t-26.5 113.5q0 141 122.5 229.5t344.5 88.5zM354 317q0 -102 158 -102
q114 0 203 53q-35 150 -203 150q-158 0 -158 -101z" />
    <glyph glyph-name="zero.dnom" horiz-adv-x="1155" 
d="M578 -29q-242 0 -383.5 120t-141.5 337t141.5 337t383.5 120t383 -120t141 -337t-141 -337t-383 -120zM578 209q102 0 158.5 58t56.5 161t-56.5 161t-158.5 58t-159 -58t-57 -161t57 -161t159 -58z" />
    <glyph glyph-name="one.dnom" horiz-adv-x="686" 
d="M272 0v555q-91 -57 -235 -80v234q81 10 167 51t144 96h230v-856h-306z" />
    <glyph glyph-name="two.dnom" horiz-adv-x="1001" 
d="M57 705q80 80 198 129t257 49q79 0 151 -15.5t133 -46t97.5 -84.5t36.5 -123q0 -191 -295 -286q-207 -67 -240 -107h551v-221h-899v133q14 128 117.5 227t284.5 154q11 4 30.5 10t29.5 9.5t26.5 9t25 9.5t20.5 9.5t18 10.5t12.5 11t9 13t2.5 14q0 28 -36.5 44t-90.5 16
q-143 0 -279 -127z" />
    <glyph glyph-name="three.dnom" horiz-adv-x="1005" 
d="M211 299q117 -111 256 -111q67 0 115.5 20t48.5 66q0 72 -158 72h-139v186h139q135 0 135 68t-145 68q-130 0 -246 -107l-176 125q67 93 185.5 145t260.5 52q115 0 209.5 -23.5t159 -79.5t64.5 -137q0 -76 -48.5 -133t-136.5 -68q217 -41 217 -202q0 -126 -131 -196.5
t-334 -70.5q-144 0 -265 53.5t-191 149.5z" />
    <glyph glyph-name="four.dnom" horiz-adv-x="1083" 
d="M1044 362v-208h-147v-154h-295v154h-577v165l600 537h272v-494h147zM377 362h225v216z" />
    <glyph glyph-name="five.dnom" horiz-adv-x="1021" 
d="M168 297q137 -96 342 -96q160 0 160 82q0 84 -160 84q-128 0 -223 -50l-213 78l71 461h752v-213h-524l-23 -149q110 79 275 79q67 0 128.5 -17.5t113.5 -52t83 -92t31 -130.5q0 -65 -25 -119t-78 -98t-146 -68.5t-218 -24.5q-270 0 -479 144z" />
    <glyph glyph-name="six.dnom" horiz-adv-x="1087" 
d="M631 573q70 0 137.5 -14.5t130.5 -45t102 -88.5t39 -136q0 -140 -122.5 -229t-344.5 -89q-239 0 -379.5 122t-140.5 335t140.5 335t379.5 122q145 0 259.5 -37.5t187.5 -102.5l-150 -157q-112 88 -258 88q-213 0 -245 -174q104 71 264 71zM573 180q73 0 115.5 25t42.5 76
q0 102 -158 102q-113 0 -202 -53q19 -82 71 -116t131 -34z" />
    <glyph glyph-name="seven.dnom" horiz-adv-x="935" 
d="M147 0l402 627h-518v229h880v-176l-422 -680h-342z" />
    <glyph glyph-name="eight.dnom" horiz-adv-x="1079" 
d="M807 446q101 -19 160 -69.5t59 -136.5q0 -124 -134 -196.5t-351 -72.5q-218 0 -354 72.5t-136 196.5q0 86 59 136.5t160 69.5q-90 12 -139 66.5t-49 130.5q0 81 65.5 137t166.5 80.5t227 24.5q125 0 225 -24.5t164.5 -80.5t64.5 -137q0 -76 -49 -130.5t-139 -66.5z
M391 608q0 -39 43.5 -59.5t106.5 -20.5q62 0 104.5 20.5t42.5 59.5t-43 60.5t-104 21.5q-63 0 -106.5 -21.5t-43.5 -60.5zM539 168q72 0 121 24t49 72t-48.5 71t-121.5 23t-121.5 -23t-48.5 -71t49 -72t121 -24z" />
    <glyph glyph-name="nine.dnom" horiz-adv-x="1087" 
d="M512 885q239 0 379.5 -122t140.5 -335t-140.5 -335t-379.5 -122q-289 0 -446 140l149 157q112 -88 258 -88q214 0 246 174q-107 -71 -264 -71q-54 0 -108 8t-109.5 29t-97.5 52t-68.5 81.5t-26.5 113.5q0 141 122.5 229.5t344.5 88.5zM354 575q0 -102 158 -102
q114 0 203 53q-35 150 -203 150q-158 0 -158 -101z" />
    <glyph glyph-name="zero.numr" horiz-adv-x="1155" 
d="M578 549q-242 0 -383.5 120t-141.5 337t141 336.5t384 119.5t383.5 -119.5t140.5 -336.5t-141 -337t-383 -120zM578 786q102 0 158.5 58.5t56.5 161.5t-56.5 161t-158.5 58t-159 -58t-57 -161t57 -161.5t159 -58.5z" />
    <glyph glyph-name="one.numr" horiz-adv-x="686" 
d="M272 578v555q-91 -57 -235 -80v233q81 10 167 51.5t144 96.5h230v-856h-306z" />
    <glyph glyph-name="two.numr" horiz-adv-x="1001" 
d="M57 1282q80 80 198 129t257 49q79 0 151 -15t133 -46t97.5 -84.5t36.5 -122.5q0 -192 -295 -287q-209 -67 -240 -106h549v-221h-897v133q14 128 117.5 227t284.5 154q11 4 30.5 10t29.5 9.5t26.5 9t25 9.5t20.5 9.5t18 10.5t12.5 11t9 13t2.5 14q0 28 -36.5 43.5
t-90.5 15.5q-143 0 -279 -127z" />
    <glyph glyph-name="three.numr" horiz-adv-x="1005" 
d="M211 877q117 -111 256 -111q67 0 115.5 20t48.5 66q0 72 -158 72h-139v186h139q135 0 135 68q0 67 -145 67q-131 0 -246 -106l-176 125q67 93 185.5 144.5t260.5 51.5q84 0 159.5 -14t138 -41.5t99 -75t36.5 -108.5q0 -76 -48.5 -133t-136.5 -68q99 -19 158 -68.5
t59 -134.5q0 -126 -131 -196t-334 -70q-144 0 -265 53.5t-191 149.5z" />
    <glyph glyph-name="four.numr" horiz-adv-x="1083" 
d="M1044 940v-209h-147v-153h-295v153h-577v166l600 537h272v-494h147zM377 940h225v215z" />
    <glyph glyph-name="five.numr" horiz-adv-x="1021" 
d="M168 874q137 -96 342 -96q160 0 160 82q0 84 -160 84q-130 0 -223 -49l-213 78l71 461h752v-213h-524l-23 -150q51 37 124.5 58.5t150.5 21.5q67 0 128.5 -17.5t113.5 -52t83 -92.5t31 -131q0 -65 -25 -119t-78 -97.5t-146.5 -68t-219.5 -24.5q-269 0 -477 143z" />
    <glyph glyph-name="six.numr" horiz-adv-x="1087" 
d="M631 1151q54 0 108 -8.5t109 -29t97 -52t68.5 -82t26.5 -113.5q0 -140 -122.5 -228.5t-344.5 -88.5q-239 0 -379.5 122t-140.5 335q0 212 140.5 334t379.5 122q291 0 447 -139l-150 -158q-112 88 -258 88q-213 0 -245 -174q109 72 264 72zM573 758q74 0 116 24.5t42 75.5
q0 103 -158 103q-111 0 -202 -54q34 -149 202 -149z" />
    <glyph glyph-name="seven.numr" horiz-adv-x="935" 
d="M147 578l402 626h-518v230h880v-177l-422 -679h-342z" />
    <glyph glyph-name="eight.numr" horiz-adv-x="1079" 
d="M807 1024q100 -18 159.5 -69.5t59.5 -137.5q0 -124 -134 -196t-351 -72q-218 0 -354 72t-136 196q0 86 59.5 137.5t159.5 69.5q-90 12 -139 66.5t-49 130.5q0 81 65.5 136.5t166.5 80t227 24.5q125 0 224.5 -24.5t164.5 -80t65 -136.5q0 -76 -49 -130.5t-139 -66.5z
M391 1186q0 -39 43.5 -59.5t106.5 -20.5q62 0 104.5 20.5t42.5 59.5t-43 60.5t-104 21.5q-63 0 -106.5 -21.5t-43.5 -60.5zM539 745q72 0 121 24.5t49 72.5t-48.5 71t-121.5 23t-121.5 -23t-48.5 -71t49 -72.5t121 -24.5z" />
    <glyph glyph-name="nine.numr" horiz-adv-x="1087" 
d="M512 1462q239 0 379.5 -122t140.5 -334q0 -213 -140.5 -335t-379.5 -122q-290 0 -446 139l149 158q112 -88 258 -88q214 0 246 174q-109 -72 -264 -72q-54 0 -108 8.5t-109.5 29t-97.5 52t-68.5 82t-26.5 113.5q0 141 122.5 229t344.5 88zM354 1153q0 -102 158 -102
q114 0 203 53q-34 149 -203 149q-158 0 -158 -100z" />
    <glyph glyph-name="zero.sc" horiz-adv-x="1843" 
d="M924 -45q-391 0 -619.5 178.5t-228.5 499.5q0 213 105 366.5t295.5 231.5t447.5 78q390 0 616.5 -178t226.5 -498q0 -322 -226.5 -500t-616.5 -178zM924 332q167 0 260.5 79.5t93.5 221.5q0 141 -93.5 220t-260.5 79q-170 0 -263.5 -79t-93.5 -220q0 -143 93.5 -222
t263.5 -79z" />
    <glyph glyph-name="one.sc" horiz-adv-x="1071" 
d="M438 0v791q-134 -72 -385 -113v369q131 19 271 79.5t233 137.5h365v-1264h-484z" />
    <glyph glyph-name="two.sc" horiz-adv-x="1605" 
d="M90 1042q117 117 308.5 190t420.5 73q128 0 244.5 -23t216 -69t158.5 -125.5t59 -182.5q0 -79 -35.5 -146t-101.5 -119t-152 -90.5t-194 -66.5q-343 -93 -389 -137h893v-346h-1446v205q22 195 190.5 345t460.5 222q23 6 64.5 17t62 17t51.5 15t46.5 16.5t32 17t23.5 20
t7 22.5q0 35 -62.5 53.5t-154.5 18.5q-241 0 -455 -181z" />
    <glyph glyph-name="three.sc" horiz-adv-x="1605" 
d="M328 455q191 -156 424 -156q270 0 270 111q0 30 -21.5 49t-64 27.5t-81 11t-97.5 2.5h-223v295h223q45 0 84 4.5t73.5 13.5t54 26.5t19.5 41.5q0 84 -246 84q-218 0 -401 -152l-283 199q112 140 300.5 216.5t418.5 76.5q137 0 258.5 -20.5t223.5 -61.5t161.5 -112
t59.5 -163q0 -109 -80.5 -193.5t-224.5 -103.5q162 -28 259 -101t97 -194q0 -128 -102 -219.5t-269.5 -134.5t-380.5 -43q-233 0 -426 77.5t-311 219.5z" />
    <glyph glyph-name="four.sc" horiz-adv-x="1732" 
d="M1673 543v-330h-237v-213h-465v213h-938v264l973 787h430v-721h237zM588 543h383v286z" />
    <glyph glyph-name="five.sc" horiz-adv-x="1640" 
d="M260 451q215 -134 557 -134q132 0 199 22.5t67 80.5q0 106 -270 106q-207 0 -362 -65l-338 123l112 680h1215v-336h-854l-35 -195q185 119 446 119q107 0 207.5 -26.5t184.5 -77.5t135 -137t51 -195q0 -75 -24.5 -141t-81.5 -125.5t-142.5 -102t-216 -67.5t-293.5 -25
q-449 0 -766 211z" />
    <glyph glyph-name="six.sc" horiz-adv-x="1736" 
d="M1006 850q73 0 145 -8.5t148 -27t140.5 -51.5t115.5 -77.5t80.5 -109.5t29.5 -144q0 -210 -197.5 -343.5t-554.5 -133.5q-385 0 -611 182t-226 496q0 313 226 494.5t611 181.5q232 0 415 -55t308 -150l-241 -252q-86 60 -197.5 94.5t-220.5 34.5q-165 0 -268.5 -52
t-135.5 -181q170 102 433 102zM913 283q267 0 267 135q0 133 -265 133q-185 0 -333 -74q33 -108 117.5 -151t213.5 -43z" />
    <glyph glyph-name="seven.sc" horiz-adv-x="1507" 
d="M238 0l655 903h-848v361h1419v-279l-686 -985h-540z" />
    <glyph glyph-name="eight.sc" horiz-adv-x="1718" 
d="M1290 657q77 -14 140 -38.5t112 -61t76 -88.5t27 -115q0 -124 -101 -215t-277.5 -137.5t-406.5 -46.5q-231 0 -408 46.5t-277.5 137.5t-100.5 215q0 122 98 198.5t258 104.5q-145 18 -225 100.5t-80 190.5q0 90 59.5 160.5t162 113.5t233 65t280.5 22q149 0 279 -22
t232.5 -65t162 -113.5t59.5 -160.5q0 -108 -80 -190.5t-223 -100.5zM610 893q0 -51 72 -79t176 -28q105 0 177.5 28t72.5 79q0 50 -73 79t-177 29q-103 0 -175.5 -29t-72.5 -79zM860 266q77 0 138 12t102 41.5t41 73.5q0 64 -80 94.5t-201 30.5q-122 0 -202 -30.5t-80 -94.5
q0 -44 41 -73.5t102 -41.5t139 -12z" />
    <glyph glyph-name="nine.sc" horiz-adv-x="1736" 
d="M821 1309q385 0 611.5 -181.5t226.5 -494.5q0 -314 -226.5 -496t-611.5 -182q-232 0 -415 55t-308 150l242 252q86 -60 197.5 -94.5t220.5 -34.5q165 0 268 52t135 181q-173 -102 -432 -102q-89 0 -175 11.5t-175.5 41.5t-156.5 76t-109.5 120t-42.5 168q0 102 49 188.5
t141.5 151.5t236.5 101.5t324 36.5zM555 846q0 -133 264 -133q188 0 334 73q-33 108 -118 151.5t-214 43.5q-266 0 -266 -135z" />
    <glyph glyph-name="periodcentered.case" horiz-adv-x="698" 
d="M348 494q-119 0 -194.5 66.5t-75.5 166.5q0 101 75.5 168.5t194.5 67.5q120 0 196.5 -67.5t76.5 -168.5q0 -100 -76.5 -166.5t-196.5 -66.5z" />
    <glyph glyph-name="bullet.case" horiz-adv-x="929" 
d="M465 410q-152 0 -251 93t-99 228t99 227.5t251 92.5t251 -92.5t99 -227.5t-99 -228t-251 -93z" />
    <glyph glyph-name="exclamdown.case" horiz-adv-x="782" 
d="M389 1464q120 0 196.5 -67t76.5 -168q0 -100 -76.5 -168t-196.5 -68q-118 0 -194 68t-76 168q0 101 75.5 168t194.5 67zM104 0l78 883h418l76 -883h-572z" />
    <glyph glyph-name="questiondown.case" horiz-adv-x="1587" 
d="M801 1483q120 0 196 -67.5t76 -168.5q0 -100 -76 -167.5t-196 -67.5q-118 0 -194.5 67.5t-76.5 167.5q0 101 76 168.5t195 67.5zM985 942v-332q-209 -27 -304 -67t-95 -107q0 -44 36.5 -71.5t87 -37.5t115.5 -10q266 0 471 199l246 -258q-149 -137 -324 -211t-411 -74
q-108 0 -210.5 15.5t-197.5 50.5t-165.5 85.5t-113 127t-42.5 168.5q0 119 70.5 205.5t187.5 131t274 54.5v131h375z" />
    <glyph glyph-name="braceleft.case" horiz-adv-x="1105" 
d="M772 1024q0 -129 -76 -215t-217 -90q140 -7 216.5 -94t76.5 -213q0 -113 58.5 -167.5t138.5 -54.5h61v-313h-125q-94 0 -170.5 11.5t-145.5 40.5t-116 74.5t-74.5 117.5t-27.5 166q0 182 -94 259t-273 77v190q179 0 273 77.5t94 260.5q0 93 27.5 164.5t74.5 116.5
t116.5 73t145.5 39.5t170 11.5h125v-313h-61q-80 0 -138.5 -53t-58.5 -166z" />
    <glyph glyph-name="braceright.case" horiz-adv-x="1105" 
d="M334 1024q0 113 -58.5 166t-138.5 53h-61v313h125q94 0 170 -11.5t145.5 -39.5t116.5 -73t74.5 -116.5t27.5 -164.5q0 -183 94 -260.5t273 -77.5v-190q-179 0 -273 -77t-94 -259q0 -94 -27.5 -166t-74.5 -117.5t-116 -74.5t-145.5 -40.5t-170.5 -11.5h-125v313h61
q80 0 138.5 54.5t58.5 167.5q0 126 76.5 213t216.5 94q-141 4 -217 90t-76 215z" />
    <glyph glyph-name="bracketleft.case" horiz-adv-x="976" 
d="M901 1243h-354v-1053h354v-313h-754v1679h754v-313z" />
    <glyph glyph-name="bracketright.case" horiz-adv-x="976" 
d="M76 1243v313h753v-1679h-753v313h354v1053h-354z" />
    <glyph glyph-name="parenleft.case" horiz-adv-x="991" 
d="M492 717q0 -230 116.5 -381.5t306.5 -212.5l-137 -297q-143 27 -271 104t-225 190.5t-153.5 268.5t-56.5 328t56.5 328t153.5 268.5t225 190.5t271 104l137 -297q-190 -61 -306.5 -212.5t-116.5 -381.5z" />
    <glyph glyph-name="parenright.case" horiz-adv-x="991" 
d="M500 717q0 230 -117 381.5t-307 212.5l137 297q143 -27 271 -104t225 -190.5t154 -268.5t57 -328t-57 -328t-154 -268.5t-225 -190.5t-271 -104l-137 297q190 61 307 212.5t117 381.5z" />
    <glyph glyph-name="emdash.case" horiz-adv-x="2066" 
d="M1944 547h-1821v364h1821v-364z" />
    <glyph glyph-name="endash.case" horiz-adv-x="1640" 
d="M1518 547h-1395v364h1395v-364z" />
    <glyph glyph-name="hyphen.case" horiz-adv-x="1257" 
d="M1137 547h-1014v364h1014v-364z" />
    <glyph glyph-name="guillemotleft.case" horiz-adv-x="1632" 
d="M485 1196l-430 -465l430 -465h439l-430 465l430 465h-439zM1118 1196l-430 -465l430 -465h438l-430 465l430 465h-438z" />
    <glyph glyph-name="guillemotright.case" horiz-adv-x="1632" 
d="M514 1196h-438l430 -465l-430 -465h438l430 465zM1147 1196h-438l430 -465l-430 -465h438l430 465z" />
    <glyph glyph-name="guilsinglleft.case" horiz-adv-x="1001" 
d="M485 1196l-430 -465l430 -465h439l-430 465l430 465h-439z" />
    <glyph glyph-name="guilsinglright.case" horiz-adv-x="1001" 
d="M516 1196h-438l430 -465l-430 -465h438l430 465z" />
    <glyph glyph-name="backslash.sc" horiz-adv-x="1568" 
d="M561 1468l959 -1673h-514l-957 1673h512z" />
    <glyph glyph-name="exclam.sc" horiz-adv-x="786" 
d="M109 1264h569l-76 -713h-418zM393 -31q-120 0 -196 67.5t-76 168.5q0 100 76 167.5t196 67.5q118 0 194.5 -67.5t76.5 -167.5q0 -101 -76 -168.5t-195 -67.5z" />
    <glyph glyph-name="exclamdown.sc" horiz-adv-x="782" 
d="M391 1294q119 0 195 -67t76 -168q0 -100 -76.5 -168t-194.5 -68q-120 0 -196 68t-76 168q0 101 76 168t196 67zM104 0l78 713h418l76 -713h-572z" />
    <glyph glyph-name="numbersign.sc" horiz-adv-x="1847" 
d="M1774 743h-310l-59 -198h301v-262h-379l-84 -283h-371l82 283h-276l-84 -283h-373l82 283h-231v262h311l57 198h-301v265h381l76 256h375l-78 -256h278l76 256h373l-76 -256h230v-265zM1034 545l58 198h-277l-59 -198h278z" />
    <glyph glyph-name="question.sc" horiz-adv-x="1476" 
d="M549 487v263q184 25 265 56.5t81 80.5q0 30 -29 49t-69.5 26t-91.5 7q-226 0 -420 -164l-240 256q143 119 302.5 181.5t375.5 62.5q101 0 196 -13.5t184 -44.5t155.5 -76t106.5 -113.5t40 -152.5q0 -157 -131 -243.5t-348 -100.5v-74h-377zM735 -31q-119 0 -194.5 67.5
t-75.5 168.5q0 100 76 167.5t194 67.5q120 0 196.5 -67.5t76.5 -167.5q0 -101 -76.5 -168.5t-196.5 -67.5z" />
    <glyph glyph-name="questiondown.sc" horiz-adv-x="1476" 
d="M741 1294q119 0 195 -67t76 -168q0 -100 -76.5 -168t-194.5 -68q-120 0 -196 68t-76 168q0 101 76 168t196 67zM928 778v-264q-184 -24 -265 -55.5t-81 -81.5q0 -30 29 -49t70 -26t93 -7q225 0 418 166l240 -258q-144 -118 -303.5 -181t-374.5 -63q-101 0 -195.5 13.5
t-183.5 44.5t-155 76.5t-106 114t-40 152.5q0 156 130.5 242.5t346.5 99.5v76h377z" />
    <glyph glyph-name="slash.sc" horiz-adv-x="1568" 
d="M563 -205h-512l957 1673h514z" />
    <glyph glyph-name="percent.osf" horiz-adv-x="1873" 
d="M440 612q-176 0 -291.5 103.5t-115.5 259.5t115.5 259t291.5 103q178 0 294 -103t116 -259t-116 -259.5t-294 -103.5zM1339 1298h316l-1120 -1298h-314zM440 842q67 0 108.5 34.5t41.5 98.5t-41.5 98.5t-108.5 34.5q-65 0 -106 -34.5t-41 -98.5t41 -98.5t106 -34.5z
M1434 -39q-177 0 -293.5 104t-116.5 259q0 156 116 259t294 103q176 0 291.5 -103t115.5 -259q0 -155 -115.5 -259t-291.5 -104zM1434 190q65 0 106 35t41 99t-41 99.5t-106 35.5q-66 0 -108 -35.5t-42 -99.5t42 -99t108 -35z" />
    <glyph glyph-name="perthousand.osf" horiz-adv-x="2746" 
d="M440 612q-176 0 -291.5 103.5t-115.5 259.5t115.5 259t291.5 103q178 0 294 -103t116 -259t-116 -259.5t-294 -103.5zM1339 1298h316l-1120 -1298h-314zM440 842q67 0 108.5 34.5t41.5 98.5t-41.5 98.5t-108.5 34.5q-65 0 -106 -34.5t-41 -98.5t41 -98.5t106 -34.5z
M1434 -39q-177 0 -293.5 104t-116.5 259q0 156 116 259t294 103q176 0 291.5 -103t115.5 -259q0 -155 -115.5 -259t-291.5 -104zM2306 -39q-177 0 -293.5 104t-116.5 259q0 156 116 259t294 103q177 0 292.5 -103t115.5 -259q0 -155 -116 -259t-292 -104zM1434 190
q65 0 106 35t41 99t-41 99.5t-106 35.5q-66 0 -108 -35.5t-42 -99.5t42 -99t108 -35zM2306 190q65 0 106.5 35t41.5 99t-41.5 99.5t-106.5 35.5t-106 -35.5t-41 -99.5t41 -99t106 -35z" />
    <glyph glyph-name="bar.case" horiz-adv-x="747" 
d="M150 -123v1679h448v-1679h-448z" />
    <glyph glyph-name="brokenbar.case" horiz-adv-x="747" 
d="M150 879v677h448v-677h-448zM598 567v-690h-448v690h448z" />
    <glyph glyph-name="at.case" horiz-adv-x="2136" 
d="M1649 74q-90 -59 -249.5 -90t-336.5 -31q-226 0 -411.5 57t-311 158.5t-194 242t-68.5 306.5t68.5 306.5t194 242t311 158.5t411.5 57t412 -57t311.5 -158.5t194.5 -242t69 -306.5q0 -233 -100 -343t-281 -110q-127 0 -229 49t-156 136q-66 -94 -169.5 -140.5
t-223.5 -46.5q-135 0 -245.5 54.5t-176.5 159.5t-66 241q0 137 66 242t176.5 160t245.5 55q245 0 377 -185l67 152h287v-531q0 -109 34 -158t83 -49q71 0 112 90t41 224q0 129 -42.5 233t-117.5 175t-180 119t-227 69.5t-262 21.5t-261 -21.5t-226 -69.5t-180 -119
t-117.5 -175t-42.5 -233t42.5 -233t117.5 -175.5t180 -119t226.5 -69.5t260.5 -22q309 0 516 101zM1004 506q158 0 253 149v119q-96 148 -253 148q-109 0 -172.5 -56.5t-63.5 -150.5q0 -95 63.5 -152t172.5 -57z" />
    <glyph glyph-name="registered.case" horiz-adv-x="2037" 
d="M1020 1481q281 0 495.5 -95t331.5 -268.5t117 -400.5t-117 -400.5t-331.5 -268.5t-495.5 -95q-282 0 -497 95t-332 268.5t-117 400.5t117 400.5t332 268.5t497 95zM1636 250q211 176 211 467q0 205 -107 355.5t-292.5 226t-427.5 75.5q-181 0 -333 -44t-263 -126.5
t-173.5 -207.5t-62.5 -279q0 -205 108 -355t295 -225.5t429 -75.5q351 0 573 156h-344l-200 285h-205v-285h-381v1002h682q104 0 194 -21.5t160.5 -64.5t111 -113t40.5 -160q0 -119 -67 -199t-183 -120zM844 737h270q152 0 152 113t-152 113h-270v-226z" />
    <glyph glyph-name="dagger.case" horiz-adv-x="1185" 
d="M1073 1022v-313h-295v-709h-375v709h-292v313h292v412h375v-412h295z" />
    <glyph glyph-name="daggerdbl.case" horiz-adv-x="1185" 
d="M1073 825h-295v-217h295v-311h-295v-297h-375v297h-292v311h292v217h-292v314h292v295h375v-295h295v-314z" />
    <glyph glyph-name="bar.sc" horiz-adv-x="747" 
d="M150 -205v1680h448v-1680h-448z" />
    <glyph glyph-name="brokenbar.sc" horiz-adv-x="747" 
d="M150 797v678h448v-678h-448zM598 485v-690h-448v690h448z" />
    <glyph glyph-name="at.sc" horiz-adv-x="1964" 
d="M1532 68q-82 -54 -231 -83.5t-312 -29.5q-207 0 -378.5 51t-287 141t-178.5 214.5t-63 271.5t63 271.5t178.5 214t287 140t378.5 50.5q208 0 379.5 -50.5t287.5 -140t179 -214t63 -271.5q0 -209 -92.5 -303t-263.5 -94q-118 0 -213.5 40.5t-146.5 112.5
q-119 -153 -357 -153q-190 0 -317 109.5t-127 287.5t127 288.5t317 110.5q222 0 342 -155l64 127h276v-463q0 -172 105 -172q63 0 100 75.5t37 188.5q0 141 -59.5 247t-165.5 168.5t-240 92.5t-295 30q-127 0 -237.5 -18.5t-207 -59.5t-165 -102.5t-107.5 -152.5t-39 -205
t39 -205.5t107.5 -153.5t165 -103t206.5 -59t238 -18q287 0 475 90zM934 467q141 0 221 115v96q-82 115 -221 115q-95 0 -149 -46t-54 -118q0 -71 54.5 -116.5t148.5 -45.5z" />
    <glyph glyph-name="ampersand.sc" horiz-adv-x="1789" 
d="M1792 0h-516l-53 41q-189 -78 -414 -78q-207 0 -374 56t-261 156t-94 224q0 105 69.5 183.5t202.5 126.5q-119 110 -119 229q0 74 37 139.5t106.5 116t179 80t245.5 29.5t249 -26t196 -75t141.5 -102t113.5 -123l-371 -156q-139 178 -309 178q-65 0 -101 -22.5t-36 -63.5
q0 -29 26.5 -59.5t102.5 -87.5l404 -317q43 70 55 169h393q-21 -221 -168 -387zM840 266q26 0 80 4l-349 265q-24 -41 -24 -84q0 -77 80 -131t213 -54z" />
    <glyph glyph-name="paragraph.sc" horiz-adv-x="1918" 
d="M649 1264h1129v-1264h-400v958h-159v-958h-400v348h-170q-135 0 -242.5 25.5t-190 78.5t-127 143t-44.5 212q0 95 29.5 171.5t82.5 129.5t128.5 88.5t166 51.5t197.5 16zM819 647v311h-145q-102 0 -161.5 -37t-59.5 -118t59.5 -118.5t161.5 -37.5h145z" />
    <glyph glyph-name="copyright.sc" horiz-adv-x="1892" 
d="M944 -45q-258 0 -456.5 84.5t-307 238.5t-108.5 355t108.5 354.5t307 237.5t456.5 84q259 0 458 -84t308 -237.5t109 -354.5t-109 -355t-308 -238.5t-458 -84.5zM944 59q223 0 394 66t270.5 197.5t99.5 310.5q0 134 -57 243t-159 181t-242 110.5t-306 38.5
q-165 0 -304.5 -38.5t-241.5 -110.5t-159 -181t-57 -243q0 -179 99 -310.5t270 -197.5t393 -66zM1489 401q-76 -104 -215 -171.5t-336 -67.5q-261 0 -422.5 125.5t-161.5 347.5q0 221 161.5 347t422.5 126q197 0 334.5 -70t197.5 -172l-284 -133q-48 56 -99.5 79.5
t-117.5 23.5q-115 0 -179.5 -55t-64.5 -146t64.5 -146t179.5 -55q67 0 119.5 23t97.5 80z" />
    <glyph glyph-name="registered.sc" horiz-adv-x="1892" 
d="M944 1309q259 0 458 -84t308 -237.5t109 -354.5t-109 -355t-308 -238.5t-458 -84.5q-258 0 -456.5 84.5t-307 238.5t-108.5 355t108.5 354.5t307 237.5t456.5 84zM1513 223q195 155 195 410q0 134 -57 243t-159 181t-242 110.5t-306 38.5q-165 0 -304.5 -38.5
t-241.5 -110.5t-159 -181t-57 -243q0 -179 99 -310.5t270 -197.5t393 -66q317 0 520 131h-321l-176 242h-168v-242h-369v885h631q77 0 145 -11.5t128 -37t103 -62.5t68 -90.5t25 -119.5q0 -105 -59.5 -176.5t-163.5 -106.5zM799 664h233q127 0 127 81q0 82 -127 82h-233
v-163z" />
    <glyph glyph-name="uni2117.sc" horiz-adv-x="1892" 
d="M944 -43q-258 0 -456.5 84t-307 237.5t-108.5 354.5t108.5 354.5t307 237.5t456.5 84q259 0 458 -84t308 -237.5t109 -354.5t-109 -354.5t-308 -237.5t-458 -84zM944 59q223 0 394 66t270.5 197.5t99.5 310.5q0 134 -57 243t-159 181t-242 110.5t-306 38.5
q-165 0 -304.5 -38.5t-241.5 -110.5t-159 -181t-57 -243q0 -179 99 -310.5t270 -197.5t393 -66zM1092 1075q97 0 181 -19.5t149.5 -58t103 -101.5t37.5 -144q0 -109 -66 -185t-169.5 -109.5t-235.5 -33.5h-261v-234h-368v885h629zM1057 655q133 0 133 86q0 49 -34.5 67.5
t-98.5 18.5h-226v-172h226z" />
    <glyph glyph-name="section.sc" horiz-adv-x="1445" 
d="M1243 330q113 -74 113 -211q0 -80 -38.5 -148.5t-113.5 -121.5t-196.5 -83t-276.5 -30q-361 0 -655 168l184 233q222 -123 483 -123q92 0 146.5 15t54.5 45q0 27 -53.5 40t-175.5 21q-96 6 -178 19t-160 40t-133 64.5t-88 95t-33 129.5q0 148 129 252q-127 80 -127 221
q0 168 169 261.5t447 93.5q170 0 322 -34t262 -97l-186 -232q-163 86 -398 86q-206 0 -206 -53q0 -26 59.5 -39t177.5 -20q131 -8 230.5 -27t183 -55.5t128 -98t44.5 -145.5q0 -160 -115 -266zM539 528q0 -42 60.5 -67.5t168.5 -30.5q27 0 39 -2q65 10 100 38t35 62
q0 38 -52.5 65.5t-150.5 33.5h-16q-78 -3 -131 -30.5t-53 -68.5z" />
    <glyph glyph-name="degree.sc" horiz-adv-x="872" 
d="M436 692q-163 0 -266.5 82.5t-103.5 222.5t103.5 223t266.5 83t267 -83t104 -223t-104 -222.5t-267 -82.5zM436 872q64 0 103 34.5t39 90.5t-39 90.5t-103 34.5t-102.5 -34.5t-38.5 -90.5t38.5 -90.5t102.5 -34.5z" />
    <glyph glyph-name="cent.sc" horiz-adv-x="1390" 
d="M1327 408q-59 -114 -185.5 -192.5t-310.5 -94.5v-121h-186v121q-263 21 -414 153t-151 359t151 359t414 153v119h186v-119q184 -18 309.5 -96t186.5 -193l-330 -135q-61 91 -166 113v-402q101 23 166 113zM483 633q0 -72 43.5 -123.5t118.5 -73.5v393q-75 -24 -118.5 -75
t-43.5 -121z" />
    <glyph glyph-name="currency.sc" horiz-adv-x="1503" 
d="M1339 643q0 -165 -88 -289l170 -161l-198 -185l-199 176q-121 -47 -270 -47q-155 0 -273 47l-196 -176l-201 185l170 161q-90 122 -90 289q0 147 72 260l-152 150l201 182l164 -150q130 62 305 62q174 0 301 -62l168 150l198 -182l-153 -148q71 -115 71 -262zM754 442
q107 0 172 53.5t65 147.5q0 95 -64.5 148t-172.5 53q-109 0 -174.5 -53t-65.5 -148q0 -94 65.5 -147.5t174.5 -53.5z" />
    <glyph glyph-name="dagger.sc" horiz-adv-x="1185" 
d="M1073 889v-309h-297v-580h-373v580h-292v309h292v375h373v-375h297z" />
    <glyph glyph-name="daggerdbl.sc" horiz-adv-x="1185" 
d="M1073 733h-297v-196h297v-297h-297v-240h-373v240h-292v297h292v196h-292v299h292v238h373v-238h297v-299z" />
    <glyph glyph-name="dollar.sc" horiz-adv-x="1740" 
d="M1663 444q0 -204 -181.5 -322.5t-508.5 -127.5v-182h-170v184q-441 27 -746 233l234 260q221 -141 512 -167v149q-99 10 -180.5 24.5t-161.5 36.5t-140.5 53t-107.5 72t-71.5 96t-24.5 121q0 97 53.5 171.5t149.5 121.5t217 72.5t266 30.5v164h170v-164q382 -19 635 -180
l-224 -259q-172 103 -411 119v-129q75 -6 131 -12.5t119 -16t109.5 -20.5t95 -27t82 -35.5t64.5 -46t49.5 -58.5t29 -72.5t10.5 -88.5zM588 897q0 -28 47 -39.5t168 -21.5v118q-215 -4 -215 -57zM973 315q114 2 166.5 16.5t52.5 49.5q0 32 -46 47t-173 27v-140z" />
    <glyph glyph-name="Euro.sc" horiz-adv-x="1722" 
d="M983 305q110 0 188 49t121 135l363 -184q-66 -145 -244 -248.5t-414 -103.5q-296 0 -495.5 128.5t-257.5 364.5h-181v136h160q0 8 -1 25t-1 26q0 8 1 24.5t1 24.5h-160v137h181q58 234 257.5 363t495.5 129q236 0 414 -104t244 -249l-363 -182q-43 85 -121 133.5
t-188 48.5q-188 0 -274 -139h401v-137h-444q-4 -32 -4 -49q0 -9 1 -26t1 -25h446v-136h-399q82 -141 272 -141z" />
    <glyph glyph-name="minute.sc" horiz-adv-x="718" 
d="M264 1264h414l-197 -627h-413z" />
    <glyph glyph-name="percent.sc" horiz-adv-x="1873" 
d="M440 578q-176 0 -291.5 103t-115.5 259t115.5 259.5t291.5 103.5q178 0 294 -103.5t116 -259.5t-116 -259t-294 -103zM1341 1264h314l-1123 -1264h-311zM440 807q67 0 108.5 34.5t41.5 98.5t-41.5 98.5t-108.5 34.5q-65 0 -106 -34.5t-41 -98.5t41 -98.5t106 -34.5z
M1434 -39q-177 0 -293.5 104t-116.5 259q0 156 116 259t294 103q176 0 291.5 -103t115.5 -259q0 -155 -115.5 -259t-291.5 -104zM1434 190q65 0 106 35t41 99t-41 99.5t-106 35.5q-66 0 -108 -35.5t-42 -99.5t42 -99t108 -35z" />
    <glyph glyph-name="perthousand.sc" horiz-adv-x="2746" 
d="M440 578q-176 0 -291.5 103t-115.5 259t115.5 259.5t291.5 103.5q178 0 294 -103.5t116 -259.5t-116 -259t-294 -103zM1341 1264h314l-1123 -1264h-311zM440 807q67 0 108.5 34.5t41.5 98.5t-41.5 98.5t-108.5 34.5q-65 0 -106 -34.5t-41 -98.5t41 -98.5t106 -34.5z
M1434 -39q-177 0 -293.5 104t-116.5 259q0 156 116 259t294 103q176 0 291.5 -103t115.5 -259q0 -155 -115.5 -259t-291.5 -104zM2306 -39q-177 0 -293.5 104t-116.5 259q0 156 116 259t294 103q177 0 292.5 -103t115.5 -259q0 -155 -116 -259t-292 -104zM1434 190
q65 0 106 35t41 99t-41 99.5t-106 35.5q-66 0 -108 -35.5t-42 -99.5t42 -99t108 -35zM2306 190q65 0 106.5 35t41.5 99t-41.5 99.5t-106.5 35.5t-106 -35.5t-41 -99.5t41 -99t106 -35z" />
    <glyph glyph-name="uni20A8.sc" horiz-adv-x="1685" 
d="M1610 1001h-248q23 -48 29 -77h219v-262h-232q-71 -189 -280 -277l346 -385h-481l-275 322h-582v264h621q170 0 231 76h-852v262h852q-62 77 -231 77h-621v263h1504v-263z" />
    <glyph glyph-name="second.sc" horiz-adv-x="1271" 
d="M264 1264h414l-197 -627h-413zM817 1264h414l-197 -627h-413z" />
    <glyph glyph-name="sterling.sc" horiz-adv-x="1501" 
d="M797 315h624v-315h-1091h-246v315h246v181h-246v268h246v49q0 96 41 184.5t116 159t193.5 112.5t261.5 42q149 0 271 -41t192 -99l-156 -288q-97 63 -219 63q-233 0 -233 -182h514v-268h-514v-181z" />
    <glyph glyph-name="yen.sc" horiz-adv-x="1708" 
d="M1659 1264l-418 -602h225v-177h-346l-24 -34v-54h370v-176h-370v-221h-484v221h-370v176h370v54l-24 34h-346v177h225l-418 602h522l285 -476l281 476h522z" />
    <glyph glyph-name="florin.sc" horiz-adv-x="1378" 
d="M1081 981q-129 0 -141 -113l-10 -100h274l-24 -244h-277l-22 -188q-20 -174 -145.5 -278.5t-313.5 -104.5q-90 0 -195 23t-170 57l88 276q81 -26 156 -26q122 0 137 112l15 129h-275l25 244h276l19 162q20 174 145.5 277.5t312.5 103.5q92 0 196.5 -22.5t168.5 -55.5
l-86 -277q-84 25 -154 25z" />
    <glyph glyph-name="A.ss01" 
d="M1450 0l-102 215h-748l-100 -215h-520l727 1434h542l727 -1434h-526zM752 539h444l-221 475z" />
    </font>
</defs>
</svg>
