<?xml version="1.0" standalone="no"?>
<!DOCTYPE svg PUBLIC "-//W3C//DTD SVG 1.1//EN" "http://www.w3.org/Graphics/SVG/1.1/DTD/svg11.dtd" >
<svg xmlns="http://www.w3.org/2000/svg" xmlns:xlink="http://www.w3.org/1999/xlink" version="1.1">
<metadata>
Created by FontForge 20170731 at Thu Apr  1 15:19:38 2021
 By Aleksey,,,
Copyright (c) 2015 by Mattox Shuler. All rights reserved.
</metadata>
<defs>
<font id="Termina-Regular" horiz-adv-x="1841" >
  <font-face 
    font-family="Termina"
    font-weight="400"
    font-stretch="normal"
    units-per-em="2048"
    panose-1="0 0 5 0 0 0 0 0 0 0"
    ascent="1638"
    descent="-410"
    x-height="1116"
    cap-height="1434"
    bbox="-782 -612 3170 2224"
    underline-thickness="102"
    underline-position="-307"
    unicode-range="U+0020-FB02"
  />
<missing-glyph horiz-adv-x="1034" 
d="M848 1577v-2069h-655v2069h655zM688 1438h-340v-68h133v-76h-135v-69h342v69h-135v76h135v68zM553 1171h-207v-215h342v70h-135v145zM481 1102v-76h-67v76h67zM688 901h-342v-70h135v-75h-135v-68h207v143h135v70zM688 776h-67v-137h-275v-70h342v207zM688 524h-207v-116
h72v49h68v-99h-207v166h-68v-233h342v233zM688 166h-342v-234h342v234zM621 98v-98h-207v98h207zM688 -115h-342v-69h143l-143 -97v-67h342v67h-211l146 97h65v69z" />
    <glyph glyph-name="fi" unicode="fi" horiz-adv-x="1566" 
d="M653 1427q-100 0 -159.5 -46t-59.5 -146v-119h512v-143h-512v-973h-168v973h-225v143h225v92q0 88 29.5 156t81.5 109t117.5 62t142.5 21q88 0 174 -26t150 -76l-80 -106q-107 79 -228 79zM1274 1505q51 0 85 -31t34 -77q0 -45 -34.5 -77t-84.5 -32t-84.5 32t-34.5 77
q0 46 34 77t85 31zM1190 0v1116h168v-1116h-168z" />
    <glyph glyph-name="fl" unicode="fl" horiz-adv-x="1566" 
d="M653 1427q-100 0 -159.5 -46t-59.5 -146v-119h512v-143h-512v-973h-168v973h-225v143h225v92q0 88 29.5 156t81.5 109t117.5 62t142.5 21q88 0 174 -26t150 -76l-80 -106q-107 79 -228 79zM1190 1516h168v-1516h-168v1516z" />
    <glyph glyph-name=".notdef" horiz-adv-x="1034" 
d="M848 1577v-2069h-655v2069h655zM688 1438h-340v-68h133v-76h-135v-69h342v69h-135v76h135v68zM553 1171h-207v-215h342v70h-135v145zM481 1102v-76h-67v76h67zM688 901h-342v-70h135v-75h-135v-68h207v143h135v70zM688 776h-67v-137h-275v-70h342v207zM688 524h-207v-116
h72v49h68v-99h-207v166h-68v-233h342v233zM688 166h-342v-234h342v234zM621 98v-98h-207v98h207zM688 -115h-342v-69h143l-143 -97v-67h342v67h-211l146 97h65v69z" />
    <glyph glyph-name=".null" horiz-adv-x="0" 
 />
    <glyph glyph-name="nonmarkingreturn" horiz-adv-x="682" 
 />
    <glyph glyph-name="space" unicode=" " horiz-adv-x="655" 
 />
    <glyph glyph-name="exclam" unicode="!" horiz-adv-x="643" 
d="M201 1434h213l-35 -1039h-143zM307 -20q-54 0 -88.5 31.5t-34.5 80.5q0 50 34.5 82.5t88.5 32.5t88.5 -32.5t34.5 -82.5q0 -49 -34.5 -80.5t-88.5 -31.5z" />
    <glyph glyph-name="quotedbl" unicode="&#x22;" horiz-adv-x="901" 
d="M178 1516h148v-580h-148v580zM573 1516h148v-580h-148v580z" />
    <glyph glyph-name="numbersign" unicode="#" horiz-adv-x="1941" 
d="M1831 924h-352l-111 -387h391v-129h-428l-117 -408h-151l117 408h-600l-117 -408h-152l117 408h-317v129h354l110 387h-393v129h430l109 381h151l-108 -381h600l109 381h151l-108 -381h315v-129zM1217 537l110 387h-600l-111 -387h601z" />
    <glyph glyph-name="dollar" unicode="$" horiz-adv-x="1796" 
d="M1686 436q0 -192 -183.5 -310.5t-503.5 -127.5v-211h-149v215q-211 14 -400.5 87.5t-336.5 203.5l123 123q267 -232 614 -258v504q-100 10 -177 21.5t-160.5 30.5t-142.5 46t-108.5 64.5t-74.5 90t-25 117.5q0 95 56 172t152.5 126t219 76t260.5 30v190h149v-196
q371 -33 619 -246l-127 -113q-187 175 -492 203v-463q134 -12 229.5 -27t187 -43t147.5 -67t89.5 -99t33.5 -139zM338 1038q0 -40 16.5 -70.5t52.5 -52t77 -36.5t105 -26t120.5 -17t140.5 -13v457q-96 -2 -182 -15t-163 -40t-122 -75t-45 -112zM999 154q241 6 375.5 74.5
t134.5 195.5q0 40 -14 70t-45.5 52.5t-70.5 38t-101.5 27.5t-125 19.5t-153.5 15.5v-493z" />
    <glyph glyph-name="percent" unicode="%" horiz-adv-x="1871" 
d="M449 811q-158 0 -258.5 94t-100.5 230q0 137 100 230t259 93t258.5 -93t99.5 -230q0 -136 -100 -230t-258 -94zM1411 1434h160l-1110 -1434h-160zM449 930q100 0 163.5 55t63.5 150t-63 149.5t-164 54.5t-164.5 -54.5t-63.5 -149.5t63.5 -150t164.5 -55zM1423 -25
q-158 0 -258 94t-100 230q0 138 100 231t258 93q159 0 259 -93t100 -231q0 -136 -100.5 -230t-258.5 -94zM1423 94q101 0 164.5 55t63.5 150t-63.5 150t-164.5 55q-100 0 -163.5 -55t-63.5 -150t63.5 -150t163.5 -55z" />
    <glyph glyph-name="ampersand" unicode="&#x26;" horiz-adv-x="1830" 
d="M1819 0h-269l-153 113q-206 -154 -549 -154q-202 0 -366.5 62.5t-257.5 172t-93 242.5q0 125 80.5 231.5t216.5 163.5q-60 57 -91.5 117.5t-31.5 138.5q0 174 146.5 281t379.5 107q123 0 225.5 -31t175 -85.5t123 -119.5t83.5 -143l-152 -62q-62 141 -173 213t-284 72
q-163 0 -255.5 -60.5t-92.5 -162.5q0 -42 16.5 -79t56.5 -76t77 -68.5t107 -80.5q29 -21 44 -32l598 -438q102 132 105 350h168q-3 -267 -142 -447zM860 115q247 0 402 96l-654 481q-33 23 -63 47q-120 -48 -178 -124.5t-58 -168.5q0 -83 45 -148t122.5 -104t175 -59
t208.5 -20z" />
    <glyph glyph-name="quotesingle" unicode="'" horiz-adv-x="505" 
d="M178 1516h148v-580h-148v580z" />
    <glyph glyph-name="parenleft" unicode="(" horiz-adv-x="880" 
d="M276 594q0 -280 139 -477.5t378 -278.5l-56 -121q-279 82 -445.5 319.5t-166.5 557.5t166.5 557t445.5 319l56 -120q-239 -81 -378 -278.5t-139 -477.5z" />
    <glyph glyph-name="parenright" unicode=")" horiz-adv-x="880" 
d="M604 594q0 280 -139 477.5t-377 278.5l55 120q279 -82 446 -319t167 -557t-167 -557.5t-446 -319.5l-55 121q238 81 377 278.5t139 477.5z" />
    <glyph glyph-name="asterisk" unicode="*" horiz-adv-x="1171" 
d="M750 612l-164 344l-164 -344l-123 72l213 311l-377 -28v145l377 -29l-213 310l123 71l164 -344l164 344l122 -71l-213 -310l377 29v-145l-377 28l213 -311z" />
    <glyph glyph-name="plus" unicode="+" horiz-adv-x="1515" 
d="M1335 682v-139h-501v-451h-148v451h-504v139h504v451h148v-451h501z" />
    <glyph glyph-name="comma" unicode="," horiz-adv-x="538" 
d="M272 207q56 0 91.5 -36t35.5 -95q0 -85 -45.5 -188t-122.5 -175l-55 47q61 70 88 121t35 107q-8 -8 -33 -8q-48 0 -81 32t-33 82q0 48 34 80.5t86 32.5z" />
    <glyph glyph-name="hyphen" unicode="-" horiz-adv-x="1224" 
d="M1049 539h-875v147h875v-147z" />
    <glyph glyph-name="period" unicode="." horiz-adv-x="524" 
d="M262 -20q-54 0 -88.5 31.5t-34.5 80.5q0 50 34.5 82.5t88.5 32.5t88.5 -32.5t34.5 -82.5q0 -49 -34.5 -80.5t-88.5 -31.5z" />
    <glyph glyph-name="slash" unicode="/" horiz-adv-x="1406" 
d="M258 -205h-192l1085 1802h192z" />
    <glyph glyph-name="zero" unicode="0" horiz-adv-x="1925" 
d="M963 -43q-390 0 -611 204.5t-221 555.5t221 555.5t611 204.5q391 0 611 -204t220 -556t-220 -556t-611 -204zM963 117q306 0 480.5 154.5t174.5 445.5t-174.5 445.5t-480.5 154.5q-308 0 -482 -154.5t-174 -445.5t174 -445.5t482 -154.5z" />
    <glyph glyph-name="one" unicode="1" horiz-adv-x="921" 
d="M512 0v1219q-178 -146 -446 -189v156q248 38 487 248h131v-1434h-172z" />
    <glyph glyph-name="two" unicode="2" horiz-adv-x="1665" 
d="M141 1110q91 161 280.5 263t426.5 102q126 0 243.5 -29t211.5 -82t151 -136.5t57 -185.5q0 -60 -18.5 -112t-57 -95.5t-86 -79.5t-118 -70.5t-139 -61.5t-162.5 -60q-263 -92 -419.5 -191.5t-191.5 -219.5h1225v-152h-1444v84q35 183 226 338.5t512 273.5q75 27 119 43.5
t104 41.5t94 44t73.5 45t59.5 50.5t33.5 55t13.5 64.5q0 70 -42 125.5t-112 89t-157 51t-182 17.5q-364 0 -570 -299z" />
    <glyph glyph-name="three" unicode="3" horiz-adv-x="1708" 
d="M242 393q83 -133 253 -207.5t388 -74.5q141 0 255 31.5t186.5 100t72.5 165.5q0 74 -41.5 126.5t-120.5 82t-179.5 42.5t-232.5 13h-186v151h186q143 0 259 26t191 84t75 140q0 80 -73 138.5t-178.5 85t-224.5 26.5q-218 0 -361 -65.5t-230 -190.5l-150 80
q228 328 717 328q185 0 337 -45.5t245.5 -136.5t93.5 -212q0 -91 -54 -164.5t-134 -114t-169 -48.5q56 -6 110 -21t110 -43.5t97.5 -67t68 -96.5t26.5 -127q0 -136 -94.5 -237t-252.5 -152t-355 -51q-270 0 -469.5 93t-317.5 259z" />
    <glyph glyph-name="four" unicode="4" horiz-adv-x="1757" 
d="M1681 502v-148h-313v-354h-172v354h-1137v117l1158 963h151v-932h313zM319 502h877v721z" />
    <glyph glyph-name="five" unicode="5" horiz-adv-x="1703" 
d="M238 403q103 -138 274 -214t381 -76q157 0 276 34.5t190 108.5t71 180q0 159 -155 241.5t-423 82.5q-140 0 -267.5 -27.5t-273.5 -91.5l-143 64l123 729h1165v-154h-1022l-84 -494q137 68 264.5 92.5t292.5 24.5q145 0 269.5 -28.5t221.5 -85t152.5 -148t55.5 -209.5
q0 -204 -195 -339.5t-518 -135.5q-248 0 -453.5 96t-335.5 258z" />
    <glyph glyph-name="six" unicode="6" horiz-adv-x="1804" 
d="M1049 909q100 0 192 -17.5t174.5 -54.5t143 -91t96 -131.5t35.5 -170.5q0 -217 -199 -352t-533 -135q-387 0 -607 205.5t-220 554.5t220 554.5t607 205.5q445 0 674 -256l-135 -101q-188 209 -530 209q-148 0 -267.5 -37t-208 -110.5t-136.5 -191.5t-48 -273
q0 -53 6 -103q119 138 308 216.5t428 78.5zM958 104q255 0 405 89t150 251q0 109 -69.5 183t-179 105.5t-252.5 31.5q-190 0 -373 -78t-295 -213q62 -185 221.5 -277t392.5 -92z" />
    <glyph glyph-name="seven" unicode="7" horiz-adv-x="1531" 
d="M438 0l834 1278h-1221v156h1438v-127l-844 -1307h-207z" />
    <glyph glyph-name="eight" unicode="8" horiz-adv-x="1808" 
d="M1257 756q56 -5 112.5 -20.5t113 -45.5t99.5 -70.5t70 -99t27 -127.5q0 -134 -98 -233t-272.5 -151t-403.5 -52q-230 0 -404.5 52t-272 151t-97.5 233q0 69 27 127.5t70 99t99.5 70.5t113 45.5t112.5 20.5q-70 6 -134 29t-117 61.5t-84.5 98.5t-31.5 132
q0 124 95.5 215.5t257 138t366.5 46.5q203 0 365 -46t258 -138t96 -216q0 -72 -31.5 -132t-84.5 -98.5t-117 -61.5t-134 -29zM360 1073q0 -66 43.5 -116.5t120.5 -80t172.5 -44.5t208.5 -15t208.5 15t172.5 44.5t120.5 80t43.5 116.5t-43.5 116.5t-120.5 80t-172.5 44.5
t-208.5 15t-208.5 -15t-172.5 -44.5t-120.5 -80t-43.5 -116.5zM903 104q180 0 311.5 30t208 95.5t76.5 161.5q0 135 -163 211t-433 76q-268 0 -431 -76t-163 -211t163 -211t431 -76z" />
    <glyph glyph-name="nine" unicode="9" horiz-adv-x="1804" 
d="M846 1477q387 0 607 -205.5t220 -554.5t-220 -554.5t-607 -205.5q-445 0 -674 256l135 100q188 -209 531 -209q148 0 267.5 37t207.5 110.5t136 192t48 273.5q0 53 -6 102q-119 -138 -307.5 -216.5t-427.5 -78.5q-100 0 -192 17.5t-174.5 54.5t-143 91t-96 131.5
t-35.5 170.5q0 218 199 353t532 135zM793 670q190 0 372.5 78t294.5 213q-61 184 -220.5 276t-393.5 92q-255 0 -405 -89t-150 -251q0 -83 39.5 -145.5t109.5 -99.5t158.5 -55.5t194.5 -18.5z" />
    <glyph glyph-name="colon" unicode=":" horiz-adv-x="524" 
d="M262 909q-54 0 -88.5 31.5t-34.5 81.5t34.5 82.5t88.5 32.5t88.5 -32.5t34.5 -82.5t-34.5 -81.5t-88.5 -31.5zM262 -20q-54 0 -88.5 31.5t-34.5 80.5q0 50 34.5 82.5t88.5 32.5t88.5 -32.5t34.5 -82.5q0 -49 -34.5 -80.5t-88.5 -31.5z" />
    <glyph glyph-name="semicolon" unicode=";" horiz-adv-x="528" 
d="M262 909q-54 0 -88.5 31.5t-34.5 81.5t34.5 82.5t88.5 32.5t88.5 -32.5t34.5 -82.5t-34.5 -81.5t-88.5 -31.5zM262 207q56 0 91.5 -36t35.5 -95q0 -85 -45.5 -188t-122.5 -175l-55 47q61 70 88 121t35 107q-8 -8 -33 -8q-48 0 -81.5 32t-33.5 82q0 48 34.5 80.5
t86.5 32.5z" />
    <glyph glyph-name="less" unicode="&#x3c;" horiz-adv-x="1515" 
d="M1262 1133l-1065 -451v-147l1065 -451v156l-897 368l897 369v156z" />
    <glyph glyph-name="equal" unicode="=" horiz-adv-x="1515" 
d="M1335 782h-1153v156h1153v-156zM1335 301h-1153v156h1153v-156z" />
    <glyph glyph-name="greater" unicode="&#x3e;" horiz-adv-x="1515" 
d="M254 1133v-156l897 -369l-897 -368v-156l1065 451v147z" />
    <glyph glyph-name="question" unicode="?" horiz-adv-x="1513" 
d="M668 412v379q130 8 228.5 25.5t178 49t121 81.5t41.5 118q0 87 -67 147t-166 85.5t-220 25.5q-383 0 -573 -276l-133 83q109 160 293 252.5t420 92.5q119 0 229 -26.5t198.5 -76.5t141.5 -129.5t53 -177.5q0 -118 -79 -205.5t-210 -134t-305 -59.5v-254h-151zM748 -20
q-54 0 -88.5 31.5t-34.5 80.5q0 50 34.5 82.5t88.5 32.5t88 -32.5t34 -82.5t-34 -81t-88 -31z" />
    <glyph glyph-name="at" unicode="@" horiz-adv-x="2277" 
d="M1133 1403q218 0 404.5 -62.5t318.5 -173t207 -268t75 -342.5q0 -256 -82 -379t-219 -123q-108 0 -184 65.5t-94 166.5q-69 -114 -208.5 -184t-301.5 -70q-156 0 -282 63t-200.5 184t-74.5 279t74.5 278.5t200.5 183t282 62.5q162 0 298.5 -69.5t204.5 -184.5l43 215h101
v-653q0 -140 46.5 -198t115.5 -58q84 0 138 105t54 317q0 144 -47 268t-131.5 214t-199 154t-251.5 96t-288 32t-288 -32t-252 -96t-199.5 -154t-131.5 -214t-47 -268t47 -267.5t131.5 -213.5t199.5 -154t252 -95.5t288 -31.5q362 0 587 162l45 -70q-230 -174 -632 -174
q-291 0 -520 106t-357.5 298.5t-128.5 439.5q0 185 75 342.5t207 268t319 173t405 62.5zM1085 162q156 0 278 70.5t185 207.5v234q-63 136 -185.5 207t-277.5 71q-199 0 -321.5 -104t-122.5 -291q0 -186 122.5 -290.5t321.5 -104.5z" />
    <glyph glyph-name="A" unicode="A" horiz-adv-x="1835" 
d="M1608 0l-209 385h-967l-209 -385h-190l788 1434h193l788 -1434h-194zM516 541h799l-400 735z" />
    <glyph glyph-name="B" unicode="B" horiz-adv-x="1896" 
d="M1382 737q390 -24 390 -344q0 -193 -142.5 -293t-396.5 -100h-995v1434h954q226 0 362 -94.5t136 -270.5q0 -63 -19 -119t-55.5 -102t-96.5 -75.5t-137 -35.5zM408 1278v-467h759q167 0 259 53t92 180t-92 180.5t-259 53.5h-759zM1202 156q391 0 391 250q0 249 -391 249
h-794v-499h794z" />
    <glyph glyph-name="C" unicode="C" horiz-adv-x="1816" 
d="M997 117q410 0 568 274l164 -82q-104 -166 -292 -259t-444 -93q-400 0 -631 205t-231 555t232 555t636 205q251 0 438.5 -94t291.5 -259l-164 -82q-83 139 -229 207t-339 68q-319 0 -504.5 -155t-185.5 -445t185.5 -445t504.5 -155z" />
    <glyph glyph-name="D" unicode="D" horiz-adv-x="1925" 
d="M934 1434q394 0 627 -194t233 -523t-233 -523t-627 -194h-696v1434h696zM922 160q154 0 281 36t220 104.5t144 175t51 241.5t-51 241.5t-144 175t-220 104.5t-281 36h-512v-1114h512z" />
    <glyph glyph-name="E" unicode="E" horiz-adv-x="1740" 
d="M410 160h1214v-160h-1386v1434h1366v-160h-1194v-465h1011v-160h-1011v-489z" />
    <glyph glyph-name="F" unicode="F" horiz-adv-x="1675" 
d="M1602 1274h-1192v-502h1011v-160h-1011v-612h-172v1434h1364v-160z" />
    <glyph glyph-name="G" unicode="G" horiz-adv-x="1941" 
d="M1817 745v-397q-93 -174 -304 -282.5t-499 -108.5q-414 0 -648.5 204t-234.5 556t233.5 556t643.5 204q248 0 430.5 -81.5t298.5 -217.5l-150 -105q-194 244 -579 244q-328 0 -514.5 -154t-186.5 -446q0 -293 189 -446.5t524 -153.5q223 0 385.5 69t239.5 213v187h-652
v159h824z" />
    <glyph glyph-name="H" unicode="H" horiz-adv-x="1998" 
d="M1589 1434h172v-1434h-172v645h-1179v-645h-172v1434h172v-625h1179v625z" />
    <glyph glyph-name="I" unicode="I" horiz-adv-x="647" 
d="M410 0h-172v1434h172v-1434z" />
    <glyph glyph-name="J" unicode="J" horiz-adv-x="1415" 
d="M180 295q62 -92 154 -135t241 -43q235 0 347 129t112 358v830h172v-840q0 -107 -22.5 -201t-72 -174.5t-122 -138t-178.5 -90.5t-236 -33q-375 0 -540 242z" />
    <glyph glyph-name="K" unicode="K" horiz-adv-x="1804" 
d="M1786 0h-219l-680 770l-477 -373v-397h-172v1434h172v-840l1085 840h246l-715 -564z" />
    <glyph glyph-name="L" unicode="L" horiz-adv-x="1554" 
d="M410 160h1097v-160h-1269v1434h172v-1274z" />
    <glyph glyph-name="M" unicode="M" horiz-adv-x="2285" 
d="M1864 1434h184v-1434h-172v1192l-729 -883h-12l-729 883v-1192h-168v1434h188l719 -877z" />
    <glyph glyph-name="N" unicode="N" horiz-adv-x="1998" 
d="M1593 1434h168v-1434h-151l-1204 1214v-1214h-168v1434h186l1169 -1182v1182z" />
    <glyph glyph-name="O" unicode="O" horiz-adv-x="2007" 
d="M1004 -43q-407 0 -640 204t-233 556t233 556t640 204t639.5 -204t232.5 -556t-232.5 -556t-639.5 -204zM1004 117q321 0 508.5 157.5t187.5 442.5t-187.5 442.5t-508.5 157.5t-509 -157.5t-188 -442.5t188 -442.5t509 -157.5z" />
    <glyph glyph-name="P" unicode="P" horiz-adv-x="1832" 
d="M1196 1434q250 0 399.5 -121t149.5 -334t-149.5 -334t-399.5 -121h-786v-524h-172v1434h958zM1184 684q180 0 282.5 74t102.5 221t-102.5 221t-282.5 74h-774v-590h774z" />
    <glyph glyph-name="Q" unicode="Q" horiz-adv-x="2007" 
d="M1876 717q0 -203 -80.5 -360.5t-232.5 -256.5l215 -231l-111 -102l-244 262q-182 -72 -419 -72q-407 0 -640 204t-233 556t233 556t640 204t639.5 -204t232.5 -556zM1004 117q169 0 299 43l-232 250l111 102l264 -285q123 74 188.5 199t65.5 291q0 285 -187.5 442.5
t-508.5 157.5t-509 -157.5t-188 -442.5t188 -442.5t509 -157.5z" />
    <glyph glyph-name="R" unicode="R" horiz-adv-x="1894" 
d="M1794 0h-225l-475 549h-682v-549h-174v1434h962q245 0 397 -117.5t152 -325.5q0 -184 -120.5 -298t-323.5 -138zM410 709h778q180 0 282.5 70t102.5 212t-102.5 212.5t-282.5 70.5h-778v-565z" />
    <glyph glyph-name="S" unicode="S" horiz-adv-x="1769" 
d="M932 817q140 -11 245.5 -28t202 -47t158 -72.5t97.5 -106.5t36 -147q0 -203 -196.5 -331t-538.5 -128q-239 0 -456.5 75t-381.5 220l121 129q155 -137 332.5 -200.5t394.5 -63.5q259 0 404 76t145 210q0 43 -16.5 76.5t-53 58.5t-83.5 43t-119 31.5t-146.5 22.5
t-179.5 18q-103 9 -189 21.5t-175 33.5t-155.5 51.5t-120.5 71t-82 97t-28 125.5q0 130 102 228.5t264 147t357 48.5q224 0 413.5 -70t320.5 -186l-136 -115q-103 102 -255 155.5t-334 55.5q-101 1 -195.5 -13.5t-177 -44t-132.5 -81.5t-50 -119q0 -43 20.5 -77.5
t63.5 -58.5t92 -41.5t125 -29.5t143.5 -19.5t163.5 -15.5z" />
    <glyph glyph-name="T" unicode="T" horiz-adv-x="1615" 
d="M1571 1434v-156h-678v-1278h-172v1278h-676v156h1526z" />
    <glyph glyph-name="U" unicode="U" horiz-adv-x="1931" 
d="M1550 1434h172v-758q0 -158 -49 -289t-142.5 -227t-237.5 -149.5t-326 -53.5t-326.5 53.5t-238.5 149.5t-143.5 227.5t-49.5 288.5v758h172v-748q0 -266 153.5 -417.5t432.5 -151.5q278 0 430.5 151.5t152.5 417.5v748z" />
    <glyph glyph-name="V" unicode="V" horiz-adv-x="1773" 
d="M33 1434h194l662 -1248l661 1248h191l-760 -1434h-188z" />
    <glyph glyph-name="W" unicode="W" horiz-adv-x="2463" 
d="M2218 1434h184l-526 -1434h-182l-461 1227l-463 -1227h-182l-527 1434h189l432 -1225l465 1225h174l463 -1225z" />
    <glyph glyph-name="X" unicode="X" horiz-adv-x="1648" 
d="M1608 1434l-670 -711l674 -723h-226l-565 602l-565 -602h-219l674 721l-670 713h225l561 -596l562 596h219z" />
    <glyph glyph-name="Y" unicode="Y" horiz-adv-x="1685" 
d="M37 1434h207l602 -777l598 777h205l-719 -932v-502h-172v502z" />
    <glyph glyph-name="Z" unicode="Z" horiz-adv-x="1736" 
d="M1593 1434v-127l-1220 -1151h1253v-156h-1515v127l1220 1151h-1184v156h1446z" />
    <glyph glyph-name="bracketleft" unicode="[" horiz-adv-x="878" 
d="M791 1298h-410v-1409h410v-135h-553v1680h553v-136z" />
    <glyph glyph-name="backslash" unicode="\" horiz-adv-x="1482" 
d="M1149 -205l-1086 1802h193l1085 -1802h-192z" />
    <glyph glyph-name="bracketright" unicode="]" horiz-adv-x="878" 
d="M88 1298v136h553v-1680h-553v135h410v1409h-410z" />
    <glyph glyph-name="asciicircum" unicode="^" horiz-adv-x="1515" 
d="M215 532h172l371 732l370 -732h172l-469 902h-147z" />
    <glyph glyph-name="underscore" unicode="_" horiz-adv-x="1298" 
d="M1290 -264h-1282v135h1282v-135z" />
    <glyph glyph-name="grave" unicode="`" horiz-adv-x="1191" 
d="M281 1905h274l338 -308h-160z" />
    <glyph glyph-name="a" unicode="a" horiz-adv-x="1527" 
d="M735 1157q285 0 444.5 -138.5t159.5 -400.5v-401q0 -126 54 -217h-179q-47 78 -47 178v4q-71 -98 -202 -160.5t-303 -62.5q-77 0 -153 12t-152.5 41.5t-134.5 73.5t-94 113t-36 155q0 85 36 154t94 113t134.5 74t152.5 42.5t153 12.5q172 0 303 -62.5t202 -161.5v92
q0 201 -114 297.5t-346 96.5q-237 0 -439 -129l-78 123q100 67 248 109t297 42zM1171 334v41q-35 63 -91 110t-123 73.5t-137 39t-144 12.5q-54 0 -107 -6.5t-110.5 -24t-101 -45t-71.5 -74t-28 -106.5t28 -106.5t71.5 -74t101 -45t110.5 -24t107 -6.5q100 0 191 22
t174.5 77t129.5 137z" />
    <glyph glyph-name="b" unicode="b" horiz-adv-x="1634" 
d="M909 1157q278 0 442.5 -164t164.5 -436q0 -271 -164.5 -434.5t-442.5 -163.5q-181 0 -320.5 68t-217.5 188v-215h-168v1516h168v-615q78 120 217.5 188t320.5 68zM866 109q230 0 355 116.5t125 331.5q0 217 -125 334t-355 117q-337 0 -495 -273v-354q157 -272 495 -272z
" />
    <glyph glyph-name="c" unicode="c" horiz-adv-x="1466" 
d="M1382 240q-176 -283 -587 -283q-316 0 -496 162t-180 438q0 277 180 439.5t496 162.5q395 0 581 -268l-164 -82q-58 102 -171 151.5t-244 49.5q-230 0 -369 -116.5t-139 -336.5q0 -147 66 -250t179 -152t263 -49q134 0 249 51t171 156z" />
    <glyph glyph-name="d" unicode="d" horiz-adv-x="1634" 
d="M725 1157q181 0 321 -68t218 -188v615h168v-1516h-168v215q-78 -120 -218 -188t-321 -68q-278 0 -442 163.5t-164 434.5q0 272 164 436t442 164zM768 109q339 0 496 272v354q-158 273 -496 273q-230 0 -354.5 -117t-124.5 -334q0 -215 124.5 -331.5t354.5 -116.5z" />
    <glyph glyph-name="e" unicode="e" horiz-adv-x="1546" 
d="M289 522q12 -207 150.5 -314.5t367.5 -107.5q162 0 273 41.5t210 134.5l111 -116q-115 -104 -260.5 -153.5t-341.5 -49.5q-321 0 -500.5 161t-179.5 439q0 279 177.5 440.5t491.5 161.5q302 0 477 -157.5t175 -442.5q0 -21 -4 -37h-1147zM791 1016q-199 0 -331 -90.5
t-163 -263.5h973q-24 121 -93 201.5t-166 116.5t-220 36z" />
    <glyph glyph-name="f" unicode="f" horiz-adv-x="980" 
d="M434 1235v-119h512v-143h-512v-973h-168v973h-225v143h225v92q0 88 29.5 156t81.5 109t117.5 62t142.5 21q88 0 174 -26t150 -76l-80 -106q-107 79 -228 79q-100 0 -159.5 -46t-59.5 -146z" />
    <glyph glyph-name="g" unicode="g" horiz-adv-x="1634" 
d="M1432 1116v-993q0 -117 -34.5 -213t-95 -162.5t-144.5 -111.5t-181 -66t-207 -21q-148 0 -297 42t-240 108l80 129q195 -129 441 -129q249 0 379.5 101t130.5 302v113q-76 -117 -223 -186.5t-316 -69.5q-278 0 -442 163.5t-164 434.5q0 272 164 436t442 164
q181 0 321 -68t218 -188v215h168zM768 109q339 0 496 272v354q-158 273 -496 273q-230 0 -354.5 -117t-124.5 -334q0 -215 124.5 -331.5t354.5 -116.5z" />
    <glyph glyph-name="h" unicode="h" horiz-adv-x="1613" 
d="M903 1157q168 0 285 -68.5t172 -185t55 -272.5v-631h-168v618q0 191 -95 290.5t-282 99.5q-166 0 -295 -77.5t-204 -230.5v-700h-168v1516h168v-631q79 128 217 200t315 72z" />
    <glyph glyph-name="i" unicode="i" horiz-adv-x="585" 
d="M293 1288q-50 0 -84.5 32t-34.5 77q0 46 34 77t85 31t85 -31t34 -77q0 -45 -34.5 -77t-84.5 -32zM377 1116v-1116h-168v1116h168z" />
    <glyph glyph-name="j" unicode="j" horiz-adv-x="585" 
d="M293 1288q-51 0 -85 31t-34 76q0 46 34 76t85 30t85 -30t34 -76q0 -45 -34 -76t-85 -31zM209 1116h168v-1241q0 -152 -87 -239t-231 -87q-112 0 -196 41l51 138q48 -25 111 -25q88 0 136 54.5t48 148.5v1210z" />
    <glyph glyph-name="k" unicode="k" horiz-adv-x="1421" 
d="M1200 0l-493 580l-336 -263v-317h-168v1516h168v-1029l778 629h221l-532 -440l567 -676h-205z" />
    <glyph glyph-name="l" unicode="l" horiz-adv-x="585" 
d="M377 0h-168v1516h168v-1516z" />
    <glyph glyph-name="m" unicode="m" horiz-adv-x="2525" 
d="M1845 1157q125 0 219 -40t150.5 -112t84.5 -165t28 -205v-635h-166v623q0 183 -88.5 284t-270.5 101q-314 0 -456 -310q2 -20 2 -63v-498l2 -137h-168v623q0 183 -88.5 284t-270.5 101q-312 0 -452 -303v-705h-168v1116h168v-231q69 125 199.5 198.5t295.5 73.5
q186 0 299.5 -85.5t155.5 -235.5q65 148 205.5 234.5t318.5 86.5z" />
    <glyph glyph-name="n" unicode="n" horiz-adv-x="1613" 
d="M371 0h-168v1116h168v-231q79 128 217 200t315 72q168 0 285 -68.5t172 -185t55 -272.5v-631h-168v618q0 191 -95 290.5t-282 99.5q-166 0 -295 -77.5t-204 -230.5v-700z" />
    <glyph glyph-name="o" unicode="o" horiz-adv-x="1593" 
d="M797 -43q-318 0 -498 161t-180 439t180 440t498 162t498 -162t180 -440t-180 -439t-498 -161zM797 106q227 0 367.5 116.5t140.5 334.5q0 147 -67 251t-180 153t-261 49t-261 -49t-180 -153t-67 -251q0 -218 140.5 -334.5t367.5 -116.5z" />
    <glyph glyph-name="p" unicode="p" horiz-adv-x="1634" 
d="M909 -41q-181 0 -320.5 68t-217.5 188v-625h-168v1526h168v-215q78 120 217.5 188t320.5 68q278 0 442.5 -163.5t164.5 -434.5q0 -272 -164.5 -436t-442.5 -164zM866 1008q-337 0 -495 -273v-354q157 -272 495 -272q230 0 355 116.5t125 333.5q0 215 -125 332t-355 117z
" />
    <glyph glyph-name="q" unicode="q" horiz-adv-x="1634" 
d="M725 -41q-278 0 -442 164t-164 436q0 271 164 434.5t442 163.5q181 0 321 -68t218 -188v215h168v-1526h-168v625q-78 -120 -218 -188t-321 -68zM768 1008q-230 0 -354.5 -117t-124.5 -332q0 -217 124.5 -333.5t354.5 -116.5q339 0 496 272v354q-158 273 -496 273z" />
    <glyph glyph-name="r" unicode="r" horiz-adv-x="962" 
d="M371 0h-168v1116h168v-274q66 139 218 218t337 79v-152q-196 0 -345 -86.5t-210 -249.5v-651z" />
    <glyph glyph-name="s" unicode="s" horiz-adv-x="1415" 
d="M743 647q132 -11 233.5 -33t182.5 -59.5t123.5 -97t42.5 -138.5q0 -157 -154 -259.5t-430 -102.5q-379 0 -651 240l107 100q237 -201 548 -201q180 0 297 54.5t117 152.5q0 34 -13 61t-41 47.5t-63.5 35t-89.5 25.5t-110 18t-133 14q-80 7 -145.5 16.5t-134 25.5
t-119.5 40t-92.5 56.5t-63 77.5t-21.5 101q0 107 75.5 184.5t204.5 115.5t296 38q160 0 309.5 -54.5t249.5 -135.5l-107 -113q-186 161 -461 164q-69 1 -135 -8t-128 -29t-100 -59.5t-38 -92.5q0 -29 12.5 -53t32.5 -41t53.5 -31t68 -23t83.5 -16t92 -11.5t102 -8.5z" />
    <glyph glyph-name="t" unicode="t" horiz-adv-x="989" 
d="M897 184l59 -121q-150 -104 -323 -104q-159 0 -263 84t-104 240v686h-225v147h225v260h168v-260h514v-147h-514v-662q0 -98 64.5 -148t163.5 -50q106 0 235 75z" />
    <glyph glyph-name="u" unicode="u" horiz-adv-x="1613" 
d="M1243 1116h168v-1116h-168v231q-79 -128 -217 -200t-315 -72q-168 0 -285 68.5t-172 185t-55 272.5v631h168v-618q0 -191 94.5 -290t281.5 -99q166 0 295.5 77.5t204.5 229.5v700z" />
    <glyph glyph-name="v" unicode="v" horiz-adv-x="1445" 
d="M1401 1116l-586 -1116h-184l-586 1116h191l489 -948l489 948h187z" />
    <glyph glyph-name="w" unicode="w" horiz-adv-x="2023" 
d="M1788 1116h170l-418 -1116h-172l-354 934l-359 -934h-172l-417 1116h174l340 -926l352 926h164l352 -926z" />
    <glyph glyph-name="x" unicode="x" horiz-adv-x="1343" 
d="M1290 1116l-510 -553l514 -563h-211l-413 459l-414 -459h-207l516 561l-512 555h211l410 -454l409 454h207z" />
    <glyph glyph-name="y" unicode="y" horiz-adv-x="1447" 
d="M1219 1116h184l-871 -1526h-182l289 488l-594 1038h188l496 -868z" />
    <glyph glyph-name="z" unicode="z" horiz-adv-x="1366" 
d="M1247 1116v-123l-913 -848h938v-147h-1182v123l914 848h-885v147h1128z" />
    <glyph glyph-name="braceleft" unicode="{" horiz-adv-x="929" 
d="M535 979q0 -179 -86.5 -278.5t-229.5 -104.5q143 -8 229.5 -107t86.5 -278q0 -144 62.5 -233t182.5 -89h62v-135h-80q-177 0 -275 110t-98 312q0 90 -20 157t-52.5 106.5t-80 64t-94.5 33t-105 8.5v100q58 0 105 8.5t94.5 33t80 64t52.5 106.5t20 157q0 202 97.5 311
t275.5 109h80v-136h-62q-120 0 -182.5 -87.5t-62.5 -231.5z" />
    <glyph glyph-name="bar" unicode="|" horiz-adv-x="602" 
d="M221 -246v1680h160v-1680h-160z" />
    <glyph glyph-name="braceright" unicode="}" horiz-adv-x="929" 
d="M395 979q0 144 -62.5 231.5t-182.5 87.5h-62v136h80q178 0 275.5 -109t97.5 -311q0 -90 20 -157t52.5 -106.5t80 -64t94.5 -33t105 -8.5v-100q-58 0 -105 -8.5t-94.5 -33t-80 -64t-52.5 -106.5t-20 -157q0 -202 -98 -312t-275 -110h-80v135h62q120 0 182.5 89t62.5 233
q0 179 86.5 278t229.5 107q-143 5 -229.5 104.5t-86.5 278.5z" />
    <glyph glyph-name="asciitilde" unicode="~" horiz-adv-x="1515" 
d="M1249 739l101 -90q-44 -70 -127.5 -120t-202.5 -50q-65 0 -138 18.5t-127.5 40t-125 40t-131.5 18.5q-160 0 -226 -111l-100 90q44 70 126.5 120t199.5 50q66 0 139 -18t128 -40t126 -40t133 -18q156 0 225 110z" />
    <glyph glyph-name="exclamdown" unicode="&#xa1;" horiz-adv-x="643" 
d="M307 1044q54 0 88.5 -31.5t34.5 -80.5q0 -50 -34.5 -82.5t-88.5 -32.5t-88.5 32.5t-34.5 82.5q0 49 34.5 80.5t88.5 31.5zM201 -410l35 1039h143l35 -1039h-213z" />
    <glyph glyph-name="cent" unicode="&#xa2;" horiz-adv-x="1486" 
d="M1370 434q-70 -117 -202 -190.5t-312 -85.5v-158h-139v158q-277 19 -432.5 166t-155.5 393t155.5 393t432.5 166v158h139v-158q178 -12 309 -84t203 -186l-137 -64q-114 176 -375 191v-832q131 8 221.5 54.5t153.5 140.5zM281 717q0 -192 114 -295.5t322 -118.5v827
q-208 -15 -322 -118t-114 -295z" />
    <glyph glyph-name="sterling" unicode="&#xa3;" horiz-adv-x="1515" 
d="M524 147h856v-147h-1024h-241v147h241v508h-241v140h241v127q0 87 20.5 167t64 151t106.5 123.5t153.5 83t198.5 30.5q144 0 268.5 -57t198.5 -150l-100 -103q-149 162 -359 162q-191 0 -287 -114t-96 -308v-112h738v-140h-738v-508z" />
    <glyph glyph-name="currency" unicode="&#xa4;" horiz-adv-x="1650" 
d="M1440 729q0 -239 -152 -391l203 -203l-92 -86l-213 211q-151 -88 -361 -88q-207 0 -360 86l-213 -209l-92 86l202 203q-151 148 -151 391q0 221 127 367l-178 178l92 86l184 -178q156 104 389 104q238 0 389 -106l185 180l92 -86l-178 -178q127 -146 127 -367zM358 729
q0 -206 124.5 -312t342.5 -106t342.5 106t124.5 312t-124.5 312t-342.5 106t-342.5 -106t-124.5 -312z" />
    <glyph glyph-name="yen" unicode="&#xa5;" horiz-adv-x="1728" 
d="M1655 1434l-608 -768h391v-101h-471l-15 -18v-144h486v-100h-486v-303h-172v303h-485v100h485v144l-14 18h-471v101h391l-610 768h207l585 -752l582 752h205z" />
    <glyph glyph-name="brokenbar" unicode="&#xa6;" horiz-adv-x="602" 
d="M221 764v670h160v-670h-160zM381 434v-680h-160v680h160z" />
    <glyph glyph-name="section" unicode="&#xa7;" horiz-adv-x="1488" 
d="M1139 330q213 -83 213 -256q0 -157 -154.5 -260t-431.5 -103q-380 0 -649 240l110 98q229 -199 543 -199q182 0 299 54.5t117 152.5q0 41 -20.5 72t-55.5 51.5t-94 36t-123.5 24.5t-157.5 17q-80 7 -145.5 16.5t-134 25.5t-119.5 40t-92 56.5t-62.5 77.5t-21.5 101
q0 104 66.5 184t183.5 122q-236 76 -236 258q0 107 75.5 184.5t204.5 115.5t296 38q159 0 308 -55t249 -136l-101 -112q-198 160 -456 163q-80 1 -149 -8t-130 -29.5t-96 -59t-35 -91.5q0 -29 12.5 -53t32.5 -41t53.5 -31t68 -23t83.5 -16t92 -11.5t102 -8.5
q132 -11 233.5 -33t182.5 -59.5t123.5 -97t42.5 -138.5q0 -99 -58 -180t-169 -127zM326 598q0 -50 33.5 -86.5t98.5 -58t138 -33.5t174 -19q86 -6 162 -18q120 26 194 88.5t74 138.5q0 41 -20 73t-56 54t-93 38.5t-124 27t-157 18.5l-74 6q-149 -13 -249.5 -73t-100.5 -156z
" />
    <glyph glyph-name="dieresis" unicode="&#xa8;" horiz-adv-x="1179" 
d="M324 1624q-46 0 -77.5 29.5t-31.5 68.5q0 41 31.5 71t77.5 30q45 0 75.5 -30t30.5 -71q0 -39 -30.5 -68.5t-75.5 -29.5zM856 1624q-46 0 -77 29.5t-31 68.5q0 41 31 71t77 30q45 0 76 -30t31 -71q0 -39 -31 -68.5t-76 -29.5z" />
    <glyph glyph-name="copyright" unicode="&#xa9;" horiz-adv-x="2002" 
d="M1001 -43q-404 0 -637 206.5t-233 553.5t233 553.5t637 206.5t637.5 -206.5t233.5 -553.5t-233.5 -553.5t-637.5 -206.5zM1001 29q241 0 419 79.5t276 235.5t98 373t-98 373t-276 235.5t-419 79.5t-419 -79.5t-276.5 -235.5t-98.5 -373t98.5 -373t276.5 -235.5t419 -79.5
zM1538 459q-82 -120 -219 -192t-320 -72q-268 0 -428.5 140.5t-160.5 383.5t160.5 383.5t428.5 140.5q181 0 317 -71t214 -189l-127 -61q-67 102 -161.5 148t-233.5 46q-209 0 -333 -102t-124 -295t124 -295t333 -102q140 0 236 48t165 152z" />
    <glyph glyph-name="ordfeminine" unicode="&#xaa;" horiz-adv-x="1169" 
d="M563 1475q197 0 306.5 -94.5t109.5 -274.5v-279q0 -85 43 -147h-129q-37 47 -37 119v4q-36 -71 -129 -111.5t-213 -40.5q-69 0 -134.5 14.5t-125.5 44t-96.5 83.5t-36.5 125t36.5 125t96.5 83.5t125.5 43.5t134.5 14q120 0 213 -40.5t129 -111.5v74q0 136 -77 201
t-236 65q-171 0 -299 -82l-51 88q71 44 169.5 70.5t200.5 26.5zM856 901v35q-36 81 -126.5 120.5t-201.5 39.5q-46 0 -89.5 -7t-90.5 -24.5t-75.5 -55t-28.5 -91.5q0 -43 20 -76.5t49.5 -52t70 -30t74.5 -15t70 -3.5q110 0 201 40t127 120z" />
    <glyph glyph-name="guillemotleft" unicode="&#xab;" horiz-adv-x="1300" 
d="M528 1051l-432 -439l432 -438h189l-434 438l434 439h-189zM985 1051l-432 -439l432 -438h189l-435 438l435 439h-189z" />
    <glyph glyph-name="logicalnot" unicode="&#xac;" horiz-adv-x="1515" 
d="M176 680h1167v-553h-157v408h-1010v145z" />
    <glyph glyph-name="registered" unicode="&#xae;" horiz-adv-x="1185" 
d="M592 1454q202 0 332.5 -116t130.5 -306t-130.5 -306t-332.5 -116t-331.5 116t-129.5 306t129.5 306t331.5 116zM592 657q183 0 296 101.5t113 273.5t-113 273.5t-296 101.5q-185 0 -297.5 -101.5t-112.5 -273.5t112.5 -273.5t297.5 -101.5zM840 1118q0 -55 -36 -91.5
t-99 -45.5l145 -162h-90l-142 160h-165v-160h-76v436h287q80 0 128 -36.5t48 -100.5zM451 1036h192q117 0 117 80t-117 80h-192v-160z" />
    <glyph glyph-name="macron" unicode="&#xaf;" horiz-adv-x="1163" 
d="M186 1790h791v-141h-791v141z" />
    <glyph glyph-name="degree" unicode="&#xb0;" horiz-adv-x="882" 
d="M442 889q-140 0 -228.5 80t-88.5 205q0 124 88.5 204t228.5 80t228 -80t88 -204q0 -125 -88 -205t-228 -80zM440 999q92 0 143.5 47.5t51.5 127.5q0 79 -51.5 126.5t-143.5 47.5q-91 0 -141.5 -47.5t-50.5 -126.5t50.5 -127t141.5 -48z" />
    <glyph glyph-name="plusminus" unicode="&#xb1;" horiz-adv-x="1515" 
d="M831 850h504v-135h-504v-436h-147v436h-502v135h502v436h147v-436zM182 43v135h1153v-135h-1153z" />
    <glyph glyph-name="uni00B2" unicode="&#xb2;" horiz-adv-x="960" 
d="M90 1620q66 93 171 148t235 55q94 0 176 -28t136 -85.5t54 -134.5q0 -99 -79.5 -164.5t-235.5 -124.5q-154 -61 -236.5 -111.5t-101.5 -113.5h672v-103h-811v70q38 207 407 346q144 57 185 81q82 50 83 118q0 69 -76.5 109t-179.5 40t-176.5 -37.5t-134.5 -117.5z" />
    <glyph glyph-name="uni00B3" unicode="&#xb3;" horiz-adv-x="991" 
d="M168 1188q99 -154 326 -154q122 0 205 45t83 125q0 40 -23 70t-65 47.5t-95.5 26t-119.5 8.5h-106v94h106q120 0 197.5 31t77.5 100q0 48 -40.5 80.5t-99.5 46.5t-129 14q-200 0 -295 -135l-92 55q47 82 157 131.5t243 49.5q98 0 181.5 -25t138 -78t54.5 -123
q0 -80 -62 -133t-146 -59q43 -6 83 -20.5t77 -39t59 -64t22 -89.5q0 -118 -115 -188t-292 -70q-144 0 -259 57t-171 152z" />
    <glyph glyph-name="acute" unicode="&#xb4;" horiz-adv-x="1191" 
d="M911 1905l-452 -308h-160l338 308h274z" />
    <glyph glyph-name="paragraph" unicode="&#xb6;" horiz-adv-x="1865" 
d="M641 1434h987v-1434h-151v1292h-308v-1292h-151v532h-377q-254 0 -403.5 118.5t-149.5 332.5q0 211 150 331t403 120zM1018 674v618h-375q-192 0 -298.5 -79.5t-106.5 -229.5t106.5 -229.5t298.5 -79.5h375z" />
    <glyph glyph-name="periodcentered" unicode="&#xb7;" horiz-adv-x="524" 
d="M262 471q-54 0 -88.5 31.5t-34.5 81.5t34.5 82t88.5 32t88.5 -32t34.5 -82t-34.5 -81.5t-88.5 -31.5z" />
    <glyph glyph-name="cedilla" unicode="&#xb8;" horiz-adv-x="1187" 
d="M668 -106l-244 -324l-141 37l211 319z" />
    <glyph glyph-name="uni00B9" unicode="&#xb9;" horiz-adv-x="559" 
d="M297 956v693q-92 -78 -246 -101v103q72 10 144.5 49t130.5 94h88v-838h-117z" />
    <glyph glyph-name="ordmasculine" unicode="&#xba;" horiz-adv-x="1183" 
d="M592 651q-217 0 -342 111t-125 301t125 301t342 111q218 0 342.5 -111t124.5 -301t-124.5 -301t-342.5 -111zM592 760q164 0 255 78t91 225t-91 225t-255 78q-162 0 -254 -78t-92 -225t92 -225t254 -78z" />
    <glyph glyph-name="guillemotright" unicode="&#xbb;" horiz-adv-x="1300" 
d="M315 1051h-188l434 -439l-434 -438h188l433 438zM772 1051h-188l434 -439l-434 -438h188l432 438z" />
    <glyph glyph-name="onequarter" unicode="&#xbc;" horiz-adv-x="1984" 
d="M297 596v692q-91 -76 -246 -100v102q72 10 144 49t131 95h88v-838h-117zM475 0h-133l895 1434h133zM1929 305v-98h-170v-207h-112v207h-631v74l641 557h102v-533h170zM1178 305h469v393z" />
    <glyph glyph-name="onehalf" unicode="&#xbd;" horiz-adv-x="2021" 
d="M297 596v692q-91 -76 -246 -100v102q72 10 144 49t131 95h88v-838h-117zM459 0h-133l895 1434h133zM1151 662q66 93 170.5 147.5t234.5 54.5q94 0 176 -28t136.5 -85.5t54.5 -134.5q0 -99 -79.5 -164t-235.5 -124q-101 -40 -163.5 -70t-112 -71t-62.5 -85h672v-102h-812
v70q38 206 408 346q144 57 183 79q84 51 85 119q0 47 -38 82t-95 51.5t-123 16.5q-103 0 -176.5 -37.5t-134.5 -118.5z" />
    <glyph glyph-name="threequarters" unicode="&#xbe;" horiz-adv-x="2367" 
d="M168 825q98 -153 326 -153q122 0 205 45t83 125q0 53 -41.5 88t-107 49t-154.5 14h-106v94h106q56 0 103 7t87 21.5t62.5 41t22.5 62.5q0 48 -40.5 80.5t-99.5 46.5t-129 14q-200 0 -295 -135l-92 55q47 82 156.5 131t243.5 49q98 0 181.5 -25t138 -77.5t54.5 -122.5
q0 -80 -62 -133.5t-146 -59.5q43 -6 83 -20.5t77 -39t59 -64t22 -89.5q0 -118 -115 -188t-292 -70q-144 0 -259 57t-171 152zM858 0h-133l895 1434h133zM2312 305v-98h-170v-207h-112v207h-631v74l641 557h102v-533h170zM1561 305h469v393z" />
    <glyph glyph-name="questiondown" unicode="&#xbf;" horiz-adv-x="1513" 
d="M766 1137q54 0 88.5 -31.5t34.5 -81.5t-34.5 -82.5t-88.5 -32.5t-88.5 32.5t-34.5 82.5t34.5 81.5t88.5 31.5zM846 705v-379q-129 -8 -228.5 -25.5t-178.5 -49t-121 -82t-42 -118.5q0 -87 67 -147t166 -85.5t220 -25.5q383 0 574 277l133 -84q-109 -160 -292.5 -252
t-420.5 -92q-94 0 -184 16.5t-169.5 50t-139.5 81.5t-95 115t-35 146q0 89 44.5 161.5t125 121t187.5 78t237 39.5v254h152z" />
    <glyph glyph-name="Agrave" unicode="&#xc0;" horiz-adv-x="1835" 
d="M1098 1597h-160l-453 308h275zM1608 0l-209 385h-967l-209 -385h-190l788 1434h193l788 -1434h-194zM516 541h799l-400 735z" />
    <glyph glyph-name="Aacute" unicode="&#xc1;" horiz-adv-x="1835" 
d="M1352 1905l-453 -308h-160l338 308h275zM1608 0l-209 385h-967l-209 -385h-190l788 1434h193l788 -1434h-194zM516 541h799l-400 735z" />
    <glyph glyph-name="Acircumflex" unicode="&#xc2;" horiz-adv-x="1835" 
d="M915 1808l-217 -211h-194l319 308h187l319 -308h-194zM1608 0l-209 385h-967l-209 -385h-190l788 1434h193l788 -1434h-194zM516 541h799l-400 735z" />
    <glyph glyph-name="Atilde" unicode="&#xc3;" horiz-adv-x="1835" 
d="M705 1757q-73 0 -116.5 -28.5t-76.5 -77.5l-100 65q37 71 112 122.5t189 51.5q60 0 118.5 -18t98 -40t94 -40t106.5 -18q51 0 91 17.5t59.5 37t42.5 51.5l100 -65q-37 -71 -112.5 -123t-188.5 -52q-61 0 -120 18.5t-98.5 40t-93 40t-105.5 18.5zM1608 0l-209 385h-967
l-209 -385h-190l788 1434h193l788 -1434h-194zM516 541h799l-400 735z" />
    <glyph glyph-name="Adieresis" unicode="&#xc4;" horiz-adv-x="1835" 
d="M651 1624q-46 0 -77 29.5t-31 68.5q0 41 31 71t77 30q45 0 76 -30t31 -71q0 -39 -31 -68.5t-76 -29.5zM1184 1624q-46 0 -77.5 29.5t-31.5 68.5q0 41 31.5 71t77.5 30q45 0 75.5 -30t30.5 -71q0 -39 -30.5 -68.5t-75.5 -29.5zM1608 0l-209 385h-967l-209 -385h-190
l788 1434h193l788 -1434h-194zM516 541h799l-400 735z" />
    <glyph glyph-name="Aring" unicode="&#xc5;" horiz-adv-x="1835" 
d="M918 1583q-114 0 -189.5 57t-75.5 162q0 104 76 161.5t189 57.5t188.5 -57.5t75.5 -161.5q0 -105 -75 -162t-189 -57zM920 1927q-66 0 -105 -32.5t-39 -92.5t39 -92.5t105 -32.5q65 0 104 32.5t39 92.5t-39 92.5t-104 32.5zM1608 0l-209 385h-967l-209 -385h-190
l788 1434h193l788 -1434h-194zM516 541h799l-400 735z" />
    <glyph glyph-name="AE" unicode="&#xc6;" horiz-adv-x="2838" 
d="M1507 160h1215v-160h-1387v365h-819l-319 -365h-209l1261 1434h117h1335v-160h-1194v-465h1012v-160h-1012v-489zM653 520h682v778z" />
    <glyph glyph-name="Ccedilla" unicode="&#xc7;" horiz-adv-x="1816" 
d="M997 117q410 0 568 274l164 -82q-104 -166 -292 -259t-444 -93q-400 0 -631 205t-231 555t232 555t636 205q251 0 438.5 -94t291.5 -259l-164 -82q-83 139 -229 207t-339 68q-319 0 -504.5 -155t-185.5 -445t185.5 -445t504.5 -155zM1051 -106l-244 -324l-141 37l211 319
z" />
    <glyph glyph-name="Egrave" unicode="&#xc8;" horiz-adv-x="1740" 
d="M479 1905h275l338 -308h-160zM410 160h1214v-160h-1386v1434h1366v-160h-1194v-465h1011v-160h-1011v-489z" />
    <glyph glyph-name="Eacute" unicode="&#xc9;" horiz-adv-x="1740" 
d="M1346 1905l-453 -308h-160l338 308h275zM410 160h1214v-160h-1386v1434h1366v-160h-1194v-465h1011v-160h-1011v-489z" />
    <glyph glyph-name="Ecircumflex" unicode="&#xca;" horiz-adv-x="1740" 
d="M498 1597h194l217 211l219 -211h195l-319 308h-187zM410 160h1214v-160h-1386v1434h1366v-160h-1194v-465h1011v-160h-1011v-489z" />
    <glyph glyph-name="Edieresis" unicode="&#xcb;" horiz-adv-x="1740" 
d="M645 1624q-46 0 -77 29.5t-31 68.5q0 41 31 71t77 30q45 0 76 -30t31 -71q0 -39 -31 -68.5t-76 -29.5zM1178 1624q-46 0 -77.5 29.5t-31.5 68.5q0 41 31.5 71t77.5 30q45 0 75.5 -30t30.5 -71q0 -39 -30.5 -68.5t-75.5 -29.5zM410 160h1214v-160h-1386v1434h1366v-160
h-1194v-465h1011v-160h-1011v-489z" />
    <glyph glyph-name="Igrave" unicode="&#xcc;" horiz-adv-x="647" 
d="M-109 1905h275l338 -308h-160zM410 0h-172v1434h172v-1434z" />
    <glyph glyph-name="Iacute" unicode="&#xcd;" horiz-adv-x="647" 
d="M758 1905l-453 -308h-160l338 308h275zM410 0h-172v1434h172v-1434z" />
    <glyph glyph-name="Icircumflex" unicode="&#xce;" horiz-adv-x="647" 
d="M-90 1597h194l218 211l219 -211h194l-319 308h-187zM410 0h-172v1434h172v-1434z" />
    <glyph glyph-name="Idieresis" unicode="&#xcf;" horiz-adv-x="647" 
d="M57 1624q-46 0 -77 29.5t-31 68.5q0 41 31 71t77 30q45 0 76 -30t31 -71q0 -39 -31 -68.5t-76 -29.5zM590 1624q-46 0 -77.5 29.5t-31.5 68.5q0 41 31.5 71t77.5 30q45 0 75.5 -30t30.5 -71q0 -39 -30.5 -68.5t-75.5 -29.5zM410 0h-172v1434h172v-1434z" />
    <glyph glyph-name="Eth" unicode="&#xd0;" horiz-adv-x="1949" 
d="M958 1434q394 0 627.5 -194t233.5 -523t-233.5 -523t-627.5 -194h-696v659h-215v144h215v631h696zM946 160q208 0 362 60t244 187t90 310t-90 310t-244 187t-362 60h-512v-471h467v-144h-467v-499h512z" />
    <glyph glyph-name="Ntilde" unicode="&#xd1;" horiz-adv-x="1998" 
d="M1407 1880l100 -65q-37 -71 -112.5 -123t-188.5 -52q-61 0 -120 18.5t-98.5 40t-93.5 40t-106 18.5q-73 0 -116 -28.5t-76 -77.5l-100 65q37 71 112 122.5t189 51.5q60 0 118.5 -18t98 -40t94 -40t106.5 -18q51 0 91 17.5t59.5 37t42.5 51.5zM1593 1434h168v-1434h-151
l-1204 1214v-1214h-168v1434h186l1169 -1182v1182z" />
    <glyph glyph-name="Ograve" unicode="&#xd2;" horiz-adv-x="2007" 
d="M571 1905h275l338 -308h-160zM1004 -43q-407 0 -640 204t-233 556t233 556t640 204t639.5 -204t232.5 -556t-232.5 -556t-639.5 -204zM1004 117q321 0 508.5 157.5t187.5 442.5t-187.5 442.5t-508.5 157.5t-509 -157.5t-188 -442.5t188 -442.5t509 -157.5z" />
    <glyph glyph-name="Oacute" unicode="&#xd3;" horiz-adv-x="2007" 
d="M1438 1905l-453 -308h-160l338 308h275zM1004 -43q-407 0 -640 204t-233 556t233 556t640 204t639.5 -204t232.5 -556t-232.5 -556t-639.5 -204zM1004 117q321 0 508.5 157.5t187.5 442.5t-187.5 442.5t-508.5 157.5t-509 -157.5t-188 -442.5t188 -442.5t509 -157.5z" />
    <glyph glyph-name="Ocircumflex" unicode="&#xd4;" horiz-adv-x="2007" 
d="M590 1597h194l217 211l220 -211h194l-319 308h-187zM1004 -43q-407 0 -640 204t-233 556t233 556t640 204t639.5 -204t232.5 -556t-232.5 -556t-639.5 -204zM1004 117q321 0 508.5 157.5t187.5 442.5t-187.5 442.5t-508.5 157.5t-509 -157.5t-188 -442.5t188 -442.5
t509 -157.5z" />
    <glyph glyph-name="Otilde" unicode="&#xd5;" horiz-adv-x="2007" 
d="M1409 1880l100 -65q-37 -71 -112.5 -123t-188.5 -52q-61 0 -120 18.5t-98.5 40t-93 40t-105.5 18.5q-73 0 -116.5 -28.5t-76.5 -77.5l-100 65q37 71 112 122.5t189 51.5q60 0 119 -18t98.5 -40t94 -40t106.5 -18q73 0 114.5 28t77.5 78zM1004 -43q-407 0 -640 204
t-233 556t233 556t640 204t639.5 -204t232.5 -556t-232.5 -556t-639.5 -204zM1004 117q321 0 508.5 157.5t187.5 442.5t-187.5 442.5t-508.5 157.5t-509 -157.5t-188 -442.5t188 -442.5t509 -157.5z" />
    <glyph glyph-name="Odieresis" unicode="&#xd6;" horiz-adv-x="2007" 
d="M737 1624q-46 0 -77 29.5t-31 68.5q0 41 31 71t77 30q45 0 76 -30t31 -71q0 -39 -31 -68.5t-76 -29.5zM1270 1624q-46 0 -77.5 29.5t-31.5 68.5q0 41 31.5 71t77.5 30q45 0 75.5 -30t30.5 -71q0 -39 -30.5 -68.5t-75.5 -29.5zM1004 -43q-407 0 -640 204t-233 556t233 556
t640 204t639.5 -204t232.5 -556t-232.5 -556t-639.5 -204zM1004 117q321 0 508.5 157.5t187.5 442.5t-187.5 442.5t-508.5 157.5t-509 -157.5t-188 -442.5t188 -442.5t509 -157.5z" />
    <glyph glyph-name="multiply" unicode="&#xd7;" horiz-adv-x="1521" 
d="M1257 1001l-389 -385l389 -387l-108 -110l-389 389l-389 -385l-105 106l387 385l-387 387l109 109l387 -387l387 387z" />
    <glyph glyph-name="Oslash" unicode="&#xd8;" horiz-adv-x="2007" 
d="M1565 1333q151 -99 231 -256t80 -360q0 -352 -232.5 -556t-639.5 -204q-241 0 -429 76l-167 -221h-187l221 290q-151 97 -231 254.5t-80 360.5q0 352 233 556t640 204q238 0 426 -76l167 221h187zM307 717q0 -322 238 -479l782 1028q-145 51 -323 51q-321 0 -509 -157.5
t-188 -442.5zM1004 117q321 0 508.5 157.5t187.5 442.5q0 320 -240 481l-780 -1028q142 -53 324 -53z" />
    <glyph glyph-name="Ugrave" unicode="&#xd9;" horiz-adv-x="1931" 
d="M535 1905h274l338 -308h-160zM1550 1434h172v-758q0 -158 -49 -289t-142.5 -227t-237.5 -149.5t-326 -53.5t-326.5 53.5t-238.5 149.5t-143.5 227.5t-49.5 288.5v758h172v-748q0 -266 153.5 -417.5t432.5 -151.5q278 0 430.5 151.5t152.5 417.5v748z" />
    <glyph glyph-name="Uacute" unicode="&#xda;" horiz-adv-x="1931" 
d="M1401 1905l-453 -308h-160l338 308h275zM1550 1434h172v-758q0 -158 -49 -289t-142.5 -227t-237.5 -149.5t-326 -53.5t-326.5 53.5t-238.5 149.5t-143.5 227.5t-49.5 288.5v758h172v-748q0 -266 153.5 -417.5t432.5 -151.5q278 0 430.5 151.5t152.5 417.5v748z" />
    <glyph glyph-name="Ucircumflex" unicode="&#xdb;" horiz-adv-x="1931" 
d="M553 1597h195l217 211l219 -211h194l-319 308h-187zM1550 1434h172v-758q0 -158 -49 -289t-142.5 -227t-237.5 -149.5t-326 -53.5t-326.5 53.5t-238.5 149.5t-143.5 227.5t-49.5 288.5v758h172v-748q0 -266 153.5 -417.5t432.5 -151.5q278 0 430.5 151.5t152.5 417.5v748
z" />
    <glyph glyph-name="Udieresis" unicode="&#xdc;" horiz-adv-x="1931" 
d="M700 1624q-46 0 -77 29.5t-31 68.5q0 41 31 71t77 30q45 0 76 -30t31 -71q0 -39 -31 -68.5t-76 -29.5zM1233 1624q-46 0 -77.5 29.5t-31.5 68.5q0 41 31.5 71t77.5 30q45 0 75.5 -30t30.5 -71q0 -39 -30.5 -68.5t-75.5 -29.5zM1550 1434h172v-758q0 -158 -49 -289
t-142.5 -227t-237.5 -149.5t-326 -53.5t-326.5 53.5t-238.5 149.5t-143.5 227.5t-49.5 288.5v758h172v-748q0 -266 153.5 -417.5t432.5 -151.5q278 0 430.5 151.5t152.5 417.5v748z" />
    <glyph glyph-name="Yacute" unicode="&#xdd;" horiz-adv-x="1685" 
d="M1280 1905l-453 -308h-159l338 308h274zM37 1434h207l602 -777l598 777h205l-719 -932v-502h-172v502z" />
    <glyph glyph-name="Thorn" unicode="&#xde;" horiz-adv-x="1832" 
d="M1198 1186q248 0 397.5 -122t149.5 -333q0 -214 -149.5 -334.5t-397.5 -120.5h-788v-276h-172v1434h172v-248h788zM1186 428q180 0 281.5 76t101.5 227t-101.5 227t-281.5 76h-776v-606h776z" />
    <glyph glyph-name="germandbls" unicode="&#xdf;" horiz-adv-x="1589" 
d="M637 166q121 -41 264 -41q193 0 297.5 77.5t104.5 225.5q0 149 -105 225t-303 76h-156v139h86q191 0 295.5 69.5t104.5 201.5q0 72 -31 125.5t-87 84.5t-125.5 45.5t-154.5 14.5q-224 0 -340 -111.5t-116 -314.5v-983h-168v963q0 128 40 235.5t116.5 187.5t196 125
t271.5 45q159 0 287 -47t203.5 -138.5t75.5 -213.5q0 -135 -90 -230t-246 -118q85 -7 159.5 -35.5t133 -77.5t92 -123t33.5 -165q0 -192 -145 -310t-390 -118q-193 0 -352 57z" />
    <glyph glyph-name="agrave" unicode="&#xe0;" horiz-adv-x="1527" 
d="M328 1587h274l338 -307h-160zM735 1157q285 0 444.5 -138.5t159.5 -400.5v-401q0 -126 54 -217h-179q-47 78 -47 178v4q-71 -98 -202 -160.5t-303 -62.5q-77 0 -153 12t-152.5 41.5t-134.5 73.5t-94 113t-36 155q0 85 36 154t94 113t134.5 74t152.5 42.5t153 12.5
q172 0 303 -62.5t202 -161.5v92q0 201 -114 297.5t-346 96.5q-237 0 -439 -129l-78 123q100 67 248 109t297 42zM1171 334v41q-35 63 -91 110t-123 73.5t-137 39t-144 12.5q-54 0 -107 -6.5t-110.5 -24t-101 -45t-71.5 -74t-28 -106.5t28 -106.5t71.5 -74t101 -45t110.5 -24
t107 -6.5q100 0 191 22t174.5 77t129.5 137z" />
    <glyph glyph-name="aacute" unicode="&#xe1;" horiz-adv-x="1527" 
d="M1194 1587l-453 -307h-159l338 307h274zM735 1157q285 0 444.5 -138.5t159.5 -400.5v-401q0 -126 54 -217h-179q-47 78 -47 178v4q-71 -98 -202 -160.5t-303 -62.5q-77 0 -153 12t-152.5 41.5t-134.5 73.5t-94 113t-36 155q0 85 36 154t94 113t134.5 74t152.5 42.5
t153 12.5q172 0 303 -62.5t202 -161.5v92q0 201 -114 297.5t-346 96.5q-237 0 -439 -129l-78 123q100 67 248 109t297 42zM1171 334v41q-35 63 -91 110t-123 73.5t-137 39t-144 12.5q-54 0 -107 -6.5t-110.5 -24t-101 -45t-71.5 -74t-28 -106.5t28 -106.5t71.5 -74t101 -45
t110.5 -24t107 -6.5q100 0 191 22t174.5 77t129.5 137z" />
    <glyph glyph-name="acircumflex" unicode="&#xe2;" horiz-adv-x="1527" 
d="M346 1280h195l217 211l219 -211h194l-319 307h-186zM735 1157q285 0 444.5 -138.5t159.5 -400.5v-401q0 -126 54 -217h-179q-47 78 -47 178v4q-71 -98 -202 -160.5t-303 -62.5q-77 0 -153 12t-152.5 41.5t-134.5 73.5t-94 113t-36 155q0 85 36 154t94 113t134.5 74
t152.5 42.5t153 12.5q172 0 303 -62.5t202 -161.5v92q0 201 -114 297.5t-346 96.5q-237 0 -439 -129l-78 123q100 67 248 109t297 42zM1171 334v41q-35 63 -91 110t-123 73.5t-137 39t-144 12.5q-54 0 -107 -6.5t-110.5 -24t-101 -45t-71.5 -74t-28 -106.5t28 -106.5
t71.5 -74t101 -45t110.5 -24t107 -6.5q100 0 191 22t174.5 77t129.5 137z" />
    <glyph glyph-name="atilde" unicode="&#xe3;" horiz-adv-x="1527" 
d="M1165 1563l101 -66q-37 -71 -112.5 -122.5t-188.5 -51.5q-61 0 -120 18.5t-98.5 40t-93.5 40t-106 18.5q-73 0 -116 -29t-77 -78l-100 66q37 71 112 122.5t189 51.5q60 0 119 -18.5t98.5 -40t94 -40t106.5 -18.5q39 0 70 8.5t54 26.5t37 33t31 39zM735 1157
q285 0 444.5 -138.5t159.5 -400.5v-401q0 -126 54 -217h-179q-47 78 -47 178v4q-71 -98 -202 -160.5t-303 -62.5q-77 0 -153 12t-152.5 41.5t-134.5 73.5t-94 113t-36 155q0 85 36 154t94 113t134.5 74t152.5 42.5t153 12.5q172 0 303 -62.5t202 -161.5v92q0 201 -114 297.5
t-346 96.5q-237 0 -439 -129l-78 123q100 67 248 109t297 42zM1171 334v41q-35 63 -91 110t-123 73.5t-137 39t-144 12.5q-54 0 -107 -6.5t-110.5 -24t-101 -45t-71.5 -74t-28 -106.5t28 -106.5t71.5 -74t101 -45t110.5 -24t107 -6.5q100 0 191 22t174.5 77t129.5 137z" />
    <glyph glyph-name="adieresis" unicode="&#xe4;" horiz-adv-x="1527" 
d="M494 1307q-46 0 -77.5 29.5t-31.5 68.5q0 41 31.5 70.5t77.5 29.5q45 0 75.5 -29.5t30.5 -70.5q0 -39 -30.5 -68.5t-75.5 -29.5zM1026 1307q-46 0 -77 29.5t-31 68.5q0 41 31 70.5t77 29.5q45 0 76 -30t31 -70q0 -39 -31 -68.5t-76 -29.5zM735 1157q285 0 444.5 -138.5
t159.5 -400.5v-401q0 -126 54 -217h-179q-47 78 -47 178v4q-71 -98 -202 -160.5t-303 -62.5q-77 0 -153 12t-152.5 41.5t-134.5 73.5t-94 113t-36 155q0 85 36 154t94 113t134.5 74t152.5 42.5t153 12.5q172 0 303 -62.5t202 -161.5v92q0 201 -114 297.5t-346 96.5
q-237 0 -439 -129l-78 123q100 67 248 109t297 42zM1171 334v41q-35 63 -91 110t-123 73.5t-137 39t-144 12.5q-54 0 -107 -6.5t-110.5 -24t-101 -45t-71.5 -74t-28 -106.5t28 -106.5t71.5 -74t101 -45t110.5 -24t107 -6.5q100 0 191 22t174.5 77t129.5 137z" />
    <glyph glyph-name="aring" unicode="&#xe5;" horiz-adv-x="1527" 
d="M760 1266q-114 0 -189 57t-75 162q0 104 75.5 161.5t188.5 57.5t188.5 -57.5t75.5 -161.5q0 -105 -75 -162t-189 -57zM618 1485q0 -60 39 -92.5t105 -32.5q65 0 104 32.5t39 92.5t-39 92.5t-104 32.5q-66 0 -105 -32.5t-39 -92.5zM735 1157q285 0 444.5 -138.5
t159.5 -400.5v-401q0 -126 54 -217h-179q-47 78 -47 178v4q-71 -98 -202 -160.5t-303 -62.5q-77 0 -153 12t-152.5 41.5t-134.5 73.5t-94 113t-36 155q0 85 36 154t94 113t134.5 74t152.5 42.5t153 12.5q172 0 303 -62.5t202 -161.5v92q0 201 -114 297.5t-346 96.5
q-237 0 -439 -129l-78 123q100 67 248 109t297 42zM1171 334v41q-35 63 -91 110t-123 73.5t-137 39t-144 12.5q-54 0 -107 -6.5t-110.5 -24t-101 -45t-71.5 -74t-28 -106.5t28 -106.5t71.5 -74t101 -45t110.5 -24t107 -6.5q100 0 191 22t174.5 77t129.5 137z" />
    <glyph glyph-name="ae" unicode="&#xe6;" horiz-adv-x="2580" 
d="M1339 522v-112q74 -310 502 -310q162 0 273.5 41t212.5 133l108 -114q-115 -104 -260.5 -153.5t-341.5 -49.5q-212 0 -364 71.5t-232 204.5q-50 -89 -145 -152.5t-204.5 -92.5t-225.5 -29q-77 0 -153 12t-152.5 41.5t-134.5 73.5t-94 113t-36 155q0 85 36 154t94 113
t134.5 74t152.5 42.5t153 12.5q174 0 304.5 -64.5t200.5 -169.5v102q0 202 -114.5 300t-345.5 98q-238 0 -443 -131l-67 131q102 64 245.5 102.5t292.5 38.5q186 0 321 -59.5t206 -175.5q84 115 227 176t334 61q302 0 476.5 -157.5t174.5 -442.5q0 -21 -4 -37h-1131z
M1825 1018q-421 0 -490 -326q2 -10 2 -26h965q-32 181 -150.5 266.5t-326.5 85.5zM1171 334v41q-46 83 -129.5 138t-174.5 77t-191 22q-69 0 -135.5 -11.5t-133.5 -38.5t-108 -80.5t-41 -127.5t41 -127.5t108 -80.5t133.5 -38.5t135.5 -11.5q99 0 190.5 22.5t175 78
t129.5 137.5z" />
    <glyph glyph-name="ccedilla" unicode="&#xe7;" horiz-adv-x="1466" 
d="M1382 240q-176 -283 -587 -283q-316 0 -496 162t-180 438q0 277 180 439.5t496 162.5q395 0 581 -268l-164 -82q-58 102 -171 151.5t-244 49.5q-230 0 -369 -116.5t-139 -336.5q0 -147 66 -250t179 -152t263 -49q134 0 249 51t171 156zM848 -106l-244 -324l-141 37
l211 319z" />
    <glyph glyph-name="egrave" unicode="&#xe8;" horiz-adv-x="1546" 
d="M969 1280h-160l-453 307h275zM289 522q12 -207 150.5 -314.5t367.5 -107.5q162 0 273 41.5t210 134.5l111 -116q-115 -104 -260.5 -153.5t-341.5 -49.5q-321 0 -500.5 161t-179.5 439q0 279 177.5 440.5t491.5 161.5q302 0 477 -157.5t175 -442.5q0 -21 -4 -37h-1147z
M791 1016q-199 0 -331 -90.5t-163 -263.5h973q-24 121 -93 201.5t-166 116.5t-220 36z" />
    <glyph glyph-name="eacute" unicode="&#xe9;" horiz-adv-x="1546" 
d="M1223 1587l-453 -307h-160l338 307h275zM289 522q12 -207 150.5 -314.5t367.5 -107.5q162 0 273 41.5t210 134.5l111 -116q-115 -104 -260.5 -153.5t-341.5 -49.5q-321 0 -500.5 161t-179.5 439q0 279 177.5 440.5t491.5 161.5q302 0 477 -157.5t175 -442.5q0 -21 -4 -37
h-1147zM791 1016q-199 0 -331 -90.5t-163 -263.5h973q-24 121 -93 201.5t-166 116.5t-220 36z" />
    <glyph glyph-name="ecircumflex" unicode="&#xea;" horiz-adv-x="1546" 
d="M786 1491l-217 -211h-194l319 307h187l319 -307h-194zM289 522q12 -207 150.5 -314.5t367.5 -107.5q162 0 273 41.5t210 134.5l111 -116q-115 -104 -260.5 -153.5t-341.5 -49.5q-321 0 -500.5 161t-179.5 439q0 279 177.5 440.5t491.5 161.5q302 0 477 -157.5t175 -442.5
q0 -21 -4 -37h-1147zM791 1016q-199 0 -331 -90.5t-163 -263.5h973q-24 121 -93 201.5t-166 116.5t-220 36z" />
    <glyph glyph-name="edieresis" unicode="&#xeb;" horiz-adv-x="1546" 
d="M522 1307q-46 0 -77 29.5t-31 68.5q0 41 31 70.5t77 29.5q45 0 76 -30t31 -70q0 -39 -31 -68.5t-76 -29.5zM1055 1307q-46 0 -77.5 29.5t-31.5 68.5q0 41 31.5 70.5t77.5 29.5q45 0 75.5 -29.5t30.5 -70.5q0 -39 -30.5 -68.5t-75.5 -29.5zM289 522q12 -207 150.5 -314.5
t367.5 -107.5q162 0 273 41.5t210 134.5l111 -116q-115 -104 -260.5 -153.5t-341.5 -49.5q-321 0 -500.5 161t-179.5 439q0 279 177.5 440.5t491.5 161.5q302 0 477 -157.5t175 -442.5q0 -21 -4 -37h-1147zM791 1016q-199 0 -331 -90.5t-163 -263.5h973q-24 121 -93 201.5
t-166 116.5t-220 36z" />
    <glyph glyph-name="igrave" unicode="&#xec;" horiz-adv-x="585" 
d="M-139 1587h274l338 -307h-160zM377 1116v-1116h-168v1116h168z" />
    <glyph glyph-name="iacute" unicode="&#xed;" horiz-adv-x="585" 
d="M727 1587l-453 -307h-159l338 307h274zM377 1116v-1116h-168v1116h168z" />
    <glyph glyph-name="icircumflex" unicode="&#xee;" horiz-adv-x="585" 
d="M-121 1280h195l217 211l219 -211h195l-320 307h-186zM377 1116v-1116h-168v1116h168z" />
    <glyph glyph-name="idieresis" unicode="&#xef;" horiz-adv-x="585" 
d="M27 1307q-46 0 -77.5 29.5t-31.5 68.5q0 41 31.5 70.5t77.5 29.5q45 0 75.5 -29.5t30.5 -70.5q0 -39 -30.5 -68.5t-75.5 -29.5zM559 1307q-46 0 -77 29.5t-31 68.5q0 41 31 70.5t77 29.5q45 0 76 -30t31 -70q0 -39 -31 -68.5t-76 -29.5zM377 1116v-1116h-168v1116h168z
" />
    <glyph glyph-name="eth" unicode="&#xf0;" horiz-adv-x="1595" 
d="M1069 1341q408 -239 408 -735q0 -649 -678 -649q-317 0 -498.5 159.5t-181.5 432.5q0 177 83 310.5t223 202t316 68.5q86 0 165 -14t156.5 -44.5t139.5 -88.5t98 -137q-75 280 -417 426l-340 -127l-51 112l208 78q-124 36 -266 56l27 145q274 -45 457 -121l296 111
l52 -113zM797 106q112 0 204.5 27.5t161.5 81.5t107.5 139t38.5 195q0 109 -38.5 193.5t-107.5 138t-161.5 81t-204.5 27.5q-229 0 -369.5 -112.5t-140.5 -327.5q0 -216 140.5 -329.5t369.5 -113.5z" />
    <glyph glyph-name="ntilde" unicode="&#xf1;" horiz-adv-x="1613" 
d="M1212 1563l101 -66q-37 -71 -112.5 -122.5t-188.5 -51.5q-61 0 -120 18.5t-98.5 40t-93.5 40t-106 18.5q-73 0 -116 -29t-77 -78l-100 66q37 71 112 122.5t189 51.5q60 0 119 -18.5t98.5 -40t94 -40t106.5 -18.5q39 0 70 8.5t54 26.5t37 33t31 39zM371 0h-168v1116h168
v-231q79 128 217 200t315 72q168 0 285 -68.5t172 -185t55 -272.5v-631h-168v618q0 191 -95 290.5t-282 99.5q-166 0 -295 -77.5t-204 -230.5v-700z" />
    <glyph glyph-name="ograve" unicode="&#xf2;" horiz-adv-x="1593" 
d="M365 1587h274l338 -307h-160zM797 -43q-318 0 -498 161t-180 439t180 440t498 162t498 -162t180 -440t-180 -439t-498 -161zM797 106q227 0 367.5 116.5t140.5 334.5q0 147 -67 251t-180 153t-261 49t-261 -49t-180 -153t-67 -251q0 -218 140.5 -334.5t367.5 -116.5z" />
    <glyph glyph-name="oacute" unicode="&#xf3;" horiz-adv-x="1593" 
d="M1231 1587l-453 -307h-160l338 307h275zM797 -43q-318 0 -498 161t-180 439t180 440t498 162t498 -162t180 -440t-180 -439t-498 -161zM797 106q227 0 367.5 116.5t140.5 334.5q0 147 -67 251t-180 153t-261 49t-261 -49t-180 -153t-67 -251q0 -218 140.5 -334.5
t367.5 -116.5z" />
    <glyph glyph-name="ocircumflex" unicode="&#xf4;" horiz-adv-x="1593" 
d="M383 1280h195l217 211l219 -211h194l-319 307h-187zM797 -43q-318 0 -498 161t-180 439t180 440t498 162t498 -162t180 -440t-180 -439t-498 -161zM797 106q227 0 367.5 116.5t140.5 334.5q0 147 -67 251t-180 153t-261 49t-261 -49t-180 -153t-67 -251
q0 -218 140.5 -334.5t367.5 -116.5z" />
    <glyph glyph-name="otilde" unicode="&#xf5;" horiz-adv-x="1593" 
d="M1202 1563l101 -66q-37 -71 -113 -122.5t-189 -51.5q-61 0 -120 18.5t-98.5 40t-93 40t-105.5 18.5q-73 0 -116 -29t-77 -78l-100 66q37 71 112 122.5t189 51.5q60 0 119 -18.5t98.5 -40t94 -40t106.5 -18.5q39 0 70 8.5t54 26.5t37 33t31 39zM797 -43q-318 0 -498 161
t-180 439t180 440t498 162t498 -162t180 -440t-180 -439t-498 -161zM797 106q227 0 367.5 116.5t140.5 334.5q0 147 -67 251t-180 153t-261 49t-261 -49t-180 -153t-67 -251q0 -218 140.5 -334.5t367.5 -116.5z" />
    <glyph glyph-name="odieresis" unicode="&#xf6;" horiz-adv-x="1593" 
d="M530 1307q-46 0 -77 29.5t-31 68.5q0 41 31 70.5t77 29.5q45 0 76 -30t31 -70q0 -39 -31 -68.5t-76 -29.5zM1063 1307q-46 0 -77.5 29.5t-31.5 68.5q0 41 31.5 70.5t77.5 29.5q45 0 75.5 -29.5t30.5 -70.5q0 -39 -30.5 -68.5t-75.5 -29.5zM797 -43q-318 0 -498 161
t-180 439t180 440t498 162t498 -162t180 -440t-180 -439t-498 -161zM797 106q227 0 367.5 116.5t140.5 334.5q0 147 -67 251t-180 153t-261 49t-261 -49t-180 -153t-67 -251q0 -218 140.5 -334.5t367.5 -116.5z" />
    <glyph glyph-name="divide" unicode="&#xf7;" horiz-adv-x="1515" 
d="M758 879q-50 0 -82.5 32.5t-32.5 73.5q0 40 32.5 73.5t82.5 33.5t82 -33.5t32 -73.5q0 -41 -32 -73.5t-82 -32.5zM1335 530h-1153v164h1153v-164zM758 133q-50 0 -82.5 33.5t-32.5 73.5q0 41 32.5 73.5t82.5 32.5t82 -32.5t32 -73.5q0 -40 -32 -73.5t-82 -33.5z" />
    <glyph glyph-name="oslash" unicode="&#xf8;" horiz-adv-x="1593" 
d="M1202 1063q132 -75 202.5 -205t70.5 -301q0 -278 -180 -439t-498 -161q-152 0 -277 39l-119 -184h-157l151 237q-134 75 -205 205t-71 303q0 278 180 440t498 162q154 0 282 -41l119 187h158zM289 557q0 -254 192 -373l512 799q-88 27 -196 27q-148 0 -261 -49t-180 -153
t-67 -251zM797 106q227 0 367.5 116.5t140.5 334.5q0 253 -189 373l-510 -799q89 -25 191 -25z" />
    <glyph glyph-name="ugrave" unicode="&#xf9;" horiz-adv-x="1613" 
d="M354 1587h275l338 -307h-160zM1243 1116h168v-1116h-168v231q-79 -128 -217 -200t-315 -72q-168 0 -285 68.5t-172 185t-55 272.5v631h168v-618q0 -191 94.5 -290t281.5 -99q166 0 295.5 77.5t204.5 229.5v700z" />
    <glyph glyph-name="uacute" unicode="&#xfa;" horiz-adv-x="1613" 
d="M1221 1587l-453 -307h-160l338 307h275zM1243 1116h168v-1116h-168v231q-79 -128 -217 -200t-315 -72q-168 0 -285 68.5t-172 185t-55 272.5v631h168v-618q0 -191 94.5 -290t281.5 -99q166 0 295.5 77.5t204.5 229.5v700z" />
    <glyph glyph-name="ucircumflex" unicode="&#xfb;" horiz-adv-x="1613" 
d="M373 1280h194l217 211l220 -211h194l-319 307h-187zM1243 1116h168v-1116h-168v231q-79 -128 -217 -200t-315 -72q-168 0 -285 68.5t-172 185t-55 272.5v631h168v-618q0 -191 94.5 -290t281.5 -99q166 0 295.5 77.5t204.5 229.5v700z" />
    <glyph glyph-name="udieresis" unicode="&#xfc;" horiz-adv-x="1613" 
d="M520 1307q-46 0 -77 29.5t-31 68.5q0 41 31 70.5t77 29.5q45 0 76 -30t31 -70q0 -39 -31 -68.5t-76 -29.5zM1053 1307q-46 0 -77.5 29.5t-31.5 68.5q0 41 31.5 70.5t77.5 29.5q45 0 75.5 -29.5t30.5 -70.5q0 -39 -30.5 -68.5t-75.5 -29.5zM1243 1116h168v-1116h-168v231
q-79 -128 -217 -200t-315 -72q-168 0 -285 68.5t-172 185t-55 272.5v631h168v-618q0 -191 94.5 -290t281.5 -99q166 0 295.5 77.5t204.5 229.5v700z" />
    <glyph glyph-name="yacute" unicode="&#xfd;" horiz-adv-x="1447" 
d="M1159 1587l-452 -307h-160l338 307h274zM1219 1116h184l-871 -1526h-182l289 488l-594 1038h188l496 -868z" />
    <glyph glyph-name="thorn" unicode="&#xfe;" horiz-adv-x="1634" 
d="M909 1157q278 0 442.5 -164t164.5 -436q0 -271 -164.5 -434.5t-442.5 -163.5q-181 0 -320.5 68t-217.5 188v-625h-168v1926h168v-615q78 120 217.5 188t320.5 68zM866 109q230 0 355 116.5t125 331.5q0 217 -125 334t-355 117q-337 0 -495 -273v-354q157 -272 495 -272z
" />
    <glyph glyph-name="ydieresis" unicode="&#xff;" horiz-adv-x="1447" 
d="M459 1307q-46 0 -77.5 29.5t-31.5 68.5q0 41 31.5 70.5t77.5 29.5q45 0 75.5 -29.5t30.5 -70.5q0 -39 -30.5 -68.5t-75.5 -29.5zM991 1307q-46 0 -77 29.5t-31 68.5q0 41 31 70.5t77 29.5q45 0 76 -30t31 -70q0 -39 -31 -68.5t-76 -29.5zM1219 1116h184l-871 -1526h-182
l289 488l-594 1038h188l496 -868z" />
    <glyph glyph-name="Amacron" unicode="&#x100;" horiz-adv-x="1835" 
d="M1313 1790v-141h-791v141h791zM1608 0l-209 385h-967l-209 -385h-190l788 1434h193l788 -1434h-194zM516 541h799l-400 735z" />
    <glyph glyph-name="amacron" unicode="&#x101;" horiz-adv-x="1527" 
d="M365 1473h790v-142h-790v142zM735 1157q285 0 444.5 -138.5t159.5 -400.5v-401q0 -126 54 -217h-179q-47 78 -47 178v4q-71 -98 -202 -160.5t-303 -62.5q-77 0 -153 12t-152.5 41.5t-134.5 73.5t-94 113t-36 155q0 85 36 154t94 113t134.5 74t152.5 42.5t153 12.5
q172 0 303 -62.5t202 -161.5v92q0 201 -114 297.5t-346 96.5q-237 0 -439 -129l-78 123q100 67 248 109t297 42zM1171 334v41q-35 63 -91 110t-123 73.5t-137 39t-144 12.5q-54 0 -107 -6.5t-110.5 -24t-101 -45t-71.5 -74t-28 -106.5t28 -106.5t71.5 -74t101 -45t110.5 -24
t107 -6.5q100 0 191 22t174.5 77t129.5 137z" />
    <glyph glyph-name="Abreve" unicode="&#x102;" horiz-adv-x="1835" 
d="M920 1587q-77 0 -140 22t-101.5 56.5t-64.5 78t-36.5 84t-10.5 77.5h142q3 -75 59.5 -131t151.5 -56q94 0 150 56t58 131h144q0 -37 -10.5 -77.5t-36.5 -84t-64.5 -78t-101 -56.5t-139.5 -22zM1608 0l-209 385h-967l-209 -385h-190l788 1434h193l788 -1434h-194zM516 541
h799l-400 735z" />
    <glyph glyph-name="abreve" unicode="&#x103;" horiz-adv-x="1527" 
d="M1114 1587q0 -37 -10.5 -77t-36.5 -84t-64.5 -78t-101 -56t-139.5 -22t-139.5 22t-101 56t-64.5 78t-36.5 84t-10.5 77h141q3 -75 59.5 -130.5t151.5 -55.5q94 0 150.5 56t58.5 130h143zM735 1157q285 0 444.5 -138.5t159.5 -400.5v-401q0 -126 54 -217h-179
q-47 78 -47 178v4q-71 -98 -202 -160.5t-303 -62.5q-77 0 -153 12t-152.5 41.5t-134.5 73.5t-94 113t-36 155q0 85 36 154t94 113t134.5 74t152.5 42.5t153 12.5q172 0 303 -62.5t202 -161.5v92q0 201 -114 297.5t-346 96.5q-237 0 -439 -129l-78 123q100 67 248 109t297 42
zM1171 334v41q-35 63 -91 110t-123 73.5t-137 39t-144 12.5q-54 0 -107 -6.5t-110.5 -24t-101 -45t-71.5 -74t-28 -106.5t28 -106.5t71.5 -74t101 -45t110.5 -24t107 -6.5q100 0 191 22t174.5 77t129.5 137z" />
    <glyph glyph-name="Aogonek" unicode="&#x104;" horiz-adv-x="1835" 
d="M1870 -365l41 -57q-94 -80 -228 -80q-70 0 -129.5 20.5t-100 69.5t-40.5 119q0 98 65 176t173 117h-43l-209 385h-967l-209 -385h-190l788 1434h193l788 -1434h-2q-104 -37 -175 -112.5t-71 -163.5q0 -69 45 -103.5t113 -34.5q83 0 158 49zM516 541h799l-400 735z" />
    <glyph glyph-name="aogonek" unicode="&#x105;" horiz-adv-x="1527" 
d="M1460 -365l41 -57q-94 -80 -227 -80q-70 0 -129.5 20.5t-100 69.5t-40.5 119q0 98 64.5 176t172.5 117h-27q-47 78 -47 178v4q-71 -98 -202 -160.5t-303 -62.5q-77 0 -153 12t-152.5 41.5t-134.5 73.5t-94 113t-36 155q0 85 36 154t94 113t134.5 74t152.5 42.5t153 12.5
q172 0 303 -62.5t202 -161.5v92q0 201 -114 297.5t-346 96.5q-237 0 -439 -129l-78 123q100 67 248 109t297 42q285 0 444.5 -138.5t159.5 -400.5v-401q0 -126 54 -217h-2q-104 -37 -175 -112.5t-71 -163.5q0 -69 45 -103.5t113 -34.5q82 0 157 49zM1171 334v41
q-35 63 -91 110t-123 73.5t-137 39t-144 12.5q-54 0 -107 -6.5t-110.5 -24t-101 -45t-71.5 -74t-28 -106.5t28 -106.5t71.5 -74t101 -45t110.5 -24t107 -6.5q100 0 191 22t174.5 77t129.5 137z" />
    <glyph glyph-name="Cacute" unicode="&#x106;" horiz-adv-x="1816" 
d="M1417 1907l-452 -308h-160l338 308h274zM997 117q410 0 568 274l164 -82q-104 -166 -292 -259t-444 -93q-400 0 -631 205t-231 555t232 555t636 205q251 0 438.5 -94t291.5 -259l-164 -82q-83 139 -229 207t-339 68q-319 0 -504.5 -155t-185.5 -445t185.5 -445
t504.5 -155z" />
    <glyph glyph-name="cacute" unicode="&#x107;" horiz-adv-x="1466" 
d="M1221 1587l-453 -307h-160l338 307h275zM1382 240q-176 -283 -587 -283q-316 0 -496 162t-180 438q0 277 180 439.5t496 162.5q395 0 581 -268l-164 -82q-58 102 -171 151.5t-244 49.5q-230 0 -369 -116.5t-139 -336.5q0 -147 66 -250t179 -152t263 -49q134 0 249 51
t171 156z" />
    <glyph glyph-name="Ccircumflex" unicode="&#x108;" horiz-adv-x="1816" 
d="M569 1599h195l217 211l219 -211h195l-320 308h-186zM997 117q410 0 568 274l164 -82q-104 -166 -292 -259t-444 -93q-400 0 -631 205t-231 555t232 555t636 205q251 0 438.5 -94t291.5 -259l-164 -82q-83 139 -229 207t-339 68q-319 0 -504.5 -155t-185.5 -445
t185.5 -445t504.5 -155z" />
    <glyph glyph-name="ccircumflex" unicode="&#x109;" horiz-adv-x="1466" 
d="M373 1280h194l217 211l220 -211h194l-319 307h-187zM1382 240q-176 -283 -587 -283q-316 0 -496 162t-180 438q0 277 180 439.5t496 162.5q395 0 581 -268l-164 -82q-58 102 -171 151.5t-244 49.5q-230 0 -369 -116.5t-139 -336.5q0 -147 66 -250t179 -152t263 -49
q134 0 249 51t171 156z" />
    <glyph glyph-name="Cdotaccent" unicode="&#x10a;" horiz-adv-x="1816" 
d="M983 1626q-44 0 -71 24t-27 62q0 40 27 64t71 24q43 0 69.5 -24t26.5 -64q0 -38 -26.5 -62t-69.5 -24zM997 117q410 0 568 274l164 -82q-104 -166 -292 -259t-444 -93q-400 0 -631 205t-231 555t232 555t636 205q251 0 438.5 -94t291.5 -259l-164 -82q-83 139 -229 207
t-339 68q-319 0 -504.5 -155t-185.5 -445t185.5 -445t504.5 -155z" />
    <glyph glyph-name="cdotaccent" unicode="&#x10b;" horiz-adv-x="1466" 
d="M786 1307q-44 0 -71 24t-27 62q0 40 27 64t71 24q43 0 70 -24t27 -64q0 -38 -27 -62t-70 -24zM1382 240q-176 -283 -587 -283q-316 0 -496 162t-180 438q0 277 180 439.5t496 162.5q395 0 581 -268l-164 -82q-58 102 -171 151.5t-244 49.5q-230 0 -369 -116.5
t-139 -336.5q0 -147 66 -250t179 -152t263 -49q134 0 249 51t171 156z" />
    <glyph glyph-name="Ccaron" unicode="&#x10c;" horiz-adv-x="1816" 
d="M569 1907l320 -308h186l320 308h-195l-219 -211l-217 211h-195zM997 117q410 0 568 274l164 -82q-104 -166 -292 -259t-444 -93q-400 0 -631 205t-231 555t232 555t636 205q251 0 438.5 -94t291.5 -259l-164 -82q-83 139 -229 207t-339 68q-319 0 -504.5 -155
t-185.5 -445t185.5 -445t504.5 -155z" />
    <glyph glyph-name="ccaron" unicode="&#x10d;" horiz-adv-x="1466" 
d="M373 1587l319 -307h187l319 307h-194l-220 -211l-217 211h-194zM1382 240q-176 -283 -587 -283q-316 0 -496 162t-180 438q0 277 180 439.5t496 162.5q395 0 581 -268l-164 -82q-58 102 -171 151.5t-244 49.5q-230 0 -369 -116.5t-139 -336.5q0 -147 66 -250t179 -152
t263 -49q134 0 249 51t171 156z" />
    <glyph glyph-name="Dcaron" unicode="&#x10e;" horiz-adv-x="1925" 
d="M530 1905l320 -308h186l320 308h-195l-219 -211l-217 211h-195zM934 1434q394 0 627 -194t233 -523t-233 -523t-627 -194h-696v1434h696zM922 160q154 0 281 36t220 104.5t144 175t51 241.5t-51 241.5t-144 175t-220 104.5t-281 36h-512v-1114h512z" />
    <glyph glyph-name="dcaron" unicode="&#x10f;" horiz-adv-x="1757" 
d="M725 1157q181 0 321 -68t218 -188v615h168v-1516h-168v215q-78 -120 -218 -188t-321 -68q-278 0 -442 163.5t-164 434.5q0 272 164 436t442 164zM1663 1454q54 0 85.5 -35t31.5 -86q0 -180 -158 -329l-41 47q50 66 75 113.5t32 95.5q-9 -9 -31 -9q-44 0 -74.5 29
t-30.5 72q0 45 31 73.5t80 28.5zM768 109q339 0 496 272v354q-158 273 -496 273q-230 0 -354.5 -117t-124.5 -334q0 -215 124.5 -331.5t354.5 -116.5z" />
    <glyph glyph-name="Dcroat" unicode="&#x110;" horiz-adv-x="1949" 
d="M958 1434q394 0 627.5 -194t233.5 -523t-233.5 -523t-627.5 -194h-696v659h-215v144h215v631h696zM946 160q208 0 362 60t244 187t90 310t-90 310t-244 187t-362 60h-512v-471h467v-144h-467v-499h512z" />
    <glyph glyph-name="dcroat" unicode="&#x111;" horiz-adv-x="1632" 
d="M1626 1333v-116h-194v-1217h-168v215q-78 -120 -218 -188t-321 -68q-278 0 -442 163.5t-164 434.5q0 272 164 436t442 164q181 0 321 -68t218 -188v316h-408v116h408v183h168v-183h194zM1264 381v354q-158 273 -496 273q-230 0 -354.5 -117t-124.5 -334
q0 -215 124.5 -331.5t354.5 -116.5q339 0 496 272z" />
    <glyph glyph-name="Emacron" unicode="&#x112;" horiz-adv-x="1740" 
d="M516 1790h791v-141h-791v141zM410 160h1214v-160h-1386v1434h1366v-160h-1194v-465h1011v-160h-1011v-489z" />
    <glyph glyph-name="emacron" unicode="&#x113;" horiz-adv-x="1546" 
d="M1184 1473v-142h-791v142h791zM289 522q12 -207 150.5 -314.5t367.5 -107.5q162 0 273 41.5t210 134.5l111 -116q-115 -104 -260.5 -153.5t-341.5 -49.5q-321 0 -500.5 161t-179.5 439q0 279 177.5 440.5t491.5 161.5q302 0 477 -157.5t175 -442.5q0 -21 -4 -37h-1147z
M791 1016q-199 0 -331 -90.5t-163 -263.5h973q-24 121 -93 201.5t-166 116.5t-220 36z" />
    <glyph glyph-name="Ebreve" unicode="&#x114;" horiz-adv-x="1740" 
d="M1266 1905q0 -37 -10.5 -77.5t-37 -84t-65 -78t-101 -56.5t-139.5 -22t-139.5 22t-101 56.5t-64.5 78t-36.5 84t-10.5 77.5h141q3 -75 59.5 -131t151.5 -56q94 0 150.5 56.5t58.5 130.5h144zM410 160h1214v-160h-1386v1434h1366v-160h-1194v-465h1011v-160h-1011v-489z
" />
    <glyph glyph-name="ebreve" unicode="&#x115;" horiz-adv-x="1546" 
d="M791 1270q-77 0 -140 22t-101.5 56t-64.5 78t-36.5 84t-10.5 77h142q3 -75 59.5 -130.5t151.5 -55.5q94 0 150 56t58 130h144q0 -37 -10.5 -77t-36.5 -84t-64.5 -78t-101 -56t-139.5 -22zM289 522q12 -207 150.5 -314.5t367.5 -107.5q162 0 273 41.5t210 134.5l111 -116
q-115 -104 -260.5 -153.5t-341.5 -49.5q-321 0 -500.5 161t-179.5 439q0 279 177.5 440.5t491.5 161.5q302 0 477 -157.5t175 -442.5q0 -21 -4 -37h-1147zM791 1016q-199 0 -331 -90.5t-163 -263.5h973q-24 121 -93 201.5t-166 116.5t-220 36z" />
    <glyph glyph-name="Edotaccent" unicode="&#x116;" horiz-adv-x="1740" 
d="M911 1624q-44 0 -71 24t-27 62q0 40 27 64t71 24q43 0 70 -24t27 -64q0 -38 -27 -62t-70 -24zM410 160h1214v-160h-1386v1434h1366v-160h-1194v-465h1011v-160h-1011v-489z" />
    <glyph glyph-name="edotaccent" unicode="&#x117;" horiz-adv-x="1546" 
d="M788 1307q-44 0 -71 24t-27 62q0 40 27 64t71 24q43 0 70 -24t27 -64q0 -38 -27 -62t-70 -24zM289 522q12 -207 150.5 -314.5t367.5 -107.5q162 0 273 41.5t210 134.5l111 -116q-115 -104 -260.5 -153.5t-341.5 -49.5q-321 0 -500.5 161t-179.5 439q0 279 177.5 440.5
t491.5 161.5q302 0 477 -157.5t175 -442.5q0 -21 -4 -37h-1147zM791 1016q-199 0 -331 -90.5t-163 -263.5h973q-24 121 -93 201.5t-166 116.5t-220 36z" />
    <glyph glyph-name="Eogonek" unicode="&#x118;" horiz-adv-x="1740" 
d="M1692 -365l41 -57q-94 -80 -228 -80q-70 0 -129.5 20.5t-100 69.5t-40.5 119q0 98 65 176t173 117h-1235v1434h1366v-160h-1194v-465h1011v-160h-1011v-489h1214v-160h-2q-104 -37 -175 -112.5t-71 -163.5q0 -69 45 -103.5t113 -34.5q83 0 158 49z" />
    <glyph glyph-name="eogonek" unicode="&#x119;" horiz-adv-x="1546" 
d="M289 522q12 -207 150.5 -314.5t367.5 -107.5q162 0 273 41.5t210 134.5l111 -116q-114 -106 -279 -160h4q-104 -37 -174.5 -112.5t-70.5 -163.5q0 -69 44.5 -103.5t112.5 -34.5q83 0 158 49l41 -57q-94 -80 -227 -80q-70 0 -129.5 20.5t-100.5 69.5t-41 119
q0 77 41 142.5t113 109.5q-31 -2 -94 -2q-321 0 -500.5 161t-179.5 439q0 279 177.5 440.5t491.5 161.5q302 0 477 -157.5t175 -442.5q0 -21 -4 -37h-1147zM791 1016q-199 0 -331 -90.5t-163 -263.5h973q-24 121 -93 201.5t-166 116.5t-220 36z" />
    <glyph glyph-name="Ecaron" unicode="&#x11a;" horiz-adv-x="1740" 
d="M498 1905l319 -308h187l319 308h-195l-219 -211l-217 211h-194zM410 160h1214v-160h-1386v1434h1366v-160h-1194v-465h1011v-160h-1011v-489z" />
    <glyph glyph-name="ecaron" unicode="&#x11b;" horiz-adv-x="1546" 
d="M881 1280h-187l-319 307h194l217 -211l220 211h194zM289 522q12 -207 150.5 -314.5t367.5 -107.5q162 0 273 41.5t210 134.5l111 -116q-115 -104 -260.5 -153.5t-341.5 -49.5q-321 0 -500.5 161t-179.5 439q0 279 177.5 440.5t491.5 161.5q302 0 477 -157.5t175 -442.5
q0 -21 -4 -37h-1147zM791 1016q-199 0 -331 -90.5t-163 -263.5h973q-24 121 -93 201.5t-166 116.5t-220 36z" />
    <glyph glyph-name="Gcircumflex" unicode="&#x11c;" horiz-adv-x="1941" 
d="M594 1599h194l218 211l219 -211h194l-319 308h-187zM1817 745v-397q-93 -174 -304 -282.5t-499 -108.5q-414 0 -648.5 204t-234.5 556t233.5 556t643.5 204q248 0 430.5 -81.5t298.5 -217.5l-150 -105q-194 244 -579 244q-328 0 -514.5 -154t-186.5 -446
q0 -293 189 -446.5t524 -153.5q223 0 385.5 69t239.5 213v187h-652v159h824z" />
    <glyph glyph-name="gcircumflex" unicode="&#x11d;" horiz-adv-x="1634" 
d="M408 1282h194l217 211l219 -211h195l-320 307h-186zM1432 1116v-993q0 -117 -34.5 -213t-95 -162.5t-144.5 -111.5t-181 -66t-207 -21q-148 0 -297 42t-240 108l80 129q195 -129 441 -129q249 0 379.5 101t130.5 302v113q-76 -117 -223 -186.5t-316 -69.5
q-278 0 -442 163.5t-164 434.5q0 272 164 436t442 164q181 0 321 -68t218 -188v215h168zM768 109q339 0 496 272v354q-158 273 -496 273q-230 0 -354.5 -117t-124.5 -334q0 -215 124.5 -331.5t354.5 -116.5z" />
    <glyph glyph-name="Gbreve" unicode="&#x11e;" horiz-adv-x="1941" 
d="M1362 1907q0 -37 -10.5 -77.5t-36.5 -84t-64.5 -78t-101 -56.5t-139.5 -22t-140 22t-101.5 56.5t-64.5 78t-36.5 84t-10.5 77.5h142q3 -75 59.5 -131t151.5 -56q94 0 150.5 56.5t58.5 130.5h143zM1817 745v-397q-93 -174 -304 -282.5t-499 -108.5q-414 0 -648.5 204
t-234.5 556t233.5 556t643.5 204q248 0 430.5 -81.5t298.5 -217.5l-150 -105q-194 244 -579 244q-328 0 -514.5 -154t-186.5 -446q0 -293 189 -446.5t524 -153.5q223 0 385.5 69t239.5 213v187h-652v159h824z" />
    <glyph glyph-name="gbreve" unicode="&#x11f;" horiz-adv-x="1634" 
d="M1176 1589q0 -37 -10.5 -77.5t-37 -84t-65 -77.5t-101 -56t-139.5 -22t-139.5 22t-101 56t-64.5 78t-36.5 84t-10.5 77h141q3 -75 59.5 -130.5t151.5 -55.5q94 0 150.5 56t58.5 130h144zM1432 1116v-993q0 -117 -34.5 -213t-95 -162.5t-144.5 -111.5t-181 -66t-207 -21
q-148 0 -297 42t-240 108l80 129q195 -129 441 -129q249 0 379.5 101t130.5 302v113q-76 -117 -223 -186.5t-316 -69.5q-278 0 -442 163.5t-164 434.5q0 272 164 436t442 164q181 0 321 -68t218 -188v215h168zM768 109q339 0 496 272v354q-158 273 -496 273
q-230 0 -354.5 -117t-124.5 -334q0 -215 124.5 -331.5t354.5 -116.5z" />
    <glyph glyph-name="Gdotaccent" unicode="&#x120;" horiz-adv-x="1941" 
d="M1008 1626q-44 0 -71.5 24t-27.5 62q0 40 27.5 64t71.5 24q43 0 69.5 -24t26.5 -64q0 -38 -26.5 -62t-69.5 -24zM1817 745v-397q-93 -174 -304 -282.5t-499 -108.5q-414 0 -648.5 204t-234.5 556t233.5 556t643.5 204q248 0 430.5 -81.5t298.5 -217.5l-150 -105
q-194 244 -579 244q-328 0 -514.5 -154t-186.5 -446q0 -293 189 -446.5t524 -153.5q223 0 385.5 69t239.5 213v187h-652v159h824z" />
    <glyph glyph-name="gdotaccent" unicode="&#x121;" horiz-adv-x="1634" 
d="M821 1309q-44 0 -71 24t-27 62q0 40 27 64t71 24q43 0 70 -24t27 -64q0 -38 -27 -62t-70 -24zM1432 1116v-993q0 -117 -34.5 -213t-95 -162.5t-144.5 -111.5t-181 -66t-207 -21q-148 0 -297 42t-240 108l80 129q195 -129 441 -129q249 0 379.5 101t130.5 302v113
q-76 -117 -223 -186.5t-316 -69.5q-278 0 -442 163.5t-164 434.5q0 272 164 436t442 164q181 0 321 -68t218 -188v215h168zM768 109q339 0 496 272v354q-158 273 -496 273q-230 0 -354.5 -117t-124.5 -334q0 -215 124.5 -331.5t354.5 -116.5z" />
    <glyph glyph-name="Gcommaaccent" unicode="&#x122;" horiz-adv-x="1941" 
d="M1817 745v-397q-93 -174 -304 -282.5t-499 -108.5q-414 0 -648.5 204t-234.5 556t233.5 556t643.5 204q248 0 430.5 -81.5t298.5 -217.5l-150 -105q-194 244 -579 244q-328 0 -514.5 -154t-186.5 -446q0 -293 189 -446.5t524 -153.5q223 0 385.5 69t239.5 213v187h-652
v159h824zM1010 -119q56 0 91.5 -36t35.5 -95q0 -85 -45.5 -187.5t-122.5 -174.5l-56 47q61 70 88 120.5t35 106.5q-8 -8 -32 -8q-48 0 -81.5 32.5t-33.5 82.5q0 48 34.5 80t86.5 32z" />
    <glyph glyph-name="gcommaaccent" unicode="&#x123;" horiz-adv-x="1634" 
d="M813 1321q-56 0 -91.5 36t-35.5 95q0 85 45.5 188t122.5 175l55 -48q-61 -70 -88 -120.5t-35 -106.5q8 8 33 8q48 0 81.5 -32t33.5 -82q0 -48 -34.5 -80.5t-86.5 -32.5zM1432 1116v-993q0 -117 -34.5 -213t-95 -162.5t-144.5 -111.5t-181 -66t-207 -21q-148 0 -297 42
t-240 108l80 129q195 -129 441 -129q249 0 379.5 101t130.5 302v113q-76 -117 -223 -186.5t-316 -69.5q-278 0 -442 163.5t-164 434.5q0 272 164 436t442 164q181 0 321 -68t218 -188v215h168zM768 109q339 0 496 272v354q-158 273 -496 273q-230 0 -354.5 -117t-124.5 -334
q0 -215 124.5 -331.5t354.5 -116.5z" />
    <glyph glyph-name="Hcircumflex" unicode="&#x124;" horiz-adv-x="1998" 
d="M586 1599h194l217 211l220 -211h194l-319 308h-187zM1589 1434h172v-1434h-172v645h-1179v-645h-172v1434h172v-625h1179v625z" />
    <glyph glyph-name="hcircumflex" unicode="&#x125;" horiz-adv-x="1613" 
d="M504 1679l-219 211l-217 -211h-195l320 308h186l319 -308h-194zM903 1157q168 0 285 -68.5t172 -185t55 -272.5v-631h-168v618q0 191 -95 290.5t-282 99.5q-166 0 -295 -77.5t-204 -230.5v-700h-168v1516h168v-631q79 128 217 200t315 72z" />
    <glyph glyph-name="Hbar" unicode="&#x126;" horiz-adv-x="2050" 
d="M2009 1163v-127h-221v-1036h-172v645h-1180v-645h-172v1036h-223v127h223v271h172v-271h1180v271h172v-271h221zM1616 809v227h-1180v-227h1180z" />
    <glyph glyph-name="hbar" unicode="&#x127;" horiz-adv-x="1613" 
d="M903 1157q168 0 285 -68.5t172 -185t55 -272.5v-631h-168v618q0 191 -95 290.5t-282 99.5q-166 0 -295 -77.5t-204 -230.5v-700h-168v1217h-193v116h193v183h168v-183h409v-116h-409v-332q79 128 217 200t315 72z" />
    <glyph glyph-name="Itilde" unicode="&#x128;" horiz-adv-x="647" 
d="M729 1880l100 -65q-37 -71 -112.5 -123t-188.5 -52q-61 0 -120 18.5t-98.5 40t-93 40t-105.5 18.5q-73 0 -116.5 -28.5t-76.5 -77.5l-100 65q37 71 112 122.5t189 51.5q60 0 119 -18t98.5 -40t94 -40t106.5 -18q73 0 114.5 28t77.5 78zM410 0h-172v1434h172v-1434z" />
    <glyph glyph-name="itilde" unicode="&#x129;" horiz-adv-x="585" 
d="M698 1563l101 -66q-37 -71 -112.5 -122.5t-188.5 -51.5q-61 0 -120 18.5t-98.5 40t-93.5 40t-106 18.5q-73 0 -116 -29t-77 -78l-100 66q37 71 112 122.5t189 51.5q60 0 119 -18.5t98.5 -40t94 -40t106.5 -18.5q39 0 70 8.5t54 26.5t37 33t31 39zM377 1116v-1116h-168
v1116h168z" />
    <glyph glyph-name="Imacron" unicode="&#x12a;" horiz-adv-x="647" 
d="M-72 1790h791v-141h-791v141zM410 0h-172v1434h172v-1434z" />
    <glyph glyph-name="imacron" unicode="&#x12b;" horiz-adv-x="585" 
d="M-102 1473h790v-142h-790v142zM377 1116v-1116h-168v1116h168z" />
    <glyph glyph-name="Ibreve" unicode="&#x12c;" horiz-adv-x="647" 
d="M678 1905q0 -37 -10.5 -77.5t-36.5 -84t-64.5 -78t-101 -56.5t-139.5 -22t-140 22t-101.5 56.5t-64.5 78t-36.5 84t-10.5 77.5h142q3 -75 59.5 -131t151.5 -56q94 0 150.5 56.5t58.5 130.5h143zM410 0h-172v1434h172v-1434z" />
    <glyph glyph-name="ibreve" unicode="&#x12d;" horiz-adv-x="585" 
d="M647 1587q0 -37 -10.5 -77t-36.5 -84t-64.5 -78t-101 -56t-139.5 -22t-139.5 22t-101 56t-64.5 78t-36.5 84t-10.5 77h141q3 -75 59.5 -130.5t151.5 -55.5q94 0 150.5 56t58.5 130h143zM377 1116v-1116h-168v1116h168z" />
    <glyph glyph-name="Iogonek" unicode="&#x12e;" horiz-adv-x="647" 
d="M477 -365l41 -57q-94 -80 -227 -80q-70 0 -129.5 20.5t-100.5 69.5t-41 119q0 98 65 176t173 117h-20v1434h172v-1434h-2q-104 -37 -175 -112.5t-71 -163.5q0 -69 44.5 -103.5t112.5 -34.5q83 0 158 49z" />
    <glyph glyph-name="iogonek" unicode="&#x12f;" horiz-adv-x="585" 
d="M293 1288q-50 0 -84.5 32t-34.5 77q0 46 34 77t85 31t85 -31t34 -77q0 -45 -34.5 -77t-84.5 -32zM444 -365l41 -57q-94 -80 -227 -80q-70 0 -129.5 20.5t-100 69.5t-40.5 119q0 98 64.5 176t172.5 117h-16v1116h168v-1116h-2q-104 -37 -175 -112.5t-71 -163.5
q0 -69 45 -103.5t113 -34.5q82 0 157 49z" />
    <glyph glyph-name="Idotaccent" unicode="&#x130;" horiz-adv-x="647" 
d="M324 1624q-44 0 -71.5 24t-27.5 62q0 40 27.5 64t71.5 24q43 0 69.5 -24t26.5 -64q0 -38 -26.5 -62t-69.5 -24zM410 0h-172v1434h172v-1434z" />
    <glyph glyph-name="dotlessi" unicode="&#x131;" horiz-adv-x="585" 
d="M377 1116v-1116h-168v1116h168z" />
    <glyph glyph-name="IJ" unicode="&#x132;" horiz-adv-x="2062" 
d="M410 0h-172v1434h172v-1434zM827 295q62 -92 154.5 -135t241.5 -43q235 0 346.5 129t111.5 358v830h172v-840q0 -107 -22.5 -201t-71.5 -174.5t-122 -138t-178.5 -90.5t-235.5 -33q-376 0 -541 242z" />
    <glyph glyph-name="ij" unicode="&#x133;" horiz-adv-x="1171" 
d="M293 1288q-50 0 -84.5 32t-34.5 77q0 46 34 77t85 31t85 -31t34 -77q0 -45 -34.5 -77t-84.5 -32zM879 1288q-51 0 -85 31t-34 76q0 46 34 76t85 30t84.5 -30t33.5 -76q0 -45 -34 -76t-84 -31zM377 1116v-1116h-168v1116h168zM795 1116h168v-1241q0 -152 -87 -239
t-231 -87q-112 0 -196 41l51 138q48 -25 110 -25q88 0 136.5 54.5t48.5 148.5v1210z" />
    <glyph glyph-name="Jcircumflex" unicode="&#x134;" horiz-adv-x="1415" 
d="M707 1597h194l217 211l219 -211h195l-320 308h-186zM180 295q62 -92 154 -135t241 -43q235 0 347 129t112 358v830h172v-840q0 -107 -22.5 -201t-72 -174.5t-122 -138t-178.5 -90.5t-236 -33q-375 0 -540 242z" />
    <glyph glyph-name="jcircumflex" unicode="&#x135;" horiz-adv-x="864" 
d="M-135 1280h194l217 211l220 -211h194l-319 307h-187zM207 1116h166v-1241q0 -151 -85.5 -238.5t-224.5 -87.5q-120 0 -204 41l30 103q64 -29 142 -29q81 0 128.5 55t47.5 148v1249z" />
    <glyph glyph-name="Kcommaaccent" unicode="&#x136;" horiz-adv-x="1804" 
d="M1026 870l760 -870h-219l-680 770l-477 -373v-397h-172v1434h172v-840l1085 840h246zM963 -119q56 0 91.5 -36t35.5 -95q0 -85 -45.5 -187.5t-122.5 -174.5l-56 47q61 70 88 120.5t35 106.5q-8 -8 -33 -8q-48 0 -81 32.5t-33 82.5q0 48 34.5 80t86.5 32z" />
    <glyph glyph-name="kcommaaccent" unicode="&#x137;" horiz-adv-x="1421" 
d="M838 676l567 -676h-205l-493 580l-336 -263v-317h-168v1516h168v-1029l778 629h221zM756 -119q56 0 91.5 -36t35.5 -95q0 -85 -45.5 -187.5t-122.5 -174.5l-56 47q61 70 88 120.5t35 106.5q-8 -8 -32 -8q-48 0 -81.5 32.5t-33.5 82.5q0 48 34.5 80t86.5 32z" />
    <glyph glyph-name="kgreenlandic" unicode="&#x138;" horiz-adv-x="1421" 
d="M1202 0l-495 580l-336 -263v-317h-168v1116h168v-629l786 629h213l-532 -440l567 -676h-203z" />
    <glyph glyph-name="Lacute" unicode="&#x139;" horiz-adv-x="1554" 
d="M758 1905l-453 -308h-160l338 308h275zM410 160h1097v-160h-1269v1434h172v-1274z" />
    <glyph glyph-name="lacute" unicode="&#x13a;" horiz-adv-x="585" 
d="M727 1987l-453 -308h-159l338 308h274zM377 0h-168v1516h168v-1516z" />
    <glyph glyph-name="Lcommaaccent" unicode="&#x13b;" horiz-adv-x="1554" 
d="M410 160h1097v-160h-1269v1434h172v-1274zM872 -119q56 0 91.5 -36t35.5 -95q0 -85 -45.5 -187.5t-122.5 -174.5l-55 47q61 70 88 120.5t35 106.5q-8 -8 -33 -8q-48 0 -81 32.5t-33 82.5q0 48 34 80t86 32z" />
    <glyph glyph-name="lcommaaccent" unicode="&#x13c;" horiz-adv-x="585" 
d="M377 0h-168v1516h168v-1516zM295 -119q56 0 91.5 -36t35.5 -95q0 -85 -45.5 -187.5t-122.5 -174.5l-55 47q61 70 88 120.5t35 106.5q-8 -8 -33 -8q-48 0 -81.5 32.5t-33.5 82.5q0 48 34.5 80t86.5 32z" />
    <glyph glyph-name="Lcaron" unicode="&#x13d;" horiz-adv-x="1554" 
d="M932 1475q56 0 91.5 -36.5t35.5 -95.5q0 -85 -45.5 -187.5t-122.5 -174.5l-55 47q61 70 87.5 120.5t34.5 106.5q-8 -8 -32 -8q-48 0 -81.5 32.5t-33.5 82.5q0 48 34.5 80.5t86.5 32.5zM410 160h1097v-160h-1269v1434h172v-1274z" />
    <glyph glyph-name="lcaron" unicode="&#x13e;" horiz-adv-x="700" 
d="M377 0h-168v1516h168v-1516zM606 1454q54 0 85.5 -35t31.5 -86q0 -180 -158 -329l-41 47q50 66 75 113.5t32 95.5q-9 -9 -31 -9q-44 0 -74 29t-30 72q0 45 30.5 73.5t79.5 28.5z" />
    <glyph glyph-name="Ldot" unicode="&#x13f;" horiz-adv-x="1554" 
d="M410 160h1097v-160h-1269v1434h172v-1274zM903 668q-54 0 -88.5 32t-34.5 82t34.5 82.5t88.5 32.5t88.5 -32.5t34.5 -82.5t-34.5 -82t-88.5 -32z" />
    <glyph glyph-name="ldot" unicode="&#x140;" horiz-adv-x="755" 
d="M377 0h-168v1516h168v-1516zM649 748q-54 0 -88.5 32t-34.5 82t34.5 82.5t88.5 32.5t88.5 -32.5t34.5 -82.5t-34.5 -82t-88.5 -32z" />
    <glyph glyph-name="Lslash" unicode="&#x141;" horiz-adv-x="1591" 
d="M446 160h1098v-160h-1270v645l-208 -98v145l208 99v643h172v-562l412 197v-147l-412 -195v-567z" />
    <glyph glyph-name="lslash" unicode="&#x142;" horiz-adv-x="694" 
d="M655 1008v-152l-225 -106v-750h-168v670l-223 -105v154l223 104v693h168v-615z" />
    <glyph glyph-name="Nacute" unicode="&#x143;" horiz-adv-x="1998" 
d="M1436 1905l-453 -308h-160l338 308h275zM1593 1434h168v-1434h-151l-1204 1214v-1214h-168v1434h186l1169 -1182v1182z" />
    <glyph glyph-name="nacute" unicode="&#x144;" horiz-adv-x="1613" 
d="M1241 1587l-453 -307h-159l338 307h274zM371 0h-168v1116h168v-231q79 128 217 200t315 72q168 0 285 -68.5t172 -185t55 -272.5v-631h-168v618q0 191 -95 290.5t-282 99.5q-166 0 -295 -77.5t-204 -230.5v-700z" />
    <glyph glyph-name="Ncommaaccent" unicode="&#x145;" horiz-adv-x="1998" 
d="M1593 1434h168v-1434h-151l-1204 1214v-1214h-168v1434h186l1169 -1182v1182zM1004 -119q56 0 91 -36t35 -95q0 -86 -45 -188t-122 -174l-56 47q61 70 88 120.5t35 106.5q-8 -8 -33 -8q-48 0 -81 32.5t-33 82.5q0 48 34.5 80t86.5 32z" />
    <glyph glyph-name="ncommaaccent" unicode="&#x146;" horiz-adv-x="1613" 
d="M371 0h-168v1116h168v-231q79 128 217 200t315 72q168 0 285 -68.5t172 -185t55 -272.5v-631h-168v618q0 191 -95 290.5t-282 99.5q-166 0 -295 -77.5t-204 -230.5v-700zM805 -119q56 0 91.5 -36t35.5 -95q0 -85 -45.5 -187.5t-122.5 -174.5l-55 47q61 70 87.5 120.5
t34.5 106.5q-8 -8 -32 -8q-48 0 -81.5 32.5t-33.5 82.5q0 48 34.5 80t86.5 32z" />
    <glyph glyph-name="Ncaron" unicode="&#x147;" horiz-adv-x="1998" 
d="M588 1905l319 -308h187l319 308h-194l-220 -211l-217 211h-194zM1593 1434h168v-1434h-151l-1204 1214v-1214h-168v1434h186l1169 -1182v1182z" />
    <glyph glyph-name="ncaron" unicode="&#x148;" horiz-adv-x="1613" 
d="M393 1587l320 -307h186l320 307h-195l-219 -211l-217 211h-195zM371 0h-168v1116h168v-231q79 128 217 200t315 72q168 0 285 -68.5t172 -185t55 -272.5v-631h-168v618q0 191 -95 290.5t-282 99.5q-166 0 -295 -77.5t-204 -230.5v-700z" />
    <glyph glyph-name="napostrophe" unicode="&#x149;" horiz-adv-x="1794" 
d="M209 1460q53 0 86 -35t33 -88q0 -93 -41.5 -187.5t-118.5 -168.5l-47 47q97 122 112 232q-7 -11 -32 -11q-46 0 -76.5 30.5t-30.5 76.5q0 45 32 74.5t83 29.5zM551 0h-168v1116h168v-248q78 139 215.5 214t316.5 75q168 0 285 -68.5t172 -185t55 -272.5v-631h-168v623
q0 191 -94.5 290t-281.5 99q-165 0 -295 -79.5t-205 -232.5v-700z" />
    <glyph glyph-name="Eng" unicode="&#x14a;" horiz-adv-x="1998" 
d="M1591 1434h170v-1399v-119q0 -174 -94.5 -270.5t-255.5 -96.5q-129 0 -205 37l41 129q49 -22 131 -22q109 0 163 50.5t54 164.5v106l-1189 1200v-1214h-168v1434h186l1167 -1182v1182z" />
    <glyph glyph-name="eng" unicode="&#x14b;" horiz-adv-x="1613" 
d="M903 1157q168 0 285 -68.5t172 -185t55 -272.5v-631v-125q0 -152 -86.5 -239t-232.5 -87q-104 0 -195 41l49 127q54 -20 113 -20q88 0 136 45.5t48 124.5v285v471q0 191 -94.5 290t-282.5 99q-165 0 -294 -79.5t-205 -232.5v-700h-168v1116h168v-248q78 139 215.5 214
t316.5 75z" />
    <glyph glyph-name="Omacron" unicode="&#x14c;" horiz-adv-x="2007" 
d="M608 1790h791v-141h-791v141zM1004 -43q-407 0 -640 204t-233 556t233 556t640 204t639.5 -204t232.5 -556t-232.5 -556t-639.5 -204zM1004 117q321 0 508.5 157.5t187.5 442.5t-187.5 442.5t-508.5 157.5t-509 -157.5t-188 -442.5t188 -442.5t509 -157.5z" />
    <glyph glyph-name="omacron" unicode="&#x14d;" horiz-adv-x="1593" 
d="M401 1473h791v-142h-791v142zM797 -43q-318 0 -498 161t-180 439t180 440t498 162t498 -162t180 -440t-180 -439t-498 -161zM797 106q227 0 367.5 116.5t140.5 334.5q0 147 -67 251t-180 153t-261 49t-261 -49t-180 -153t-67 -251q0 -218 140.5 -334.5t367.5 -116.5z" />
    <glyph glyph-name="Obreve" unicode="&#x14e;" horiz-adv-x="2007" 
d="M1358 1905q0 -37 -10.5 -77.5t-36.5 -84t-64.5 -78t-101 -56.5t-139.5 -22t-140 22t-101.5 56.5t-64.5 78t-36.5 84t-10.5 77.5h142q3 -75 59.5 -131t151.5 -56q94 0 150 56t58 131h144zM1004 -43q-407 0 -640 204t-233 556t233 556t640 204t639.5 -204t232.5 -556
t-232.5 -556t-639.5 -204zM1004 117q321 0 508.5 157.5t187.5 442.5t-187.5 442.5t-508.5 157.5t-509 -157.5t-188 -442.5t188 -442.5t509 -157.5z" />
    <glyph glyph-name="obreve" unicode="&#x14f;" horiz-adv-x="1593" 
d="M1151 1587q0 -37 -10.5 -77t-36.5 -84t-64.5 -78t-101 -56t-139.5 -22t-140 22t-101.5 56t-64.5 78t-36.5 84t-10.5 77h142q3 -75 59.5 -130.5t151.5 -55.5q94 0 150.5 56t58.5 130h143zM797 -43q-318 0 -498 161t-180 439t180 440t498 162t498 -162t180 -440t-180 -439
t-498 -161zM797 106q227 0 367.5 116.5t140.5 334.5q0 147 -67 251t-180 153t-261 49t-261 -49t-180 -153t-67 -251q0 -218 140.5 -334.5t367.5 -116.5z" />
    <glyph glyph-name="Ohungarumlaut" unicode="&#x150;" horiz-adv-x="2007" 
d="M1141 1905l-336 -308h-178l336 308h178zM1544 1905l-336 -308h-178l336 308h178zM1004 -43q-407 0 -640 204t-233 556t233 556t640 204t639.5 -204t232.5 -556t-232.5 -556t-639.5 -204zM1004 117q321 0 508.5 157.5t187.5 442.5t-187.5 442.5t-508.5 157.5t-509 -157.5
t-188 -442.5t188 -442.5t509 -157.5z" />
    <glyph glyph-name="ohungarumlaut" unicode="&#x151;" horiz-adv-x="1593" 
d="M934 1587l-336 -307h-178l336 307h178zM1337 1587l-336 -307h-178l336 307h178zM797 -43q-318 0 -498 161t-180 439t180 440t498 162t498 -162t180 -440t-180 -439t-498 -161zM797 106q227 0 367.5 116.5t140.5 334.5q0 147 -67 251t-180 153t-261 49t-261 -49t-180 -153
t-67 -251q0 -218 140.5 -334.5t367.5 -116.5z" />
    <glyph glyph-name="OE" unicode="&#x152;" horiz-adv-x="3018" 
d="M1688 160h1214v-160h-1386h-525q-394 0 -627 194t-233 523t233 523t627 194h697h1194v-160h-1194v-465h1011v-160h-1011v-489zM1516 160v1114h-512q-208 0 -362.5 -60t-244.5 -187t-90 -310t90 -310t244.5 -187t362.5 -60h512z" />
    <glyph glyph-name="oe" unicode="&#x153;" horiz-adv-x="2732" 
d="M1475 522q12 -207 150.5 -314.5t367.5 -107.5q162 0 273 41t212 133l109 -114q-115 -104 -260.5 -153.5t-341.5 -49.5q-211 0 -362 71t-234 203q-80 -132 -231.5 -203t-360.5 -71q-318 0 -498 161t-180 439t180 440t498 162q209 0 360.5 -71t231.5 -203q80 132 230 203
t355 71q302 0 477 -157.5t175 -442.5q0 -17 -5 -37h-1146zM1976 1016q-199 0 -330 -90.5t-163 -263.5h973q-18 91 -61.5 159.5t-107 110.5t-141.5 63t-170 21zM797 106q227 0 367.5 116.5t140.5 334.5q0 147 -67 251t-180 153t-261 49t-261 -49t-180 -153t-67 -251
q0 -218 140.5 -334.5t367.5 -116.5z" />
    <glyph glyph-name="Racute" unicode="&#x154;" horiz-adv-x="1894" 
d="M1350 1905l-453 -308h-160l338 308h275zM1794 0h-225l-475 549h-682v-549h-174v1434h962q245 0 397 -117.5t152 -325.5q0 -184 -120.5 -298t-323.5 -138zM410 709h778q180 0 282.5 70t102.5 212t-102.5 212.5t-282.5 70.5h-778v-565z" />
    <glyph glyph-name="racute" unicode="&#x155;" horiz-adv-x="962" 
d="M993 1587l-452 -307h-160l338 307h274zM371 0h-168v1116h168v-274q66 139 218 218t337 79v-152q-196 0 -345 -86.5t-210 -249.5v-651z" />
    <glyph glyph-name="Rcommaaccent" unicode="&#x156;" horiz-adv-x="1894" 
d="M1794 0h-225l-475 549h-682v-549h-174v1434h962q245 0 397 -117.5t152 -325.5q0 -184 -120.5 -298t-323.5 -138zM410 709h778q180 0 282.5 70t102.5 212t-102.5 212.5t-282.5 70.5h-778v-565zM961 -119q56 0 91 -36t35 -95q0 -86 -45 -188t-122 -174l-56 47
q61 70 88 120.5t35 106.5q-8 -8 -33 -8q-48 0 -81 32.5t-33 82.5q0 48 34.5 80t86.5 32z" />
    <glyph glyph-name="rcommaaccent" unicode="&#x157;" horiz-adv-x="962" 
d="M371 0h-168v1116h168v-274q66 139 218 218t337 79v-152q-196 0 -345 -86.5t-210 -249.5v-651zM289 -119q56 0 91.5 -36t35.5 -95q0 -85 -45.5 -187.5t-122.5 -174.5l-55 47q61 70 87.5 120.5t34.5 106.5q-8 -8 -32 -8q-48 0 -81.5 32.5t-33.5 82.5q0 48 34.5 80t86.5 32z
" />
    <glyph glyph-name="Rcaron" unicode="&#x158;" horiz-adv-x="1894" 
d="M1008 1597h-187l-319 308h194l217 -211l220 211h194zM1794 0h-225l-475 549h-682v-549h-174v1434h962q245 0 397 -117.5t152 -325.5q0 -184 -120.5 -298t-323.5 -138zM410 709h778q180 0 282.5 70t102.5 212t-102.5 212.5t-282.5 70.5h-778v-565z" />
    <glyph glyph-name="rcaron" unicode="&#x159;" horiz-adv-x="962" 
d="M145 1587l320 -307h186l320 307h-195l-219 -211l-217 211h-195zM371 0h-168v1116h168v-274q66 139 218 218t337 79v-152q-196 0 -345 -86.5t-210 -249.5v-651z" />
    <glyph glyph-name="Sacute" unicode="&#x15a;" horiz-adv-x="1769" 
d="M1323 1905l-453 -308h-159l338 308h274zM932 817q140 -11 245.5 -28t202 -47t158 -72.5t97.5 -106.5t36 -147q0 -203 -196.5 -331t-538.5 -128q-239 0 -456.5 75t-381.5 220l121 129q155 -137 332.5 -200.5t394.5 -63.5q259 0 404 76t145 210q0 43 -16.5 76.5t-53 58.5
t-83.5 43t-119 31.5t-146.5 22.5t-179.5 18q-103 9 -189 21.5t-175 33.5t-155.5 51.5t-120.5 71t-82 97t-28 125.5q0 130 102 228.5t264 147t357 48.5q224 0 413.5 -70t320.5 -186l-136 -115q-103 102 -255 155.5t-334 55.5q-101 1 -195.5 -13.5t-177 -44t-132.5 -81.5
t-50 -119q0 -43 20.5 -77.5t63.5 -58.5t92 -41.5t125 -29.5t143.5 -19.5t163.5 -15.5z" />
    <glyph glyph-name="sacute" unicode="&#x15b;" horiz-adv-x="1415" 
d="M1143 1587l-453 -307h-160l338 307h275zM743 647q132 -11 233.5 -33t182.5 -59.5t123.5 -97t42.5 -138.5q0 -157 -154 -259.5t-430 -102.5q-379 0 -651 240l107 100q237 -201 548 -201q180 0 297 54.5t117 152.5q0 34 -13 61t-41 47.5t-63.5 35t-89.5 25.5t-110 18
t-133 14q-80 7 -145.5 16.5t-134 25.5t-119.5 40t-92.5 56.5t-63 77.5t-21.5 101q0 107 75.5 184.5t204.5 115.5t296 38q160 0 309.5 -54.5t249.5 -135.5l-107 -113q-186 161 -461 164q-69 1 -135 -8t-128 -29t-100 -59.5t-38 -92.5q0 -29 12.5 -53t32.5 -41t53.5 -31
t68 -23t83.5 -16t92 -11.5t102 -8.5z" />
    <glyph glyph-name="Scircumflex" unicode="&#x15c;" horiz-adv-x="1769" 
d="M475 1597h195l217 211l219 -211h194l-319 308h-186zM932 817q140 -11 245.5 -28t202 -47t158 -72.5t97.5 -106.5t36 -147q0 -203 -196.5 -331t-538.5 -128q-239 0 -456.5 75t-381.5 220l121 129q155 -137 332.5 -200.5t394.5 -63.5q259 0 404 76t145 210q0 43 -16.5 76.5
t-53 58.5t-83.5 43t-119 31.5t-146.5 22.5t-179.5 18q-103 9 -189 21.5t-175 33.5t-155.5 51.5t-120.5 71t-82 97t-28 125.5q0 130 102 228.5t264 147t357 48.5q224 0 413.5 -70t320.5 -186l-136 -115q-103 102 -255 155.5t-334 55.5q-101 1 -195.5 -13.5t-177 -44
t-132.5 -81.5t-50 -119q0 -43 20.5 -77.5t63.5 -58.5t92 -41.5t125 -29.5t143.5 -19.5t163.5 -15.5z" />
    <glyph glyph-name="scircumflex" unicode="&#x15d;" horiz-adv-x="1415" 
d="M295 1280h194l218 211l219 -211h194l-319 307h-187zM743 647q132 -11 233.5 -33t182.5 -59.5t123.5 -97t42.5 -138.5q0 -157 -154 -259.5t-430 -102.5q-379 0 -651 240l107 100q237 -201 548 -201q180 0 297 54.5t117 152.5q0 34 -13 61t-41 47.5t-63.5 35t-89.5 25.5
t-110 18t-133 14q-80 7 -145.5 16.5t-134 25.5t-119.5 40t-92.5 56.5t-63 77.5t-21.5 101q0 107 75.5 184.5t204.5 115.5t296 38q160 0 309.5 -54.5t249.5 -135.5l-107 -113q-186 161 -461 164q-69 1 -135 -8t-128 -29t-100 -59.5t-38 -92.5q0 -29 12.5 -53t32.5 -41
t53.5 -31t68 -23t83.5 -16t92 -11.5t102 -8.5z" />
    <glyph glyph-name="Scedilla" unicode="&#x15e;" horiz-adv-x="1769" 
d="M932 817q140 -11 245.5 -28t202 -47t158 -72.5t97.5 -106.5t36 -147q0 -203 -196.5 -331t-538.5 -128q-239 0 -456.5 75t-381.5 220l121 129q155 -137 332.5 -200.5t394.5 -63.5q259 0 404 76t145 210q0 43 -16.5 76.5t-53 58.5t-83.5 43t-119 31.5t-146.5 22.5
t-179.5 18q-103 9 -189 21.5t-175 33.5t-155.5 51.5t-120.5 71t-82 97t-28 125.5q0 130 102 228.5t264 147t357 48.5q224 0 413.5 -70t320.5 -186l-136 -115q-103 102 -255 155.5t-334 55.5q-101 1 -195.5 -13.5t-177 -44t-132.5 -81.5t-50 -119q0 -43 20.5 -77.5
t63.5 -58.5t92 -41.5t125 -29.5t143.5 -19.5t163.5 -15.5zM973 -106l-244 -324l-141 37l211 319z" />
    <glyph glyph-name="scedilla" unicode="&#x15f;" horiz-adv-x="1415" 
d="M743 647q132 -11 233.5 -33t182.5 -59.5t123.5 -97t42.5 -138.5q0 -157 -154 -259.5t-430 -102.5q-379 0 -651 240l107 100q237 -201 548 -201q180 0 297 54.5t117 152.5q0 34 -13 61t-41 47.5t-63.5 35t-89.5 25.5t-110 18t-133 14q-80 7 -145.5 16.5t-134 25.5
t-119.5 40t-92.5 56.5t-63 77.5t-21.5 101q0 107 75.5 184.5t204.5 115.5t296 38q160 0 309.5 -54.5t249.5 -135.5l-107 -113q-186 161 -461 164q-69 1 -135 -8t-128 -29t-100 -59.5t-38 -92.5q0 -29 12.5 -53t32.5 -41t53.5 -31t68 -23t83.5 -16t92 -11.5t102 -8.5z
M782 -106l-243 -324l-142 37l211 319z" />
    <glyph glyph-name="Scaron" unicode="&#x160;" horiz-adv-x="1769" 
d="M475 1905l320 -308h186l319 308h-194l-219 -211l-217 211h-195zM932 817q140 -11 245.5 -28t202 -47t158 -72.5t97.5 -106.5t36 -147q0 -203 -196.5 -331t-538.5 -128q-239 0 -456.5 75t-381.5 220l121 129q155 -137 332.5 -200.5t394.5 -63.5q259 0 404 76t145 210
q0 43 -16.5 76.5t-53 58.5t-83.5 43t-119 31.5t-146.5 22.5t-179.5 18q-103 9 -189 21.5t-175 33.5t-155.5 51.5t-120.5 71t-82 97t-28 125.5q0 130 102 228.5t264 147t357 48.5q224 0 413.5 -70t320.5 -186l-136 -115q-103 102 -255 155.5t-334 55.5q-101 1 -195.5 -13.5
t-177 -44t-132.5 -81.5t-50 -119q0 -43 20.5 -77.5t63.5 -58.5t92 -41.5t125 -29.5t143.5 -19.5t163.5 -15.5z" />
    <glyph glyph-name="scaron" unicode="&#x161;" horiz-adv-x="1415" 
d="M295 1587l319 -307h187l319 307h-194l-219 -211l-218 211h-194zM743 647q132 -11 233.5 -33t182.5 -59.5t123.5 -97t42.5 -138.5q0 -157 -154 -259.5t-430 -102.5q-379 0 -651 240l107 100q237 -201 548 -201q180 0 297 54.5t117 152.5q0 34 -13 61t-41 47.5t-63.5 35
t-89.5 25.5t-110 18t-133 14q-80 7 -145.5 16.5t-134 25.5t-119.5 40t-92.5 56.5t-63 77.5t-21.5 101q0 107 75.5 184.5t204.5 115.5t296 38q160 0 309.5 -54.5t249.5 -135.5l-107 -113q-186 161 -461 164q-69 1 -135 -8t-128 -29t-100 -59.5t-38 -92.5q0 -29 12.5 -53
t32.5 -41t53.5 -31t68 -23t83.5 -16t92 -11.5t102 -8.5z" />
    <glyph glyph-name="uni0162" unicode="&#x162;" horiz-adv-x="1615" 
d="M1571 1434v-156h-678v-1278h-172v1278h-676v156h1526zM870 -88l-243 -324l-142 37l211 320z" />
    <glyph glyph-name="uni0163" unicode="&#x163;" horiz-adv-x="989" 
d="M897 184l59 -121q-150 -104 -323 -104q-159 0 -263 84t-104 240v686h-225v147h225v260h168v-260h514v-147h-514v-662q0 -98 64.5 -148t163.5 -50q106 0 235 75zM231 -393l211 319l174 -32l-243 -324z" />
    <glyph glyph-name="Tcaron" unicode="&#x164;" horiz-adv-x="1615" 
d="M393 1905l320 -308h186l320 308h-195l-219 -211l-217 211h-195zM1571 1434v-156h-678v-1278h-172v1278h-676v156h1526z" />
    <glyph glyph-name="tcaron" unicode="&#x165;" horiz-adv-x="1015" 
d="M707 1468q-44 0 -74.5 30t-30.5 73t31 71.5t80 28.5q53 0 84.5 -34.5t31.5 -84.5q0 -183 -157 -331l-41 47q93 124 106 211q-7 -11 -30 -11zM897 184l59 -121q-150 -104 -323 -104q-159 0 -263 84t-104 240v686h-225v147h225v260h168v-260h514v-147h-514v-662
q0 -98 64.5 -148t163.5 -50q106 0 235 75z" />
    <glyph glyph-name="Tbar" unicode="&#x166;" horiz-adv-x="1615" 
d="M1571 1278h-678v-492h309v-141h-309v-645h-172v645h-309v141h309v492h-676v156h1526v-156z" />
    <glyph glyph-name="tbar" unicode="&#x167;" horiz-adv-x="989" 
d="M897 184l59 -121q-150 -104 -323 -104q-159 0 -263 84t-104 240v368h-164v119h164v199h-225v147h225v260h168v-260h514v-147h-514v-199h438v-119h-438v-344q0 -98 64.5 -148t163.5 -50q106 0 235 75z" />
    <glyph glyph-name="Utilde" unicode="&#x168;" horiz-adv-x="1931" 
d="M1372 1880l101 -65q-37 -71 -113 -123t-189 -52q-61 0 -120 18.5t-98.5 40t-93 40t-105.5 18.5q-73 0 -116.5 -28.5t-76.5 -77.5l-100 65q37 71 112 122.5t189 51.5q60 0 119 -18t98.5 -40t94 -40t106.5 -18q73 0 114.5 28t77.5 78zM1550 1434h172v-758q0 -158 -49 -289
t-142.5 -227t-237.5 -149.5t-326 -53.5t-326.5 53.5t-238.5 149.5t-143.5 227.5t-49.5 288.5v758h172v-748q0 -266 153.5 -417.5t432.5 -151.5q278 0 430.5 151.5t152.5 417.5v748z" />
    <glyph glyph-name="utilde" unicode="&#x169;" horiz-adv-x="1613" 
d="M1192 1563l100 -66q-37 -71 -112.5 -122.5t-188.5 -51.5q-61 0 -120 18.5t-98.5 40t-93.5 40t-106 18.5q-51 0 -91 -17.5t-59.5 -38t-41.5 -51.5l-100 66q37 71 112 122.5t189 51.5q60 0 118.5 -18.5t98 -40t94 -40t106.5 -18.5q51 0 91 18t59.5 37.5t42.5 51.5z
M1243 1116h168v-1116h-168v231q-79 -128 -217 -200t-315 -72q-168 0 -285 68.5t-172 185t-55 272.5v631h168v-618q0 -191 94.5 -290t281.5 -99q166 0 295.5 77.5t204.5 229.5v700z" />
    <glyph glyph-name="Umacron" unicode="&#x16a;" horiz-adv-x="1931" 
d="M571 1790h791v-141h-791v141zM1550 1434h172v-758q0 -158 -49 -289t-142.5 -227t-237.5 -149.5t-326 -53.5t-326.5 53.5t-238.5 149.5t-143.5 227.5t-49.5 288.5v758h172v-748q0 -266 153.5 -417.5t432.5 -151.5q278 0 430.5 151.5t152.5 417.5v748z" />
    <glyph glyph-name="umacron" unicode="&#x16b;" horiz-adv-x="1613" 
d="M391 1473h791v-142h-791v142zM1243 1116h168v-1116h-168v231q-79 -128 -217 -200t-315 -72q-168 0 -285 68.5t-172 185t-55 272.5v631h168v-618q0 -191 94.5 -290t281.5 -99q166 0 295.5 77.5t204.5 229.5v700z" />
    <glyph glyph-name="Ubreve" unicode="&#x16c;" horiz-adv-x="1931" 
d="M1321 1905q0 -37 -10.5 -77.5t-36.5 -84t-64.5 -78t-101 -56.5t-139.5 -22t-140 22t-101.5 56.5t-64.5 78t-36.5 84t-10.5 77.5h142q3 -75 59.5 -131t151.5 -56q94 0 150.5 56.5t58.5 130.5h143zM1550 1434h172v-758q0 -158 -49 -289t-142.5 -227t-237.5 -149.5
t-326 -53.5t-326.5 53.5t-238.5 149.5t-143.5 227.5t-49.5 288.5v758h172v-748q0 -266 153.5 -417.5t432.5 -151.5q278 0 430.5 151.5t152.5 417.5v748z" />
    <glyph glyph-name="ubreve" unicode="&#x16d;" horiz-adv-x="1613" 
d="M1141 1587q0 -37 -10.5 -77.5t-37 -84t-65 -77.5t-101 -56t-139.5 -22t-139.5 22t-101 56t-64.5 78t-36.5 84t-10.5 77h142q3 -75 59 -130.5t151 -55.5q94 0 150.5 56t58.5 130h144zM1243 1116h168v-1116h-168v231q-79 -128 -217 -200t-315 -72q-168 0 -285 68.5
t-172 185t-55 272.5v631h168v-618q0 -191 94.5 -290t281.5 -99q166 0 295.5 77.5t204.5 229.5v700z" />
    <glyph glyph-name="Uring" unicode="&#x16e;" horiz-adv-x="1931" 
d="M967 1583q-114 0 -189.5 57t-75.5 162q0 104 76 161.5t189 57.5t188.5 -57.5t75.5 -161.5q0 -105 -75 -162t-189 -57zM825 1802q0 -60 39 -92.5t105 -32.5q65 0 104 32.5t39 92.5t-39 92.5t-104 32.5q-66 0 -105 -32.5t-39 -92.5zM1550 1434h172v-758q0 -158 -49 -289
t-142.5 -227t-237.5 -149.5t-326 -53.5t-326.5 53.5t-238.5 149.5t-143.5 227.5t-49.5 288.5v758h172v-748q0 -266 153.5 -417.5t432.5 -151.5q278 0 430.5 151.5t152.5 417.5v748z" />
    <glyph glyph-name="uring" unicode="&#x16f;" horiz-adv-x="1613" 
d="M786 1266q-114 0 -189 57t-75 162q0 104 75.5 161.5t188.5 57.5t189 -57.5t76 -161.5q0 -105 -75.5 -162t-189.5 -57zM645 1485q0 -60 38.5 -92.5t104.5 -32.5q65 0 104.5 32.5t39.5 92.5t-39.5 92.5t-104.5 32.5q-66 0 -104.5 -32.5t-38.5 -92.5zM1243 1116h168v-1116
h-168v231q-79 -128 -217 -200t-315 -72q-168 0 -285 68.5t-172 185t-55 272.5v631h168v-618q0 -191 94.5 -290t281.5 -99q166 0 295.5 77.5t204.5 229.5v700z" />
    <glyph glyph-name="Uhungarumlaut" unicode="&#x170;" horiz-adv-x="1931" 
d="M1104 1905l-336 -308h-178l336 308h178zM1507 1905l-336 -308h-178l336 308h178zM1550 1434h172v-758q0 -158 -49 -289t-142.5 -227t-237.5 -149.5t-326 -53.5t-326.5 53.5t-238.5 149.5t-143.5 227.5t-49.5 288.5v758h172v-748q0 -266 153.5 -417.5t432.5 -151.5
q278 0 430.5 151.5t152.5 417.5v748z" />
    <glyph glyph-name="uhungarumlaut" unicode="&#x171;" horiz-adv-x="1613" 
d="M924 1587l-336 -307h-178l335 307h179zM1327 1587l-336 -307h-178l336 307h178zM1243 1116h168v-1116h-168v231q-79 -128 -217 -200t-315 -72q-168 0 -285 68.5t-172 185t-55 272.5v631h168v-618q0 -191 94.5 -290t281.5 -99q166 0 295.5 77.5t204.5 229.5v700z" />
    <glyph glyph-name="Uogonek" unicode="&#x172;" horiz-adv-x="1931" 
d="M1550 1434h172v-758q0 -250 -120 -428.5t-347 -249.5q-102 -37 -170.5 -112t-68.5 -162q0 -69 45 -103.5t113 -34.5q82 0 157 49l41 -57q-94 -80 -227 -80q-70 0 -129.5 20.5t-100.5 69.5t-41 119q0 75 40.5 141t111.5 111q-20 -2 -59 -2q-182 0 -326.5 53.5
t-238.5 149.5t-143.5 227.5t-49.5 288.5v758h172v-748q0 -266 153.5 -417.5t432.5 -151.5q278 0 430.5 151.5t152.5 417.5v748z" />
    <glyph glyph-name="uogonek" unicode="&#x173;" horiz-adv-x="1613" 
d="M1460 -365l41 -57q-94 -80 -227 -80q-70 0 -129.5 20.5t-100 69.5t-40.5 119q0 98 65.5 177t173.5 116v231q-79 -128 -217 -200t-315 -72q-168 0 -285 68.5t-172 185t-55 272.5v631h168v-618q0 -191 94.5 -290t281.5 -99q166 0 295.5 77.5t204.5 229.5v700h168v-1116h-20
q-104 -37 -175 -112.5t-71 -163.5q0 -69 45 -103.5t113 -34.5q82 0 157 49z" />
    <glyph glyph-name="Wcircumflex" unicode="&#x174;" horiz-adv-x="2463" 
d="M819 1597h195l217 211l219 -211h195l-320 308h-186zM2218 1434h184l-526 -1434h-182l-461 1227l-463 -1227h-182l-527 1434h189l432 -1225l465 1225h174l463 -1225z" />
    <glyph glyph-name="wcircumflex" unicode="&#x175;" horiz-adv-x="2023" 
d="M600 1280h195l217 211l219 -211h194l-319 307h-186zM1788 1116h170l-418 -1116h-172l-354 934l-359 -934h-172l-417 1116h174l340 -926l352 926h164l352 -926z" />
    <glyph glyph-name="Ycircumflex" unicode="&#x176;" horiz-adv-x="1685" 
d="M432 1597h195l217 211l219 -211h194l-319 308h-186zM37 1434h207l602 -777l598 777h205l-719 -932v-502h-172v502z" />
    <glyph glyph-name="ycircumflex" unicode="&#x177;" horiz-adv-x="1447" 
d="M311 1280h195l217 211l219 -211h195l-320 307h-186zM1219 1116h184l-871 -1526h-182l289 488l-594 1038h188l496 -868z" />
    <glyph glyph-name="Ydieresis" unicode="&#x178;" horiz-adv-x="1685" 
d="M580 1624q-46 0 -77.5 29.5t-31.5 68.5q0 41 31.5 71t77.5 30q45 0 75.5 -30t30.5 -71q0 -39 -30.5 -68.5t-75.5 -29.5zM1112 1624q-46 0 -77 29.5t-31 68.5q0 41 31 71t77 30q45 0 76 -30t31 -71q0 -39 -31 -68.5t-76 -29.5zM37 1434h207l602 -777l598 777h205
l-719 -932v-502h-172v502z" />
    <glyph glyph-name="Zacute" unicode="&#x179;" horiz-adv-x="1736" 
d="M1343 1905l-452 -308h-160l338 308h274zM1593 1434v-127l-1220 -1151h1253v-156h-1515v127l1220 1151h-1184v156h1446z" />
    <glyph glyph-name="zacute" unicode="&#x17a;" horiz-adv-x="1366" 
d="M1133 1587l-453 -307h-160l338 307h275zM1247 1116v-123l-913 -848h938v-147h-1182v123l914 848h-885v147h1128z" />
    <glyph glyph-name="Zdotaccent" unicode="&#x17b;" horiz-adv-x="1736" 
d="M909 1624q-44 0 -71 24t-27 62q0 40 27 64t71 24q43 0 70 -24t27 -64q0 -38 -27 -62t-70 -24zM1593 1434v-127l-1220 -1151h1253v-156h-1515v127l1220 1151h-1184v156h1446z" />
    <glyph glyph-name="zdotaccent" unicode="&#x17c;" horiz-adv-x="1366" 
d="M698 1307q-44 0 -71 24t-27 62q0 40 27 64t71 24q43 0 70 -24t27 -64q0 -38 -27 -62t-70 -24zM1247 1116v-123l-913 -848h938v-147h-1182v123l914 848h-885v147h1128z" />
    <glyph glyph-name="Zcaron" unicode="&#x17d;" horiz-adv-x="1736" 
d="M496 1905l319 -308h186l320 308h-195l-219 -211l-217 211h-194zM1593 1434v-127l-1220 -1151h1253v-156h-1515v127l1220 1151h-1184v156h1446z" />
    <glyph glyph-name="zcaron" unicode="&#x17e;" horiz-adv-x="1366" 
d="M285 1587l319 -307h187l319 307h-195l-219 -211l-217 211h-194zM1247 1116v-123l-913 -848h938v-147h-1182v123l914 848h-885v147h1128z" />
    <glyph glyph-name="florin" unicode="&#x192;" horiz-adv-x="1359" 
d="M1081 1333q-96 0 -160.5 -47.5t-74.5 -144.5l-37 -348h391l-10 -117h-393l-41 -404q-11 -100 -66.5 -173t-134 -107.5t-168.5 -34.5q-152 0 -268 68l61 125q81 -50 174 -50q96 0 161 48t75 145l41 383h-393l10 117h395l39 368q7 75 40.5 136t84.5 100t112.5 59.5
t127.5 20.5q155 0 268 -68l-62 -125q-93 49 -172 49z" />
    <glyph glyph-name="Aringacute" unicode="&#x1fa;" horiz-adv-x="1835" 
d="M918 1583q-114 0 -189.5 57t-75.5 162q0 103 78 164l262 258h193l-256 -203q110 -3 181 -60t71 -159q0 -105 -75 -162t-189 -57zM1063 1802q0 60 -39 92.5t-104 32.5q-66 0 -105 -32.5t-39 -92.5t39 -92.5t105 -32.5q65 0 104 32.5t39 92.5zM1608 0l-209 385h-967
l-209 -385h-190l788 1434h193l788 -1434h-194zM516 541h799l-400 735z" />
    <glyph glyph-name="aringacute" unicode="&#x1fb;" horiz-adv-x="1527" 
d="M760 1266q-114 0 -189 57t-75 162q0 103 77 164l263 258h192l-256 -203q110 -3 181 -60t71 -159q0 -105 -75 -162t-189 -57zM905 1485q0 60 -39 92.5t-104 32.5q-66 0 -105 -32.5t-39 -92.5t39 -92.5t105 -32.5q65 0 104 32.5t39 92.5zM1339 217q0 -126 54 -217h-179
q-47 78 -47 178v4q-71 -98 -202 -160.5t-303 -62.5q-77 0 -153 12t-152.5 41.5t-134.5 73.5t-94 113t-36 155q0 85 36 154t94 113t134.5 74t152.5 42.5t153 12.5q172 0 303 -62.5t202 -161.5v92q0 201 -114 297.5t-346 96.5q-237 0 -439 -129l-78 123q100 67 248 109t297 42
q285 0 444.5 -138.5t159.5 -400.5v-401zM1171 334v41q-35 63 -91 110t-123 73.5t-137 39t-144 12.5q-54 0 -107 -6.5t-110.5 -24t-101 -45t-71.5 -74t-28 -106.5t28 -106.5t71.5 -74t101 -45t110.5 -24t107 -6.5q100 0 191 22t174.5 77t129.5 137z" />
    <glyph glyph-name="AEacute" unicode="&#x1fc;" horiz-adv-x="2838" 
d="M2374 1905l-453 -308h-160l338 308h275zM1507 160h1215v-160h-1387v365h-819l-319 -365h-209l1261 1434h117h1335v-160h-1194v-465h1012v-160h-1012v-489zM653 520h682v778z" />
    <glyph glyph-name="aeacute" unicode="&#x1fd;" horiz-adv-x="2580" 
d="M1690 1587l-453 -307h-160l338 307h275zM1339 522v-112q74 -310 502 -310q162 0 273.5 41t212.5 133l108 -114q-115 -104 -260.5 -153.5t-341.5 -49.5q-212 0 -364 71.5t-232 204.5q-50 -89 -145 -152.5t-204.5 -92.5t-225.5 -29q-77 0 -153 12t-152.5 41.5t-134.5 73.5
t-94 113t-36 155q0 85 36 154t94 113t134.5 74t152.5 42.5t153 12.5q174 0 304.5 -64.5t200.5 -169.5v102q0 202 -114.5 300t-345.5 98q-238 0 -443 -131l-67 131q102 64 245.5 102.5t292.5 38.5q186 0 321 -59.5t206 -175.5q84 115 227 176t334 61q302 0 476.5 -157.5
t174.5 -442.5q0 -21 -4 -37h-1131zM1825 1018q-421 0 -490 -326q2 -10 2 -26h965q-32 181 -150.5 266.5t-326.5 85.5zM1171 334v41q-46 83 -129.5 138t-174.5 77t-191 22q-69 0 -135.5 -11.5t-133.5 -38.5t-108 -80.5t-41 -127.5t41 -127.5t108 -80.5t133.5 -38.5
t135.5 -11.5q99 0 190.5 22.5t175 78t129.5 137.5z" />
    <glyph glyph-name="Oslashacute" unicode="&#x1fe;" horiz-adv-x="2007" 
d="M1436 1905l-453 -308h-160l338 308h275zM1565 1333q151 -99 231 -256t80 -360q0 -352 -232.5 -556t-639.5 -204q-241 0 -429 76l-167 -221h-187l221 290q-151 97 -231 254.5t-80 360.5q0 352 233 556t640 204q238 0 426 -76l167 221h187zM307 717q0 -322 238 -479
l782 1028q-145 51 -323 51q-321 0 -509 -157.5t-188 -442.5zM1004 117q321 0 508.5 157.5t187.5 442.5q0 320 -240 481l-780 -1028q142 -53 324 -53z" />
    <glyph glyph-name="oslashacute" unicode="&#x1ff;" horiz-adv-x="1593" 
d="M1233 1587l-453 -307h-159l337 307h275zM1202 1063q132 -75 202.5 -205t70.5 -301q0 -278 -180 -439t-498 -161q-152 0 -277 39l-119 -184h-157l151 237q-134 75 -205 205t-71 303q0 278 180 440t498 162q154 0 282 -41l119 187h158zM289 557q0 -254 192 -373l512 799
q-88 27 -196 27q-148 0 -261 -49t-180 -153t-67 -251zM797 106q227 0 367.5 116.5t140.5 334.5q0 253 -189 373l-510 -799q89 -25 191 -25z" />
    <glyph glyph-name="Scommaaccent" unicode="&#x218;" horiz-adv-x="1769" 
d="M932 817q140 -11 245.5 -28t202 -47t158 -72.5t97.5 -106.5t36 -147q0 -203 -196.5 -331t-538.5 -128q-239 0 -456.5 75t-381.5 220l121 129q155 -137 332.5 -200.5t394.5 -63.5q259 0 404 76t145 210q0 43 -16.5 76.5t-53 58.5t-83.5 43t-119 31.5t-146.5 22.5
t-179.5 18q-103 9 -189 21.5t-175 33.5t-155.5 51.5t-120.5 71t-82 97t-28 125.5q0 130 102 228.5t264 147t357 48.5q224 0 413.5 -70t320.5 -186l-136 -115q-103 102 -255 155.5t-334 55.5q-101 1 -195.5 -13.5t-177 -44t-132.5 -81.5t-50 -119q0 -43 20.5 -77.5
t63.5 -58.5t92 -41.5t125 -29.5t143.5 -19.5t163.5 -15.5zM918 -119q56 0 91 -36t35 -95q0 -86 -45 -188t-122 -174l-56 47q61 70 88 120.5t35 106.5q-8 -8 -33 -8q-48 0 -81 32.5t-33 82.5q0 48 34.5 80t86.5 32z" />
    <glyph glyph-name="scommaaccent" unicode="&#x219;" horiz-adv-x="1415" 
d="M743 647q132 -11 233.5 -33t182.5 -59.5t123.5 -97t42.5 -138.5q0 -157 -154 -259.5t-430 -102.5q-379 0 -651 240l107 100q237 -201 548 -201q180 0 297 54.5t117 152.5q0 34 -13 61t-41 47.5t-63.5 35t-89.5 25.5t-110 18t-133 14q-80 7 -145.5 16.5t-134 25.5
t-119.5 40t-92.5 56.5t-63 77.5t-21.5 101q0 107 75.5 184.5t204.5 115.5t296 38q160 0 309.5 -54.5t249.5 -135.5l-107 -113q-186 161 -461 164q-69 1 -135 -8t-128 -29t-100 -59.5t-38 -92.5q0 -29 12.5 -53t32.5 -41t53.5 -31t68 -23t83.5 -16t92 -11.5t102 -8.5z
M727 -119q56 0 91.5 -36t35.5 -95q0 -85 -45.5 -187.5t-122.5 -174.5l-55 47q61 70 88 120.5t35 106.5q-8 -8 -33 -8q-48 0 -81.5 32.5t-33.5 82.5q0 48 34.5 80t86.5 32z" />
    <glyph glyph-name="uni021B" unicode="&#x21b;" horiz-adv-x="989" 
d="M956 63q-150 -104 -323 -104q-159 0 -263 84t-104 240v686h-225v147h225v260h168v-260h514v-147h-514v-662q0 -98 64.5 -148t163.5 -50q106 0 235 75zM561 -119q56 0 91.5 -36t35.5 -95q0 -85 -45.5 -187.5t-122.5 -174.5l-55 47q61 70 88 120.5t35 106.5q-8 -8 -33 -8
q-48 0 -81.5 32.5t-33.5 82.5q0 48 34.5 80t86.5 32z" />
    <glyph glyph-name="uni0237" unicode="&#x237;" horiz-adv-x="585" 
d="M209 1116h168v-1241q0 -152 -87 -239t-231 -87q-112 0 -196 41l51 138q48 -25 111 -25q88 0 136 54.5t48 148.5v1210z" />
    <glyph glyph-name="circumflex" unicode="&#x2c6;" horiz-adv-x="1163" 
d="M168 1597h194l218 211l219 -211h194l-319 308h-187z" />
    <glyph glyph-name="caron" unicode="&#x2c7;" horiz-adv-x="1163" 
d="M168 1905l319 -308h187l319 308h-194l-219 -211l-218 211h-194z" />
    <glyph glyph-name="breve" unicode="&#x2d8;" horiz-adv-x="1163" 
d="M963 1905q0 -37 -10.5 -77.5t-37 -84t-65 -78t-101 -56.5t-139.5 -22t-139.5 22t-101 56.5t-64.5 78t-36.5 84t-10.5 77.5h141q3 -75 59.5 -131t151.5 -56q94 0 150.5 56.5t58.5 130.5h144z" />
    <glyph glyph-name="dotaccent" unicode="&#x2d9;" horiz-adv-x="1163" 
d="M582 1624q-44 0 -71.5 24t-27.5 62q0 40 27.5 64t71.5 24q43 0 69.5 -24t26.5 -64q0 -38 -26.5 -62t-69.5 -24z" />
    <glyph glyph-name="ring" unicode="&#x2da;" horiz-adv-x="1163" 
d="M614 1583q-114 0 -189 57t-75 162q0 104 75.5 161.5t188.5 57.5t189 -57.5t76 -161.5q0 -105 -75.5 -162t-189.5 -57zM473 1802q0 -60 38.5 -92.5t104.5 -32.5q65 0 104.5 32.5t39.5 92.5t-39.5 92.5t-104.5 32.5q-66 0 -104.5 -32.5t-38.5 -92.5z" />
    <glyph glyph-name="ogonek" unicode="&#x2db;" horiz-adv-x="1177" 
d="M754 -422q-94 -80 -228 -80q-70 0 -129.5 20.5t-100 69.5t-40.5 119q0 111 81.5 195t211.5 114l94 -16q-104 -37 -175 -112.5t-71 -163.5q0 -69 45 -103.5t113 -34.5q83 0 158 49z" />
    <glyph glyph-name="tilde" unicode="&#x2dc;" horiz-adv-x="1200" 
d="M1006 1880l100 -65q-37 -71 -112.5 -123t-188.5 -52q-61 0 -120 18.5t-98.5 40t-93.5 40t-106 18.5q-73 0 -116 -28.5t-76 -77.5l-101 65q37 71 112 122.5t189 51.5q60 0 119 -18t98.5 -40t94 -40t106.5 -18q51 0 91 17.5t59.5 37t42.5 51.5z" />
    <glyph glyph-name="hungarumlaut" unicode="&#x2dd;" horiz-adv-x="1173" 
d="M643 1905l-336 -308h-178l336 308h178zM1047 1905l-336 -308h-179l336 308h179z" />
    <glyph glyph-name="uni0326" unicode="&#x326;" horiz-adv-x="0" 
d="M-662 -119q56 0 91.5 -36t35.5 -95q0 -86 -45 -188t-122 -174l-56 47q61 70 88 120.5t35 106.5q-8 -8 -33 -8q-48 0 -81 32.5t-33 82.5q0 48 34 80t86 32z" />
    <glyph glyph-name="uni0394" unicode="&#x394;" horiz-adv-x="1783" 
d="M893 1470l858 -1470h-176h-1391h-151zM289 139h1206l-602 1049z" />
    <glyph glyph-name="uni03A9" unicode="&#x3a9;" horiz-adv-x="2039" 
d="M1892 743q0 -194 -88 -345t-252 -242h291v-156h-600v156q473 123 473 563q0 286 -186.5 442t-509.5 156q-322 0 -509 -156t-187 -442q0 -436 473 -563v-156h-600v156h290q-164 91 -252 242t-88 345q0 333 234 533.5t639 200.5t638.5 -200.5t233.5 -533.5z" />
    <glyph glyph-name="uni03BC" unicode="&#x3bc;" horiz-adv-x="1617" 
d="M1247 1116h168v-1116h-168v236q-79 -130 -215 -203.5t-303 -73.5q-223 0 -358 129v-498h-168v1526h168v-622q0 -190 94.5 -287.5t282.5 -97.5q166 0 295 77.5t204 229.5v700z" />
    <glyph glyph-name="pi" unicode="&#x3c0;" horiz-adv-x="1906" 
d="M1831 969h-399v-670q0 -94 48 -145.5t142 -51.5q61 0 109 23l43 -123q-84 -43 -189 -43q-136 0 -225.5 82.5t-89.5 228.5v699h-674v-969h-162v969h-397v147h559h836h399v-147z" />
    <glyph glyph-name="Wgrave" unicode="&#x1e80;" horiz-adv-x="2463" 
d="M801 1905h274l338 -308h-160zM2218 1434h184l-526 -1434h-182l-461 1227l-463 -1227h-182l-527 1434h189l432 -1225l465 1225h174l463 -1225z" />
    <glyph glyph-name="wgrave" unicode="&#x1e81;" horiz-adv-x="2023" 
d="M582 1587h274l338 -307h-160zM1788 1116h170l-418 -1116h-172l-354 934l-359 -934h-172l-417 1116h174l340 -926l352 926h164l352 -926z" />
    <glyph glyph-name="Wacute" unicode="&#x1e82;" horiz-adv-x="2463" 
d="M1667 1905l-453 -308h-159l338 308h274zM2218 1434h184l-526 -1434h-182l-461 1227l-463 -1227h-182l-527 1434h189l432 -1225l465 1225h174l463 -1225z" />
    <glyph glyph-name="wacute" unicode="&#x1e83;" horiz-adv-x="2023" 
d="M1448 1587l-453 -307h-159l338 307h274zM1788 1116h170l-418 -1116h-172l-354 934l-359 -934h-172l-417 1116h174l340 -926l352 926h164l352 -926z" />
    <glyph glyph-name="Wdieresis" unicode="&#x1e84;" horiz-adv-x="2463" 
d="M967 1624q-46 0 -77.5 29.5t-31.5 68.5q0 41 31.5 71t77.5 30q45 0 75.5 -30t30.5 -71q0 -39 -30.5 -68.5t-75.5 -29.5zM1499 1624q-46 0 -77 29.5t-31 68.5q0 41 31 71t77 30q45 0 76 -30t31 -71q0 -39 -31 -68.5t-76 -29.5zM2218 1434h184l-526 -1434h-182l-461 1227
l-463 -1227h-182l-527 1434h189l432 -1225l465 1225h174l463 -1225z" />
    <glyph glyph-name="wdieresis" unicode="&#x1e85;" horiz-adv-x="2023" 
d="M748 1307q-46 0 -77.5 29.5t-31.5 68.5q0 41 31.5 70.5t77.5 29.5q45 0 75.5 -29.5t30.5 -70.5q0 -39 -30.5 -68.5t-75.5 -29.5zM1280 1307q-46 0 -77.5 29.5t-31.5 68.5q0 41 31.5 70.5t77.5 29.5q45 0 75.5 -29.5t30.5 -70.5q0 -39 -30.5 -68.5t-75.5 -29.5zM1788 1116
h170l-418 -1116h-172l-354 934l-359 -934h-172l-417 1116h174l340 -926l352 926h164l352 -926z" />
    <glyph glyph-name="Ygrave" unicode="&#x1ef2;" horiz-adv-x="1685" 
d="M414 1905h274l338 -308h-160zM37 1434h207l602 -777l598 777h205l-719 -932v-502h-172v502z" />
    <glyph glyph-name="ygrave" unicode="&#x1ef3;" horiz-adv-x="1447" 
d="M293 1587h274l338 -307h-160zM1219 1116h184l-871 -1526h-182l289 488l-594 1038h188l496 -868z" />
    <glyph glyph-name="endash" unicode="&#x2013;" horiz-adv-x="1626" 
d="M1450 539h-1276v147h1276v-147z" />
    <glyph glyph-name="emdash" unicode="&#x2014;" horiz-adv-x="2070" 
d="M1894 539h-1720v147h1720v-147z" />
    <glyph glyph-name="quoteleft" unicode="&#x2018;" horiz-adv-x="538" 
d="M279 1036q-56 0 -91.5 36t-35.5 95q0 86 45 188.5t122 174.5l56 -47q-61 -70 -88 -121t-35 -107q9 9 33 9q48 0 81 -32.5t33 -82.5q0 -48 -34 -80.5t-86 -32.5z" />
    <glyph glyph-name="quoteright" unicode="&#x2019;" horiz-adv-x="538" 
d="M272 1475q56 0 91.5 -36.5t35.5 -95.5q0 -85 -45.5 -187.5t-122.5 -174.5l-55 47q61 70 88 120.5t35 106.5q-8 -8 -33 -8q-48 0 -81 32.5t-33 82.5q0 48 34 80.5t86 32.5z" />
    <glyph glyph-name="quotesinglbase" unicode="&#x201a;" horiz-adv-x="538" 
d="M272 207q56 0 91.5 -36t35.5 -95q0 -85 -45.5 -188t-122.5 -175l-55 47q61 70 88 121t35 107q-8 -8 -33 -8q-48 0 -81 32t-33 82q0 48 34 80.5t86 32.5z" />
    <glyph glyph-name="quotedblleft" unicode="&#x201c;" horiz-adv-x="843" 
d="M279 1028q-56 0 -91.5 36t-35.5 95q0 86 45 188.5t122 174.5l56 -47q-61 -70 -88 -121t-35 -107q8 8 33 8q48 0 81 -32t33 -82q0 -48 -34 -80.5t-86 -32.5zM584 1028q-56 0 -91.5 36t-35.5 95q0 85 45.5 188t122.5 175l55 -47q-61 -70 -88 -121t-35 -107q8 8 33 8
q48 0 81.5 -32t33.5 -82q0 -48 -34.5 -80.5t-86.5 -32.5z" />
    <glyph glyph-name="quotedblright" unicode="&#x201d;" horiz-adv-x="843" 
d="M272 1475q56 0 91.5 -36.5t35.5 -95.5q0 -85 -45.5 -187.5t-122.5 -174.5l-55 47q61 70 88 120.5t35 106.5q-8 -8 -33 -8q-48 0 -81 32.5t-33 82.5q0 48 34 80.5t86 32.5zM578 1475q56 0 91.5 -36.5t35.5 -95.5q0 -85 -45.5 -187.5t-122.5 -174.5l-56 47q61 70 88 120.5
t35 106.5q-8 -8 -33 -8q-48 0 -81 32.5t-33 82.5q0 48 34.5 80.5t86.5 32.5z" />
    <glyph glyph-name="quotedblbase" unicode="&#x201e;" horiz-adv-x="843" 
d="M272 207q56 0 91.5 -36t35.5 -95q0 -85 -45.5 -188t-122.5 -175l-55 47q61 70 88 121t35 107q-8 -8 -33 -8q-48 0 -81 32t-33 82q0 48 34 80.5t86 32.5zM578 207q56 0 91.5 -36t35.5 -95q0 -85 -45.5 -188t-122.5 -175l-56 47q61 70 88 121t35 107q-8 -8 -33 -8
q-48 0 -81 32t-33 82q0 48 34.5 80.5t86.5 32.5z" />
    <glyph glyph-name="dagger" unicode="&#x2020;" horiz-adv-x="890" 
d="M741 1266v-115h-237v-436h-123v436h-231v115h231v250h123v-250h237z" />
    <glyph glyph-name="daggerdbl" unicode="&#x2021;" horiz-adv-x="890" 
d="M741 1204h-237v-178h237v-111h-237v-200h-123v200h-231v111h231v178h-231v111h231v201h123v-201h237v-111z" />
    <glyph glyph-name="bullet" unicode="&#x2022;" horiz-adv-x="759" 
d="M381 385q-83 0 -141 54t-58 132q0 79 58 134t141 55t140 -54.5t57 -134.5q0 -78 -57 -132t-140 -54z" />
    <glyph glyph-name="ellipsis" unicode="&#x2026;" horiz-adv-x="1527" 
d="M262 -20q-54 0 -88.5 31.5t-34.5 80.5q0 50 34.5 82.5t88.5 32.5t88.5 -32.5t34.5 -82.5q0 -49 -34.5 -80.5t-88.5 -31.5zM764 -20q-54 0 -88.5 31.5t-34.5 80.5q0 50 34.5 82.5t88.5 32.5t88.5 -32.5t34.5 -82.5q0 -49 -34.5 -80.5t-88.5 -31.5zM1266 -20
q-54 0 -88.5 31.5t-34.5 80.5q0 50 34.5 82.5t88.5 32.5t88.5 -32.5t34.5 -82.5q0 -49 -34.5 -80.5t-88.5 -31.5z" />
    <glyph glyph-name="perthousand" unicode="&#x2030;" horiz-adv-x="2689" 
d="M449 811q-158 0 -258.5 94t-100.5 230q0 137 100 230t259 93t258.5 -93t99.5 -230q0 -136 -100 -230t-258 -94zM1411 1434h160l-1110 -1434h-160zM449 930q100 0 163.5 55t63.5 150t-63 149.5t-164 54.5t-164.5 -54.5t-63.5 -149.5t63.5 -150t164.5 -55zM1423 -25
q-158 0 -258 94t-100 230q0 138 100 231t258 93q159 0 259 -93t100 -231q0 -136 -100.5 -230t-258.5 -94zM2241 -25q-158 0 -258.5 94t-100.5 230q0 138 100 231t259 93q158 0 258 -93t100 -231q0 -136 -100 -230t-258 -94zM1423 94q101 0 164.5 55t63.5 150t-63.5 150
t-164.5 55q-100 0 -163.5 -55t-63.5 -150t63.5 -150t163.5 -55zM2241 94q100 0 163.5 55t63.5 150t-63.5 150t-163.5 55q-101 0 -164.5 -55t-63.5 -150t63.5 -150t164.5 -55z" />
    <glyph glyph-name="minute" unicode="&#x2032;" horiz-adv-x="579" 
d="M328 1434h161l-198 -539h-162z" />
    <glyph glyph-name="second" unicode="&#x2033;" horiz-adv-x="940" 
d="M328 1434h161l-198 -539h-162zM688 1434h162l-199 -539h-162z" />
    <glyph glyph-name="guilsinglleft" unicode="&#x2039;" horiz-adv-x="843" 
d="M528 1051l-432 -439l432 -438h189l-434 438l434 439h-189z" />
    <glyph glyph-name="guilsinglright" unicode="&#x203a;" horiz-adv-x="843" 
d="M315 1051h-188l434 -439l-434 -438h188l433 438z" />
    <glyph glyph-name="uni203D" unicode="&#x203d;" horiz-adv-x="1513" 
d="M791 1475q119 0 229 -26.5t198.5 -76.5t141.5 -129.5t53 -177.5q0 -118 -79 -205.5t-210 -134t-305 -59.5v-254h-151v379v436h151v-422q418 52 418 260q0 87 -67 147t-166 85.5t-220 25.5q-383 0 -573 -276l-133 83q109 160 293 252.5t420 92.5zM748 207q54 0 88 -32.5
t34 -82.5t-34 -81t-88 -31t-88.5 31.5t-34.5 80.5q0 50 34.5 82.5t88.5 32.5z" />
    <glyph glyph-name="fraction" unicode="&#x2044;" horiz-adv-x="421" 
d="M-174 0h-133l895 1434h133z" />
    <glyph glyph-name="uni2070" unicode="&#x2070;" horiz-adv-x="1112" 
d="M557 934q-220 0 -344.5 119t-124.5 325q0 205 124.5 325t344.5 120t344.5 -120t124.5 -325q0 -206 -124.5 -325t-344.5 -119zM557 1040q162 0 256 87.5t94 250.5q0 162 -94.5 250t-255.5 88q-162 0 -256 -88t-94 -250q0 -163 93.5 -250.5t256.5 -87.5z" />
    <glyph glyph-name="uni2074" unicode="&#x2074;" horiz-adv-x="1013" 
d="M958 1264v-99h-170v-207h-112v207h-631v74l641 557h102v-532h170zM207 1264h469v393z" />
    <glyph glyph-name="uni2075" unicode="&#x2075;" horiz-adv-x="978" 
d="M152 1184q73 -73 151.5 -110.5t192.5 -37.5q133 0 215 49.5t82 137.5q0 87 -79 130.5t-212 43.5q-159 0 -314 -76l-86 39l80 436h647v-100h-559l-51 -281q133 76 311 76q169 0 275 -69t106 -199q0 -128 -106 -208.5t-291 -80.5q-268 0 -442 178z" />
    <glyph glyph-name="uni2076" unicode="&#x2076;" horiz-adv-x="1040" 
d="M571 1495q113 0 198.5 -27.5t139.5 -91t54 -157.5q0 -125 -111.5 -205t-298.5 -80q-219 0 -343 119.5t-124 324.5q0 204 124.5 324.5t342.5 120.5q249 0 381 -148l-84 -67q-55 62 -124 89t-167 27q-162 0 -258 -86.5t-96 -259.5q0 -39 2 -55q52 81 153 126.5t211 45.5z
M553 1032q131 0 211 48.5t80 133.5q0 185 -291 185q-95 0 -185.5 -41t-144.5 -113q33 -107 119 -160t211 -53z" />
    <glyph glyph-name="uni2077" unicode="&#x2077;" horiz-adv-x="884" 
d="M254 958l453 736h-666v102h807v-82l-461 -756h-133z" />
    <glyph glyph-name="uni2078" unicode="&#x2078;" horiz-adv-x="1042" 
d="M705 1407q49 -6 91.5 -21t79.5 -41t58.5 -67t21.5 -94q0 -112 -120 -181t-314 -69t-315 69t-121 181q0 53 22 94.5t59.5 67t79.5 40.5t91 21q-95 6 -158 59t-63 138q0 68 56.5 118.5t147.5 75.5t201 25t200.5 -25t147 -75.5t56.5 -118.5q0 -85 -62.5 -138t-158.5 -59z
M233 1589q0 -141 289 -141q60 0 109 7t90.5 22.5t64.5 44t23 67.5q0 67 -83 103.5t-204 36.5q-122 0 -205.5 -36.5t-83.5 -103.5zM520 1028q139 0 228.5 45t89.5 123q0 86 -86.5 126t-231.5 40t-230 -40t-85 -126q0 -78 88.5 -123t226.5 -45z" />
    <glyph glyph-name="uni2079" unicode="&#x2079;" horiz-adv-x="1040" 
d="M471 1821q218 0 342.5 -120t124.5 -325q0 -204 -124.5 -324t-342.5 -120q-250 0 -381 147l84 68q55 -62 124 -89.5t167 -27.5q162 0 258 86.5t96 259.5q0 40 -2 56q-52 -81 -153 -126.5t-211 -45.5q-113 0 -198.5 27.5t-139.5 91t-54 157.5q0 125 111.5 205t298.5 80z
M471 1356q95 0 185.5 40.5t144.5 112.5q-33 107 -119 160t-211 53q-131 0 -211 -48.5t-80 -133.5q0 -184 291 -184z" />
    <glyph glyph-name="uni20A8" unicode="&#x20a8;" horiz-adv-x="1843" 
d="M1737 1434v-134h-383q115 -95 133 -245h250v-133h-252q-22 -151 -136 -249t-294 -124l481 -549h-193l-466 539h-707v133h743q185 0 292.5 62.5t129.5 187.5h-1165v133h1165q-46 245 -422 245h-743v134h1567z" />
    <glyph glyph-name="Euro" unicode="&#x20ac;" horiz-adv-x="1861" 
d="M1079 117q185 0 309 68.5t209 203.5l146 -84q-66 -100 -153.5 -174.5t-220 -124t-288.5 -49.5q-312 0 -509.5 149t-252.5 414h-221v115h207q-4 54 -4 82t4 82h-207v114h221q55 266 252.5 415t509.5 149q156 0 288.5 -49.5t220 -124.5t153.5 -175l-146 -84
q-85 136 -209.5 204.5t-308.5 68.5q-235 0 -383.5 -103t-195.5 -301h872v-114h-891q-4 -54 -4 -82t4 -82h891v-115h-872q47 -197 195.5 -300t383.5 -103z" />
    <glyph glyph-name="uni2113" unicode="&#x2113;" horiz-adv-x="1165" 
d="M707 94q157 0 229 131l108 -69q-45 -96 -140.5 -146.5t-205.5 -50.5q-54 0 -105 12.5t-99 41t-83.5 71t-57 108t-21.5 146.5v41q-106 -47 -223 -94l-41 110q141 58 264 115v668q0 81 22 146.5t58 107.5t84 71t98.5 41t103.5 12q67 0 128.5 -20.5t116 -63.5t87.5 -120
t33 -178q0 -406 -408 -639q-63 -36 -176 -91v-96q0 -72 18.5 -123.5t52 -79t72 -39.5t85.5 -12zM479 1167v-589q145 76 158 84q143 89 210.5 222.5t67.5 282.5q0 72 -18 123.5t-49.5 79t-68 39.5t-81.5 12t-82 -12t-69 -39.5t-50 -79t-18 -123.5z" />
    <glyph glyph-name="uni2117" unicode="&#x2117;" horiz-adv-x="2002" 
d="M1001 -43q-404 0 -637 206.5t-233 553.5t233 553.5t637 206.5t637.5 -206.5t233.5 -553.5t-233.5 -553.5t-637.5 -206.5zM1001 29q241 0 419 79.5t276 235.5t98 373t-98 373t-276 235.5t-419 79.5t-419 -79.5t-276.5 -235.5t-98.5 -373t98.5 -373t276.5 -235.5t419 -79.5
zM1180 1204q185 0 297 -82t112 -233q0 -153 -111.5 -234.5t-297.5 -81.5h-504v-340h-139v971h643zM1169 696q136 0 208.5 45t72.5 148q0 192 -281 192h-493v-385h493z" />
    <glyph glyph-name="trademark" unicode="&#x2122;" horiz-adv-x="1992" 
d="M819 1434v-103h-311v-598h-111v598h-311v103h733zM1690 1434h106v-701h-106v543l-328 -414h-6l-326 414v-543h-104v701h110l324 -422z" />
    <glyph glyph-name="estimated" unicode="&#x212e;" horiz-adv-x="1898" 
d="M518 674v-508q176 -111 445 -111q436 0 673 301l78 -69q-264 -330 -751 -330q-386 0 -609 205t-223 555t223 555t609 205q380 0 601 -215t230 -588h-1276zM1405 1257q-177 121 -442 121q-271 0 -445 -110v-500h887v489z" />
    <glyph glyph-name="oneeighth" unicode="&#x215b;" horiz-adv-x="2138" 
d="M297 596v692q-91 -76 -246 -100v102q72 10 144 49t131 95h88v-838h-117zM475 0h-133l895 1434h133zM1800 449q49 -6 91.5 -21.5t80 -41t59 -67t21.5 -94.5q0 -112 -120 -181t-314 -69t-315 69t-121 181q0 53 22 94.5t59.5 67t79.5 41t91 21.5q-95 6 -158.5 58.5
t-63.5 137.5q0 68 57 118.5t148 75.5t201 25q109 0 199.5 -25t147 -75.5t56.5 -118.5q0 -85 -62.5 -137.5t-158.5 -58.5zM1329 631q0 -52 42 -85t103.5 -45t143.5 -12q81 0 142 12t103 45t42 85q0 67 -83 103t-204 36q-122 0 -205.5 -36t-83.5 -103zM1616 70q139 0 228 45
t89 123q0 86 -86 125.5t-231 39.5t-230.5 -39.5t-85.5 -125.5q0 -78 88.5 -123t227.5 -45z" />
    <glyph glyph-name="threeeighths" unicode="&#x215c;" horiz-adv-x="2502" 
d="M168 825q98 -153 326 -153q122 0 205 45t83 125q0 53 -41.5 88t-107 49t-154.5 14h-106v94h106q56 0 103 7t87 21.5t62.5 41t22.5 62.5q0 48 -40.5 80.5t-99.5 46.5t-129 14q-200 0 -295 -135l-92 55q47 82 156.5 131t243.5 49q98 0 181.5 -25t138 -77.5t54.5 -122.5
q0 -80 -62 -133.5t-146 -59.5q43 -6 83 -20.5t77 -39t59 -64t22 -89.5q0 -118 -115 -188t-292 -70q-144 0 -259 57t-171 152zM854 0h-133l895 1434h133zM2165 449q49 -6 91.5 -21.5t80 -41t59 -67t21.5 -94.5q0 -112 -120.5 -181t-314.5 -69t-315 69t-121 181q0 53 22 94.5
t59.5 67t79.5 41t91 21.5q-95 6 -158 58.5t-63 137.5q0 68 56.5 118.5t147.5 75.5t201 25t200.5 -25t147 -75.5t56.5 -118.5q0 -85 -62.5 -137.5t-158.5 -58.5zM1694 631q0 -52 42 -85t103 -45t143 -12q81 0 142 12t103 45t42 85q0 67 -83 103t-204 36q-122 0 -205 -36
t-83 -103zM1980 70q139 0 228.5 45t89.5 123q0 58 -43 96t-112 53.5t-163 15.5q-145 0 -230 -39.5t-85 -125.5q0 -78 88.5 -123t226.5 -45z" />
    <glyph glyph-name="fiveeighths" unicode="&#x215d;" horiz-adv-x="2476" 
d="M152 821q72 -72 151 -109.5t193 -37.5q133 0 215 49.5t82 136.5t-79 130.5t-212 43.5q-159 0 -314 -76l-86 39l80 437h647v-101h-559l-51 -280q132 75 311 75q169 0 275 -69t106 -199q0 -128 -106 -208.5t-291 -80.5q-267 0 -442 179zM827 0h-133l895 1434h133zM2138 449
q49 -6 91.5 -21.5t80 -41t59 -67t21.5 -94.5q0 -112 -120 -181t-314 -69t-315 69t-121 181q0 53 22 94.5t59.5 67t79.5 41t91 21.5q-95 6 -158.5 58.5t-63.5 137.5q0 68 57 118.5t148 75.5t201 25q109 0 199.5 -25t147 -75.5t56.5 -118.5q0 -85 -62.5 -137.5t-158.5 -58.5z
M1667 631q0 -52 42 -85t103.5 -45t143.5 -12q81 0 142 12t103 45t42 85q0 67 -83 103t-204 36q-122 0 -205.5 -36t-83.5 -103zM1954 70q139 0 228 45t89 123q0 86 -86 125.5t-231 39.5t-230.5 -39.5t-85.5 -125.5q0 -78 88.5 -123t227.5 -45z" />
    <glyph glyph-name="seveneighths" unicode="&#x215e;" horiz-adv-x="2205" 
d="M254 596l453 735h-666v103h807v-82l-461 -756h-133zM557 0h-133l895 1434h133zM1868 449q49 -6 91.5 -21.5t80 -41t59 -67t21.5 -94.5q0 -112 -120 -181t-314 -69t-315.5 69t-121.5 181q0 53 22 94.5t59.5 67t79.5 41t91 21.5q-95 6 -158 58.5t-63 137.5q0 68 57 118.5
t148 75.5t201 25q109 0 199.5 -25t147 -75.5t56.5 -118.5q0 -85 -62.5 -137.5t-158.5 -58.5zM1397 631q0 -52 42 -85t103.5 -45t143.5 -12q60 0 108.5 7t90 23t64.5 44.5t23 67.5q0 67 -82.5 103t-203.5 36q-122 0 -205.5 -36t-83.5 -103zM1683 70q139 0 228.5 45t89.5 123
q0 86 -86.5 125.5t-231.5 39.5t-230 -39.5t-85 -125.5q0 -78 88.5 -123t226.5 -45z" />
    <glyph glyph-name="arrowleft" unicode="&#x2190;" horiz-adv-x="1982" 
d="M1763 827v-159h-1323l533 -516l-107 -107l-700 703l700 700l107 -107l-533 -514h1323z" />
    <glyph glyph-name="arrowup" unicode="&#x2191;" horiz-adv-x="1982" 
d="M1694 815l-107 -106l-516 532v-1323h-160v1323l-514 -532l-106 106l700 701z" />
    <glyph glyph-name="arrowright" unicode="&#x2192;" horiz-adv-x="1982" 
d="M1116 1448l701 -700l-701 -703l-106 107l532 516h-1323v159h1323l-532 514z" />
    <glyph glyph-name="arrowdown" unicode="&#x2193;" horiz-adv-x="1982" 
d="M1587 725l107 -107l-703 -700l-700 700l106 107l514 -532v1323h160v-1323z" />
    <glyph glyph-name="uni2196" unicode="&#x2196;" horiz-adv-x="1984" 
d="M1640 221l-106 -106l-936 934v-742h-143v991h991v-143h-741z" />
    <glyph glyph-name="uni2197" unicode="&#x2197;" horiz-adv-x="1984" 
d="M539 1298h991v-991h-144v742l-935 -934l-107 106l936 934h-741v143z" />
    <glyph glyph-name="uni2198" unicode="&#x2198;" horiz-adv-x="1984" 
d="M1386 1133h144v-992h-991v144h741l-936 934l107 106l935 -934v742z" />
    <glyph glyph-name="uni2199" unicode="&#x2199;" horiz-adv-x="1984" 
d="M1640 1219l-935 -934h741v-144h-991v992h143v-742l936 934z" />
    <glyph glyph-name="partialdiff" unicode="&#x2202;" horiz-adv-x="1595" 
d="M1477 606q0 -649 -678 -649q-317 0 -498.5 159.5t-181.5 432.5q0 177 83 310.5t223 202t316 68.5q86 0 165 -14t156.5 -44.5t139.5 -88.5t98 -137q-26 96 -86 178.5t-161.5 155t-258.5 126.5t-360 85l27 145q217 -34 385.5 -94t287 -142t195.5 -189t112.5 -231.5
t35.5 -273.5zM797 106q112 0 204.5 27.5t161.5 81.5t107.5 139t38.5 195q0 109 -38.5 193.5t-107.5 138t-161.5 81t-204.5 27.5q-229 0 -369.5 -112.5t-140.5 -327.5q0 -216 140.5 -329.5t369.5 -113.5z" />
    <glyph glyph-name="emptyset" unicode="&#x2205;" horiz-adv-x="1605" 
d="M1470 1284l-165 -166q139 -145 139 -389q0 -266 -168.5 -418.5t-472.5 -152.5q-213 0 -367 80l-194 -199l-107 98l184 185q-157 151 -157 407q0 266 169 418.5t472 152.5q232 0 391 -92l170 174zM326 729q0 -189 106 -295l361 363l288 295q-108 57 -278 57
q-228 0 -352.5 -106t-124.5 -314zM1280 729q0 172 -88 277l-301 -304l-340 -348q104 -43 252 -43q229 0 353 105t124 313z" />
    <glyph glyph-name="product" unicode="&#x220f;" horiz-adv-x="1744" 
d="M1507 1434v-1680h-159v1532h-951v-1532h-159v1680h1269z" />
    <glyph glyph-name="summation" unicode="&#x2211;" horiz-adv-x="1433" 
d="M1321 1286h-981l723 -633v-98l-729 -653h993v-148h-1239v125l803 725l-797 705v125h1227v-148z" />
    <glyph glyph-name="minus" unicode="&#x2212;" horiz-adv-x="1515" 
d="M1335 535h-1153v155h1153v-155z" />
    <glyph glyph-name="radical" unicode="&#x221a;" horiz-adv-x="1511" 
d="M1323 1434h168l-690 -1680h-142l-395 871h-211v149h248h66l358 -807z" />
    <glyph glyph-name="infinity" unicode="&#x221e;" horiz-adv-x="2111" 
d="M1534 1001q188 0 313 -109.5t125 -291.5t-125 -291.5t-313 -109.5q-81 0 -151.5 22t-129.5 66t-103 88.5t-95 109.5q-50 -64 -94.5 -109.5t-103.5 -88.5t-130 -65.5t-152 -22.5q-188 0 -313 109.5t-125 291.5t125 291.5t313 109.5q81 0 152 -22.5t130 -65.5t103.5 -88.5
t94.5 -109.5q51 65 95 109.5t103 88.5t129.5 66t151.5 22zM578 334q62 0 116.5 20t104 61.5t85.5 81.5t85 103q-49 63 -85 103t-85.5 81.5t-104 61.5t-116.5 20q-126 0 -209.5 -70t-83.5 -196t83.5 -196t209.5 -70zM1532 334q127 0 210 70t83 196t-83 196t-210 70
q-62 0 -116.5 -20t-103.5 -62t-84.5 -81t-84.5 -103q49 -64 84.5 -103t84.5 -81t103.5 -62t116.5 -20z" />
    <glyph glyph-name="integral" unicode="&#x222b;" horiz-adv-x="829" 
d="M664 1556q84 0 149 -22l-29 -127q-40 12 -73 12q-95 0 -155 -51t-60 -149v-1031v-198q0 -149 -96 -233.5t-234 -84.5q-82 0 -150 23l29 127q41 -12 74 -12q95 0 155 51t60 149v1030v199q0 148 96 232.5t234 84.5z" />
    <glyph glyph-name="approxequal" unicode="&#x2248;" horiz-adv-x="1513" 
d="M1249 977l101 -90q-44 -70 -127.5 -120t-202.5 -50q-65 0 -138 18.5t-127.5 40t-125 40t-131.5 18.5q-160 0 -226 -111l-100 90q44 70 126.5 120t199.5 50q66 0 139 -18.5t128 -40t126 -40t133 -18.5q155 0 225 111zM1249 502l101 -90q-44 -70 -127.5 -120t-202.5 -50
q-65 0 -138 18t-127.5 40t-125 40t-131.5 18q-161 0 -226 -110l-100 90q44 70 126.5 120t199.5 50q66 0 139 -18.5t128 -40t126 -40t133 -18.5q155 0 225 111z" />
    <glyph glyph-name="notequal" unicode="&#x2260;" horiz-adv-x="1515" 
d="M1335 782h-415l-177 -325h592v-156h-676l-133 -248h-147l133 248h-330v156h414l176 325h-590v156h672l133 246h148l-134 -246h334v-156z" />
    <glyph glyph-name="lessequal" unicode="&#x2264;" horiz-adv-x="1515" 
d="M1276 1284l-1065 -426v-135l1065 -426v152l-889 342l889 342v151zM211 45v135h1065v-135h-1065z" />
    <glyph glyph-name="greaterequal" unicode="&#x2265;" horiz-adv-x="1515" 
d="M240 1284v-151l888 -342l-888 -342v-152l1065 426v135zM1305 45h-1065v135h1065v-135z" />
    <glyph glyph-name="lozenge" unicode="&#x25ca;" horiz-adv-x="1503" 
d="M852 1434l575 -705l-575 -729h-199l-575 729l575 705h199zM754 123l485 606l-485 586l-488 -586z" />
    <glyph glyph-name="germandbls.case" horiz-adv-x="1742" 
d="M676 178q166 -59 364 -59q196 0 304 70t108 217q0 286 -408 286h-258v135h189q192 0 294.5 63t102.5 189q0 252 -436 252q-268 0 -411.5 -132.5t-143.5 -354.5v-844h-172v829q0 137 47.5 254t137 205.5t228.5 138.5t312 50q120 0 227.5 -23t194.5 -68t138.5 -120.5
t51.5 -171.5q0 -128 -83 -214.5t-238 -107.5q86 -7 157.5 -33t127.5 -71t87 -116.5t31 -162.5q0 -193 -151 -305.5t-400 -112.5q-114 0 -234.5 22.5t-207.5 51.5z" />
    <glyph glyph-name="a.ss01" horiz-adv-x="1634" 
d="M725 1157q181 0 321 -68t218 -188v215h168v-1116h-168v215q-78 -120 -218 -188t-321 -68q-278 0 -442 163.5t-164 434.5q0 272 164 436t442 164zM768 109q339 0 496 272v354q-158 273 -496 273q-230 0 -354.5 -117t-124.5 -334q0 -215 124.5 -331.5t354.5 -116.5z" />
    <glyph glyph-name="aacute.ss01" horiz-adv-x="1634" 
d="M1257 1587l-452 -307h-160l338 307h274zM725 1157q181 0 321 -68t218 -188v215h168v-1116h-168v215q-78 -120 -218 -188t-321 -68q-278 0 -442 163.5t-164 434.5q0 272 164 436t442 164zM768 109q339 0 496 272v354q-158 273 -496 273q-230 0 -354.5 -117t-124.5 -334
q0 -215 124.5 -331.5t354.5 -116.5z" />
    <glyph glyph-name="abreve.ss01" horiz-adv-x="1634" 
d="M1178 1587q0 -37 -10.5 -77.5t-37 -84t-65 -77.5t-101 -56t-139.5 -22t-139.5 22t-101 56t-64.5 78t-36.5 84t-10.5 77h141q3 -75 59.5 -130.5t151.5 -55.5q94 0 150.5 56t58.5 130h144zM725 1157q181 0 321 -68t218 -188v215h168v-1116h-168v215q-78 -120 -218 -188
t-321 -68q-278 0 -442 163.5t-164 434.5q0 272 164 436t442 164zM768 109q339 0 496 272v354q-158 273 -496 273q-230 0 -354.5 -117t-124.5 -334q0 -215 124.5 -331.5t354.5 -116.5z" />
    <glyph glyph-name="acircumflex.ss01" horiz-adv-x="1634" 
d="M410 1280h194l217 211l219 -211h195l-320 307h-186zM725 1157q181 0 321 -68t218 -188v215h168v-1116h-168v215q-78 -120 -218 -188t-321 -68q-278 0 -442 163.5t-164 434.5q0 272 164 436t442 164zM768 109q339 0 496 272v354q-158 273 -496 273q-230 0 -354.5 -117
t-124.5 -334q0 -215 124.5 -331.5t354.5 -116.5z" />
    <glyph glyph-name="adieresis.ss01" horiz-adv-x="1634" 
d="M557 1307q-46 0 -77 29.5t-31 68.5q0 41 31 70.5t77 29.5q45 0 76 -30t31 -70q0 -39 -31 -68.5t-76 -29.5zM1090 1307q-46 0 -77.5 29.5t-31.5 68.5q0 41 31.5 70.5t77.5 29.5q45 0 75.5 -29.5t30.5 -70.5q0 -39 -30.5 -68.5t-75.5 -29.5zM725 1157q181 0 321 -68
t218 -188v215h168v-1116h-168v215q-78 -120 -218 -188t-321 -68q-278 0 -442 163.5t-164 434.5q0 272 164 436t442 164zM768 109q339 0 496 272v354q-158 273 -496 273q-230 0 -354.5 -117t-124.5 -334q0 -215 124.5 -331.5t354.5 -116.5z" />
    <glyph glyph-name="agrave.ss01" horiz-adv-x="1634" 
d="M391 1587h275l338 -307h-160zM725 1157q181 0 321 -68t218 -188v215h168v-1116h-168v215q-78 -120 -218 -188t-321 -68q-278 0 -442 163.5t-164 434.5q0 272 164 436t442 164zM768 109q339 0 496 272v354q-158 273 -496 273q-230 0 -354.5 -117t-124.5 -334
q0 -215 124.5 -331.5t354.5 -116.5z" />
    <glyph glyph-name="amacron.ss01" horiz-adv-x="1634" 
d="M428 1473h791v-142h-791v142zM725 1157q181 0 321 -68t218 -188v215h168v-1116h-168v215q-78 -120 -218 -188t-321 -68q-278 0 -442 163.5t-164 434.5q0 272 164 436t442 164zM768 109q339 0 496 272v354q-158 273 -496 273q-230 0 -354.5 -117t-124.5 -334
q0 -215 124.5 -331.5t354.5 -116.5z" />
    <glyph glyph-name="aogonek.ss01" horiz-adv-x="1634" 
d="M1499 -365l41 -57q-94 -80 -227 -80q-70 0 -129.5 20.5t-100.5 69.5t-41 119q0 98 65 176t173 117h-16v215q-78 -120 -218 -188t-321 -68q-278 0 -442 163.5t-164 434.5q0 272 164 436t442 164q181 0 321 -68t218 -188v215h168v-1116h-2q-104 -37 -175 -112.5t-71 -163.5
q0 -69 44.5 -103.5t112.5 -34.5q83 0 158 49zM1264 381v354q-158 273 -496 273q-230 0 -354.5 -117t-124.5 -334q0 -215 124.5 -331.5t354.5 -116.5q339 0 496 272z" />
    <glyph glyph-name="aring.ss01" horiz-adv-x="1634" 
d="M823 1266q-114 0 -189 57t-75 162q0 104 75.5 161.5t188.5 57.5t188.5 -57.5t75.5 -161.5q0 -105 -75 -162t-189 -57zM682 1485q0 -60 38.5 -92.5t104.5 -32.5q65 0 104.5 32.5t39.5 92.5t-39.5 92.5t-104.5 32.5q-66 0 -104.5 -32.5t-38.5 -92.5zM725 1157
q181 0 321 -68t218 -188v215h168v-1116h-168v215q-78 -120 -218 -188t-321 -68q-278 0 -442 163.5t-164 434.5q0 272 164 436t442 164zM768 109q339 0 496 272v354q-158 273 -496 273q-230 0 -354.5 -117t-124.5 -334q0 -215 124.5 -331.5t354.5 -116.5z" />
    <glyph glyph-name="aringacute.ss01" horiz-adv-x="1634" 
d="M823 1266q-114 0 -189 57t-75 162q0 103 78 164l262 258h193l-256 -203q110 -3 180.5 -60t70.5 -159q0 -105 -75 -162t-189 -57zM969 1485q0 60 -39.5 92.5t-104.5 32.5q-66 0 -104.5 -32.5t-38.5 -92.5t38.5 -92.5t104.5 -32.5q65 0 104.5 32.5t39.5 92.5zM1264 1116
h168v-1116h-168v215q-78 -120 -218 -188t-321 -68q-278 0 -442 163.5t-164 434.5q0 272 164 436t442 164q181 0 321 -68t218 -188v215zM1264 381v354q-158 273 -496 273q-230 0 -354.5 -117t-124.5 -334q0 -215 124.5 -331.5t354.5 -116.5q339 0 496 272z" />
    <glyph glyph-name="atilde.ss01" horiz-adv-x="1634" 
d="M1229 1563l100 -66q-37 -71 -112.5 -122.5t-188.5 -51.5q-61 0 -120 18.5t-98.5 40t-93.5 40t-106 18.5q-51 0 -91 -17.5t-59.5 -38t-41.5 -51.5l-101 66q37 71 112 122.5t189 51.5q60 0 119 -18.5t98.5 -40t94 -40t106.5 -18.5q51 0 91 18t59.5 37.5t42.5 51.5z
M725 1157q181 0 321 -68t218 -188v215h168v-1116h-168v215q-78 -120 -218 -188t-321 -68q-278 0 -442 163.5t-164 434.5q0 272 164 436t442 164zM768 109q339 0 496 272v354q-158 273 -496 273q-230 0 -354.5 -117t-124.5 -334q0 -215 124.5 -331.5t354.5 -116.5z" />
    <glyph glyph-name="a.sc" horiz-adv-x="1693" 
d="M1458 0l-180 319h-864l-183 -319h-190l711 1239h192l709 -1239h-195zM500 473h690l-344 608z" />
    <glyph glyph-name="aacute.sc" horiz-adv-x="1693" 
d="M1282 1710l-453 -307h-159l338 307h274zM1458 0l-180 319h-864l-183 -319h-190l711 1239h192l709 -1239h-195zM500 473h690l-344 608z" />
    <glyph glyph-name="abreve.sc" horiz-adv-x="1693" 
d="M850 1393q-77 0 -139.5 22t-101 56t-64.5 78t-36.5 84t-10.5 77h141q3 -75 59.5 -130.5t151.5 -55.5q94 0 150.5 56t58.5 130h143q0 -37 -10.5 -77t-36.5 -84t-64.5 -78t-101 -56t-139.5 -22zM1458 0l-180 319h-864l-183 -319h-190l711 1239h192l709 -1239h-195zM500 473
h690l-344 608z" />
    <glyph glyph-name="acircumflex.sc" horiz-adv-x="1693" 
d="M846 1614l-217 -211h-195l320 307h186l320 -307h-195zM1458 0l-180 319h-864l-183 -319h-190l711 1239h192l709 -1239h-195zM500 473h690l-344 608z" />
    <glyph glyph-name="adieresis.sc" horiz-adv-x="1693" 
d="M582 1430q-46 0 -77.5 29.5t-31.5 68.5q0 41 31.5 70.5t77.5 29.5q45 0 75.5 -29.5t30.5 -70.5q0 -39 -30.5 -68.5t-75.5 -29.5zM1114 1430q-46 0 -77 29.5t-31 68.5q0 41 31 70.5t77 29.5q45 0 76 -30t31 -70q0 -39 -31 -68.5t-76 -29.5zM1458 0l-180 319h-864
l-183 -319h-190l711 1239h192l709 -1239h-195zM500 473h690l-344 608z" />
    <glyph glyph-name="agrave.sc" horiz-adv-x="1693" 
d="M1028 1403h-160l-452 307h274zM1458 0l-180 319h-864l-183 -319h-190l711 1239h192l709 -1239h-195zM500 473h690l-344 608z" />
    <glyph glyph-name="amacron.sc" horiz-adv-x="1693" 
d="M1243 1595v-141h-790v141h790zM1458 0l-180 319h-864l-183 -319h-190l711 1239h192l709 -1239h-195zM500 473h690l-344 608z" />
    <glyph glyph-name="aogonek.sc" horiz-adv-x="1693" 
d="M1720 -365l41 -57q-94 -80 -227 -80q-70 0 -129.5 20.5t-100 69.5t-40.5 119q0 98 64.5 176t172.5 117h-43l-180 319h-864l-183 -319h-190l711 1239h192l709 -1239h-2q-104 -37 -175 -112.5t-71 -163.5q0 -69 45 -103.5t113 -34.5q82 0 157 49zM500 473h690l-344 608z
" />
    <glyph glyph-name="aring.sc" horiz-adv-x="1693" 
d="M848 1389q-114 0 -189 57t-75 162q0 104 75.5 161.5t188.5 57.5t188.5 -57.5t75.5 -161.5q0 -105 -75 -162t-189 -57zM850 1733q-66 0 -104.5 -32.5t-38.5 -92.5t38.5 -92.5t104.5 -32.5q65 0 104 32.5t39 92.5t-39 92.5t-104 32.5zM1458 0l-180 319h-864l-183 -319h-190
l711 1239h192l709 -1239h-195zM500 473h690l-344 608z" />
    <glyph glyph-name="aringacute.sc" horiz-adv-x="1693" 
d="M848 1389q-114 0 -189 57t-75 162q0 103 78 164l262 258h192l-256 -203q110 -3 181 -60t71 -159q0 -105 -75 -162t-189 -57zM993 1608q0 60 -39 92.5t-104 32.5q-66 0 -104.5 -32.5t-38.5 -92.5t38.5 -92.5t104.5 -32.5q65 0 104 32.5t39 92.5zM1458 0l-180 319h-864
l-183 -319h-190l711 1239h192l709 -1239h-195zM500 473h690l-344 608z" />
    <glyph glyph-name="atilde.sc" horiz-adv-x="1693" 
d="M635 1563q-73 0 -116 -29t-77 -78l-100 66q37 71 112 122.5t189 51.5q60 0 119 -18.5t98.5 -40t94 -40t106.5 -18.5q39 0 70 8.5t54 26.5t37 33t31 39l101 -66q-37 -71 -112.5 -122.5t-188.5 -51.5q-61 0 -120 18.5t-98.5 40t-93.5 40t-106 18.5zM1458 0l-180 319h-864
l-183 -319h-190l711 1239h192l709 -1239h-195zM500 473h690l-344 608z" />
    <glyph glyph-name="ae.sc" horiz-adv-x="2605" 
d="M1391 156h1091v-156h-1263v303h-736l-278 -303h-209l1134 1239h117h1217v-156h-1073v-376h886v-154h-886v-397zM627 459h592v645z" />
    <glyph glyph-name="aeacute.sc" horiz-adv-x="2605" 
d="M2198 1710l-453 -307h-160l338 307h275zM1391 156h1091v-156h-1263v303h-736l-278 -303h-209l1134 1239h117h1217v-156h-1073v-376h886v-154h-886v-397zM627 459h592v645z" />
    <glyph glyph-name="b.sc" horiz-adv-x="1751" 
d="M1278 649q71 -5 131 -24.5t109.5 -55t77.5 -93.5t28 -134q0 -165 -130.5 -253.5t-360.5 -88.5h-908v1239h834q230 0 360.5 -78.5t130.5 -228.5q0 -112 -73.5 -191.5t-198.5 -91.5zM395 1092v-375h639q174 0 259 40t85 146q0 105 -86 147t-258 42h-639zM1102 147
q172 0 258 46.5t86 162.5q0 119 -86 166t-258 47h-707v-422h707z" />
    <glyph glyph-name="c.sc" horiz-adv-x="1673" 
d="M913 119q171 0 302 56t204 171l160 -80q-94 -142 -266 -224.5t-404 -82.5q-361 0 -571.5 178.5t-210.5 480.5q0 304 211.5 483t576.5 179q226 0 397 -84.5t265 -224.5l-160 -80q-73 114 -204 171.5t-300 57.5q-282 0 -446 -129t-164 -373q0 -242 164 -370.5t446 -128.5z
" />
    <glyph glyph-name="cacute.sc" horiz-adv-x="1673" 
d="M1337 1712l-452 -307h-160l338 307h274zM913 119q171 0 302 56t204 171l160 -80q-94 -142 -266 -224.5t-404 -82.5q-361 0 -571.5 178.5t-210.5 480.5q0 304 211.5 483t576.5 179q226 0 397 -84.5t265 -224.5l-160 -80q-73 114 -204 171.5t-300 57.5q-282 0 -446 -129
t-164 -373q0 -242 164 -370.5t446 -128.5z" />
    <glyph glyph-name="ccaron.sc" horiz-adv-x="1673" 
d="M489 1712l320 -307h186l320 307h-195l-219 -211l-217 211h-195zM913 119q171 0 302 56t204 171l160 -80q-94 -142 -266 -224.5t-404 -82.5q-361 0 -571.5 178.5t-210.5 480.5q0 304 211.5 483t576.5 179q226 0 397 -84.5t265 -224.5l-160 -80q-73 114 -204 171.5
t-300 57.5q-282 0 -446 -129t-164 -373q0 -242 164 -370.5t446 -128.5z" />
    <glyph glyph-name="ccedilla.sc" horiz-adv-x="1673" 
d="M913 119q171 0 302 56t204 171l160 -80q-94 -142 -266 -224.5t-404 -82.5q-361 0 -571.5 178.5t-210.5 480.5q0 304 211.5 483t576.5 179q226 0 397 -84.5t265 -224.5l-160 -80q-73 114 -204 171.5t-300 57.5q-282 0 -446 -129t-164 -373q0 -242 164 -370.5t446 -128.5z
M971 -106l-244 -324l-141 37l211 319z" />
    <glyph glyph-name="ccircumflex.sc" horiz-adv-x="1673" 
d="M489 1405h195l217 211l219 -211h195l-320 307h-186zM913 119q171 0 302 56t204 171l160 -80q-94 -142 -266 -224.5t-404 -82.5q-361 0 -571.5 178.5t-210.5 480.5q0 304 211.5 483t576.5 179q226 0 397 -84.5t265 -224.5l-160 -80q-73 114 -204 171.5t-300 57.5
q-282 0 -446 -129t-164 -373q0 -242 164 -370.5t446 -128.5z" />
    <glyph glyph-name="cdotaccent.sc" horiz-adv-x="1673" 
d="M903 1432q-44 0 -71 24t-27 62q0 40 27 64t71 24q43 0 69.5 -24t26.5 -64q0 -38 -26.5 -62t-69.5 -24zM913 119q171 0 302 56t204 171l160 -80q-94 -142 -266 -224.5t-404 -82.5q-361 0 -571.5 178.5t-210.5 480.5q0 304 211.5 483t576.5 179q226 0 397 -84.5t265 -224.5
l-160 -80q-73 114 -204 171.5t-300 57.5q-282 0 -446 -129t-164 -373q0 -242 164 -370.5t446 -128.5z" />
    <glyph glyph-name="d.sc" horiz-adv-x="1771" 
d="M862 1239q359 0 571 -167.5t212 -453.5q0 -285 -212 -451.5t-571 -166.5h-637v1239h637zM850 160q185 0 321.5 48.5t216.5 153t80 256.5t-80 257.5t-216.5 154.5t-321.5 49h-453v-919h453z" />
    <glyph glyph-name="eth.sc" horiz-adv-x="1796" 
d="M887 1239q359 0 570.5 -167.5t211.5 -453.5q0 -285 -211.5 -451.5t-570.5 -166.5h-637v561h-193v141h193v537h637zM874 160q137 0 249.5 28t195.5 83.5t128.5 144t45.5 202.5q0 115 -45.5 203.5t-128.5 144.5t-195.5 84.5t-249.5 28.5h-452v-377h418v-141h-418v-401h452z
" />
    <glyph glyph-name="dcaron.sc" horiz-adv-x="1771" 
d="M457 1710l319 -307h187l319 307h-195l-219 -211l-217 211h-194zM862 1239q359 0 571 -167.5t212 -453.5q0 -285 -212 -451.5t-571 -166.5h-637v1239h637zM850 160q185 0 321.5 48.5t216.5 153t80 256.5t-80 257.5t-216.5 154.5t-321.5 49h-453v-919h453z" />
    <glyph glyph-name="dcroat.sc" horiz-adv-x="1796" 
d="M887 1239q359 0 570.5 -167.5t211.5 -453.5q0 -285 -211.5 -451.5t-570.5 -166.5h-637v561h-193v141h193v537h637zM874 160q137 0 249.5 28t195.5 83.5t128.5 144t45.5 202.5q0 115 -45.5 203.5t-128.5 144.5t-195.5 84.5t-249.5 28.5h-452v-377h418v-141h-418v-401h452z
" />
    <glyph glyph-name="e.sc" horiz-adv-x="1611" 
d="M397 156h1092v-156h-1264v1239h1245v-156h-1073v-376h906v-156h-906v-395z" />
    <glyph glyph-name="eacute.sc" horiz-adv-x="1611" 
d="M1274 1710l-453 -307h-159l337 307h275zM397 156h1092v-156h-1264v1239h1245v-156h-1073v-376h906v-156h-906v-395z" />
    <glyph glyph-name="ebreve.sc" horiz-adv-x="1611" 
d="M1194 1710q0 -37 -10.5 -77t-36.5 -84t-64.5 -78t-101 -56t-139.5 -22t-140 22t-101.5 56t-64.5 78t-36.5 84t-10.5 77h142q3 -75 59.5 -130.5t151.5 -55.5q94 0 150.5 56t58.5 130h143zM397 156h1092v-156h-1264v1239h1245v-156h-1073v-376h906v-156h-906v-395z" />
    <glyph glyph-name="ecaron.sc" horiz-adv-x="1611" 
d="M426 1710l319 -307h187l319 307h-194l-219 -211l-217 211h-195zM397 156h1092v-156h-1264v1239h1245v-156h-1073v-376h906v-156h-906v-395z" />
    <glyph glyph-name="ecircumflex.sc" horiz-adv-x="1611" 
d="M426 1403h195l217 211l219 -211h194l-319 307h-187zM397 156h1092v-156h-1264v1239h1245v-156h-1073v-376h906v-156h-906v-395z" />
    <glyph glyph-name="edieresis.sc" horiz-adv-x="1611" 
d="M573 1430q-46 0 -77 29.5t-31 68.5q0 41 31 70.5t77 29.5q45 0 76 -30t31 -70q0 -39 -31 -68.5t-76 -29.5zM1106 1430q-46 0 -77.5 29.5t-31.5 68.5q0 41 31.5 70.5t77.5 29.5q45 0 75.5 -29.5t30.5 -70.5q0 -39 -30.5 -68.5t-75.5 -29.5zM397 156h1092v-156h-1264v1239
h1245v-156h-1073v-376h906v-156h-906v-395z" />
    <glyph glyph-name="edotaccent.sc" horiz-adv-x="1611" 
d="M840 1430q-44 0 -71.5 24t-27.5 62q0 40 27.5 64t71.5 24q43 0 69.5 -24t26.5 -64q0 -38 -26.5 -62t-69.5 -24zM397 156h1092v-156h-1264v1239h1245v-156h-1073v-376h906v-156h-906v-395z" />
    <glyph glyph-name="egrave.sc" horiz-adv-x="1611" 
d="M408 1710h274l338 -307h-160zM397 156h1092v-156h-1264v1239h1245v-156h-1073v-376h906v-156h-906v-395z" />
    <glyph glyph-name="emacron.sc" horiz-adv-x="1611" 
d="M444 1595h791v-141h-791v141zM397 156h1092v-156h-1264v1239h1245v-156h-1073v-376h906v-156h-906v-395z" />
    <glyph glyph-name="eogonek.sc" horiz-adv-x="1611" 
d="M1554 -365l41 -57q-94 -80 -227 -80q-70 0 -129.5 20.5t-100 69.5t-40.5 119q0 98 64.5 176t172.5 117h-1110v1239h1245v-156h-1073v-376h906v-156h-906v-395h1092v-156h-4q-104 -37 -175 -112.5t-71 -163.5q0 -69 45 -103.5t113 -34.5q82 0 157 49z" />
    <glyph glyph-name="f.sc" horiz-adv-x="1546" 
d="M1468 1083h-1071v-409h906v-156h-906v-518h-172v1239h1243v-156z" />
    <glyph glyph-name="fi.sc" horiz-adv-x="2168" 
d="M1468 1083h-1071v-409h906v-156h-906v-518h-172v1239h1243v-156zM1944 0h-172v1239h172v-1239z" />
    <glyph glyph-name="fl.sc" horiz-adv-x="2985" 
d="M1468 1083h-1071v-409h906v-156h-906v-518h-172v1239h1243v-156zM1944 160h985v-160h-1157v1239h172v-1079z" />
    <glyph glyph-name="g.sc" horiz-adv-x="1787" 
d="M1659 647v-348q-82 -152 -275.5 -246t-453.5 -94q-376 0 -589.5 177.5t-213.5 481.5q0 306 213.5 484t589.5 178q225 0 392.5 -68t270.5 -186l-143 -106q-96 105 -221.5 153.5t-292.5 48.5q-299 0 -466 -129t-167 -375q0 -245 168 -373t465 -128q422 0 551 233v142h-576
v155h748z" />
    <glyph glyph-name="gbreve.sc" horiz-adv-x="1787" 
d="M1280 1712q0 -37 -10.5 -77t-36.5 -84t-64.5 -78t-101 -56t-139.5 -22t-140 22t-101.5 56t-64.5 78t-36.5 84t-10.5 77h142q3 -75 59.5 -130.5t151.5 -55.5q94 0 150.5 56t58.5 130h143zM1659 647v-348q-82 -152 -275.5 -246t-453.5 -94q-376 0 -589.5 177.5
t-213.5 481.5q0 306 213.5 484t589.5 178q225 0 392.5 -68t270.5 -186l-143 -106q-96 105 -221.5 153.5t-292.5 48.5q-299 0 -466 -129t-167 -375q0 -245 168 -373t465 -128q422 0 551 233v142h-576v155h748z" />
    <glyph glyph-name="gcircumflex.sc" horiz-adv-x="1787" 
d="M512 1405h195l217 211l219 -211h194l-319 307h-187zM1659 647v-348q-82 -152 -275.5 -246t-453.5 -94q-376 0 -589.5 177.5t-213.5 481.5q0 306 213.5 484t589.5 178q225 0 392.5 -68t270.5 -186l-143 -106q-96 105 -221.5 153.5t-292.5 48.5q-299 0 -466 -129t-167 -375
q0 -245 168 -373t465 -128q422 0 551 233v142h-576v155h748z" />
    <glyph glyph-name="gcommaaccent.sc" horiz-adv-x="1787" 
d="M1659 647v-348q-82 -152 -275.5 -246t-453.5 -94q-376 0 -589.5 177.5t-213.5 481.5q0 306 213.5 484t589.5 178q225 0 392.5 -68t270.5 -186l-143 -106q-96 105 -221.5 153.5t-292.5 48.5q-299 0 -466 -129t-167 -375q0 -245 168 -373t465 -128q422 0 551 233v142h-576
v155h748zM928 -119q56 0 91.5 -36t35.5 -95q0 -85 -45.5 -187.5t-122.5 -174.5l-56 47q61 70 88 120.5t35 106.5q-8 -8 -32 -8q-48 0 -81.5 32.5t-33.5 82.5q0 48 34.5 80t86.5 32z" />
    <glyph glyph-name="gdotaccent.sc" horiz-adv-x="1787" 
d="M926 1432q-44 0 -71.5 24t-27.5 62q0 40 27.5 64t71.5 24q43 0 69.5 -24t26.5 -64q0 -38 -26.5 -62t-69.5 -24zM1659 647v-348q-82 -152 -275.5 -246t-453.5 -94q-376 0 -589.5 177.5t-213.5 481.5q0 306 213.5 484t589.5 178q225 0 392.5 -68t270.5 -186l-143 -106
q-96 105 -221.5 153.5t-292.5 48.5q-299 0 -466 -129t-167 -375q0 -245 168 -373t465 -128q422 0 551 233v142h-576v155h748z" />
    <glyph glyph-name="h.sc" 
d="M1444 1239h172v-1239h-172v547h-1047v-547h-172v1239h172v-528h1047v528z" />
    <glyph glyph-name="hbar.sc" horiz-adv-x="1906" 
d="M1849 1014v-127h-200v-887h-172v547h-1047v-547h-172v887h-201v127h201v225h172v-225h1047v225h172v-225h200zM1477 711v176h-1047v-176h1047z" />
    <glyph glyph-name="hcircumflex.sc" 
d="M508 1405h194l218 211l219 -211h194l-319 307h-187zM1444 1239h172v-1239h-172v547h-1047v-547h-172v1239h172v-528h1047v528z" />
    <glyph glyph-name="i.sc" horiz-adv-x="622" 
d="M397 0h-172v1239h172v-1239z" />
    <glyph glyph-name="iacute.sc" horiz-adv-x="622" 
d="M743 1710l-452 -307h-160l338 307h274zM397 0h-172v1239h172v-1239z" />
    <glyph glyph-name="ibreve.sc" horiz-adv-x="622" 
d="M664 1710q0 -37 -10.5 -77.5t-37 -84t-65 -77.5t-101 -56t-139.5 -22t-139.5 22t-101 56t-64.5 78t-36.5 84t-10.5 77h141q3 -75 59.5 -130.5t151.5 -55.5q94 0 150.5 56t58.5 130h144zM397 0h-172v1239h172v-1239z" />
    <glyph glyph-name="icircumflex.sc" horiz-adv-x="622" 
d="M-104 1403h194l217 211l219 -211h195l-320 307h-186zM397 0h-172v1239h172v-1239z" />
    <glyph glyph-name="idieresis.sc" horiz-adv-x="622" 
d="M43 1430q-46 0 -77.5 29.5t-31.5 68.5q0 41 31.5 70.5t77.5 29.5q45 0 76 -30t31 -70q0 -39 -31 -68.5t-76 -29.5zM575 1430q-46 0 -77 29.5t-31 68.5q0 41 31 70.5t77 29.5q45 0 76 -30t31 -70q0 -39 -31 -68.5t-76 -29.5zM397 0h-172v1239h172v-1239z" />
    <glyph glyph-name="i.sc.loclTRK" horiz-adv-x="622" 
d="M309 1430q-44 0 -71 24t-27 62q0 40 27 64t71 24q43 0 70 -24t27 -64q0 -38 -27 -62t-70 -24zM397 0h-172v1239h172v-1239z" />
    <glyph glyph-name="igrave.sc" horiz-adv-x="622" 
d="M-123 1710h275l337 -307h-159zM397 0h-172v1239h172v-1239z" />
    <glyph glyph-name="ij.sc" horiz-adv-x="1941" 
d="M397 0h-172v1239h172v-1239zM807 266q51 -77 134 -112t220 -35q209 0 308.5 108t99.5 301v711h172v-723q0 -118 -34.5 -217t-103 -176t-181.5 -120.5t-261 -43.5q-338 0 -495 215z" />
    <glyph glyph-name="imacron.sc" horiz-adv-x="647" 
d="M-72 1790h791v-141h-791v141zM410 0h-172v1434h172v-1434z" />
    <glyph glyph-name="iogonek.sc" horiz-adv-x="647" 
d="M477 -365l41 -57q-94 -80 -227 -80q-70 0 -129.5 20.5t-100.5 69.5t-41 119q0 98 65 176t173 117h-20v1434h172v-1434h-2q-104 -37 -175 -112.5t-71 -163.5q0 -69 44.5 -103.5t112.5 -34.5q83 0 158 49z" />
    <glyph glyph-name="itilde.sc" horiz-adv-x="647" 
d="M729 1880l100 -65q-37 -71 -112.5 -123t-188.5 -52q-61 0 -120 18.5t-98.5 40t-93 40t-105.5 18.5q-73 0 -116.5 -28.5t-76.5 -77.5l-100 65q37 71 112 122.5t189 51.5q60 0 119 -18t98.5 -40t94 -40t106.5 -18q73 0 114.5 28t77.5 78zM410 0h-172v1434h172v-1434z" />
    <glyph glyph-name="j.sc" horiz-adv-x="1318" 
d="M184 266q51 -77 134.5 -112t220.5 -35q209 0 308 108t99 301v711h172v-723q0 -118 -34 -217t-102.5 -176t-181.5 -120.5t-261 -43.5q-339 0 -496 215z" />
    <glyph glyph-name="jcircumflex.sc" horiz-adv-x="1318" 
d="M618 1403h195l217 211l219 -211h195l-320 307h-186zM184 266q51 -77 134.5 -112t220.5 -35q209 0 308 108t99 301v711h172v-723q0 -118 -34 -217t-102.5 -176t-181.5 -120.5t-261 -43.5q-339 0 -496 215z" />
    <glyph glyph-name="k.sc" horiz-adv-x="1665" 
d="M1636 0h-217l-602 653l-420 -315v-338h-172v1239h172v-707l959 707h241l-641 -487z" />
    <glyph glyph-name="kcommaaccent.sc" horiz-adv-x="1665" 
d="M956 752l680 -752h-217l-602 653l-420 -315v-338h-172v1239h172v-707l959 707h241zM887 -119q56 0 91.5 -36t35.5 -95q0 -85 -45.5 -187.5t-122.5 -174.5l-55 47q61 70 87.5 120.5t34.5 106.5q-8 -8 -32 -8q-48 0 -81.5 32.5t-33.5 82.5q0 48 34.5 80t86.5 32z" />
    <glyph glyph-name="l.sc" horiz-adv-x="1439" 
d="M397 160h985v-160h-1157v1239h172v-1079z" />
    <glyph glyph-name="lacute.sc" horiz-adv-x="1439" 
d="M745 1710l-452 -307h-160l338 307h274zM397 160h985v-160h-1157v1239h172v-1079z" />
    <glyph glyph-name="lcaron.sc" horiz-adv-x="1439" 
d="M893 1300q56 0 91.5 -36t35.5 -95q0 -85 -45.5 -187.5t-122.5 -174.5l-55 47q61 70 88 120.5t35 106.5q-8 -8 -33 -8q-48 0 -81.5 32.5t-33.5 82.5q0 48 34.5 80t86.5 32zM397 160h985v-160h-1157v1239h172v-1079z" />
    <glyph glyph-name="lcommaaccent.sc" horiz-adv-x="1439" 
d="M397 160h985v-160h-1157v1239h172v-1079zM805 -119q56 0 91.5 -36t35.5 -95q0 -85 -45.5 -187.5t-122.5 -174.5l-55 47q61 70 87.5 120.5t34.5 106.5q-8 -8 -32 -8q-48 0 -81.5 32.5t-33.5 82.5q0 48 34.5 80t86.5 32z" />
    <glyph glyph-name="ldot.sc" horiz-adv-x="1439" 
d="M397 160h985v-160h-1157v1239h172v-1079zM821 592q-54 0 -88.5 32.5t-34.5 82.5t34.5 82t88.5 32t88.5 -32t34.5 -82t-34.5 -82.5t-88.5 -32.5z" />
    <glyph glyph-name="lslash.sc" horiz-adv-x="1503" 
d="M461 160h985v-160h-1157v481l-211 -104v141l211 105v616h172v-532l381 188v-143l-381 -187v-405z" />
    <glyph glyph-name="m.sc" horiz-adv-x="2101" 
d="M1690 1239h186v-1239h-172v997l-649 -745h-13l-649 745v-997h-168v1239h189l639 -739z" />
    <glyph glyph-name="n.sc" 
d="M1448 1239h168v-1239h-152l-1071 1020v-1020h-168v1239h187l1036 -987v987z" />
    <glyph glyph-name="nacute.sc" 
d="M1356 1710l-453 -307h-160l338 307h275zM1448 1239h168v-1239h-152l-1071 1020v-1020h-168v1239h187l1036 -987v987z" />
    <glyph glyph-name="ncaron.sc" 
d="M508 1710l319 -307h187l319 307h-194l-219 -211l-218 211h-194zM1448 1239h168v-1239h-152l-1071 1020v-1020h-168v1239h187l1036 -987v987z" />
    <glyph glyph-name="ncommaaccent.sc" 
d="M1448 1239h168v-1239h-152l-1071 1020v-1020h-168v1239h187l1036 -987v987zM924 -119q56 0 91.5 -36t35.5 -95q0 -85 -45.5 -187.5t-122.5 -174.5l-56 47q61 70 88 120.5t35 106.5q-8 -8 -32 -8q-48 0 -81.5 32.5t-33.5 82.5q0 48 34.5 80t86.5 32z" />
    <glyph glyph-name="eng.sc" 
d="M1446 1239h170v-1202v-98q0 -155 -89 -241.5t-239 -86.5q-117 0 -190 31l41 129q41 -17 116 -17q99 0 146.5 40t46.5 136v86l-1055 1004v-1020h-168v1239h187l1034 -987v197l-2 518h2v272z" />
    <glyph glyph-name="ntilde.sc" 
d="M1327 1686l100 -66q-37 -71 -112.5 -122.5t-188.5 -51.5q-61 0 -120 18.5t-98.5 40t-93 40t-105.5 18.5q-73 0 -116 -29t-77 -78l-100 66q37 71 112 122.5t189 51.5q60 0 119 -18.5t98.5 -40t94 -40t106.5 -18.5q39 0 70 8.5t54 26.5t37 33t31 39zM1448 1239h168v-1239
h-152l-1071 1020v-1020h-168v1239h187l1036 -987v987z" />
    <glyph glyph-name="o.sc" 
d="M922 -41q-370 0 -582.5 177.5t-212.5 481.5q0 306 212.5 484t582.5 178q369 0 580.5 -178t211.5 -484q0 -304 -211.5 -481.5t-580.5 -177.5zM922 119q284 0 450 131.5t166 367.5q0 238 -166 370t-450 132q-285 0 -452 -132t-167 -370q0 -236 167 -367.5t452 -131.5z" />
    <glyph glyph-name="oacute.sc" 
d="M1356 1710l-453 -307h-160l338 307h275zM922 -41q-370 0 -582.5 177.5t-212.5 481.5q0 306 212.5 484t582.5 178q369 0 580.5 -178t211.5 -484q0 -304 -211.5 -481.5t-580.5 -177.5zM922 119q284 0 450 131.5t166 367.5q0 238 -166 370t-450 132q-285 0 -452 -132
t-167 -370q0 -236 167 -367.5t452 -131.5z" />
    <glyph glyph-name="obreve.sc" 
d="M1276 1710q0 -37 -10.5 -77t-36.5 -84t-64.5 -78t-101 -56t-139.5 -22t-140 22t-101.5 56t-64.5 78t-36.5 84t-10.5 77h142q3 -75 59.5 -130.5t151.5 -55.5q94 0 150.5 56t58.5 130h143zM922 -41q-370 0 -582.5 177.5t-212.5 481.5q0 306 212.5 484t582.5 178
q369 0 580.5 -178t211.5 -484q0 -304 -211.5 -481.5t-580.5 -177.5zM922 119q284 0 450 131.5t166 367.5q0 238 -166 370t-450 132q-285 0 -452 -132t-167 -370q0 -236 167 -367.5t452 -131.5z" />
    <glyph glyph-name="ocircumflex.sc" 
d="M508 1403h194l218 211l219 -211h194l-319 307h-187zM922 -41q-370 0 -582.5 177.5t-212.5 481.5q0 306 212.5 484t582.5 178q369 0 580.5 -178t211.5 -484q0 -304 -211.5 -481.5t-580.5 -177.5zM922 119q284 0 450 131.5t166 367.5q0 238 -166 370t-450 132
q-285 0 -452 -132t-167 -370q0 -236 167 -367.5t452 -131.5z" />
    <glyph glyph-name="odieresis.sc" 
d="M655 1430q-46 0 -77 29.5t-31 68.5q0 41 31 70.5t77 29.5q45 0 76 -30t31 -70q0 -39 -31 -68.5t-76 -29.5zM1188 1430q-46 0 -77.5 29.5t-31.5 68.5q0 41 31.5 70.5t77.5 29.5q45 0 75.5 -29.5t30.5 -70.5q0 -39 -30.5 -68.5t-75.5 -29.5zM922 -41q-370 0 -582.5 177.5
t-212.5 481.5q0 306 212.5 484t582.5 178q369 0 580.5 -178t211.5 -484q0 -304 -211.5 -481.5t-580.5 -177.5zM922 119q284 0 450 131.5t166 367.5q0 238 -166 370t-450 132q-285 0 -452 -132t-167 -370q0 -236 167 -367.5t452 -131.5z" />
    <glyph glyph-name="ograve.sc" 
d="M489 1710h275l338 -307h-160zM922 -41q-370 0 -582.5 177.5t-212.5 481.5q0 306 212.5 484t582.5 178q369 0 580.5 -178t211.5 -484q0 -304 -211.5 -481.5t-580.5 -177.5zM922 119q284 0 450 131.5t166 367.5q0 238 -166 370t-450 132q-285 0 -452 -132t-167 -370
q0 -236 167 -367.5t452 -131.5z" />
    <glyph glyph-name="ohungarumlaut.sc" 
d="M1059 1710l-336 -307h-178l336 307h178zM1462 1710l-336 -307h-178l336 307h178zM922 -41q-370 0 -582.5 177.5t-212.5 481.5q0 306 212.5 484t582.5 178q369 0 580.5 -178t211.5 -484q0 -304 -211.5 -481.5t-580.5 -177.5zM922 119q284 0 450 131.5t166 367.5
q0 238 -166 370t-450 132q-285 0 -452 -132t-167 -370q0 -236 167 -367.5t452 -131.5z" />
    <glyph glyph-name="omacron.sc" 
d="M526 1595h791v-141h-791v141zM922 -41q-370 0 -582.5 177.5t-212.5 481.5q0 306 212.5 484t582.5 178q369 0 580.5 -178t211.5 -484q0 -304 -211.5 -481.5t-580.5 -177.5zM922 119q284 0 450 131.5t166 367.5q0 238 -166 370t-450 132q-285 0 -452 -132t-167 -370
q0 -236 167 -367.5t452 -131.5z" />
    <glyph glyph-name="oslash.sc" 
d="M1413 1165q146 -85 223.5 -225t77.5 -322q0 -304 -211.5 -481.5t-580.5 -177.5q-201 0 -355 53l-147 -200h-172l188 258q-150 85 -229.5 225t-79.5 323q0 306 212.5 484t582.5 178q202 0 362 -57l150 204h172zM303 618q0 -279 234 -413l645 880q-116 35 -260 35
q-285 0 -452 -132t-167 -370zM922 119q284 0 450 131.5t166 367.5q0 138 -58 242t-167 168l-643 -876q106 -33 252 -33z" />
    <glyph glyph-name="oslashacute.sc" 
d="M1354 1710l-453 -307h-160l338 307h275zM1413 1165q146 -85 223.5 -225t77.5 -322q0 -304 -211.5 -481.5t-580.5 -177.5q-201 0 -355 53l-147 -200h-172l188 258q-150 85 -229.5 225t-79.5 323q0 306 212.5 484t582.5 178q202 0 362 -57l150 204h172zM303 618
q0 -279 234 -413l645 880q-116 35 -260 35q-285 0 -452 -132t-167 -370zM922 119q284 0 450 131.5t166 367.5q0 138 -58 242t-167 168l-643 -876q106 -33 252 -33z" />
    <glyph glyph-name="otilde.sc" 
d="M1327 1686l100 -66q-37 -71 -112.5 -122.5t-188.5 -51.5q-61 0 -120 18.5t-98.5 40t-93 40t-105.5 18.5q-73 0 -116 -29t-77 -78l-100 66q37 71 112 122.5t189 51.5q60 0 119 -18.5t98.5 -40t94 -40t106.5 -18.5q39 0 70 8.5t54 26.5t37 33t31 39zM922 -41
q-370 0 -582.5 177.5t-212.5 481.5q0 306 212.5 484t582.5 178q369 0 580.5 -178t211.5 -484q0 -304 -211.5 -481.5t-580.5 -177.5zM922 119q284 0 450 131.5t166 367.5q0 238 -166 370t-450 132q-285 0 -452 -132t-167 -370q0 -236 167 -367.5t452 -131.5z" />
    <glyph glyph-name="oe.sc" horiz-adv-x="2760" 
d="M1546 156h1092v-156h-1264h-465q-359 0 -570.5 166.5t-211.5 451.5q0 286 211.5 453.5t570.5 167.5h637h1073v-156h-1073v-376h905v-156h-905v-395zM1374 160v919h-452q-137 0 -249.5 -28.5t-195.5 -84.5t-128.5 -144.5t-45.5 -203.5q0 -114 45.5 -202.5t128.5 -144
t195.5 -83.5t249.5 -28h452z" />
    <glyph glyph-name="p.sc" horiz-adv-x="1689" 
d="M1094 1239q230 0 367.5 -105t137.5 -292t-137.5 -292.5t-367.5 -105.5h-697v-444h-172v1239h869zM1081 596q342 0 342 246q0 126 -90 185.5t-252 59.5h-684v-491h684z" />
    <glyph glyph-name="thorn.sc" horiz-adv-x="1689" 
d="M1079 1028q239 0 379.5 -105t140.5 -292q0 -188 -140.5 -293t-379.5 -105h-682v-233h-172v1239h172v-211h682zM1067 385q356 0 356 246t-356 246h-670v-492h670z" />
    <glyph glyph-name="q.sc" 
d="M1714 618q0 -171 -69.5 -305t-200.5 -219l192 -200l-112 -99l-219 228q-170 -64 -383 -64q-370 0 -582.5 177.5t-212.5 481.5q0 306 212.5 484t582.5 178q369 0 580.5 -178t211.5 -484zM922 119q139 0 258 35l-207 213l112 98l240 -248q213 133 213 401q0 238 -166 370
t-450 132q-285 0 -452 -132t-167 -370q0 -236 167 -367.5t452 -131.5z" />
    <glyph glyph-name="r.sc" horiz-adv-x="1751" 
d="M1645 0h-226l-422 465h-600v-465h-172v1239h877q146 0 258.5 -44.5t178 -133t65.5 -209.5q0 -159 -108 -258t-288 -123zM395 616h695q337 0 337 236q0 235 -337 235h-695v-471z" />
    <glyph glyph-name="racute.sc" horiz-adv-x="1751" 
d="M1278 1710l-453 -307h-159l338 307h274zM1645 0h-226l-422 465h-600v-465h-172v1239h877q146 0 258.5 -44.5t178 -133t65.5 -209.5q0 -159 -108 -258t-288 -123zM395 616h695q337 0 337 236q0 235 -337 235h-695v-471z" />
    <glyph glyph-name="rcaron.sc" horiz-adv-x="1751" 
d="M936 1403h-186l-320 307h195l217 -211l219 211h194zM1645 0h-226l-422 465h-600v-465h-172v1239h877q146 0 258.5 -44.5t178 -133t65.5 -209.5q0 -159 -108 -258t-288 -123zM395 616h695q337 0 337 236q0 235 -337 235h-695v-471z" />
    <glyph glyph-name="rcommaaccent.sc" horiz-adv-x="1751" 
d="M1208 471l437 -471h-226l-422 465h-600v-465h-172v1239h877q146 0 258.5 -44.5t178 -133t65.5 -209.5q0 -159 -108 -258t-288 -123zM395 616h695q337 0 337 236q0 235 -337 235h-695v-471zM885 -119q56 0 91.5 -36t35.5 -95q0 -85 -45.5 -187.5t-122.5 -174.5l-56 47
q61 70 88 120.5t35 106.5q-8 -8 -32 -8q-48 0 -81.5 32.5t-33.5 82.5q0 48 34.5 80t86.5 32z" />
    <glyph glyph-name="s.sc" horiz-adv-x="1636" 
d="M860 717q127 -10 223.5 -25t184.5 -42t144 -65t89 -94t33 -129q0 -177 -178.5 -288t-491.5 -111q-218 0 -415 64t-347 188l117 119q138 -113 298 -166t357 -53q228 0 356 62t128 171q0 42 -23 74t-63 53t-109.5 37t-145.5 26t-188 19q-94 8 -172 19t-158.5 29.5
t-141.5 45.5t-110 62.5t-74.5 85.5t-25.5 110q0 115 92 201t239 128t325 42q202 0 376 -59t294 -158l-121 -113q-199 175 -539 178q-90 1 -173 -10.5t-156 -35t-116.5 -66t-43.5 -98.5q0 -35 18 -63.5t55 -48.5t81 -34.5t110 -25t126.5 -17t145.5 -12.5z" />
    <glyph glyph-name="sacute.sc" horiz-adv-x="1636" 
d="M1257 1710l-452 -307h-160l338 307h274zM860 717q127 -10 223.5 -25t184.5 -42t144 -65t89 -94t33 -129q0 -177 -178.5 -288t-491.5 -111q-218 0 -415 64t-347 188l117 119q138 -113 298 -166t357 -53q228 0 356 62t128 171q0 42 -23 74t-63 53t-109.5 37t-145.5 26
t-188 19q-94 8 -172 19t-158.5 29.5t-141.5 45.5t-110 62.5t-74.5 85.5t-25.5 110q0 115 92 201t239 128t325 42q202 0 376 -59t294 -158l-121 -113q-199 175 -539 178q-90 1 -173 -10.5t-156 -35t-116.5 -66t-43.5 -98.5q0 -35 18 -63.5t55 -48.5t81 -34.5t110 -25
t126.5 -17t145.5 -12.5z" />
    <glyph glyph-name="scaron.sc" horiz-adv-x="1636" 
d="M410 1710l319 -307h186l320 307h-195l-219 -211l-217 211h-194zM860 717q127 -10 223.5 -25t184.5 -42t144 -65t89 -94t33 -129q0 -177 -178.5 -288t-491.5 -111q-218 0 -415 64t-347 188l117 119q138 -113 298 -166t357 -53q228 0 356 62t128 171q0 42 -23 74t-63 53
t-109.5 37t-145.5 26t-188 19q-94 8 -172 19t-158.5 29.5t-141.5 45.5t-110 62.5t-74.5 85.5t-25.5 110q0 115 92 201t239 128t325 42q202 0 376 -59t294 -158l-121 -113q-199 175 -539 178q-90 1 -173 -10.5t-156 -35t-116.5 -66t-43.5 -98.5q0 -35 18 -63.5t55 -48.5
t81 -34.5t110 -25t126.5 -17t145.5 -12.5z" />
    <glyph glyph-name="scedilla.sc" horiz-adv-x="1636" 
d="M860 717q127 -10 223.5 -25t184.5 -42t144 -65t89 -94t33 -129q0 -177 -178.5 -288t-491.5 -111q-218 0 -415 64t-347 188l117 119q138 -113 298 -166t357 -53q228 0 356 62t128 171q0 42 -23 74t-63 53t-109.5 37t-145.5 26t-188 19q-94 8 -172 19t-158.5 29.5
t-141.5 45.5t-110 62.5t-74.5 85.5t-25.5 110q0 115 92 201t239 128t325 42q202 0 376 -59t294 -158l-121 -113q-199 175 -539 178q-90 1 -173 -10.5t-156 -35t-116.5 -66t-43.5 -98.5q0 -35 18 -63.5t55 -48.5t81 -34.5t110 -25t126.5 -17t145.5 -12.5zM905 -106l-243 -324
l-142 37l211 319z" />
    <glyph glyph-name="scircumflex.sc" horiz-adv-x="1636" 
d="M410 1403h194l217 211l219 -211h195l-320 307h-186zM860 717q127 -10 223.5 -25t184.5 -42t144 -65t89 -94t33 -129q0 -177 -178.5 -288t-491.5 -111q-218 0 -415 64t-347 188l117 119q138 -113 298 -166t357 -53q228 0 356 62t128 171q0 42 -23 74t-63 53t-109.5 37
t-145.5 26t-188 19q-94 8 -172 19t-158.5 29.5t-141.5 45.5t-110 62.5t-74.5 85.5t-25.5 110q0 115 92 201t239 128t325 42q202 0 376 -59t294 -158l-121 -113q-199 175 -539 178q-90 1 -173 -10.5t-156 -35t-116.5 -66t-43.5 -98.5q0 -35 18 -63.5t55 -48.5t81 -34.5
t110 -25t126.5 -17t145.5 -12.5z" />
    <glyph glyph-name="scommaaccent.sc" horiz-adv-x="1636" 
d="M860 717q127 -10 223.5 -25t184.5 -42t144 -65t89 -94t33 -129q0 -177 -178.5 -288t-491.5 -111q-218 0 -415 64t-347 188l117 119q138 -113 298 -166t357 -53q228 0 356 62t128 171q0 42 -23 74t-63 53t-109.5 37t-145.5 26t-188 19q-94 8 -172 19t-158.5 29.5
t-141.5 45.5t-110 62.5t-74.5 85.5t-25.5 110q0 115 92 201t239 128t325 42q202 0 376 -59t294 -158l-121 -113q-199 175 -539 178q-90 1 -173 -10.5t-156 -35t-116.5 -66t-43.5 -98.5q0 -35 18 -63.5t55 -48.5t81 -34.5t110 -25t126.5 -17t145.5 -12.5zM850 -119
q56 0 91.5 -36t35.5 -95q0 -85 -45.5 -187.5t-122.5 -174.5l-55 47q61 70 88 120.5t35 106.5q-8 -8 -33 -8q-48 0 -81.5 32.5t-33.5 82.5q0 48 34.5 80t86.5 32z" />
    <glyph glyph-name="germandbls.sc" horiz-adv-x="3272" 
d="M860 717q127 -10 223.5 -25t184.5 -42t144 -65t89 -94t33 -129q0 -177 -178.5 -288t-491.5 -111q-218 0 -415 64t-347 188l117 119q138 -113 298 -166t357 -53q228 0 356 62t128 171q0 42 -23 74t-63 53t-109.5 37t-145.5 26t-188 19q-94 8 -172 19t-158.5 29.5
t-141.5 45.5t-110 62.5t-74.5 85.5t-25.5 110q0 115 92 201t239 128t325 42q202 0 376 -59t294 -158l-121 -113q-199 175 -539 178q-90 1 -173 -10.5t-156 -35t-116.5 -66t-43.5 -98.5q0 -35 18 -63.5t55 -48.5t81 -34.5t110 -25t126.5 -17t145.5 -12.5zM2497 717
q105 -8 188.5 -20t162 -30.5t135.5 -45.5t100.5 -63.5t65 -85.5t21.5 -110q0 -177 -178 -288t-491 -111q-217 0 -414.5 64t-347.5 188l116 119q138 -113 298.5 -166t357.5 -53q228 0 355.5 62t127.5 171q0 42 -23 74t-62.5 53t-109 37t-145.5 26t-188 19q-94 8 -172 19
t-158.5 29.5t-141.5 45.5t-110 62.5t-74.5 85.5t-25.5 110q0 115 91.5 201t238.5 128t325 42q202 0 376 -59t294 -158l-121 -113q-199 175 -539 178q-90 1 -173 -10.5t-156 -35t-116.5 -66t-43.5 -98.5q0 -35 18 -63.5t55.5 -48.5t81.5 -34.5t110 -25t126.5 -17t145.5 -12.5
z" />
    <glyph glyph-name="t.sc" horiz-adv-x="1497" 
d="M1442 1239v-156h-608v-1083h-172v1083h-607v156h1387z" />
    <glyph glyph-name="tbar.sc" horiz-adv-x="1476" 
d="M1432 1083h-609v-338h322v-141h-322v-604h-172v604h-297v141h297v338h-606v156h1387v-156z" />
    <glyph glyph-name="tcaron.sc" horiz-adv-x="1497" 
d="M336 1710l319 -307h187l319 307h-194l-219 -211l-218 211h-194zM1442 1239v-156h-608v-1083h-172v1083h-607v156h1387z" />
    <glyph glyph-name="uni0163.sc" horiz-adv-x="1497" 
d="M1442 1239v-156h-608v-1083h-172v1083h-607v156h1387zM811 -90l-244 -324l-141 37l211 320z" />
    <glyph glyph-name="u.sc" horiz-adv-x="1781" 
d="M1409 1239h172v-655q0 -136 -45 -250.5t-130.5 -198t-217 -130t-297.5 -46.5q-165 0 -296.5 46.5t-217.5 130t-131 198t-45 250.5v655h172v-645q0 -222 135.5 -348.5t382.5 -126.5t382.5 126.5t135.5 348.5v645z" />
    <glyph glyph-name="uacute.sc" horiz-adv-x="1781" 
d="M1325 1710l-453 -307h-159l338 307h274zM1409 1239h172v-655q0 -136 -45 -250.5t-130.5 -198t-217 -130t-297.5 -46.5q-165 0 -296.5 46.5t-217.5 130t-131 198t-45 250.5v655h172v-645q0 -222 135.5 -348.5t382.5 -126.5t382.5 126.5t135.5 348.5v645z" />
    <glyph glyph-name="ubreve.sc" horiz-adv-x="1781" 
d="M1245 1710q0 -37 -10.5 -77t-36.5 -84t-64.5 -78t-101 -56t-139.5 -22t-139.5 22t-101 56t-64.5 78t-36.5 84t-10.5 77h141q3 -75 59.5 -130.5t151.5 -55.5q94 0 150.5 56t58.5 130h143zM1409 1239h172v-655q0 -136 -45 -250.5t-130.5 -198t-217 -130t-297.5 -46.5
q-165 0 -296.5 46.5t-217.5 130t-131 198t-45 250.5v655h172v-645q0 -222 135.5 -348.5t382.5 -126.5t382.5 126.5t135.5 348.5v645z" />
    <glyph glyph-name="ucircumflex.sc" horiz-adv-x="1781" 
d="M477 1403h195l217 211l219 -211h195l-320 307h-186zM1409 1239h172v-655q0 -136 -45 -250.5t-130.5 -198t-217 -130t-297.5 -46.5q-165 0 -296.5 46.5t-217.5 130t-131 198t-45 250.5v655h172v-645q0 -222 135.5 -348.5t382.5 -126.5t382.5 126.5t135.5 348.5v645z" />
    <glyph glyph-name="udieresis.sc" horiz-adv-x="1781" 
d="M625 1430q-46 0 -77.5 29.5t-31.5 68.5q0 41 31.5 70.5t77.5 29.5q45 0 75.5 -29.5t30.5 -70.5q0 -39 -30.5 -68.5t-75.5 -29.5zM1157 1430q-46 0 -77 29.5t-31 68.5q0 41 31 70.5t77 29.5q45 0 76 -30t31 -70q0 -39 -31 -68.5t-76 -29.5zM1409 1239h172v-655
q0 -136 -45 -250.5t-130.5 -198t-217 -130t-297.5 -46.5q-165 0 -296.5 46.5t-217.5 130t-131 198t-45 250.5v655h172v-645q0 -222 135.5 -348.5t382.5 -126.5t382.5 126.5t135.5 348.5v645z" />
    <glyph glyph-name="ugrave.sc" horiz-adv-x="1781" 
d="M459 1710h274l338 -307h-160zM1409 1239h172v-655q0 -136 -45 -250.5t-130.5 -198t-217 -130t-297.5 -46.5q-165 0 -296.5 46.5t-217.5 130t-131 198t-45 250.5v655h172v-645q0 -222 135.5 -348.5t382.5 -126.5t382.5 126.5t135.5 348.5v645z" />
    <glyph glyph-name="uhungarumlaut.sc" horiz-adv-x="1781" 
d="M1028 1710l-336 -307h-178l336 307h178zM1432 1710l-336 -307h-178l335 307h179zM1409 1239h172v-655q0 -136 -45 -250.5t-130.5 -198t-217 -130t-297.5 -46.5q-165 0 -296.5 46.5t-217.5 130t-131 198t-45 250.5v655h172v-645q0 -222 135.5 -348.5t382.5 -126.5
t382.5 126.5t135.5 348.5v645z" />
    <glyph glyph-name="umacron.sc" horiz-adv-x="1781" 
d="M496 1595h790v-141h-790v141zM1409 1239h172v-655q0 -136 -45 -250.5t-130.5 -198t-217 -130t-297.5 -46.5q-165 0 -296.5 46.5t-217.5 130t-131 198t-45 250.5v655h172v-645q0 -222 135.5 -348.5t382.5 -126.5t382.5 126.5t135.5 348.5v645z" />
    <glyph glyph-name="uogonek.sc" horiz-adv-x="1781" 
d="M1409 1239h172v-655q0 -212 -107 -367t-307 -219q-102 -37 -171.5 -112t-69.5 -162q0 -69 44.5 -103.5t112.5 -34.5q83 0 158 49l41 -57q-94 -80 -227 -80q-70 0 -129.5 20.5t-100.5 69.5t-41 119q0 77 41 142.5t113 109.5h-47q-165 0 -296.5 46.5t-217.5 130t-131 198
t-45 250.5v655h172v-645q0 -222 135.5 -348.5t382.5 -126.5t382.5 126.5t135.5 348.5v645z" />
    <glyph glyph-name="uring.sc" horiz-adv-x="1781" 
d="M891 1389q-114 0 -189 57t-75 162q0 104 75.5 161.5t188.5 57.5t188.5 -57.5t75.5 -161.5q0 -105 -75 -162t-189 -57zM750 1608q0 -60 38.5 -92.5t104.5 -32.5q65 0 104 32.5t39 92.5t-39 92.5t-104 32.5q-66 0 -104.5 -32.5t-38.5 -92.5zM1409 1239h172v-655
q0 -136 -45 -250.5t-130.5 -198t-217 -130t-297.5 -46.5q-165 0 -296.5 46.5t-217.5 130t-131 198t-45 250.5v655h172v-645q0 -222 135.5 -348.5t382.5 -126.5t382.5 126.5t135.5 348.5v645z" />
    <glyph glyph-name="utilde.sc" horiz-adv-x="1781" 
d="M1296 1686l101 -66q-37 -71 -112.5 -122.5t-188.5 -51.5q-61 0 -120 18.5t-98.5 40t-93.5 40t-106 18.5q-73 0 -116 -29t-77 -78l-100 66q37 71 112 122.5t189 51.5q60 0 119 -18.5t98.5 -40t94 -40t106.5 -18.5q39 0 70 8.5t54 26.5t37 33t31 39zM1409 1239h172v-655
q0 -136 -45 -250.5t-130.5 -198t-217 -130t-297.5 -46.5q-165 0 -296.5 46.5t-217.5 130t-131 198t-45 250.5v655h172v-645q0 -222 135.5 -348.5t382.5 -126.5t382.5 126.5t135.5 348.5v645z" />
    <glyph glyph-name="v.sc" horiz-adv-x="1636" 
d="M41 1239h195l583 -1053l586 1053h190l-682 -1239h-190z" />
    <glyph glyph-name="w.sc" horiz-adv-x="2263" 
d="M2015 1239h183l-476 -1239h-182l-407 1036l-410 -1036h-182l-475 1239h186l383 -1038l414 1038h170l411 -1038z" />
    <glyph glyph-name="wacute.sc" horiz-adv-x="2263" 
d="M1567 1710l-453 -307h-160l338 307h275zM2015 1239h183l-476 -1239h-182l-407 1036l-410 -1036h-182l-475 1239h186l383 -1038l414 1038h170l411 -1038z" />
    <glyph glyph-name="wcircumflex.sc" horiz-adv-x="2263" 
d="M719 1403h194l217 211l220 -211h194l-319 307h-187zM2015 1239h183l-476 -1239h-182l-407 1036l-410 -1036h-182l-475 1239h186l383 -1038l414 1038h170l411 -1038z" />
    <glyph glyph-name="wdieresis.sc" horiz-adv-x="2263" 
d="M866 1430q-46 0 -77 29.5t-31 68.5q0 41 31 70.5t77 29.5q45 0 76 -30t31 -70q0 -39 -31 -68.5t-76 -29.5zM1399 1430q-46 0 -77.5 29.5t-31.5 68.5q0 41 31.5 70.5t77.5 29.5q45 0 75.5 -29.5t30.5 -70.5q0 -39 -30.5 -68.5t-75.5 -29.5zM2015 1239h183l-476 -1239h-182
l-407 1036l-410 -1036h-182l-475 1239h186l383 -1038l414 1038h170l411 -1038z" />
    <glyph glyph-name="wgrave.sc" horiz-adv-x="2263" 
d="M700 1710h275l338 -307h-160zM2015 1239h183l-476 -1239h-182l-407 1036l-410 -1036h-182l-475 1239h186l383 -1038l414 1038h170l411 -1038z" />
    <glyph glyph-name="x.sc" horiz-adv-x="1538" 
d="M1485 1239l-606 -612l610 -627h-221l-502 510l-502 -510h-215l610 623l-606 616h221l498 -504l498 504h215z" />
    <glyph glyph-name="y.sc" horiz-adv-x="1558" 
d="M45 1239h207l530 -657l527 657h204l-647 -807v-432h-172v432z" />
    <glyph glyph-name="yacute.sc" horiz-adv-x="1558" 
d="M1214 1710l-452 -307h-160l338 307h274zM45 1239h207l530 -657l527 657h204l-647 -807v-432h-172v432z" />
    <glyph glyph-name="ycircumflex.sc" horiz-adv-x="1558" 
d="M367 1403h194l217 211l219 -211h195l-320 307h-186zM45 1239h207l530 -657l527 657h204l-647 -807v-432h-172v432z" />
    <glyph glyph-name="ydieresis.sc" horiz-adv-x="1558" 
d="M514 1430q-46 0 -77 29.5t-31 68.5q0 41 31 70.5t77 29.5q45 0 76 -30t31 -70q0 -39 -31 -68.5t-76 -29.5zM1047 1430q-46 0 -77.5 29.5t-31.5 68.5q0 41 31.5 70.5t77.5 29.5q45 0 75.5 -29.5t30.5 -70.5q0 -39 -30.5 -68.5t-75.5 -29.5zM45 1239h207l530 -657l527 657
h204l-647 -807v-432h-172v432z" />
    <glyph glyph-name="ygrave.sc" horiz-adv-x="1558" 
d="M348 1710h275l338 -307h-160zM45 1239h207l530 -657l527 657h204l-647 -807v-432h-172v432z" />
    <glyph glyph-name="z.sc" horiz-adv-x="1570" 
d="M1444 1239v-127l-1088 -956h1117v-156h-1379v127l1086 956h-1053v156h1317z" />
    <glyph glyph-name="zacute.sc" horiz-adv-x="1570" 
d="M1255 1710l-452 -307h-160l338 307h274zM1444 1239v-127l-1088 -956h1117v-156h-1379v127l1086 956h-1053v156h1317z" />
    <glyph glyph-name="zcaron.sc" horiz-adv-x="1570" 
d="M408 1710l319 -307h186l320 307h-195l-219 -211l-217 211h-194zM1444 1239v-127l-1088 -956h1117v-156h-1379v127l1086 956h-1053v156h1317z" />
    <glyph glyph-name="zdotaccent.sc" horiz-adv-x="1570" 
d="M821 1430q-44 0 -71 24t-27 62q0 40 27 64t71 24q43 0 70 -24t27 -64q0 -38 -27 -62t-70 -24zM1444 1239v-127l-1088 -956h1117v-156h-1379v127l1086 956h-1053v156h1317z" />
    <glyph glyph-name="zero.osf" horiz-adv-x="1812" 
d="M907 -43q-234 0 -409 79t-271 231.5t-96 361.5q0 315 209.5 489t566.5 174t565.5 -174t208.5 -489t-209.5 -493.5t-564.5 -178.5zM907 117q180 0 312.5 54t210 169.5t77.5 284.5t-77.5 284.5t-210 169.5t-312.5 54t-312.5 -54t-210 -169.5t-77.5 -284.5t77.5 -284.5
t210 -169.5t312.5 -54z" />
    <glyph glyph-name="one.osf" horiz-adv-x="931" 
d="M522 0v1034q-177 -145 -446 -188v155q248 38 487 248h131v-1249h-172z" />
    <glyph glyph-name="two.osf" horiz-adv-x="1632" 
d="M137 965q83 138 277 231.5t430 93.5q113 0 224 -24.5t205 -70t152 -121.5t58 -169q0 -55 -20 -103t-61 -87.5t-88.5 -71t-119 -62t-133.5 -53t-150 -49.5q-123 -38 -214 -73t-173.5 -76.5t-132 -88t-65.5 -96.5h1185v-145h-1411v82q30 160 223 298.5t492 231.5
q30 9 83.5 25t83 25.5t74.5 24.5t70.5 26.5t59 27.5t52 32.5t36.5 36.5t25.5 43.5t7.5 49.5q0 61 -43 108t-113 73.5t-149.5 39.5t-163.5 13q-184 0 -333.5 -65.5t-236.5 -186.5z" />
    <glyph glyph-name="three.osf" horiz-adv-x="1708" 
d="M242 209q83 -133 253.5 -208t387.5 -75q141 0 255 31.5t186.5 100t72.5 165.5q0 74 -41.5 126.5t-120.5 82t-179.5 42.5t-232.5 13h-186v152h186q143 0 259 26t191 84t75 140q0 80 -73 138.5t-178.5 85t-224.5 26.5q-218 0 -361 -65.5t-230 -190.5l-150 80
q227 327 717 327q185 0 337 -45t245.5 -136t93.5 -212q0 -69 -31.5 -129t-83 -101t-114 -66.5t-128.5 -31.5q56 -6 110 -21t110 -43.5t97.5 -66.5t68 -96t26.5 -127q0 -136 -94.5 -237t-252.5 -152t-355 -51q-270 0 -469.5 93t-317.5 259z" />
    <glyph glyph-name="four.osf" horiz-adv-x="1757" 
d="M1681 317v-147h-313v-354h-172v354h-1137v117l1158 962h151v-932h313zM319 317h877v721z" />
    <glyph glyph-name="five.osf" horiz-adv-x="1703" 
d="M231 219q103 -138 274.5 -214.5t381.5 -76.5q241 0 388.5 83t147.5 241q0 159 -154.5 241t-422.5 82q-141 0 -268.5 -27.5t-272.5 -90.5l-143 63l123 729h1165v-153h-1022l-84 -494q137 68 264.5 92.5t292.5 24.5q145 0 269.5 -28.5t221 -85t152 -148t55.5 -209.5
q0 -204 -194.5 -339.5t-517.5 -135.5q-248 0 -453.5 96t-335.5 258z" />
    <glyph glyph-name="six.osf" horiz-adv-x="1804" 
d="M1049 909q100 0 192 -17.5t174.5 -54.5t143 -91t96 -131.5t35.5 -170.5q0 -217 -199 -352t-533 -135q-387 0 -607 205.5t-220 554.5t220 554.5t607 205.5q445 0 674 -256l-135 -101q-188 209 -530 209q-148 0 -267.5 -37t-208 -110.5t-136.5 -191.5t-48 -273
q0 -53 6 -103q119 138 308 216.5t428 78.5zM958 104q255 0 405 89t150 251q0 109 -69.5 183t-179 105.5t-252.5 31.5q-190 0 -373 -78t-295 -213q62 -185 221.5 -277t392.5 -92z" />
    <glyph glyph-name="seven.osf" horiz-adv-x="1531" 
d="M440 -184l834 1278h-1221v155h1438v-127l-844 -1306h-207z" />
    <glyph glyph-name="eight.osf" horiz-adv-x="1808" 
d="M1257 756q56 -5 112.5 -20.5t113 -45.5t99.5 -70.5t70 -99t27 -127.5q0 -134 -98 -233t-272.5 -151t-403.5 -52q-230 0 -404.5 52t-272 151t-97.5 233q0 69 27 127.5t70 99t99.5 70.5t113 45.5t112.5 20.5q-70 6 -134 29t-117 61.5t-84.5 98.5t-31.5 132
q0 124 95.5 215.5t257 138t366.5 46.5q203 0 365 -46t258 -138t96 -216q0 -72 -31.5 -132t-84.5 -98.5t-117 -61.5t-134 -29zM360 1073q0 -66 43.5 -116.5t120.5 -80t172.5 -44.5t208.5 -15t208.5 15t172.5 44.5t120.5 80t43.5 116.5t-43.5 116.5t-120.5 80t-172.5 44.5
t-208.5 15t-208.5 -15t-172.5 -44.5t-120.5 -80t-43.5 -116.5zM903 104q180 0 311.5 30t208 95.5t76.5 161.5q0 135 -163 211t-433 76q-268 0 -431 -76t-163 -211t163 -211t431 -76z" />
    <glyph glyph-name="nine.osf" horiz-adv-x="1804" 
d="M846 1292q387 0 607 -205.5t220 -554.5t-220 -554t-607 -205q-445 0 -674 256l135 100q188 -209 531 -209q148 0 267.5 37t207.5 110.5t136 191.5t48 273q0 54 -6 103q-119 -138 -307.5 -216.5t-427.5 -78.5q-100 0 -192 17.5t-174.5 54.5t-143 91t-96 131.5t-35.5 170.5
q0 217 198.5 352t532.5 135zM793 485q190 0 372.5 78t294.5 213q-62 185 -221.5 277t-392.5 92q-255 0 -405 -89t-150 -251q0 -83 39.5 -145.5t109.5 -100t158.5 -56t194.5 -18.5z" />
    <glyph glyph-name="zero.subs" horiz-adv-x="1112" 
d="M557 -250q-220 0 -344.5 119t-124.5 326q0 205 124.5 324.5t344.5 119.5t344.5 -119.5t124.5 -324.5q0 -207 -124.5 -326t-344.5 -119zM557 -143q162 0 256 87.5t94 250.5q0 161 -94.5 249t-255.5 88q-162 0 -256 -87.5t-94 -249.5q0 -163 93.5 -250.5t256.5 -87.5z" />
    <glyph glyph-name="one.subs" horiz-adv-x="559" 
d="M297 -225v692q-91 -76 -246 -100v102q72 10 144.5 49t130.5 94h88v-837h-117z" />
    <glyph glyph-name="two.subs" horiz-adv-x="960" 
d="M90 436q66 93 171 148t235 55q94 0 176 -28t136 -85.5t54 -134.5q0 -99 -79.5 -164.5t-235.5 -124.5q-154 -61 -236.5 -111.5t-101.5 -113.5h672v-102h-811v69q38 207 407 346q144 57 185 81q83 49 83 118q0 47 -38 82t-95 51.5t-123 16.5q-103 0 -176.5 -37.5
t-134.5 -118.5z" />
    <glyph glyph-name="three.subs" horiz-adv-x="991" 
d="M168 4q99 -154 326 -154q122 0 205 45t83 125q0 40 -23 70t-65 47.5t-95.5 26t-119.5 8.5h-106v94h106q120 0 197.5 31t77.5 100q0 48 -40.5 81t-99.5 47t-129 14q-200 0 -295 -136l-92 56q47 82 156.5 131t243.5 49q98 0 181.5 -25t138 -77.5t54.5 -122.5
q0 -80 -62 -133.5t-146 -59.5q43 -6 83 -20.5t77 -39t59 -64t22 -89.5q0 -118 -115 -188t-292 -70q-144 0 -259 57t-171 152z" />
    <glyph glyph-name="four.subs" horiz-adv-x="1013" 
d="M958 80v-98h-170v-207h-112v207h-631v73l641 557h102v-532h170zM207 80h469v393z" />
    <glyph glyph-name="five.subs" horiz-adv-x="978" 
d="M152 0q72 -72 151 -109.5t193 -37.5q133 0 215 49.5t82 136.5t-79 130.5t-212 43.5q-159 0 -314 -76l-86 39l80 436h647v-100h-559l-51 -281q133 76 311 76q169 0 275 -69t106 -199q0 -128 -106 -208.5t-291 -80.5q-268 0 -442 178z" />
    <glyph glyph-name="six.subs" horiz-adv-x="1040" 
d="M571 311q113 0 198.5 -27.5t139.5 -91t54 -157.5q0 -125 -111.5 -205t-298.5 -80q-218 0 -342.5 120t-124.5 325q0 204 124.5 324t342.5 120q250 0 381 -147l-84 -68q-55 62 -124 89.5t-167 27.5q-162 0 -258 -86.5t-96 -259.5q0 -40 2 -56q52 81 153 126.5t211 45.5z
M553 -152q131 0 211 49t80 134q0 184 -291 184q-95 0 -185.5 -41t-144.5 -113q33 -107 119 -160t211 -53z" />
    <glyph glyph-name="seven.subs" horiz-adv-x="884" 
d="M254 -225l453 735h-666v102h807v-82l-461 -755h-133z" />
    <glyph glyph-name="eight.subs" horiz-adv-x="1042" 
d="M705 223q49 -6 91.5 -21t79.5 -41t58.5 -67t21.5 -94q0 -112 -120 -181t-314 -69t-315 69t-121 181q0 53 22 94.5t59.5 67t79.5 40.5t91 21q-95 6 -158 59t-63 138q0 68 56.5 118.5t147.5 75.5t201 25t200.5 -25t147 -75.5t56.5 -118.5q0 -85 -62.5 -138t-158.5 -59z
M233 406q0 -52 42 -85t103.5 -45t143.5 -12q81 0 142 12t103 45t42 85q0 67 -83 103t-204 36q-122 0 -205.5 -36t-83.5 -103zM520 -156q139 0 228.5 45t89.5 123q0 86 -86.5 126t-231.5 40t-230 -40t-85 -126q0 -78 88.5 -123t226.5 -45z" />
    <glyph glyph-name="nine.subs" horiz-adv-x="1040" 
d="M471 639q219 0 343 -119.5t124 -324.5q0 -204 -124.5 -324.5t-342.5 -120.5q-249 0 -381 148l84 67q55 -62 124 -89.5t167 -27.5q161 0 257.5 87t96.5 260q0 39 -2 55q-52 -81 -153 -126.5t-211 -45.5q-113 0 -198.5 27.5t-139.5 91t-54 157.5q0 125 111.5 205t298.5 80z
M471 174q95 0 185.5 41t144.5 113q-33 107 -119 160t-211 53q-131 0 -211 -49t-80 -134q0 -184 291 -184z" />
    <glyph glyph-name="zero.dnom" horiz-adv-x="1112" 
d="M557 -25q-220 0 -344.5 119t-124.5 326q0 205 124.5 324.5t344.5 119.5t344.5 -119.5t124.5 -324.5q0 -207 -124.5 -326t-344.5 -119zM557 82q162 0 256 87.5t94 250.5q0 162 -94.5 250t-255.5 88q-162 0 -256 -88t-94 -250q0 -163 93.5 -250.5t256.5 -87.5z" />
    <glyph glyph-name="one.dnom" horiz-adv-x="559" 
d="M297 0v692q-91 -76 -246 -100v102q72 10 144 49t131 95h88v-838h-117z" />
    <glyph glyph-name="two.dnom" horiz-adv-x="960" 
d="M90 662q66 93 170.5 147.5t235.5 54.5q94 0 176 -28t136 -85.5t54 -134.5q0 -99 -79.5 -164t-235.5 -124q-101 -40 -163.5 -70t-112 -71t-62.5 -85h672v-102h-811v70q38 207 407 346q144 57 183 79q84 51 85 119q0 47 -38 82t-95 51.5t-123 16.5q-103 0 -176.5 -37.5
t-134.5 -118.5z" />
    <glyph glyph-name="three.dnom" horiz-adv-x="991" 
d="M168 229q98 -153 326 -153q122 0 205 45t83 125q0 53 -41.5 88t-107 49t-154.5 14h-106v95h106q120 0 197.5 31t77.5 100q0 48 -40.5 80.5t-99.5 46.5t-129 14q-200 0 -295 -135l-92 55q47 82 156.5 131t243.5 49q98 0 181.5 -25t138 -77.5t54.5 -122.5q0 -80 -62 -133.5
t-146 -59.5q43 -6 83 -20.5t77 -39t59 -64t22 -89.5q0 -118 -115 -188t-292 -70q-144 0 -259 57t-171 152z" />
    <glyph glyph-name="four.dnom" horiz-adv-x="1013" 
d="M958 305v-98h-170v-207h-112v207h-631v74l641 557h102v-533h170zM207 305h469v393z" />
    <glyph glyph-name="five.dnom" horiz-adv-x="978" 
d="M152 225q72 -72 151 -109.5t193 -37.5q133 0 215 49.5t82 136.5t-79 130.5t-212 43.5q-159 0 -314 -76l-86 39l80 437h647v-101h-559l-51 -280q132 75 311 75q169 0 275 -69t106 -199q0 -128 -106 -208.5t-291 -80.5q-267 0 -442 179z" />
    <glyph glyph-name="six.dnom" horiz-adv-x="1040" 
d="M571 537q113 0 198.5 -27.5t139.5 -91.5t54 -158q0 -125 -111.5 -205t-298.5 -80q-218 0 -342.5 120t-124.5 325q0 204 124.5 324t342.5 120q250 0 381 -147l-84 -68q-55 62 -124 89.5t-167 27.5q-162 0 -258 -86.5t-96 -259.5q0 -39 2 -55q52 81 153 126.5t211 45.5z
M553 74q131 0 211 48.5t80 133.5q0 184 -291 184q-95 0 -185.5 -40.5t-144.5 -112.5q33 -107 119 -160t211 -53z" />
    <glyph glyph-name="seven.dnom" horiz-adv-x="884" 
d="M254 0l453 735h-666v103h807v-82l-461 -756h-133z" />
    <glyph glyph-name="eight.dnom" horiz-adv-x="1042" 
d="M705 449q106 -14 178.5 -68.5t72.5 -155.5q0 -112 -120 -181t-314 -69t-315 69t-121 181q0 53 22 94.5t59.5 67t79.5 41t91 21.5q-95 6 -158 58.5t-63 137.5q0 68 56.5 118.5t147.5 75.5t201 25t200.5 -25t147 -75.5t56.5 -118.5q0 -85 -62.5 -137.5t-158.5 -58.5z
M233 631q0 -52 42 -85t103.5 -45t143.5 -12q81 0 142 12t103 45t42 85q0 67 -83 103t-204 36q-122 0 -205.5 -36t-83.5 -103zM520 70q139 0 228.5 45t89.5 123q0 58 -43 96t-112 53.5t-163 15.5q-145 0 -230 -39.5t-85 -125.5q0 -78 88.5 -123t226.5 -45z" />
    <glyph glyph-name="nine.dnom" horiz-adv-x="1040" 
d="M471 862q219 0 343 -119.5t124 -324.5q0 -204 -124.5 -324.5t-342.5 -120.5q-249 0 -381 148l84 67q55 -62 124 -89t167 -27q162 0 258 86.5t96 259.5q0 39 -2 55q-52 -81 -153 -126.5t-211 -45.5q-113 0 -198.5 27.5t-139.5 91.5t-54 158q0 125 111.5 204.5t298.5 79.5z
M471 397q95 0 185.5 41t144.5 113q-33 107 -119 160t-211 53q-131 0 -211 -48.5t-80 -133.5q0 -185 291 -185z" />
    <glyph glyph-name="zero.numr" horiz-adv-x="1112" 
d="M557 571q-220 0 -344.5 119t-124.5 326q0 205 124.5 324.5t344.5 119.5t344.5 -119.5t124.5 -324.5q0 -207 -124.5 -326t-344.5 -119zM557 678q162 0 256 87.5t94 250.5q0 162 -94.5 250t-255.5 88q-162 0 -256 -88t-94 -250q0 -163 93.5 -250.5t256.5 -87.5z" />
    <glyph glyph-name="one.numr" horiz-adv-x="559" 
d="M297 596v692q-91 -76 -246 -100v102q72 10 144 49t131 95h88v-838h-117z" />
    <glyph glyph-name="two.numr" horiz-adv-x="960" 
d="M90 1257q66 93 171 148t235 55q94 0 176 -28t136 -85.5t54 -134.5q0 -99 -79.5 -164t-235.5 -124q-101 -40 -163.5 -70t-112 -71t-62.5 -85h672v-102h-811v70q38 207 407 346q144 57 183 79q84 51 85 119q0 47 -38 82t-95 51.5t-123 16.5q-103 0 -176.5 -37.5
t-134.5 -118.5z" />
    <glyph glyph-name="three.numr" horiz-adv-x="991" 
d="M168 825q98 -153 326 -153q122 0 205 45t83 125q0 53 -41.5 88t-107 49t-154.5 14h-106v94h106q56 0 103 7t87 21.5t62.5 41t22.5 62.5q0 48 -40.5 80.5t-99.5 46.5t-129 14q-200 0 -295 -135l-92 55q47 82 156.5 131t243.5 49q98 0 181.5 -25t138 -77.5t54.5 -122.5
q0 -80 -62 -133.5t-146 -59.5q43 -6 83 -20.5t77 -39t59 -64t22 -89.5q0 -118 -115 -188t-292 -70q-144 0 -259 57t-171 152z" />
    <glyph glyph-name="four.numr" horiz-adv-x="1013" 
d="M958 901v-98h-170v-207h-112v207h-631v74l641 557h102v-533h170zM207 901h469v393z" />
    <glyph glyph-name="five.numr" horiz-adv-x="978" 
d="M152 821q72 -72 151 -109.5t193 -37.5q133 0 215 49.5t82 136.5t-79 130.5t-212 43.5q-159 0 -314 -76l-86 39l80 437h647v-101h-559l-51 -280q132 75 311 75q169 0 275 -69t106 -199q0 -128 -106 -208.5t-291 -80.5q-267 0 -442 179z" />
    <glyph glyph-name="six.numr" horiz-adv-x="1040" 
d="M571 1133q113 0 198.5 -27.5t139.5 -91.5t54 -158q0 -125 -111.5 -205t-298.5 -80q-218 0 -342.5 120t-124.5 325q0 204 124.5 324t342.5 120q250 0 381 -147l-84 -68q-55 62 -124 89.5t-167 27.5q-162 0 -258 -86.5t-96 -259.5q0 -39 2 -55q52 81 153 126.5t211 45.5z
M553 670q131 0 211 48.5t80 133.5q0 184 -291 184q-95 0 -185.5 -40.5t-144.5 -112.5q33 -107 119 -160t211 -53z" />
    <glyph glyph-name="seven.numr" horiz-adv-x="884" 
d="M254 596l453 735h-666v103h807v-82l-461 -756h-133z" />
    <glyph glyph-name="eight.numr" horiz-adv-x="1042" 
d="M705 1044q49 -6 91.5 -21t79.5 -41t58.5 -67t21.5 -94q0 -112 -120 -181t-314 -69t-315 69t-121 181q0 53 22 94.5t59.5 67t79.5 40.5t91 21q-95 6 -158 59t-63 138q0 68 56.5 118.5t147.5 75.5t201 25t200.5 -25t147 -75.5t56.5 -118.5q0 -85 -62.5 -138t-158.5 -59z
M233 1227q0 -52 42 -85t103.5 -45t143.5 -12q81 0 142 12t103 45t42 85q0 67 -83 103t-204 36q-122 0 -205.5 -36t-83.5 -103zM520 666q139 0 228.5 45t89.5 123q0 58 -43 96t-112 53.5t-163 15.5q-145 0 -230 -39.5t-85 -125.5q0 -78 88.5 -123t226.5 -45z" />
    <glyph glyph-name="nine.numr" horiz-adv-x="1040" 
d="M471 1458q219 0 343 -119.5t124 -324.5q0 -204 -124.5 -324.5t-342.5 -120.5q-249 0 -381 148l84 67q55 -62 124 -89t167 -27q162 0 258 86.5t96 259.5q0 39 -2 55q-52 -81 -153 -126.5t-211 -45.5q-113 0 -198.5 27.5t-139.5 91.5t-54 158q0 125 111.5 204.5t298.5 79.5
zM471 993q95 0 185.5 41t144.5 113q-33 107 -119 160t-211 53q-131 0 -211 -48.5t-80 -133.5q0 -185 291 -185z" />
    <glyph glyph-name="zero.sc" horiz-adv-x="1779" 
d="M889 -41q-354 0 -555 177.5t-201 481.5q0 305 201 483.5t555 178.5q356 0 557 -178.5t201 -483.5t-201 -482t-557 -177zM889 113q271 0 426 130.5t155 374.5q0 245 -155 376.5t-426 131.5t-425.5 -131.5t-154.5 -376.5q0 -244 154.5 -374.5t425.5 -130.5z" />
    <glyph glyph-name="one.sc" horiz-adv-x="882" 
d="M481 0v1034q-161 -123 -403 -160v150q223 32 444 215h131v-1239h-172z" />
    <glyph glyph-name="two.sc" horiz-adv-x="1542" 
d="M143 965q78 140 242 226.5t395 86.5q160 0 297 -41t225.5 -126t88.5 -198q0 -77 -37 -140.5t-111 -115.5t-162 -92.5t-213 -83.5q-123 -43 -208.5 -78t-161 -76t-119.5 -86t-60 -96h1100v-145h-1313v82q30 160 202.5 294t463.5 234q219 77 289 113q129 66 149 150
q4 18 4 38q0 72 -63 123.5t-160.5 75t-216.5 23.5q-177 0 -295 -60.5t-203 -183.5z" />
    <glyph glyph-name="three.sc" horiz-adv-x="1593" 
d="M248 348q70 -81 143 -132.5t175.5 -81.5t232.5 -30q211 0 347 67t136 187q0 230 -506 230h-172v141h172q127 0 228.5 21t167 68.5t65.5 115.5q0 50 -37.5 89.5t-102 62.5t-143.5 35t-168 12q-326 0 -499 -218l-140 82q98 134 261.5 207.5t388.5 73.5q161 0 299.5 -37
t227.5 -112.5t89 -174.5q0 -84 -49.5 -148.5t-127 -99.5t-171.5 -42q58 -6 113 -20.5t107.5 -41t91.5 -62t63 -87t24 -111.5q0 -121 -87 -208t-234 -130t-336 -43q-234 0 -413.5 83.5t-284.5 227.5z" />
    <glyph glyph-name="four.sc" horiz-adv-x="1630" 
d="M1546 440v-141h-282v-299h-170v299h-1024v113l1042 827h152v-799h282zM313 440h781v607z" />
    <glyph glyph-name="five.sc" horiz-adv-x="1576" 
d="M225 354q120 -123 256 -184t328 -61q223 0 356 69.5t133 200.5q0 132 -136.5 200t-373.5 68q-239 0 -483 -100l-139 59l110 633h1063v-147h-921l-74 -410q123 58 238.5 80t263.5 22q103 0 195 -15t172 -47.5t138 -80t91 -115.5t33 -151q0 -178 -179.5 -297t-486.5 -119
q-220 0 -399.5 81.5t-305.5 221.5z" />
    <glyph glyph-name="six.sc" horiz-adv-x="1671" 
d="M924 788q130 0 241.5 -24t199 -71.5t137.5 -126t50 -179.5q0 -190 -180.5 -309t-484.5 -119q-351 0 -552.5 179t-201.5 480q0 302 201.5 482t552.5 180q397 0 614 -223l-127 -99q-175 181 -479 181q-269 0 -427.5 -131t-158.5 -390q0 -50 6 -94q86 122 251 193t358 71z
M887 98q224 0 356.5 76t132.5 211q0 136 -128.5 201t-350.5 65q-163 0 -315 -61.5t-244 -169.5q54 -161 197 -241.5t352 -80.5z" />
    <glyph glyph-name="seven.sc" horiz-adv-x="1421" 
d="M403 0l750 1090h-1092v149h1307v-121l-760 -1118h-205z" />
    <glyph glyph-name="eight.sc" horiz-adv-x="1671" 
d="M1167 662q49 -4 98.5 -18t100 -41.5t88.5 -64t62 -90.5t24 -118q0 -163 -196 -267t-508 -104q-314 0 -509.5 104t-195.5 267q0 64 24 118t62 90.5t88.5 64t100 41.5t98.5 18q-82 8 -154 43t-121 100.5t-49 148.5q0 99 91.5 174.5t239.5 113.5t325 38q176 0 323 -38
t238.5 -113.5t91.5 -174.5q0 -83 -48.5 -148.5t-120 -100.5t-153.5 -43zM354 934q0 -209 482 -209q481 0 481 209q0 67 -68 115t-174.5 70t-238.5 22t-239 -22t-175 -70t-68 -115zM834 98q234 0 380 68.5t146 181.5q0 125 -141.5 186.5t-384.5 61.5q-242 0 -383.5 -61.5
t-141.5 -186.5q0 -113 146.5 -181.5t378.5 -68.5z" />
    <glyph glyph-name="nine.sc" horiz-adv-x="1671" 
d="M768 1280q351 0 552.5 -179t201.5 -480q0 -302 -201.5 -482t-552.5 -180q-397 0 -614 223l127 99q175 -181 479 -181q269 0 427.5 131t158.5 390q0 43 -7 94q-86 -122 -250.5 -193t-357.5 -71q-130 0 -241.5 24t-199.5 71.5t-138 126t-50 179.5q0 190 181 309t485 119z
M758 588q163 0 315 61.5t244 169.5q-54 161 -197 241.5t-352 80.5q-224 0 -356.5 -76t-132.5 -211q0 -136 128.5 -201t350.5 -65z" />
    <glyph glyph-name="periodcentered.case" horiz-adv-x="524" 
d="M262 618q-54 0 -88.5 31.5t-34.5 81.5t34.5 82.5t88.5 32.5t88.5 -32.5t34.5 -82.5t-34.5 -81.5t-88.5 -31.5z" />
    <glyph glyph-name="bullet.case" horiz-adv-x="753" 
d="M379 541q-83 0 -141 54t-58 132q0 79 58 133.5t141 54.5t139.5 -54t56.5 -134q0 -78 -56.5 -132t-139.5 -54z" />
    <glyph glyph-name="exclamdown.case" horiz-adv-x="643" 
d="M307 1454q54 0 88.5 -31.5t34.5 -81.5t-34.5 -82t-88.5 -32t-88.5 32t-34.5 82t34.5 81.5t88.5 31.5zM201 0l35 1038h143l35 -1038h-213z" />
    <glyph glyph-name="questiondown.case" horiz-adv-x="1513" 
d="M766 1458q54 0 88.5 -31.5t34.5 -80.5q0 -50 -34.5 -82.5t-88.5 -32.5t-88.5 32.5t-34.5 82.5q0 49 34.5 80.5t88.5 31.5zM846 1026v-379q-130 -8 -228.5 -25.5t-178 -49t-121.5 -81.5t-42 -118q0 -87 67 -147t166 -85.5t220 -25.5q384 0 574 276l133 -84
q-109 -160 -292.5 -252t-420.5 -92q-119 0 -229 26.5t-198.5 76.5t-142 129.5t-53.5 177.5q0 118 79 205.5t210 134t305 59.5v254h152z" />
    <glyph glyph-name="braceleft.case" horiz-adv-x="929" 
d="M535 1102q0 -179 -86.5 -278.5t-229.5 -104.5q143 -8 229.5 -107t86.5 -278q0 -144 62.5 -233t182.5 -89h62v-135h-80q-177 0 -275 110t-98 312q0 90 -20 157t-52.5 106.5t-80 64t-94.5 33t-105 8.5v100q58 0 105 8.5t94.5 33t80 64t52.5 106.5t20 157q0 202 97.5 310.5
t275.5 108.5h80v-135h-62q-120 0 -182.5 -87.5t-62.5 -231.5z" />
    <glyph glyph-name="braceright.case" horiz-adv-x="929" 
d="M395 1102q0 144 -62.5 231.5t-182.5 87.5h-62v135h80q178 0 275.5 -108.5t97.5 -310.5q0 -90 20 -157t52.5 -106.5t80 -64t94.5 -33t105 -8.5v-100q-58 0 -105 -8.5t-94.5 -33t-80 -64t-52.5 -106.5t-20 -157q0 -202 -98 -312t-275 -110h-80v135h62q120 0 182.5 89
t62.5 233q0 179 86.5 278t229.5 107q-143 5 -229.5 104.5t-86.5 278.5z" />
    <glyph glyph-name="bracketleft.case" horiz-adv-x="878" 
d="M791 1421h-410v-1409h410v-135h-553v1679h553v-135z" />
    <glyph glyph-name="bracketright.case" horiz-adv-x="878" 
d="M88 1421v135h553v-1679h-553v135h410v1409h-410z" />
    <glyph glyph-name="parenleft.case" horiz-adv-x="880" 
d="M276 717q0 -280 139 -477.5t378 -278.5l-56 -121q-279 82 -445.5 319.5t-166.5 557.5t166.5 557t445.5 319l56 -120q-239 -81 -378 -278.5t-139 -477.5z" />
    <glyph glyph-name="parenright.case" horiz-adv-x="880" 
d="M604 717q0 280 -139 477.5t-377 278.5l55 120q279 -82 446 -319t167 -557t-167 -557.5t-446 -319.5l-55 121q238 81 377 278.5t139 477.5z" />
    <glyph glyph-name="emdash.case" horiz-adv-x="2070" 
d="M1894 653h-1720v148h1720v-148z" />
    <glyph glyph-name="endash.case" horiz-adv-x="1626" 
d="M1450 653h-1276v148h1276v-148z" />
    <glyph glyph-name="hyphen.case" horiz-adv-x="1224" 
d="M1049 653h-875v148h875v-148z" />
    <glyph glyph-name="guillemotleft.case" horiz-adv-x="1300" 
d="M528 1165l-432 -438l432 -438h189l-434 438l434 438h-189zM985 1165l-432 -438l432 -438h189l-435 438l435 438h-189z" />
    <glyph glyph-name="guillemotright.case" horiz-adv-x="1300" 
d="M315 1165h-188l434 -438l-434 -438h188l433 438zM772 1165h-188l434 -438l-434 -438h188l432 438z" />
    <glyph glyph-name="guilsinglleft.case" horiz-adv-x="843" 
d="M528 1165l-432 -438l432 -438h189l-434 438l434 438h-189z" />
    <glyph glyph-name="guilsinglright.case" horiz-adv-x="843" 
d="M315 1165h-188l434 -438l-434 -438h188l433 438z" />
    <glyph glyph-name="backslash.sc" horiz-adv-x="1236" 
d="M260 1444l991 -1649h-190l-993 1649h192z" />
    <glyph glyph-name="exclam.sc" horiz-adv-x="645" 
d="M219 1239h213l-35 -844h-143zM326 -20q-54 0 -88.5 31.5t-34.5 80.5q0 50 34.5 82.5t88.5 32.5t88.5 -32.5t34.5 -82.5q0 -49 -34.5 -80.5t-88.5 -31.5z" />
    <glyph glyph-name="exclamdown.sc" horiz-adv-x="643" 
d="M307 1260q54 0 88.5 -31.5t34.5 -81.5t-34.5 -82.5t-88.5 -32.5t-88.5 32.5t-34.5 82.5t34.5 81.5t88.5 31.5zM201 0l35 844h143l35 -844h-213z" />
    <glyph glyph-name="numbersign.sc" horiz-adv-x="1789" 
d="M1673 786h-317l-94 -311h350v-129h-387l-105 -346h-151l104 346h-524l-105 -346h-151l104 346h-282v129h319l94 311h-350v129h389l97 324h151l-96 -324h524l96 324h152l-96 -324h278v-129zM1110 475l94 311h-524l-94 -311h524z" />
    <glyph glyph-name="question.sc" horiz-adv-x="1382" 
d="M606 362v324q506 31 506 236q0 72 -58.5 122t-146.5 71.5t-194 21.5q-339 0 -512 -234l-127 84q100 136 265.5 214.5t379.5 78.5q109 0 209.5 -23t181.5 -66t129.5 -113t48.5 -156q0 -153 -147 -243t-387 -106v-211h-148zM680 -20q-54 0 -88.5 31.5t-34.5 80.5
q0 50 34.5 82.5t88.5 32.5t88.5 -32.5t34.5 -82.5q0 -49 -34.5 -80.5t-88.5 -31.5z" />
    <glyph glyph-name="questiondown.sc" horiz-adv-x="1380" 
d="M702 1260q54 0 88.5 -31.5t34.5 -81.5t-34.5 -82.5t-88.5 -32.5t-88 32.5t-34 82.5t34 81.5t88 31.5zM776 877v-324q-506 -31 -506 -236q0 -72 59 -122t147 -71.5t194 -21.5q339 0 512 234l127 -84q-100 -136 -265.5 -214.5t-379.5 -78.5q-109 0 -209.5 23t-182 66
t-130 113t-48.5 156q0 103 70.5 179.5t189 118t275.5 51.5v211h147z" />
    <glyph glyph-name="slash.sc" horiz-adv-x="1314" 
d="M260 -205h-192l993 1649h190z" />
    <glyph glyph-name="percent.osf" horiz-adv-x="1882" 
d="M449 627q-158 0 -258.5 93.5t-100.5 229.5q0 138 100 231t259 93q158 0 258 -93t100 -231q0 -136 -100 -229.5t-258 -93.5zM1409 1249h164l-1100 -1249h-164zM449 745q100 0 163.5 55t63.5 150t-63.5 150t-163.5 55q-101 0 -164.5 -55t-63.5 -150t63.5 -150t164.5 -55z
M1434 -25q-158 0 -258.5 94t-100.5 230q0 138 100 231t259 93q158 0 258 -93t100 -231q0 -136 -100 -230t-258 -94zM1434 94q100 0 163.5 55t63.5 150t-63.5 150t-163.5 55q-101 0 -164.5 -55t-63.5 -150t63.5 -150t164.5 -55z" />
    <glyph glyph-name="perthousand.osf" horiz-adv-x="2689" 
d="M449 627q-158 0 -258.5 93.5t-100.5 229.5q0 138 100 231t259 93q158 0 258 -93t100 -231q0 -136 -100 -229.5t-258 -93.5zM1409 1249h164l-1100 -1249h-164zM449 745q100 0 163.5 55t63.5 150t-63.5 150t-163.5 55q-101 0 -164.5 -55t-63.5 -150t63.5 -150t164.5 -55z
M1434 -25q-158 0 -258.5 94t-100.5 230q0 138 100 231t259 93q158 0 258 -93t100 -231q0 -136 -100 -230t-258 -94zM2241 -25q-158 0 -258.5 94t-100.5 230q0 138 100 231t259 93q158 0 258 -93t100 -231q0 -136 -100 -230t-258 -94zM1434 94q100 0 163.5 55t63.5 150
t-63.5 150t-163.5 55q-101 0 -164.5 -55t-63.5 -150t63.5 -150t164.5 -55zM2241 94q100 0 163.5 55t63.5 150t-63.5 150t-163.5 55q-101 0 -164.5 -55t-63.5 -150t63.5 -150t164.5 -55z" />
    <glyph glyph-name="bar.case" horiz-adv-x="602" 
d="M221 -123v1679h160v-1679h-160z" />
    <glyph glyph-name="brokenbar.case" horiz-adv-x="602" 
d="M221 887v669h160v-669h-160zM381 557v-680h-160v680h160z" />
    <glyph glyph-name="at.case" horiz-adv-x="2127" 
d="M1583 59q-101 -52 -240.5 -77t-283.5 -25q-210 0 -385.5 57t-295 158t-185.5 241t-66 304t66 304t185.5 241t295 158t385.5 57q280 0 492 -99t325 -276t113 -406q0 -199 -73 -326.5t-208 -127.5q-106 0 -178 70.5t-86 172.5q-64 -115 -186 -182t-277 -67q-82 0 -158 20
t-141 60.5t-113.5 97.5t-76 136t-27.5 171q0 115 42 208t114 152t164.5 91t195.5 32q154 0 273.5 -67t185.5 -183l33 211h104v-581q0 -58 11 -103t28 -71.5t39.5 -44t42 -23.5t39.5 -6q74 0 119 103.5t45 256.5q0 166 -63 299.5t-175.5 220.5t-266.5 133t-337 46
q-246 0 -435.5 -78.5t-299 -233.5t-109.5 -366t109.5 -366t299 -233.5t435.5 -78.5q274 0 487 92zM1014 356q146 0 253.5 70t170.5 207v172q-126 276 -424 276q-87 0 -159 -21t-128 -63.5t-87.5 -113.5t-31.5 -164t31.5 -164t87.5 -114t128 -64t159 -21z" />
    <glyph glyph-name="registered.case" horiz-adv-x="2002" 
d="M1001 1477q404 0 637.5 -206.5t233.5 -553.5t-233.5 -553.5t-637.5 -206.5t-637 206.5t-233 553.5t233 553.5t637 206.5zM1001 29q241 0 419 79.5t276 235.5t98 373t-98 373t-276 235.5t-419 79.5t-419 -79.5t-276.5 -235.5t-98.5 -373t98.5 -373t276.5 -235.5t419 -79.5
zM1556 893q0 -123 -74 -199t-204 -102l299 -359h-170l-277 347h-487v-347h-139v971h643q186 0 297.5 -80t111.5 -231zM643 1077v-370h496q137 0 206.5 41.5t69.5 142.5q0 100 -70 143t-206 43h-496z" />
    <glyph glyph-name="dagger.case" horiz-adv-x="1136" 
d="M987 993v-139h-348v-854h-147v854h-342v139h342v441h147v-441h348z" />
    <glyph glyph-name="daggerdbl.case" horiz-adv-x="1136" 
d="M987 958h-348v-483h348v-139h-348v-336h-147v336h-342v139h342v483h-342v140h342v336h147v-336h348v-140z" />
    <glyph glyph-name="bar.sc" horiz-adv-x="602" 
d="M221 -205v1680h160v-1680h-160z" />
    <glyph glyph-name="brokenbar.sc" horiz-adv-x="602" 
d="M221 805v670h160v-670h-160zM381 475v-680h-160v680h160z" />
    <glyph glyph-name="at.sc" horiz-adv-x="1927" 
d="M1452 53q-93 -47 -221 -70.5t-258 -23.5q-190 0 -349 50t-267 137.5t-168 209t-60 262.5q0 190 102.5 340t295.5 236t446 86q191 0 350 -50t267.5 -138t168.5 -210t60 -264q0 -184 -65.5 -295.5t-186.5 -111.5q-92 0 -161.5 62.5t-86.5 158.5q-57 -106 -167 -165.5
t-251 -59.5q-94 0 -178 27.5t-148.5 78.5t-102.5 131.5t-38 178.5q0 130 65.5 226.5t170 143.5t231.5 47q140 0 248.5 -60.5t165.5 -168.5l35 197h96v-502q0 -118 42.5 -176t100.5 -58q73 0 113.5 98.5t40.5 247.5q0 185 -101.5 321t-274 204.5t-394.5 68.5t-394.5 -68.5
t-273 -204.5t-100.5 -321q0 -138 58 -250.5t161 -186.5t243.5 -114t305.5 -40q247 0 444 90zM934 309q266 0 379 238v149q-113 236 -379 236q-162 0 -263.5 -78.5t-101.5 -232.5t101.5 -233t263.5 -79z" />
    <glyph glyph-name="ampersand.sc" horiz-adv-x="1687" 
d="M1655 0h-250l-133 94q-187 -129 -492 -129q-184 0 -334 54t-234.5 148.5t-84.5 209.5q0 108 72.5 199.5t197.5 140.5q-112 97 -112 221q0 150 133 243t346 93q112 0 206 -26.5t161 -74t113 -103t77 -122.5l-150 -61q-56 122 -155 181.5t-252 59.5q-144 0 -228.5 -51
t-84.5 -137q0 -20 5.5 -38.5t12.5 -33t24.5 -33.5t29.5 -30.5t40 -33t43.5 -32t52.5 -36.5t56 -39l538 -381q94 117 97 299h163q-3 -234 -131 -389zM791 111q216 0 348 75l-586 414l-49 35q-102 -41 -151.5 -105.5t-49.5 -140.5q0 -70 40 -124.5t108.5 -87.5t154.5 -49.5
t185 -16.5z" />
    <glyph glyph-name="paragraph.sc" horiz-adv-x="1775" 
d="M610 1239h940v-1239h-143v1106h-313v-1106h-144v428h-340q-242 0 -381 104t-139 304q0 196 139 299.5t381 103.5zM950 561v545h-334q-183 0 -281.5 -67t-98.5 -205t98.5 -205.5t281.5 -67.5h334z" />
    <glyph glyph-name="copyright.sc" horiz-adv-x="1837" 
d="M918 -37q-366 0 -578.5 179.5t-212.5 478.5q0 300 212.5 479.5t578.5 179.5q367 0 579.5 -179.5t212.5 -479.5q0 -299 -212.5 -478.5t-579.5 -179.5zM918 27q331 0 525.5 156.5t194.5 437.5t-194.5 438.5t-525.5 157.5q-330 0 -524.5 -157.5t-194.5 -438.5
q0 -187 89.5 -321.5t251 -203.5t378.5 -69zM1407 395q-74 -102 -199 -164.5t-293 -62.5q-243 0 -388.5 122t-145.5 333t145.5 333.5t388.5 122.5q166 0 290 -61.5t194 -163.5l-123 -59q-61 86 -144.5 124.5t-205.5 38.5q-186 0 -296 -86.5t-110 -248.5q0 -161 110 -247.5
t296 -86.5q123 0 208 40t146 128z" />
    <glyph glyph-name="registered.sc" horiz-adv-x="1832" 
d="M915 1280q367 0 579 -180.5t212 -481.5q0 -299 -212 -479t-579 -180q-365 0 -576.5 180t-211.5 479q0 301 211 481.5t577 180.5zM915 16q218 0 382.5 70.5t256 207.5t91.5 324q0 283 -199 444t-531 161q-217 0 -380 -70.5t-254 -208.5t-91 -326q0 -282 197.5 -442
t527.5 -160zM1423 766q0 -106 -67.5 -174t-186.5 -90l271 -301h-168l-250 291h-422v-291h-135v839h584q169 0 271.5 -71t102.5 -203zM600 922v-312h440q244 0 244 156q0 76 -64.5 116t-179.5 40h-440z" />
    </font>
</defs>
</svg>
